<?xml version="1.0" encoding="utf-8"?>
<!-- Generator: Adobe Illustrator 25.4.1, SVG Export Plug-In . SVG Version: 6.00 Build 0)  -->
<svg version="1.1" id="レイヤー_1" xmlns="http://www.w3.org/2000/svg" xmlns:xlink="http://www.w3.org/1999/xlink" x="0px"
	 y="0px" viewBox="0 0 470 90" style="enable-background:new 0 0 470 90;" xml:space="preserve">
<style type="text/css">
	.st0{fill:#463243;stroke:#463243;stroke-width:4;stroke-linecap:round;stroke-linejoin:round;stroke-miterlimit:10;}
	.st1{fill:#463143;}
	.st2{fill:#463243;}
</style>
<line class="st0" x1="126.51" y1="49.13" x2="338.51" y2="49.13"/>
<g>
	<g>
		<path class="st1" d="M17.44,32.12c-9.13,0-15.16-5.71-15.16-14.35c0-5.13,1.98-9.04,6.16-12.15c2.25-1.67,5.44-2.7,9.13-2.7
			c4.14,0,7.65,1.17,10.53,3.46l-0.58,5.71l-0.68-0.22c-1.3-5-4.81-7.79-9.67-7.79c-6.52,0-10.3,4.77-10.3,13.46
			C6.86,25.91,11.27,31,17.89,31c4.46,0,7.74-2.43,9.76-7.29h1.04l-0.63,4.86C25.13,30.86,21.4,32.12,17.44,32.12z"/>
		<path class="st1" d="M41.46,28.66c-3.15-2.56-4.81-6.34-4.81-11.11s1.71-8.64,4.86-11.21c2.74-2.25,6.12-3.42,10.03-3.42
			c3.91,0,7.29,1.17,10.03,3.42c3.15,2.57,4.86,6.44,4.86,11.21s-1.66,8.55-4.81,11.11c-2.83,2.29-6.17,3.46-10.08,3.46
			C47.63,32.12,44.3,30.95,41.46,28.66z M61.98,17.54c0-8.59-4.05-13.46-10.44-13.46c-6.39,0-10.4,4.86-10.4,13.46
			c0,8.55,4,13.41,10.4,13.41C57.93,30.95,61.98,26.09,61.98,17.54z"/>
		<path class="st1" d="M72.87,30.77c3.51-0.5,3.87-2.34,4.05-7.02l0.5-14c0-0.31,0-0.63,0-0.9c0-3.29-0.77-4.46-4.05-4.54V3.14h7.51
			L91,26.14l10.48-22.99h7.06v1.17c-3.78,0.09-4.32,0.99-4.32,4.27c0,0.14,0,0.27,0,0.45L104.46,26c0.04,3.28,0.04,4.45,3.69,4.77
			v1.12H97.08v-1.12c3.38-0.23,3.82-1.21,3.82-4.23c0-0.18,0-0.36,0-0.54l-0.22-18L89.92,31.49h-0.67L78.67,7.51l-0.4,17.42
			c0,0.31,0,0.63,0,0.9c0,3.6,0.58,4.82,4.09,4.95v1.12h-9.49V30.77z"/>
		<path class="st1" d="M139.27,10.84c0,5.49-4.27,8.68-12.1,8.68c-0.4,0-0.81-0.04-1.26-0.04v-1.12c0.36,0.04,0.76,0.04,1.08,0.04
			c5.22,0,8.23-2.74,8.23-7.38c0-4.41-2.7-6.88-7.92-6.88c-2.48,0-2.97,0.81-2.97,3.1V26c0,3.55,0.23,4.63,4.19,4.77v1.12h-12.33
			v-1.12c3.96-0.13,4.19-1.21,4.19-4.77V9.04c0-3.55-0.23-4.59-4.19-4.72V3.14h11.02C135.31,3.14,139.27,5.48,139.27,10.84z"/>
		<path class="st1" d="M140.61,30.77c2.74-0.27,4.05-2.03,5.4-5.45l6.17-15.52c0.36-0.94,0.63-1.89,0.77-2.88l2.7-3.96l0.85,0.31
			l9,23.26c1.08,2.75,2.25,4.05,4.63,4.23v1.12h-11.2v-1.12c2.07-0.27,2.97-0.81,2.97-2.07c0-0.54-0.09-1.17-0.36-1.84l-2.38-6.12
			h-9.9l-1.94,5.13c-0.45,1.21-0.67,2.12-0.67,2.57c0,1.17,0.99,1.93,2.92,2.34v1.12h-8.95V30.77z M158.75,19.39l-4.46-11.61
			l-4.54,11.61H158.75z"/>
		<path class="st1" d="M203.61,25.42V9.04c0-3.55-0.18-4.59-4.14-4.72V3.14h9.76v1.17c-4,0.09-4.23,1.17-4.23,4.72V31.9h-0.99
			L181.79,7.69V26c0,3.55,0.23,4.63,4.19,4.77v1.12h-9.18v-1.12c3.51-0.27,3.65-1.4,3.65-4.77V9.04c0-3.69-0.23-4.68-4.54-4.72V3.14
			h7.2L203.61,25.42z"/>
		<path class="st1" d="M235.3,30.77v1.12h-12.33v-1.12c3.96-0.13,4.18-1.21,4.18-4.77v-7.47L219.69,7.1
			c-1.17-1.84-2.21-2.79-3.83-2.79c-0.04,0-0.09,0-0.13,0V3.14h10.93v1.17c-1.89,0-2.75,0.36-2.75,1.35c0,0.32,0.41,1.35,1.35,2.88
			l5.26,8.59l5.76-8.37c0.99-1.44,1.44-2.43,1.44-2.88c0-0.95-0.9-1.53-2.52-1.58V3.14h8.1v1.17c-0.09,0-0.18,0-0.27,0
			c-1.98,0-3.2,1.48-5.04,4.18l-6.89,10.12V26C231.12,29.56,231.34,30.64,235.3,30.77z"/>
		<path class="st1" d="M286.33,10.84c0,5.49-4.28,8.68-12.1,8.68c-0.41,0-0.81-0.04-1.26-0.04v-1.12c0.36,0.04,0.77,0.04,1.08,0.04
			c5.22,0,8.24-2.74,8.24-7.38c0-4.41-2.7-6.88-7.92-6.88c-2.47,0-2.97,0.81-2.97,3.1V26c0,3.55,0.22,4.63,4.18,4.77v1.12h-12.33
			v-1.12c3.96-0.13,4.19-1.21,4.19-4.77V9.04c0-3.55-0.23-4.59-4.19-4.72V3.14h11.03C282.37,3.14,286.33,5.48,286.33,10.84z"/>
		<path class="st1" d="M304.69,30.77v1.12h-12.33v-1.12c3.96-0.13,4.19-1.21,4.19-4.77V9.04c0-3.55-0.23-4.59-4.19-4.72V3.14h10.26
			c7.51,0,11.47,2.75,11.47,7.42c0,3.42-2.25,5.71-6.75,6.84c1.08,0.99,1.89,2.38,2.88,3.91l4.18,6.39
			c1.21,1.89,2.16,3.06,4.36,3.06v1.12h-5.71c-1.39-1.4-2.43-3.11-3.6-4.95l-2.43-3.87c-0.67-1.08-1.67-2.7-3.06-4.99
			c-0.99,0.13-2.12,0.18-3.46,0.18V26C300.5,29.56,300.73,30.64,304.69,30.77z M301,17.18c6.25,0,9.09-1.71,9.09-6.25
			c0-3.91-2.74-6.79-6.61-6.79c-2.43,0-2.97,0.54-2.97,2.65v10.39C300.68,17.18,300.82,17.18,301,17.18z"/>
		<path class="st1" d="M327.66,28.66c-3.15-2.56-4.82-6.34-4.82-11.11s1.71-8.64,4.86-11.21c2.75-2.25,6.12-3.42,10.03-3.42
			s7.29,1.17,10.04,3.42c3.15,2.57,4.86,6.44,4.86,11.21s-1.67,8.55-4.81,11.11c-2.83,2.29-6.17,3.46-10.08,3.46
			S330.5,30.95,327.66,28.66z M348.18,17.54c0-8.59-4.05-13.46-10.44-13.46s-10.39,4.86-10.39,13.46c0,8.55,4,13.41,10.39,13.41
			S348.18,26.09,348.18,17.54z"/>
		<path class="st1" d="M368.77,16.73h4.59c2.48,0,3.46-0.99,4.05-3.69h1.08v9.4h-1.08c-0.27-3.1-1.39-4.36-4.05-4.36h-4.59
			c-1.12,0-1.57,0.4-1.57,1.62V26c0,3.55,0.22,4.68,4.23,4.77v1.12h-12.38v-1.12c3.96-0.13,4.19-1.21,4.19-4.77V9.04
			c0-3.55-0.23-4.59-4.19-4.72V3.14h22.59l1.57,7.11l-1.08-0.09c-2.39-3.96-4.46-5.76-7.61-5.76h-3.91c-3.29,0-3.42,0.63-3.42,2.92
			v7.79C367.19,16.33,367.64,16.73,368.77,16.73z"/>
		<path class="st1" d="M389.91,30.77c3.96-0.13,4.18-1.21,4.18-4.77V9.04c0-3.55-0.22-4.59-4.18-4.72V3.14h12.33v1.17
			c-3.96,0.13-4.18,1.17-4.18,4.72V26c0,3.55,0.22,4.63,4.18,4.77v1.12h-12.33V30.77z"/>
		<path class="st1" d="M409.77,30.77c3.96-0.13,4.18-1.21,4.18-4.77V9.04c0-3.55-0.23-4.59-4.18-4.72V3.14h12.33v1.17
			c-3.96,0.13-4.18,1.17-4.18,4.72v18.04c0,0.14,0,0.27,0,0.41c0,2.52,0.09,3.15,3.42,3.15h3.46c4.77,0,7.2-1.22,9.94-6.03
			l0.99,0.27l-1.53,7.02h-24.43V30.77z"/>
		<path class="st1" d="M441.99,30.77c3.96-0.13,4.19-1.21,4.19-4.77V9.04c0-3.55-0.23-4.59-4.19-4.72V3.14h21.92l0.99,5.35
			l-0.99,0.09c-1.75-2.88-3.69-4.18-6.44-4.18h-3.91c-3.29,0-3.42,0.63-3.42,2.92v7.16c0,1.21,0.45,1.62,1.57,1.62h3.74
			c2.56,0,3.64-1.17,4.05-4.05h1.12v9.76h-1.12c-0.27-3.1-1.4-4.36-4.05-4.36h-3.74c-1.12,0-1.57,0.4-1.57,1.62v8.64
			c0,2.29,0.13,2.93,3.42,2.93h5.49c3.92,0,5.58-1.22,7.74-5.62l0.94,0.09l-1.44,6.79h-24.3V30.77z"/>
	</g>
</g>
<g>
	<path class="st2" d="M183.37,69.56c-0.14,0.06-0.32,0.1-0.56,0.12c1.7,2.26,4.96,4.38,8.24,5.6c0.18,0.08,0.26,0.14,0.24,0.24
		c-0.02,0.12-0.1,0.16-0.26,0.24c-0.42,0.16-0.74,0.48-0.94,0.84c-0.08,0.18-0.2,0.24-0.38,0.14c-3.12-1.54-5.94-4.14-7.28-6.84
		c-1.78,2.68-5.56,5.62-9.24,7.2c-0.18,0.08-0.3,0.06-0.34-0.04c-0.04-0.08,0.02-0.18,0.18-0.28c3.22-1.78,6.84-5.24,8-7.84
		c0.06-0.18,0.2-0.24,0.38-0.2l1.84,0.44C183.47,69.24,183.57,69.46,183.37,69.56z M188.67,78.1c0.32,0.24,0.92,0.72,1.44,1.16
		c0.14,0.12,0.2,0.3,0.04,0.4c-0.1,0.06-0.24,0.08-0.4,0.08h-8.4c-0.84,1.68-2.04,3.72-3.1,5.14c2.36-0.14,5.3-0.36,8.4-0.56
		c-0.72-0.98-1.6-1.94-2.38-2.66c-0.14-0.16-0.2-0.26-0.12-0.32c0.08-0.06,0.2-0.04,0.36,0.02c5.96,2.78,5.32,6.36,3.72,5.58
		c-0.14-0.06-0.2-0.16-0.24-0.3c-0.22-0.6-0.58-1.26-1.04-1.9c-2.76,0.46-6.38,1-11.36,1.66c-0.06,0.14-0.16,0.24-0.26,0.3
		c-0.16,0.12-0.3,0.02-0.38-0.14l-0.54-1.16c-0.1-0.22,0-0.34,0.22-0.36c0.74-0.02,1.72-0.06,2.86-0.12
		c0.72-1.48,1.58-3.62,2.06-5.18h-5.34c-0.16,0-0.3-0.08-0.34-0.26c-0.04-0.18,0.06-0.3,0.26-0.3h13.28l0.84-1.04
		C188.37,78,188.51,77.98,188.67,78.1z M185.31,74.52c0.32,0.26,0.9,0.72,1.4,1.14c0.14,0.12,0.2,0.28,0.06,0.4
		c-0.1,0.06-0.24,0.1-0.4,0.1h-8.9c-0.18,0-0.28-0.1-0.32-0.26c-0.06-0.22,0.06-0.34,0.26-0.34h6.7l0.78-0.98
		C185.01,74.44,185.15,74.4,185.31,74.52z"/>
	<path class="st2" d="M214.69,73.34c-0.14,0.04-0.32,0.06-0.56,0.08c-0.52,1.08-1.28,2.2-2.18,3.28c3.66,1.1,3.16,3.36,2,2.94
		c-0.14-0.04-0.2-0.14-0.26-0.26c-0.36-0.74-1.1-1.6-1.82-2.22v9.46c0,0.12-0.44,0.46-1.08,0.46c-0.12,0-0.2-0.12-0.2-0.3v-8.64
		c-1.02,1-2.14,1.88-3.26,2.58c-0.14,0.1-0.26,0.08-0.34,0.02c-0.06-0.06-0.02-0.18,0.14-0.3c2.26-1.88,4.52-4.82,5.58-7.24h-4.94
		c-0.16,0-0.3-0.08-0.34-0.26c-0.04-0.18,0.06-0.3,0.26-0.3h2.86v-3.48c0-0.2,0.12-0.3,0.32-0.28l1.3,0.14
		c0.2,0.02,0.36,0.2,0.22,0.36c-0.12,0.1-0.3,0.18-0.58,0.22v3.04h0.94l0.66-0.64c0.14-0.12,0.28-0.14,0.42,0l0.94,0.94
		C214.93,73.1,214.91,73.3,214.69,73.34z M224.25,84.52c0.32,0.24,0.86,0.7,1.3,1.1c0.12,0.12,0.18,0.28,0.06,0.4
		c-0.1,0.06-0.22,0.1-0.38,0.1h-11.44c-0.18,0-0.3-0.1-0.34-0.26c-0.04-0.2,0.06-0.32,0.26-0.32h4.98V76.3h-3.72
		c-0.18,0-0.3-0.1-0.34-0.26c-0.04-0.2,0.06-0.32,0.26-0.32h3.8V69.2c0-0.2,0.12-0.3,0.32-0.28l1.4,0.16
		c0.2,0.02,0.34,0.18,0.22,0.36c-0.12,0.12-0.3,0.2-0.58,0.24v6.04h2.44l0.74-0.96c0.12-0.14,0.26-0.18,0.42-0.04
		c0.3,0.24,0.84,0.68,1.28,1.08c0.14,0.12,0.2,0.28,0.06,0.4c-0.08,0.06-0.22,0.1-0.38,0.1h-4.56v9.24h3.02l0.76-0.98
		C223.96,84.42,224.09,84.38,224.25,84.52z"/>
	<path class="st2" d="M260.56,85.32c0.18,0.04,0.28,0.1,0.28,0.16c-0.02,0.1-0.1,0.12-0.26,0.18c-0.34,0.14-0.62,0.4-0.8,0.78
		c-0.08,0.18-0.2,0.24-0.38,0.18c-2.8-0.96-5.5-2.72-7.1-5.02h-0.18v5.04c0,0.16-0.56,0.42-1.06,0.42c-0.14,0-0.24-0.12-0.24-0.3
		v-4.82c-1.92,2.14-4.86,3.74-8.26,4.76c-0.18,0.06-0.32,0.02-0.36-0.1c-0.04-0.1,0.02-0.22,0.2-0.3c2.82-1.14,5.32-2.8,6.92-4.7
		h-6.28c-0.16,0-0.28-0.06-0.34-0.24c-0.06-0.18,0.04-0.32,0.26-0.32h7.86v-1.7c0-0.2,0.12-0.3,0.32-0.28l1.34,0.14
		c0.2,0.02,0.36,0.2,0.22,0.36c-0.12,0.1-0.3,0.18-0.58,0.22v1.26h5.54l0.78-0.92c0.12-0.16,0.26-0.16,0.42-0.04
		c0.3,0.22,0.86,0.66,1.32,1.04c0.14,0.12,0.2,0.3,0.04,0.4c-0.08,0.06-0.22,0.08-0.36,0.08h-7
		C254.66,83.34,257.78,84.7,260.56,85.32z M253.82,76.74c6.94,1.42,5.62,3.66,4.2,2.88c-1.28-0.82-3.02-1.52-5.26-2.14
		c-2.24,1.36-5.32,2-9.72,2.34c-0.18,0.02-0.3-0.06-0.32-0.16c-0.02-0.1,0.08-0.18,0.28-0.2c3.5-0.48,6.28-1.16,8.34-2.34
		c-1.08-0.26-2.3-0.5-3.6-0.7c-0.32,0.36-0.64,0.68-0.92,0.96c-0.1,0.1-0.2,0.16-0.36,0.14c-0.22-0.02-0.5-0.08-0.74-0.22
		c-0.18-0.12-0.18-0.28-0.04-0.42c0.72-0.66,1.58-1.62,2.38-2.54h-4.46c-0.16,0-0.28-0.06-0.34-0.24c-0.06-0.22,0.06-0.34,0.26-0.34
		h5.04c0.62-0.74,1.18-1.44,1.54-1.94c0.1-0.16,0.24-0.2,0.4-0.14l1.12,0.34c0.2,0.06,0.3,0.28,0.12,0.4
		c-0.16,0.08-0.34,0.1-0.6,0.06c-0.24,0.32-0.62,0.78-1.04,1.28h7.62l0.68-0.78c0.12-0.14,0.26-0.16,0.42-0.06
		c0.28,0.22,0.76,0.58,1.18,0.92c0.14,0.12,0.2,0.28,0.06,0.4c-0.1,0.06-0.24,0.1-0.4,0.1h-3.74
		C255.34,75.3,254.64,76.08,253.82,76.74z M244.21,73.08c-0.4,0.3-1.06,0.34-1.28-0.08c-0.18-0.38,0.08-0.78,0.48-1.02
		c0.54-0.32,1.1-1.16,1.2-2c0.02-0.2,0.08-0.3,0.2-0.3s0.2,0.08,0.24,0.26c0.04,0.24,0.08,0.48,0.08,0.7h5.64v-1.58
		c0-0.2,0.12-0.3,0.32-0.28l1.38,0.14c0.2,0.02,0.36,0.2,0.22,0.36c-0.12,0.1-0.3,0.2-0.58,0.24v1.12H258l0.6-0.6
		c0.14-0.14,0.28-0.14,0.42-0.02l1,0.98c0.14,0.14,0.16,0.36-0.04,0.4c-0.12,0.02-0.28,0.04-0.46,0.04
		c-0.46,0.46-1.26,1.08-1.9,1.48c-0.14,0.08-0.22,0.1-0.32,0.04c-0.08-0.04-0.08-0.16,0-0.34c0.22-0.4,0.48-0.92,0.68-1.38h-12.84
		C245.04,72.14,244.64,72.76,244.21,73.08z M248.12,75.98c1.62,0.14,3.02,0.3,4.2,0.5c0.8-0.6,1.46-1.3,1.98-2.14h-4.7
		C249.12,74.88,248.62,75.46,248.12,75.98z"/>
	<path class="st2" d="M294.38,73.04c-0.16,0.06-0.36,0.12-0.58,0.16v11.86c0,1-0.22,1.68-1.94,1.94c-0.2,0.04-0.32-0.06-0.36-0.24
		c-0.1-0.3-0.24-0.54-0.48-0.7c-0.32-0.22-0.82-0.38-1.68-0.52c-0.18-0.02-0.28-0.1-0.28-0.2s0.12-0.16,0.32-0.14
		c0.66,0.06,2.2,0.16,2.58,0.16c0.42,0,0.54-0.12,0.54-0.46V72.98h-6.08c-0.1,0.94-0.26,1.84-0.5,2.68
		c6.02,2.86,5.54,6.48,4.06,5.76c-0.14-0.06-0.2-0.16-0.24-0.3c-0.58-1.68-2.4-3.74-3.94-5.08c-0.74,2.24-2.2,4.14-5.1,5.74
		c-0.18,0.1-0.3,0.08-0.38-0.04c-0.08-0.1-0.04-0.24,0.12-0.36c3.26-2.32,4.28-4.98,4.66-8.4h-5.64v13.54c0,0.18-0.5,0.5-1.06,0.5
		c-0.14,0-0.24-0.12-0.24-0.3V72.1c0-0.22,0.16-0.34,0.36-0.24l1.08,0.52h5.56c0.08-1.02,0.12-2.12,0.14-3.28
		c0-0.2,0.12-0.3,0.32-0.28l1.36,0.12c0.22,0.02,0.34,0.2,0.2,0.36c-0.12,0.12-0.3,0.2-0.54,0.24c-0.04,1-0.08,1.94-0.16,2.84h5.82
		l0.52-0.62c0.12-0.16,0.28-0.16,0.42-0.04l1.16,0.9C294.56,72.76,294.58,72.94,294.38,73.04z"/>
</g>
</svg>
