<?xml version="1.0" encoding="utf-8"?>
<!-- Generator: Adobe Illustrator 25.4.1, SVG Export Plug-In . SVG Version: 6.00 Build 0)  -->
<svg version="1.1" id="レイヤー_1" xmlns="http://www.w3.org/2000/svg" xmlns:xlink="http://www.w3.org/1999/xlink" x="0px"
	 y="0px" viewBox="0 0 500 540" style="enable-background:new 0 0 500 540;" xml:space="preserve">
<style type="text/css">
	.st0{fill:#463143;}
	.st1{fill:#9BB12A;}
</style>
<g>
	<g>
		<path class="st0" d="M195.5,487.1c-12.2,0-22.1,10.9-22.1,24.3c0,13.4,9.9,24.3,22.1,24.3s22.1-10.9,22.1-24.3
			C217.6,498,207.7,487.1,195.5,487.1z M195.3,532.1c-12.9-0.9-16.7-13.7-16-23.4c1-14.3,10.1-18.3,16.9-17.8
			c12.5,0.9,16.4,12.8,15.7,23.6C211,527.3,203.1,532.7,195.3,532.1z"/>
		<path class="st0" d="M236.1,526.2c0,4.4,0.1,5,2.3,5.3l1.5,0.2c0.4,0.3,0.3,1.3-0.1,1.5c-2-0.1-3.8-0.2-5.9-0.2
			c-2.2,0-4,0.1-5.9,0.2c-0.4-0.2-0.6-1.2-0.1-1.5l1.4-0.2c2.3-0.3,2.3-0.9,2.3-5.3v-27.6c0-3.6-0.1-4-1.9-5.1l-0.6-0.4
			c-0.3-0.2-0.3-1,0-1.2c1.5-0.5,4.4-1.4,6.6-2.6c0.2,0,0.5,0.1,0.6,0.4c-0.1,1.8-0.2,4.9-0.2,7.6V526.2z"/>
		<path class="st0" d="M252.2,515.1c-0.9-2.3-1.5-4.2-3.7-4.5l-1.2-0.2c-0.4-0.5-0.3-1.3,0.2-1.5c1.5,0.1,3.7,0.2,5.7,0.2
			c1.7,0,2.9-0.1,5-0.2c0.4,0.2,0.5,1.2,0.1,1.5l-0.7,0.1c-1.9,0.3-2,0.6-1.3,2.4c1.4,4.2,3.2,8.5,4.6,11.7c0.6,1.2,0.8,1.8,1,2
			c0.2-0.2,0.7-1,1.2-2.3c0.8-2.1,2.9-7.4,3.5-9c0.9-2.1,1.1-3.4,1.1-3.8c0-0.6-0.4-0.8-1.1-0.9l-1.4-0.2c-0.4-0.4-0.3-1.3,0.1-1.5
			c1.9,0.1,3.4,0.2,4.6,0.2c1.5,0,2.6-0.1,4.3-0.2c0.4,0.2,0.5,1.2,0.1,1.5l-0.9,0.1c-2.1,0.3-2.7,1.9-4.5,5.3
			c-0.9,1.7-4.6,10.5-5.6,13c-0.6,1.5-1.2,2.9-2,5c-0.1,0.2-0.4,0.2-0.6,0.2c-0.3,0-0.6-0.1-0.8-0.2c-0.5-1.7-1.4-4.1-2.3-6.4
			L252.2,515.1z"/>
		<path class="st0" d="M286.2,515.5c0-2.4,0-2.7-1.7-3.8l-0.6-0.4c-0.2-0.2-0.2-0.9,0.1-1.1c1.4-0.5,4.9-2.1,6.3-3
			c0.3,0,0.6,0.1,0.6,0.4c-0.1,2.1-0.2,5.1-0.2,7.6v11c0,4.4,0.1,5,2.3,5.3l1.3,0.2c0.4,0.3,0.3,1.3-0.1,1.5
			c-1.8-0.1-3.6-0.2-5.7-0.2c-2.2,0-4,0.1-5.7,0.2c-0.4-0.2-0.6-1.2-0.1-1.5l1.3-0.2c2.3-0.3,2.3-0.9,2.3-5.3V515.5z M291.2,495.7
			c0,2.1-1.5,3.1-3.2,3.1c-1.9,0-3.1-1.3-3.1-3c0-2,1.5-3.2,3.3-3.2C290.1,492.6,291.2,494,291.2,495.7z"/>
		<path class="st0" d="M311.1,517.4c-1.6,0-1.7,0.1-1.7,1.7c0,6.2,3.6,11.4,10.1,11.4c2,0,3.7-0.6,5.6-3c0.6-0.2,1,0.2,1.1,0.7
			c-2,4.2-6.4,5.7-9.6,5.7c-4,0-7.1-1.7-8.9-4c-1.8-2.4-2.6-5.3-2.6-7.9c0-7.5,5-13.8,12.3-13.8c5.3,0,8.7,3.6,8.7,7.3
			c0,0.9-0.1,1.3-0.2,1.6c-0.2,0.4-1,0.4-3.6,0.4H311.1z M314.9,515.6c4.5,0,5.9-0.2,6.4-0.6c0.2-0.1,0.4-0.4,0.4-1.2
			c0-1.7-1.2-3.9-4.7-3.9c-3.6,0-6.7,3.3-6.8,5.3c0,0.1,0,0.3,0.4,0.3H314.9z"/>
		<path class="st1" d="M260.7,345.9c16.6-4.3,29-20.6,29-40.2c0-18.2-10.7-33.6-25.6-39.1h0.1c0,0-0.1,0-0.4-0.1
			c-0.2-0.1-0.4-0.2-0.7-0.2c-2.6-1-9-4.3-9.1-11.8c0-7.4,6.3-10.7,8.9-11.7c0.3-0.1,0.7-0.3,1-0.4c0.1,0,0.2,0,0.2,0h0
			c14.9-5.5,25.6-20.9,25.6-39.1c0-22.8-16.8-41.3-37.6-41.3c-20.8,0-37.6,18.5-37.6,41.3c0,18.2,10.7,33.6,25.6,39.1h0
			c0,0,0.1,0,0.2,0c0.3,0.1,0.7,0.3,1,0.4c2.6,1.1,8.9,4.4,8.9,11.7c0,7.5-6.5,10.8-9.1,11.8c-0.2,0.1-0.4,0.2-0.7,0.2
			c-0.2,0.1-0.4,0.1-0.4,0.1h0.1c-14.9,5.5-25.6,20.9-25.6,39.1c0,19.3,12.1,35.5,28.4,40c3,1.6,7.3,4.9,7.4,11
			c0,9.4-10.1,12.2-10.1,12.2h0.5c-15.2,5.3-26.2,20.9-26.2,39.4c0,22.8,16.8,41.3,37.6,41.3c20.8,0,37.6-18.5,37.6-41.3
			c0-18.5-11-34.1-26.3-39.4h0.3c0,0-10.1-2.8-10.1-12.2C253.6,350.8,257.7,347.5,260.7,345.9z"/>
	</g>
</g>
<g>
	<path class="st0" d="M77.6,24.1c0,10.7-7.1,17.1-14.7,17.1c-7.7,0-14.8-6.2-14.8-17.1c0-10.6,7.2-17.1,14.8-17.1
		C70.5,6.9,77.6,13.1,77.6,24.1z M62.9,39.3c7,0,10.3-7.4,10.3-15.2C73.2,16.4,69.9,9,62.9,9c-7.1,0-10.4,7.4-10.4,15.1
		C52.4,31.9,55.8,39.3,62.9,39.3z"/>
	<path class="st0" d="M96.4,39.7v0.1c0,0.4-0.3,0.7-0.7,0.7H85.2c-0.4,0-0.7-0.3-0.7-0.7v-0.1c0-0.4,0.2-0.7,0.6-0.7l3.6-0.5
		c0-2.7,0.1-5.6,0.1-8.2V7.8l-3.5-0.3c-0.4,0-0.6-0.3-0.6-0.7V6.7C84.8,6.3,85,6,85.3,6l5.9-1.6c0.3-0.1,0.6-0.1,0.9,0
		c0.2,0.2,0.3,0.4,0.3,0.8l-0.1,6.4v18.7c0,2.7,0,5.6,0.1,8.2l3.4,0.5C96.2,39,96.4,39.3,96.4,39.7z"/>
	<path class="st0" d="M124.9,19.1l-2.2,0.4l-7.8,20.8c-0.1,0.4-0.4,0.5-0.8,0.5h-0.5c-0.4,0-0.7-0.2-0.8-0.5l-8.5-20.9l-2.3-0.3
		c-0.4,0-0.6-0.3-0.6-0.7v-0.3c0-0.4,0.3-0.7,0.7-0.7h9.9c0.4,0,0.7,0.3,0.7,0.7v0.3c0,0.4-0.2,0.7-0.6,0.7l-3.7,0.4l6.4,17
		l5.9-16.9l-3.5-0.5c-0.4,0-0.6-0.3-0.6-0.7v-0.3c0-0.4,0.3-0.7,0.7-0.7h7.7c0.4,0,0.7,0.3,0.7,0.7v0.3
		C125.5,18.7,125.3,19,124.9,19.1z"/>
	<path class="st0" d="M144.1,39.7v0.1c0,0.4-0.3,0.7-0.7,0.7h-9.6c-0.4,0-0.7-0.3-0.7-0.7v-0.1c0-0.4,0.2-0.7,0.6-0.7l3.2-0.5
		c0-2.5,0.1-5.9,0.1-8.2v-2.5c0-2.8,0-4.6-0.1-6.8l-3.5-0.2c-0.4,0-0.6-0.3-0.6-0.7v-0.2c0-0.4,0.2-0.6,0.5-0.8l6-2
		c0.3-0.1,0.6-0.1,0.9,0c0.2,0.2,0.3,0.4,0.3,0.8l-0.1,5.8v6.6c0,2.3,0,5.8,0.1,8.2l2.9,0.5C143.9,39.1,144.1,39.3,144.1,39.7z
		 M135.8,7.9c0-1.7,1.3-2.7,2.8-2.7c1.6,0,2.9,1.1,2.9,2.7c0,1.6-1.3,2.7-2.9,2.7C137.1,10.7,135.8,9.6,135.8,7.9z"/>
	<path class="st0" d="M163.1,38.6c2.9,0,4.9-1.2,6.6-3c0.3-0.3,0.6-0.4,0.9-0.1c0.3,0.3,0.4,0.5,0.1,0.9c-1.9,2.9-4.9,4.8-8.8,4.8
		c-6.3,0-10.8-4.4-10.8-12.1c0-7.5,5.1-12.3,11-12.3c5.2,0,9,3.6,9,9.2c0,0.9,0,1.6-0.2,2.2c0,0.4-0.3,0.6-0.7,0.6l-15.5,0
		C154.8,35.3,158.3,38.6,163.1,38.6z M167.8,24.5c0-3.1-2.4-6-5.9-6c-3.3,0-6.6,2.7-7.1,8.4h10.5C167.3,27,167.8,26,167.8,24.5z"/>
	<path class="st0" d="M190.9,10.9c0.3-0.2,0.5-0.1,0.7,0.1c0.2,0.2,0.1,0.4-0.1,0.6c-3.5,3-6.6,7.4-6.6,13.8s3.1,10.8,6.6,13.8
		c0.3,0.2,0.3,0.4,0.1,0.6c-0.2,0.2-0.4,0.3-0.5,0.2c-4.2-2.7-8.2-7.1-8.2-14.6C182.8,18.1,186.8,13.6,190.9,10.9z"/>
	<path class="st0" d="M207.7,31.6c-2.2,1.7-4.7,3.3-7.9,4.9c-0.6,0.3-0.9-0.3-0.2-0.7c7.2-4.9,9.7-7.5,14.1-13.9
		c-8.6,0.4-9,1.2-10.8-0.4c-1.5-1.3-0.3-1.9,0.4-1.5c2.2,1.2,4.4,0.8,12.5,0.4c-0.1-4.8-0.4-5.3-1.2-5.9c-1.1-0.8-0.6-1.8,1.3-1.1
		c2.6,1,2.2,2,2.1,3.4c-0.1,1.2-0.2,2.3-0.2,3.5l3.5-0.2c1.9-0.1,2.7-0.3,3.4-0.1c1.6,0.5,1.9,2.4,0.2,2c-0.9-0.3-1.9-0.3-3.4-0.3
		c-1.4,0-2.6,0-3.7,0.1c-0.2,4.3-0.1,8.8,0.3,14.6c0.2,3-1.9,3.7-3.2,1.5C212.7,34.4,211.1,33.3,207.7,31.6z M215.3,34.8
		c0.5,0.3,0.8,0.2,0.8-0.4c0-4.9-0.1-8.6-0.1-11.4c-2.5,3.2-4.8,5.7-7.5,7.9C211,31.9,213.5,33.5,215.3,34.8z"/>
	<path class="st0" d="M237.2,22.8c0.1-1.5,0.2-2.2-0.8-3.2c-1-0.9-0.7-1.8,0.4-1.5c3.2,0.8,3.6,2.3,3.1,3.3
		c-0.2,0.3-0.3,0.8-0.3,1.4c-0.3,7.1-3.8,13.1-10.5,16.3c-0.5,0.3-0.8-0.2-0.2-0.6C233.5,35.8,236.9,29.1,237.2,22.8z M243.6,31.2
		c0.2-12.6,0.4-13.2-0.9-14c-1-0.8-1-2,0.6-1.6c3.4,0.9,2.8,2.4,2.6,3.1c-0.1,0.4-0.2,0.9-0.2,2c-0.2,3.4-0.3,5-0.3,9.5
		c0,0.5,0.3,0.6,0.7,0.4c3.5-1.8,5.7-3.6,9.5-7.3c0.7-0.7,1.2-0.1,0.7,0.5c-4.8,5.5-7.6,8.1-9.5,9.3
		C245.1,34.1,243.6,33.6,243.6,31.2z"/>
	<path class="st0" d="M263.7,38.5c8.2-1.5,15.7-6.1,16.2-17.8c0-0.5-0.2-0.7-0.7-0.7c-2.7,0.2-7.4,0.4-10.6,0.4
		c0.1,1.4,0.3,2.6,0.5,4.2c0.4,2.5-2.1,2.6-2.1,0c0-3.5-0.3-5.3-1.1-5.9c-0.8-0.7-0.4-1.3,0.8-1c1,0.3,1.5,0.7,1.7,1.3
		c1.3,0,2.8,0,4.4-0.1c0.2-2.9,0-3.7-0.9-4.5c-1-0.8-0.5-1.5,0.7-1.2c1.7,0.4,2.2,1.2,2,2.3c-0.2,0.9-0.3,1.8-0.3,3.3
		c2.2-0.1,4.4-0.3,6.1-0.5c1.6-0.2,2.1,0.7,1.9,2.3c-0.7,7.1-3.2,16.9-18.6,18.6C262.5,39.4,262.4,38.7,263.7,38.5z M280.9,13.5
		c1.6,0.7,2.6,1.4,3.5,2.9c0.9,1.8-1.1,2.6-2,0.9c-0.4-1-1.2-2.1-2-2.8C279.7,13.8,280.1,13.2,280.9,13.5z M284.1,12.9
		c1.2,0.4,2.6,1.1,3.4,2.4c0.9,1.5-1,2.6-1.9,0.9c-0.5-0.9-1.1-1.7-1.9-2.3C283,13.4,283.2,12.7,284.1,12.9z"/>
	<path class="st0" d="M291.8,30.8c5.9-3.5,8.6-5.7,12.2-9.8c0.5-0.6,0.8-0.9,0.4-1.6c-0.3-0.9,0.7-1.2,1.8-0.4
		c1.4,0.9,0.6,2-0.1,2.8c-1.3,1.2-2.4,2.2-3.5,3.1c1.4,0.3,1.5,1.3,1.4,2.4c-0.4,4-0.2,7,0,9.5c0.1,2.2-2,2.2-1.9,0
		c0.1-2,0.3-6.8,0.3-8.9c0-1.5-0.4-1.9-0.8-2.1c-3.1,2.5-5.6,3.9-9.5,5.8C291.4,31.8,291.1,31.2,291.8,30.8z"/>
	<path class="st0" d="M318.1,31.1c2.2,0.9,2.6,0.9,11,0.3c0.1-3.2,0-6.2-0.2-7.7c-0.1-1.1-0.4-1.6-0.9-2c-4.6,0.6-5.5,0.5-6.5-0.3
		c-1.7-1.3-0.8-2,0-1.6c2.1,1,2.9,0.6,12.4-0.4c2.1-0.2,2.6-0.4,3.5-0.2c1.3,0.2,1.9,2.4,0.3,2c-1.3-0.4-2.4-0.5-3.7-0.3l-3.9,0.5
		c1.1,0.5,1,1.1,0.8,2.1c-0.2,0.6-0.3,2.9-0.6,7.8l5.5-0.4c2.5-0.2,3.8-0.8,5.4,0c1.5,0.7,1.7,1.9,0.1,1.7c-1.8-0.3-3.4-0.3-5.3-0.2
		c-16.9,0.5-15.8,2.4-18.6,0.2C316.2,31.5,317.1,30.7,318.1,31.1z"/>
	<path class="st0" d="M350.8,10.9c4.1,2.7,8.1,7.1,8.1,14.5s-4,11.8-8.1,14.5c-0.3,0.2-0.5,0.1-0.6-0.1c-0.2-0.2-0.2-0.4,0.1-0.6
		c3.5-3,6.6-7.4,6.6-13.8s-3.1-10.8-6.6-13.8c-0.3-0.2-0.3-0.4-0.1-0.6C350.3,10.8,350.5,10.7,350.8,10.9z"/>
	<path class="st0" d="M376.7,15.5c-1.6-0.9-1-2.7,1.7-2.2c2.7,0.4,3.4,1.8,3.6,3c3.5-0.4,9.4-1.1,15.6-1.9c4.1-0.6,5.2,1,4.5,4.2
		c-0.6,2.6-1.5,7.6-2.5,13c2.3,0.4,3.5,3.1,0.4,3c-8.1-0.3-12.6-0.2-17.4,0.1l0.1,1.9c0.1,2.7-2.3,2.5-2.4,0
		C378.9,17.3,378.9,16.8,376.7,15.5z M382.4,33c4.4-0.5,9.7-1,15.2-1.3c0.6-5.5,1.3-12.4,1.4-13.6c0.1-0.5,0-1.2-0.8-1.1
		c-7.2,0.4-11.3,0.8-16.2,1.4C381.9,20.4,382.1,24.2,382.4,33z"/>
	<path class="st0" d="M438.1,33.2c-14.9,0.7-15.8,2.2-18.5-0.2c-1.9-1.8-1.1-3.2,0.7-2.4c3.1,1.5,4.8,1.3,17.4,0.3
		c0.9,0,1.6-0.2,2.5-0.3c0.7-4.6,0.9-7.7,1.4-12.1c0.1-0.7-0.2-0.9-0.6-0.9c-19.9,0.9-20.1,2.3-22.1-0.1c-1.8-2.2-0.7-3.8,1.3-2.5
		c3.1,2.2,7.8,1.4,21.5,0c3.2-0.4,3.5,0.8,3,3.4c-0.6,2.6-1.4,7.2-2.3,12.4c0.4,0.1,0.8,0.2,1.2,0.4c2.4,1,1.5,3.5-0.4,2.7
		C441.3,33.3,439.9,33.1,438.1,33.2z M442.4,7.8c2.3,0.9,3.7,1.9,5,4.1c1.3,2.6-1.7,3.7-2.8,1.2c-0.6-1.4-1.8-3.1-2.8-4
		C440.7,8.3,441.3,7.4,442.4,7.8z M446.9,7c1.8,0.5,3.7,1.6,4.8,3.4c1.3,2.1-1.4,3.8-2.7,1.3c-0.7-1.3-1.7-2.5-2.7-3.3
		C445.3,7.7,445.6,6.7,446.9,7z"/>
</g>
</svg>
