<?xml version="1.0" encoding="utf-8"?>
<!-- Generator: Adobe Illustrator 25.4.1, SVG Export Plug-In . SVG Version: 6.00 Build 0)  -->
<svg version="1.1" id="レイヤー_1" xmlns="http://www.w3.org/2000/svg" xmlns:xlink="http://www.w3.org/1999/xlink" x="0px"
	 y="0px" viewBox="0 0 220 75" style="enable-background:new 0 0 220 75;" xml:space="preserve">
<style type="text/css">
	.st0{fill:#463243;}
	.st1{fill:#463243;stroke:#463243;stroke-width:4;stroke-linecap:round;stroke-linejoin:round;stroke-miterlimit:10;}
</style>
<g>
	<path class="st0" d="M47.44,28.75c2.34,6.66,6.24,10.02,11.4,10.02c4.98,0,8.04-2.94,8.04-7.26c0-2.04-0.72-3.78-2.04-5.16
		c-2.22-2.28-5.04-3.18-7.86-4.5c-6.36-3-9.48-5.4-9.48-10.38c0-6.12,4.8-10.08,13.14-10.08c2.94,0,5.7,0.48,8.28,1.38l0.06,8.4
		l-1.02,0.12c-1.8-5.76-4.2-8.28-8.52-8.28c-4.56,0-7.56,2.64-7.56,6.18c0,3.72,3,6,8.76,8.64c2.76,1.26,5.64,2.22,8.04,4.5
		c1.86,1.74,2.82,4.08,2.82,6.84c0,6.6-5.4,11.22-14.1,11.22c-3.36,0-6.66-0.54-9.9-1.68l-1.32-9.84L47.44,28.75z"/>
	<path class="st0" d="M93.38,40.32c-6.84,0-11.64-4.86-11.64-12.12c0-6.84,5.34-12.06,12.54-12.06c6.78,0,11.64,4.86,11.64,11.82
		C105.92,35.16,100.52,40.32,93.38,40.32z M101,28.26c0-6.96-2.64-10.74-7.2-10.74c-4.14,0-7.2,3.96-7.2,10.74
		c0,6.9,2.58,10.68,7.14,10.68C97.88,38.94,101,34.98,101,28.26z"/>
	<path class="st0" d="M121,40.2c-3.84,0-6-1.8-6-4.74c0-4.2,4.44-6,13.68-8.04v-4.08c0-4.02-0.48-5.64-3.72-5.64
		c-1.92,0-3.36,0.72-4.14,2.1c-0.9,1.56-0.66,3.9-3.06,3.9c-0.96,0-1.62-0.6-1.62-1.62c0-2.16,4.68-5.94,10.32-5.94
		c2.64,0,4.56,0.84,5.7,2.52c0.78,1.08,0.84,2.52,0.84,4.32c0,0.66,0,1.38,0,2.1v10.14c0,1.92,0.24,2.7,1.5,2.7
		c0.66,0,1.32-0.24,1.92-0.66l0.54,0.78c-1.56,1.56-3.3,2.34-4.8,2.34c-1.74,0-2.7-1.02-3.36-3.36
		C125.98,39.06,123.52,40.2,121,40.2z M128.68,28.69c-6.36,1.5-9.06,2.34-9.06,5.76c0,2.1,1.32,3.54,3.48,3.54
		c1.44,0,3.24-0.72,5.58-2.1V28.69z"/>
	<path class="st0" d="M155.89,52.68c0.12,0,0.18,0,0.3,0v1.2h-12.36v-1.2c3.3-0.12,3.6-1.26,3.6-4.5V21.01l-2.04-1.56v-0.78
		l5.4-2.82l1.08,0.54v2.7c2.58-2.04,5.1-3,7.8-3c6.12,0,10.56,4.5,10.56,11.58c0,7.14-5.34,12.78-12.12,12.78
		c-1.92,0-3.96-0.48-6.24-1.44v9.18C151.87,51.54,152.29,52.68,155.89,52.68z M151.87,35.28c1.44,2.4,3.9,3.78,6.72,3.78
		c4.44,0,7.32-3.66,7.32-10.08c0-6.96-3.3-10.98-7.92-10.98c-2.22,0-4.08,0.96-6.12,2.94V35.28z"/>
</g>
<line class="st1" x1="4" y1="71.61" x2="216" y2="71.61"/>
</svg>
