<?xml version="1.0" encoding="utf-8"?>
<!-- Generator: Adobe Illustrator 25.4.1, SVG Export Plug-In . SVG Version: 6.00 Build 0)  -->
<svg version="1.1" id="レイヤー_1" xmlns="http://www.w3.org/2000/svg" xmlns:xlink="http://www.w3.org/1999/xlink" x="0px"
	 y="0px" viewBox="0 0 540 75" style="enable-background:new 0 0 540 75;" xml:space="preserve">
<style type="text/css">
	.st0{fill:#463243;}
	.st1{fill:#463243;stroke:#463243;stroke-width:4;stroke-linecap:round;stroke-linejoin:round;stroke-miterlimit:10;}
</style>
<g>
	<path class="st0" d="M8.76,36.02c-4.2-3.42-6.42-8.46-6.42-14.82c0-6.36,2.28-11.52,6.48-14.94c3.66-3,8.16-4.56,13.38-4.56
		s9.72,1.56,13.38,4.56c4.2,3.42,6.48,8.58,6.48,14.94c0,6.36-2.22,11.4-6.42,14.82c-3.78,3.06-8.22,4.62-13.44,4.62
		S12.54,39.07,8.76,36.02z M36.11,21.2c0-11.46-5.4-17.94-13.92-17.94S8.34,9.74,8.34,21.2c0,11.4,5.34,17.88,13.86,17.88
		S36.11,32.6,36.11,21.2z"/>
	<path class="st0" d="M62.58,39.07v1.26h-11.7v-1.26c3.3-0.12,3.66-1.2,3.66-4.44v-30L52.2,3.26V2.12l6.78-2.04v34.56
		C58.98,37.87,59.28,38.95,62.58,39.07z"/>
	<path class="st0" d="M83.51,39.07v1.26h-11.7v-1.26c3.3-0.12,3.66-1.2,3.66-4.44V21.32l-3-1.68v-0.96l6.42-2.52l1.02,0.54v17.94
		C79.91,37.87,80.21,38.95,83.51,39.07z M77.69,1.7c1.44,0,2.64,1.2,2.64,2.64c0,1.5-1.14,2.7-2.64,2.7c-1.38,0-2.7-1.26-2.7-2.7
		C74.99,2.96,76.31,1.7,77.69,1.7z"/>
	<path class="st0" d="M113.96,18.14c-1.74,0.12-2.52,2.04-3.84,5.46l-6.6,17.04h-1.86c-1.74-4.62-3.12-8.16-4.08-10.56l-2.1-5.04
		c-1.86-4.5-2.82-6.9-5.04-6.9c-0.12,0-0.24,0-0.36,0v-1.26h10.44v1.26c-1.86,0.18-2.64,0.6-2.64,1.8c0,0.78,0.42,1.74,0.9,2.94
		l4.98,12.42c3.72-8.76,5.28-13.98,5.28-15.24c0-1.44-0.66-1.86-2.64-1.92v-1.26h7.56V18.14z"/>
	<path class="st0" d="M131.71,40.63c-6.54,0-11.22-4.98-11.22-12.3c0-6.72,5.16-11.88,11.76-11.88c5.04,0,8.58,3.12,8.94,8.1h-16.02
		c-0.18,1.26-0.3,2.4-0.3,3.6c0,5.7,3.72,9.9,8.76,9.9c2.34,0,4.44-0.96,6.9-2.64l0.78,0.9C138.61,39.2,135.43,40.63,131.71,40.63z
		 M136.81,23.18c-0.12-3.6-1.86-5.34-5.22-5.34c-2.94,0-5.04,1.86-6,5.34H136.81z"/>
	<path class="st0" d="M180.06,40.52c-5.22,0-8.58-3.54-8.58-8.4c0-3.54,2.22-6.78,6.54-10.32c-2.1-1.86-3.18-3.6-3.18-5.28
		c0-3.36,3.54-7.44,7.38-7.44c2.4,0,3.9,1.5,3.9,3.84c0,2.28-1.26,4.8-3.9,7.38c5.16,5.22,8.28,8.46,9.48,9.72
		c1.5-2.88,2.28-5.04,2.28-6.54c0-1.62-1.08-2.1-3.6-2.1V20h10.74v1.38c-4.86,0.24-5.4,3.9-8.22,10.14c3,3.48,4.86,5.28,5.76,5.28
		c0.66,0,1.56-0.72,2.64-2.28l0.9,0.48c-1.56,3.78-3.12,5.64-4.8,5.64c-1.68,0-3.54-1.98-6.72-5.46
		C187.38,38.78,184.08,40.52,180.06,40.52z M179.16,22.7c-3.06,2.04-4.68,4.8-4.68,7.08c0,3.96,4.02,7.92,8.28,7.92
		c2.58,0,5.04-1.38,6.9-3.96C185.76,29.48,182.34,25.76,179.16,22.7z M184.14,14.12c0-1.98-1.2-3.3-3.18-3.3s-3.78,1.62-3.78,3.6
		s1.32,3.24,3.84,4.98C183.06,17.54,184.14,15.92,184.14,14.12z"/>
	<path class="st0" d="M244.32,20.11h6.12c3.3,0,4.62-1.32,5.4-4.92h1.44v12.54h-1.44c-0.36-4.14-1.86-5.82-5.4-5.82h-6.12
		c-1.5,0-2.1,0.54-2.1,2.16v8.4c0,4.74,0.3,6.24,5.64,6.36v1.5h-16.5v-1.5c5.28-0.18,5.58-1.62,5.58-6.36V9.86
		c0-4.74-0.3-6.12-5.58-6.3V2h30.12l2.1,9.48l-1.44-0.12c-3.18-5.28-5.94-7.68-10.14-7.68h-5.22c-4.38,0-4.56,0.84-4.56,3.9v10.38
		C242.22,19.58,242.82,20.11,244.32,20.11z"/>
	<path class="st0" d="M283.89,16.52c1.68,0,2.7,0.9,2.7,2.22c0,1.44-1.02,2.28-2.82,2.28c-0.96,0-1.98-0.18-3.18-0.18
		c-3.18,0-3.96,1.26-3.96,4.56v9.24c0,3.24,0.3,4.32,3.6,4.44v1.26h-11.52v-1.26c3.3-0.12,3.66-1.2,3.66-4.44V21.32l-2.1-1.56v-0.78
		l5.22-2.82l1.02,0.54v4.44C279.03,18.08,281.55,16.52,283.89,16.52z"/>
	<path class="st0" d="M304.77,40.63c-6.54,0-11.22-4.98-11.22-12.3c0-6.72,5.16-11.88,11.76-11.88c5.04,0,8.58,3.12,8.94,8.1h-16.02
		c-0.18,1.26-0.3,2.4-0.3,3.6c0,5.7,3.72,9.9,8.76,9.9c2.34,0,4.44-0.96,6.9-2.64l0.78,0.9C311.67,39.2,308.49,40.63,304.77,40.63z
		 M309.87,23.18c-0.12-3.6-1.86-5.34-5.22-5.34c-2.94,0-5.04,1.86-6,5.34H309.87z"/>
	<path class="st0" d="M324.62,33.2l0.96,0.06c0.84,3.96,2.82,6,5.76,6c2.58,0,4.32-1.62,4.32-4.08c0-2.58-1.74-3.72-4.68-5.34
		c-4.02-2.22-6.42-3.66-6.42-6.96c0-3.72,3.12-6.48,8.4-6.48c1.5,0,3.06,0.24,4.74,0.78v4.98l-0.78,0.12
		c-1.5-3.06-2.82-4.56-4.8-4.56c-2.34,0-3.78,1.44-3.78,3.54c0,2.52,1.98,3.48,5.34,5.28c3.54,1.86,5.58,3.3,5.58,6.72
		c0,4.14-3.6,7.38-8.1,7.38c-3.42,0-5.94-0.96-7.32-2.64L324.62,33.2z"/>
	<path class="st0" d="M359.44,39.07v1.26h-11.7v-1.26c3.3-0.12,3.66-1.2,3.66-4.44v-30l-2.34-1.38V2.12l6.78-2.04v18.84
		c2.64-1.62,5.16-2.46,7.92-2.46c5.52,0,8.1,2.88,8.1,8.82v9.36c0,3.24,0.3,4.32,3.6,4.44v1.26h-11.64v-1.26
		c3.3-0.12,3.6-1.2,3.6-4.44v-7.62c0-5.7-1.32-8.4-5.64-8.4c-2.28,0-4.26,0.9-5.94,2.64v13.38
		C355.84,37.87,356.14,38.95,359.44,39.07z"/>
	<path class="st0" d="M415.9,21.44v11.04c0,4.74,0.3,6.18,5.58,6.36v1.5h-16.44v-1.5c5.28-0.18,5.58-1.62,5.58-6.36V9.86
		c0-4.74-0.3-6.12-5.58-6.3V2h16.44v1.56c-5.28,0.18-5.58,1.56-5.58,6.3v9.6h23.88v-9.6c0-4.74-0.3-6.12-5.58-6.3V2h16.44v1.56
		c-5.28,0.18-5.58,1.56-5.58,6.3v22.62c0,4.74,0.3,6.18,5.58,6.36v1.5H434.2v-1.5c5.28-0.18,5.58-1.62,5.58-6.36V21.44H415.9z"/>
	<path class="st0" d="M469.87,40.63c-6.54,0-11.22-4.98-11.22-12.3c0-6.72,5.16-11.88,11.76-11.88c5.04,0,8.58,3.12,8.94,8.1h-16.02
		c-0.18,1.26-0.3,2.4-0.3,3.6c0,5.7,3.72,9.9,8.76,9.9c2.34,0,4.44-0.96,6.9-2.64l0.78,0.9C476.77,39.2,473.59,40.63,469.87,40.63z
		 M474.97,23.18c-0.12-3.6-1.86-5.34-5.22-5.34c-2.94,0-5.04,1.86-6,5.34H474.97z"/>
	<path class="st0" d="M503.1,16.52c1.68,0,2.7,0.9,2.7,2.22c0,1.44-1.02,2.28-2.82,2.28c-0.96,0-1.98-0.18-3.18-0.18
		c-3.18,0-3.96,1.26-3.96,4.56v9.24c0,3.24,0.3,4.32,3.6,4.44v1.26h-11.52v-1.26c3.3-0.12,3.66-1.2,3.66-4.44V21.32l-2.1-1.56v-0.78
		l5.22-2.82l1.02,0.54v4.44C498.24,18.08,500.76,16.52,503.1,16.52z"/>
	<path class="st0" d="M514.86,40.03V4.64l-2.34-1.38V2.12l6.78-2.04V19.4c2.58-2.04,5.04-3,7.74-3c6.12,0,10.62,4.5,10.62,11.58
		c0,7.08-5.34,12.78-12.06,12.78c-2.88,0-5.16-0.96-6.78-0.96c-1.02,0-1.92,0.24-2.88,0.78L514.86,40.03z M519.3,35.6
		c1.44,2.4,3.9,3.78,6.72,3.78c4.44,0,7.32-3.66,7.32-10.08c0-6.96-3.3-10.98-7.92-10.98c-2.22,0-4.08,0.96-6.12,2.94V35.6z"/>
</g>
<line class="st1" x1="166.18" y1="71.92" x2="378.18" y2="71.92"/>
</svg>
