<?xml version="1.0" encoding="utf-8"?>
<!-- Generator: Adobe Illustrator 25.4.1, SVG Export Plug-In . SVG Version: 6.00 Build 0)  -->
<svg version="1.1" id="レイヤー_1" xmlns="http://www.w3.org/2000/svg" xmlns:xlink="http://www.w3.org/1999/xlink" x="0px"
	 y="0px" viewBox="0 0 300 75" style="enable-background:new 0 0 300 75;" xml:space="preserve">
<style type="text/css">
	.st0{fill:#463243;}
	.st1{fill:#463243;stroke:#463243;stroke-width:4;stroke-linecap:round;stroke-linejoin:round;stroke-miterlimit:10;}
</style>
<g>
	<path class="st0" d="M4.49,38.84c3.66-0.36,5.4-2.7,7.2-7.26l8.22-20.7c0.48-1.26,0.84-2.52,1.02-3.84l3.6-5.28l1.14,0.42l12,31.02
		c1.44,3.66,3,5.4,6.18,5.64v1.5H28.91v-1.5c2.76-0.36,3.96-1.08,3.96-2.76c0-0.72-0.12-1.56-0.48-2.46l-3.18-8.16h-13.2l-2.58,6.84
		c-0.6,1.62-0.9,2.82-0.9,3.42c0,1.56,1.32,2.58,3.9,3.12v1.5H4.49V38.84z M28.67,23.66L22.73,8.18l-6.06,15.48H28.67z"/>
	<path class="st0" d="M67.31,16.52c1.68,0,2.7,0.9,2.7,2.22c0,1.44-1.02,2.28-2.82,2.28c-0.96,0-1.98-0.18-3.18-0.18
		c-3.18,0-3.96,1.26-3.96,4.56v9.24c0,3.24,0.3,4.32,3.6,4.44v1.26H52.13v-1.26c3.3-0.12,3.66-1.2,3.66-4.44V21.32l-2.1-1.56v-0.78
		l5.22-2.82l1.02,0.54v4.44C62.45,18.08,64.97,16.52,67.31,16.52z"/>
	<path class="st0" d="M88.5,40.63c-6.84,0-11.64-4.86-11.64-12.12c0-6.84,5.34-12.06,12.54-12.06c6.78,0,11.64,4.86,11.64,11.82
		C101.04,35.47,95.64,40.63,88.5,40.63z M96.12,28.58c0-6.96-2.64-10.74-7.2-10.74c-4.14,0-7.2,3.96-7.2,10.74
		c0,6.9,2.58,10.68,7.14,10.68C93,39.25,96.12,35.29,96.12,28.58z"/>
	<path class="st0" d="M120.97,39.08v1.26h-11.7v-1.26c3.3-0.12,3.66-1.2,3.66-4.44V21.32l-2.1-1.56v-0.78l5.22-2.82l1.02,0.54v2.34
		c2.82-1.74,5.46-2.58,8.1-2.58c3.18,0,5.46,1.14,6.72,3.3c3.12-2.22,6-3.3,9-3.3c5.4,0,7.98,2.88,7.98,8.82v9.36
		c0,3.24,0.3,4.32,3.6,4.44v1.26h-11.64v-1.26c3.3-0.12,3.6-1.2,3.6-4.44v-7.62c0-5.7-1.38-8.34-5.52-8.34
		c-2.1,0-4.08,0.9-5.76,2.58v13.38c0,3.24,0.3,4.32,3.6,4.44v1.26h-11.7v-1.26c3.3-0.12,3.66-1.2,3.66-4.44v-7.62
		c0-5.7-1.38-8.34-5.52-8.34c-2.1,0-4.14,0.9-5.82,2.58v13.38C117.38,37.87,117.68,38.95,120.97,39.08z"/>
	<path class="st0" d="M167.8,40.51c-3.84,0-6-1.8-6-4.74c0-4.2,4.44-6,13.68-8.04v-4.08c0-4.02-0.48-5.64-3.72-5.64
		c-1.92,0-3.36,0.72-4.14,2.1c-0.9,1.56-0.66,3.9-3.06,3.9c-0.96,0-1.62-0.6-1.62-1.62c0-2.16,4.68-5.94,10.32-5.94
		c2.64,0,4.56,0.84,5.7,2.52c0.78,1.08,0.84,2.52,0.84,4.32c0,0.66,0,1.38,0,2.1v10.14c0,1.92,0.24,2.7,1.5,2.7
		c0.66,0,1.32-0.24,1.92-0.66l0.54,0.78c-1.56,1.56-3.3,2.34-4.8,2.34c-1.74,0-2.7-1.02-3.36-3.36
		C172.78,39.37,170.32,40.51,167.8,40.51z M175.48,29c-6.36,1.5-9.06,2.34-9.06,5.76c0,2.1,1.32,3.54,3.48,3.54
		c1.44,0,3.24-0.72,5.58-2.1V29z"/>
	<path class="st0" d="M220.06,36.01c-4.2-3.42-6.42-8.46-6.42-14.82s2.28-11.52,6.48-14.94c3.66-3,8.16-4.56,13.38-4.56
		s9.72,1.56,13.38,4.56c4.2,3.42,6.48,8.58,6.48,14.94s-2.22,11.4-6.42,14.82c-3.78,3.06-8.22,4.62-13.44,4.62
		S223.84,39.08,220.06,36.01z M247.42,21.2c0-11.46-5.4-17.94-13.92-17.94s-13.86,6.48-13.86,17.94c0,11.4,5.34,17.88,13.86,17.88
		S247.42,32.59,247.42,21.2z"/>
	<path class="st0" d="M274.61,39.08v1.26h-11.7v-1.26c3.3-0.12,3.66-1.2,3.66-4.44V21.32l-3-1.68v-0.96l6.42-2.52l1.02,0.54v17.94
		C271.01,37.87,271.31,38.95,274.61,39.08z M268.79,1.7c1.44,0,2.64,1.2,2.64,2.64c0,1.5-1.14,2.7-2.64,2.7
		c-1.38,0-2.7-1.26-2.7-2.7C266.09,2.96,267.41,1.7,268.79,1.7z"/>
	<path class="st0" d="M295.51,39.08v1.26h-11.7v-1.26c3.3-0.12,3.66-1.2,3.66-4.44v-30l-2.34-1.38V2.12l6.78-2.04v34.56
		C291.91,37.87,292.21,38.95,295.51,39.08z"/>
</g>
<line class="st1" x1="47.98" y1="71.92" x2="259.98" y2="71.92"/>
</svg>
