<?xml version="1.0" encoding="utf-8"?>
<!-- Generator: Adobe Illustrator 25.4.1, SVG Export Plug-In . SVG Version: 6.00 Build 0)  -->
<svg version="1.1" id="レイヤー_1" xmlns="http://www.w3.org/2000/svg" xmlns:xlink="http://www.w3.org/1999/xlink" x="0px"
	 y="0px" viewBox="0 0 360 250" style="enable-background:new 0 0 360 250;" xml:space="preserve">
<style type="text/css">
	.st0{fill:#463243;}
	.st1{fill:#463243;stroke:#463243;stroke-width:4;stroke-linecap:round;stroke-linejoin:round;stroke-miterlimit:10;}
</style>
<g>
	<path class="st0" d="M107.41,45.86c-4.9-3.99-7.49-9.87-7.49-17.29c0-7.42,2.66-13.44,7.56-17.43c4.27-3.5,9.52-5.32,15.61-5.32
		c6.09,0,11.34,1.82,15.61,5.32c4.9,3.99,7.56,10.01,7.56,17.43c0,7.42-2.59,13.3-7.49,17.29c-4.41,3.57-9.59,5.39-15.68,5.39
		C117,51.25,111.82,49.43,107.41,45.86z M139.33,28.57c0-13.37-6.3-20.93-16.24-20.93c-9.94,0-16.17,7.56-16.17,20.93
		c0,13.3,6.23,20.86,16.17,20.86C133.03,49.43,139.33,41.87,139.33,28.57z"/>
	<path class="st0" d="M170,49.43v1.47h-13.65v-1.47c3.85-0.14,4.27-1.4,4.27-5.18v-35l-2.73-1.61V6.3l7.91-2.38v40.32
		C165.8,48.03,166.15,49.29,170,49.43z"/>
	<path class="st0" d="M194.24,49.43v1.47h-13.65v-1.47c3.85-0.14,4.27-1.4,4.27-5.18V28.71l-3.5-1.96v-1.12l7.49-2.94l1.19,0.63
		v20.93C190.04,48.03,190.4,49.29,194.24,49.43z M187.45,5.81c1.68,0,3.08,1.4,3.08,3.08c0,1.75-1.33,3.15-3.08,3.15
		c-1.61,0-3.15-1.47-3.15-3.15C184.3,7.28,185.84,5.81,187.45,5.81z"/>
	<path class="st0" d="M229.57,25c-2.03,0.14-2.94,2.38-4.48,6.37l-7.7,19.88h-2.17c-2.03-5.39-3.64-9.52-4.76-12.32l-2.45-5.88
		c-2.17-5.25-3.29-8.05-5.88-8.05c-0.14,0-0.28,0-0.42,0v-1.47h12.18V25c-2.17,0.21-3.08,0.7-3.08,2.1c0,0.91,0.49,2.03,1.05,3.43
		l5.81,14.49c4.34-10.22,6.16-16.31,6.16-17.78c0-1.68-0.77-2.17-3.08-2.24v-1.47h8.82V25z"/>
	<path class="st0" d="M250.07,51.25c-7.63,0-13.09-5.81-13.09-14.35c0-7.84,6.02-13.86,13.72-13.86c5.88,0,10.01,3.64,10.43,9.45
		h-18.69c-0.21,1.47-0.35,2.8-0.35,4.2c0,6.65,4.34,11.55,10.22,11.55c2.73,0,5.18-1.12,8.05-3.08l0.91,1.05
		C258.12,49.57,254.41,51.25,250.07,51.25z M256.02,30.88c-0.14-4.2-2.17-6.23-6.09-6.23c-3.43,0-5.88,2.17-7,6.23H256.02z"/>
	<path class="st0" d="M172.86,119.77c-6.09,0-10.01-4.13-10.01-9.8c0-4.13,2.59-7.91,7.63-12.04c-2.45-2.17-3.71-4.2-3.71-6.16
		c0-3.92,4.13-8.68,8.61-8.68c2.8,0,4.55,1.75,4.55,4.48c0,2.66-1.47,5.6-4.55,8.61c6.02,6.09,9.66,9.87,11.06,11.34
		c1.75-3.36,2.66-5.88,2.66-7.63c0-1.89-1.26-2.45-4.2-2.45v-1.61h12.53v1.61c-5.67,0.28-6.3,4.55-9.59,11.83
		c3.5,4.06,5.67,6.16,6.72,6.16c0.77,0,1.82-0.84,3.08-2.66l1.05,0.56c-1.82,4.41-3.64,6.58-5.6,6.58s-4.13-2.31-7.84-6.37
		C181.4,117.74,177.55,119.77,172.86,119.77z M171.81,98.97c-3.57,2.38-5.46,5.6-5.46,8.26c0,4.62,4.69,9.24,9.66,9.24
		c3.01,0,5.88-1.61,8.05-4.62C179.51,106.88,175.52,102.54,171.81,98.97z M177.62,88.96c0-2.31-1.4-3.85-3.71-3.85
		s-4.41,1.89-4.41,4.2s1.54,3.78,4.48,5.81C176.36,92.95,177.62,91.06,177.62,88.96z"/>
	<path class="st0" d="M17.14,166.62h7.14c3.85,0,5.39-1.54,6.3-5.74h1.68v14.63h-1.68c-0.42-4.83-2.17-6.79-6.3-6.79h-7.14
		c-1.75,0-2.45,0.63-2.45,2.52v9.8c0,5.53,0.35,7.28,6.58,7.42v1.75H2.02v-1.75c6.16-0.21,6.51-1.89,6.51-7.42v-26.39
		c0-5.53-0.35-7.14-6.51-7.35v-1.82h35.14l2.45,11.06l-1.68-0.14c-3.71-6.16-6.93-8.96-11.83-8.96h-6.09
		c-5.11,0-5.32,0.98-5.32,4.55v12.11C14.69,165.99,15.39,166.62,17.14,166.62z"/>
	<path class="st0" d="M63.05,162.42c1.96,0,3.15,1.05,3.15,2.59c0,1.68-1.19,2.66-3.29,2.66c-1.12,0-2.31-0.21-3.71-0.21
		c-3.71,0-4.62,1.47-4.62,5.32v10.78c0,3.78,0.35,5.04,4.2,5.18v1.47H45.34v-1.47c3.85-0.14,4.27-1.4,4.27-5.18v-15.54l-2.45-1.82
		v-0.91l6.09-3.29l1.19,0.63v5.18C57.38,164.24,60.32,162.42,63.05,162.42z"/>
	<path class="st0" d="M87.22,190.56c-7.63,0-13.09-5.81-13.09-14.35c0-7.84,6.02-13.86,13.72-13.86c5.88,0,10.01,3.64,10.43,9.45
		H79.59c-0.21,1.47-0.35,2.8-0.35,4.2c0,6.65,4.34,11.55,10.22,11.55c2.73,0,5.18-1.12,8.05-3.08l0.91,1.05
		C95.27,188.88,91.56,190.56,87.22,190.56z M93.17,170.19c-0.14-4.2-2.17-6.23-6.09-6.23c-3.43,0-5.88,2.17-7,6.23H93.17z"/>
	<path class="st0" d="M110.2,181.88l1.12,0.07c0.98,4.62,3.29,7,6.72,7c3.01,0,5.04-1.89,5.04-4.76c0-3.01-2.03-4.34-5.46-6.23
		c-4.69-2.59-7.49-4.27-7.49-8.12c0-4.34,3.64-7.56,9.8-7.56c1.75,0,3.57,0.28,5.53,0.91V169l-0.91,0.14
		c-1.75-3.57-3.29-5.32-5.6-5.32c-2.73,0-4.41,1.68-4.41,4.13c0,2.94,2.31,4.06,6.23,6.16c4.13,2.17,6.51,3.85,6.51,7.84
		c0,4.83-4.2,8.61-9.45,8.61c-3.99,0-6.93-1.12-8.54-3.08L110.2,181.88z"/>
	<path class="st0" d="M150.62,188.74v1.47h-13.65v-1.47c3.85-0.14,4.27-1.4,4.27-5.18v-35l-2.73-1.61v-1.33l7.91-2.38v21.98
		c3.08-1.89,6.02-2.87,9.24-2.87c6.44,0,9.45,3.36,9.45,10.29v10.92c0,3.78,0.35,5.04,4.2,5.18v1.47h-13.58v-1.47
		c3.85-0.14,4.2-1.4,4.2-5.18v-8.89c0-6.65-1.54-9.8-6.58-9.8c-2.66,0-4.97,1.05-6.93,3.08v15.61
		C146.42,187.34,146.77,188.6,150.62,188.74z"/>
	<path class="st0" d="M216.49,168.16v12.88c0,5.53,0.35,7.21,6.51,7.42v1.75h-19.18v-1.75c6.16-0.21,6.51-1.89,6.51-7.42v-26.39
		c0-5.53-0.35-7.14-6.51-7.35v-1.82H223v1.82c-6.16,0.21-6.51,1.82-6.51,7.35v11.2h27.86v-11.2c0-5.53-0.35-7.14-6.51-7.35v-1.82
		h19.18v1.82c-6.16,0.21-6.51,1.82-6.51,7.35v26.39c0,5.53,0.35,7.21,6.51,7.42v1.75h-19.18v-1.75c6.16-0.21,6.51-1.89,6.51-7.42
		v-12.88H216.49z"/>
	<path class="st0" d="M279.24,190.56c-7.63,0-13.09-5.81-13.09-14.35c0-7.84,6.02-13.86,13.72-13.86c5.88,0,10.01,3.64,10.43,9.45
		h-18.69c-0.21,1.47-0.35,2.8-0.35,4.2c0,6.65,4.34,11.55,10.22,11.55c2.73,0,5.18-1.12,8.05-3.08l0.91,1.05
		C287.29,188.88,283.58,190.56,279.24,190.56z M285.19,170.19c-0.14-4.2-2.17-6.23-6.09-6.23c-3.43,0-5.88,2.17-7,6.23H285.19z"/>
	<path class="st0" d="M317.82,162.42c1.96,0,3.15,1.05,3.15,2.59c0,1.68-1.19,2.66-3.29,2.66c-1.12,0-2.31-0.21-3.71-0.21
		c-3.71,0-4.62,1.47-4.62,5.32v10.78c0,3.78,0.35,5.04,4.2,5.18v1.47h-13.44v-1.47c3.85-0.14,4.27-1.4,4.27-5.18v-15.54l-2.45-1.82
		v-0.91l6.09-3.29l1.19,0.63v5.18C312.15,164.24,315.09,162.42,317.82,162.42z"/>
	<path class="st0" d="M331.38,189.86v-41.3l-2.73-1.61v-1.33l7.91-2.38v22.54c3.01-2.38,5.88-3.5,9.03-3.5
		c7.14,0,12.39,5.25,12.39,13.51c0,8.26-6.23,14.91-14.07,14.91c-3.36,0-6.02-1.12-7.91-1.12c-1.19,0-2.24,0.28-3.36,0.91
		L331.38,189.86z M336.56,184.68c1.68,2.8,4.55,4.41,7.84,4.41c5.18,0,8.54-4.27,8.54-11.76c0-8.12-3.85-12.81-9.24-12.81
		c-2.59,0-4.76,1.12-7.14,3.43V184.68z"/>
</g>
<line class="st1" x1="77.16" y1="246.08" x2="289.16" y2="246.08"/>
</svg>
