<?xml version="1.0" encoding="utf-8"?>
<!-- Generator: Adobe Illustrator 25.4.1, SVG Export Plug-In . SVG Version: 6.00 Build 0)  -->
<svg version="1.1" id="レイヤー_1" xmlns="http://www.w3.org/2000/svg" xmlns:xlink="http://www.w3.org/1999/xlink" x="0px"
	 y="0px" viewBox="0 0 240 75" style="enable-background:new 0 0 240 75;" xml:space="preserve">
<style type="text/css">
	.st0{fill:#463243;}
	.st1{fill:#463243;stroke:#463243;stroke-width:4;stroke-linecap:round;stroke-linejoin:round;stroke-miterlimit:10;}
</style>
<g>
	<path class="st0" d="M5.93,29.05c2.34,6.66,6.24,10.02,11.4,10.02c4.98,0,8.04-2.94,8.04-7.26c0-2.04-0.72-3.78-2.04-5.16
		c-2.22-2.28-5.04-3.18-7.86-4.5c-6.36-3-9.48-5.4-9.48-10.38c0-6.12,4.8-10.08,13.14-10.08c2.94,0,5.7,0.48,8.28,1.38l0.06,8.4
		l-1.02,0.12c-1.8-5.76-4.2-8.28-8.52-8.28c-4.56,0-7.56,2.64-7.56,6.18c0,3.72,3,6,8.76,8.64c2.76,1.26,5.64,2.22,8.04,4.5
		c1.86,1.74,2.82,4.08,2.82,6.84c0,6.6-5.4,11.22-14.1,11.22c-3.36,0-6.66-0.54-9.9-1.68l-1.32-9.84L5.93,29.05z"/>
	<path class="st0" d="M50.49,39.07v1.26h-11.7v-1.26c3.3-0.12,3.66-1.2,3.66-4.44v-30l-2.34-1.38V2.12l6.78-2.04v27.66
		c6.3-3.6,9.36-6.9,9.36-8.1c0-0.96-0.84-1.44-2.58-1.5v-1.26H63.8v1.26c-2.64,0.6-4.56,1.8-6.6,3.54l-5.16,4.44l8.7,9.06
		c1.62,1.68,3.24,3.18,5.82,3.9v1.26H54.08v-1.26c1.92,0,2.82-0.24,2.82-1.02c0-0.9-0.96-2.34-2.82-4.2l-5.28-5.34
		c-0.66,0.36-1.26,0.72-1.92,0.96v5.16C46.89,37.87,47.18,38.95,50.49,39.07z"/>
	<path class="st0" d="M86.18,39.07v1.26h-11.7v-1.26c3.3-0.12,3.66-1.2,3.66-4.44V21.32l-3-1.68v-0.96l6.42-2.52l1.02,0.54v17.94
		C82.58,37.87,82.88,38.95,86.18,39.07z M80.36,1.7C81.8,1.7,83,2.9,83,4.34c0,1.5-1.14,2.7-2.64,2.7c-1.38,0-2.7-1.26-2.7-2.7
		C77.66,2.96,78.98,1.7,80.36,1.7z"/>
	<path class="st0" d="M107.14,39.07v1.26h-11.7v-1.26c3.3-0.12,3.66-1.2,3.66-4.44V21.32L97,19.76v-0.78l5.22-2.82l1.02,0.54v2.34
		c2.82-1.68,5.34-2.58,7.98-2.58c5.76,0,8.34,2.76,8.34,8.82v9.36c0,3.24,0.3,4.32,3.6,4.44v1.26h-11.64v-1.26
		c3.3-0.12,3.6-1.2,3.6-4.44v-7.62c0-5.7-1.32-8.4-5.64-8.4c-2.28,0-4.26,0.9-5.94,2.64v13.38
		C103.54,37.87,103.84,38.95,107.14,39.07z"/>
	<path class="st0" d="M159.88,36.01c-4.2-3.42-6.42-8.46-6.42-14.82c0-6.36,2.28-11.52,6.48-14.94c3.66-3,8.16-4.56,13.38-4.56
		s9.72,1.56,13.38,4.56c4.2,3.42,6.48,8.58,6.48,14.94c0,6.36-2.22,11.4-6.42,14.82c-3.78,3.06-8.22,4.62-13.44,4.62
		S163.66,39.07,159.88,36.01z M187.23,21.2c0-11.46-5.4-17.94-13.92-17.94s-13.86,6.48-13.86,17.94c0,11.4,5.34,17.88,13.86,17.88
		S187.23,32.59,187.23,21.2z"/>
	<path class="st0" d="M214.43,39.07v1.26h-11.7v-1.26c3.3-0.12,3.66-1.2,3.66-4.44V21.32l-3-1.68v-0.96l6.42-2.52l1.02,0.54v17.94
		C210.83,37.87,211.13,38.95,214.43,39.07z M208.61,1.7c1.44,0,2.64,1.2,2.64,2.64c0,1.5-1.14,2.7-2.64,2.7
		c-1.38,0-2.7-1.26-2.7-2.7C205.91,2.96,207.23,1.7,208.61,1.7z"/>
	<path class="st0" d="M235.33,39.07v1.26h-11.7v-1.26c3.3-0.12,3.66-1.2,3.66-4.44v-30l-2.34-1.38V2.12l6.78-2.04v34.56
		C231.73,37.87,232.03,38.95,235.33,39.07z"/>
</g>
<line class="st1" x1="15.64" y1="71.92" x2="227.64" y2="71.92"/>
</svg>
