<?xml version="1.0" encoding="utf-8"?>
<!-- Generator: Adobe Illustrator 25.4.1, SVG Export Plug-In . SVG Version: 6.00 Build 0)  -->
<svg version="1.1" id="レイヤー_1" xmlns="http://www.w3.org/2000/svg" xmlns:xlink="http://www.w3.org/1999/xlink" x="0px"
	 y="0px" viewBox="0 0 20 70" style="enable-background:new 0 0 20 70;" xml:space="preserve">
<style type="text/css">
	.st0{fill:#9BB12A;}
</style>
<g>
	<g>
		<path class="st0" d="M11.88,43.79c3.64-0.93,6.35-4.51,6.35-8.79c0-3.98-2.35-7.35-5.61-8.56h0.02c0,0-0.03-0.01-0.08-0.03
			c-0.05-0.02-0.1-0.04-0.15-0.05c-0.56-0.22-1.97-0.94-1.98-2.58c0.01-1.61,1.37-2.33,1.95-2.57c0.08-0.03,0.15-0.05,0.22-0.08
			c0.02-0.01,0.03-0.01,0.03-0.01h-0.01c3.25-1.21,5.6-4.58,5.6-8.55c0-4.99-3.68-9.03-8.23-9.03c-4.55,0-8.23,4.04-8.23,9.03
			c0,3.98,2.35,7.35,5.6,8.55H7.36c0,0,0.01,0,0.03,0.01c0.08,0.03,0.15,0.06,0.22,0.08c0.58,0.23,1.94,0.96,1.95,2.57
			c-0.01,1.64-1.42,2.36-1.98,2.58c-0.05,0.02-0.1,0.04-0.15,0.05c-0.05,0.02-0.08,0.03-0.08,0.03h0.02
			c-3.26,1.2-5.61,4.58-5.61,8.56c0,4.23,2.65,7.76,6.22,8.75c0.65,0.34,1.6,1.06,1.61,2.41c-0.01,2.05-2.21,2.66-2.21,2.66h0.12
			c-3.33,1.16-5.74,4.57-5.74,8.61c0,4.99,3.68,9.03,8.23,9.03c4.55,0,8.23-4.04,8.23-9.03c0-4.04-2.41-7.45-5.74-8.61h0.06
			c0,0-2.2-0.61-2.21-2.66C10.34,44.86,11.23,44.14,11.88,43.79z"/>
	</g>
</g>
</svg>
