<?xml version="1.0" encoding="utf-8"?>
<!-- Generator: Adobe Illustrator 25.4.1, SVG Export Plug-In . SVG Version: 6.00 Build 0)  -->
<svg version="1.1" id="レイヤー_1" xmlns="http://www.w3.org/2000/svg" xmlns:xlink="http://www.w3.org/1999/xlink" x="0px"
	 y="0px" viewBox="0 0 26 26" style="enable-background:new 0 0 26 26;" xml:space="preserve">
<style type="text/css">
	.st0{fill:#756F6E;}
	.st1{fill:#FFFFFF;}
</style>
<path class="st0" d="M15.47,0.96H7.84H6.23c-1.45,0-2.77,0.59-3.72,1.55C1.75,3.27,1.22,4.26,1.04,5.36
	C0.99,5.64,0.96,5.93,0.96,6.23v2.15v4.54v4.75v2.1c0,0.16,0.01,0.31,0.02,0.47c0.05,0.59,0.2,1.16,0.44,1.68
	c0.27,0.59,0.64,1.12,1.09,1.58c0.95,0.96,2.27,1.55,3.72,1.55h1.61h8.13h3.8c0.32,0,0.63-0.03,0.94-0.08
	c1.07-0.19,2.04-0.72,2.78-1.46c0.45-0.45,0.82-0.99,1.09-1.58c0.23-0.52,0.38-1.08,0.44-1.68c0.02-0.15,0.02-0.31,0.02-0.47v-2.6
	v-4.25V8.38V6.23c0-0.3-0.02-0.59-0.07-0.87c-0.19-1.1-0.72-2.09-1.48-2.85c-0.74-0.75-1.71-1.27-2.78-1.47
	c-0.3-0.05-0.61-0.08-0.93-0.08H15.47z"/>
<path class="st1" d="M16.69,21.88H9.31c-2.86,0-5.19-2.33-5.19-5.19V9.32c0-2.86,2.33-5.19,5.19-5.19h7.37
	c2.86,0,5.19,2.33,5.19,5.19v7.37C21.88,19.55,19.55,21.88,16.69,21.88 M9.31,5.78c-1.95,0-3.54,1.59-3.54,3.54v7.37
	c0,1.95,1.59,3.53,3.54,3.53h7.37c1.95,0,3.54-1.59,3.54-3.53V9.32c0-1.95-1.59-3.54-3.54-3.54H9.31z"/>
<path class="st1" d="M18.85,8.27c0,0.61-0.49,1.11-1.11,1.11c-0.61,0-1.11-0.5-1.11-1.11c0-0.61,0.5-1.11,1.11-1.11
	C18.36,7.16,18.85,7.66,18.85,8.27"/>
<path class="st1" d="M13,17.59c-2.53,0-4.59-2.06-4.59-4.59S10.47,8.41,13,8.41c2.53,0,4.59,2.06,4.59,4.59S15.53,17.59,13,17.59
	 M13,10.07c-1.62,0-2.93,1.32-2.93,2.93c0,1.62,1.32,2.93,2.93,2.93c1.62,0,2.93-1.32,2.93-2.93C15.93,11.38,14.62,10.07,13,10.07"
	/>
</svg>
