<?xml version="1.0" encoding="utf-8"?>
<!-- Generator: Adobe Illustrator 25.4.1, SVG Export Plug-In . SVG Version: 6.00 Build 0)  -->
<svg version="1.1" id="レイヤー_1" xmlns="http://www.w3.org/2000/svg" xmlns:xlink="http://www.w3.org/1999/xlink" x="0px"
	 y="0px" viewBox="0 0 580 40" style="enable-background:new 0 0 580 40;" xml:space="preserve">
<style type="text/css">
	.st0{fill:#463243;}
</style>
<g>
	<g>
		<path class="st0" d="M6.34,33.05C2.84,30.2,0.99,26,0.99,20.7s1.9-9.6,5.4-12.45c3.05-2.5,6.8-3.8,11.15-3.8s8.1,1.3,11.15,3.8
			c3.5,2.85,5.4,7.15,5.4,12.45s-1.85,9.5-5.35,12.35c-3.15,2.55-6.85,3.85-11.2,3.85S9.49,35.6,6.34,33.05z M29.14,20.7
			c0-9.55-4.5-14.95-11.6-14.95S5.99,11.15,5.99,20.7c0,9.5,4.45,14.9,11.55,14.9S29.14,30.2,29.14,20.7z"/>
		<path class="st0" d="M53.84,35.6v1.05h-9.75V35.6c2.75-0.1,3.05-1,3.05-3.7v-25l-1.95-1.15V4.8l5.65-1.7v28.8
			C50.84,34.6,51.09,35.5,53.84,35.6z"/>
		<path class="st0" d="M81.83,18.15c-1.45,0.1-2.1,1.7-3.2,4.55l-5.5,14.2h-1.55c-1.45-3.85-2.6-6.8-3.4-8.8l-1.75-4.2
			c-1.55-3.75-2.35-5.75-4.2-5.75c-0.1,0-0.2,0-0.3,0V17.1h8.7v1.05c-1.55,0.15-2.2,0.5-2.2,1.5c0,0.65,0.35,1.45,0.75,2.45
			l4.15,10.35c3.1-7.3,4.4-11.65,4.4-12.7c0-1.2-0.55-1.55-2.2-1.6V17.1h6.3V18.15z"/>
		<path class="st0" d="M101.26,35.6v1.05h-9.75V35.6c2.75-0.1,3.05-1,3.05-3.7V20.8l-2.5-1.4v-0.8l5.35-2.1l0.85,0.45V31.9
			C98.26,34.6,98.51,35.5,101.26,35.6z M96.41,4.45c1.2,0,2.2,1,2.2,2.2c0,1.25-0.95,2.25-2.2,2.25c-1.15,0-2.25-1.05-2.25-2.25
			C94.16,5.5,95.26,4.45,96.41,4.45z"/>
		<path class="st0" d="M120.06,36.9c-5.45,0-9.35-4.15-9.35-10.25c0-5.6,4.3-9.9,9.8-9.9c4.2,0,7.15,2.6,7.45,6.75h-13.35
			c-0.15,1.05-0.25,2-0.25,3c0,4.75,3.1,8.25,7.3,8.25c1.95,0,3.7-0.8,5.75-2.2l0.65,0.75C125.81,35.7,123.16,36.9,120.06,36.9z
			 M124.31,22.35c-0.1-3-1.55-4.45-4.35-4.45c-2.45,0-4.2,1.55-5,4.45H124.31z"/>
	</g>
</g>
<g>
	<g>
		<path class="st0" d="M483.07,29.45v-18.2c0-3.95-0.2-5.1-4.6-5.25V4.7h10.85V6c-4.45,0.1-4.7,1.3-4.7,5.25v25.4h-1.1l-24.7-26.9
			V30.1c0,3.95,0.25,5.15,4.65,5.3v1.25h-10.2V35.4c3.9-0.3,4.05-1.55,4.05-5.3V11.25c0-4.1-0.25-5.2-5.05-5.25V4.7h8L483.07,29.45z
			"/>
		<path class="st0" d="M507.46,36.9c-5.45,0-9.35-4.15-9.35-10.25c0-5.6,4.3-9.9,9.8-9.9c4.2,0,7.15,2.6,7.45,6.75h-13.35
			c-0.15,1.05-0.25,2-0.25,3c0,4.75,3.1,8.25,7.3,8.25c1.95,0,3.7-0.8,5.75-2.2l0.65,0.75C513.21,35.7,510.56,36.9,507.46,36.9z
			 M511.71,22.35c-0.1-3-1.55-4.45-4.35-4.45c-2.45,0-4.2,1.55-5,4.45H511.71z"/>
		<path class="st0" d="M543.08,28.1l-2-4.8l-6.45,13.6h-1.1c-1.9-5-3.05-7.95-3.4-8.8l-1.75-4.2c-1.55-3.75-2.3-5.75-4.15-5.75
			c-0.1,0-0.2,0-0.3,0V17.1h8.8v1.05c-1.45,0.1-2.05,0.45-2.05,1.4c0,0.6,0.2,1.45,0.6,2.55l3.9,10.3l5.2-10.7
			c-0.9-2.4-1.9-3.55-3.3-3.55c-0.05,0-0.15,0-0.25,0V17.1h8.85v1.05c-1.45,0.1-2.05,0.45-2.05,1.4c0,0.6,0.2,1.45,0.6,2.55
			l3.9,10.3l3.75-8.75c0.85-2,1.15-3.4,1.15-3.95c0-1.25-0.45-1.5-2.1-1.55V17.1h6.05v1.05c-1.4,0.1-2.1,1.6-3.25,4.35l-6.15,14.4
			h-1.1C544.58,31.85,543.43,28.9,543.08,28.1z"/>
		<path class="st0" d="M566.81,30.7l0.8,0.05c0.7,3.3,2.35,5,4.8,5c2.15,0,3.6-1.35,3.6-3.4c0-2.15-1.45-3.1-3.9-4.45
			c-3.35-1.85-5.35-3.05-5.35-5.8c0-3.1,2.6-5.4,7-5.4c1.25,0,2.55,0.2,3.95,0.65v4.15l-0.65,0.1c-1.25-2.55-2.35-3.8-4-3.8
			c-1.95,0-3.15,1.2-3.15,2.95c0,2.1,1.65,2.9,4.45,4.4c2.95,1.55,4.65,2.75,4.65,5.6c0,3.45-3,6.15-6.75,6.15
			c-2.85,0-4.95-0.8-6.1-2.2L566.81,30.7z"/>
	</g>
</g>
</svg>
