<?xml version="1.0" encoding="utf-8"?>
<!-- Generator: Adobe Illustrator 25.4.1, SVG Export Plug-In . SVG Version: 6.00 Build 0)  -->
<svg version="1.1" id="レイヤー_1" xmlns="http://www.w3.org/2000/svg" xmlns:xlink="http://www.w3.org/1999/xlink" x="0px"
	 y="0px" viewBox="0 0 600 60" style="enable-background:new 0 0 600 60;" xml:space="preserve">
<style type="text/css">
	.st0{fill:#463243;stroke:#040000;stroke-width:0.5;stroke-linecap:round;stroke-linejoin:round;stroke-miterlimit:10;}
	.st1{fill:none;stroke:#040000;stroke-miterlimit:10;}
</style>
<g>
	<g>
		<path class="st0" d="M20.11,26.66v2.18c0,3.81,0,7.7,0.12,11.51l4.01,0.4c0.36,0.04,0.56,0.24,0.56,0.6v0.28
			c0,0.36-0.24,0.6-0.6,0.6H12.73c-0.36,0-0.6-0.24-0.6-0.6v-0.28c0-0.36,0.2-0.56,0.56-0.6l4.05-0.4
			c0.08-3.77,0.08-7.62,0.08-11.51v-2.18c0-3.89,0-7.82-0.08-11.63H9.47l-0.99,5.28c-0.08,0.36-0.32,0.52-0.67,0.52H6.97
			c-0.36,0-0.56-0.24-0.56-0.6l0.24-6.35c0-0.36,0.28-0.6,0.64-0.6h22.3c0.36,0,0.63,0.24,0.63,0.6l0.32,6.35
			c0,0.4-0.16,0.6-0.56,0.6h-0.83c-0.36,0-0.6-0.16-0.67-0.52l-0.99-5.28h-7.26C20.11,18.8,20.11,22.69,20.11,26.66z"/>
		<path class="st0" d="M67.89,35.31l-0.2,6.31c0,0.36-0.28,0.6-0.64,0.6H46.22c-0.36,0-0.6-0.24-0.6-0.6v-0.28
			c0-0.36,0.2-0.56,0.56-0.6l3.57-0.4c0.12-3.77,0.12-7.62,0.12-11.51v-2.18c0-3.85,0-7.74-0.12-11.55l-3.57-0.4
			c-0.36-0.04-0.56-0.24-0.56-0.6v-0.24c0-0.36,0.24-0.6,0.6-0.6h20.04c0.36,0,0.63,0.24,0.63,0.6l0.2,6.27c0,0.36-0.2,0.6-0.56,0.6
			h-0.79c-0.36,0-0.6-0.16-0.67-0.52l-0.95-5.2H53.29c-0.12,3.73-0.12,7.62-0.12,11.67h6.95l0.52-3.73c0.04-0.4,0.28-0.56,0.63-0.56
			h0.48c0.36,0,0.6,0.24,0.6,0.6v8.85c0,0.36-0.24,0.6-0.6,0.6h-0.48c-0.36,0-0.6-0.16-0.63-0.56l-0.48-3.61h-6.99
			c0,4.41,0,8.29,0.12,12.14h11.63l0.95-5.16c0.08-0.36,0.28-0.56,0.64-0.56h0.83C67.69,34.72,67.89,34.96,67.89,35.31z"/>
		<path class="st0" d="M104.88,34.92l-0.28,6.71c0,0.36-0.28,0.6-0.64,0.6H84.01c-0.36,0-0.6-0.24-0.6-0.6v-0.28
			c0-0.36,0.2-0.56,0.56-0.6l3.57-0.4c0.12-3.81,0.12-7.66,0.12-11.47v-2.22c0-3.93,0-7.78-0.12-11.55l-3.57-0.4
			c-0.36-0.04-0.56-0.24-0.56-0.6v-0.24c0-0.36,0.24-0.6,0.6-0.6h10.6c0.36,0,0.6,0.24,0.6,0.6v0.24c0,0.36-0.2,0.56-0.56,0.6
			l-3.57,0.4c-0.12,3.81-0.12,7.7-0.12,11.75v2.78c0,3.21,0,7.02,0.12,10.79h10.48l1.15-5.6c0.08-0.36,0.32-0.52,0.67-0.52h0.95
			C104.72,34.32,104.88,34.56,104.88,34.92z"/>
		<path class="st0" d="M178.2,23.53c0,15.14-6.12,20.7-12.53,20.7c-6.46,0-12.64-5.56-12.64-20.7c0-15.2,6.18-20.87,12.64-20.87
			C172.07,2.66,178.2,8.33,178.2,23.53z M165.67,41.96c3.97,0,7.82-4.08,7.82-18.43c0-14.52-3.86-18.54-7.82-18.54
			c-4.08,0-7.88,3.97-7.88,18.54C157.78,37.93,161.58,41.96,165.67,41.96z"/>
		<path class="st0" d="M197.53,42.47c10.55-3.74,15.65-9.87,16.9-18.43c-2.21,2.27-5.1,3.4-8.51,3.4c-6.69,0-11.96-4.65-11.91-12.19
			c0-7.48,5.27-12.59,12.76-12.59c7.71,0,12.59,6.18,12.59,16.1c0,11.45-6.41,21.55-21.32,25.57c-0.57,0.17-0.96-0.06-1.08-0.57
			l-0.06-0.23C196.79,42.98,197.02,42.64,197.53,42.47z M214.65,21.49c0.06-0.62,0.06-1.25,0.06-1.93c0-9.92-3.4-14.57-8.17-14.57
			c-4.31,0-7.99,3.35-7.99,9.81c0,6.58,3.8,9.7,8.79,9.7C210.23,24.49,212.55,23.53,214.65,21.49z"/>
		<path class="st0" d="M260.7,40.03v2.55c0,0.51-0.34,0.85-0.85,0.85h-23.3c-0.51,0-0.85-0.34-0.85-0.85v-1.93
			c0-0.4,0.11-0.74,0.45-1.08c3.35-3.46,6.69-7.09,9.3-9.87c6.24-6.75,8.73-11.4,8.73-16.16c0-5.1-2.95-8.56-7.82-8.56
			c-1.08,0-2.38,0.11-3.74,0.51l-1.42,4.37c-0.68,2.44-1.53,3.52-3.01,3.52c-1.02,0-1.81-0.45-2.38-1.25
			c-0.28-0.34-0.34-0.68-0.23-1.08c1.19-5.61,6.35-8.39,12.02-8.39c7.65,0,11.23,4.25,11.23,10.49c0,5.22-2.72,9.3-11.79,18.37
			c-1.59,1.7-4.48,4.59-7.6,7.65h20.41C260.35,39.18,260.7,39.52,260.7,40.03z"/>
		<path class="st0" d="M274.88,26.36h12.59c0.51,0,0.85,0.34,0.85,0.85v1.59c0,0.51-0.34,0.85-0.85,0.85h-12.59
			c-0.51,0-0.85-0.34-0.85-0.85v-1.59C274.03,26.7,274.37,26.36,274.88,26.36z"/>
		<path class="st0" d="M323.98,4.36v1.19c0,0.4-0.11,0.74-0.23,1.08l-14.23,36.12c-0.17,0.45-0.57,0.68-1.02,0.68h-2.78
			c-0.4,0-0.74-0.11-0.91-0.28c-0.17-0.17-0.17-0.51,0-0.96l15.93-34.42h-20.7c-0.51,0-0.85-0.34-0.85-0.85V4.36
			c0-0.51,0.34-0.85,0.85-0.85h23.08C323.64,3.51,323.98,3.85,323.98,4.36z"/>
		<path class="st0" d="M342.85,12.3c-1.02,0-1.87-0.4-2.44-1.42c-0.17-0.4-0.17-0.74-0.06-1.13c1.42-4.82,5.95-7.09,11.17-7.09
			c6.97,0,11.4,3.97,11.4,9.7c0,4.65-3.06,8.33-8.45,10.04c6.52,1.13,9.75,4.93,9.75,10.21c0,6.75-5.5,11.62-13.5,11.62
			c-5.61,0-10.04-2.32-11.45-7.71c-0.06-0.4-0.06-0.74,0.17-1.08c0.57-0.79,1.36-1.25,2.38-1.25c1.7,0,2.32,1.13,3.06,3.63
			l1.08,3.52c1.42,0.45,2.78,0.62,4.08,0.62c6.29,0,9.58-3.52,9.58-9.19c0-5.73-3.29-9.13-9.98-9.13h-2.04
			c-0.51,0-0.85-0.34-0.85-0.85v-0.74c0-0.51,0.34-0.85,0.85-0.85h1.59c5.67,0,9.3-3.18,9.3-8.73c0-4.71-2.83-7.48-7.82-7.48
			c-1.13,0-2.33,0.11-3.69,0.45l-1.08,3.52C345.34,11.28,344.66,12.3,342.85,12.3z"/>
		<path class="st0" d="M384.11,12.3c-1.02,0-1.87-0.4-2.44-1.42c-0.17-0.4-0.17-0.74-0.06-1.13c1.42-4.82,5.95-7.09,11.17-7.09
			c6.97,0,11.4,3.97,11.4,9.7c0,4.65-3.06,8.33-8.45,10.04c6.52,1.13,9.75,4.93,9.75,10.21c0,6.75-5.5,11.62-13.5,11.62
			c-5.61,0-10.04-2.32-11.45-7.71c-0.06-0.4-0.06-0.74,0.17-1.08c0.57-0.79,1.36-1.25,2.38-1.25c1.7,0,2.33,1.13,3.06,3.63
			l1.08,3.52c1.42,0.45,2.78,0.62,4.08,0.62c6.29,0,9.58-3.52,9.58-9.19c0-5.73-3.29-9.13-9.98-9.13h-2.04
			c-0.51,0-0.85-0.34-0.85-0.85v-0.74c0-0.51,0.34-0.85,0.85-0.85h1.59c5.67,0,9.3-3.18,9.3-8.73c0-4.71-2.83-7.48-7.82-7.48
			c-1.13,0-2.33,0.11-3.69,0.45l-1.08,3.52C386.6,11.28,385.92,12.3,384.11,12.3z"/>
		<path class="st0" d="M422.68,26.36h12.59c0.51,0,0.85,0.34,0.85,0.85v1.59c0,0.51-0.34,0.85-0.85,0.85h-12.59
			c-0.51,0-0.85-0.34-0.85-0.85v-1.59C421.83,26.7,422.17,26.36,422.68,26.36z"/>
		<path class="st0" d="M474.12,40.03v2.55c0,0.51-0.34,0.85-0.85,0.85h-23.3c-0.51,0-0.85-0.34-0.85-0.85v-1.93
			c0-0.4,0.11-0.74,0.45-1.08c3.34-3.46,6.69-7.09,9.3-9.87c6.24-6.75,8.73-11.4,8.73-16.16c0-5.1-2.95-8.56-7.83-8.56
			c-1.08,0-2.38,0.11-3.74,0.51l-1.42,4.37c-0.68,2.44-1.53,3.52-3,3.52c-1.02,0-1.81-0.45-2.38-1.25
			c-0.28-0.34-0.34-0.68-0.23-1.08c1.19-5.61,6.35-8.39,12.02-8.39c7.66,0,11.23,4.25,11.23,10.49c0,5.22-2.72,9.3-11.79,18.37
			c-1.59,1.7-4.48,4.59-7.6,7.65h20.41C473.78,39.18,474.12,39.52,474.12,40.03z"/>
		<path class="st0" d="M513.68,42.41v0.17c0,0.51-0.34,0.85-0.85,0.85h-20.7c-0.51,0-0.85-0.34-0.85-0.85v-0.17
			c0-0.51,0.28-0.85,0.79-0.91l8.17-0.96c0.06-3.4,0.11-6.75,0.11-10.09V7.2l-7.6,0.85c-0.57,0.06-0.91-0.23-0.91-0.79v-0.4
			c0-0.51,0.28-0.79,0.74-0.91l10.89-2.83c0.4-0.11,0.79-0.06,1.08,0.17c0.28,0.23,0.4,0.51,0.4,0.96l-0.23,8.17v18.03
			c0,3.35,0.06,6.69,0.11,10.09l8.05,0.96C513.4,41.56,513.68,41.9,513.68,42.41z"/>
		<path class="st0" d="M552.81,23.53c0,15.14-6.12,20.7-12.53,20.7c-6.46,0-12.64-5.56-12.64-20.7c0-15.2,6.18-20.87,12.64-20.87
			C546.68,2.66,552.81,8.33,552.81,23.53z M540.27,41.96c3.97,0,7.83-4.08,7.83-18.43c0-14.52-3.86-18.54-7.83-18.54
			c-4.08,0-7.88,3.97-7.88,18.54C532.39,37.93,536.19,41.96,540.27,41.96z"/>
		<path class="st0" d="M593.58,33.9c0,6.12-5.27,10.32-12.42,10.32c-7.48,0-12.47-3.52-12.47-9.87c0-4.71,3.12-7.77,9.07-10.72
			c-5.44-2.89-7.71-6.58-7.71-10.83c0-6.29,4.99-10.15,11.23-10.15c6.35,0,10.38,3.91,10.38,9.53c0,3.12-1.81,6.75-7.54,9.98
			C590.69,25.29,593.58,28.57,593.58,33.9z M589.27,34.3c0-3.74-2.33-6.35-9.64-9.75c-4.48,2.67-6.69,5.1-6.69,9.36
			c0,4.82,3.29,8.11,8.33,8.11C586.15,42.01,589.27,38.72,589.27,34.3z M582.24,21.32c4.03-2.78,5.61-5.33,5.61-9.02
			c0-4.03-2.38-7.31-6.69-7.31c-3.74,0-7.03,2.55-7.03,6.69C574.13,15.14,575.83,18.31,582.24,21.32z"/>
	</g>
	<line class="st1" x1="8.83" y1="57.34" x2="590.83" y2="57.34"/>
</g>
</svg>
