<?xml version="1.0" encoding="utf-8"?>
<!-- Generator: Adobe Illustrator 25.4.1, SVG Export Plug-In . SVG Version: 6.00 Build 0)  -->
<svg version="1.1" id="レイヤー_1" xmlns="http://www.w3.org/2000/svg" xmlns:xlink="http://www.w3.org/1999/xlink" x="0px"
	 y="0px" viewBox="0 0 220 90" style="enable-background:new 0 0 220 90;" xml:space="preserve">
<style type="text/css">
	.st0{fill:#463243;stroke:#463243;stroke-width:4;stroke-linecap:round;stroke-linejoin:round;stroke-miterlimit:10;}
	.st1{fill:#463143;}
	.st2{fill:#463243;}
</style>
<line class="st0" x1="2.28" y1="49.5" x2="214.28" y2="49.5"/>
<g>
	<g>
		<path class="st1" d="M15.92,31.14v1.12H3.59v-1.12c3.96-0.13,4.19-1.21,4.19-4.77V9.41c0-3.55-0.23-4.59-4.19-4.72V3.51h10.26
			c7.51,0,11.47,2.75,11.47,7.42c0,3.42-2.25,5.71-6.75,6.84c1.08,0.99,1.89,2.38,2.88,3.91l4.19,6.39
			c1.21,1.89,2.16,3.06,4.36,3.06v1.12h-5.71c-1.4-1.4-2.43-3.11-3.6-4.95l-2.43-3.87c-0.67-1.08-1.67-2.7-3.06-4.99
			c-0.99,0.13-2.11,0.18-3.46,0.18v7.74C11.73,29.93,11.96,31.01,15.92,31.14z M12.23,17.55c6.25,0,9.09-1.71,9.09-6.25
			c0-3.91-2.75-6.79-6.61-6.79c-2.43,0-2.97,0.54-2.97,2.65v10.39C11.91,17.55,12.05,17.55,12.23,17.55z"/>
		<path class="st1" d="M36.28,31.14c3.96-0.13,4.19-1.21,4.19-4.77V9.41c0-3.55-0.23-4.59-4.19-4.72V3.51h21.91l0.99,5.35
			l-0.99,0.09c-1.75-2.88-3.69-4.18-6.43-4.18h-3.92c-3.28,0-3.42,0.63-3.42,2.92v7.16c0,1.21,0.45,1.62,1.58,1.62h3.73
			c2.56,0,3.64-1.17,4.05-4.05h1.12v9.76h-1.12c-0.27-3.1-1.4-4.36-4.05-4.36H46c-1.12,0-1.58,0.4-1.58,1.62v8.64
			c0,2.29,0.14,2.93,3.42,2.93h5.49c3.92,0,5.58-1.22,7.74-5.62l0.94,0.09l-1.44,6.79h-24.3V31.14z"/>
		<path class="st1" d="M84.26,32.49c-9.13,0-15.16-5.71-15.16-14.35c0-5.13,1.98-9.04,6.16-12.15c2.25-1.67,5.44-2.7,9.13-2.7
			c4.14,0,7.65,1.17,10.53,3.46l-0.58,5.71l-0.67-0.22c-1.3-5-4.81-7.79-9.67-7.79c-6.52,0-10.3,4.77-10.3,13.46
			c0,8.37,4.41,13.45,11.02,13.45c4.45,0,7.74-2.43,9.77-7.29h1.03l-0.63,4.86C91.95,31.23,88.22,32.49,84.26,32.49z"/>
		<path class="st1" d="M114.87,31.14v1.12h-12.33v-1.12c3.96-0.13,4.18-1.21,4.18-4.77V9.41c0-3.55-0.23-4.59-4.18-4.72V3.51h10.26
			c7.51,0,11.47,2.75,11.47,7.42c0,3.42-2.25,5.71-6.75,6.84c1.08,0.99,1.89,2.38,2.88,3.91l4.18,6.39
			c1.21,1.89,2.16,3.06,4.36,3.06v1.12h-5.71c-1.39-1.4-2.43-3.11-3.6-4.95l-2.43-3.87c-0.67-1.08-1.67-2.7-3.06-4.99
			c-0.99,0.13-2.12,0.18-3.47,0.18v7.74C110.68,29.93,110.9,31.01,114.87,31.14z M111.17,17.55c6.26,0,9.09-1.71,9.09-6.25
			c0-3.91-2.74-6.79-6.61-6.79c-2.43,0-2.97,0.54-2.97,2.65v10.39C110.86,17.55,110.99,17.55,111.17,17.55z"/>
		<path class="st1" d="M131.93,4.68V3.51h11.83v1.17c-3.92,0.13-4.18,1.17-4.18,4.72l0.04,9.58c0,3.42,0,5.98,1.21,8.05
			c1.26,2.16,4,3.51,7.6,3.51s6.25-1.4,7.42-3.69c0.99-1.98,1.12-5.13,1.21-9.72l0.09-5.85c0-0.76,0-1.57,0-2.43
			c0-3.19-0.94-4.18-4.18-4.23V3.51h9.67v1.12c-3.6,0.04-3.78,1.75-3.92,6.48l-0.18,7.6c-0.09,3.65-0.27,6.48-1.31,8.68
			c-1.48,3.2-5.04,5.08-10.08,5.08c-4.59,0-8.05-1.53-9.94-4.23c-1.62-2.34-1.67-5.17-1.67-8.91c0-0.18,0-0.4,0-0.58l0.04-9.36
			C135.62,6.03,135.44,4.95,131.93,4.68z"/>
		<path class="st1" d="M170.05,31.14c3.96-0.13,4.18-1.21,4.18-4.77V9.41c0-3.55-0.22-4.59-4.18-4.72V3.51h12.33v1.17
			c-3.96,0.13-4.18,1.17-4.18,4.72v16.96c0,3.55,0.22,4.63,4.18,4.77v1.12h-12.33V31.14z"/>
		<path class="st1" d="M209.58,31.14v1.12h-12.33v-1.12c3.96-0.13,4.18-1.21,4.18-4.77V8.46c0-2.74-0.63-3.42-3.78-3.42
			c-4.14,0-6.34,1.44-7.96,5.27h-0.99l1.94-7.79h0.94c1.4,1.4,3.33,1.4,6.3,1.4h12.87c0.31,0,0.58,0,0.85,0c2.34,0,4-0.09,5.22-1.4
			h0.9v7.79h-0.95c-0.76-3.83-2.97-5.22-7.51-5.22c-3.19,0-3.87,0.63-3.87,3.19v18.09C205.39,29.93,205.62,31.01,209.58,31.14z"/>
	</g>
</g>
<g>
	<path class="st2" d="M55.25,77.51c-0.68,0.38-1.52,0.84-2.5,1.34v6.7c0,1-0.18,1.62-1.6,1.84c-0.2,0.04-0.32-0.06-0.36-0.24
		c-0.06-0.28-0.16-0.52-0.32-0.66c-0.22-0.2-0.6-0.34-1.22-0.42c-0.18-0.04-0.28-0.12-0.28-0.22s0.12-0.16,0.32-0.14
		c0.5,0.04,1.52,0.12,1.78,0.12c0.34,0,0.44-0.1,0.44-0.4v-5.94c-0.62,0.32-1.28,0.66-2,1c-0.02,0.12-0.08,0.22-0.14,0.3
		c-0.12,0.18-0.32,0.1-0.4-0.1l-0.46-1.04c-0.08-0.2-0.02-0.32,0.18-0.38c0.66-0.18,1.64-0.48,2.82-0.88v-4.1h-2.4
		c-0.18,0-0.28-0.1-0.32-0.26c-0.04-0.2,0.06-0.34,0.26-0.34h2.46v-4.24c0-0.2,0.12-0.3,0.32-0.28l1.3,0.14
		c0.22,0.02,0.34,0.2,0.18,0.36c-0.1,0.1-0.28,0.18-0.56,0.22v3.8h0.46l0.62-0.86c0.12-0.18,0.26-0.18,0.42-0.04
		c0.26,0.24,0.7,0.64,1.06,1c0.12,0.12,0.18,0.28,0.04,0.38c-0.08,0.08-0.22,0.12-0.38,0.12h-2.22v3.7c0.76-0.24,1.56-0.52,2.36-0.8
		c0.2-0.06,0.32-0.06,0.34,0.04C55.47,77.31,55.41,77.41,55.25,77.51z M67.09,84.53c0.16,0.06,0.24,0.12,0.24,0.2
		c-0.02,0.08-0.1,0.1-0.26,0.16c-0.36,0.12-0.64,0.38-0.82,0.78c-0.1,0.2-0.22,0.26-0.4,0.14c-1.92-1.34-3.48-3.44-4.44-6.14v7.32
		c0,0.16-0.56,0.44-1.06,0.44c-0.14,0-0.22-0.12-0.22-0.3v-6.3c-1.3,2.1-3.22,3.86-5.68,5.14c-0.16,0.08-0.28,0.08-0.34-0.02
		c-0.08-0.1-0.02-0.22,0.14-0.34c2.26-1.58,4-3.68,5.02-6.04h-3.9c-0.18,0-0.28-0.1-0.32-0.26c-0.06-0.22,0.06-0.34,0.26-0.34h4.82
		v-2.08c0-0.2,0.12-0.32,0.32-0.3l1.24,0.12c0.2,0.02,0.36,0.2,0.22,0.36c-0.1,0.1-0.26,0.18-0.5,0.22v1.68h3.06l0.72-0.94
		c0.12-0.14,0.26-0.18,0.42-0.06c0.32,0.26,0.86,0.7,1.28,1.1c0.14,0.12,0.2,0.28,0.06,0.4c-0.08,0.06-0.2,0.1-0.38,0.1h-4.72
		C63.01,81.77,65.05,83.59,67.09,84.53z M65.89,70.77c-0.18,0-0.4-0.06-0.64-0.16c-2.4,0.52-6.1,1.06-9.4,1.18
		c-0.18,0-0.3-0.06-0.32-0.18c-0.02-0.1,0.08-0.2,0.28-0.22c3.04-0.42,6.68-1.26,8.76-2.04c0.16-0.06,0.28-0.02,0.4,0.08l1,0.94
		C66.13,70.53,66.11,70.77,65.89,70.77z M56.23,72.91c3.1,1.88,2.1,4.24,0.96,3.52c-0.12-0.1-0.16-0.2-0.18-0.36
		c-0.08-0.96-0.6-2.08-1.08-2.92c-0.1-0.16-0.12-0.28-0.04-0.32C55.97,72.79,56.07,72.83,56.23,72.91z M59.69,72.19
		c3.12,1.8,2.1,4.14,0.92,3.42c-0.12-0.1-0.16-0.2-0.18-0.36c-0.1-0.92-0.56-2-1.04-2.82c-0.1-0.16-0.12-0.28-0.04-0.32
		C59.43,72.07,59.53,72.11,59.69,72.19z M62.85,76.97c0.7-1.24,1.46-3.02,2-4.78c0.06-0.2,0.18-0.28,0.38-0.2l1.38,0.5
		c0.2,0.08,0.3,0.26,0.12,0.38c-0.12,0.1-0.32,0.14-0.56,0.12c-0.82,1.58-1.9,3.16-2.98,4.24c-0.14,0.12-0.24,0.14-0.34,0.08
		C62.75,77.25,62.75,77.15,62.85,76.97z"/>
	<path class="st2" d="M100.32,71.21c-0.18,0.12-0.42,0.2-0.68,0.26v13.98c0,1.02-0.18,1.66-1.84,1.9c-0.2,0.04-0.3-0.06-0.36-0.24
		c-0.06-0.3-0.18-0.54-0.4-0.68c-0.26-0.2-0.72-0.36-1.5-0.48c-0.18-0.02-0.28-0.1-0.28-0.2s0.12-0.16,0.32-0.14
		c0.6,0.06,1.92,0.16,2.26,0.16c0.38,0,0.48-0.14,0.48-0.46v-4.7h-5.14v6.22c0,0.1-0.42,0.42-1.1,0.42c-0.12,0-0.2-0.12-0.2-0.3
		v-6.34h-5c-0.32,2.4-1.18,4.78-3.18,6.62c-0.14,0.12-0.24,0.16-0.34,0.08c-0.08-0.06-0.08-0.18,0.04-0.34
		c2.14-2.92,2.42-6.58,2.42-10.3v-6.38c0-0.22,0.14-0.32,0.34-0.24l1.2,0.5h10.76l0.52-0.64c0.12-0.14,0.28-0.18,0.42-0.06
		l1.24,0.96C100.48,70.95,100.5,71.11,100.32,71.21z M91.88,75.83h-4.76v0.82c0,1.08-0.02,2.22-0.16,3.38h4.92V75.83z M87.12,75.23
		h4.76v-4.08h-4.76V75.23z M93.18,75.23h5.14v-4.08h-5.14V75.23z M98.32,75.83h-5.14v4.2h5.14V75.83z"/>
	<path class="st2" d="M119.11,72.99c0.4,2,0.06,3.54-0.42,4.22c-0.34,0.48-1.04,0.74-1.34,0.36c-0.26-0.34-0.1-0.8,0.22-1.12
		c0.52-0.62,1.06-2.06,1.12-3.44c0-0.2,0.06-0.3,0.18-0.3S119.07,72.81,119.11,72.99z M122.11,69.67c-0.1,0.1-0.28,0.2-0.58,0.24
		v17.06c0,0.18-0.52,0.48-1,0.48c-0.14,0-0.24-0.12-0.24-0.3V69.43c0-0.2,0.12-0.3,0.32-0.28l1.3,0.16
		C122.11,69.33,122.27,69.51,122.11,69.67z M122.33,72.19c2.56,1.66,1.64,3.66,0.66,3.06c-0.12-0.1-0.16-0.2-0.18-0.36
		c-0.08-0.8-0.42-1.76-0.8-2.46c-0.08-0.16-0.1-0.28-0.02-0.32C122.07,72.07,122.17,72.09,122.33,72.19z M134.61,74.85
		c0.3,0.24,0.8,0.64,1.2,1.02c0.14,0.12,0.2,0.28,0.06,0.4c-0.08,0.06-0.2,0.1-0.36,0.1h-11.94c-0.18,0-0.3-0.1-0.34-0.26
		c-0.04-0.2,0.06-0.32,0.26-0.32h5.16v-1.78h-3.68c-0.18,0-0.3-0.1-0.34-0.26c-0.04-0.2,0.06-0.32,0.26-0.32h3.76v-1.64h-4.54
		c-0.18,0-0.28-0.1-0.32-0.26c-0.06-0.22,0.06-0.34,0.26-0.34h4.6v-1.68c0-0.2,0.12-0.3,0.32-0.28l1.26,0.12
		c0.22,0.02,0.36,0.2,0.2,0.36c-0.1,0.08-0.26,0.16-0.5,0.2v1.28h3.2l0.7-0.86c0.12-0.14,0.26-0.18,0.42-0.06
		c0.3,0.22,0.82,0.64,1.22,1.02c0.12,0.12,0.2,0.28,0.06,0.4c-0.08,0.06-0.22,0.1-0.38,0.1h-5.22v1.64h2.68l0.68-0.86
		c0.12-0.14,0.26-0.18,0.42-0.04c0.28,0.22,0.76,0.62,1.14,0.98c0.14,0.12,0.2,0.28,0.06,0.4c-0.08,0.06-0.22,0.1-0.38,0.1h-4.6
		v1.78h3.56l0.7-0.88C134.31,74.77,134.45,74.73,134.61,74.85z M133.29,77.25l1.14,0.84c0.18,0.12,0.2,0.32,0,0.42
		c-0.14,0.08-0.34,0.16-0.54,0.2v6.88c0,0.96-0.18,1.56-1.58,1.78c-0.2,0.04-0.3-0.06-0.34-0.26c-0.06-0.28-0.14-0.5-0.32-0.64
		c-0.2-0.18-0.54-0.34-1.08-0.44c-0.18-0.02-0.28-0.1-0.28-0.2s0.12-0.14,0.32-0.14c0.46,0.04,1.34,0.12,1.6,0.12
		c0.3,0,0.38-0.12,0.38-0.4v-2.12h-6.3v3.66c0,0.14-0.52,0.46-1.06,0.46c-0.12,0-0.2-0.12-0.2-0.3v-9.48c0-0.22,0.16-0.32,0.36-0.22
		l1,0.48h6l0.48-0.6C132.99,77.13,133.15,77.15,133.29,77.25z M126.29,80.25h6.3v-1.8h-6.3V80.25z M132.59,80.83h-6.3v1.86h6.3
		V80.83z"/>
	<path class="st2" d="M160.45,73.89c0.28,0.24,0.78,0.66,1.18,1.04c0.14,0.12,0.2,0.28,0.06,0.4c-0.1,0.06-0.22,0.1-0.38,0.1h-8.58
		c-0.18,0-0.3-0.1-0.34-0.26c-0.04-0.2,0.06-0.32,0.26-0.32h3.54v-2.5h-2.96c-0.18,0-0.3-0.1-0.34-0.26
		c-0.04-0.2,0.06-0.32,0.26-0.32h3.04v-2.38c0-0.2,0.12-0.3,0.32-0.28l1.24,0.12c0.2,0.02,0.36,0.2,0.2,0.34
		c-0.1,0.1-0.26,0.18-0.5,0.22v1.98h1.42l0.68-0.88c0.12-0.16,0.26-0.18,0.42-0.04c0.28,0.22,0.76,0.64,1.14,1
		c0.12,0.12,0.2,0.28,0.06,0.4c-0.1,0.06-0.24,0.1-0.4,0.1h-3.32v2.5h1.86l0.72-0.92C160.15,73.79,160.29,73.75,160.45,73.89z
		 M160.39,78.05c0.28,0.24,0.76,0.66,1.16,1.02c0.14,0.12,0.2,0.28,0.06,0.4c-0.08,0.06-0.22,0.1-0.38,0.1h-3.78v2.76h1.66l0.7-0.92
		c0.12-0.16,0.26-0.18,0.42-0.04c0.28,0.24,0.78,0.66,1.16,1.04c0.12,0.12,0.2,0.28,0.06,0.38c-0.1,0.08-0.22,0.12-0.38,0.12h-3.62
		v3.96c0,0.14-0.02,0.26-0.12,0.34c-0.18,0.12-0.5,0.26-0.94,0.26c-0.12,0-0.2-0.12-0.2-0.3v-4.26h-3.18c-0.18,0-0.3-0.1-0.34-0.26
		c-0.04-0.2,0.06-0.32,0.26-0.32h3.26v-2.76h-3.46c-0.18,0-0.3-0.1-0.34-0.26c-0.04-0.2,0.06-0.32,0.26-0.32h5
		c0.28-0.92,0.62-2.14,0.84-3.12c0.04-0.18,0.18-0.26,0.36-0.2l1.26,0.4c0.2,0.06,0.32,0.26,0.12,0.38c-0.12,0.06-0.28,0.12-0.5,0.1
		c-0.4,0.7-0.98,1.64-1.6,2.44h1.14l0.7-0.9C160.09,77.95,160.23,77.91,160.39,78.05z M154.29,75.79c2.54,1.66,1.48,3.68,0.46,3
		c-0.12-0.1-0.16-0.2-0.16-0.36c-0.04-0.78-0.34-1.72-0.64-2.4c-0.08-0.18-0.08-0.3,0.02-0.34
		C154.05,75.65,154.15,75.69,154.29,75.79z M170.34,77.85c-0.12,0.04-0.28,0.06-0.5,0.08c-0.42,1.9-1.08,3.82-2.16,5.52
		c0.9,1.06,1.98,1.9,3.18,2.54c0.16,0.08,0.24,0.14,0.22,0.22c-0.02,0.08-0.1,0.1-0.28,0.14c-0.34,0.1-0.64,0.32-0.84,0.68
		c-0.1,0.18-0.24,0.22-0.4,0.1c-1-0.72-1.86-1.6-2.58-2.64c-0.8,1.04-1.78,1.98-2.98,2.76c-0.16,0.12-0.28,0.1-0.34,0.02
		c-0.08-0.08-0.04-0.2,0.12-0.34c1.08-0.92,1.98-2.04,2.68-3.28c-0.94-1.62-1.58-3.56-1.98-5.86h-1.06v9.12
		c0,0.2-0.44,0.52-1.04,0.52c-0.14,0-0.22-0.12-0.22-0.3V70.19c0-0.22,0.16-0.32,0.36-0.22l1,0.48h4.64l0.48-0.54
		c0.12-0.14,0.28-0.16,0.42-0.06l1.14,0.84c0.18,0.14,0.2,0.3,0,0.4c-0.14,0.1-0.36,0.16-0.58,0.2v2.9c0,0.92-0.2,1.54-1.82,1.76
		c-0.2,0.04-0.3-0.06-0.36-0.24c-0.06-0.26-0.16-0.48-0.36-0.62c-0.28-0.16-0.74-0.34-1.5-0.44c-0.18-0.04-0.28-0.1-0.28-0.2
		s0.12-0.16,0.32-0.14c0.6,0.04,1.9,0.14,2.28,0.14c0.36,0,0.46-0.12,0.46-0.4v-3.02h-4.94v6.18h4.98l0.6-0.58
		c0.14-0.12,0.28-0.14,0.42,0l0.94,0.82C170.5,77.59,170.54,77.79,170.34,77.85z M167,82.59c0.72-1.52,1.2-3.16,1.5-4.8h-3.6
		C165.33,79.63,166.04,81.23,167,82.59z"/>
</g>
</svg>
