<?xml version="1.0" encoding="utf-8"?>
<!-- Generator: Adobe Illustrator 25.4.1, SVG Export Plug-In . SVG Version: 6.00 Build 0)  -->
<svg version="1.1" id="レイヤー_1" xmlns="http://www.w3.org/2000/svg" xmlns:xlink="http://www.w3.org/1999/xlink" x="0px"
	 y="0px" viewBox="0 0 600 60" style="enable-background:new 0 0 600 60;" xml:space="preserve">
<style type="text/css">
	.st0{fill:#463243;stroke:#040000;stroke-width:0.5;stroke-linecap:round;stroke-linejoin:round;stroke-miterlimit:10;}
	.st1{fill:none;stroke:#040000;stroke-miterlimit:10;}
</style>
<g>
	<g>
		<path class="st0" d="M38.37,24.17v2.18c0,3.85,0,7.7,0.07,11.55l3.18,0.36c0.32,0.04,0.49,0.24,0.49,0.6v0.28
			c0,0.36-0.21,0.6-0.53,0.6h-9.15c-0.32,0-0.53-0.24-0.53-0.6v-0.28c0-0.36,0.18-0.56,0.49-0.6l2.97-0.36
			c0.07-3.81,0.04-7.66,0.07-11.43l0.04-11.95l-8.72,24.73c-0.11,0.32-0.35,0.48-0.64,0.48h-0.53c-0.28,0-0.53-0.16-0.64-0.48
			l-9.07-24.57l0.18,9.05v14.09l2.93,0.4c0.32,0.04,0.49,0.28,0.49,0.64v0.28c0,0.36-0.21,0.6-0.53,0.6H11.5
			c-0.32,0-0.53-0.24-0.53-0.6v-0.28c0-0.36,0.18-0.6,0.49-0.64l2.93-0.4l0.04-25.16l-3.07-0.4c-0.32-0.04-0.49-0.28-0.49-0.63
			v-0.24c0-0.36,0.21-0.6,0.53-0.6h5.58c0.28,0,0.53,0.16,0.64,0.48l8.83,24.13l8.51-24.13c0.11-0.32,0.35-0.48,0.64-0.48h6
			c0.32,0,0.53,0.24,0.53,0.6v0.24c0,0.36-0.18,0.56-0.49,0.6l-3.18,0.4C38.37,16.39,38.37,20.24,38.37,24.17z"/>
		<path class="st0" d="M71.81,38.86v0.28c0,0.36-0.21,0.6-0.53,0.6h-9.15c-0.32,0-0.53-0.24-0.53-0.6v-0.28
			c0-0.36,0.18-0.56,0.49-0.6l3.39-0.4l-2.33-7.9h-9.07l-2.29,7.82l3.21,0.44c0.32,0.04,0.49,0.28,0.49,0.64v0.28
			c0,0.36-0.21,0.6-0.53,0.6h-7.42c-0.32,0-0.53-0.24-0.53-0.6v-0.28c0-0.36,0.18-0.6,0.49-0.64l2.68-0.4l8.02-26.83
			c0.11-0.36,0.32-0.48,0.6-0.48h1.06c0.28,0,0.49,0.12,0.6,0.48l8.16,26.91l2.68,0.32C71.64,38.26,71.81,38.5,71.81,38.86z
			 M58.61,14.61l-4.03,13.73h8.09L58.61,14.61z"/>
		<path class="st0" d="M83.44,24.17v2.18c0,3.81,0,7.7,0.11,11.51l3.18,0.4c0.32,0.04,0.49,0.24,0.49,0.6v0.28
			c0,0.36-0.21,0.6-0.53,0.6h-9.43c-0.32,0-0.53-0.24-0.53-0.6v-0.28c0-0.36,0.18-0.56,0.49-0.6l3.18-0.4
			c0.11-3.77,0.11-7.62,0.11-11.51v-2.18c0-3.85,0-7.74-0.11-11.55l-3.18-0.4c-0.32-0.04-0.49-0.24-0.49-0.6v-0.24
			c0-0.36,0.21-0.6,0.53-0.6h9.43c0.32,0,0.53,0.24,0.53,0.6v0.24c0,0.36-0.18,0.56-0.49,0.6l-3.18,0.4
			C83.44,16.39,83.44,20.24,83.44,24.17z"/>
		<path class="st0" d="M111.9,32.43l-0.25,6.71c0,0.36-0.25,0.6-0.56,0.6H93.33c-0.32,0-0.53-0.24-0.53-0.6v-0.28
			c0-0.36,0.18-0.56,0.49-0.6l3.18-0.4c0.11-3.81,0.11-7.66,0.11-11.47v-2.22c0-3.93,0-7.78-0.11-11.55l-3.18-0.4
			c-0.32-0.04-0.49-0.24-0.49-0.6v-0.24c0-0.36,0.21-0.6,0.53-0.6h9.43c0.32,0,0.53,0.24,0.53,0.6v0.24c0,0.36-0.18,0.56-0.49,0.6
			l-3.18,0.4c-0.11,3.81-0.11,7.7-0.11,11.75v2.78c0,3.21,0,7.02,0.11,10.79h9.32l1.02-5.6c0.07-0.36,0.28-0.52,0.6-0.52h0.85
			C111.76,31.83,111.9,32.07,111.9,32.43z"/>
	</g>
	<g>
		<path class="st0" d="M156.47,28.39c0-7.65,5.12-11.47,10.33-11.47c5.08,0,10.29,3.82,10.29,11.47c0,7.6-5.12,11.3-10.29,11.3
			C161.6,39.69,156.47,35.99,156.47,28.39z M173.57,28.39c0-6.26-2.56-9.79-6.76-9.79c-4.24,0-6.76,3.53-6.76,9.79
			c0,6.3,2.52,9.62,6.76,9.62C171,38.01,173.57,34.69,173.57,28.39z"/>
		<path class="st0" d="M190.93,7.51c1.85-2.06,4.12-2.73,6.09-2.73c1.85,0,3.4,0.59,4.03,1.85c0.13,0.29,0.13,0.5,0.04,0.76
			c-0.25,0.84-1.05,1.39-2.27,1.39c-1.09,0-2.06-0.46-3.15-1.3l-1.22-0.97c-0.76,0.38-1.47,1.01-1.97,1.85
			c-1.13,1.68-1.81,4.24-1.68,9.16h5.97c0.38,0,0.63,0.25,0.63,0.63v0.67c0,0.38-0.25,0.63-0.63,0.63h-5.88v10.08
			c0,2.56,0.04,5.12,0.08,7.69l3.7,0.46c0.38,0.04,0.59,0.29,0.59,0.67v0.13c0,0.38-0.25,0.63-0.63,0.63h-10.29
			c-0.38,0-0.63-0.25-0.63-0.63v-0.13c0-0.38,0.21-0.63,0.59-0.67l3.32-0.46c0.04-2.56,0.08-5.12,0.08-7.69V19.44h-3.4
			c-0.38,0-0.63-0.25-0.63-0.63v-0.34c0-0.38,0.21-0.63,0.59-0.67l3.49-0.42C188.03,12.47,188.92,9.61,190.93,7.51z"/>
		<path class="st0" d="M209.54,7.51c1.85-2.06,4.12-2.73,6.09-2.73c1.85,0,3.4,0.59,4.03,1.85c0.13,0.29,0.13,0.5,0.04,0.76
			c-0.25,0.84-1.05,1.39-2.27,1.39c-1.09,0-2.06-0.46-3.15-1.3l-1.22-0.97c-0.76,0.38-1.47,1.01-1.97,1.85
			c-1.13,1.68-1.81,4.24-1.68,9.16h5.97c0.38,0,0.63,0.25,0.63,0.63v0.67c0,0.38-0.25,0.63-0.63,0.63h-5.88v10.08
			c0,2.56,0.04,5.12,0.08,7.69l3.7,0.46c0.38,0.04,0.59,0.29,0.59,0.67v0.13c0,0.38-0.25,0.63-0.63,0.63h-10.29
			c-0.38,0-0.63-0.25-0.63-0.63v-0.13c0-0.38,0.21-0.63,0.59-0.67l3.32-0.46c0.04-2.56,0.08-5.12,0.08-7.69V19.44h-3.4
			c-0.38,0-0.63-0.25-0.63-0.63v-0.34c0-0.38,0.21-0.63,0.59-0.67l3.49-0.42C206.64,12.47,207.52,9.61,209.54,7.51z"/>
		<path class="st0" d="M232.97,38.34v0.13c0,0.38-0.25,0.63-0.63,0.63h-8.99c-0.38,0-0.63-0.25-0.63-0.63v-0.13
			c0-0.38,0.21-0.63,0.59-0.67l3.02-0.46c0.04-2.31,0.08-5.55,0.08-7.69v-2.35c0-2.6,0-4.28-0.08-6.39l-3.28-0.21
			c-0.38-0.04-0.59-0.29-0.59-0.67v-0.21c0-0.34,0.17-0.59,0.5-0.71l5.63-1.85c0.29-0.08,0.59-0.13,0.8,0.04s0.29,0.38,0.29,0.71
			l-0.13,5.46v6.18c0,2.14,0.04,5.38,0.08,7.69l2.73,0.46C232.81,37.76,232.97,37.97,232.97,38.34z M225.25,8.69
			c0-1.55,1.18-2.56,2.65-2.56c1.51,0,2.69,1.01,2.69,2.56c0,1.51-1.18,2.56-2.69,2.56C226.42,11.25,225.25,10.2,225.25,8.69z"/>
		<path class="st0" d="M257.75,34.9c-1.51,2.98-4.2,4.79-8.07,4.79c-6.13,0-10.17-4.41-10.17-11.38c0-7.14,5-11.38,10.46-11.38
			c3.7,0,6.85,2.1,7.77,5.21c0.13,0.25,0.13,0.5,0.04,0.76c-0.25,0.8-0.88,1.18-1.76,1.18c-1.26,0-1.85-0.76-2.14-1.81l-0.92-3.15
			c-1.01-0.34-1.97-0.5-2.86-0.5c-4.24,0-7.27,3.49-7.27,9.41c0,5.88,3.19,9.33,7.73,9.33c2.44,0,4.7-1.05,6.22-2.98
			c0.25-0.29,0.5-0.38,0.8-0.25C257.84,34.23,257.92,34.52,257.75,34.9z"/>
		<path class="st0" d="M275.64,38.34v0.13c0,0.38-0.25,0.63-0.63,0.63h-8.99c-0.38,0-0.63-0.25-0.63-0.63v-0.13
			c0-0.38,0.21-0.63,0.59-0.67l3.02-0.46c0.04-2.31,0.08-5.55,0.08-7.69v-2.35c0-2.6,0-4.28-0.08-6.39l-3.28-0.21
			c-0.38-0.04-0.59-0.29-0.59-0.67v-0.21c0-0.34,0.17-0.59,0.5-0.71l5.63-1.85c0.29-0.08,0.59-0.13,0.8,0.04s0.29,0.38,0.29,0.71
			l-0.13,5.46v6.18c0,2.14,0.04,5.38,0.08,7.69l2.73,0.46C275.47,37.76,275.64,37.97,275.64,38.34z M267.91,8.69
			c0-1.55,1.18-2.56,2.65-2.56c1.51,0,2.69,1.01,2.69,2.56c0,1.51-1.18,2.56-2.69,2.56C269.08,11.25,267.91,10.2,267.91,8.69z"/>
		<path class="st0" d="M303.21,37.97c-0.92,1.18-2.02,1.64-3.32,1.64c-2.14,0-3.49-1.43-3.86-3.74c-2.56,2.6-4.24,3.82-6.97,3.82
			c-3.36,0-6.05-1.93-6.05-5.54c0-2.81,1.64-4.87,7.35-6.93c1.64-0.5,3.65-1.09,5.59-1.51v-1.34c0-4.62-1.39-5.75-4.58-5.75
			c-0.88,0-1.85,0.08-2.94,0.46l-0.92,3.11c-0.34,1.22-0.97,1.85-2.06,1.85c-0.92,0-1.55-0.42-1.76-1.22
			c-0.08-0.25-0.04-0.46,0.04-0.76c1.01-3.23,4.2-5.12,8.49-5.12c4.66,0,6.93,2.1,6.93,7.56v9.96c0,2.44,0.67,3.19,1.81,3.19
			c0.55,0,0.97-0.17,1.43-0.55c0.29-0.29,0.59-0.29,0.84,0C303.42,37.38,303.46,37.67,303.21,37.97z M291.24,28.56
			c-4.07,1.55-4.83,3.32-4.83,5c0,2.52,1.6,3.65,3.86,3.65c1.76,0,2.98-0.76,5.67-2.9v-7.27C294.22,27.51,292.37,28.09,291.24,28.56
			z"/>
		<path class="st0" d="M318.62,38.34v0.13c0,0.38-0.25,0.63-0.63,0.63h-9.79c-0.38,0-0.63-0.25-0.63-0.63v-0.13
			c0-0.38,0.21-0.63,0.59-0.67l3.32-0.46c0.04-2.48,0.08-5.21,0.08-7.69V8.6l-3.23-0.29c-0.38-0.04-0.59-0.25-0.59-0.63V7.51
			c0-0.38,0.21-0.59,0.55-0.67l5.5-1.51c0.29-0.08,0.59-0.08,0.8,0.04c0.21,0.17,0.29,0.38,0.29,0.71l-0.13,5.97v17.48
			c0,2.48,0.04,5.21,0.08,7.69l3.19,0.46C318.41,37.71,318.62,37.97,318.62,38.34z"/>
		<path class="st0" d="M343.07,31.7c2.35,0,5.17-2.56,5.17-8.15c0-5.5-3.85-8.94-9-8.94c-7.23,0-12.35,6.15-12.35,12.97
			c0,7.12,4.85,10.7,10.47,10.7c1.94,0,3.41-0.29,4.82-0.91c0.26-0.12,0.47-0.03,0.56,0.21c0.09,0.21,0.03,0.41-0.24,0.53
			c-1.76,0.82-3.82,1.15-5.67,1.15c-6.38,0-11.44-3.85-11.44-11.41c0-7.91,6.03-14.23,14-14.23c6.41,0,10.26,4.2,10.26,10.2
			c0,6.23-4.17,9.06-7.06,9.06c-1.79,0-2.85-1.06-3.09-2.62c-1.32,1.53-2.74,2.62-4.35,2.62c-1.79,0-3.41-1.23-3.41-4.15
			c0-2.62,1.15-5.03,2.56-6.7c1.44-1.79,3.12-2.71,4.76-2.71c0.79,0,1.5,0.24,2.18,0.88l1.09-0.65c0.24-0.15,0.41-0.18,0.59-0.03
			c0.15,0.15,0.24,0.29,0.18,0.56l-1.79,9C340.96,30.75,341.6,31.7,343.07,31.7z M338.87,20.55c-1.03,0-2.29,0.5-3.35,1.97
			c-1.03,1.41-1.91,3.32-1.91,5.59c0,2.12,0.82,3.21,2.35,3.21c0.94,0,1.88-0.41,3.47-1.82l1.5-7.79
			C340.34,20.87,339.63,20.55,338.87,20.55z"/>
		<path class="st0" d="M355.63,28.39c0-7.65,5.12-11.47,10.33-11.47c5.08,0,10.29,3.82,10.29,11.47c0,7.6-5.12,11.3-10.29,11.3
			C360.76,39.69,355.63,35.99,355.63,28.39z M372.73,28.39c0-6.26-2.56-9.79-6.76-9.79c-4.24,0-6.76,3.53-6.76,9.79
			c0,6.3,2.52,9.62,6.76,9.62C370.17,38.01,372.73,34.69,372.73,28.39z"/>
		<path class="st0" d="M393.58,38.34v0.13c0,0.38-0.25,0.63-0.63,0.63h-9.79c-0.38,0-0.63-0.25-0.63-0.63v-0.13
			c0-0.38,0.21-0.63,0.59-0.67l3.32-0.46c0.04-2.48,0.08-5.21,0.08-7.69V8.6l-3.23-0.29c-0.38-0.04-0.59-0.25-0.59-0.63V7.51
			c0-0.38,0.21-0.59,0.55-0.67l5.5-1.51c0.29-0.08,0.59-0.08,0.8,0.04c0.21,0.17,0.29,0.38,0.29,0.71l-0.13,5.97v17.48
			c0,2.48,0.04,5.21,0.08,7.69l3.19,0.46C393.38,37.71,393.58,37.97,393.58,38.34z"/>
		<path class="st0" d="M420.26,19.1l-2.1,0.38l-7.31,19.41c-0.13,0.38-0.38,0.5-0.71,0.5h-0.5c-0.34,0-0.63-0.17-0.76-0.5
			l-7.98-19.53l-2.18-0.29c-0.38-0.04-0.59-0.29-0.59-0.67v-0.25c0-0.38,0.25-0.63,0.63-0.63H408c0.38,0,0.63,0.25,0.63,0.63v0.25
			c0,0.38-0.21,0.63-0.59,0.67l-3.45,0.38l6.01,15.88l5.54-15.79l-3.24-0.46c-0.38-0.04-0.59-0.29-0.59-0.67v-0.25
			c0-0.38,0.25-0.63,0.63-0.63h7.23c0.38,0,0.63,0.25,0.63,0.63v0.25C420.81,18.77,420.64,19.02,420.26,19.1z"/>
		<path class="st0" d="M438.2,38.34v0.13c0,0.38-0.25,0.63-0.63,0.63h-8.99c-0.38,0-0.63-0.25-0.63-0.63v-0.13
			c0-0.38,0.21-0.63,0.59-0.67l3.02-0.46c0.04-2.31,0.08-5.55,0.08-7.69v-2.35c0-2.6,0-4.28-0.08-6.39l-3.28-0.21
			c-0.38-0.04-0.59-0.29-0.59-0.67v-0.21c0-0.34,0.17-0.59,0.5-0.71l5.63-1.85c0.29-0.08,0.59-0.13,0.8,0.04s0.29,0.38,0.29,0.71
			l-0.13,5.46v6.18c0,2.14,0.04,5.38,0.08,7.69l2.73,0.46C438.03,37.76,438.2,37.97,438.2,38.34z M430.47,8.69
			c0-1.55,1.18-2.56,2.65-2.56c1.51,0,2.69,1.01,2.69,2.56c0,1.51-1.18,2.56-2.69,2.56C431.65,11.25,430.47,10.2,430.47,8.69z"/>
		<path class="st0" d="M455.96,37.34c2.73,0,4.62-1.09,6.17-2.81c0.29-0.29,0.59-0.34,0.88-0.13c0.29,0.25,0.34,0.5,0.13,0.84
			c-1.76,2.73-4.54,4.45-8.23,4.45c-5.88,0-10.12-4.07-10.12-11.26c0-7.02,4.75-11.51,10.29-11.51c4.87,0,8.4,3.32,8.4,8.57
			c0,0.8-0.04,1.51-0.17,2.06c-0.04,0.38-0.29,0.55-0.67,0.55l-14.45-0.04C448.23,34.27,451.51,37.34,455.96,37.34z M460.33,24.19
			c0-2.94-2.23-5.59-5.46-5.59c-3.07,0-6.13,2.52-6.64,7.86h9.83C459.91,26.46,460.33,25.53,460.33,24.19z"/>
		<path class="st0" d="M472.68,36.87c0-1.55,1.18-2.86,2.77-2.86c1.6,0,2.77,1.3,2.77,2.86c0,1.51-1.18,2.77-2.77,2.77
			C473.85,39.65,472.68,38.39,472.68,36.87z"/>
		<path class="st0" d="M492.39,17.17c0.21,0.17,0.29,0.38,0.29,0.71l-0.13,5.46v10.8c0,8.07-0.34,11.3-2.56,13.82
			c-1.51,1.68-3.07,2.6-5.5,2.6c-2.27,0-3.4-0.88-3.74-1.81c-0.08-0.25-0.04-0.5,0.08-0.76c0.42-0.84,1.22-1.26,2.27-1.26
			c1.05,0,1.97,0.34,3.11,1.18l1.05,0.71c0.42-0.29,0.8-0.76,1.09-1.43c0.92-1.89,1.13-5.8,1.13-12.52v-7.48
			c0-2.69-0.04-4.45-0.13-6.43l-3.15-0.21c-0.38-0.04-0.59-0.29-0.59-0.67v-0.21c0-0.34,0.17-0.59,0.5-0.71l5.5-1.85
			C491.92,17.05,492.18,17.05,492.39,17.17z M493.65,8.69c0,1.51-1.18,2.56-2.65,2.56c-1.51,0-2.69-1.05-2.69-2.56
			c0-1.55,1.18-2.56,2.69-2.56C492.47,6.12,493.65,7.13,493.65,8.69z"/>
		<path class="st0" d="M515.41,16.92c4.92,0,8.65,4.33,8.65,11.22c0,7.1-3.91,11.55-9.28,11.55c-2.1,0-4.37-0.67-6.43-3.15v3.91
			c0,2.44,0.04,5.21,0.13,7.77l3.74,0.46c0.38,0.04,0.59,0.29,0.59,0.67v0.13c0,0.38-0.25,0.63-0.63,0.63h-10.12
			c-0.38,0-0.63-0.25-0.63-0.63v-0.13c0-0.38,0.21-0.63,0.59-0.67l3.23-0.46c0.04-2.52,0.08-5.21,0.08-7.69V27.25
			c0-2.69-0.04-4.45-0.17-6.43l-3.19-0.25c-0.38-0.04-0.59-0.25-0.59-0.63v-0.21c0-0.34,0.17-0.59,0.5-0.71l5.12-1.89
			c0.29-0.13,0.55-0.13,0.76,0.04c0.21,0.13,0.29,0.38,0.34,0.67l0.21,2.56C510.5,17.97,512.93,16.92,515.41,16.92z M514.07,37.55
			c3.61,0,6.64-2.69,6.64-9.07c0-6.17-2.6-9.45-6.26-9.45c-1.51,0-3.4,0.46-5.92,2.73v13.27C510.37,36.87,512.18,37.55,514.07,37.55
			z"/>
	</g>
	<line class="st1" x1="8.83" y1="55.22" x2="590.83" y2="55.22"/>
</g>
</svg>
