<?xml version="1.0" encoding="utf-8"?>
<!-- Generator: Adobe Illustrator 25.4.1, SVG Export Plug-In . SVG Version: 6.00 Build 0)  -->
<svg version="1.1" id="レイヤー_1" xmlns="http://www.w3.org/2000/svg" xmlns:xlink="http://www.w3.org/1999/xlink" x="0px"
	 y="0px" viewBox="0 0 170 60" style="enable-background:new 0 0 170 60;" xml:space="preserve">
<style type="text/css">
	.st0{fill:#463243;}
	.st1{fill:#463243;stroke:#463243;stroke-width:2;stroke-linecap:round;stroke-linejoin:round;stroke-miterlimit:10;}
</style>
<g>
	<path class="st0" d="M15.23,19.75c-0.13-0.89,0.5-0.97,0.76-0.24c1.1,3.12,5.8,3.67,12.2,2.18c2.07-0.5,3.39,1.29,1.5,1.76
		C23.65,25.02,15.99,24.16,15.23,19.75z M19.16,7.17c3.1,0.5,4.41,0.24,7.03-0.58c1.18-0.32,1.76,0.76,0.66,1.42
		c-0.89,0.55-1.71,1.1-2.86,1.97c-0.53,0.39-0.79-0.13-0.37-0.45c0.16-0.13,0.37-0.37,0.47-0.47c0.08-0.05,0.08-0.13-0.11-0.16
		C22,8.8,20.66,8.62,18.95,8.04C18.14,7.75,18.19,7.04,19.16,7.17z M29.11,4.92c1.34,0.55,2.15,1.13,2.86,2.39
		c0.79,1.52-0.95,2.18-1.65,0.71c-0.37-0.87-1.02-1.79-1.63-2.34C28.14,5.18,28.43,4.66,29.11,4.92z M31.71,4.47
		c1.02,0.31,2.15,0.92,2.81,1.97c0.71,1.21-0.81,2.18-1.58,0.74c-0.37-0.74-0.94-1.44-1.6-1.92C30.79,4.84,31,4.26,31.71,4.47z"/>
	<path class="st0" d="M63.62,14.44c-0.16,0.05-0.37,0.08-0.66,0.08c-1.37,1.63-3.96,3.81-6.01,5.2c-0.21,0.13-0.34,0.13-0.42,0.08
		c-0.08-0.05-0.05-0.21,0.13-0.42c1.31-1.42,2.96-3.57,3.96-5.2H52.7v10.68c0,1.31-0.37,2.26-2.83,2.57
		c-0.26,0.05-0.39-0.08-0.47-0.31c-0.1-0.39-0.31-0.68-0.63-0.89c-0.45-0.29-1.23-0.5-2.57-0.68c-0.24-0.03-0.37-0.13-0.37-0.26
		c0-0.11,0.16-0.18,0.42-0.16c0.97,0.08,3.41,0.24,3.96,0.24c0.55,0,0.74-0.18,0.74-0.58v-10.6H40.32c-0.24,0-0.37-0.13-0.42-0.34
		c-0.08-0.29,0.08-0.45,0.34-0.45h13.15c-0.81-1.29-3.02-3.31-6.17-4.78c-0.21-0.11-0.31-0.21-0.26-0.37
		c0.05-0.16,0.21-0.18,0.45-0.13c2.02,0.42,3.54,0.97,4.65,1.55c1.65-0.97,3.8-2.39,5.22-3.57H43.33c-0.21,0-0.37-0.08-0.45-0.31
		c-0.08-0.29,0.08-0.45,0.34-0.45H57.8l1-0.89c0.18-0.18,0.37-0.16,0.55,0l1.44,1.36c0.21,0.18,0.18,0.47-0.11,0.53
		c-0.18,0.05-0.42,0.08-0.73,0.08c-1.73,1.18-4.93,2.62-7.38,3.57c2.28,1.39,2.47,2.91,1.86,3.41h6.33l0.92-0.89
		c0.18-0.16,0.39-0.16,0.58,0l1.44,1.42C63.91,14.1,63.91,14.37,63.62,14.44z"/>
	<path class="st0" d="M71.39,24.63c0.71-1.73,1.42-4.15,1.79-6.46c0.03-0.26,0.21-0.39,0.45-0.31l1.52,0.39
		c0.26,0.08,0.42,0.34,0.18,0.5c-0.16,0.13-0.37,0.18-0.68,0.21c-0.63,2.15-1.6,4.38-2.75,5.93c-0.16,0.21-0.29,0.26-0.42,0.18
		C71.33,24.99,71.31,24.86,71.39,24.63z M78.92,12.08c4.46,2.47,3.41,5.54,1.92,4.75c-0.18-0.11-0.24-0.24-0.29-0.42
		c-0.13-0.55-0.37-1.13-0.63-1.73c-0.68,0.16-1.42,0.32-2.2,0.47v11.71c0,0.16-0.58,0.58-1.39,0.58c-0.16,0-0.26-0.16-0.26-0.39
		V15.49c-1.02,0.21-2.15,0.42-3.36,0.63c-0.08,0.16-0.18,0.29-0.32,0.39c-0.21,0.13-0.39-0.03-0.47-0.26l-0.32-1.13
		c-0.08-0.29,0.05-0.45,0.32-0.45l2.36-0.13c1.55-2.31,3.28-5.38,4.36-7.77c0.1-0.21,0.29-0.29,0.52-0.21l1.65,0.66
		c0.26,0.1,0.37,0.37,0.11,0.52c-0.16,0.08-0.39,0.13-0.68,0.11c-1.21,1.94-3.2,4.57-5.12,6.64l4.51-0.37
		c-0.34-0.6-0.71-1.21-1.08-1.71c-0.16-0.21-0.18-0.34-0.08-0.42C78.6,11.92,78.71,11.98,78.92,12.08z M78.16,4.68
		c-0.16,0.08-0.37,0.1-0.63,0.1c-0.89,1.39-1.92,2.89-2.94,3.99c1.97,1.47,1.26,3.2,0.13,2.73c-0.18-0.08-0.26-0.21-0.31-0.39
		c-0.42-1.02-1.42-2.2-2.36-3.04c-0.18-0.16-0.26-0.32-0.18-0.39c0.08-0.08,0.21-0.08,0.42-0.03c0.71,0.24,1.26,0.47,1.73,0.76
		c0.63-1.29,1.29-2.99,1.81-4.62c0.08-0.26,0.26-0.37,0.5-0.26l1.71,0.66C78.29,4.29,78.39,4.55,78.16,4.68z M79.31,17.88
		c4.07,2.91,2.83,6.06,1.37,5.12c-0.16-0.11-0.21-0.24-0.24-0.45c-0.18-1.37-0.89-3.1-1.55-4.36c-0.13-0.26-0.13-0.42-0.03-0.45
		C79,17.7,79.13,17.75,79.31,17.88z M95.01,9.82c-0.18,0.08-0.42,0.13-0.74,0.16c-0.21,8.27-0.79,14.59-2.1,16.14
		c-0.71,0.79-1.63,1.18-2.83,1.26c-0.26,0-0.39-0.13-0.42-0.39c-0.05-0.37-0.18-0.71-0.5-0.92c-0.42-0.32-1.63-0.58-2.76-0.79
		c-0.24-0.05-0.34-0.16-0.34-0.32c0-0.13,0.16-0.21,0.42-0.18c1.39,0.16,3.36,0.34,3.96,0.34s0.81-0.1,1.13-0.39
		c1.02-0.97,1.52-7.3,1.76-14.99h-7.98c-0.76,1.5-1.63,2.83-2.57,3.94c-0.16,0.18-0.29,0.24-0.42,0.13
		c-0.13-0.08-0.13-0.24-0.03-0.47c1.29-2.39,2.49-5.91,3.2-9.4c0.05-0.26,0.24-0.39,0.47-0.31l1.81,0.55
		c0.26,0.08,0.42,0.34,0.16,0.5c-0.16,0.1-0.37,0.16-0.63,0.16c-0.47,1.44-1.02,2.86-1.63,4.17h7.32l0.76-0.87
		c0.16-0.18,0.37-0.21,0.55-0.05l1.42,1.18C95.24,9.46,95.27,9.69,95.01,9.82z M85.11,13.47c5.35,2.83,4.07,6.75,2.39,5.72
		c-0.18-0.11-0.24-0.24-0.26-0.45c-0.24-1.63-1.34-3.6-2.41-4.93c-0.18-0.21-0.24-0.37-0.13-0.42
		C84.77,13.34,84.9,13.37,85.11,13.47z"/>
	<path class="st0" d="M124.89,7.02c0.45,0.34,1.23,0.97,1.84,1.52c0.18,0.16,0.26,0.37,0.08,0.53c-0.11,0.08-0.29,0.1-0.5,0.1
		h-12.68c-0.13,1.71-0.29,3.31-0.55,4.83h7.61l0.79-0.81c0.16-0.18,0.37-0.18,0.55-0.03l1.36,1.16c0.21,0.18,0.24,0.42-0.03,0.55
		c-0.18,0.05-0.42,0.11-0.71,0.16c-0.29,5.51-1,10.16-2.28,11.34c-0.66,0.63-1.63,1-2.73,1.05c-0.26,0-0.39-0.13-0.42-0.39
		c-0.05-0.37-0.21-0.68-0.55-0.87c-0.42-0.29-1.68-0.58-2.81-0.79c-0.24-0.03-0.37-0.16-0.37-0.29c0-0.13,0.16-0.18,0.42-0.18
		c1.44,0.16,3.57,0.34,4.17,0.34c0.55,0,0.79-0.05,1.1-0.34c0.89-0.73,1.47-5.06,1.73-10.1h-8c-1.08,5.46-3.49,9.61-9.21,12.54
		c-0.24,0.1-0.37,0.13-0.45,0c-0.08-0.11-0.03-0.26,0.21-0.42c6.14-4.33,7.77-10.1,8.08-17.74h-8.03c-0.21,0-0.39-0.1-0.45-0.34
		s0.08-0.39,0.34-0.39h10.6V3.79c0-0.26,0.16-0.39,0.42-0.37l1.81,0.18c0.26,0.03,0.47,0.26,0.26,0.47
		c-0.13,0.13-0.37,0.24-0.74,0.29v4.07h7.48l1.08-1.34C124.5,6.91,124.68,6.86,124.89,7.02z"/>
	<path class="st0" d="M134.95,9.75c4.99,0.71,4.36,4.02,2.68,3.49c-0.18-0.05-0.29-0.18-0.37-0.37c-0.47-1-1.52-2.02-2.52-2.68
		c-0.21-0.16-0.31-0.29-0.24-0.37C134.58,9.72,134.71,9.69,134.95,9.75z M142.43,8.41c-1.23,3.41-3.39,9.24-3.73,10.45
		c-0.24,0.87-0.45,1.65-0.42,2.31c0.03,1.16,0.73,2.36,0.66,4.49c-0.03,1.1-0.55,1.78-1.44,1.78c-0.45,0-0.73-0.37-0.81-1.05
		c-0.03-0.18-0.03-0.29,0-0.47c0.32-2.57,0.13-4.46-0.39-4.86c-0.26-0.21-0.55-0.29-0.94-0.32c-0.24-0.05-0.37-0.16-0.37-0.34
		s0.16-0.29,0.39-0.29h0.79c0.31,0,0.42-0.03,0.63-0.52c0.5-0.95,0.5-0.95,5.12-11.34c0.11-0.26,0.24-0.34,0.42-0.32
		C142.48,7.96,142.51,8.15,142.43,8.41z M137,3.84c5.17,0.89,4.46,4.36,2.7,3.78c-0.18-0.05-0.29-0.18-0.37-0.37
		c-0.45-1.05-1.55-2.23-2.57-2.99c-0.21-0.16-0.29-0.29-0.21-0.37C136.63,3.82,136.79,3.79,137,3.84z M145.24,24.26
		c2.76-0.16,6.19-0.42,9.84-0.71c-1-1.5-2.21-2.99-3.23-4.2c-0.18-0.21-0.21-0.37-0.1-0.42c0.1-0.08,0.26-0.05,0.45,0.08
		c7.66,4.62,6.85,9.16,4.83,8.03c-0.16-0.08-0.24-0.21-0.29-0.39c-0.32-0.79-0.76-1.65-1.31-2.55c-3.12,0.63-7.24,1.39-12.89,2.31
		c-0.08,0.18-0.18,0.32-0.34,0.39c-0.21,0.16-0.39,0.03-0.5-0.18l-0.73-1.68c-0.11-0.26,0-0.45,0.29-0.47
		c0.84-0.03,1.92-0.08,3.17-0.16c1.21-2.23,2.55-5.62,3.31-8.19h-6.06c-0.24,0-0.39-0.13-0.45-0.34c-0.05-0.26,0.08-0.42,0.34-0.42
		h6.96v-5.3h-5.46c-0.24,0-0.37-0.13-0.42-0.34c-0.08-0.29,0.08-0.45,0.34-0.45h5.54v-5.2c0-0.26,0.16-0.39,0.42-0.37l1.84,0.18
		c0.29,0.03,0.45,0.26,0.26,0.47c-0.16,0.16-0.39,0.26-0.76,0.34v4.57h4.04l1-1.23c0.16-0.18,0.34-0.24,0.55-0.05
		c0.39,0.32,1.1,0.92,1.71,1.42c0.18,0.16,0.26,0.37,0.05,0.53c-0.13,0.08-0.29,0.13-0.5,0.13h-6.85v5.3h4.99l1-1.29
		c0.16-0.18,0.34-0.24,0.55-0.05c0.42,0.32,1.13,0.92,1.71,1.44c0.18,0.16,0.26,0.37,0.08,0.53c-0.13,0.08-0.29,0.13-0.5,0.13h-8.03
		C148.81,18.93,146.97,22.13,145.24,24.26z"/>
</g>
<line class="st1" x1="5.5" y1="56.58" x2="164.5" y2="56.58"/>
</svg>
