<?xml version="1.0" encoding="utf-8"?>
<!-- Generator: Adobe Illustrator 25.4.1, SVG Export Plug-In . SVG Version: 6.00 Build 0)  -->
<svg version="1.1" id="レイヤー_1" xmlns="http://www.w3.org/2000/svg" xmlns:xlink="http://www.w3.org/1999/xlink" x="0px"
	 y="0px" viewBox="0 0 470 84" style="enable-background:new 0 0 470 84;" xml:space="preserve">
<style type="text/css">
	.st0{fill:#463243;}
	.st1{fill:#463243;stroke:#463243;stroke-width:2;stroke-linecap:round;stroke-linejoin:round;stroke-miterlimit:10;}
</style>
<g>
	<g>
		<path class="st0" d="M4.34,17.21c1.32,3.75,3.51,5.64,6.41,5.64c2.8,0,4.52-1.65,4.52-4.08c0-1.15-0.41-2.13-1.15-2.9
			c-1.25-1.28-2.83-1.79-4.42-2.53c-3.58-1.69-5.33-3.04-5.33-5.84c0-3.44,2.7-5.67,7.39-5.67c1.65,0,3.21,0.27,4.66,0.78l0.03,4.73
			l-0.57,0.07c-1.01-3.24-2.36-4.66-4.79-4.66c-2.56,0-4.25,1.49-4.25,3.48c0,2.09,1.69,3.38,4.93,4.86
			c1.55,0.71,3.17,1.25,4.52,2.53c1.05,0.98,1.59,2.3,1.59,3.85c0,3.71-3.04,6.31-7.93,6.31c-1.89,0-3.75-0.3-5.57-0.95l-0.74-5.54
			L4.34,17.21z"/>
		<path class="st0" d="M25.05,22.72c2.97-0.1,3.14-0.91,3.14-3.58V6.41c0-2.67-0.17-3.44-3.14-3.54V1.99h16.44l0.74,4.02l-0.74,0.07
			c-1.32-2.16-2.77-3.14-4.83-3.14h-2.94c-2.46,0-2.57,0.47-2.57,2.19v5.37c0,0.91,0.34,1.21,1.18,1.21h2.8
			c1.92,0,2.73-0.88,3.04-3.04h0.84V16h-0.84c-0.2-2.33-1.05-3.27-3.04-3.27h-2.8c-0.84,0-1.18,0.3-1.18,1.21v6.48
			c0,1.72,0.1,2.19,2.57,2.19h4.12c2.94,0,4.19-0.91,5.81-4.22l0.71,0.07l-1.08,5.1H25.05V22.72z"/>
		<path class="st0" d="M50.87,22.72c2.06-0.2,3.04-1.52,4.05-4.08l4.62-11.64c0.27-0.71,0.47-1.42,0.57-2.16l2.03-2.97l0.64,0.24
			l6.75,17.45c0.81,2.06,1.69,3.04,3.48,3.17v0.84h-8.4v-0.84c1.55-0.2,2.23-0.61,2.23-1.55c0-0.4-0.07-0.88-0.27-1.38l-1.79-4.59
			h-7.43l-1.45,3.85c-0.34,0.91-0.51,1.59-0.51,1.92c0,0.88,0.74,1.45,2.19,1.75v0.84h-6.72V22.72z M64.47,14.18l-3.34-8.71
			l-3.41,8.71H64.47z"/>
		<path class="st0" d="M80.76,17.21c1.32,3.75,3.51,5.64,6.41,5.64c2.8,0,4.52-1.65,4.52-4.08c0-1.15-0.41-2.13-1.15-2.9
			c-1.25-1.28-2.83-1.79-4.42-2.53c-3.58-1.69-5.33-3.04-5.33-5.84c0-3.44,2.7-5.67,7.39-5.67c1.65,0,3.21,0.27,4.66,0.78l0.03,4.73
			l-0.57,0.07c-1.01-3.24-2.36-4.66-4.79-4.66c-2.56,0-4.25,1.49-4.25,3.48c0,2.09,1.69,3.38,4.93,4.86
			c1.55,0.71,3.17,1.25,4.52,2.53c1.05,0.98,1.59,2.3,1.59,3.85c0,3.71-3.04,6.31-7.93,6.31c-1.89,0-3.75-0.3-5.57-0.95l-0.74-5.54
			L80.76,17.21z"/>
		<path class="st0" d="M105.84,21.13c-2.36-1.92-3.61-4.76-3.61-8.34c0-3.58,1.28-6.48,3.65-8.4c2.06-1.69,4.59-2.57,7.53-2.57
			s5.47,0.88,7.53,2.57c2.36,1.92,3.65,4.83,3.65,8.4c0,3.58-1.25,6.41-3.61,8.34c-2.13,1.72-4.62,2.6-7.56,2.6
			S107.96,22.85,105.84,21.13z M121.23,12.79c0-6.45-3.04-10.09-7.83-10.09s-7.8,3.64-7.8,10.09c0,6.41,3,10.06,7.8,10.06
			S121.23,19.21,121.23,12.79z"/>
		<path class="st0" d="M151.98,18.7V6.41c0-2.67-0.13-3.44-3.11-3.54V1.99h7.33v0.88c-3,0.07-3.17,0.88-3.17,3.54v17.15h-0.74
			L135.61,5.4v13.74c0,2.67,0.17,3.48,3.14,3.58v0.84h-6.89v-0.84c2.63-0.2,2.73-1.05,2.73-3.58V6.41c0-2.77-0.17-3.51-3.41-3.54
			V1.99h5.4L151.98,18.7z"/>
		<path class="st0" d="M161.35,22.72c2.06-0.2,3.04-1.52,4.05-4.08l4.62-11.64c0.27-0.71,0.47-1.42,0.57-2.16l2.03-2.97l0.64,0.24
			l6.75,17.45c0.81,2.06,1.69,3.04,3.48,3.17v0.84h-8.4v-0.84c1.55-0.2,2.23-0.61,2.23-1.55c0-0.4-0.07-0.88-0.27-1.38l-1.79-4.59
			h-7.43l-1.45,3.85c-0.34,0.91-0.51,1.59-0.51,1.92c0,0.88,0.74,1.45,2.19,1.75v0.84h-6.72V22.72z M174.95,14.18l-3.34-8.71
			l-3.41,8.71H174.95z"/>
		<path class="st0" d="M190.48,22.72c2.97-0.1,3.14-0.91,3.14-3.58V6.41c0-2.67-0.17-3.44-3.14-3.54V1.99h9.25v0.88
			c-2.97,0.1-3.14,0.88-3.14,3.54v13.54c0,0.1,0,0.2,0,0.3c0,1.89,0.07,2.36,2.57,2.36h2.6c3.58,0,5.4-0.91,7.46-4.52l0.74,0.2
			l-1.15,5.27h-18.33V22.72z"/>
		<path class="st0" d="M229.56,22.72c2.97-0.1,3.14-0.91,3.14-3.58V6.41c0-2.67-0.17-3.44-3.14-3.54V1.99
			c1.05,0.03,1.99,0.03,2.87,0.03c2.29,0,3.95-0.07,4.96-0.07c5.87,0,8.88,1.86,8.88,5.23c0,2.57-1.92,4.32-5.57,5
			c4.35,0.74,6.58,2.7,6.58,5.77c0,3.68-2.83,5.7-8.37,5.7c-1.08,0-4.22-0.1-9.35-0.1V22.72z M235.67,9.86
			c0,1.72,0.61,1.86,2.36,1.86c0.34,0,0.74,0,1.18,0c2.46,0,4.22-1.65,4.22-4.25c0-3-1.75-4.66-5-4.66c-2.06,0-2.77,0.51-2.77,2.4
			V9.86z M235.67,20.56c0,1.96,0.57,2.23,2.97,2.23c3.78,0,5.77-1.75,5.77-5c0-3.54-2.19-5.2-6.65-5.2c-1.65,0-2.09,0.37-2.09,1.99
			V20.56z"/>
		<path class="st0" d="M263.79,22.72v0.84h-9.25v-0.84c2.97-0.1,3.14-0.91,3.14-3.58V6.41c0-2.67-0.17-3.44-3.14-3.54V1.99h7.7
			c5.64,0,8.61,2.06,8.61,5.57c0,2.56-1.69,4.29-5.06,5.13c0.81,0.74,1.42,1.79,2.16,2.94l3.14,4.79c0.91,1.42,1.62,2.29,3.27,2.29
			v0.84h-4.29c-1.05-1.05-1.82-2.33-2.7-3.71l-1.82-2.9c-0.51-0.81-1.25-2.03-2.29-3.75c-0.74,0.1-1.59,0.13-2.6,0.13v5.81
			C260.65,21.8,260.82,22.61,263.79,22.72z M261.02,12.52c4.69,0,6.82-1.28,6.82-4.69c0-2.94-2.06-5.1-4.96-5.1
			c-1.82,0-2.23,0.41-2.23,1.99v7.8C260.78,12.52,260.88,12.52,261.02,12.52z"/>
		<path class="st0" d="M281.16,22.72c2.97-0.1,3.14-0.91,3.14-3.58V6.41c0-2.67-0.17-3.44-3.14-3.54V1.99h16.44l0.74,4.02
			l-0.74,0.07c-1.32-2.16-2.77-3.14-4.83-3.14h-2.94c-2.46,0-2.57,0.47-2.57,2.19v5.37c0,0.91,0.34,1.21,1.18,1.21h2.8
			c1.92,0,2.73-0.88,3.04-3.04h0.84V16h-0.84c-0.2-2.33-1.05-3.27-3.04-3.27h-2.8c-0.84,0-1.18,0.3-1.18,1.21v6.48
			c0,1.72,0.1,2.19,2.57,2.19h4.12c2.94,0,4.19-0.91,5.81-4.22l0.71,0.07l-1.08,5.1h-18.23V22.72z"/>
		<path class="st0" d="M306.98,22.72c2.06-0.2,3.04-1.52,4.05-4.08l4.62-11.64c0.27-0.71,0.47-1.42,0.57-2.16l2.03-2.97l0.64,0.24
			l6.75,17.45c0.81,2.06,1.69,3.04,3.48,3.17v0.84h-8.4v-0.84c1.55-0.2,2.23-0.61,2.23-1.55c0-0.4-0.07-0.88-0.27-1.38l-1.79-4.59
			h-7.43l-1.45,3.85c-0.34,0.91-0.51,1.59-0.51,1.92c0,0.88,0.74,1.45,2.19,1.75v0.84h-6.72V22.72z M320.58,14.18l-3.34-8.71
			l-3.41,8.71H320.58z"/>
		<path class="st0" d="M347.99,22.72v0.84h-9.25v-0.84c2.97-0.1,3.14-0.91,3.14-3.58V5.7c0-2.06-0.47-2.57-2.83-2.57
			c-3.11,0-4.76,1.08-5.97,3.95h-0.74l1.45-5.84h0.71c1.05,1.05,2.5,1.05,4.73,1.05h9.65c0.24,0,0.44,0,0.64,0
			c1.75,0,3-0.07,3.92-1.05h0.68v5.84h-0.71c-0.57-2.87-2.23-3.92-5.64-3.92c-2.4,0-2.9,0.47-2.9,2.4v13.57
			C344.85,21.8,345.02,22.61,347.99,22.72z"/>
		<path class="st0" d="M367.86,12.93v6.21c0,2.67,0.17,3.48,3.14,3.58v0.84h-9.25v-0.84c2.97-0.1,3.14-0.91,3.14-3.58V6.41
			c0-2.67-0.17-3.44-3.14-3.54V1.99H371v0.88c-2.97,0.1-3.14,0.88-3.14,3.54v5.4h13.43v-5.4c0-2.67-0.17-3.44-3.14-3.54V1.99h9.25
			v0.88c-2.97,0.1-3.14,0.88-3.14,3.54v12.73c0,2.67,0.17,3.48,3.14,3.58v0.84h-9.25v-0.84c2.97-0.1,3.14-0.91,3.14-3.58v-6.21
			H367.86z"/>
		<path class="st0" d="M395.21,22.72c2.97-0.1,3.14-0.91,3.14-3.58V6.41c0-2.67-0.17-3.44-3.14-3.54V1.99h9.25v0.88
			c-2.97,0.1-3.14,0.88-3.14,3.54v12.73c0,2.67,0.17,3.48,3.14,3.58v0.84h-9.25V22.72z"/>
		<path class="st0" d="M432.81,18.7V6.41c0-2.67-0.13-3.44-3.11-3.54V1.99h7.32v0.88c-3,0.07-3.17,0.88-3.17,3.54v17.15h-0.74
			L416.44,5.4v13.74c0,2.67,0.17,3.48,3.14,3.58v0.84h-6.89v-0.84c2.63-0.2,2.73-1.05,2.73-3.58V6.41c0-2.77-0.17-3.51-3.41-3.54
			V1.99h5.4L432.81,18.7z"/>
		<path class="st0" d="M457.76,14.82v-0.84h8.61v0.84c-2.63,0.2-2.73,1.05-2.73,3.58v3.21c-2.06,1.42-4.62,2.13-7.63,2.13
			c-7.56,0-12.25-4.15-12.25-10.6c0-2.56,0.78-4.83,2.26-6.82c2.09-2.8,5.74-4.49,10.23-4.49c3.31,0,5.97,0.84,8,2.57l-0.03,4.52
			l-0.54-0.1c-1.59-4.12-3.88-6.11-7.43-6.11c-2.57,0-4.62,0.88-6.18,2.56c-1.92,2.13-2.97,4.93-2.97,8.07
			c0,5.81,3.68,9.55,9.01,9.55c3.54,0,4.79-1.05,4.79-3.65V18.4C460.9,15.73,460.73,14.92,457.76,14.82z"/>
	</g>
	<g>
		<path class="st0" d="M144.63,52.73c0.76,0.83-0.32,1.64-0.99,0.69c-0.43-0.57-1.23-1.12-2.19-1.29c-0.38-0.04-0.35-0.34-0.03-0.36
			C142.59,51.68,143.86,51.89,144.63,52.73z M142.59,48.92c1.32-0.08,2.64,0.27,3.39,1.19c0.79,0.96-0.33,1.65-1,0.82
			c-0.67-0.82-1.32-1.44-2.38-1.62C142.23,49.25,142.17,48.95,142.59,48.92z M142.8,57.13c-0.43-0.92,0.08-1.17,0.46-0.81
			c0.27,0.24,0.46,0.33,0.96,0.33c1.56,0,5.19-2.55,8.59-7.11c0.32-0.42,0.67-0.25,0.42,0.13c-2.54,3.84-6.49,8.16-9.34,8.16
			C143.35,57.83,142.98,57.53,142.8,57.13z"/>
		<path class="st0" d="M175.08,53.11c-6.21-0.43-7.46,0.95-8.86-0.07c-0.89-0.66-0.39-1.12,0.28-0.89c1.46,0.5,2.52,0.47,8.4,0.12
			c0.71-0.04,1.62-0.04,2.13,0.17c0.93,0.38,0.85,1.05-0.02,0.9C176.5,53.24,175.93,53.18,175.08,53.11z"/>
		<path class="st0" d="M188.96,57.58c4.56-2.5,6.53-5.03,8.1-8.34c0.14-0.27,0-0.42-0.28-0.35c-2.04,0.5-4.04,1.02-4.61,0.18
			c-0.57-0.86-0.03-1.19,0.35-0.96c1.11,0.66,2.65,0.57,4.47-0.08c1.18-0.42,2.04,0.33,1.39,1.39c-0.93,1.5-1.75,2.7-2.58,3.69
			c1.58,0.41,2.79,1.14,3.62,2.68c0.62,1.16-0.74,1.71-1.32,0.51c-0.66-1.32-1.38-2.23-2.61-2.82c-1.75,2-3.57,3.15-6.42,4.46
			C188.71,58.12,188.5,57.82,188.96,57.58z M198.44,46.61c0.77,0.31,1.23,0.64,1.64,1.38c0.45,0.87-0.54,1.23-0.95,0.39
			c-0.21-0.48-0.58-1-0.95-1.32C197.87,46.78,198.05,46.48,198.44,46.61z M199.93,46.36c0.58,0.19,1.23,0.54,1.6,1.12
			c0.41,0.71-0.46,1.26-0.9,0.43c-0.21-0.43-0.54-0.83-0.92-1.09C199.4,46.58,199.52,46.25,199.93,46.36z"/>
		<path class="st0" d="M216.9,58.61c2.04-2.42,2.54-4.18,2.62-7.62c-4.06,0.43-4.42,0.9-5.2,0.19c-0.53-0.51-0.39-1.14,0.27-0.85
			c1.29,0.53,2.4,0.36,4.95,0.03c0.01-0.54,0.01-1.12,0.01-1.75c0-0.56-0.12-1.31-0.55-1.8c-0.53-0.59-0.41-1.01,0.43-0.78
			c1.16,0.3,1.23,1.05,1.16,1.58c-0.04,0.25-0.06,0.52-0.03,1.11c0.03,0.53,0.03,1.04,0.03,1.53c0.58-0.08,1.25-0.15,1.98-0.23
			c0.9-0.1,1.35-0.4,2.25-0.09c1.04,0.35,0.95,1.07,0.17,0.95c-0.83-0.12-1.41-0.18-2.19-0.13c-0.83,0.04-1.56,0.1-2.22,0.17
			c-0.11,3.39-1.01,5.86-3.46,7.96C216.84,59.09,216.67,58.9,216.9,58.61z"/>
		<path class="st0" d="M240.55,51.13c0.03-0.71,0.1-1.07-0.39-1.51c-0.46-0.45-0.31-0.84,0.21-0.72c1.53,0.36,1.7,1.1,1.46,1.56
			c-0.1,0.17-0.15,0.39-0.15,0.64c-0.17,3.41-1.83,6.24-5.01,7.77c-0.23,0.12-0.39-0.09-0.08-0.27
			C238.82,57.31,240.43,54.14,240.55,51.13z M243.62,55.12c0.11-6,0.2-6.27-0.4-6.69c-0.5-0.36-0.5-0.97,0.3-0.76
			c1.63,0.41,1.35,1.14,1.26,1.5c-0.04,0.2-0.08,0.42-0.09,0.93c-0.09,1.62-0.12,2.38-0.12,4.51c0,0.23,0.13,0.29,0.33,0.2
			c1.67-0.87,2.7-1.72,4.54-3.5c0.34-0.31,0.55-0.03,0.31,0.24c-2.26,2.62-3.63,3.84-4.53,4.41
			C244.31,56.51,243.61,56.3,243.62,55.12z"/>
		<path class="st0" d="M262.54,58.25c3.67-1.73,6.15-4.08,7.48-8.92c0.06-0.21,0-0.29-0.24-0.25c-4.8,0.42-5.23,1.2-6.25,0.4
			c-0.69-0.55-0.34-1.08,0.17-0.84c0.78,0.38,2.8,0.29,6.38-0.33c1.18-0.21,1.46,0.24,1.16,1.07c-1.67,4.62-3.24,7.2-8.54,9.22
			C262.3,58.75,262.21,58.4,262.54,58.25z M270.82,46.16c0.76,0.32,1.23,0.65,1.63,1.38c0.45,0.87-0.54,1.23-0.94,0.39
			c-0.21-0.48-0.59-1-0.93-1.32C270.26,46.33,270.43,46.03,270.82,46.16z M272.3,45.91c0.58,0.2,1.23,0.53,1.6,1.12
			c0.41,0.71-0.46,1.26-0.9,0.43c-0.21-0.43-0.54-0.82-0.91-1.09C271.78,46.13,271.9,45.8,272.3,45.91z"/>
		<path class="st0" d="M287.52,58.73c4.47-1.36,5.68-4.36,5.82-7.36c0.07-1.92,0.18-3.55-0.57-4.05c-0.48-0.33-0.51-0.93,0.48-0.69
			c0.89,0.2,1.47,0.78,1.28,1.29c-0.08,0.25-0.04,0.63-0.04,1.04c0.21,5.91-2,9-6.88,10.06C287.25,59.09,287.13,58.85,287.52,58.73z
			 M289.22,47.44c1.27,0.22,1.33,0.82,1.17,1.32c-0.17,0.44-0.09,1.54,0.01,5.08c0.01,0.99-1.08,0.9-1.05-0.01
			c0.09-4.68,0.42-5.17-0.41-5.83C288.5,47.65,288.66,47.33,289.22,47.44z"/>
		<path class="st0" d="M318.45,53.11c-6.21-0.43-7.46,0.95-8.86-0.07c-0.89-0.66-0.39-1.12,0.28-0.89c1.46,0.5,2.52,0.47,8.4,0.12
			c0.71-0.04,1.62-0.04,2.13,0.17c0.93,0.38,0.85,1.05-0.02,0.9C319.87,53.24,319.3,53.18,318.45,53.11z"/>
		<path class="st0" d="M332.34,57.58c4.56-2.5,6.53-5.03,8.1-8.34c0.14-0.27,0-0.42-0.28-0.35c-2.04,0.5-4.04,1.02-4.61,0.18
			c-0.57-0.86-0.03-1.19,0.35-0.96c1.11,0.66,2.65,0.57,4.47-0.08c1.18-0.42,2.04,0.33,1.39,1.39c-0.93,1.5-1.75,2.7-2.58,3.69
			c1.58,0.41,2.79,1.14,3.62,2.68c0.62,1.16-0.74,1.71-1.32,0.51c-0.66-1.32-1.38-2.23-2.61-2.82c-1.75,2-3.57,3.15-6.42,4.46
			C332.08,58.12,331.87,57.82,332.34,57.58z M341.82,46.61c0.77,0.31,1.23,0.64,1.64,1.38c0.45,0.87-0.54,1.23-0.95,0.39
			c-0.21-0.48-0.58-1-0.95-1.32C341.25,46.78,341.43,46.48,341.82,46.61z M343.3,46.36c0.58,0.19,1.23,0.54,1.6,1.12
			c0.41,0.71-0.46,1.26-0.9,0.43c-0.21-0.43-0.54-0.83-0.92-1.09C342.78,46.58,342.9,46.25,343.3,46.36z"/>
	</g>
	<line class="st1" x1="163.47" y1="81.75" x2="322.47" y2="81.75"/>
</g>
</svg>
