<?xml version="1.0" encoding="utf-8"?>
<!-- Generator: Adobe Illustrator 26.0.3, SVG Export Plug-In . SVG Version: 6.00 Build 0)  -->
<svg version="1.1" id="レイヤー_1" xmlns="http://www.w3.org/2000/svg" xmlns:xlink="http://www.w3.org/1999/xlink" x="0px"
	 y="0px" viewBox="0 0 750 30" style="enable-background:new 0 0 750 30;" xml:space="preserve">
<style type="text/css">
	.st0{fill:#463243;}
	.st1{fill:none;stroke:#463243;stroke-miterlimit:10;}
</style>
<g>
	<g>
		<path class="st0" d="M208.9,19.6c0-2.7,1.8-4.1,3.7-4.1c1.8,0,3.7,1.4,3.7,4.1c0,2.7-1.8,4-3.7,4
			C210.7,23.7,208.9,22.4,208.9,19.6z M215,19.6c0-2.2-0.9-3.5-2.4-3.5c-1.5,0-2.4,1.3-2.4,3.5c0,2.2,0.9,3.4,2.4,3.4
			C214.1,23.1,215,21.9,215,19.6z"/>
		<path class="st0" d="M223.8,15.6c0.4,0,0.8,0.2,1.1,0.4c0.1,0.1,0.1,0.2,0.1,0.3c0,0.6-0.3,0.9-0.8,0.9c-0.4,0-0.7-0.2-1-0.4
			l-0.2-0.2c-0.7,0.5-1.2,1.2-1.6,2.2v1.4c0,0.8,0,1.9,0,2.7l1.2,0.2c0.1,0,0.2,0.1,0.2,0.2v0c0,0.1-0.1,0.2-0.2,0.2h-3.4
			c-0.1,0-0.2-0.1-0.2-0.2v0c0-0.1,0.1-0.2,0.2-0.2l1-0.2c0-0.8,0-2,0-2.8v-0.8c0-1,0-1.6-0.1-2.3l-1.1-0.1c-0.1,0-0.2-0.1-0.2-0.2
			v-0.1c0-0.1,0.1-0.2,0.2-0.3l1.8-0.7c0.1,0,0.2,0,0.3,0c0.1,0,0.1,0.1,0.1,0.2l0.1,1.8C221.9,16.4,222.9,15.6,223.8,15.6z"/>
	</g>
</g>
<g>
	<path class="st0" d="M505.4,4.7c-3.2,0.8-4.9,2.6-5.1,5.3c0.8-0.8,1.7-1.2,2.7-1.2c1.9,0,3.2,1.3,3.2,3.4c0,2.3-1.5,3.7-3.5,3.7
		c-2.3,0-3.7-1.8-3.7-4.8c0-3.4,2.3-6.3,6.4-6.9c0.1,0,0.2,0,0.3,0.2C505.7,4.6,505.6,4.7,505.4,4.7z M502.7,15.4
		c1.3,0,2.2-1,2.2-2.9c0-1.9-0.9-2.7-2.2-2.7c-0.8,0-1.7,0.2-2.4,1V11C500.3,13.8,501.1,15.4,502.7,15.4z"/>
	<path class="st0" d="M515.1,10.2c0,4.3-1.7,5.8-3.5,5.8c-1.8,0-3.6-1.6-3.6-5.8c0-4.3,1.7-5.9,3.6-5.9
		C513.4,4.3,515.1,5.9,515.1,10.2z M511.5,15.4c1.1,0,2.2-1.2,2.2-5.2c0-4.1-1.1-5.2-2.2-5.2c-1.2,0-2.2,1.1-2.2,5.2
		C509.3,14.2,510.4,15.4,511.5,15.4z"/>
	<path class="st0" d="M523.3,3.2c-0.1,0-0.2,0-0.4,0c-1,2.1-2.9,4.7-5.7,6.2c-0.1,0.1-0.2,0.1-0.3,0c0-0.1,0-0.1,0.1-0.2
		c2.2-1.7,3.9-4.4,4.7-6.6c0-0.1,0.2-0.2,0.3-0.1l1.1,0.4C523.4,3,523.5,3.1,523.3,3.2z M528.4,8.1l0.8,0.7c0.1,0.1,0.1,0.3,0,0.3
		c-0.1,0-0.2,0.1-0.4,0.1c-0.2,3.5-0.7,6.3-1.4,7c-0.4,0.4-1,0.6-1.6,0.6c-0.2,0-0.2-0.1-0.3-0.2c0-0.2-0.1-0.4-0.3-0.5
		c-0.2-0.2-0.9-0.3-1.6-0.4c-0.1,0-0.2-0.1-0.2-0.2s0.1-0.1,0.3-0.1c0.8,0.1,2,0.2,2.4,0.2c0.3,0,0.5,0,0.7-0.2
		c0.6-0.5,0.9-3.1,1.1-6.3h-3.9c-0.3,2.6-1.1,5.6-5.8,7.8c-0.1,0.1-0.2,0-0.3,0c-0.1-0.1,0-0.2,0.1-0.3c4.1-2.4,4.7-5.2,4.9-7.5
		h-3.2c-0.1,0-0.2-0.1-0.3-0.2c0-0.2,0-0.3,0.2-0.3h8.1l0.4-0.5C528.1,8.1,528.3,8,528.4,8.1z M526.1,2.6c1,2.3,3.4,4.4,5.6,5.5
		c0.1,0.1,0.2,0.1,0.2,0.2c0,0.1-0.1,0.1-0.2,0.1c-0.3,0.1-0.5,0.3-0.7,0.6c-0.1,0.1-0.2,0.2-0.3,0.1c-2-1.4-3.9-3.7-4.8-6.3
		c0-0.1,0-0.2,0.1-0.3C526,2.4,526.1,2.4,526.1,2.6z"/>
	<path class="st0" d="M541.9,13.3c-5.3,0.2-5.6,0.8-6.6-0.1c-0.7-0.7-0.4-1.1,0.3-0.8c1.1,0.5,1.7,0.4,6.2,0.1
		c0.3,0,0.6-0.1,0.9-0.1c0.3-1.6,0.3-2.8,0.5-4.3c0-0.3-0.1-0.3-0.2-0.3c-7.1,0.3-7.1,0.8-7.9,0c-0.7-0.8-0.3-1.3,0.4-0.9
		c1.1,0.8,2.8,0.5,7.6,0c1.2-0.1,1.2,0.3,1.1,1.2c-0.2,0.9-0.5,2.6-0.8,4.4c0.1,0,0.3,0.1,0.4,0.1c0.9,0.4,0.5,1.2-0.2,1
		C543,13.3,542.5,13.2,541.9,13.3z"/>
	<path class="st0" d="M557.5,10.5c-6.6-0.5-8,1-9.5-0.1c-0.9-0.7-0.4-1.2,0.3-0.9c1.6,0.5,2.7,0.5,9,0.1c0.8,0,1.7,0,2.3,0.2
		c1,0.4,0.9,1.1,0,1C559,10.6,558.4,10.5,557.5,10.5z"/>
	<path class="st0" d="M560.7,15.3c4.9-2.7,7-5.4,8.7-8.9c0.1-0.3,0-0.4-0.3-0.4c-2.2,0.5-4.3,1.1-4.9,0.2c-0.6-0.9,0-1.3,0.4-1
		c1.2,0.7,2.8,0.6,4.8-0.1c1.3-0.4,2.2,0.4,1.5,1.5c-1,1.6-1.9,2.9-2.8,4c1.7,0.4,3,1.2,3.9,2.9c0.7,1.2-0.8,1.8-1.4,0.5
		c-0.7-1.4-1.5-2.4-2.8-3c-1.9,2.1-3.8,3.3-6.8,4.7C560.4,15.9,560.2,15.5,560.7,15.3z"/>
	<path class="st0" d="M580.2,15c-0.3-0.4-0.7-0.7-1.1-0.9c-0.6-0.3-0.5-0.7,0.2-0.5c0.4,0.1,1.5,0.7,2,0.2c2.2-2.4,2.5-7.1-1.3-5.7
		c-0.9,2.6-2.7,5.9-3.7,7.6c-0.4,0.8-1.3,0.2-0.8-0.5c2-2.8,3.1-5.1,3.7-6.7c-1.1,0.6-1.8,1.4-2.9,1.1c-1.1-0.4-1-1.1,0.1-1
		c1.1,0.1,2.4-0.5,2.7-0.7l0.3-0.2c0.4-1.5,0.3-2.4,0.1-2.9c-0.4-0.8,0.2-1.1,0.8-0.5c0.5,0.5,0.4,1.7,0,3.1c4.2-1.4,4.8,4,1.6,7.7
		C581.3,15.7,580.6,15.5,580.2,15z M585.4,10.9c2,0,2.2-1,0.4-3.2c-0.3-0.4-0.1-0.7,0.4-0.3c1.2,0.8,1.8,1.7,2.1,3.2
		c0.1,0.7-0.2,1.1-1,1.1c-0.8,0-1.6-0.1-1.9-0.2C584.9,11.3,584.8,10.9,585.4,10.9z"/>
	<path class="st0" d="M594,16c10.4,0.1,7.1-10.7-0.1-3.5c-1.2,1.2-2.3,0.6-2.2-0.8c0.1-1.2,0.3-3.1,0.5-4.5c0.2-1.4,1.6-1.5,3-1.7
		c0.2,0,0.2-0.2,0.1-0.4c-0.4-0.6-0.9-0.9-1.6-1.2c-0.5-0.2-0.3-0.5,0-0.5c1.8,0.1,2.3,0.5,2.8,1.3c0.7,1,0.4,1.8-0.9,1.5
		c-2-0.6-2.5,0-2.6,1c0,0.4-0.3,2.5-0.4,3.6c-0.1,1.1,0.6,0.8,1.2,0.4c9.1-6.5,11.4,5.8,0.2,5.1C593.5,16.3,593.5,16,594,16z"/>
	<path class="st0" d="M612.3,11.2c0.2-0.3,0.5-0.2,0.3,0.2c-0.8,1.5-0.7,3.3,0.6,3.3c4.1,0.1,3.2-6.2-1.5-4.1
		c-0.7,0.3-1.4,0.7-2,1.2c0,0.8,0.1,1.6,0.1,2.5c0.1,1.6-1,2.1-1.6,1.2c-0.4-0.6-0.9-1.1-1.4-1.4c-0.4,0.3-0.8,0.5-1.2,0.5
		c-1.4,0-1.5-1.3,0-1.3c0.2,0,0.6,0.1,0.9,0.2c0.6-0.4,1.5-1.1,2.5-1.8c0-1,0-1.9,0-2.8c-1.3,0.4-2.3,0.5-3.1-0.4
		c-0.4-0.4-0.1-0.7,0.3-0.4c1,0.6,1.6,0.6,2.8,0c0-1.8-0.2-3.2-0.6-3.5c-0.6-0.4-0.3-1.2,0.7-0.6c0.7,0.4,0.8,0.9,0.8,2
		c0.4,0.3,0.8,0.4,1.4,0.5c1.2,0.2,1.2,1,0.1,1.5c-0.6,0.2-1.1,0.5-1.6,0.7c0,0.7,0,1.6,0,2.6c0.6-0.4,1.3-0.8,1.9-1.1
		c5.8-2.9,7.5,5.7,1.6,5.5C610.9,15.5,611.4,12.3,612.3,11.2z M605.6,13.8c0.1,0,0.3-0.1,0.5-0.2c-0.2,0-0.4-0.1-0.5-0.1
		C605.2,13.6,605.1,13.9,605.6,13.8z M608.5,14.3c0.3,0.2,0.6,0.3,0.6-0.2v-1.8c-0.6,0.5-1.2,1-1.7,1.4
		C607.9,14,608.3,14.3,608.5,14.3z M610.4,7.3c0.3-0.1,0.3-0.3,0-0.5c-0.2-0.1-0.4-0.3-0.5-0.4l-0.1,1.2L610.4,7.3z M617.7,7
		c0.8,0.8-0.2,1.7-0.9,0.7c-0.5-0.7-1.6-1.3-2.6-0.5c-0.4,0.3-0.4,0-0.3-0.2C614.7,5.9,616.7,5.9,617.7,7z"/>
	<path class="st0" d="M620.8,10c-0.4,0.3-1,0.3-1.1-0.1c-0.1-0.3,0.1-0.7,0.4-0.8c0.6-0.3,1-1.1,1-2c0-0.2,0-0.3,0.1-0.3
		s0.1,0.1,0.2,0.2c0.1,0.2,0.1,0.4,0.1,0.6h7.6c0.6-0.9,1.2-2.1,1.6-3.1c0-0.1,0.2-0.2,0.3-0.1l1.2,0.4c0.2,0,0.2,0.2,0.1,0.3
		C632.3,5,632.1,5,631.9,5c-0.5,0.8-1.5,1.7-2.3,2.5h2.9l0.5-0.5c0.1-0.1,0.2-0.1,0.3,0l0.9,0.8c0.1,0.1,0.1,0.3,0,0.3l-0.3,0
		c-0.4,0.4-1.1,1.1-1.7,1.5c-0.1,0.1-0.2,0.1-0.3,0c-0.1,0-0.1-0.1,0-0.3c0.2-0.4,0.5-1,0.7-1.5h-10.9C621.7,9,621.3,9.7,620.8,10z
		 M631.6,10.6c-0.1,0-0.3,0-0.5,0.1c-0.8,1.3-1.9,2.4-3.2,3.4c1.7,0.9,3.8,1.4,6,1.8c0.2,0,0.2,0.1,0.2,0.1c0,0.1-0.1,0.1-0.2,0.1
		c-0.3,0.1-0.6,0.4-0.8,0.7c-0.1,0.1-0.2,0.2-0.3,0.2c-2.2-0.5-4.2-1.2-5.8-2.4c-1.9,1.1-4.2,1.9-7.1,2.4c-0.2,0-0.2,0-0.3-0.1
		c0-0.1,0-0.1,0.2-0.2c2.5-0.6,4.7-1.4,6.4-2.6c-1.2-1-2.1-2.1-2.8-3.6H622c-0.1,0-0.2,0-0.3-0.2c0-0.2,0-0.3,0.2-0.3h8l0.6-0.5
		c0.1-0.1,0.2-0.1,0.3,0l0.8,0.8C631.8,10.4,631.8,10.6,631.6,10.6z M632.3,3.6c-0.2,0-0.4,0-0.6-0.1c-2.8,0.5-7.1,1-10.9,1.1
		c-0.1,0-0.2,0-0.3-0.2c0-0.1,0.1-0.2,0.2-0.2c3.6-0.3,8-1.1,10.4-1.8c0.1,0,0.2,0,0.3,0.1l0.8,0.8C632.4,3.4,632.4,3.6,632.3,3.6z
		 M622.4,4.7c2.7,1.1,1.9,3,1,2.5c-0.1-0.1-0.1-0.1-0.2-0.3c-0.1-0.7-0.6-1.4-1-2c-0.1-0.1-0.1-0.2-0.1-0.3
		C622.2,4.7,622.2,4.7,622.4,4.7z M627.1,13.6c1.1-0.9,2-1.9,2.7-3.1H624C624.7,11.8,625.8,12.8,627.1,13.6z M626,4.5
		c2.5,1.3,1.7,3.2,0.8,2.7c-0.1-0.1-0.1-0.2-0.2-0.3c-0.1-0.7-0.4-1.6-0.8-2.2c-0.1-0.1-0.1-0.2,0-0.3C625.7,4.4,625.8,4.4,626,4.5z
		"/>
	<path class="st0" d="M637.4,4.5c-0.7-1.1,0.1-1.7,0.8-0.6c0.9,1.2-0.7,5.9-1,7.7c-0.1,0.6,0.3,0.8,0.4,0.1c0.4-1.2,0.8-2.3,1.5-3.2
		c0.3-0.4,0.5-0.3,0.4,0.2c-0.5,1.4-1.6,4.6-1.3,6c0.5,1.8-0.5,2.1-1.2,0.6c-0.5-1.1-0.8-2.4-0.5-3.6C637.3,7.6,637.9,5.2,637.4,4.5
		z M641.7,16.1c2.7-1.8,3.5-4.1,3.3-7.9c-1,0.1-1.9,0-2.8-0.2c-0.5-0.1-0.4-0.6,0-0.5c1,0.1,1.9,0,2.7-0.1c-0.1-2.9-0.1-3.2-0.5-3.6
		c-0.8-0.7-0.5-1.1,0.4-0.8c0.8,0.3,0.9,1,1,2.2c0.6,0.5,1.2,0.8,1.7,1c0.9,0.4,0.9,1.1,0,1.4c-0.5,0.2-1,0.3-1.6,0.4
		c0.2,5.2-2,7.4-4.1,8.5C641.4,16.7,641.3,16.4,641.7,16.1z M646,7.1c0.2-0.1,0.5-0.2,0.8-0.3c0.2-0.1,0.2-0.2,0-0.4
		c-0.3-0.2-0.6-0.4-0.8-0.6C645.9,6.2,645.9,6.6,646,7.1z"/>
	<path class="st0" d="M651.3,6.1c-0.4-0.6-0.2-1,0.6-0.5c2.5,1.6-0.4,8.1,2.8,7.8c0.4,0,0.3-0.9,0.9-1.5c0.3-0.3,0.5-0.1,0.4,0.2
		c-0.2,0.4-0.3,1.3,0,1.6c0.5,0.4,0.7,1.3-1.3,0.9C650.7,13.9,653.3,8.8,651.3,6.1z M660.9,7.2c1.3,0.1,3.2,1.1,2.9,3.1
		c-0.2,1.4-1.8,1.1-1.4,0c0.5-1.5-0.5-2.5-1.5-2.7C660.3,7.5,660.4,7.1,660.9,7.2z"/>
	<path class="st0" d="M666.2,14.6c1.3-2.9,2.3-5.1,2.8-6.8c-0.9,0.1-1.7,0-2.3-0.2c-0.7-0.3-0.4-0.8,0.2-0.5
		c0.5,0.2,1.4,0.2,2.4-0.1c0.3-1.2,0.4-2.1,0.1-2.6c-0.6-1-0.2-1.3,0.7-0.7c0.4,0.4,0.6,0.9,0.5,1.7c0.6,0.3,1.2,0.4,1.6,0.5
		c0.4,0.1,0.5,0.5,0.2,0.7c-0.7,0.5-1.5,0.9-2.4,1.1c-0.6,1.8-1.5,4.2-2.6,7.5C666.7,17.1,665.8,15.4,666.2,14.6z M670.7,6.3
		c0.2-0.1,0.2-0.2,0-0.3c-0.1-0.1-0.2-0.1-0.3-0.2c0,0.3-0.1,0.5-0.2,0.8C670.4,6.5,670.6,6.4,670.7,6.3z M673.1,10.8
		c-1.8,3.3-0.5,4.5,3.6,3.9c1.2-0.2,1.9,1.1,0.5,1.2c-4.9,0.4-7.1-1.4-4.3-5.3C673,10.4,673.2,10.5,673.1,10.8z M676.1,6.9
		c0.8,0.3,0.8,1.1,0.2,1.2c-1,0.3-2.1,0.9-2.8,1.7c-0.2,0.2-0.3,0.1-0.2-0.1c0.4-0.7,1.1-1.3,2-1.9c0.2-0.1,0.1-0.2,0-0.2
		c-0.9-0.2-1.6-0.1-2.6,0.1c-0.4,0.1-0.5-0.2-0.1-0.4C673.5,6.8,675.3,6.6,676.1,6.9z"/>
	<path class="st0" d="M681.3,14.6c1.3-2.9,2.3-5.1,2.8-6.8c-0.9,0.1-1.7,0-2.3-0.2c-0.7-0.3-0.4-0.8,0.2-0.5
		c0.5,0.2,1.4,0.2,2.4-0.1c0.3-1.2,0.4-2.1,0.1-2.6c-0.6-1-0.1-1.3,0.7-0.7c0.4,0.4,0.6,0.9,0.5,1.7c0.6,0.3,1.2,0.4,1.6,0.5
		c0.5,0.1,0.5,0.5,0.2,0.7c-0.7,0.5-1.5,0.9-2.4,1.1c-0.6,1.8-1.5,4.2-2.6,7.5C681.8,17.1,680.9,15.4,681.3,14.6z M685.8,6.3
		c0.2-0.1,0.2-0.2,0-0.3c-0.1-0.1-0.2-0.1-0.3-0.2c0,0.3-0.1,0.5-0.2,0.8C685.5,6.5,685.6,6.4,685.8,6.3z M688.1,10.8
		c-1.8,3.3-0.5,4.5,3.6,3.9c1.2-0.2,1.9,1.1,0.5,1.2c-4.9,0.4-7.1-1.4-4.3-5.3C688.1,10.4,688.2,10.5,688.1,10.8z M691.2,6.9
		c0.8,0.3,0.8,1.1,0.2,1.2c-1,0.3-2.1,0.9-2.8,1.7c-0.2,0.2-0.3,0.1-0.2-0.1c0.4-0.7,1.1-1.3,2-1.9c0.2-0.1,0.1-0.2,0-0.2
		c-0.9-0.2-1.6-0.1-2.6,0.1c-0.4,0.1-0.4-0.2-0.1-0.4C688.6,6.8,690.4,6.6,691.2,6.9z M690.9,4.2c0.8,0.3,1.3,0.7,1.7,1.5
		c0.5,0.9-0.6,1.3-1,0.4c-0.2-0.5-0.6-1.1-1-1.4C690.3,4.4,690.5,4.1,690.9,4.2z M692.5,4c0.6,0.2,1.3,0.6,1.7,1.2
		c0.4,0.7-0.5,1.3-1,0.4c-0.2-0.4-0.6-0.9-1-1.2C691.9,4.2,692.1,3.8,692.5,4z"/>
	<path class="st0" d="M697.3,4.5c-0.7-1.1,0.1-1.7,0.8-0.6c0.9,1.2-0.7,5.9-1,7.7c-0.1,0.6,0.3,0.8,0.4,0.1c0.4-1.2,0.8-2.3,1.5-3.2
		c0.3-0.4,0.5-0.3,0.4,0.2c-0.5,1.4-1.6,4.6-1.3,6c0.5,1.8-0.5,2.1-1.2,0.6c-0.5-1.1-0.8-2.4-0.5-3.6C697.2,7.6,697.8,5.2,697.3,4.5
		z M701.6,16.1c2.7-1.8,3.5-4.1,3.3-7.9c-1,0.1-1.9,0-2.8-0.2c-0.5-0.1-0.4-0.6,0-0.5c1,0.1,1.9,0,2.7-0.1c-0.1-2.9-0.1-3.2-0.5-3.6
		c-0.8-0.7-0.5-1.1,0.4-0.8c0.8,0.3,0.9,1,1,2.2c0.6,0.5,1.2,0.8,1.7,1c0.9,0.4,0.9,1.1,0,1.4c-0.5,0.2-1,0.3-1.6,0.4
		c0.2,5.2-2,7.4-4.1,8.5C701.4,16.7,701.2,16.4,701.6,16.1z M705.9,7.1c0.2-0.1,0.5-0.2,0.8-0.3c0.2-0.1,0.2-0.2,0-0.4
		c-0.3-0.2-0.6-0.4-0.8-0.6C705.8,6.2,705.9,6.6,705.9,7.1z"/>
	<path class="st0" d="M717.5,14.1c-0.4,2.8-5.3,2.7-5.3,0.4c0-1.6,2.3-2,4.4-1.6c0-1,0-1.9,0-2.7c-1.4,0-2.7-0.2-3.8-0.7
		c-0.5-0.3-0.4-0.7,0.2-0.5c1.1,0.4,2.4,0.5,3.7,0.4c0-0.8,0-1.5,0-2.1c-2.5,0.4-3.5,0.1-4.6-0.6c-0.6-0.4-0.4-0.8,0.2-0.5
		c1.1,0.5,2.4,0.7,4.3,0.3c0-1.1-0.2-1.9-0.6-2.3c-0.4-0.4-0.4-1.2,0.8-0.5c0.8,0.4,0.8,1,0.8,2.5c0.6-0.2,1.3-0.4,2.1-0.8
		c1-0.4,2,0.6,1,0.9c-1.2,0.3-2.2,0.6-3,0.7c0.6,0.7,1.5,1.3,2.6,1.4c0.7,0,0.8,0.7,0,1c-0.9,0.4-1.9,0.6-2.8,0.7c0,0.9,0,1.9,0,3
		c0.8,0.3,1.6,0.6,2.1,1.1c1.2,1.1,0.3,2-0.3,1.3C718.8,14.9,718.2,14.5,717.5,14.1z M716.6,13.7c-1.9-0.6-3.7-0.3-3.7,0.7
		C712.9,15.9,716.6,15.9,716.6,13.7z M719,9c0.3,0,0.3-0.2,0-0.4c-0.5-0.3-1-0.6-1.4-1.1c0,0.5,0,1.1-0.1,1.7
		C718,9.2,718.5,9.1,719,9z"/>
	<path class="st0" d="M725.5,6.3c1.3,0.6,3.5,0,6.4-0.4c-0.1-0.9-0.2-1.6-0.4-2.1c-0.5-1-0.1-1.2,0.7-0.8c0.3,0.2,0.4,0.4,0.5,0.7
		c2,1.3,3.2,2,5.1,2.5c0.8,0.2,0.8,1-0.2,0.8c-1.9-0.4-3.6-0.4-5-0.4c0,0.7,0,1.5,0,2.5c0.1,0.3,0.2,0.7,0.3,1.1
		c0.1,1.9,0,5.6-3,6.3c-0.5,0.1-0.6-0.2-0.1-0.4c1.8-0.7,2.2-2.2,2.2-3.7c-1,0.9-2.7,0.5-2.9-2.1c-0.2-2.1,1.6-2.8,2.8-2.1
		c0-0.5,0-1.1,0-1.6c-3.3,0.2-5.2,1.1-6.3,0.7C724.2,7,724.6,6,725.5,6.3z M732,10.7l0-0.3c-0.2-2-2.2-2-2.1,0.1
		C729.9,12.8,731.9,12.5,732,10.7z M735.1,6c0.2,0,0.2-0.1,0-0.2c-0.4-0.2-1.5-0.8-2.3-1.3c0,0.4,0,0.9-0.1,1.5
		C733.6,5.9,734.2,5.9,735.1,6z"/>
	<path class="st0" d="M740.4,14.8c0-1.2,1-2.2,2.3-2.2c1.2,0,2.2,1,2.2,2.2s-1,2.3-2.2,2.3C741.5,17.1,740.4,16.1,740.4,14.8z
		 M741,14.8c0,0.9,0.8,1.7,1.7,1.7c0.9,0,1.7-0.8,1.7-1.7s-0.8-1.7-1.7-1.7C741.7,13.1,741,13.9,741,14.8z"/>
</g>
<g>
	<g>
		<path class="st0" d="M19.9,20.7c0.8,0,2.5,0,3.5,0c0.2,0,0.2,0,0.2,0.1c0,0.1-0.1,0.1-0.2,0.2c-0.2,0.1-0.3,0.3-0.4,0.5
			c0,0.1-0.1,0.2-0.2,0.2h-3c-3.6,0-5.5-0.6-6.7-3.6c-0.6,1.5-1.5,2.9-3,3.9C10,22,9.9,22,9.8,22c0-0.1,0-0.1,0.1-0.2
			c1.7-1.6,2.5-4,2.7-6.2c0-0.1,0.1-0.2,0.3-0.2l1.1,0.2c0.2,0,0.3,0.2,0.1,0.3C14,15.9,13.9,16,13.7,16c-0.1,0.5-0.3,1.1-0.4,1.6
			c0.7,1.5,1.6,2.2,2.8,2.7v-6.7h-3v0.6c0,0.1-0.4,0.3-0.8,0.3c-0.1,0-0.2-0.1-0.2-0.2V9.1c0-0.2,0.1-0.2,0.3-0.2l0.8,0.3H20
			l0.4-0.4c0.1-0.1,0.2-0.1,0.3,0l0.8,0.6c0.1,0.1,0.2,0.2,0,0.3c-0.1,0.1-0.3,0.1-0.4,0.2v4.2c0,0.1-0.5,0.3-0.8,0.3
			c-0.1,0-0.2-0.1-0.2-0.2v-0.6h-3v3h3.2l0.6-0.7c0.1-0.1,0.2-0.1,0.3,0c0.2,0.2,0.7,0.5,1,0.8c0.1,0.1,0.2,0.2,0,0.3
			c-0.1,0-0.2,0.1-0.3,0.1h-4.9v3.5C17.9,20.7,18.8,20.7,19.9,20.7z M20.1,9.8h-7v3.4h7V9.8z"/>
		<path class="st0" d="M38.5,18.5c-0.1,0-0.2,0-0.3,0c-0.5,0.3-1.4,0.8-2.3,1.1c1.1,0.6,2.5,1,4,1.3c0.1,0,0.2,0.1,0.2,0.1
			S40,21,39.9,21.1c-0.2,0.1-0.4,0.3-0.6,0.6c-0.1,0.1-0.2,0.2-0.3,0.2c-2.7-0.7-4.6-1.9-5.6-4.2h-0.2c-0.6,0.4-1.2,0.8-2,1.1v1.7
			l2.8-0.5c0.1,0,0.2,0,0.3,0.1c0,0.1,0,0.1-0.2,0.2c-1.3,0.5-3,1-5.3,1.5c0,0.1-0.1,0.2-0.1,0.2c-0.1,0.1-0.2,0-0.3-0.1l-0.4-0.7
			c-0.1-0.1,0-0.3,0.1-0.3c0.6-0.1,1.3-0.2,2.2-0.3v-1.5c-1.2,0.4-2.5,0.7-3.8,1c-0.1,0-0.2,0-0.3-0.1c0-0.1,0-0.1,0.2-0.2
			c2-0.5,3.9-1.2,5.2-2.1h-4.9c-0.1,0-0.2-0.1-0.3-0.2c0-0.2,0-0.3,0.2-0.3h6v-1.1h-4.9c-0.1,0-0.2-0.1-0.3-0.2c0-0.1,0-0.2,0.2-0.2
			h4.9v-1.1h-3.2V15c0,0.1-0.4,0.3-0.8,0.3c-0.1,0-0.1-0.1-0.1-0.2v-4.2c0-0.2,0.1-0.3,0.3-0.2l0.8,0.4h7.1l0.4-0.4
			c0.1-0.1,0.2-0.1,0.3,0l0.8,0.6c0.1,0.1,0.1,0.2,0,0.3c-0.1,0.1-0.2,0.1-0.4,0.1v3.1c0,0.1-0.5,0.3-0.8,0.3
			c-0.1,0-0.2-0.1-0.2-0.2v-0.2h-3.2v1.1h3.6l0.5-0.5c0.1-0.1,0.2-0.1,0.3,0c0.2,0.1,0.6,0.4,0.9,0.6c0.1,0.1,0.2,0.2,0,0.3
			c-0.1,0-0.2,0.1-0.3,0.1h-5v1.1h4.5l0.5-0.6c0.1-0.1,0.2-0.1,0.3,0c0.2,0.2,0.6,0.4,0.9,0.7c0.1,0.1,0.1,0.2,0,0.3
			c-0.1,0-0.2,0.1-0.3,0.1h-2.1l0.9,0.6C38.6,18.3,38.6,18.5,38.5,18.5z M26.8,9.7h5.9V8.6c0-0.2,0.1-0.2,0.2-0.2l1,0.1
			c0.2,0,0.3,0.1,0.1,0.3c-0.1,0.1-0.2,0.1-0.4,0.2v0.8h4.2l0.6-0.7c0.1-0.1,0.2-0.1,0.3,0c0.2,0.2,0.7,0.5,1,0.8
			c0.1,0.1,0.1,0.2,0,0.3c-0.1,0-0.2,0.1-0.3,0.1H26.9c-0.1,0-0.2-0.1-0.2-0.2l0,0C26.6,9.7,26.6,9.7,26.8,9.7z M29.5,12.6h3.2v-1.1
			h-3.2V12.6z M32.7,13h-3.2v1.2h3.2V13z M33.6,12.6h3.2v-1.1h-3.2V12.6z M36.8,13h-3.2v1.2h3.2V13z M35.5,19.4
			c0.7-0.5,1.5-1.2,1.9-1.7h-3.6C34.2,18.3,34.8,18.9,35.5,19.4z"/>
	</g>
</g>
<rect x="1" y="4" class="st1" width="49" height="23.6"/>
<g>
	<g>
		<path class="st0" d="M166.4,11.5c0.1-0.1,0-0.2-0.1-0.1c-0.7,0.4-1.6,0.4-2.1,0.1c-0.6-0.3-0.5-1,0.1-0.7c0.6,0.3,1.4,0.2,2.5-0.5
			c1-0.6,1.4,0.4,0.8,1c-4,3.3-4.8,9-0.7,9c5.5,0,4.2-7.5,3.2-9.9c-0.4-0.8,0.6-1,0.9-0.3c0.8,2.1,1.8,3,3,4
			c0.9,0.7,0.2,1.5-0.6,0.9c-0.6-0.5-1.6-1.6-2-2.5c-0.1-0.1-0.2-0.1-0.1,0c1.1,4.7-0.5,8.8-4.5,8.8
			C162.7,21.3,161.7,16.3,166.4,11.5z"/>
		<path class="st0" d="M180.7,16.1c1.6-0.5,3.1,0,4.2,0.4c0.4,0.2,0.6-0.1,0.5-0.7c-0.1-0.3-0.7-1.4-1.3-2.5c-2.5,0.8-5.1,0.7-6-0.1
			c-0.5-0.4-0.2-0.7,0.3-0.4c1.2,0.8,3.4,0.5,5.3-0.2c-0.5-0.9-1-1.7-1.3-2c-0.6-0.7,0.3-1.2,0.8-0.9c0.9,0.5,2.1,0.9,3.6,0.9
			c0.5,0,1.1,0.5,0.2,1.2c-0.7,0.5-1.4,0.9-2.2,1.2c0.7,1.3,1.2,2.4,1.5,3.4c0.5,1.5-0.7,1.6-1.6,1.1c-0.9-0.5-2.3-1.3-3.9-0.9
			c-2.5,0.6-1,4.3,3.9,3.5c1-0.2,1.6,0.8,0.5,1C179.3,22.3,177.2,17.1,180.7,16.1z M184.4,12.3c0.5-0.2,1-0.5,1.4-0.7
			c0.3-0.2,0.3-0.3,0-0.4c-0.7-0.2-1.4-0.4-2.2-0.9c-0.2-0.1-0.4,0-0.2,0.2C183.8,11.2,184.1,11.7,184.4,12.3z M186.9,8.7
			c0.8,0.3,1.2,0.6,1.6,1.4c0.5,0.9-0.5,1.2-0.9,0.4c-0.2-0.5-0.6-1-0.9-1.3C186.3,8.9,186.5,8.6,186.9,8.7z M188.4,8.5
			c0.6,0.2,1.2,0.5,1.6,1.1c0.4,0.7-0.5,1.3-0.9,0.4c-0.2-0.4-0.5-0.8-0.9-1.1C187.8,8.7,188,8.4,188.4,8.5z"/>
	</g>
</g>
<rect x="151.6" y="4" class="st1" width="49" height="23.6"/>
<g>
	<g>
		<path class="st0" d="M259.7,20c0.3,0.2,0.7,0.6,1.1,0.9c0.1,0.1,0.1,0.2,0,0.3c-0.1,0-0.1,0.1-0.3,0.1h-13c-0.1,0-0.2-0.1-0.2-0.2
			c0-0.2,0-0.3,0.2-0.3h5.7V8.7c0-0.1,0.1-0.2,0.2-0.2l1,0.1c0.2,0,0.3,0.1,0.2,0.3c-0.1,0.1-0.2,0.2-0.4,0.2v4.9h3.5l0.6-0.8
			c0.1-0.1,0.2-0.1,0.3,0c0.2,0.2,0.7,0.6,1,0.9c0.1,0.1,0.2,0.2,0,0.3c-0.1,0-0.1,0.1-0.3,0.1h-5.2v6.5h4.6l0.6-0.8
			C259.5,19.9,259.6,19.9,259.7,20z"/>
		<path class="st0" d="M275.2,16c0.3,0.2,0.7,0.6,1.1,0.9c0.1,0.1,0.2,0.2,0,0.3c-0.1,0-0.2,0.1-0.3,0.1h-6.1v4.4
			c0,0.2-0.4,0.4-0.8,0.4c-0.1,0-0.2-0.1-0.2-0.2v-4.6h-6c-0.1,0-0.2-0.1-0.3-0.2c0-0.1,0-0.2,0.2-0.2h6.1v-3H264
			c-0.1,0-0.2,0-0.3-0.2c0-0.2,0-0.3,0.2-0.3h5.1V8.6c0-0.2,0.1-0.2,0.2-0.2l1,0.1c0.2,0,0.3,0.1,0.2,0.3c-0.1,0.1-0.2,0.2-0.4,0.2
			v4.4h3.4l0.6-0.8c0.1-0.1,0.2-0.1,0.3,0c0.3,0.2,0.7,0.5,1.1,0.9c0.1,0.1,0.2,0.2,0,0.3c-0.1,0-0.2,0.1-0.3,0.1h-5.2v3h4.2
			l0.7-0.8C275,15.9,275.1,15.9,275.2,16z M264.8,9c3.3,1.8,2.6,4.2,1.6,3.6c-0.1-0.1-0.1-0.1-0.2-0.3c-0.2-1-0.9-2.3-1.6-3.1
			c-0.1-0.1-0.1-0.2-0.1-0.2C264.6,9,264.7,9,264.8,9z M274.8,9.6c-0.1,0-0.2,0.1-0.4,0c-0.7,1.2-1.7,2.3-2.6,3
			c-0.1,0.1-0.2,0.1-0.3,0c-0.1,0-0.1-0.1,0-0.3c0.6-0.9,1.3-2.2,1.8-3.5c0.1-0.1,0.2-0.2,0.3-0.1l1.1,0.5
			C274.9,9.4,275,9.6,274.8,9.6z"/>
		<path class="st0" d="M292.4,14.2c-0.1,0-0.2,0-0.4-0.1c-0.6,0.9-1.4,1.7-2.3,2.5v4.1c0,0.8-0.2,1.2-1.5,1.4c-0.2,0-0.2,0-0.3-0.2
			c-0.1-0.2-0.2-0.4-0.3-0.5c-0.2-0.1-0.6-0.3-1.3-0.4c-0.1,0-0.2-0.1-0.2-0.1c0-0.1,0.1-0.1,0.2-0.1c0.5,0,1.6,0.1,1.9,0.1
			c0.3,0,0.4-0.1,0.4-0.4v-3.1c-2.4,1.9-5.5,3.5-9,4.4c-0.1,0-0.2,0-0.3-0.1c0-0.1,0-0.2,0.2-0.2c3.3-1.1,6.2-2.8,8.5-4.8
			c-2,0.5-4.6,1-7.8,1.6c0,0.1-0.1,0.2-0.2,0.2c-0.1,0.1-0.2,0-0.3-0.1l-0.3-0.7c-0.1-0.2,0-0.3,0.2-0.3c0.6,0,1.3-0.1,2.3-0.3V10
			c0-0.2,0.1-0.2,0.3-0.2l0.8,0.4h1.7c0.2-0.5,0.3-1.2,0.5-1.7c0-0.1,0.1-0.2,0.3-0.2l1.1,0.2c0.2,0,0.3,0.2,0.1,0.3
			c-0.1,0.1-0.2,0.1-0.4,0.1c-0.2,0.4-0.6,0.9-0.9,1.3h3.1l0.4-0.5c0.1-0.1,0.2-0.1,0.3,0l0.9,0.7c0.1,0.1,0.1,0.2,0,0.3
			c-0.1,0.1-0.3,0.1-0.4,0.2v4.4c0.6-0.6,1.1-1.3,1.5-1.9c0.1-0.1,0.2-0.2,0.3-0.1l0.8,0.6C292.6,14,292.6,14.2,292.4,14.2z
			 M283,12.3h5.7v-1.7H283V12.3z M288.8,14.5v-1.7H283v1.7H288.8z M288.7,16.3l0.1-0.1v-1.3H283v2.2L288.7,16.3z"/>
	</g>
</g>
<rect x="237.5" y="4" class="st1" width="65.6" height="23.6"/>
<rect x="57.5" y="4" class="st1" width="86.7" height="23.6"/>
<g>
	<g>
		<path class="st0" d="M71.1,19.7c-0.3,0.4-0.7,0.8-1.1,0.9c-0.9,0.3-2.3-0.6-0.9-1.1c2.2-0.8,2.9-2.5,5.1-3.5
			c-0.9-2-1.3-3.2,0.6-3.7c1.2-0.3,0.1-1.7-0.5-2.3c-0.5-0.4-0.1-0.6,0.3-0.4c3.1,2,2.3,3.2,0.9,3.2c-1.6-0.1-1.7,0.6-0.6,2.9
			c3.1-0.9,6.7,1.3,6.7,3.7c0,1.6-1.3,1.6-1.3,0.4c0-3.1-2.5-4.3-5.1-3.7c0.4,0.7,0.9,1.6,1.4,2.6c1.3,2.3-1.2,2.9-2.4,1.9
			C73.3,20.1,72.3,19.8,71.1,19.7z M74.2,20c0.7,0.2,1.5,0,1.3-0.8c-0.4-1-0.8-2-1.1-2.8c-1.5,0.6-2.3,1.9-3,2.9
			C72.4,19.5,73.6,19.8,74.2,20z"/>
		<path class="st0" d="M85.9,15.8c-0.2-0.3-0.3-0.8-0.1-1.3c1.5-3,3.3-4,3.1-5c-0.1-0.7,0.3-0.8,0.7-0.4c0.4,0.5,0.7,1.4-0.2,2
			c-1,0.8-2.5,2.3-3,3.7c-0.1,0.2-0.1,0.5,0.1,0.7c1.8,2.1,2.7,3.2,3.2,5.5c0.2,1-0.9,1.2-1.1,0.2C88,18.8,87.2,17.5,85.9,15.8z"/>
		<path class="st0" d="M98.2,21.1c9.8,0.1,6.6-10-0.1-3.3C97,18.9,95.9,18.3,96,17c0.1-1.1,0.3-2.9,0.5-4.2c0.2-1.3,1.5-1.4,2.8-1.6
			c0.2,0,0.2-0.2,0.1-0.3c-0.4-0.6-0.9-0.9-1.5-1.1c-0.5-0.2-0.3-0.4,0-0.4c1.7,0.1,2.2,0.5,2.6,1.2c0.6,1,0.3,1.7-0.9,1.4
			c-1.9-0.5-2.3,0-2.4,0.9c0,0.4-0.3,2.4-0.4,3.4c-0.1,1,0.6,0.8,1.1,0.4c8.5-6.1,10.6,5.5,0.2,4.8C97.7,21.4,97.7,21.1,98.2,21.1z"
			/>
		<path class="st0" d="M110.6,11.2c-0.7-0.9,0-1.4,0.7-0.5c0.8,1-0.5,4.8-0.8,6.3c-0.1,0.5,0.2,0.7,0.4,0.1c0.3-1,0.8-2,1.3-2.8
			c0.2-0.4,0.5-0.2,0.3,0.1c-0.5,1.2-1.6,3.9-1.2,5.1c0.5,1.5-0.6,1.8-1.1,0.5c-0.4-0.9-0.5-2-0.3-3.1
			C110.7,13.8,111,11.9,110.6,11.2z M118.7,19.1c-0.1,2.4-4.8,2.6-4.8,0.3c0-1.6,2-1.9,3.9-1.5c0-1,0-2.6,0-4c-1,0-2-0.3-2.9-1.1
			c-0.4-0.3-0.2-0.7,0.3-0.4c0.9,0.5,1.8,0.7,2.6,0.7c0-1.5-0.1-2.7-0.4-3c-0.6-0.8-0.1-1,0.5-0.7c0.9,0.6,0.9,0.9,0.8,2.3
			c0.3,0.2,0.6,0.3,1.1,0.4c0.9,0.2,0.8,0.8-0.2,1.3c-0.3,0.2-0.7,0.3-1,0.4c0,1.1-0.1,2.5,0,4.3c0.8,0.3,1.5,0.7,2,1.2
			c0.8,1,0.2,1.9-0.8,0.8C119.6,19.7,119.1,19.4,118.7,19.1z M117.8,18.7L117.8,18.7c-1.6-0.6-3.3-0.4-3.3,0.7
			C114.5,20.7,117.8,20.6,117.8,18.7z M119.3,12.7c0.1-0.1,0.1-0.2,0-0.3c-0.2-0.1-0.3-0.2-0.5-0.4l-0.1,0.9
			C118.9,12.9,119.1,12.8,119.3,12.7z"/>
		<path class="st0" d="M131.2,17.3c0.4,0.1,0.5,0,0.4-0.3c-0.3-0.7-0.5-1.4-0.8-2.1c-1.7,0.5-3.6,0.5-5-0.4
			c-0.5-0.3-0.1-0.6,0.3-0.4c1.4,0.8,3,0.6,4.4,0.1c-0.3-0.7-0.6-1.4-0.8-2c-1.1,0.2-2.2,0.1-2.9-0.2c-0.5-0.2-0.3-0.6,0.1-0.5
			c0.9,0.3,1.7,0.2,2.4-0.1c-0.4-0.8-0.9-1.4-1.4-1.6c-1.1-0.4-0.7-1,0.3-0.7c0.8,0.2,1.1,0.5,1.8,2c0.3-0.1,0.6-0.3,0.8-0.4
			c0.7-0.3,1.6,0.2,0.7,0.8c-0.2,0.1-0.5,0.2-0.7,0.3c1,0.3,2.4,0.6,3.1,0.6c0.7,0.1,0.8,0.7,0.2,1c-0.7,0.4-1.6,0.8-2.6,1.1
			c0.3,0.7,0.6,1.4,1,2.3c0.6,1.2-0.4,1.9-1.2,1.4c-4-2.8-8.2,3-0.5,2c1.3-0.2,1.8,1,0.6,1.1C123.3,22.2,125,15.7,131.2,17.3z
			 M131.3,14c0.6-0.2,1.1-0.4,1.5-0.7c0.2-0.1,0.2-0.3-0.1-0.4c-0.6-0.2-1.5-0.4-2.2-0.7L131.3,14z M133.2,9.7
			c0.8,0.3,1.2,0.6,1.6,1.4c0.5,0.9-0.5,1.2-0.9,0.4c-0.2-0.5-0.6-1-0.9-1.3C132.6,9.9,132.8,9.6,133.2,9.7z M134.7,9.4
			c0.6,0.2,1.2,0.5,1.6,1.1c0.4,0.7-0.5,1.2-0.9,0.4c-0.2-0.4-0.5-0.8-0.9-1.1C134.1,9.7,134.3,9.3,134.7,9.4z"/>
	</g>
</g>
</svg>
