<?xml version="1.0" encoding="utf-8"?>
<!-- Generator: Adobe Illustrator 25.4.1, SVG Export Plug-In . SVG Version: 6.00 Build 0)  -->
<svg version="1.1" id="レイヤー_1" xmlns="http://www.w3.org/2000/svg" xmlns:xlink="http://www.w3.org/1999/xlink" x="0px"
	 y="0px" viewBox="0 0 420 60" style="enable-background:new 0 0 420 60;" xml:space="preserve">
<style type="text/css">
	.st0{fill:#463243;}
	.st1{fill:#463243;stroke:#463243;stroke-width:2;stroke-linecap:round;stroke-linejoin:round;stroke-miterlimit:10;}
</style>
<g>
	<path class="st0" d="M5.27,5.42c-1-0.87-0.45-1.63,0.6-1.36C7.82,4.52,7.79,5.6,7.69,6.31c-0.1,0.63-0.18,1.36-0.21,2.1
		c-0.05,1.58-0.05,3.1-0.05,4.67c2.99,0.24,5.14,0.89,7.32,3.54c1.63,2.02-0.87,3.6-2.02,1.36c-1.47-2.76-2.97-3.86-5.3-4.09
		c0.05,2.99,0.18,6.22,0.45,10.26c0.21,3.15-2.41,2.94-2.28,0.16C6.35,8.83,6.87,6.78,5.27,5.42z"/>
	<path class="st0" d="M26.31,26.54c7.82-2.39,9.95-7.64,10.18-12.89c0.13-3.36,0.32-6.22-1-7.09c-0.84-0.58-0.89-1.63,0.84-1.21
		c1.55,0.34,2.57,1.36,2.23,2.26c-0.13,0.45-0.08,1.1-0.08,1.81C38.86,19.77,35,25.18,26.44,27.04
		C25.84,27.17,25.63,26.75,26.31,26.54z M29.28,6.78c2.23,0.39,2.33,1.44,2.05,2.31c-0.29,0.76-0.16,2.7,0.03,8.9
		c0.03,1.73-1.89,1.58-1.84-0.03c0.16-8.19,0.74-9.05-0.71-10.21C28.02,7.15,28.31,6.6,29.28,6.78z"/>
	<path class="st0" d="M66.09,16.7c-10.87-0.76-13.04,1.65-15.51-0.13c-1.55-1.15-0.68-1.97,0.5-1.55c2.55,0.87,4.41,0.81,14.7,0.21
		c1.23-0.08,2.83-0.08,3.73,0.29c1.63,0.66,1.5,1.84-0.03,1.58C68.58,16.94,67.58,16.83,66.09,16.7z"/>
	<path class="st0" d="M83.45,5.42c-1-0.87-0.45-1.63,0.6-1.36c1.94,0.47,1.92,1.55,1.81,2.26c-0.1,0.63-0.18,1.36-0.21,2.1
		c-0.05,1.58-0.05,3.1-0.05,4.67c2.99,0.24,5.14,0.89,7.32,3.54c1.63,2.02-0.87,3.6-2.02,1.36c-1.47-2.76-2.97-3.86-5.3-4.09
		c0.05,2.99,0.18,6.22,0.45,10.26c0.21,3.15-2.41,2.94-2.28,0.16C84.52,8.83,85.05,6.78,83.45,5.42z"/>
	<path class="st0" d="M102.66,25.39c4.09-3.46,6.22-6.19,8-9.47c-1.02-1.15-2.1-2.13-3.18-2.7c-0.76-0.47-0.31-0.92,0.29-0.66
		c1.23,0.53,2.49,1.16,3.65,1.92c0.68-1.36,1.34-2.86,2.07-4.57c0.34-0.74,0.52-1.81-0.26-2.76c-0.79-0.92-0.26-1.52,1-1.02
		c2.44,0.94,2.1,2.2,1.47,3.49c-0.92,1.94-1.84,3.86-2.97,5.77c0.87,0.66,1.68,1.39,2.36,2.15c1.89,2.12-0.6,3.94-2.1,1.55
		c-0.42-0.68-0.89-1.36-1.36-1.99c-1.94,2.86-4.57,5.75-8.69,8.74C102.42,26.2,102.06,25.89,102.66,25.39z"/>
	<path class="st0" d="M128.56,9.51c1.71,0.1,3.49,0.63,5.01,2.1c1.78,1.63-0.13,3.15-1.52,1.57c-0.97-1.1-2.55-2.36-3.57-2.76
		C127.62,10.09,127.75,9.43,128.56,9.51z M129.74,21.71c0.21-0.89,0.84-0.92,1.05-0.08c0.05,0.34,0.42,0.45,0.73,0.45
		c4.49,0,11.52-5.93,16.04-12.15c0.52-0.74,1.1-0.45,0.71,0.24c-4.17,7.38-12.07,14.04-16.77,14.04
		C130.19,24.21,129.48,22.74,129.74,21.71z"/>
	<path class="st0" d="M160.56,5.42c-1-0.87-0.45-1.63,0.6-1.36c1.94,0.47,1.92,1.55,1.81,2.26c-0.1,0.63-0.18,1.36-0.21,2.1
		c-0.05,1.58-0.05,3.1-0.05,4.67c2.99,0.24,5.14,0.89,7.32,3.54c1.63,2.02-0.87,3.6-2.02,1.36c-1.47-2.76-2.97-3.86-5.3-4.09
		c0.05,2.99,0.18,6.22,0.45,10.26c0.21,3.15-2.41,2.94-2.28,0.16C161.64,8.83,162.16,6.78,160.56,5.42z"/>
	<path class="st0" d="M182.49,19.75c-0.13-0.89,0.5-0.97,0.76-0.24c1.1,3.12,5.8,3.67,12.2,2.18c2.07-0.5,3.39,1.29,1.5,1.76
		C190.92,25.02,183.25,24.16,182.49,19.75z M186.43,7.17c3.1,0.5,4.41,0.24,7.03-0.58c1.18-0.32,1.76,0.76,0.66,1.42
		c-0.89,0.55-1.71,1.1-2.86,1.97c-0.52,0.39-0.79-0.13-0.37-0.45c0.16-0.13,0.37-0.37,0.47-0.47c0.08-0.05,0.08-0.13-0.1-0.16
		c-2-0.11-3.33-0.29-5.04-0.87C185.41,7.75,185.46,7.04,186.43,7.17z M196.38,4.92c1.34,0.55,2.15,1.13,2.86,2.39
		c0.79,1.52-0.94,2.18-1.65,0.71c-0.37-0.87-1.02-1.79-1.63-2.34C195.41,5.18,195.69,4.66,196.38,4.92z M198.98,4.47
		c1.02,0.31,2.15,0.92,2.81,1.97c0.71,1.21-0.81,2.18-1.58,0.74c-0.37-0.74-0.94-1.44-1.6-1.92C198.06,4.84,198.27,4.26,198.98,4.47
		z"/>
	<path class="st0" d="M230.89,14.44c-0.16,0.05-0.37,0.08-0.66,0.08c-1.36,1.63-3.96,3.81-6.01,5.2c-0.21,0.13-0.34,0.13-0.42,0.08
		c-0.08-0.05-0.05-0.21,0.13-0.42c1.31-1.42,2.97-3.57,3.96-5.2h-7.93v10.68c0,1.31-0.37,2.26-2.83,2.57
		c-0.26,0.05-0.39-0.08-0.47-0.31c-0.1-0.39-0.31-0.68-0.63-0.89c-0.45-0.29-1.23-0.5-2.57-0.68c-0.24-0.03-0.37-0.13-0.37-0.26
		c0-0.11,0.16-0.18,0.42-0.16c0.97,0.08,3.41,0.24,3.96,0.24c0.55,0,0.74-0.18,0.74-0.58v-10.6h-10.63c-0.24,0-0.37-0.13-0.42-0.34
		c-0.08-0.29,0.08-0.45,0.34-0.45h13.15c-0.81-1.29-3.02-3.31-6.17-4.78c-0.21-0.11-0.32-0.21-0.26-0.37
		c0.05-0.16,0.21-0.18,0.45-0.13c2.02,0.42,3.54,0.97,4.64,1.55c1.65-0.97,3.81-2.39,5.22-3.57H210.6c-0.21,0-0.37-0.08-0.45-0.31
		c-0.08-0.29,0.08-0.45,0.34-0.45h14.57l1-0.89c0.18-0.18,0.37-0.16,0.55,0l1.44,1.36c0.21,0.18,0.18,0.47-0.11,0.53
		c-0.18,0.05-0.42,0.08-0.73,0.08c-1.73,1.18-4.93,2.62-7.38,3.57c2.28,1.39,2.47,2.91,1.86,3.41h6.33l0.92-0.89
		c0.18-0.16,0.39-0.16,0.58,0l1.44,1.42C231.18,14.1,231.18,14.37,230.89,14.44z"/>
	<path class="st0" d="M238.65,24.63c0.71-1.73,1.42-4.15,1.78-6.46c0.03-0.26,0.21-0.39,0.45-0.31l1.52,0.39
		c0.26,0.08,0.42,0.34,0.18,0.5c-0.16,0.13-0.37,0.18-0.68,0.21c-0.63,2.15-1.6,4.38-2.76,5.93c-0.16,0.21-0.29,0.26-0.42,0.18
		C238.6,24.99,238.57,24.86,238.65,24.63z M246.19,12.08c4.46,2.47,3.41,5.54,1.92,4.75c-0.18-0.11-0.24-0.24-0.29-0.42
		c-0.13-0.55-0.37-1.13-0.63-1.73c-0.68,0.16-1.42,0.32-2.2,0.47v11.71c0,0.16-0.58,0.58-1.39,0.58c-0.16,0-0.26-0.16-0.26-0.39
		V15.49c-1.02,0.21-2.15,0.42-3.36,0.63c-0.08,0.16-0.18,0.29-0.32,0.39c-0.21,0.13-0.39-0.03-0.47-0.26l-0.31-1.13
		c-0.08-0.29,0.05-0.45,0.31-0.45l2.36-0.13c1.55-2.31,3.28-5.38,4.36-7.77c0.11-0.21,0.29-0.29,0.53-0.21l1.65,0.66
		c0.26,0.1,0.37,0.37,0.11,0.52c-0.16,0.08-0.39,0.13-0.68,0.11c-1.21,1.94-3.2,4.57-5.12,6.64l4.51-0.37
		c-0.34-0.6-0.71-1.21-1.08-1.71c-0.16-0.21-0.18-0.34-0.08-0.42C245.87,11.92,245.98,11.98,246.19,12.08z M245.43,4.68
		c-0.16,0.08-0.37,0.1-0.63,0.1c-0.89,1.39-1.92,2.89-2.94,3.99c1.97,1.47,1.26,3.2,0.13,2.73c-0.18-0.08-0.26-0.21-0.31-0.39
		c-0.42-1.02-1.42-2.2-2.36-3.04c-0.18-0.16-0.26-0.32-0.18-0.39c0.08-0.08,0.21-0.08,0.42-0.03c0.71,0.24,1.26,0.47,1.73,0.76
		c0.63-1.29,1.29-2.99,1.81-4.62c0.08-0.26,0.26-0.37,0.5-0.26l1.71,0.66C245.56,4.29,245.66,4.55,245.43,4.68z M246.58,17.88
		c4.07,2.91,2.83,6.06,1.37,5.12c-0.16-0.11-0.21-0.24-0.24-0.45c-0.18-1.37-0.89-3.1-1.55-4.36c-0.13-0.26-0.13-0.42-0.03-0.45
		C246.27,17.7,246.4,17.75,246.58,17.88z M262.27,9.82c-0.18,0.08-0.42,0.13-0.73,0.16c-0.21,8.27-0.79,14.59-2.1,16.14
		c-0.71,0.79-1.63,1.18-2.83,1.26c-0.26,0-0.39-0.13-0.42-0.39c-0.05-0.37-0.18-0.71-0.5-0.92c-0.42-0.32-1.63-0.58-2.76-0.79
		c-0.24-0.05-0.34-0.16-0.34-0.32c0-0.13,0.16-0.21,0.42-0.18c1.39,0.16,3.36,0.34,3.96,0.34s0.81-0.1,1.13-0.39
		c1.02-0.97,1.52-7.3,1.76-14.99h-7.98c-0.76,1.5-1.63,2.83-2.57,3.94c-0.16,0.18-0.29,0.24-0.42,0.13
		c-0.13-0.08-0.13-0.24-0.03-0.47c1.29-2.39,2.49-5.91,3.2-9.4c0.05-0.26,0.24-0.39,0.47-0.31l1.81,0.55
		c0.26,0.08,0.42,0.34,0.16,0.5c-0.16,0.1-0.37,0.16-0.63,0.16c-0.47,1.44-1.02,2.86-1.63,4.17h7.32l0.76-0.87
		c0.16-0.18,0.37-0.21,0.55-0.05l1.42,1.18C262.51,9.46,262.54,9.69,262.27,9.82z M252.38,13.47c5.35,2.83,4.07,6.75,2.39,5.72
		c-0.18-0.11-0.24-0.24-0.26-0.45c-0.24-1.63-1.34-3.6-2.42-4.93c-0.18-0.21-0.24-0.37-0.13-0.42
		C252.04,13.34,252.17,13.37,252.38,13.47z"/>
	<path class="st0" d="M278.47,6.65c-0.21,0.11-0.47,0.21-0.76,0.26v16.51c-0.03,0.21-0.84,0.63-1.42,0.63
		c-0.13,0-0.24-0.16-0.24-0.39v-1.42h-3.67v2.42c0,0.16-0.53,0.6-1.37,0.6c-0.16,0-0.26-0.16-0.26-0.39V5.47
		c0-0.29,0.16-0.45,0.45-0.32l1.52,0.66h3.07l0.68-0.79c0.16-0.18,0.37-0.21,0.55-0.05l1.44,1.13
		C278.68,6.28,278.7,6.52,278.47,6.65z M272.38,13.6h3.67V6.6h-3.67V13.6z M276.05,14.39h-3.67v7.11h3.67V14.39z M278.23,12.53
		c-0.05-0.26,0.08-0.42,0.34-0.42h6.04V8.25h-5.12c-0.24,0-0.39-0.13-0.45-0.34c-0.05-0.26,0.08-0.42,0.34-0.42h5.22V3.92
		c0-0.26,0.16-0.39,0.42-0.37l1.76,0.18c0.26,0.03,0.47,0.26,0.29,0.47c-0.16,0.13-0.42,0.26-0.79,0.32v2.96h3.39l0.97-1.21
		c0.16-0.18,0.34-0.24,0.55-0.08c0.39,0.31,1.08,0.87,1.65,1.39c0.18,0.16,0.26,0.37,0.08,0.52c-0.13,0.08-0.32,0.13-0.53,0.13
		h-6.12v3.86h4.23l0.97-1.26c0.16-0.18,0.34-0.24,0.55-0.08c0.42,0.31,1.16,0.92,1.71,1.44c0.16,0.16,0.26,0.37,0.08,0.52
		c-0.11,0.08-0.29,0.13-0.5,0.13h-14.64C278.44,12.87,278.28,12.74,278.23,12.53z M292.32,15.23c0.39,0.29,1.08,0.84,1.6,1.34
		c0.16,0.16,0.24,0.37,0.08,0.5c-0.13,0.1-0.32,0.16-0.53,0.16h-3.86v7.69c0,1.34-0.24,2.15-2.39,2.44
		c-0.26,0.05-0.39-0.08-0.47-0.32c-0.08-0.37-0.24-0.66-0.52-0.84c-0.37-0.29-0.97-0.45-1.97-0.6c-0.24-0.03-0.37-0.13-0.37-0.26
		c0-0.13,0.16-0.21,0.39-0.18c0.81,0.05,2.6,0.16,3.02,0.16c0.5,0,0.63-0.13,0.63-0.52v-7.56h-9.13c-0.24,0-0.39-0.13-0.45-0.34
		c-0.05-0.26,0.08-0.42,0.34-0.42h9.24v-2.65c0-0.26,0.16-0.39,0.42-0.37l1.68,0.18c0.29,0.03,0.47,0.26,0.26,0.45
		c-0.16,0.13-0.37,0.21-0.68,0.26v2.13h1.26l0.89-1.16C291.93,15.13,292.11,15.07,292.32,15.23z M280.8,18.3
		c5.2,2.05,4.04,5.56,2.36,4.7c-0.18-0.11-0.24-0.24-0.29-0.42c-0.37-1.29-1.42-2.81-2.39-3.86c-0.18-0.21-0.24-0.34-0.13-0.42
		C280.46,18.22,280.59,18.22,280.8,18.3z"/>
	<path class="st0" d="M310.51,24.34c4.96-0.05,10.84-2.2,10.66-8.32c-0.16-5.41-4.51-7.66-8.77-7.19c0.71,15.48-9.45,17.3-9.68,9.45
		c-0.34-12.28,19.79-15.04,20.16-2.36c0.16,6.59-5.64,9.87-12.39,9C309.83,24.84,309.93,24.34,310.51,24.34z M311.4,8.99
		c-3.86,0.84-7.4,3.99-7.24,9.13C304.32,23.18,311.59,20.87,311.4,8.99z"/>
	<path class="st0" d="M333.42,19.75c-0.13-0.89,0.5-0.97,0.76-0.24c1.1,3.12,5.8,3.67,12.2,2.18c2.07-0.5,3.39,1.29,1.5,1.76
		C341.85,25.02,334.18,24.16,333.42,19.75z M337.36,7.17c3.1,0.5,4.41,0.24,7.03-0.58c1.18-0.32,1.76,0.76,0.66,1.42
		c-0.89,0.55-1.71,1.1-2.86,1.97c-0.53,0.39-0.79-0.13-0.37-0.45c0.16-0.13,0.37-0.37,0.47-0.47c0.08-0.05,0.08-0.13-0.11-0.16
		c-1.99-0.11-3.33-0.29-5.04-0.87C336.33,7.75,336.39,7.04,337.36,7.17z M347.3,4.92c1.34,0.55,2.15,1.13,2.86,2.39
		c0.79,1.52-0.95,2.18-1.65,0.71c-0.37-0.87-1.02-1.79-1.63-2.34C346.33,5.18,346.62,4.66,347.3,4.92z M349.9,4.47
		c1.02,0.31,2.15,0.92,2.81,1.97c0.71,1.21-0.81,2.18-1.58,0.74c-0.37-0.74-0.94-1.44-1.6-1.92C348.98,4.84,349.19,4.26,349.9,4.47z
		"/>
	<path class="st0" d="M360.32,9.67c4.99,0.74,4.36,4.07,2.68,3.49c-0.21-0.05-0.29-0.18-0.37-0.37c-0.47-0.97-1.52-2.02-2.52-2.68
		c-0.21-0.16-0.31-0.29-0.24-0.37C359.96,9.64,360.09,9.62,360.32,9.67z M367.57,8.41c-1.18,3.39-3.2,9.21-3.54,10.42
		c-0.24,0.87-0.42,1.68-0.39,2.34c0,1.16,0.74,2.36,0.63,4.49c0,1.1-0.53,1.78-1.42,1.78c-0.47,0-0.73-0.37-0.81-1.05
		c-0.03-0.18-0.03-0.29,0-0.47c0.32-2.55,0.13-4.46-0.39-4.86c-0.26-0.21-0.55-0.29-0.92-0.32c-0.24-0.05-0.37-0.16-0.37-0.34
		s0.16-0.29,0.39-0.29h0.76c0.31,0,0.42-0.03,0.63-0.52c0.47-0.95,0.47-0.95,4.91-11.34c0.11-0.24,0.24-0.34,0.42-0.32
		C367.62,7.99,367.65,8.15,367.57,8.41z M362.19,4c5.17,0.87,4.46,4.36,2.73,3.75c-0.21-0.05-0.29-0.18-0.37-0.37
		c-0.47-1.02-1.57-2.21-2.57-2.94c-0.21-0.18-0.29-0.32-0.21-0.39C361.85,3.97,361.98,3.95,362.19,4z M382.08,24.42
		c0.42,0.31,1.13,0.92,1.71,1.44c0.18,0.16,0.26,0.37,0.08,0.5c-0.13,0.08-0.29,0.13-0.5,0.13h-16.9c-0.21,0-0.39-0.11-0.45-0.34
		c-0.05-0.24,0.08-0.39,0.34-0.39h7.66v-8.27h-5.98c-0.24,0-0.37-0.13-0.42-0.34c-0.08-0.29,0.08-0.45,0.34-0.45h6.06V9.88h-6.04
		c-0.24,0-0.39-0.13-0.45-0.34c-0.05-0.26,0.08-0.42,0.34-0.42h12.34l1-1.26c0.16-0.18,0.34-0.24,0.55-0.08l1.68,1.44
		c0.18,0.16,0.26,0.37,0.11,0.53c-0.13,0.08-0.32,0.13-0.53,0.13h-7.3v6.82h3.88l0.97-1.21c0.16-0.18,0.34-0.24,0.55-0.08
		c0.39,0.31,1.1,0.89,1.68,1.42c0.16,0.16,0.24,0.37,0.05,0.52c-0.11,0.08-0.32,0.13-0.53,0.13h-6.61v8.27h4.8l1-1.26
		C381.69,24.31,381.87,24.26,382.08,24.42z M371.58,3.53c5.8,1.58,4.88,5.59,2.99,4.8c-0.18-0.08-0.26-0.21-0.31-0.39
		c-0.45-1.39-1.73-2.97-2.91-3.99c-0.21-0.18-0.29-0.31-0.21-0.39C371.22,3.47,371.37,3.47,371.58,3.53z"/>
	<path class="st0" d="M395.7,21.45c0.39,2.68-0.92,4.23-2,4.78c-0.73,0.34-1.65,0.37-1.89-0.24c-0.18-0.55,0.18-1,0.74-1.26
		c1.15-0.45,2.39-1.63,2.57-3.25c0.03-0.26,0.11-0.39,0.26-0.39S395.65,21.22,395.7,21.45z M413.31,8.59
		c0.42,0.32,1.15,0.92,1.76,1.44c0.18,0.16,0.26,0.37,0.08,0.53c-0.13,0.08-0.29,0.13-0.5,0.13h-22.33c-0.21,0-0.37-0.08-0.45-0.31
		c-0.08-0.29,0.08-0.45,0.34-0.45h7.35h-0.03c-0.03-0.03-0.21-0.26-0.24-0.47c-0.1-0.97-0.66-2.13-1.18-2.81h-4.17
		c-0.21,0-0.39-0.13-0.45-0.34c-0.08-0.29,0.08-0.45,0.34-0.45h8.77V3.79c0-0.26,0.16-0.39,0.42-0.37l1.81,0.18
		c0.29,0.03,0.47,0.26,0.26,0.47c-0.16,0.13-0.39,0.24-0.76,0.29v1.5h6.04l1.02-1.26c0.16-0.18,0.34-0.24,0.55-0.08
		c0.42,0.31,1.16,0.92,1.76,1.47c0.16,0.16,0.24,0.37,0.08,0.53c-0.13,0.08-0.32,0.13-0.53,0.13h-5.72l1.55,0.45
		c0.26,0.08,0.42,0.34,0.16,0.47c-0.16,0.1-0.37,0.16-0.63,0.13c-0.52,0.68-1.29,1.5-2.05,2.23h5.14l1.05-1.29
		C412.92,8.43,413.1,8.43,413.31,8.59z M397.75,19.88c0,0.16-0.74,0.55-1.44,0.55c-0.16,0-0.26-0.16-0.26-0.39v-7.82
		c0-0.29,0.21-0.42,0.47-0.29l1.39,0.6H409l0.71-0.76c0.16-0.18,0.37-0.21,0.55-0.05l1.47,1.1c0.21,0.16,0.26,0.42,0,0.55
		c-0.21,0.11-0.47,0.21-0.76,0.26v5.8c0,0.18-0.03,0.34-0.18,0.42c-0.29,0.18-0.84,0.39-1.26,0.39c-0.16,0-0.26-0.16-0.26-0.39
		v-0.58h-11.52V19.88z M397.75,15.49h11.52v-2.18h-11.52V15.49z M409.27,16.26h-11.52v2.23h11.52V16.26z M410.13,25.94
		c0,0.81-0.87,1.08-5.72,1.08h-3.54c-2.31,0-2.73-0.34-2.73-1.65v-4.17c0-0.26,0.16-0.39,0.42-0.37l1.52,0.18
		c0.29,0.03,0.47,0.26,0.24,0.47c-0.11,0.08-0.29,0.16-0.5,0.18v3.44c0,0.37,0.11,0.42,1.26,0.42h3.41c1.5,0,2.7,0,3.1-0.05
		c0.26-0.03,0.39-0.05,0.47-0.13c0.13-0.1,0.16-0.24,0.24-0.39c0.18-0.42,0.37-1.18,0.55-2.07c0.05-0.26,0.16-0.37,0.26-0.37
		c0.1,0,0.18,0.16,0.18,0.39l0.08,2.36C409.98,25.44,410.13,25.62,410.13,25.94z M400.61,9.93h5.14c0.39-1,0.81-2.28,1.08-3.28
		h-7.95C401.37,7.75,401.34,9.41,400.61,9.93z M401.97,20.09c5.12,0.97,4.7,4.2,3.07,3.81c-0.18-0.05-0.29-0.18-0.39-0.34
		c-0.55-1.05-1.81-2.23-2.89-3.02c-0.24-0.16-0.32-0.29-0.24-0.37S401.76,20.06,401.97,20.09z M410.19,21.06
		c6.19,2.05,5.54,5.93,3.75,5.22c-0.18-0.08-0.26-0.21-0.32-0.39c-0.58-1.55-2.23-3.31-3.67-4.44c-0.21-0.18-0.29-0.32-0.21-0.39
		C409.82,20.98,409.98,20.98,410.19,21.06z"/>
</g>
<line class="st1" x1="126.49" y1="56.58" x2="285.49" y2="56.58"/>
</svg>
