<?xml version="1.0" encoding="utf-8"?>
<!-- Generator: Adobe Illustrator 25.4.1, SVG Export Plug-In . SVG Version: 6.00 Build 0)  -->
<svg version="1.1" id="レイヤー_1" xmlns="http://www.w3.org/2000/svg" xmlns:xlink="http://www.w3.org/1999/xlink" x="0px"
	 y="0px" viewBox="0 0 110 30" style="enable-background:new 0 0 110 30;" xml:space="preserve">
<style type="text/css">
	.st0{fill:#231815;}
</style>
<g>
	<g>
		<path class="st0" d="M28.96,22.79V6.41c0-3.55-0.18-4.59-4.14-4.72V0.51h9.76v1.17c-4,0.09-4.23,1.17-4.23,4.72v22.86h-0.99
			L7.14,5.06v18.31c0,3.55,0.23,4.63,4.19,4.77v1.12H2.14v-1.12c3.51-0.27,3.65-1.39,3.65-4.77V6.41c0-3.69-0.23-4.68-4.54-4.72
			V0.51h7.2L28.96,22.79z"/>
		<path class="st0" d="M48.74,29.49c-4.9,0-8.42-3.73-8.42-9.22c0-5.04,3.87-8.91,8.82-8.91c3.78,0,6.44,2.34,6.71,6.07H43.83
			c-0.14,0.95-0.23,1.8-0.23,2.7c0,4.28,2.79,7.42,6.57,7.42c1.76,0,3.33-0.72,5.18-1.98l0.58,0.67
			C53.91,28.41,51.53,29.49,48.74,29.49z M52.56,16.4c-0.09-2.7-1.39-4-3.91-4c-2.21,0-3.78,1.39-4.5,4H52.56z"/>
		<path class="st0" d="M78.61,21.57l-1.8-4.32L71,29.49h-0.99c-1.71-4.5-2.75-7.15-3.06-7.92l-1.57-3.78
			c-1.39-3.38-2.07-5.17-3.74-5.17c-0.09,0-0.18,0-0.27,0v-0.95h7.92v0.95c-1.3,0.09-1.84,0.41-1.84,1.26
			c0,0.54,0.18,1.31,0.54,2.29l3.51,9.27l4.68-9.63c-0.81-2.16-1.71-3.2-2.97-3.2c-0.05,0-0.14,0-0.23,0v-0.95h7.96v0.95
			c-1.3,0.09-1.84,0.41-1.84,1.26c0,0.54,0.18,1.31,0.54,2.29l3.51,9.27l3.38-7.87c0.77-1.8,1.04-3.06,1.04-3.55
			c0-1.12-0.4-1.35-1.89-1.4v-0.95h5.44v0.95c-1.26,0.09-1.89,1.44-2.92,3.92l-5.54,12.96h-0.99
			C79.96,24.95,78.92,22.29,78.61,21.57z"/>
		<path class="st0" d="M97.78,23.91l0.72,0.04c0.63,2.97,2.12,4.5,4.32,4.5c1.94,0,3.24-1.22,3.24-3.06c0-1.93-1.3-2.79-3.51-4
			c-3.02-1.67-4.81-2.74-4.81-5.22c0-2.79,2.34-4.86,6.3-4.86c1.12,0,2.29,0.18,3.55,0.58v3.73L107,15.72
			c-1.12-2.29-2.12-3.42-3.6-3.42c-1.75,0-2.83,1.08-2.83,2.65c0,1.89,1.49,2.61,4.01,3.96c2.65,1.39,4.18,2.47,4.18,5.04
			c0,3.1-2.7,5.53-6.07,5.53c-2.56,0-4.46-0.72-5.49-1.98L97.78,23.91z"/>
	</g>
</g>
</svg>
