<?xml version="1.0" encoding="utf-8"?>
<!-- Generator: Adobe Illustrator 25.4.1, SVG Export Plug-In . SVG Version: 6.00 Build 0)  -->
<svg version="1.1" id="レイヤー_1" xmlns="http://www.w3.org/2000/svg" xmlns:xlink="http://www.w3.org/1999/xlink" x="0px"
	 y="0px" viewBox="0 0 230 72" style="enable-background:new 0 0 230 72;" xml:space="preserve">
<style type="text/css">
	.st0{fill:#463243;stroke:#463243;stroke-width:4;stroke-linecap:round;stroke-linejoin:round;stroke-miterlimit:10;}
	.st1{fill:#463143;}
</style>
<line class="st0" x1="9" y1="69.1" x2="221" y2="69.1"/>
<g>
	<g>
		<path class="st1" d="M45.55,30.1c-9.13,0-15.16-5.71-15.16-14.35c0-5.13,1.98-9.04,6.16-12.15c2.25-1.67,5.44-2.7,9.13-2.7
			c4.14,0,7.65,1.17,10.53,3.46l-0.58,5.71l-0.68-0.23c-1.3-4.99-4.81-7.78-9.67-7.78c-6.52,0-10.3,4.77-10.3,13.45
			c0,8.37,4.41,13.45,11.02,13.45c4.46,0,7.74-2.43,9.76-7.29h1.04l-0.63,4.86C53.24,28.84,49.51,30.1,45.55,30.1z"/>
		<path class="st1" d="M73.38,30.1c-5.13,0-8.73-3.65-8.73-9.09c0-5.13,4-9.04,9.4-9.04c5.08,0,8.73,3.64,8.73,8.86
			C82.78,26.23,78.73,30.1,73.38,30.1z M79.09,21.06c0-5.22-1.98-8.05-5.4-8.05c-3.1,0-5.4,2.97-5.4,8.05
			c0,5.17,1.94,8.01,5.35,8.01C76.75,29.07,79.09,26.1,79.09,21.06z"/>
		<path class="st1" d="M97.92,28.93v0.94h-8.77v-0.94c2.48-0.09,2.74-0.9,2.74-3.33v-9.99l-1.57-1.17v-0.58l3.91-2.11l0.77,0.4v1.76
			c2.11-1.26,4-1.94,5.98-1.94c4.32,0,6.25,2.07,6.25,6.61v7.02c0,2.43,0.22,3.24,2.7,3.33v0.94h-8.73v-0.94
			c2.47-0.09,2.7-0.9,2.7-3.33v-5.71c0-4.27-0.99-6.3-4.23-6.3c-1.71,0-3.2,0.68-4.46,1.98V25.6
			C95.22,28.03,95.45,28.84,97.92,28.93z"/>
		<path class="st1" d="M123.88,30.1c-4.54,0-7.69-3.29-7.69-8.41c0-5.76,3.96-9.81,9.58-9.81c2.88,0,4.68,1.21,4.68,2.56
			c0,0.77-0.59,1.31-1.44,1.31c-0.72,0-1.3-0.4-2.03-0.94c-0.94-0.72-1.71-1.49-3.06-1.49c-2.43,0-4.46,2.83-4.46,7.25
			c0,4.59,2.66,7.69,6.03,7.69c1.71,0,3.29-0.9,5.17-2.52l0.67,0.72C129.19,28.89,126.72,30.1,123.88,30.1z"/>
		<path class="st1" d="M146.12,30.1c-4.9,0-8.41-3.73-8.41-9.22c0-5.04,3.87-8.91,8.82-8.91c3.78,0,6.43,2.34,6.71,6.07h-12.01
			c-0.13,0.94-0.23,1.8-0.23,2.7c0,4.27,2.79,7.42,6.57,7.42c1.75,0,3.33-0.72,5.17-1.98l0.58,0.68
			C151.29,29.02,148.91,30.1,146.12,30.1z M149.95,17.01c-0.09-2.7-1.39-4-3.92-4c-2.21,0-3.78,1.4-4.5,4H149.95z"/>
		<path class="st1" d="M168.16,39.37c0.09,0,0.14,0,0.23,0v0.9h-9.27v-0.9c2.47-0.09,2.7-0.94,2.7-3.38V15.61l-1.53-1.17v-0.58
			l4.05-2.11l0.81,0.4v2.02c1.94-1.53,3.83-2.25,5.85-2.25c4.59,0,7.92,3.37,7.92,8.68c0,5.35-4,9.58-9.09,9.58
			c-1.44,0-2.97-0.36-4.68-1.08V36C165.14,38.52,165.46,39.37,168.16,39.37z M165.14,26.32c1.08,1.8,2.92,2.83,5.04,2.83
			c3.33,0,5.49-2.75,5.49-7.56c0-5.22-2.48-8.23-5.94-8.23c-1.67,0-3.06,0.72-4.59,2.2V26.32z"/>
		<path class="st1" d="M185.47,13.72v-0.77l4.5-4.68h0.67v4h5.62v1.44h-5.62V23.8c0,3.33,0.5,4.68,3.42,4.68
			c0.63,0,1.44-0.13,2.38-0.5l0.32,0.81c-0.95,0.81-2.57,1.31-4.63,1.31c-4,0-4.82-2.07-4.82-6.79v-9.58H185.47z"/>
	</g>
</g>
</svg>
