<?xml version="1.0" encoding="utf-8"?>
<!-- Generator: Adobe Illustrator 25.4.1, SVG Export Plug-In . SVG Version: 6.00 Build 0)  -->
<svg version="1.1" id="レイヤー_1" xmlns="http://www.w3.org/2000/svg" xmlns:xlink="http://www.w3.org/1999/xlink" x="0px"
	 y="0px" viewBox="0 0 750 30" style="enable-background:new 0 0 750 30;" xml:space="preserve">
<style type="text/css">
	.st0{fill:#463243;}
	.st1{fill:none;stroke:#463243;stroke-miterlimit:10;}
</style>
<g>
	<g>
		<path class="st0" d="M19.56,19.92c0.8,0,2.48,0,3.46-0.03c0.15,0,0.23,0.04,0.23,0.1s-0.06,0.1-0.18,0.17
			c-0.2,0.1-0.32,0.29-0.38,0.5c-0.03,0.13-0.11,0.21-0.24,0.21h-2.99c-3.57,0-5.49-0.65-6.72-3.65c-0.58,1.48-1.5,2.94-3.03,3.94
			c-0.12,0.08-0.21,0.09-0.25,0.03c-0.04-0.06-0.02-0.13,0.09-0.24c1.69-1.57,2.46-4.02,2.75-6.21c0.01-0.13,0.12-0.21,0.25-0.18
			l1.06,0.21c0.15,0.03,0.25,0.18,0.12,0.28c-0.09,0.08-0.22,0.12-0.42,0.14c-0.11,0.54-0.25,1.08-0.43,1.63
			c0.66,1.47,1.57,2.25,2.85,2.67v-6.66h-3.01v0.62c0,0.1-0.42,0.33-0.81,0.33c-0.1,0-0.17-0.09-0.17-0.22V8.34
			c0-0.16,0.12-0.24,0.27-0.16l0.79,0.34h6.79l0.4-0.44c0.09-0.1,0.21-0.12,0.32-0.03l0.84,0.65c0.13,0.1,0.15,0.23,0.01,0.31
			c-0.12,0.06-0.27,0.12-0.43,0.15v4.17c-0.02,0.1-0.51,0.34-0.84,0.34c-0.09,0-0.15-0.09-0.15-0.22v-0.62h-3.01v2.97h3.19
			l0.58-0.72c0.09-0.1,0.2-0.14,0.32-0.04c0.24,0.18,0.67,0.54,1.02,0.84c0.11,0.09,0.15,0.21,0.05,0.3
			c-0.06,0.05-0.17,0.08-0.29,0.08h-4.88v3.48C17.55,19.87,18.48,19.92,19.56,19.92z M19.75,8.97h-7.03v3.43h7.03V8.97z"/>
		<path class="st0" d="M38.14,17.74c-0.09,0.02-0.19,0-0.34-0.03c-0.54,0.34-1.42,0.76-2.28,1.08c1.11,0.63,2.49,1.04,4.02,1.26
			c0.13,0.02,0.21,0.07,0.21,0.12c0,0.04-0.06,0.07-0.2,0.13c-0.24,0.1-0.43,0.3-0.55,0.58c-0.06,0.12-0.15,0.18-0.29,0.15
			c-2.73-0.67-4.62-1.89-5.61-4.18h-0.17c-0.57,0.42-1.23,0.79-1.97,1.11v1.71l2.81-0.45c0.13-0.03,0.24,0,0.25,0.08
			c0.01,0.09-0.04,0.13-0.18,0.18c-1.33,0.45-3.03,0.96-5.32,1.47c-0.03,0.1-0.08,0.18-0.13,0.24c-0.11,0.09-0.24,0.02-0.3-0.1
			l-0.39-0.72c-0.08-0.15-0.03-0.27,0.13-0.29c0.56-0.06,1.31-0.15,2.16-0.27v-1.47c-1.17,0.42-2.49,0.73-3.84,0.96
			c-0.13,0.02-0.21-0.02-0.25-0.1c-0.03-0.08,0.03-0.15,0.18-0.19c2.03-0.5,3.92-1.23,5.25-2.15h-4.93c-0.12,0-0.23-0.08-0.25-0.2
			c-0.04-0.16,0.04-0.25,0.19-0.25h5.99V15.3h-4.86c-0.13,0-0.22-0.08-0.25-0.19c-0.03-0.15,0.04-0.24,0.2-0.24h4.92v-1.05h-3.15
			v0.38c0,0.09-0.42,0.28-0.81,0.28c-0.08,0-0.13-0.09-0.13-0.22v-4.21c0-0.17,0.12-0.25,0.27-0.18l0.75,0.36h7.08l0.38-0.4
			c0.09-0.1,0.21-0.1,0.31-0.02l0.77,0.57c0.12,0.09,0.15,0.24,0,0.31c-0.11,0.06-0.23,0.09-0.36,0.12v3.08
			c-0.01,0.1-0.5,0.33-0.81,0.33c-0.09,0-0.15-0.08-0.15-0.2v-0.19h-3.18v1.05h3.55l0.5-0.54c0.09-0.1,0.2-0.12,0.31-0.04
			c0.21,0.14,0.56,0.41,0.87,0.65c0.11,0.09,0.15,0.21,0.04,0.3c-0.07,0.05-0.17,0.08-0.27,0.08h-5.01v1.11h4.46l0.52-0.58
			c0.09-0.1,0.2-0.12,0.32-0.04c0.21,0.17,0.6,0.45,0.92,0.72c0.09,0.07,0.15,0.19,0.04,0.28c-0.06,0.04-0.17,0.08-0.29,0.08h-2.05
			l0.93,0.58C38.26,17.53,38.29,17.71,38.14,17.74z M26.44,8.86h5.86v-1.1c0-0.15,0.09-0.23,0.24-0.21l1.02,0.09
			c0.17,0.02,0.27,0.15,0.15,0.27c-0.09,0.08-0.22,0.14-0.42,0.17v0.78h4.16l0.57-0.72c0.09-0.1,0.2-0.13,0.32-0.04
			c0.24,0.19,0.66,0.52,0.99,0.84c0.1,0.09,0.15,0.21,0.04,0.3c-0.08,0.04-0.18,0.07-0.3,0.07H26.5c-0.13,0-0.21-0.07-0.24-0.19
			l-0.02-0.03C26.2,8.94,26.29,8.86,26.44,8.86z M29.17,11.79h3.15v-1.12h-3.15V11.79z M32.32,12.21h-3.15v1.15h3.15V12.21z
			 M33.28,11.79h3.18v-1.12h-3.18V11.79z M36.46,12.21h-3.18v1.15h3.18V12.21z M35.14,18.57c0.72-0.52,1.5-1.22,1.94-1.71h-3.63
			C33.88,17.55,34.45,18.1,35.14,18.57z"/>
	</g>
</g>
<rect x="1" y="3.19" class="st1" width="49.01" height="23.62"/>
<g>
	<g>
		<path class="st0" d="M167.65,10.75c0.08-0.09,0-0.17-0.13-0.09c-0.71,0.4-1.58,0.4-2.14,0.09c-0.6-0.34-0.53-1.02,0.1-0.71
			c0.55,0.26,1.41,0.15,2.47-0.46c1.02-0.58,1.41,0.42,0.75,0.98c-4,3.25-4.84,8.95-0.67,8.95c5.5,0,4.21-7.47,3.21-9.85
			c-0.36-0.83,0.65-1.05,0.92-0.33c0.84,2.08,1.83,3.03,3.04,3.99c0.85,0.67,0.2,1.5-0.6,0.87c-0.63-0.5-1.56-1.6-2-2.5
			c-0.08-0.15-0.18-0.12-0.13,0.04c1.12,4.71-0.54,8.77-4.53,8.77C163.96,20.5,163.04,15.51,167.65,10.75z"/>
		<path class="st0" d="M181.97,15.28c1.58-0.45,3.13,0.02,4.23,0.42c0.39,0.17,0.64-0.09,0.48-0.7c-0.09-0.3-0.66-1.37-1.29-2.46
			c-2.5,0.81-5.11,0.67-6-0.14c-0.46-0.44-0.22-0.73,0.29-0.42c1.2,0.77,3.39,0.46,5.28-0.18c-0.54-0.9-1.05-1.7-1.29-1.98
			c-0.6-0.72,0.29-1.17,0.81-0.9c0.95,0.48,2.13,0.85,3.58,0.93c0.48,0.02,1.12,0.48,0.22,1.19c-0.66,0.51-1.39,0.92-2.17,1.23
			c0.68,1.27,1.19,2.44,1.49,3.36c0.5,1.47-0.72,1.62-1.62,1.06c-0.85-0.51-2.31-1.27-3.93-0.89c-2.54,0.6-1,4.26,3.85,3.48
			c0.99-0.18,1.62,0.78,0.51,1C180.59,21.55,178.47,16.29,181.97,15.28z M185.7,11.52c0.54-0.23,1.02-0.46,1.42-0.72
			c0.33-0.18,0.27-0.31-0.02-0.39c-0.66-0.2-1.36-0.41-2.23-0.85c-0.22-0.12-0.38-0.03-0.2,0.24
			C185.06,10.38,185.39,10.95,185.7,11.52z M188.18,7.95c0.76,0.31,1.23,0.65,1.63,1.38c0.45,0.87-0.54,1.23-0.95,0.39
			c-0.21-0.48-0.58-1.01-0.93-1.32C187.62,8.11,187.79,7.81,188.18,7.95z M189.68,7.69c0.57,0.19,1.21,0.54,1.59,1.13
			c0.41,0.7-0.45,1.26-0.9,0.43c-0.21-0.43-0.54-0.82-0.91-1.09C189.14,7.92,189.26,7.59,189.68,7.69z"/>
	</g>
</g>
<rect x="152.84" y="3.19" class="st1" width="49.01" height="23.62"/>
<rect x="57.46" y="3.19" class="st1" width="87.36" height="23.62"/>
<g>
	<g>
		<path class="st0" d="M68.67,18.88c-0.35,0.44-0.71,0.78-1.14,0.92c-0.85,0.25-2.34-0.56-0.88-1.08c2.25-0.81,2.94-2.5,5.1-3.5
			c-0.9-2.01-1.33-3.19,0.57-3.7c1.23-0.33,0.09-1.74-0.51-2.27c-0.45-0.4-0.12-0.65,0.31-0.38c3.12,2,2.34,3.24,0.88,3.15
			c-1.63-0.1-1.74,0.6-0.58,2.94c3.11-0.94,6.69,1.29,6.69,3.72c0,1.59-1.31,1.56-1.31,0.44c0-3.13-2.49-4.33-5.14-3.67
			c0.38,0.72,0.86,1.59,1.42,2.61c1.28,2.33-1.23,2.88-2.42,1.86C70.94,19.3,69.92,19.02,68.67,18.88z M71.82,19.21
			c0.66,0.24,1.54,0,1.26-0.79c-0.36-1.04-0.76-1.97-1.14-2.76c-1.49,0.58-2.28,1.89-3.01,2.88C70.01,18.69,71.24,19,71.82,19.21z"
			/>
		<path class="st0" d="M83.51,15.03c-0.24-0.33-0.34-0.81-0.12-1.26c1.54-3.02,3.32-4.02,3.12-5c-0.13-0.7,0.34-0.81,0.66-0.4
			c0.42,0.54,0.66,1.4-0.18,2c-1.02,0.76-2.49,2.31-3.04,3.66c-0.1,0.24-0.1,0.45,0.11,0.69c1.8,2.1,2.71,3.17,3.21,5.5
			c0.2,0.99-0.86,1.19-1.08,0.17C85.63,18,84.8,16.69,83.51,15.03z"/>
		<path class="st0" d="M95.77,20.28c9.75,0.07,6.63-10.03-0.08-3.29c-1.08,1.08-2.16,0.52-2.08-0.75c0.06-1.11,0.32-2.86,0.51-4.18
			c0.2-1.32,1.47-1.41,2.79-1.59c0.21-0.03,0.21-0.21,0.12-0.33c-0.39-0.58-0.85-0.85-1.53-1.12c-0.46-0.19-0.27-0.45,0-0.45
			c1.68,0.06,2.16,0.5,2.62,1.23c0.63,0.96,0.33,1.68-0.85,1.37c-1.92-0.53-2.34,0.03-2.43,0.9c-0.04,0.4-0.27,2.38-0.42,3.36
			c-0.12,0.99,0.55,0.79,1.14,0.39c8.55-6.12,10.65,5.48,0.18,4.81C95.26,20.59,95.31,20.26,95.77,20.28z"/>
		<path class="st0" d="M108.15,10.44c-0.67-0.93,0.03-1.4,0.74-0.5c0.81,1.05-0.46,4.77-0.75,6.3c-0.11,0.54,0.24,0.71,0.42,0.09
			c0.27-1.02,0.76-2.01,1.26-2.82c0.22-0.38,0.48-0.22,0.33,0.14c-0.51,1.25-1.56,3.93-1.2,5.14c0.46,1.52-0.6,1.83-1.12,0.51
			c-0.36-0.92-0.54-2-0.29-3.09C108.27,12.96,108.6,11.08,108.15,10.44z M116.25,18.31c-0.09,2.45-4.79,2.6-4.79,0.3
			c0-1.56,2.04-1.9,3.95-1.47c0.03-1.02,0.04-2.56,0.03-4c-0.98,0.03-2.03-0.3-2.91-1.11c-0.38-0.34-0.17-0.66,0.32-0.38
			c0.88,0.52,1.78,0.71,2.58,0.66c-0.04-1.46-0.15-2.7-0.39-3.02c-0.57-0.78-0.08-1.02,0.51-0.67c0.9,0.56,0.93,0.9,0.81,2.31
			c0.28,0.18,0.57,0.3,1.06,0.4c0.86,0.15,0.83,0.77-0.2,1.32c-0.31,0.18-0.66,0.3-1.02,0.39c-0.04,1.08-0.08,2.48,0,4.32
			c0.83,0.27,1.54,0.69,2.01,1.21c0.84,0.98,0.15,1.91-0.75,0.75C117.15,18.91,116.71,18.58,116.25,18.31z M115.39,17.95v-0.02
			c-1.61-0.57-3.35-0.34-3.35,0.75C112.05,19.92,115.35,19.84,115.39,17.95z M116.85,11.94c0.12-0.08,0.09-0.19-0.04-0.29
			c-0.18-0.12-0.34-0.24-0.48-0.36l-0.08,0.88C116.46,12.12,116.67,12.03,116.85,11.94z"/>
		<path class="st0" d="M128.78,16.54c0.38,0.1,0.52-0.02,0.41-0.33c-0.26-0.72-0.51-1.42-0.75-2.07c-1.74,0.45-3.63,0.54-4.98-0.42
			c-0.48-0.35-0.13-0.65,0.3-0.44c1.43,0.75,3,0.6,4.43,0.15c-0.29-0.73-0.56-1.41-0.83-2c-1.12,0.18-2.25,0.1-2.91-0.19
			c-0.46-0.23-0.27-0.62,0.12-0.48c0.85,0.3,1.7,0.18,2.42-0.08c-0.44-0.81-0.9-1.36-1.38-1.56c-1.08-0.44-0.69-0.96,0.31-0.72
			c0.79,0.18,1.12,0.52,1.79,2c0.32-0.14,0.58-0.27,0.81-0.38c0.74-0.33,1.62,0.24,0.72,0.76c-0.23,0.14-0.46,0.24-0.74,0.33
			c1.04,0.3,2.45,0.56,3.08,0.65c0.66,0.08,0.84,0.67,0.22,1.02c-0.69,0.39-1.6,0.79-2.59,1.12c0.3,0.67,0.63,1.44,1,2.31
			c0.55,1.24-0.43,1.92-1.23,1.36c-3.99-2.79-8.21,2.96-0.5,1.95c1.29-0.16,1.78,0.96,0.58,1.08
			C120.92,21.43,122.54,14.91,128.78,16.54z M128.89,13.18c0.56-0.21,1.05-0.45,1.52-0.69c0.19-0.1,0.22-0.27-0.09-0.38
			c-0.6-0.17-1.47-0.42-2.18-0.71L128.89,13.18z M130.75,8.91c0.78,0.31,1.25,0.63,1.65,1.36c0.45,0.87-0.54,1.25-0.94,0.41
			c-0.21-0.5-0.58-1.02-0.95-1.33C130.19,9.06,130.37,8.76,130.75,8.91z M132.25,8.65c0.58,0.18,1.23,0.52,1.6,1.12
			c0.41,0.69-0.46,1.24-0.9,0.42c-0.23-0.42-0.54-0.83-0.92-1.1C131.72,8.86,131.84,8.53,132.25,8.65z"/>
	</g>
</g>
</svg>
