<?xml version="1.0" encoding="utf-8"?>
<!-- Generator: Adobe Illustrator 25.4.1, SVG Export Plug-In . SVG Version: 6.00 Build 0)  -->
<svg version="1.1" id="レイヤー_1" xmlns="http://www.w3.org/2000/svg" xmlns:xlink="http://www.w3.org/1999/xlink" x="0px"
	 y="0px" viewBox="0 0 380 84" style="enable-background:new 0 0 380 84;" xml:space="preserve">
<style type="text/css">
	.st0{fill:#463243;}
	.st1{fill:#463243;stroke:#463243;stroke-width:2;stroke-linecap:round;stroke-linejoin:round;stroke-miterlimit:10;}
</style>
<g>
	<g>
		<path class="st0" d="M3.78,23.22c2.97-0.1,3.14-0.91,3.14-3.58V6.91c0-2.67-0.17-3.44-3.14-3.54V2.49
			c1.05,0.03,1.99,0.03,2.87,0.03c2.29,0,3.95-0.07,4.96-0.07c5.87,0,8.88,1.86,8.88,5.23c0,2.57-1.92,4.32-5.57,5
			c4.35,0.74,6.58,2.7,6.58,5.77c0,3.68-2.83,5.7-8.37,5.7c-1.08,0-4.22-0.1-9.35-0.1V23.22z M9.89,10.36
			c0,1.72,0.61,1.86,2.36,1.86c0.34,0,0.74,0,1.18,0c2.46,0,4.22-1.65,4.22-4.25c0-3-1.75-4.66-5-4.66c-2.06,0-2.77,0.51-2.77,2.4
			V10.36z M9.89,21.06c0,1.96,0.57,2.23,2.97,2.23c3.78,0,5.77-1.75,5.77-5c0-3.54-2.19-5.2-6.65-5.2c-1.65,0-2.09,0.37-2.09,1.99
			V21.06z"/>
		<path class="st0" d="M33.24,21.63c-2.36-1.92-3.61-4.76-3.61-8.34s1.28-6.48,3.65-8.4c2.06-1.69,4.59-2.57,7.53-2.57
			s5.47,0.88,7.53,2.57c2.36,1.92,3.65,4.83,3.65,8.4s-1.25,6.41-3.61,8.34c-2.13,1.72-4.62,2.6-7.56,2.6S35.36,23.35,33.24,21.63z
			 M48.63,13.29c0-6.45-3.04-10.09-7.83-10.09S33,6.85,33,13.29c0,6.41,3,10.06,7.8,10.06S48.63,19.71,48.63,13.29z"/>
		<path class="st0" d="M58.92,23.22c2.97-0.1,3.14-0.91,3.14-3.58V6.91c0-2.67-0.17-3.44-3.14-3.54V2.49h9.35
			c8.47,0,13.87,4.69,13.87,11.37c0,3.34-1.55,6.11-4.56,8.13c-2.43,1.62-5,2.06-8.24,2.06H58.92V23.22z M65.03,19.64
			c0,1.59,0,2.53,0.74,3.04c0.64,0.44,1.92,0.61,3.81,0.61c5.97,0,9.28-3.48,9.28-9.45c0-6.48-3.85-10.46-10.43-10.46
			c-3.21,0-3.41,0.81-3.41,3.54V19.64z"/>
		<path class="st0" d="M101.42,23.22v0.84h-9.25v-0.84c2.97-0.1,3.14-0.91,3.14-3.58v-5.6l-5.6-8.57c-0.88-1.38-1.65-2.09-2.87-2.09
			c-0.03,0-0.07,0-0.1,0V2.49h8.2v0.88c-1.42,0-2.06,0.27-2.06,1.01c0,0.24,0.3,1.01,1.01,2.16l3.95,6.45l4.32-6.28
			c0.74-1.08,1.08-1.82,1.08-2.16c0-0.71-0.67-1.15-1.89-1.18V2.49h6.08v0.88c-0.07,0-0.14,0-0.2,0c-1.48,0-2.4,1.11-3.78,3.14
			l-5.16,7.59v5.54C98.28,22.3,98.45,23.11,101.42,23.22z"/>
		<path class="st0" d="M141.18,23.22v0.84h-9.25v-0.84c2.97-0.1,3.14-0.91,3.14-3.58V6.2c0-2.06-0.47-2.57-2.83-2.57
			c-3.11,0-4.76,1.08-5.97,3.95h-0.74l1.45-5.84h0.71c1.05,1.05,2.5,1.05,4.73,1.05h9.65c0.24,0,0.44,0,0.64,0
			c1.75,0,3-0.07,3.92-1.05h0.68v5.84h-0.71c-0.57-2.87-2.23-3.92-5.64-3.92c-2.4,0-2.9,0.47-2.9,2.4v13.57
			C138.04,22.3,138.21,23.11,141.18,23.22z"/>
		<path class="st0" d="M164.19,23.22v0.84h-9.25v-0.84c2.97-0.1,3.14-0.91,3.14-3.58V6.91c0-2.67-0.17-3.44-3.14-3.54V2.49h7.7
			c5.64,0,8.61,2.06,8.61,5.57c0,2.56-1.69,4.29-5.06,5.13c0.81,0.74,1.42,1.79,2.16,2.94l3.14,4.79c0.91,1.42,1.62,2.3,3.27,2.3
			v0.84h-4.29c-1.05-1.05-1.82-2.33-2.7-3.71l-1.82-2.9c-0.51-0.81-1.25-2.02-2.29-3.75c-0.74,0.1-1.59,0.13-2.6,0.13v5.81
			C161.05,22.3,161.22,23.11,164.19,23.22z M161.42,13.02c4.69,0,6.82-1.28,6.82-4.69c0-2.94-2.06-5.1-4.96-5.1
			c-1.82,0-2.23,0.4-2.23,1.99v7.8C161.18,13.02,161.29,13.02,161.42,13.02z"/>
		<path class="st0" d="M181.57,23.22c2.97-0.1,3.14-0.91,3.14-3.58V6.91c0-2.67-0.17-3.44-3.14-3.54V2.49H198l0.74,4.02L198,6.58
			c-1.32-2.16-2.77-3.14-4.83-3.14h-2.94c-2.46,0-2.57,0.47-2.57,2.19V11c0,0.91,0.34,1.21,1.18,1.21h2.8
			c1.92,0,2.73-0.88,3.04-3.04h0.84v7.32h-0.84c-0.2-2.33-1.05-3.27-3.04-3.27h-2.8c-0.84,0-1.18,0.3-1.18,1.21v6.48
			c0,1.72,0.1,2.19,2.57,2.19h4.12c2.94,0,4.19-0.91,5.81-4.22l0.71,0.07l-1.08,5.1h-18.23V23.22z"/>
		<path class="st0" d="M207.38,23.22c2.06-0.2,3.04-1.52,4.05-4.08l4.62-11.64c0.27-0.71,0.47-1.42,0.57-2.16l2.03-2.97l0.64,0.24
			l6.75,17.45c0.81,2.06,1.69,3.04,3.48,3.17v0.84h-8.4v-0.84c1.55-0.2,2.23-0.61,2.23-1.55c0-0.4-0.07-0.88-0.27-1.38l-1.79-4.59
			h-7.43l-1.45,3.85c-0.34,0.91-0.51,1.59-0.51,1.92c0,0.88,0.74,1.45,2.19,1.76v0.84h-6.72V23.22z M220.98,14.68l-3.34-8.71
			l-3.41,8.71H220.98z"/>
		<path class="st0" d="M248.39,23.22v0.84h-9.25v-0.84c2.97-0.1,3.14-0.91,3.14-3.58V6.2c0-2.06-0.47-2.57-2.83-2.57
			c-3.11,0-4.76,1.08-5.97,3.95h-0.74l1.45-5.84h0.71c1.05,1.05,2.5,1.05,4.73,1.05h9.65c0.24,0,0.44,0,0.64,0
			c1.75,0,3-0.07,3.92-1.05h0.68v5.84h-0.71c-0.57-2.87-2.23-3.92-5.64-3.92c-2.4,0-2.9,0.47-2.9,2.4v13.57
			C245.25,22.3,245.42,23.11,248.39,23.22z"/>
		<path class="st0" d="M261.98,23.22c2.63-0.37,2.9-1.76,3.04-5.27l0.37-10.5c0-0.24,0-0.47,0-0.68c0-2.46-0.57-3.34-3.04-3.41V2.49
			h5.64l7.59,17.25l7.86-17.25h5.3v0.88c-2.84,0.07-3.24,0.74-3.24,3.21c0,0.1,0,0.2,0,0.34l0.17,12.72
			c0.03,2.46,0.03,3.34,2.77,3.58v0.84h-8.3v-0.84c2.53-0.17,2.87-0.91,2.87-3.17c0-0.13,0-0.27,0-0.4l-0.17-13.5l-8.07,17.62h-0.51
			l-7.93-17.99l-0.3,13.06c0,0.24,0,0.47,0,0.67c0,2.7,0.44,3.61,3.07,3.71v0.84h-7.12V23.22z"/>
		<path class="st0" d="M296.6,23.22c2.97-0.1,3.14-0.91,3.14-3.58V6.91c0-2.67-0.17-3.44-3.14-3.54V2.49h16.44l0.74,4.02l-0.74,0.07
			c-1.32-2.16-2.77-3.14-4.83-3.14h-2.94c-2.46,0-2.57,0.47-2.57,2.19V11c0,0.91,0.34,1.21,1.18,1.21h2.8
			c1.92,0,2.73-0.88,3.04-3.04h0.84v7.32h-0.84c-0.2-2.33-1.05-3.27-3.04-3.27h-2.8c-0.84,0-1.18,0.3-1.18,1.21v6.48
			c0,1.72,0.1,2.19,2.57,2.19h4.12c2.94,0,4.19-0.91,5.81-4.22l0.71,0.07l-1.08,5.1H296.6V23.22z"/>
		<path class="st0" d="M343.48,19.2V6.91c0-2.67-0.13-3.44-3.11-3.54V2.49h7.33v0.88c-3,0.07-3.17,0.88-3.17,3.54v17.15h-0.74
			L327.11,5.9v13.74c0,2.67,0.17,3.48,3.14,3.58v0.84h-6.89v-0.84c2.63-0.2,2.73-1.05,2.73-3.58V6.91c0-2.77-0.17-3.51-3.41-3.54
			V2.49h5.4L343.48,19.2z"/>
		<path class="st0" d="M370.11,23.22v0.84h-9.25v-0.84c2.97-0.1,3.14-0.91,3.14-3.58V6.2c0-2.06-0.47-2.57-2.83-2.57
			c-3.11,0-4.76,1.08-5.97,3.95h-0.74l1.45-5.84h0.71c1.05,1.05,2.5,1.05,4.73,1.05h9.65c0.24,0,0.44,0,0.64,0
			c1.75,0,3-0.07,3.92-1.05h0.68v5.84h-0.71c-0.57-2.87-2.23-3.92-5.64-3.92c-2.4,0-2.9,0.47-2.9,2.4v13.57
			C366.97,22.3,367.14,23.11,370.11,23.22z"/>
	</g>
	<g>
		<path class="st0" d="M91.47,54.39c0.2-0.38,0.45-0.31,0.48,0.04c0.11,1.08-0.61,2.48-1.77,2.88c-1,0.34-1.37-0.75-0.57-1.14
			C90.52,55.71,90.99,55.24,91.47,54.39z M93.63,56.85c-0.38-0.14-0.32-0.44,0.01-0.39c0.32,0.04,0.46,0.08,0.69,0.09
			c0.28,0.02,0.45-0.17,0.45-0.46c0.04-2.16,0.08-3.66,0.09-4.72c-3.46,0.3-4.3,0.61-4.99,0.1c-0.86-0.62-0.5-1.05,0.03-0.89
			c0.85,0.25,1.15,0.39,4.96,0.15c-0.01-1.72-0.13-1.9-0.49-2.28c-0.62-0.66-0.38-1.15,0.33-0.92c1.3,0.44,1.24,1.06,1.17,1.52
			c-0.06,0.25-0.12,0.6-0.12,1.03l-0.02,0.58c0.62-0.04,1.29-0.09,2.06-0.15c0.91-0.04,1.3-0.3,1.98-0.28
			c1.37,0.06,1.49,1.18,0.33,1.05c-0.79-0.12-1.28-0.18-2.24-0.12c-0.79,0.04-1.5,0.09-2.13,0.14c-0.04,2.31-0.04,3.87,0.08,6.61
			c0.06,1.23-1.18,1.17-1.27,0.09C94.5,57.42,94.18,57.03,93.63,56.85z M98.52,47.25c0.78,0.31,1.25,0.65,1.63,1.36
			c0.46,0.87-0.54,1.25-0.93,0.4c-0.21-0.49-0.58-1.02-0.95-1.33C97.96,47.4,98.14,47.1,98.52,47.25z M99.12,53.89
			c1.02,0.42,1.75,1.06,2.16,2.34c0.43,1.4-1.21,1.59-1.51,0.3c-0.2-0.84-0.36-1.58-0.86-2.16C98.58,54,98.77,53.76,99.12,53.89z
			 M100.02,46.99c0.58,0.18,1.23,0.53,1.59,1.12c0.42,0.69-0.45,1.25-0.88,0.42c-0.23-0.42-0.56-0.82-0.92-1.09
			C99.49,47.2,99.6,46.87,100.02,46.99z"/>
		<path class="st0" d="M114.67,59.14c2.94-0.63,5.16-3.31,5.47-6.65c0.06-0.79,0.06-1.32-0.3-1.71c-2.91,0.25-3.35,0.56-4.04,0.15
			c-0.86-0.49-0.54-1.12,0.08-0.91c1.33,0.48,3.01,0.28,6.43-0.1c0.95-0.1,1.59-0.29,2.17-0.02c0.97,0.45,0.71,1.09-0.01,0.9
			c-0.63-0.18-1.21-0.21-1.96-0.19c-0.79,0.03-1.49,0.07-2.08,0.12c0.27,0.17,0.46,0.31,0.69,0.5c0.55,0.5,0.24,0.89,0.17,1.04
			c-0.09,0.13-0.12,0.33-0.15,0.58c-0.36,3.72-3.49,6.13-6.4,6.58C114.39,59.47,114.34,59.22,114.67,59.14z M117.07,47.7
			c1.02,0.38,1.86,0.21,3.67-0.24c0.53-0.12,1.09-0.33,1.67-0.04c0.75,0.36,0.54,0.85,0.01,0.82c-0.51-0.03-0.79-0.04-1.44,0
			c-2.99,0.15-3.55,0.65-4.11,0.21C116.19,47.92,116.58,47.5,117.07,47.7z M123.06,46.32c0.78,0.3,1.25,0.63,1.65,1.36
			c0.45,0.87-0.54,1.23-0.95,0.39c-0.21-0.48-0.58-1-0.94-1.32C122.5,46.47,122.68,46.17,123.06,46.32z M124.56,46.05
			c0.58,0.19,1.23,0.54,1.61,1.12c0.41,0.71-0.46,1.26-0.9,0.44c-0.21-0.44-0.54-0.83-0.92-1.1
			C124.03,46.27,124.15,45.94,124.56,46.05z"/>
		<path class="st0" d="M137.17,55.45c2.8-1.67,4.09-2.73,5.8-4.67c0.25-0.28,0.36-0.4,0.21-0.78c-0.15-0.45,0.35-0.57,0.86-0.19
			c0.64,0.42,0.3,0.94-0.06,1.32c-0.61,0.57-1.14,1.06-1.65,1.48c0.66,0.17,0.72,0.63,0.67,1.14c-0.2,1.9-0.08,3.34-0.01,4.51
			c0.04,1.03-0.96,1.06-0.9,0.02c0.06-0.96,0.15-3.25,0.13-4.26c-0.01-0.72-0.19-0.92-0.38-0.99c-1.47,1.2-2.65,1.88-4.54,2.76
			C136.99,55.9,136.82,55.65,137.17,55.45z"/>
		<path class="st0" d="M161.5,47.16c-0.57-0.49-0.25-0.93,0.34-0.78c1.11,0.27,1.09,0.88,1.04,1.29c-0.06,0.36-0.11,0.78-0.12,1.2
			c-0.03,0.9-0.03,1.77-0.03,2.67c1.71,0.14,2.94,0.51,4.19,2.02c0.93,1.16-0.5,2.06-1.16,0.78c-0.84-1.58-1.7-2.21-3.03-2.34
			c0.03,1.71,0.11,3.56,0.25,5.87c0.12,1.8-1.38,1.68-1.3,0.09C162.11,49.11,162.41,47.94,161.5,47.16z"/>
		<path class="st0" d="M181.75,59.23c4.47-1.36,5.68-4.36,5.82-7.36c0.07-1.92,0.18-3.55-0.57-4.05c-0.48-0.33-0.51-0.93,0.48-0.69
			c0.89,0.19,1.47,0.78,1.28,1.29c-0.08,0.25-0.04,0.63-0.04,1.03c0.21,5.91-2,9-6.88,10.06C181.48,59.59,181.36,59.35,181.75,59.23
			z M183.44,47.94c1.27,0.22,1.33,0.82,1.17,1.32c-0.17,0.44-0.09,1.54,0.01,5.08c0.01,0.99-1.08,0.9-1.05-0.02
			c0.09-4.68,0.42-5.17-0.41-5.83C182.72,48.15,182.89,47.83,183.44,47.94z"/>
		<path class="st0" d="M212.67,53.61c-6.21-0.43-7.46,0.95-8.86-0.07c-0.89-0.66-0.39-1.12,0.28-0.89c1.46,0.5,2.52,0.47,8.4,0.12
			c0.71-0.04,1.62-0.04,2.13,0.17c0.93,0.38,0.85,1.05-0.02,0.9C214.1,53.74,213.53,53.68,212.67,53.61z"/>
		<path class="st0" d="M230.81,47.16c-0.57-0.49-0.25-0.93,0.34-0.78c1.11,0.27,1.09,0.88,1.04,1.29c-0.06,0.36-0.11,0.78-0.12,1.2
			c-0.03,0.9-0.03,1.77-0.03,2.67c1.71,0.14,2.94,0.51,4.19,2.02c0.93,1.16-0.5,2.06-1.16,0.78c-0.84-1.58-1.7-2.21-3.03-2.34
			c0.03,1.71,0.11,3.56,0.25,5.87c0.12,1.8-1.38,1.68-1.3,0.09C231.43,49.11,231.73,47.94,230.81,47.16z"/>
		<path class="st0" d="M250.03,58.57c2.34-1.98,3.56-3.54,4.58-5.41c-0.58-0.66-1.2-1.21-1.81-1.54c-0.44-0.27-0.18-0.52,0.16-0.38
			c0.71,0.3,1.43,0.66,2.08,1.09c0.39-0.78,0.77-1.63,1.19-2.61c0.2-0.42,0.3-1.03-0.15-1.57c-0.45-0.52-0.15-0.87,0.57-0.58
			c1.39,0.54,1.2,1.26,0.84,1.99c-0.53,1.11-1.05,2.21-1.7,3.3c0.5,0.38,0.96,0.8,1.35,1.23c1.08,1.22-0.35,2.25-1.2,0.89
			c-0.24-0.39-0.51-0.78-0.78-1.14c-1.11,1.63-2.61,3.29-4.96,5C249.89,59.04,249.68,58.86,250.03,58.57z"/>
		<path class="st0" d="M273.03,49.5c0.97,0.06,2,0.36,2.86,1.2c1.02,0.93-0.07,1.8-0.87,0.9c-0.56-0.63-1.46-1.35-2.04-1.57
			C272.49,49.83,272.57,49.45,273.03,49.5z M273.71,56.47c0.12-0.51,0.48-0.52,0.6-0.05c0.03,0.2,0.24,0.26,0.42,0.26
			c2.57,0,6.58-3.39,9.17-6.94c0.3-0.42,0.63-0.25,0.41,0.13c-2.38,4.21-6.9,8.02-9.58,8.02C273.96,57.9,273.55,57.06,273.71,56.47z
			"/>
		<path class="st0" d="M299.53,47.16c-0.57-0.49-0.25-0.93,0.34-0.78c1.11,0.27,1.09,0.88,1.04,1.29c-0.06,0.36-0.11,0.78-0.12,1.2
			c-0.03,0.9-0.03,1.77-0.03,2.67c1.71,0.14,2.94,0.51,4.19,2.02c0.93,1.16-0.5,2.06-1.16,0.78c-0.84-1.58-1.7-2.21-3.03-2.34
			c0.03,1.71,0.11,3.56,0.25,5.87c0.12,1.8-1.38,1.68-1.3,0.09C300.15,49.11,300.45,47.94,299.53,47.16z"/>
	</g>
	<line class="st1" x1="118.72" y1="82.25" x2="277.72" y2="82.25"/>
</g>
</svg>
