<?xml version="1.0" encoding="utf-8"?>
<!-- Generator: Adobe Illustrator 25.4.1, SVG Export Plug-In . SVG Version: 6.00 Build 0)  -->
<svg version="1.1" id="レイヤー_1" xmlns="http://www.w3.org/2000/svg" xmlns:xlink="http://www.w3.org/1999/xlink" x="0px"
	 y="0px" viewBox="0 0 340 88" style="enable-background:new 0 0 340 88;" xml:space="preserve">
<style type="text/css">
	.st0{fill:#463243;}
	.st1{fill:#463243;stroke:#463243;stroke-width:2;stroke-linecap:round;stroke-linejoin:round;stroke-miterlimit:10;}
</style>
<g>
	<g>
		<path class="st0" d="M12.56,24.93v0.84H3.31v-0.84c2.97-0.1,3.14-0.91,3.14-3.58V8.63c0-2.67-0.17-3.44-3.14-3.54V4.2H11
			c5.64,0,8.61,2.06,8.61,5.57c0,2.56-1.69,4.29-5.06,5.13c0.81,0.74,1.42,1.79,2.16,2.94l3.14,4.79c0.91,1.42,1.62,2.29,3.27,2.29
			v0.84h-4.29c-1.05-1.05-1.82-2.33-2.7-3.71l-1.82-2.9c-0.51-0.81-1.25-2.03-2.29-3.75c-0.74,0.1-1.59,0.13-2.6,0.13v5.81
			C9.42,24.02,9.59,24.83,12.56,24.93z M9.79,14.73c4.69,0,6.82-1.28,6.82-4.69c0-2.94-2.06-5.1-4.96-5.1
			c-1.82,0-2.23,0.41-2.23,1.99v7.8C9.55,14.73,9.65,14.73,9.79,14.73z"/>
		<path class="st0" d="M29.93,24.93c2.97-0.1,3.14-0.91,3.14-3.58V8.63c0-2.67-0.17-3.44-3.14-3.54V4.2h16.44l0.74,4.02l-0.74,0.07
			c-1.32-2.16-2.77-3.14-4.83-3.14h-2.94c-2.46,0-2.57,0.47-2.57,2.19v5.37c0,0.91,0.34,1.21,1.18,1.21h2.8
			c1.92,0,2.73-0.88,3.04-3.04h0.84v7.32h-0.84c-0.2-2.33-1.05-3.27-3.04-3.27h-2.8c-0.84,0-1.18,0.3-1.18,1.21v6.48
			c0,1.72,0.1,2.19,2.57,2.19h4.12c2.94,0,4.19-0.91,5.81-4.22l0.71,0.07l-1.08,5.1H29.93V24.93z"/>
		<path class="st0" d="M56.59,24.93c2.97-0.1,3.14-0.91,3.14-3.58V8.63c0-2.67-0.17-3.44-3.14-3.54V4.2h9.25v0.88
			c-2.97,0.1-3.14,0.88-3.14,3.54v13.53c0,0.1,0,0.2,0,0.3c0,1.89,0.07,2.36,2.57,2.36h2.6c3.58,0,5.4-0.91,7.46-4.52l0.74,0.2
			l-1.15,5.26H56.59V24.93z"/>
		<path class="st0" d="M82.03,24.93c2.06-0.2,3.04-1.52,4.05-4.08L90.71,9.2c0.27-0.71,0.47-1.42,0.57-2.16l2.03-2.97l0.64,0.24
			l6.75,17.45c0.81,2.06,1.69,3.04,3.48,3.17v0.84h-8.4v-0.84c1.55-0.2,2.23-0.61,2.23-1.55c0-0.4-0.07-0.88-0.27-1.38l-1.79-4.59
			h-7.43l-1.45,3.85c-0.34,0.91-0.51,1.59-0.51,1.92c0,0.88,0.74,1.45,2.19,1.75v0.84h-6.72V24.93z M95.64,16.39l-3.34-8.71
			l-3.41,8.71H95.64z"/>
		<path class="st0" d="M111.1,24.93c1.82-0.07,3.58-1.45,5.6-4.15l4.39-5.84l-4.39-6.38c-1.49-2.16-2.36-3.48-4.46-3.48
			c-0.1,0-0.24,0-0.37,0V4.2h8.84v0.88c-1.28,0-1.86,0.24-1.86,1.08c0,0.47,0.3,1.22,0.98,2.23l3.07,4.66l2.9-3.98
			c0.98-1.32,1.52-2.19,1.52-2.87c0-0.91-0.67-1.11-2.33-1.11V4.2h7.93v0.88c-2.09,0.14-3.85,1.25-5.47,3.44l-3.95,5.37l4.62,6.58
			c1.86,2.67,3,4.46,5.33,4.46v0.84h-8.81v-0.84c1.28,0,1.82-0.24,1.82-1.08c0-0.47-0.27-1.28-0.95-2.26l-3.81-5.71l-3.98,5.27
			c-0.71,0.91-1.15,1.59-1.15,2.26c0,0.95,0.88,1.42,2.63,1.52v0.84h-8.13V24.93z"/>
		<path class="st0" d="M141.13,24.93c2.97-0.1,3.14-0.91,3.14-3.58V8.63c0-2.67-0.17-3.44-3.14-3.54V4.2h9.25v0.88
			c-2.97,0.1-3.14,0.88-3.14,3.54v12.72c0,2.67,0.17,3.48,3.14,3.58v0.84h-9.25V24.93z"/>
		<path class="st0" d="M178.73,20.91V8.63c0-2.67-0.13-3.44-3.11-3.54V4.2h7.32v0.88c-3,0.07-3.17,0.88-3.17,3.54v17.15h-0.74
			L162.36,7.61v13.74c0,2.67,0.17,3.48,3.14,3.58v0.84h-6.89v-0.84c2.63-0.2,2.73-1.05,2.73-3.58V8.63c0-2.77-0.17-3.51-3.41-3.54
			V4.2h5.4L178.73,20.91z"/>
		<path class="st0" d="M203.69,17.03v-0.84h8.61v0.84c-2.63,0.2-2.73,1.05-2.73,3.58v3.21c-2.06,1.42-4.62,2.13-7.63,2.13
			c-7.56,0-12.25-4.15-12.25-10.6c0-2.56,0.78-4.83,2.26-6.82c2.09-2.8,5.74-4.49,10.23-4.49c3.31,0,5.97,0.84,8,2.57l-0.03,4.52
			l-0.54-0.1c-1.59-4.12-3.88-6.11-7.43-6.11c-2.57,0-4.62,0.88-6.18,2.56c-1.92,2.13-2.97,4.93-2.97,8.07
			c0,5.81,3.68,9.55,9.01,9.55c3.54,0,4.79-1.05,4.79-3.65v-0.84C206.82,17.94,206.66,17.13,203.69,17.03z"/>
		<path class="st0" d="M233.05,24.93c2.97-0.1,3.14-0.91,3.14-3.58V8.63c0-2.67-0.17-3.44-3.14-3.54V4.2
			c1.05,0.03,1.99,0.03,2.87,0.03c2.29,0,3.95-0.07,4.96-0.07c5.87,0,8.88,1.86,8.88,5.23c0,2.57-1.92,4.32-5.57,5
			c4.35,0.74,6.58,2.7,6.58,5.77c0,3.68-2.83,5.7-8.37,5.7c-1.08,0-4.22-0.1-9.35-0.1V24.93z M239.16,12.07
			c0,1.72,0.61,1.86,2.36,1.86c0.34,0,0.74,0,1.18,0c2.46,0,4.22-1.65,4.22-4.25c0-3-1.75-4.66-5-4.66c-2.06,0-2.77,0.51-2.77,2.4
			V12.07z M239.16,22.77c0,1.96,0.57,2.23,2.97,2.23c3.78,0,5.77-1.75,5.77-5c0-3.54-2.19-5.2-6.65-5.2c-1.65,0-2.09,0.37-2.09,1.99
			V22.77z"/>
		<path class="st0" d="M262.5,23.34c-2.36-1.92-3.61-4.76-3.61-8.34c0-3.58,1.28-6.48,3.65-8.4c2.06-1.69,4.59-2.57,7.53-2.57
			s5.47,0.88,7.53,2.57c2.36,1.92,3.65,4.83,3.65,8.4c0,3.58-1.25,6.41-3.61,8.34c-2.13,1.72-4.62,2.6-7.56,2.6
			S264.63,25.06,262.5,23.34z M277.89,15.01c0-6.45-3.04-10.09-7.83-10.09s-7.8,3.64-7.8,10.09c0,6.41,3,10.06,7.8,10.06
			S277.89,21.42,277.89,15.01z"/>
		<path class="st0" d="M288.19,24.93c2.97-0.1,3.14-0.91,3.14-3.58V8.63c0-2.67-0.17-3.44-3.14-3.54V4.2h9.35
			c8.47,0,13.87,4.69,13.87,11.37c0,3.34-1.55,6.11-4.56,8.13c-2.43,1.62-5,2.06-8.24,2.06h-10.43V24.93z M294.3,21.35
			c0,1.59,0,2.53,0.74,3.04c0.64,0.44,1.92,0.61,3.81,0.61c5.97,0,9.28-3.48,9.28-9.45c0-6.48-3.85-10.46-10.43-10.46
			c-3.21,0-3.41,0.81-3.41,3.54V21.35z"/>
		<path class="st0" d="M330.68,24.93v0.84h-9.25v-0.84c2.97-0.1,3.14-0.91,3.14-3.58v-5.6l-5.6-8.57c-0.88-1.38-1.65-2.09-2.87-2.09
			c-0.03,0-0.07,0-0.1,0V4.2h8.2v0.88c-1.42,0-2.06,0.27-2.06,1.01c0,0.24,0.3,1.01,1.01,2.16l3.95,6.45l4.32-6.28
			c0.74-1.08,1.08-1.82,1.08-2.16c0-0.71-0.67-1.15-1.89-1.18V4.2h6.08v0.88c-0.07,0-0.14,0-0.2,0c-1.48,0-2.4,1.11-3.78,3.14
			l-5.16,7.59v5.54C327.54,24.02,327.71,24.83,330.68,24.93z"/>
	</g>
	<g>
		<path class="st0" d="M63.37,60.95c4.47-1.36,5.68-4.36,5.82-7.36c0.07-1.92,0.18-3.55-0.57-4.05c-0.48-0.33-0.51-0.93,0.48-0.69
			c0.89,0.19,1.47,0.78,1.28,1.29c-0.08,0.25-0.04,0.63-0.04,1.03c0.21,5.91-2,9-6.88,10.06C63.1,61.31,62.98,61.07,63.37,60.95z
			 M65.07,49.65c1.27,0.22,1.33,0.82,1.17,1.32c-0.17,0.44-0.09,1.54,0.01,5.08c0.01,0.99-1.08,0.9-1.05-0.02
			c0.09-4.68,0.42-5.17-0.41-5.83C64.35,49.86,64.51,49.55,65.07,49.65z"/>
		<path class="st0" d="M85.98,60.62c3.6-1.48,6.37-4.09,7.15-7.77c0.04-0.2-0.01-0.33-0.24-0.3c-4.6,0.41-5.29,0.99-6.31,0.18
			c-0.88-0.72-0.34-1.23,0.12-0.96c1.25,0.67,2.47,0.44,6.21-0.03c1.09-0.14,1.74,0.3,1.48,1.26c-1.26,4.48-4.93,6.94-8.29,7.92
			C85.72,61.04,85.65,60.77,85.98,60.62z M87.48,49.38c1.18,0.45,2.85,0.09,3.61-0.06c0.75-0.15,1.25-0.29,1.86-0.03
			c1.23,0.53,0.67,1.11-0.06,0.92c-0.46-0.13-0.93-0.13-1.67-0.1c-1.77,0.09-3.25,0.72-3.9,0.06C86.63,49.49,87.01,49.2,87.48,49.38
			z"/>
		<path class="st0" d="M108.51,60.48c4.98-2.42,6.66-4.69,7.89-8.52c0.04-0.13,0.03-0.27-0.15-0.27c-0.71-0.04-1.89-0.01-2.78,0.02
			c-1.17,2.25-2.45,3.38-4.53,4.3c-0.3,0.14-0.45-0.13-0.09-0.34c1.75-1.02,3.02-2.31,3.99-4.67c0.21-0.52,0.29-1.05-0.04-1.36
			c-0.6-0.57-0.25-0.85,0.27-0.65c1.2,0.45,1.32,0.73,1,1.47l-0.28,0.62c1.03,0,2.11-0.04,3.03-0.09c1.02-0.08,1.19,0.51,0.75,1.42
			c-2.23,4.69-4.2,6.55-8.97,8.38C108.18,60.96,108.11,60.68,108.51,60.48z"/>
		<path class="st0" d="M135.02,54.95c0.76,0.83-0.32,1.64-0.99,0.69c-0.43-0.57-1.23-1.12-2.19-1.29c-0.38-0.05-0.34-0.35-0.03-0.36
			C132.98,53.9,134.26,54.11,135.02,54.95z M132.98,51.14c1.32-0.08,2.64,0.27,3.39,1.19c0.79,0.96-0.33,1.65-1,0.82
			c-0.67-0.82-1.32-1.44-2.38-1.62C132.62,51.47,132.56,51.17,132.98,51.14z M133.19,59.34c-0.43-0.92,0.08-1.17,0.46-0.81
			c0.27,0.24,0.46,0.33,0.96,0.33c1.56,0,5.19-2.55,8.59-7.11c0.32-0.42,0.67-0.25,0.42,0.14c-2.53,3.84-6.49,8.16-9.34,8.16
			C133.74,60.05,133.37,59.75,133.19,59.34z"/>
		<path class="st0" d="M157.79,51.21c0.97,0.06,2,0.36,2.86,1.2c1.02,0.93-0.07,1.8-0.87,0.9c-0.56-0.63-1.46-1.35-2.04-1.57
			C157.25,51.54,157.33,51.17,157.79,51.21z M158.47,58.19c0.12-0.51,0.48-0.52,0.6-0.05c0.03,0.2,0.24,0.26,0.42,0.26
			c2.57,0,6.58-3.39,9.17-6.94c0.3-0.42,0.63-0.25,0.41,0.13c-2.38,4.21-6.9,8.02-9.58,8.02C158.72,59.61,158.31,58.77,158.47,58.19
			z"/>
		<path class="st0" d="M181.3,60.48c4.98-2.43,6.66-4.71,7.89-8.52c0.04-0.15,0.03-0.27-0.17-0.27c-0.69-0.04-1.88-0.01-2.76,0.02
			c-1.17,2.23-2.45,3.36-4.53,4.29c-0.3,0.13-0.45-0.12-0.1-0.33c1.77-1.04,3.03-2.31,3.99-4.68c0.23-0.51,0.29-1.04-0.04-1.35
			c-0.58-0.57-0.25-0.85,0.29-0.66c1.19,0.45,1.32,0.74,1,1.48l-0.29,0.62c1.04,0,2.12-0.04,3.02-0.1c1.03-0.08,1.2,0.51,0.76,1.42
			c-2.24,4.71-4.21,6.55-8.98,8.4C180.97,60.95,180.9,60.66,181.3,60.48z M190.06,48.84c0.76,0.3,1.23,0.63,1.63,1.36
			c0.45,0.87-0.54,1.23-0.95,0.39c-0.21-0.48-0.58-1-0.93-1.32C189.51,48.99,189.67,48.69,190.06,48.84z M191.56,48.57
			c0.57,0.19,1.21,0.54,1.59,1.14c0.41,0.69-0.45,1.24-0.9,0.42c-0.21-0.42-0.54-0.83-0.92-1.1
			C191.02,48.8,191.14,48.47,191.56,48.57z"/>
		<path class="st0" d="M223.92,56.1c0.2-0.38,0.45-0.31,0.48,0.04c0.11,1.08-0.61,2.48-1.77,2.88c-1,0.34-1.37-0.75-0.57-1.14
			C222.97,57.42,223.44,56.96,223.92,56.1z M226.08,58.56c-0.38-0.14-0.32-0.44,0.01-0.39c0.32,0.04,0.46,0.08,0.69,0.09
			c0.28,0.02,0.45-0.17,0.45-0.46c0.04-2.16,0.08-3.66,0.09-4.72c-3.46,0.3-4.3,0.61-4.99,0.1c-0.86-0.62-0.5-1.05,0.03-0.89
			c0.85,0.25,1.15,0.39,4.96,0.15c-0.01-1.72-0.13-1.9-0.49-2.28c-0.62-0.66-0.38-1.15,0.33-0.92c1.3,0.44,1.24,1.06,1.17,1.52
			c-0.06,0.25-0.12,0.6-0.12,1.03l-0.02,0.58c0.62-0.04,1.29-0.09,2.06-0.15c0.91-0.04,1.3-0.3,1.98-0.28
			c1.37,0.06,1.49,1.18,0.33,1.05c-0.79-0.12-1.28-0.18-2.24-0.12c-0.79,0.04-1.5,0.09-2.13,0.14c-0.04,2.31-0.04,3.87,0.08,6.61
			c0.06,1.23-1.18,1.17-1.27,0.09C226.95,59.13,226.63,58.74,226.08,58.56z M230.97,48.96c0.78,0.31,1.25,0.65,1.63,1.36
			c0.46,0.87-0.54,1.25-0.93,0.4c-0.21-0.49-0.58-1.02-0.95-1.33C230.41,49.11,230.59,48.81,230.97,48.96z M231.57,55.61
			c1.02,0.42,1.75,1.06,2.16,2.34c0.43,1.4-1.21,1.59-1.51,0.3c-0.2-0.84-0.36-1.58-0.86-2.16
			C231.03,55.71,231.22,55.47,231.57,55.61z M232.47,48.71c0.58,0.18,1.23,0.53,1.59,1.12c0.42,0.69-0.45,1.25-0.88,0.42
			c-0.23-0.42-0.56-0.82-0.92-1.09C231.94,48.92,232.05,48.59,232.47,48.71z"/>
		<path class="st0" d="M247.13,60.86c2.94-0.63,5.16-3.31,5.47-6.65c0.06-0.79,0.06-1.32-0.3-1.71c-2.91,0.25-3.35,0.56-4.04,0.15
			c-0.86-0.49-0.54-1.12,0.08-0.91c1.33,0.48,3.01,0.28,6.43-0.1c0.95-0.1,1.59-0.29,2.17-0.02c0.97,0.45,0.71,1.09-0.01,0.9
			c-0.63-0.18-1.21-0.21-1.96-0.19c-0.8,0.03-1.49,0.07-2.08,0.12c0.27,0.17,0.46,0.31,0.69,0.5c0.55,0.5,0.24,0.89,0.17,1.04
			c-0.09,0.13-0.12,0.33-0.15,0.58c-0.36,3.72-3.49,6.13-6.4,6.58C246.84,61.19,246.8,60.93,247.13,60.86z M249.53,49.41
			c1.02,0.38,1.86,0.21,3.67-0.24c0.53-0.12,1.09-0.33,1.67-0.04c0.75,0.36,0.54,0.85,0.01,0.82c-0.51-0.03-0.79-0.04-1.44,0
			c-2.99,0.15-3.55,0.65-4.11,0.21C248.64,49.64,249.03,49.22,249.53,49.41z M255.51,48.03c0.78,0.3,1.25,0.63,1.65,1.36
			c0.45,0.87-0.54,1.23-0.95,0.39c-0.21-0.48-0.58-1-0.94-1.32C254.96,48.18,255.14,47.88,255.51,48.03z M257.01,47.76
			c0.58,0.19,1.23,0.54,1.61,1.12c0.41,0.71-0.46,1.26-0.9,0.44c-0.21-0.44-0.54-0.83-0.92-1.1
			C256.49,47.99,256.61,47.66,257.01,47.76z"/>
		<path class="st0" d="M269.62,57.17c2.8-1.67,4.09-2.73,5.8-4.67c0.25-0.28,0.36-0.4,0.21-0.78c-0.15-0.45,0.35-0.57,0.86-0.19
			c0.64,0.42,0.3,0.94-0.06,1.32c-0.61,0.57-1.14,1.06-1.65,1.48c0.66,0.17,0.72,0.63,0.67,1.14c-0.2,1.9-0.08,3.34-0.01,4.51
			c0.04,1.03-0.96,1.06-0.9,0.02c0.06-0.96,0.15-3.25,0.13-4.26c-0.01-0.72-0.19-0.92-0.38-0.99c-1.47,1.2-2.65,1.88-4.54,2.76
			C269.44,57.62,269.28,57.36,269.62,57.17z"/>
	</g>
	<line class="st1" x1="91.48" y1="83.96" x2="250.48" y2="83.96"/>
</g>
</svg>
