<?xml version="1.0" encoding="utf-8"?>
<!-- Generator: Adobe Illustrator 25.4.1, SVG Export Plug-In . SVG Version: 6.00 Build 0)  -->
<svg version="1.1" id="レイヤー_1" xmlns="http://www.w3.org/2000/svg" xmlns:xlink="http://www.w3.org/1999/xlink" x="0px"
	 y="0px" viewBox="0 0 567 40" style="enable-background:new 0 0 567 40;" xml:space="preserve">
<style type="text/css">
	.st0{fill:#463243;}
	.st1{fill:none;stroke:#463243;stroke-miterlimit:10;}
</style>
<g>
	<g>
		<path class="st0" d="M30.23,26.56c1.06,0,3.3,0,4.62-0.04c0.2,0,0.3,0.06,0.3,0.14s-0.08,0.14-0.24,0.22
			c-0.26,0.14-0.42,0.38-0.5,0.66c-0.04,0.18-0.14,0.28-0.32,0.28h-3.98c-4.76,0-7.32-0.86-8.96-4.86c-0.78,1.98-2,3.92-4.04,5.26
			c-0.16,0.1-0.28,0.12-0.34,0.04c-0.06-0.08-0.02-0.18,0.12-0.32c2.26-2.1,3.28-5.36,3.66-8.28c0.02-0.18,0.16-0.28,0.34-0.24
			l1.42,0.28c0.2,0.04,0.34,0.24,0.16,0.38c-0.12,0.1-0.3,0.16-0.56,0.18c-0.14,0.72-0.34,1.44-0.58,2.18c0.88,1.96,2.1,3,3.8,3.56
			v-8.88H21.1v0.82c0,0.14-0.56,0.44-1.08,0.44c-0.14,0-0.22-0.12-0.22-0.3v-6.96c0-0.22,0.16-0.32,0.36-0.22l1.06,0.46h9.06
			l0.54-0.58c0.12-0.14,0.28-0.16,0.42-0.04l1.12,0.86c0.18,0.14,0.2,0.3,0.02,0.42c-0.16,0.08-0.36,0.16-0.58,0.2v5.56
			c-0.02,0.14-0.68,0.46-1.12,0.46c-0.12,0-0.2-0.12-0.2-0.3v-0.82h-4.02v3.96h4.26l0.78-0.96c0.12-0.14,0.26-0.18,0.42-0.06
			c0.32,0.24,0.9,0.72,1.36,1.12c0.14,0.12,0.2,0.28,0.06,0.4c-0.08,0.06-0.22,0.1-0.38,0.1h-6.5v4.64
			C27.55,26.5,28.79,26.56,30.23,26.56z M30.49,11.95H21.1v4.58h9.38V11.95z"/>
		<path class="st0" d="M54.97,23.66c-0.12,0.02-0.26,0-0.46-0.04c-0.72,0.46-1.9,1.02-3.04,1.44c1.48,0.84,3.32,1.38,5.36,1.68
			c0.18,0.02,0.28,0.1,0.28,0.16c0,0.06-0.08,0.1-0.26,0.18c-0.32,0.14-0.58,0.4-0.74,0.78c-0.08,0.16-0.2,0.24-0.38,0.2
			c-3.64-0.9-6.16-2.52-7.48-5.58h-0.22c-0.76,0.56-1.64,1.06-2.62,1.48v2.28l3.74-0.6c0.18-0.04,0.32,0,0.34,0.1
			c0.02,0.12-0.06,0.18-0.24,0.24c-1.78,0.6-4.04,1.28-7.1,1.96c-0.04,0.14-0.1,0.24-0.18,0.32c-0.14,0.12-0.32,0.02-0.4-0.14
			l-0.52-0.96c-0.1-0.2-0.04-0.36,0.18-0.38c0.74-0.08,1.74-0.2,2.88-0.36v-1.96c-1.56,0.56-3.32,0.98-5.12,1.28
			c-0.18,0.02-0.28-0.02-0.34-0.14c-0.04-0.1,0.04-0.2,0.24-0.26c2.7-0.66,5.22-1.64,7-2.86h-6.58c-0.16,0-0.3-0.1-0.34-0.26
			c-0.06-0.22,0.06-0.34,0.26-0.34h7.98V20.4h-6.48c-0.18,0-0.3-0.1-0.34-0.26c-0.04-0.2,0.06-0.32,0.26-0.32h6.56v-1.4h-4.2v0.5
			c0,0.12-0.56,0.38-1.08,0.38c-0.1,0-0.18-0.12-0.18-0.3v-5.62c0-0.22,0.16-0.34,0.36-0.24l1,0.48h9.44l0.5-0.54
			c0.12-0.14,0.28-0.14,0.42-0.02l1.02,0.76c0.16,0.12,0.2,0.32,0,0.42c-0.14,0.08-0.3,0.12-0.48,0.16v4.1
			c-0.02,0.14-0.66,0.44-1.08,0.44c-0.12,0-0.2-0.1-0.2-0.26v-0.26h-4.24v1.4h4.74l0.66-0.72c0.12-0.14,0.26-0.16,0.42-0.06
			c0.28,0.18,0.74,0.54,1.16,0.86c0.14,0.12,0.2,0.28,0.06,0.4c-0.1,0.06-0.22,0.1-0.36,0.1h-6.68v1.48h5.94l0.7-0.78
			c0.12-0.14,0.26-0.16,0.42-0.06c0.28,0.22,0.8,0.6,1.22,0.96c0.12,0.1,0.2,0.26,0.06,0.38c-0.08,0.06-0.22,0.1-0.38,0.1h-2.74
			l1.24,0.78C55.13,23.38,55.17,23.62,54.97,23.66z M39.36,11.81h7.82v-1.46c0-0.2,0.12-0.3,0.32-0.28l1.36,0.12
			c0.22,0.02,0.36,0.2,0.2,0.36c-0.12,0.1-0.3,0.18-0.56,0.22v1.04h5.54l0.76-0.96c0.12-0.14,0.26-0.18,0.42-0.06
			c0.32,0.26,0.88,0.7,1.32,1.12c0.14,0.12,0.2,0.28,0.06,0.4c-0.1,0.06-0.24,0.1-0.4,0.1H39.44c-0.18,0-0.28-0.1-0.32-0.26
			l-0.02-0.04C39.05,11.91,39.16,11.81,39.36,11.81z M43.01,15.71h4.2v-1.5h-4.2V15.71z M47.21,16.27h-4.2v1.54h4.2V16.27z
			 M48.49,15.71h4.24v-1.5h-4.24V15.71z M52.73,16.27h-4.24v1.54h4.24V16.27z M50.97,24.76c0.96-0.7,2-1.62,2.58-2.28h-4.84
			C49.29,23.4,50.05,24.14,50.97,24.76z"/>
	</g>
</g>
<rect x="5" y="4.25" class="st1" width="65.35" height="31.5"/>
<g>
	<g>
		<path class="st0" d="M226.42,14.33c0.1-0.12,0-0.22-0.18-0.12c-0.94,0.54-2.1,0.54-2.86,0.12c-0.8-0.46-0.7-1.36,0.14-0.94
			c0.74,0.34,1.88,0.2,3.3-0.62c1.36-0.78,1.88,0.56,1,1.3c-5.34,4.34-6.46,11.94-0.9,11.94c7.34,0,5.62-9.96,4.28-13.14
			c-0.48-1.1,0.86-1.4,1.22-0.44c1.12,2.78,2.44,4.04,4.06,5.32c1.14,0.9,0.26,2-0.8,1.16c-0.84-0.66-2.08-2.14-2.66-3.34
			c-0.1-0.2-0.24-0.16-0.18,0.06c1.5,6.28-0.72,11.7-6.04,11.7C221.5,27.34,220.28,20.68,226.42,14.33z"/>
		<path class="st0" d="M245.46,20.37c2.1-0.6,4.18,0.02,5.64,0.56c0.52,0.22,0.86-0.12,0.64-0.94c-0.12-0.4-0.88-1.82-1.72-3.28
			c-3.34,1.08-6.82,0.9-8-0.18c-0.62-0.58-0.3-0.98,0.38-0.56c1.6,1.02,4.52,0.62,7.04-0.24c-0.72-1.2-1.4-2.26-1.72-2.64
			c-0.8-0.96,0.38-1.56,1.08-1.2c1.26,0.64,2.84,1.14,4.78,1.24c0.64,0.02,1.5,0.64,0.3,1.58c-0.88,0.68-1.86,1.22-2.9,1.64
			c0.9,1.7,1.58,3.26,1.98,4.48c0.66,1.96-0.96,2.16-2.16,1.42c-1.14-0.68-3.08-1.7-5.24-1.18c-3.38,0.8-1.34,5.68,5.14,4.64
			c1.32-0.24,2.16,1.04,0.68,1.34C243.62,28.74,240.8,21.72,245.46,20.37z M250.44,15.35c0.72-0.3,1.36-0.62,1.9-0.96
			c0.44-0.24,0.36-0.42-0.02-0.52c-0.88-0.26-1.82-0.54-2.98-1.14c-0.3-0.16-0.5-0.04-0.26,0.32
			C249.58,13.83,250.02,14.59,250.44,15.35z M253.74,10.59c1.02,0.42,1.64,0.86,2.18,1.84c0.6,1.16-0.72,1.64-1.26,0.52
			c-0.28-0.64-0.78-1.34-1.24-1.76C253,10.81,253.22,10.41,253.74,10.59z M255.74,10.25c0.76,0.26,1.62,0.72,2.12,1.5
			c0.54,0.94-0.6,1.68-1.2,0.58c-0.28-0.58-0.72-1.1-1.22-1.46C255.02,10.55,255.18,10.11,255.74,10.25z"/>
	</g>
</g>
<rect x="205.77" y="4.25" class="st1" width="65.35" height="31.5"/>
<g>
	<g>
		<g>
			<path class="st0" d="M312.66,20.6h-8.33v9.12c0,0.35-0.24,0.59-0.59,0.59h-0.9c-0.35,0-0.59-0.24-0.59-0.59V20.6h-8.33
				c-0.35,0-0.59-0.24-0.59-0.59v-0.75c0-0.35,0.24-0.59,0.59-0.59h8.33V9.79c0-0.35,0.24-0.59,0.59-0.59h0.9
				c0.35,0,0.59,0.24,0.59,0.59v8.88h8.33c0.35,0,0.59,0.23,0.59,0.59v0.75C313.25,20.36,313.01,20.6,312.66,20.6z"/>
		</g>
	</g>
	<g>
		<g>
			<path class="st0" d="M359.61,11.75c-0.12,0.08-0.3,0.14-0.48,0.18v14.52c0,0.98-0.18,1.6-1.6,1.8c-0.2,0.04-0.3-0.06-0.34-0.26
				c-0.06-0.24-0.16-0.46-0.34-0.6c-0.22-0.2-0.6-0.34-1.22-0.44c-0.18-0.02-0.28-0.1-0.28-0.2s0.12-0.16,0.32-0.14
				c0.52,0.04,1.54,0.12,1.8,0.12c0.36,0,0.44-0.12,0.44-0.42v-5.24h-2.2c-0.16,2.5-0.6,5.08-2.04,7.08
				c-0.12,0.14-0.22,0.2-0.34,0.12s-0.12-0.18-0.04-0.36c1.28-2.86,1.28-6.54,1.28-10v-7c0-0.22,0.12-0.34,0.34-0.24l1.12,0.48h1.7
				l0.44-0.54c0.12-0.16,0.28-0.16,0.42-0.04l1.02,0.78C359.79,11.49,359.81,11.65,359.61,11.75z M357.91,16.29h-2.14v1.6
				c0,0.82,0,1.7-0.04,2.6h2.18V16.29z M355.77,15.71h2.14v-3.96h-2.14V15.71z M372.12,27.06c0,0.52-0.56,0.78-2.94,0.78h-1.48
				c-1.3,0-1.58-0.34-1.58-1.3v-9.34c-0.14,0.14-0.34,0.22-0.74,0.26c-0.5,4.14-1.62,8.24-5.7,10.76c-0.16,0.1-0.28,0.1-0.34,0
				c-0.08-0.12-0.04-0.22,0.12-0.34c1.94-1.52,3.08-3.54,3.78-5.76c-0.14,0.16-0.4,0.22-0.68,0.1c-0.14-0.06-0.2-0.16-0.26-0.3
				c-0.22-0.54-0.66-1.18-1.1-1.7c-0.46,0.84-0.94,1.62-1.48,2.28c-0.12,0.14-0.24,0.16-0.34,0.1c-0.1-0.06-0.1-0.18,0-0.34
				c1.1-1.98,2-4.76,2.42-7.62c0.02-0.2,0.16-0.3,0.34-0.26l1.2,0.28c0.2,0.04,0.32,0.24,0.16,0.38c-0.12,0.08-0.3,0.14-0.52,0.16
				c-0.12,0.5-0.26,1-0.4,1.5H364l0.56-0.56c0.12-0.12,0.28-0.14,0.42,0l1.14,1.02v-1.52c0-0.22,0.16-0.32,0.36-0.22l1.06,0.48h1.86
				l0.4-0.48c0.12-0.16,0.28-0.16,0.42-0.06l1,0.72c0.18,0.14,0.2,0.32,0,0.4c-0.14,0.08-0.3,0.12-0.48,0.16v4.94
				c0,0.92-0.14,1.5-1.32,1.7c-0.2,0.04-0.3-0.06-0.34-0.26c-0.04-0.24-0.12-0.46-0.26-0.58c-0.16-0.16-0.44-0.3-0.86-0.4
				c-0.18-0.04-0.28-0.12-0.28-0.22c0-0.08,0.12-0.14,0.32-0.12c0.38,0.04,1.02,0.08,1.22,0.08c0.28,0,0.36-0.1,0.36-0.36v-4.94
				h-2.28v9.76c0,0.34,0.08,0.46,0.64,0.46h1.26c0.6,0,1.04,0,1.22-0.04c0.16-0.02,0.26-0.06,0.32-0.24c0.12-0.3,0.32-1.48,0.54-2.6
				c0.02-0.18,0.08-0.28,0.16-0.28s0.12,0.12,0.12,0.3l0.06,2.68C372.02,26.68,372.12,26.82,372.12,27.06z M360.75,15.55
				c-0.36,0.4-1.06,0.52-1.34,0.12c-0.22-0.4,0-0.84,0.38-1.14c0.5-0.42,0.98-1.54,1-2.56c0.02-0.2,0.08-0.3,0.18-0.3
				c0.12,0,0.2,0.08,0.24,0.26c0.08,0.28,0.12,0.54,0.14,0.8H365v-2.32c0-0.2,0.12-0.3,0.32-0.28l1.18,0.14
				c0.2,0.02,0.36,0.2,0.2,0.34c-0.1,0.06-0.22,0.12-0.4,0.16v1.96h3.52l0.58-0.58c0.14-0.14,0.3-0.14,0.44-0.02l0.98,0.96
				c0.16,0.16,0.14,0.36-0.08,0.4c-0.1,0.02-0.24,0.04-0.42,0.04c-0.46,0.54-1.24,1.28-1.86,1.78c-0.14,0.1-0.24,0.12-0.34,0.06
				c-0.08-0.04-0.1-0.16-0.02-0.34c0.24-0.48,0.5-1.14,0.72-1.7h-8.42C361.42,14.37,361.11,15.15,360.75,15.55z M361.43,19.71
				c1.38,0.54,1.92,1.26,1.98,1.8c0.36-1.34,0.58-2.78,0.72-4.24h-1.74C362.12,18.13,361.79,18.95,361.43,19.71z"/>
		</g>
	</g>
	<rect x="331.77" y="4.25" class="st1" width="65.35" height="31.5"/>
</g>
<rect x="80.29" y="4.25" class="st1" width="115.61" height="31.5"/>
<g>
	<g>
		<path class="st0" d="M96.25,25.18c-0.46,0.58-0.94,1.04-1.52,1.22c-1.14,0.34-3.12-0.74-1.18-1.44c3-1.08,3.92-3.34,6.8-4.66
			c-1.2-2.68-1.78-4.26,0.76-4.94c1.64-0.44,0.12-2.32-0.68-3.02c-0.6-0.54-0.16-0.86,0.42-0.5c4.16,2.66,3.12,4.32,1.18,4.2
			c-2.18-0.14-2.32,0.8-0.78,3.92c4.14-1.26,8.92,1.72,8.92,4.96c0,2.12-1.74,2.08-1.74,0.58c0-4.18-3.32-5.78-6.86-4.9
			c0.5,0.96,1.14,2.12,1.9,3.48c1.7,3.1-1.64,3.84-3.22,2.48C99.27,25.74,97.91,25.36,96.25,25.18z M100.45,25.62
			c0.88,0.32,2.06,0,1.68-1.06c-0.48-1.38-1.02-2.62-1.52-3.68c-1.98,0.78-3.04,2.52-4.02,3.84
			C98.03,24.92,99.67,25.34,100.45,25.62z"/>
		<path class="st0" d="M115.96,20.03c-0.32-0.44-0.46-1.08-0.16-1.68c2.06-4.02,4.42-5.36,4.16-6.66c-0.18-0.94,0.46-1.08,0.88-0.54
			c0.56,0.72,0.88,1.86-0.24,2.66c-1.36,1.02-3.32,3.08-4.06,4.88c-0.14,0.32-0.14,0.6,0.14,0.92c2.4,2.8,3.62,4.22,4.28,7.34
			c0.26,1.32-1.14,1.58-1.44,0.22C118.78,24,117.68,22.26,115.96,20.03z"/>
		<path class="st0" d="M132.22,27.04c13,0.1,8.84-13.38-0.1-4.38c-1.44,1.44-2.88,0.7-2.78-1c0.08-1.48,0.42-3.82,0.68-5.58
			c0.26-1.76,1.96-1.88,3.72-2.12c0.28-0.04,0.28-0.28,0.16-0.44c-0.52-0.78-1.14-1.14-2.04-1.5c-0.62-0.26-0.36-0.6,0-0.6
			c2.24,0.08,2.88,0.66,3.5,1.64c0.84,1.28,0.44,2.24-1.14,1.82c-2.56-0.7-3.12,0.04-3.24,1.2c-0.06,0.54-0.36,3.18-0.56,4.48
			c-0.16,1.32,0.74,1.06,1.52,0.52c11.4-8.16,14.2,7.3,0.24,6.42C131.54,27.46,131.6,27.02,132.22,27.04z"/>
		<path class="st0" d="M148.67,13.91c-0.9-1.24,0.04-1.86,0.98-0.66c1.08,1.4-0.62,6.36-1,8.4c-0.14,0.72,0.32,0.94,0.56,0.12
			c0.36-1.36,1.02-2.68,1.68-3.76c0.3-0.5,0.64-0.3,0.44,0.18c-0.68,1.66-2.08,5.24-1.6,6.86c0.62,2.02-0.8,2.44-1.5,0.68
			c-0.48-1.22-0.72-2.66-0.38-4.12C148.83,17.27,149.27,14.77,148.67,13.91z M159.48,24.42c-0.12,3.26-6.38,3.46-6.38,0.4
			c0-2.08,2.72-2.54,5.26-1.96c0.04-1.36,0.06-3.42,0.04-5.34c-1.3,0.04-2.7-0.4-3.88-1.48c-0.5-0.46-0.22-0.88,0.42-0.5
			c1.18,0.7,2.38,0.94,3.44,0.88c-0.06-1.94-0.2-3.6-0.52-4.02c-0.76-1.04-0.1-1.36,0.68-0.9c1.2,0.74,1.24,1.2,1.08,3.08
			c0.38,0.24,0.76,0.4,1.42,0.54c1.14,0.2,1.1,1.02-0.26,1.76c-0.42,0.24-0.88,0.4-1.36,0.52c-0.06,1.44-0.1,3.3,0,5.76
			c1.1,0.36,2.06,0.92,2.68,1.62c1.12,1.3,0.2,2.54-1,1C160.68,25.22,160.1,24.78,159.48,24.42z M158.34,23.94v-0.02
			c-2.14-0.76-4.46-0.46-4.46,1C153.88,26.56,158.28,26.46,158.34,23.94z M160.28,15.91c0.16-0.1,0.12-0.26-0.06-0.38
			c-0.24-0.16-0.46-0.32-0.64-0.48l-0.1,1.18C159.76,16.15,160.04,16.03,160.28,15.91z"/>
		<path class="st0" d="M176.13,22.06c0.5,0.14,0.7-0.02,0.54-0.44c-0.34-0.96-0.68-1.9-1-2.76c-2.32,0.6-4.84,0.72-6.64-0.56
			c-0.64-0.46-0.18-0.86,0.4-0.58c1.9,1,4,0.8,5.9,0.2c-0.38-0.98-0.74-1.88-1.1-2.66c-1.5,0.24-3,0.14-3.88-0.26
			c-0.62-0.3-0.36-0.82,0.16-0.64c1.14,0.4,2.26,0.24,3.22-0.1c-0.58-1.08-1.2-1.82-1.84-2.08c-1.44-0.58-0.92-1.28,0.42-0.96
			c1.06,0.24,1.5,0.7,2.38,2.66c0.42-0.18,0.78-0.36,1.08-0.5c0.98-0.44,2.16,0.32,0.96,1.02c-0.3,0.18-0.62,0.32-0.98,0.44
			c1.38,0.4,3.26,0.74,4.1,0.86c0.88,0.1,1.12,0.9,0.3,1.36c-0.92,0.52-2.14,1.06-3.46,1.5c0.4,0.9,0.84,1.92,1.34,3.08
			c0.74,1.66-0.58,2.56-1.64,1.82c-5.32-3.72-10.94,3.94-0.66,2.6c1.72-0.22,2.38,1.28,0.78,1.44
			C165.65,28.58,167.81,19.87,176.13,22.06z M176.27,17.57c0.74-0.28,1.4-0.6,2.02-0.92c0.26-0.14,0.3-0.36-0.12-0.5
			c-0.8-0.22-1.96-0.56-2.9-0.94L176.27,17.57z M178.75,11.87c1.04,0.42,1.66,0.84,2.2,1.82c0.6,1.16-0.72,1.66-1.26,0.54
			c-0.28-0.66-0.78-1.36-1.26-1.78C178.01,12.07,178.25,11.67,178.75,11.87z M180.75,11.53c0.78,0.24,1.64,0.7,2.14,1.5
			c0.54,0.92-0.62,1.66-1.2,0.56c-0.3-0.56-0.72-1.1-1.22-1.46C180.05,11.81,180.21,11.37,180.75,11.53z"/>
	</g>
</g>
</svg>
