<?xml version="1.0" encoding="utf-8"?>
<!-- Generator: Adobe Illustrator 25.4.1, SVG Export Plug-In . SVG Version: 6.00 Build 0)  -->
<svg version="1.1" id="レイヤー_1" xmlns="http://www.w3.org/2000/svg" xmlns:xlink="http://www.w3.org/1999/xlink" x="0px"
	 y="0px" viewBox="0 0 606 46" style="enable-background:new 0 0 606 46;" xml:space="preserve">
<style type="text/css">
	.st0{fill:#463243;}
</style>
<g>
	<g>
		<path class="st0" d="M5.88,30.38c-3.5-2.85-5.35-7.05-5.35-12.35s1.9-9.6,5.4-12.45c3.05-2.5,6.8-3.8,11.15-3.8s8.1,1.3,11.15,3.8
			c3.5,2.85,5.4,7.15,5.4,12.45s-1.85,9.5-5.35,12.35c-3.15,2.55-6.85,3.85-11.2,3.85S9.03,32.93,5.88,30.38z M28.68,18.02
			c0-9.55-4.5-14.95-11.6-14.95S5.53,8.47,5.53,18.02c0,9.5,4.45,14.9,11.55,14.9S28.68,27.53,28.68,18.02z"/>
		<path class="st0" d="M56.48,14.12c1.4,0,2.25,0.75,2.25,1.85c0,1.2-0.85,1.9-2.35,1.9c-0.8,0-1.65-0.15-2.65-0.15
			c-2.65,0-3.3,1.05-3.3,3.8v7.7c0,2.7,0.25,3.6,3,3.7v1.05h-9.6v-1.05c2.75-0.1,3.05-1,3.05-3.7v-11.1l-1.75-1.3v-0.65l4.35-2.35
			l0.85,0.45v3.7C52.43,15.42,54.53,14.12,56.48,14.12z"/>
		<path class="st0" d="M77.76,32.93v1.05h-9.75v-1.05c2.75-0.1,3.05-1,3.05-3.7v-11.1l-2.5-1.4v-0.8l5.35-2.1l0.85,0.45v14.95
			C74.76,31.93,75.01,32.83,77.76,32.93z M72.91,1.77c1.2,0,2.2,1,2.2,2.2c0,1.25-0.95,2.25-2.2,2.25c-1.15,0-2.25-1.05-2.25-2.25
			C70.66,2.82,71.76,1.77,72.91,1.77z"/>
		<path class="st0" d="M88.56,21.22c0-4,3.45-7.15,8.2-7.15c1.95,0,3.6,0.55,5.15,1.8c2.7-0.8,4.55-1.25,5.5-1.25
			s1.55,0.45,1.55,0.85c0,0.7-0.65,1.8-1.2,1.8c-0.5,0-1.55-0.55-3.15-0.55c-0.55,0-1.1,0.05-1.75,0.2c0.9,1.3,1.4,2.6,1.4,4.05
			c0,4.3-3.45,7.4-8.2,7.4c-0.45,0-1-0.1-1.7-0.2c-1.75,1-2.6,2.05-2.6,2.7c0,1.2,2.05,1.5,6.05,1.75c2.9,0.2,4.8,0.2,5.65,0.5
			c2.5,0.8,3.6,1.9,3.6,4.25c0,4.9-4.4,8.2-12.15,8.2c-5.6,0-8.75-1.7-8.75-4.05c0-2.3,1.95-3.95,5.95-5.7
			c-2.35-1.25-3.5-2.8-3.5-4.05c0-1.35,1.5-2.45,4.4-3.95C90.02,26.58,88.56,24.43,88.56,21.22z M89.77,40.63c0,2.2,2.3,3.8,6.3,3.8
			c5.15,0,8.4-2.25,8.4-5.15c0-2.75-2.5-3.2-8.5-3.2c-0.75,0-1.6,0-2.45,0C91.02,37.48,89.77,39.03,89.77,40.63z M100.97,22.13
			c0-4.3-2-6.95-4.65-6.95c-2.65,0-4.5,2.05-4.5,5.3c0,4.15,2,6.8,4.6,6.8C99.12,27.28,100.97,25.33,100.97,22.13z"/>
		<path class="st0" d="M127.89,32.93v1.05h-9.75v-1.05c2.75-0.1,3.05-1,3.05-3.7v-11.1l-2.5-1.4v-0.8l5.35-2.1l0.85,0.45v14.95
			C124.89,31.93,125.14,32.83,127.89,32.93z M123.04,1.77c1.2,0,2.2,1,2.2,2.2c0,1.25-0.95,2.25-2.2,2.25
			c-1.15,0-2.25-1.05-2.25-2.25C120.79,2.82,121.89,1.77,123.04,1.77z"/>
		<path class="st0" d="M147.98,32.93v1.05h-9.75v-1.05c2.75-0.1,3.05-1,3.05-3.7v-11.1l-1.75-1.3v-0.65l4.35-2.35l0.85,0.45v1.95
			c2.35-1.4,4.45-2.15,6.65-2.15c4.8,0,6.95,2.3,6.95,7.35v7.8c0,2.7,0.25,3.6,3,3.7v1.05h-9.7v-1.05c2.75-0.1,3-1,3-3.7v-6.35
			c0-4.75-1.1-7-4.7-7c-1.9,0-3.55,0.75-4.95,2.2v11.15C144.97,31.93,145.22,32.83,147.98,32.93z"/>
		<path class="st0" d="M176.67,34.13c-3.2,0-5-1.5-5-3.95c0-3.5,3.7-5,11.4-6.7v-3.4c0-3.35-0.4-4.7-3.1-4.7
			c-1.6,0-2.8,0.6-3.45,1.75c-0.75,1.3-0.55,3.25-2.55,3.25c-0.8,0-1.35-0.5-1.35-1.35c0-1.8,3.9-4.95,8.6-4.95
			c2.2,0,3.8,0.7,4.75,2.1c0.65,0.9,0.7,2.1,0.7,3.6c0,0.55,0,1.15,0,1.75v8.45c0,1.6,0.2,2.25,1.25,2.25c0.55,0,1.1-0.2,1.6-0.55
			l0.45,0.65c-1.3,1.3-2.75,1.95-4,1.95c-1.45,0-2.25-0.85-2.8-2.8C180.82,33.18,178.77,34.13,176.67,34.13z M183.07,24.53
			c-5.3,1.25-7.55,1.95-7.55,4.8c0,1.75,1.1,2.95,2.9,2.95c1.2,0,2.7-0.6,4.65-1.75V24.53z"/>
		<path class="st0" d="M209.9,32.93v1.05h-9.75v-1.05c2.75-0.1,3.05-1,3.05-3.7v-25l-1.95-1.15V2.12l5.65-1.7v28.8
			C206.9,31.93,207.15,32.83,209.9,32.93z"/>
	</g>
</g>
<g>
	<g>
		<path class="st0" d="M474.78,32.73c3.9-0.55,4.3-2.6,4.5-7.8l0.55-15.55c0-0.35,0-0.7,0-1c0-3.65-0.85-4.95-4.5-5.05v-1.3h8.35
			l11.25,25.55l11.65-25.55h7.85v1.3c-4.2,0.1-4.8,1.1-4.8,4.75c0,0.15,0,0.3,0,0.5l0.25,18.85c0.05,3.65,0.05,4.95,4.1,5.3v1.25
			h-12.3v-1.25c3.75-0.25,4.25-1.35,4.25-4.7c0-0.2,0-0.4,0-0.6l-0.25-20l-11.95,26.1h-0.75L481.23,6.87l-0.45,19.35
			c0,0.35,0,0.7,0,1c0,4,0.65,5.35,4.55,5.5v1.25h-10.55V32.73z"/>
		<path class="st0" d="M533.22,34.23c-5.45,0-9.35-4.15-9.35-10.25c0-5.6,4.3-9.9,9.8-9.9c4.2,0,7.15,2.6,7.45,6.75h-13.35
			c-0.15,1.05-0.25,2-0.25,3c0,4.75,3.1,8.25,7.3,8.25c1.95,0,3.7-0.8,5.75-2.2l0.65,0.75C538.97,33.03,536.32,34.23,533.22,34.23z
			 M537.47,19.68c-0.1-3-1.55-4.45-4.35-4.45c-2.45,0-4.2,1.55-5,4.45H537.47z"/>
		<path class="st0" d="M560.65,32.93v1.05h-9.75v-1.05c2.75-0.1,3.05-1,3.05-3.7v-11.1l-1.75-1.3v-0.65l4.35-2.35l0.85,0.45v1.95
			c2.35-1.4,4.45-2.15,6.65-2.15c4.8,0,6.95,2.3,6.95,7.35v7.8c0,2.7,0.25,3.6,3,3.7v1.05h-9.7v-1.05c2.75-0.1,3-1,3-3.7v-6.35
			c0-4.75-1.1-7-4.7-7c-1.9,0-3.55,0.75-4.95,2.2v11.15C557.65,31.93,557.9,32.83,560.65,32.93z"/>
		<path class="st0" d="M595.77,15.47v-1.05l6.75-0.35v13.95c0,2.65,0.15,3.65,1.5,3.65c0.4,0,0.85-0.15,1.45-0.35v1.3l-6.4,1.35
			v-1.95c-2.35,1.4-4.5,2.2-6.7,2.2c-4.8,0-6.9-2.3-6.9-7.35v-7.7c0-2.7-0.3-3.6-3.05-3.7v-1.05l6.75-0.35v11.3
			c0,4.75,1.05,7,4.65,7c1.9,0,3.6-0.7,5-2.15V19.18C598.82,16.47,598.52,15.57,595.77,15.47z"/>
	</g>
</g>
</svg>
