<?xml version="1.0" encoding="utf-8"?>
<!-- Generator: Adobe Illustrator 25.4.1, SVG Export Plug-In . SVG Version: 6.00 Build 0)  -->
<svg version="1.1" id="レイヤー_1" xmlns="http://www.w3.org/2000/svg" xmlns:xlink="http://www.w3.org/1999/xlink" x="0px"
	 y="0px" viewBox="0 0 750 30" style="enable-background:new 0 0 750 30;" xml:space="preserve">
<style type="text/css">
	.st0{fill:#463243;}
	.st1{fill:none;stroke:#463243;stroke-miterlimit:10;}
</style>
<g>
	<g>
		<g>
			<path class="st0" d="M26.6,20.25c-0.15,0.03-0.24-0.04-0.27-0.18c-0.05-0.21-0.12-0.41-0.26-0.52c-0.17-0.15-0.45-0.27-0.92-0.36
				c-0.13-0.01-0.21-0.07-0.21-0.15s0.09-0.1,0.24-0.1c0.39,0.04,1.16,0.1,1.37,0.1c0.24,0,0.31-0.09,0.31-0.31v-3.78h-2.08
				c-0.15,1.84-0.52,3.79-1.5,5.37c-0.08,0.12-0.17,0.17-0.24,0.12c-0.09-0.06-0.09-0.14-0.04-0.27c0.94-2.55,0.96-5.67,0.96-8.44
				V7.38c0-0.17,0.12-0.24,0.27-0.17l0.84,0.36h1.68l0.33-0.4c0.09-0.1,0.21-0.14,0.32-0.05l0.78,0.6c0.12,0.09,0.15,0.24,0,0.31
				c-0.11,0.06-0.23,0.1-0.36,0.14v10.66C27.82,19.6,27.7,20.08,26.6,20.25z M26.87,11.4h-1.99v0.31c0,0.85,0,1.81-0.06,2.81h2.05
				V11.4z M24.88,10.98h1.99V8.02h-1.99V10.98z M36.94,19.5c0,0.41-0.38,0.62-2,0.62h-1c-0.93,0-1.1-0.24-1.1-0.9v-5.08h-1.03
				c-0.23,3.06-1.05,4.95-3.71,6.25c-0.13,0.07-0.22,0.07-0.25,0c-0.03-0.08,0-0.17,0.12-0.24c2.19-1.5,2.74-3.31,2.86-6.01h-0.81
				v0.57c0,0.09-0.39,0.29-0.76,0.29c-0.09,0-0.15-0.09-0.15-0.23v-4.9c0-0.17,0.12-0.24,0.27-0.17l0.72,0.33h2.76
				c0.41-0.9,0.85-2.1,1.16-3.06c0.04-0.15,0.13-0.19,0.27-0.15l1.05,0.35c0.15,0.04,0.23,0.21,0.08,0.28
				c-0.09,0.06-0.21,0.08-0.38,0.06c-0.42,0.75-1.11,1.73-1.8,2.52h1.56l0.36-0.39c0.09-0.1,0.21-0.1,0.31-0.02l0.74,0.56
				c0.13,0.09,0.15,0.24,0,0.31c-0.11,0.04-0.21,0.09-0.33,0.1v3.92c-0.01,0.1-0.48,0.34-0.79,0.34c-0.09,0-0.15-0.09-0.15-0.23
				v-0.51h-1.17v4.83c0,0.2,0.04,0.26,0.39,0.26h0.81c0.38,0,0.63-0.02,0.76-0.02c0.12-0.02,0.17-0.04,0.23-0.21
				c0.08-0.25,0.22-1.2,0.39-2.1c0.02-0.13,0.08-0.21,0.13-0.21c0.06,0,0.11,0.09,0.11,0.23l0.03,2.16
				C36.91,19.2,36.94,19.32,36.94,19.5z M29.95,6.94c2.55,1.45,1.88,3.27,1.02,2.77c-0.11-0.06-0.14-0.14-0.17-0.24
				c-0.15-0.78-0.62-1.69-1.07-2.34c-0.09-0.12-0.1-0.19-0.04-0.24C29.77,6.85,29.83,6.88,29.95,6.94z M34.93,13.68v-3.19h-4.9v3.19
				H34.93z"/>
			<path class="st0" d="M57.79,12.21c-0.08,0.02-0.18,0-0.33-0.04c-0.88,0.72-2.37,1.71-3.72,2.44c1.12,2.11,2.78,3.66,4.96,4.62
				c0.13,0.06,0.2,0.1,0.18,0.17c-0.01,0.04-0.09,0.08-0.21,0.09c-0.31,0.04-0.58,0.22-0.76,0.51c-0.09,0.12-0.2,0.17-0.32,0.09
				c-3.22-1.83-4.98-4.98-5.58-9.75c-0.69,0.99-1.54,1.9-2.55,2.73v5.28c1.15-0.35,2.47-0.73,3.81-1.15
				c0.13-0.03,0.22-0.03,0.25,0.06c0.01,0.09-0.03,0.15-0.15,0.21c-1.51,0.67-3.54,1.56-6.25,2.65c-0.02,0.09-0.06,0.17-0.12,0.24
				c-0.09,0.1-0.23,0.04-0.3-0.07l-0.44-0.79c-0.08-0.15-0.03-0.24,0.13-0.29c0.51-0.14,1.23-0.33,2.08-0.57V13.8
				c-1,0.7-2.14,1.32-3.36,1.81c-0.13,0.05-0.21,0.03-0.25-0.04s0-0.15,0.13-0.22c2.38-1.31,4.5-3.23,5.79-5.17h-5.55
				c-0.14,0-0.23-0.08-0.25-0.2c-0.03-0.15,0.04-0.24,0.19-0.24h6.04V6.99c0-0.15,0.09-0.23,0.24-0.21l0.99,0.09
				c0.15,0.02,0.27,0.15,0.15,0.25c-0.08,0.08-0.19,0.14-0.36,0.17v2.43h4.24l0.62-0.73c0.09-0.12,0.2-0.12,0.32-0.03
				c0.24,0.18,0.66,0.52,1,0.84c0.1,0.09,0.15,0.21,0.04,0.29c-0.08,0.04-0.17,0.08-0.29,0.08H52.3c0.25,1.57,0.69,2.95,1.29,4.17
				c1.08-0.88,2.29-2.1,2.98-2.97c0.09-0.1,0.2-0.12,0.32-0.04l0.9,0.6C57.94,12.01,57.95,12.19,57.79,12.21z"/>
		</g>
	</g>
	<g>
		<g>
			<path class="st0" d="M308.64,12.49c-0.03,0.1-0.08,0.18-0.13,0.24c-0.1,0.09-0.22,0.04-0.3-0.09l-0.44-0.73
				c-0.09-0.14-0.04-0.26,0.14-0.27c0.93-0.14,2.56-0.44,4.29-0.75V9.6h-3.78c-0.12,0-0.21-0.04-0.25-0.18
				c-0.04-0.13,0.03-0.24,0.19-0.24h3.84V7.77c0-0.15,0.09-0.23,0.24-0.21l0.99,0.1c0.15,0.02,0.25,0.15,0.15,0.25
				c-0.08,0.09-0.21,0.15-0.44,0.18v4.74c0,0.1-0.41,0.31-0.76,0.31c-0.11,0-0.18-0.09-0.18-0.23V11.2
				C311.31,11.55,310.14,11.98,308.64,12.49z M317.94,13.24l0.88,0.63c0.14,0.1,0.14,0.24,0,0.31c-0.12,0.06-0.27,0.12-0.42,0.15
				v5.52c0,0.72-0.17,1.19-1.38,1.35c-0.15,0.03-0.22-0.04-0.27-0.18c-0.04-0.21-0.14-0.38-0.3-0.47c-0.2-0.15-0.53-0.27-1.1-0.34
				c-0.13-0.03-0.21-0.08-0.21-0.15c0-0.08,0.09-0.12,0.24-0.1c0.43,0.03,1.41,0.1,1.67,0.1c0.29,0,0.36-0.1,0.36-0.32v-1.5h-6.18
				v2.65c0,0.12-0.38,0.34-0.79,0.34c-0.1,0-0.17-0.09-0.17-0.22v-7.52c0-0.16,0.12-0.24,0.27-0.16l0.78,0.34h5.95l0.35-0.42
				C317.72,13.15,317.84,13.17,317.94,13.24z M311.24,15.72h6.18v-1.57h-6.18V15.72z M317.42,16.17h-6.18v1.65h6.18V16.17z
				 M320.82,12.15c0,0.45-0.46,0.62-2.73,0.62h-1.58c-1.16,0-1.37-0.23-1.37-0.95V7.77c0-0.15,0.09-0.23,0.24-0.21l0.87,0.1
				c0.15,0.02,0.25,0.15,0.13,0.25c-0.08,0.06-0.17,0.1-0.3,0.14v1.77c1.08-0.45,2.29-1.08,3.01-1.56c0.12-0.08,0.21-0.06,0.32,0.02
				l0.78,0.65c0.14,0.12,0.14,0.28-0.04,0.3c-0.12,0-0.29-0.03-0.46-0.1c-0.92,0.34-2.33,0.81-3.6,1.08v1.42
				c0,0.23,0.04,0.29,0.58,0.29h1.46c0.63,0,1.14-0.02,1.33-0.03c0.15,0,0.24-0.04,0.3-0.13c0.08-0.18,0.22-0.68,0.36-1.25
				c0.03-0.13,0.07-0.19,0.13-0.19s0.09,0.09,0.09,0.22l0.03,1.23C320.73,11.88,320.82,11.98,320.82,12.15z"/>
			<path class="st0" d="M335.93,7.89c0.24,0.18,0.69,0.54,1.06,0.87c0.11,0.09,0.15,0.21,0.04,0.3c-0.07,0.04-0.16,0.08-0.28,0.08
				h-6.04c-0.38,0.73-0.86,1.59-1.25,2.2h5.47l0.39-0.46c0.09-0.12,0.21-0.12,0.31-0.03l0.78,0.61c0.13,0.1,0.13,0.24,0,0.3
				c-0.11,0.06-0.24,0.09-0.42,0.12v8.92c0,0.07-0.38,0.33-0.84,0.33c-0.09,0-0.15-0.09-0.15-0.23v-0.87h-9.57v0.87
				c0,0.09-0.32,0.31-0.81,0.31c-0.09,0-0.15-0.09-0.15-0.23v-9.85c0-0.17,0.09-0.25,0.25-0.18l0.88,0.38h3.4
				c0.12-0.6,0.3-1.5,0.41-2.2h-5.64c-0.13,0-0.21-0.08-0.24-0.2c-0.04-0.17,0.04-0.25,0.19-0.25h11.26l0.63-0.77
				C335.7,7.8,335.81,7.8,335.93,7.89z M327.87,19.6v-7.81h-2.43v7.81H327.87z M328.8,11.79v2.26h2.8v-2.26H328.8z M328.8,14.47
				v2.34h2.8v-2.34C331.6,14.47,328.8,14.47,328.8,14.47z M331.61,19.6v-2.37h-2.8v2.37C328.81,19.6,331.61,19.6,331.61,19.6z
				 M332.54,19.6h2.47v-7.81h-2.47V19.6z"/>
		</g>
	</g>
	<line class="st1" x1="1" y1="15.24" x2="14.96" y2="15.24"/>
	<line class="st1" x1="68.03" y1="15.24" x2="82" y2="15.24"/>
	<line class="st1" x1="267.92" y1="15.24" x2="281.89" y2="15.24"/>
	<rect x="296.95" y="3.19" class="st1" width="49.01" height="23.62"/>
	<g>
		<g>
			<path class="st0" d="M375.39,8.83c-0.12,0.06-0.25,0.1-0.42,0.14v10.89c0,0.72-0.12,1.19-1.09,1.35
				c-0.15,0.03-0.23-0.04-0.25-0.19c-0.04-0.21-0.11-0.38-0.21-0.48c-0.17-0.14-0.41-0.24-0.81-0.31c-0.13-0.02-0.21-0.08-0.21-0.15
				c0-0.08,0.09-0.12,0.24-0.1c0.34,0.03,0.97,0.07,1.16,0.07c0.22,0,0.3-0.07,0.3-0.3V15.7h-1.58c-0.06,1.86-0.31,3.84-1.21,5.38
				c-0.08,0.12-0.17,0.17-0.24,0.12c-0.09-0.06-0.09-0.13-0.06-0.27c0.72-2.17,0.66-4.98,0.66-7.5V8.19c0-0.17,0.12-0.24,0.27-0.17
				l0.79,0.35h1.21l0.33-0.4c0.09-0.1,0.21-0.14,0.32-0.05l0.81,0.62C375.53,8.64,375.54,8.76,375.39,8.83z M374.09,12.16h-1.54
				v1.26c0,0.58,0,1.2-0.02,1.85h1.56V12.16z M372.54,11.73h1.54V8.82h-1.54V11.73z M379.56,12.93c0.2,0.15,0.5,0.42,0.76,0.68
				c0.09,0.09,0.14,0.21,0.03,0.3c-0.06,0.04-0.17,0.08-0.29,0.08h-1.89c-0.34,1.5-0.87,3.33-1.39,4.59
				c0.67-0.1,1.47-0.23,2.29-0.36c-0.23-0.79-0.54-1.62-0.83-2.28c-0.06-0.15-0.03-0.24,0.03-0.25c0.06-0.02,0.15,0.02,0.24,0.1
				c2.45,2.53,1.82,4.68,0.95,4.08c-0.09-0.07-0.12-0.15-0.13-0.27c-0.02-0.33-0.09-0.69-0.18-1.06c-0.73,0.3-1.72,0.67-3.01,1.12
				c-0.03,0.09-0.08,0.17-0.13,0.23c-0.09,0.1-0.21,0.04-0.29-0.07l-0.45-0.77c-0.08-0.15-0.01-0.27,0.15-0.29l0.87-0.1
				c0.3-1.29,0.63-3.27,0.81-4.66h-1.51c-0.13,0-0.23-0.08-0.25-0.2c-0.03-0.15,0.04-0.24,0.19-0.24h1.71v-2.83h-1.39
				c-0.13,0-0.22-0.08-0.25-0.19c-0.03-0.15,0.04-0.24,0.19-0.24h1.46V7.84c0-0.15,0.09-0.23,0.24-0.21l0.87,0.09
				c0.17,0.02,0.27,0.15,0.15,0.27c-0.07,0.06-0.18,0.12-0.34,0.15v2.13h0.53l0.42-0.55c0.09-0.12,0.2-0.12,0.31-0.03
				c0.18,0.15,0.47,0.41,0.71,0.65c0.09,0.09,0.14,0.21,0.03,0.3c-0.06,0.05-0.15,0.08-0.27,0.08h-1.73v2.83h0.65l0.45-0.58
				C379.34,12.84,379.44,12.82,379.56,12.93z M384.62,9.1c-0.12,0.06-0.25,0.12-0.42,0.15v8.71c0,0.72-0.12,1.17-1.06,1.35
				c-0.15,0.03-0.23-0.05-0.26-0.2c-0.04-0.21-0.1-0.39-0.21-0.51c-0.12-0.12-0.34-0.23-0.69-0.29c-0.13-0.03-0.21-0.09-0.21-0.17
				c0-0.06,0.09-0.09,0.24-0.09c0.3,0.03,0.84,0.08,0.99,0.08c0.23,0,0.29-0.09,0.29-0.29V9.07h-1.77v11.8
				c0,0.14-0.32,0.38-0.75,0.38c-0.11,0-0.17-0.09-0.17-0.22V8.44c0-0.17,0.12-0.24,0.27-0.17l0.72,0.34h1.54l0.33-0.4
				c0.09-0.1,0.21-0.14,0.32-0.04l0.83,0.63C384.74,8.91,384.75,9.03,384.62,9.1z"/>
		</g>
	</g>
	<rect x="353.42" y="3.19" class="st1" width="49.01" height="23.62"/>
	<g>
		<g>
			<path class="st0" d="M427.92,9.04c-0.03-0.15,0.04-0.25,0.2-0.25h4.38l0.52-0.66c0.09-0.1,0.2-0.13,0.32-0.04
				c0.22,0.18,0.6,0.5,0.92,0.78c0.09,0.09,0.13,0.21,0.04,0.3c-0.08,0.04-0.17,0.08-0.29,0.08h-5.85
				C428.03,9.24,427.95,9.16,427.92,9.04z M434.13,18.33c-1.25,0.51-2.96,1.17-5.26,1.98c-0.04,0.09-0.09,0.18-0.15,0.25
				c-0.1,0.09-0.24,0.03-0.3-0.09l-0.45-0.84c-0.08-0.14-0.01-0.25,0.13-0.29c0.72-0.12,1.85-0.36,3.15-0.65
				c0.3-0.9,0.62-2.07,0.81-2.98c0.03-0.15,0.12-0.21,0.27-0.17l0.96,0.24c0.15,0.04,0.25,0.19,0.1,0.28
				c-0.09,0.06-0.22,0.1-0.39,0.09c-0.29,0.7-0.79,1.63-1.28,2.43l2.33-0.52c0.13-0.03,0.23-0.02,0.24,0.06
				C434.31,18.21,434.27,18.28,434.13,18.33z M432.53,15.04v-0.38h-3.04v0.36c0,0.09-0.36,0.29-0.74,0.29
				c-0.08,0-0.13-0.09-0.13-0.23v-4.17c0-0.17,0.1-0.24,0.27-0.17l0.67,0.29h2.85l0.34-0.38c0.09-0.1,0.21-0.1,0.31-0.02l0.72,0.54
				c0.12,0.09,0.13,0.24,0,0.31c-0.11,0.04-0.23,0.09-0.35,0.12v3.31c-0.01,0.1-0.46,0.33-0.76,0.33h-0.08
				C432.56,15.27,432.53,15.18,432.53,15.04z M429.35,15.72c2.04,1.52,1.19,3.18,0.41,2.59c-0.09-0.07-0.12-0.15-0.12-0.27
				c-0.01-0.71-0.25-1.53-0.54-2.15c-0.06-0.14-0.06-0.23,0.02-0.25C429.17,15.61,429.24,15.64,429.35,15.72z M432.53,11.49h-3.04
				v2.75h3.04V11.49z M432.65,20.92c1.4-0.54,2.94-1.46,3.81-2.4c0.09-0.1,0.21-0.12,0.31-0.05l0.78,0.48
				c0.15,0.09,0.18,0.29,0.01,0.29c-0.09,0-0.18-0.02-0.29-0.04c-0.96,0.85-2.86,1.63-4.54,2.01c-0.14,0.03-0.21,0-0.26-0.07
				C432.45,21.06,432.5,20.98,432.65,20.92z M440.64,7.74c0.24,0.18,0.66,0.52,0.99,0.82c0.09,0.09,0.13,0.21,0.04,0.3
				c-0.08,0.04-0.17,0.07-0.29,0.07h-3.01c-0.3,0.63-0.65,1.32-0.98,1.81h2.24l0.39-0.4c0.09-0.09,0.21-0.1,0.32-0.02l0.73,0.57
				c0.12,0.09,0.14,0.24,0,0.31c-0.1,0.05-0.21,0.08-0.34,0.11V18c0,0.1-0.01,0.2-0.1,0.26c-0.17,0.09-0.47,0.22-0.71,0.22
				c-0.09,0-0.15-0.09-0.15-0.22v-0.41h-3.84v0.44c0,0.1-0.39,0.33-0.79,0.33c-0.1,0-0.17-0.09-0.17-0.23v-7.81
				c0-0.17,0.12-0.24,0.27-0.17l0.76,0.34h0.9c0.11-0.5,0.23-1.21,0.3-1.81h-2.61c-0.13,0-0.21-0.07-0.24-0.19
				c-0.04-0.17,0.04-0.25,0.2-0.25h5.21l0.57-0.71C440.42,7.68,440.52,7.65,440.64,7.74z M435.93,12.96h3.84V11.2h-3.84V12.96z
				 M439.77,15.19v-1.8h-3.84v1.8H439.77z M439.77,15.63h-3.84v1.78h3.84V15.63z M438.59,18.55c3.55,0.88,3.36,2.97,2.34,2.69
				c-0.12-0.03-0.17-0.1-0.23-0.2c-0.43-0.76-1.42-1.66-2.23-2.25c-0.13-0.09-0.18-0.16-0.13-0.21
				C438.38,18.52,438.45,18.52,438.59,18.55z"/>
		</g>
	</g>
	<rect x="410.32" y="3.19" class="st1" width="49.01" height="23.62"/>
	<g>
		<g>
			<path class="st0" d="M575.43,8.82c-0.09,0.06-0.23,0.1-0.36,0.13v10.89c0,0.73-0.13,1.2-1.2,1.35c-0.15,0.03-0.22-0.04-0.25-0.19
				c-0.04-0.18-0.12-0.34-0.25-0.45c-0.17-0.15-0.45-0.26-0.92-0.33c-0.13-0.02-0.21-0.08-0.21-0.15c0-0.08,0.09-0.12,0.24-0.1
				c0.39,0.03,1.16,0.09,1.35,0.09c0.27,0,0.33-0.09,0.33-0.31v-3.93h-1.65c-0.12,1.88-0.45,3.81-1.53,5.31
				c-0.09,0.1-0.17,0.15-0.25,0.09s-0.09-0.13-0.03-0.27c0.96-2.15,0.96-4.9,0.96-7.5V8.19c0-0.17,0.09-0.25,0.25-0.18l0.84,0.36
				h1.27l0.33-0.4c0.09-0.12,0.21-0.12,0.32-0.03l0.76,0.58C575.57,8.62,575.58,8.74,575.43,8.82z M574.16,12.22h-1.6v1.2
				c0,0.62,0,1.27-0.03,1.95h1.63V12.22z M572.55,11.79h1.6V8.82h-1.6V11.79z M584.81,20.29c0,0.39-0.42,0.58-2.2,0.58h-1.11
				c-0.97,0-1.18-0.25-1.18-0.97v-7c-0.11,0.1-0.25,0.17-0.56,0.19c-0.38,3.1-1.21,6.18-4.27,8.07c-0.12,0.08-0.21,0.08-0.25,0
				c-0.06-0.09-0.03-0.17,0.09-0.25c1.46-1.14,2.31-2.65,2.83-4.32c-0.11,0.12-0.3,0.17-0.51,0.07c-0.11-0.04-0.15-0.12-0.2-0.22
				c-0.17-0.41-0.5-0.89-0.83-1.27c-0.34,0.63-0.71,1.21-1.11,1.71c-0.09,0.1-0.18,0.12-0.25,0.08c-0.08-0.04-0.08-0.13,0-0.25
				c0.82-1.48,1.5-3.57,1.81-5.71c0.01-0.15,0.12-0.23,0.25-0.19l0.9,0.21c0.15,0.03,0.24,0.18,0.12,0.28
				c-0.09,0.06-0.23,0.1-0.39,0.12c-0.09,0.38-0.19,0.75-0.3,1.12h1.07l0.42-0.42c0.09-0.09,0.21-0.1,0.31,0l0.86,0.77v-1.14
				c0-0.17,0.12-0.24,0.27-0.17l0.79,0.36h1.4l0.3-0.36c0.09-0.12,0.21-0.12,0.31-0.04l0.75,0.54c0.14,0.1,0.15,0.24,0,0.3
				c-0.1,0.06-0.22,0.09-0.36,0.12v3.7c0,0.69-0.11,1.12-0.99,1.28c-0.15,0.03-0.22-0.05-0.25-0.2c-0.03-0.18-0.09-0.34-0.2-0.44
				c-0.12-0.12-0.33-0.22-0.64-0.3c-0.14-0.03-0.21-0.09-0.21-0.17c0-0.06,0.09-0.1,0.24-0.09c0.29,0.03,0.77,0.06,0.92,0.06
				c0.21,0,0.27-0.08,0.27-0.27v-3.71h-1.71v7.32c0,0.25,0.06,0.34,0.48,0.34h0.95c0.45,0,0.78,0,0.92-0.03
				c0.12-0.02,0.2-0.04,0.24-0.18c0.09-0.22,0.24-1.11,0.4-1.95c0.02-0.14,0.06-0.21,0.12-0.21s0.09,0.09,0.09,0.23l0.04,2.01
				C584.73,20.01,584.81,20.11,584.81,20.29z M576.29,11.67c-0.27,0.3-0.79,0.39-1,0.09c-0.17-0.3,0-0.63,0.29-0.85
				c0.38-0.31,0.74-1.15,0.75-1.92c0.01-0.15,0.06-0.22,0.13-0.22c0.09,0,0.15,0.06,0.18,0.19c0.06,0.21,0.09,0.4,0.1,0.6h2.73V7.81
				c0-0.15,0.09-0.22,0.24-0.21l0.88,0.1c0.15,0.02,0.27,0.15,0.15,0.26c-0.08,0.04-0.17,0.09-0.3,0.12v1.47h2.64l0.44-0.44
				c0.1-0.1,0.22-0.1,0.33-0.02l0.74,0.72c0.12,0.12,0.11,0.27-0.06,0.3c-0.08,0.02-0.18,0.03-0.32,0.03
				c-0.34,0.41-0.93,0.96-1.39,1.33c-0.11,0.08-0.18,0.09-0.25,0.05c-0.06-0.03-0.08-0.12-0.02-0.26c0.18-0.36,0.38-0.85,0.54-1.27
				h-6.31C576.78,10.78,576.56,11.37,576.29,11.67z M576.8,14.79c1.03,0.4,1.44,0.94,1.48,1.35c0.27-1,0.44-2.08,0.54-3.18h-1.3
				C577.31,13.6,577.07,14.22,576.8,14.79z"/>
		</g>
	</g>
	<rect x="553.22" y="3.19" class="st1" width="49.01" height="23.62"/>
	<g>
		<g>
			<path class="st0" d="M478.73,20.65c2.94-0.63,5.16-3.31,5.47-6.65c0.06-0.79,0.06-1.32-0.3-1.71c-2.91,0.25-3.35,0.56-4.04,0.15
				c-0.86-0.49-0.54-1.12,0.08-0.91c1.33,0.48,3.01,0.28,6.43-0.1c0.95-0.1,1.59-0.29,2.17-0.02c0.97,0.45,0.71,1.09-0.01,0.9
				c-0.63-0.18-1.21-0.21-1.96-0.19c-0.8,0.03-1.49,0.07-2.08,0.12c0.27,0.17,0.46,0.31,0.69,0.5c0.55,0.5,0.24,0.89,0.17,1.04
				c-0.09,0.13-0.12,0.33-0.15,0.58c-0.36,3.72-3.49,6.13-6.4,6.58C478.44,20.98,478.4,20.73,478.73,20.65z M481.13,9.21
				c1.02,0.38,1.86,0.21,3.67-0.24c0.53-0.12,1.09-0.33,1.67-0.04c0.75,0.36,0.54,0.85,0.01,0.82c-0.51-0.03-0.79-0.04-1.44,0
				c-2.99,0.15-3.55,0.65-4.11,0.21C480.24,9.43,480.63,9.01,481.13,9.21z M487.11,7.83c0.78,0.3,1.25,0.63,1.65,1.36
				c0.45,0.87-0.54,1.23-0.95,0.39c-0.21-0.48-0.58-1-0.94-1.32C486.56,7.98,486.74,7.68,487.11,7.83z M488.61,7.56
				c0.58,0.19,1.23,0.54,1.61,1.13c0.41,0.71-0.46,1.26-0.9,0.44c-0.21-0.44-0.54-0.83-0.92-1.1
				C488.09,7.78,488.21,7.45,488.61,7.56z"/>
			<path class="st0" d="M500.57,17.74c-4.96,0.23-5.28,0.73-6.17-0.09c-0.64-0.62-0.38-1.05,0.24-0.78
				c1.02,0.48,1.58,0.41,5.79,0.09c0.28-0.02,0.54-0.06,0.82-0.08c0.24-1.54,0.32-2.58,0.47-4.02c0.03-0.24-0.06-0.3-0.21-0.3
				c-6.63,0.31-6.69,0.75-7.36-0.04c-0.62-0.72-0.24-1.26,0.42-0.81c1.05,0.71,2.61,0.45,7.16-0.03c1.08-0.12,1.17,0.25,0.99,1.15
				c-0.19,0.85-0.46,2.42-0.76,4.11c0.13,0.03,0.27,0.08,0.41,0.14c0.81,0.36,0.49,1.15-0.17,0.9
				C501.65,17.77,501.15,17.71,500.57,17.74z"/>
			<path class="st0" d="M509.75,13.14c0.03-0.7,0.1-1.06-0.39-1.51c-0.46-0.45-0.31-0.84,0.21-0.72c1.53,0.36,1.7,1.1,1.46,1.56
				c-0.1,0.17-0.15,0.39-0.15,0.65c-0.17,3.4-1.83,6.24-5.01,7.77c-0.23,0.12-0.39-0.09-0.08-0.27
				C508.02,19.32,509.63,16.15,509.75,13.14z M512.82,17.13c0.11-6,0.2-6.27-0.4-6.69c-0.5-0.36-0.5-0.98,0.3-0.77
				c1.63,0.41,1.35,1.14,1.26,1.5c-0.04,0.2-0.08,0.42-0.09,0.93c-0.09,1.62-0.12,2.38-0.12,4.51c0,0.23,0.13,0.29,0.33,0.2
				c1.67-0.87,2.7-1.73,4.54-3.5c0.34-0.31,0.55-0.03,0.31,0.24c-2.26,2.62-3.63,3.84-4.53,4.41
				C513.51,18.52,512.81,18.31,512.82,17.13z"/>
			<path class="st0" d="M522.54,20.7c2.94-0.65,5.16-3.33,5.47-6.66c0.06-0.79,0.06-1.32-0.29-1.71c-2.92,0.25-3.36,0.57-4.05,0.15
				c-0.85-0.5-0.54-1.12,0.08-0.9c1.33,0.46,3.01,0.27,6.43-0.12c0.95-0.1,1.61-0.29,2.17-0.02c0.98,0.45,0.71,1.1-0.01,0.9
				c-0.63-0.17-1.21-0.21-1.96-0.18c-0.79,0.03-1.49,0.07-2.08,0.12c0.27,0.15,0.46,0.3,0.69,0.48c0.56,0.49,0.24,0.88,0.17,1.03
				c-0.09,0.14-0.12,0.35-0.15,0.58c-0.36,3.72-3.48,6.13-6.41,6.58C522.25,21.01,522.21,20.76,522.54,20.7z M524.95,9.24
				c1,0.38,1.84,0.21,3.66-0.23c0.53-0.14,1.1-0.35,1.67-0.06c0.75,0.38,0.54,0.85,0.02,0.83c-0.51-0.03-0.78-0.05-1.44,0
				c-2.98,0.15-3.55,0.64-4.11,0.21C524.05,9.46,524.45,9.04,524.95,9.24z"/>
		</g>
	</g>
	<rect x="466.79" y="3.19" class="st1" width="79.01" height="23.62"/>
	<g>
		<g>
			<path class="st0" d="M95.27,16.54c-1.05,0.82-2.25,1.57-3.75,2.34c-0.3,0.15-0.42-0.12-0.09-0.33c3.45-2.34,4.62-3.58,6.73-6.63
				c-4.11,0.2-4.28,0.56-5.16-0.21c-0.72-0.61-0.17-0.9,0.2-0.72c1.06,0.57,2.1,0.39,5.97,0.19c-0.06-2.28-0.2-2.53-0.55-2.79
				c-0.53-0.36-0.27-0.84,0.61-0.51c1.23,0.48,1.05,0.93,0.99,1.6c-0.04,0.56-0.08,1.09-0.1,1.65l1.65-0.08
				c0.88-0.04,1.28-0.13,1.63-0.03c0.77,0.25,0.89,1.15,0.09,0.93c-0.4-0.12-0.91-0.15-1.6-0.15c-0.64,0-1.25,0.02-1.79,0.03
				c-0.08,2.07-0.03,4.2,0.17,6.97c0.09,1.41-0.9,1.75-1.53,0.73C97.68,17.89,96.89,17.37,95.27,16.54z M98.88,18.09
				c0.24,0.17,0.36,0.1,0.36-0.2c-0.02-2.35-0.03-4.11-0.06-5.41C98,14,96.9,15.19,95.63,16.26C96.83,16.71,98.03,17.43,98.88,18.09
				z"/>
			<path class="st0" d="M111.85,12.34c0.03-0.7,0.1-1.06-0.39-1.51c-0.46-0.45-0.31-0.84,0.21-0.72c1.53,0.36,1.7,1.1,1.46,1.56
				c-0.1,0.17-0.15,0.39-0.15,0.65c-0.17,3.4-1.83,6.24-5.01,7.77c-0.23,0.12-0.39-0.09-0.08-0.27
				C110.13,18.52,111.73,15.36,111.85,12.34z M114.93,16.33c0.11-6,0.2-6.27-0.4-6.69c-0.5-0.36-0.5-0.98,0.3-0.77
				c1.63,0.41,1.35,1.14,1.26,1.5c-0.04,0.2-0.08,0.42-0.09,0.93c-0.09,1.62-0.12,2.38-0.12,4.51c0,0.23,0.13,0.29,0.33,0.2
				c1.67-0.87,2.7-1.73,4.54-3.5c0.34-0.31,0.55-0.03,0.31,0.24c-2.26,2.62-3.63,3.84-4.53,4.41
				C115.62,17.73,114.91,17.52,114.93,16.33z"/>
			<path class="st0" d="M127.01,19.83c3.88-0.71,7.48-2.91,7.69-8.49c0.01-0.22-0.08-0.34-0.32-0.33c-1.29,0.1-3.52,0.18-5.04,0.21
				c0.04,0.67,0.12,1.23,0.22,1.98c0.2,1.19-1,1.22-1,0.02c0-1.67-0.17-2.5-0.54-2.82c-0.39-0.31-0.18-0.61,0.39-0.46
				c0.5,0.13,0.72,0.31,0.83,0.6c0.6,0,1.33-0.02,2.1-0.05c0.08-1.38,0.02-1.74-0.4-2.13c-0.46-0.38-0.23-0.72,0.33-0.57
				c0.82,0.21,1.06,0.57,0.97,1.08c-0.11,0.45-0.15,0.85-0.17,1.57c1.04-0.04,2.1-0.13,2.92-0.23c0.78-0.09,0.99,0.32,0.9,1.1
				c-0.35,3.36-1.54,8.05-8.88,8.88C126.44,20.25,126.42,19.93,127.01,19.83z M135.23,7.92c0.78,0.32,1.25,0.65,1.65,1.37
				c0.45,0.87-0.54,1.25-0.95,0.4c-0.21-0.48-0.58-1.02-0.94-1.33C134.67,8.07,134.85,7.78,135.23,7.92z M136.73,7.66
				c0.58,0.18,1.23,0.52,1.61,1.13c0.41,0.71-0.46,1.26-0.9,0.42c-0.22-0.42-0.54-0.82-0.92-1.09
				C136.2,7.87,136.32,7.54,136.73,7.66z"/>
			<path class="st0" d="M142.97,16.17c2.8-1.67,4.09-2.73,5.8-4.67c0.25-0.28,0.36-0.4,0.21-0.78c-0.15-0.45,0.35-0.57,0.86-0.19
				c0.64,0.42,0.3,0.94-0.06,1.32c-0.61,0.57-1.14,1.06-1.65,1.48c0.66,0.17,0.72,0.63,0.67,1.14c-0.2,1.9-0.08,3.34-0.01,4.51
				c0.04,1.03-0.96,1.06-0.9,0.02c0.06-0.96,0.15-3.25,0.13-4.26c-0.01-0.72-0.19-0.92-0.38-0.99c-1.47,1.2-2.65,1.88-4.54,2.76
				C142.79,16.62,142.62,16.36,142.97,16.17z"/>
			<path class="st0" d="M158.07,16.29c1.05,0.4,1.23,0.43,5.22,0.16c0.04-1.54-0.01-2.94-0.07-3.67c-0.03-0.51-0.21-0.78-0.41-0.96
				c-2.19,0.27-2.61,0.26-3.09-0.12c-0.83-0.63-0.39-0.95,0.01-0.77c1.02,0.5,1.38,0.3,5.92-0.18c0.99-0.1,1.21-0.18,1.68-0.07
				c0.62,0.1,0.9,1.15,0.12,0.94c-0.63-0.19-1.15-0.24-1.75-0.17l-1.88,0.24c0.51,0.25,0.5,0.51,0.38,1c-0.09,0.3-0.17,1.4-0.27,3.7
				l2.64-0.19c1.19-0.08,1.82-0.38,2.57-0.02c0.7,0.35,0.82,0.9,0.03,0.81c-0.85-0.13-1.62-0.13-2.52-0.1
				c-8.04,0.25-7.53,1.12-8.85,0.1C157.16,16.48,157.61,16.11,158.07,16.29z"/>
			<path class="st0" d="M188.77,19.32c0.13,0.03,0.21,0.07,0.21,0.12c0,0.05-0.06,0.08-0.18,0.14c-0.27,0.1-0.46,0.33-0.58,0.63
				c-0.04,0.14-0.13,0.19-0.27,0.17c-2.91-0.58-4.69-1.69-5.65-4.03h-0.26c-0.51,1.84-1.88,3.16-6.63,4.09
				c-0.15,0.03-0.23,0.02-0.27-0.09s0.01-0.18,0.18-0.21c3.77-1.01,5.12-2.16,5.61-3.79h-5.43c-0.14,0-0.21-0.08-0.24-0.2
				c-0.03-0.15,0.04-0.24,0.2-0.24h5.59c0.1-0.48,0.15-0.98,0.18-1.53c0.01-0.15,0.11-0.23,0.24-0.21l1.08,0.1
				c0.15,0.02,0.27,0.15,0.17,0.27c-0.09,0.09-0.23,0.15-0.41,0.17c-0.04,0.42-0.09,0.83-0.17,1.2h4.68l0.6-0.72
				c0.09-0.1,0.2-0.13,0.32-0.04c0.22,0.18,0.64,0.52,0.99,0.84c0.1,0.09,0.15,0.21,0.03,0.3c-0.06,0.04-0.15,0.06-0.27,0.06h-5.85
				C183.73,18.19,185.86,18.99,188.77,19.32z M181.45,11.71h-4.17c-0.13,0-0.21-0.07-0.24-0.19c-0.04-0.17,0.04-0.25,0.19-0.25h4.21
				V9.58h-4.92c-0.12,0-0.23-0.07-0.26-0.19c-0.04-0.17,0.04-0.25,0.2-0.25h3.66c-0.08,0-0.15-0.02-0.24-0.06
				c-0.1-0.06-0.13-0.14-0.17-0.24c-0.17-0.6-0.6-1.27-1.04-1.75c-0.1-0.12-0.12-0.21-0.08-0.24c0.05-0.03,0.12-0.03,0.24,0.01
				c2.25,0.74,2.01,2.25,1.32,2.28h2.94c0.39-0.66,0.81-1.53,1.1-2.23c0.04-0.14,0.15-0.18,0.28-0.14l1.02,0.36
				c0.15,0.06,0.24,0.21,0.08,0.29c-0.09,0.04-0.21,0.06-0.38,0.04c-0.41,0.51-1.04,1.14-1.65,1.68h2.55l0.57-0.69
				c0.09-0.1,0.19-0.14,0.31-0.05c0.23,0.18,0.65,0.51,0.98,0.81c0.1,0.09,0.15,0.21,0.06,0.3c-0.08,0.04-0.18,0.07-0.31,0.07h-5.27
				v1.68h3l0.54-0.66c0.09-0.12,0.21-0.12,0.33-0.03c0.21,0.18,0.58,0.49,0.92,0.76c0.11,0.09,0.15,0.21,0.04,0.3
				c-0.08,0.04-0.17,0.07-0.29,0.07h-4.54v1.79h4.16l0.57-0.71c0.09-0.1,0.19-0.13,0.31-0.04c0.23,0.18,0.63,0.52,0.98,0.81
				c0.1,0.09,0.15,0.21,0.04,0.3c-0.08,0.04-0.18,0.08-0.3,0.08h-12.37c-0.12,0-0.21-0.04-0.25-0.18c-0.04-0.17,0.04-0.25,0.2-0.25
				h5.67L181.45,11.71L181.45,11.71z"/>
			<path class="st0" d="M201.82,11.89c-0.1,0.03-0.22,0.06-0.39,0.08c1.28,1.6,3.72,2.97,6.22,3.78c0.13,0.04,0.2,0.09,0.18,0.17
				c-0.01,0.09-0.07,0.12-0.19,0.18c-0.27,0.1-0.5,0.3-0.63,0.52c-0.06,0.14-0.15,0.18-0.29,0.14c-0.55-0.23-1.09-0.51-1.62-0.81
				l0.04,0.03c-0.08,0.09-0.29,0.2-0.54,0.24v3.84c-0.01,0.1-0.51,0.33-0.81,0.33c-0.09,0-0.15-0.09-0.15-0.23v-0.69h-5.59v0.67
				c0,0.1-0.41,0.33-0.81,0.33c-0.09,0-0.15-0.09-0.15-0.23v-4.56c-0.92,0.54-1.89,1.03-2.87,1.41c-0.13,0.04-0.22,0.04-0.25-0.04
				c-0.03-0.07,0.02-0.15,0.15-0.21c2.49-1.17,5.17-3.51,6.06-5.38c0.04-0.12,0.13-0.17,0.27-0.13l1.27,0.28
				C201.9,11.65,201.99,11.82,201.82,11.89z M195.34,11.08c-0.33,0.3-0.9,0.36-1.09,0.04c-0.17-0.3,0.01-0.63,0.31-0.84
				c0.56-0.38,1.1-1.3,1.16-2.29c0-0.15,0.06-0.23,0.13-0.23s0.14,0.06,0.17,0.2c0.04,0.21,0.08,0.4,0.09,0.58h4.26V6.96
				c0-0.15,0.09-0.22,0.24-0.21l1.04,0.09c0.17,0.01,0.27,0.15,0.15,0.27c-0.08,0.09-0.21,0.15-0.42,0.18v1.26h4.68l0.48-0.5
				c0.09-0.1,0.21-0.1,0.32,0l0.78,0.77c0.12,0.1,0.12,0.25-0.04,0.3c-0.09,0.02-0.19,0.03-0.33,0.03
				c-0.39,0.45-1.06,1.04-1.63,1.43c-0.1,0.07-0.19,0.09-0.25,0.04c-0.06-0.03-0.06-0.12,0.01-0.25c0.23-0.41,0.48-0.95,0.68-1.38
				h-9.92C196.14,10.02,195.75,10.72,195.34,11.08z M195.63,12.91c1.14-0.83,2.23-2.06,2.83-3.03c0.08-0.12,0.18-0.15,0.3-0.09
				l0.88,0.41c0.15,0.07,0.21,0.25,0.04,0.28c-0.08,0.03-0.18,0.03-0.33,0c-0.73,0.92-2.11,2.01-3.58,2.67
				c-0.12,0.06-0.21,0.06-0.25-0.01C195.48,13.08,195.51,13,195.63,12.91z M201.15,12.15c-0.79,1.1-2.08,2.27-3.6,3.25l0.58,0.25
				h5.38l0.43-0.48C202.75,14.31,201.76,13.26,201.15,12.15z M203.65,16.11h-5.59v2.91h5.59V16.11z M202.26,9.97
				c4.03,0.87,3.99,3.17,2.92,2.9c-0.11-0.03-0.17-0.09-0.23-0.18c-0.54-0.88-1.77-1.88-2.8-2.48c-0.13-0.09-0.19-0.16-0.15-0.21
				C202.05,9.96,202.14,9.94,202.26,9.97z"/>
			<path class="st0" d="M216.28,16.54c-1.05,0.82-2.25,1.57-3.75,2.34c-0.3,0.15-0.42-0.12-0.09-0.33c3.45-2.34,4.62-3.58,6.73-6.63
				c-4.11,0.2-4.28,0.56-5.16-0.21c-0.72-0.61-0.17-0.9,0.2-0.72c1.06,0.57,2.1,0.39,5.97,0.19c-0.06-2.28-0.2-2.53-0.55-2.79
				c-0.53-0.36-0.27-0.84,0.61-0.51c1.23,0.48,1.05,0.93,0.99,1.6c-0.04,0.56-0.08,1.09-0.1,1.65l1.65-0.08
				c0.88-0.04,1.28-0.13,1.63-0.03c0.77,0.25,0.89,1.15,0.09,0.93c-0.4-0.12-0.91-0.15-1.6-0.15c-0.64,0-1.25,0.02-1.79,0.03
				c-0.08,2.07-0.03,4.2,0.17,6.97c0.09,1.41-0.9,1.75-1.53,0.73C218.69,17.89,217.9,17.37,216.28,16.54z M219.89,18.09
				c0.24,0.17,0.36,0.1,0.36-0.2c-0.02-2.35-0.03-4.11-0.06-5.41c-1.18,1.52-2.28,2.71-3.55,3.78
				C217.84,16.71,219.04,17.43,219.89,18.09z"/>
			<path class="st0" d="M229.66,15.48c3.74-2.23,5.46-3.66,7.75-6.23c0.33-0.36,0.5-0.58,0.3-1.11c-0.19-0.52,0.39-0.65,1.02-0.19
				c0.78,0.54,0.39,1.19-0.09,1.65c-0.87,0.82-1.62,1.52-2.33,2.1c0.99,0.15,1.05,0.75,0.99,1.47c-0.27,2.55-0.09,4.46-0.02,6.01
				c0.06,1.27-1.12,1.31-1.05,0.02c0.09-1.26,0.2-4.33,0.18-5.68c-0.01-1.04-0.3-1.32-0.58-1.41c-1.98,1.62-3.55,2.52-6.09,3.69
				C229.42,15.94,229.28,15.7,229.66,15.48z"/>
			<path class="st0" d="M249.31,12.34c0.03-0.7,0.1-1.06-0.39-1.51c-0.46-0.45-0.31-0.84,0.21-0.72c1.53,0.36,1.7,1.1,1.46,1.56
				c-0.1,0.17-0.15,0.39-0.15,0.65c-0.17,3.4-1.83,6.24-5.01,7.77c-0.23,0.12-0.39-0.09-0.08-0.27
				C247.58,18.52,249.19,15.36,249.31,12.34z M252.38,16.33c0.11-6,0.2-6.27-0.4-6.69c-0.5-0.36-0.5-0.98,0.3-0.77
				c1.63,0.41,1.35,1.14,1.26,1.5c-0.04,0.2-0.08,0.42-0.09,0.93c-0.09,1.62-0.12,2.38-0.12,4.51c0,0.23,0.13,0.29,0.33,0.2
				c1.67-0.87,2.7-1.73,4.54-3.5c0.34-0.31,0.55-0.03,0.31,0.24c-2.26,2.62-3.63,3.84-4.53,4.41
				C253.07,17.73,252.37,17.52,252.38,16.33z"/>
		</g>
	</g>
</g>
</svg>
