<?xml version="1.0" encoding="utf-8"?>
<!-- Generator: Adobe Illustrator 25.4.1, SVG Export Plug-In . SVG Version: 6.00 Build 0)  -->
<svg version="1.1" id="レイヤー_1" xmlns="http://www.w3.org/2000/svg" xmlns:xlink="http://www.w3.org/1999/xlink" x="0px"
	 y="0px" viewBox="0 0 750 30" style="enable-background:new 0 0 750 30;" xml:space="preserve">
<style type="text/css">
	.st0{fill:#463243;}
	.st1{fill:none;stroke:#463243;stroke-miterlimit:10;}
</style>
<g>
	<g>
		<path class="st0" d="M19.92,19.92c0.8,0,2.48,0,3.46-0.03c0.15,0,0.23,0.04,0.23,0.1c0,0.06-0.06,0.11-0.18,0.17
			c-0.2,0.11-0.32,0.29-0.38,0.5c-0.03,0.14-0.11,0.21-0.24,0.21h-2.99c-3.57,0-5.49-0.64-6.72-3.64c-0.58,1.49-1.5,2.94-3.03,3.95
			c-0.12,0.07-0.21,0.09-0.25,0.03c-0.04-0.06-0.02-0.13,0.09-0.24c1.69-1.57,2.46-4.02,2.75-6.21c0.01-0.14,0.12-0.21,0.25-0.18
			l1.06,0.21c0.15,0.03,0.25,0.18,0.12,0.29c-0.09,0.08-0.22,0.12-0.42,0.13c-0.11,0.54-0.25,1.08-0.43,1.64
			c0.66,1.47,1.57,2.25,2.85,2.67v-6.66h-3.01v0.62c0,0.1-0.42,0.33-0.81,0.33c-0.1,0-0.17-0.09-0.17-0.23V8.34
			c0-0.17,0.12-0.24,0.27-0.17l0.79,0.35h6.79l0.4-0.44c0.09-0.1,0.21-0.12,0.32-0.03l0.84,0.65c0.13,0.1,0.15,0.22,0.01,0.31
			c-0.12,0.06-0.27,0.12-0.43,0.15v4.17c-0.01,0.1-0.51,0.34-0.84,0.34c-0.09,0-0.15-0.09-0.15-0.22v-0.62H17.1v2.97h3.19l0.58-0.72
			c0.09-0.11,0.2-0.13,0.32-0.04c0.24,0.18,0.67,0.54,1.02,0.84c0.11,0.09,0.15,0.21,0.05,0.3c-0.06,0.04-0.17,0.08-0.29,0.08H17.1
			v3.48C17.91,19.87,18.84,19.92,19.92,19.92z M20.11,8.97h-7.03v3.44h7.03V8.97z"/>
		<path class="st0" d="M38.5,17.74c-0.09,0.01-0.19,0-0.34-0.03c-0.54,0.34-1.42,0.76-2.28,1.08c1.11,0.63,2.49,1.04,4.02,1.26
			c0.13,0.01,0.21,0.08,0.21,0.12s-0.06,0.08-0.2,0.13c-0.24,0.11-0.43,0.3-0.55,0.58c-0.06,0.12-0.15,0.18-0.29,0.15
			c-2.73-0.68-4.62-1.89-5.61-4.19h-0.17c-0.57,0.42-1.23,0.79-1.97,1.11v1.71l2.81-0.45c0.13-0.03,0.24,0,0.25,0.08
			c0.01,0.09-0.04,0.13-0.18,0.18c-1.33,0.45-3.03,0.96-5.32,1.47c-0.03,0.11-0.08,0.18-0.13,0.24c-0.11,0.09-0.24,0.02-0.3-0.1
			l-0.39-0.72c-0.08-0.15-0.03-0.27,0.13-0.28c0.56-0.06,1.31-0.15,2.16-0.27v-1.47c-1.17,0.42-2.49,0.74-3.84,0.96
			c-0.13,0.01-0.21-0.01-0.25-0.11c-0.03-0.07,0.03-0.15,0.18-0.19c2.03-0.5,3.92-1.23,5.25-2.15h-4.93c-0.12,0-0.23-0.07-0.25-0.19
			c-0.04-0.17,0.04-0.25,0.19-0.25h5.99V15.3h-4.86c-0.13,0-0.22-0.08-0.25-0.2c-0.03-0.15,0.04-0.24,0.2-0.24h4.92v-1.05h-3.15
			v0.38c0,0.09-0.42,0.29-0.81,0.29c-0.08,0-0.13-0.09-0.13-0.22v-4.21c0-0.17,0.12-0.25,0.27-0.18l0.75,0.36h7.08l0.38-0.41
			c0.09-0.1,0.21-0.1,0.31-0.01l0.77,0.57c0.12,0.09,0.15,0.24,0,0.31c-0.11,0.06-0.23,0.09-0.36,0.12v3.08
			c-0.01,0.1-0.5,0.33-0.81,0.33c-0.09,0-0.15-0.08-0.15-0.2v-0.2h-3.18v1.05h3.55l0.5-0.54c0.09-0.11,0.2-0.12,0.31-0.04
			c0.21,0.13,0.56,0.4,0.87,0.64c0.11,0.09,0.15,0.21,0.04,0.3c-0.07,0.04-0.17,0.08-0.27,0.08h-5.01v1.11h4.46l0.52-0.58
			c0.09-0.11,0.2-0.12,0.32-0.04c0.21,0.16,0.6,0.45,0.92,0.72c0.09,0.08,0.15,0.19,0.04,0.29c-0.06,0.04-0.17,0.07-0.29,0.07h-2.05
			l0.93,0.58C38.62,17.53,38.65,17.71,38.5,17.74z M26.8,8.86h5.86V7.77c0-0.15,0.09-0.23,0.24-0.21l1.02,0.09
			c0.17,0.01,0.27,0.15,0.15,0.27c-0.09,0.08-0.22,0.13-0.42,0.17v0.78h4.16l0.57-0.72c0.09-0.11,0.2-0.14,0.32-0.04
			c0.24,0.19,0.66,0.52,0.99,0.84c0.1,0.09,0.15,0.21,0.04,0.3c-0.08,0.04-0.18,0.08-0.3,0.08H26.86c-0.13,0-0.21-0.08-0.24-0.2
			L26.6,9.09C26.56,8.94,26.65,8.86,26.8,8.86z M29.53,11.79h3.15v-1.12h-3.15V11.79z M32.68,12.21h-3.15v1.16h3.15V12.21z
			 M33.64,11.79h3.18v-1.12h-3.18V11.79z M36.82,12.21h-3.18v1.16h3.18V12.21z M35.5,18.57c0.72-0.52,1.5-1.21,1.94-1.71H33.8
			C34.24,17.55,34.81,18.1,35.5,18.57z"/>
	</g>
</g>
<rect x="1" y="3.19" class="st1" width="49.01" height="23.62"/>
<g>
	<g>
		<path class="st0" d="M167.06,10.75c0.08-0.09,0-0.17-0.13-0.09c-0.71,0.41-1.58,0.41-2.14,0.09c-0.6-0.34-0.53-1.02,0.1-0.71
			c0.55,0.25,1.41,0.15,2.47-0.46c1.02-0.58,1.41,0.42,0.75,0.97c-4,3.25-4.84,8.96-0.67,8.96c5.5,0,4.21-7.47,3.21-9.85
			c-0.36-0.83,0.65-1.05,0.92-0.33c0.84,2.08,1.83,3.03,3.04,3.99c0.85,0.67,0.2,1.5-0.6,0.87c-0.63-0.49-1.56-1.6-2-2.5
			c-0.08-0.15-0.18-0.12-0.13,0.04c1.12,4.71-0.54,8.78-4.53,8.78C163.37,20.5,162.46,15.51,167.06,10.75z"/>
		<path class="st0" d="M181.38,15.28c1.58-0.45,3.13,0.01,4.23,0.42c0.39,0.17,0.64-0.09,0.48-0.71c-0.09-0.3-0.66-1.37-1.29-2.46
			c-2.5,0.81-5.11,0.67-6-0.13c-0.46-0.44-0.22-0.74,0.29-0.42c1.2,0.76,3.39,0.46,5.28-0.18c-0.54-0.9-1.05-1.69-1.29-1.98
			c-0.6-0.72,0.29-1.17,0.81-0.9c0.95,0.48,2.13,0.86,3.58,0.93c0.48,0.01,1.12,0.48,0.22,1.18c-0.66,0.51-1.39,0.92-2.17,1.23
			c0.68,1.28,1.19,2.45,1.49,3.36c0.5,1.47-0.72,1.62-1.62,1.06c-0.85-0.51-2.31-1.27-3.93-0.88c-2.54,0.6-1,4.26,3.85,3.48
			c0.99-0.18,1.62,0.78,0.51,1C180,21.55,177.89,16.29,181.38,15.28z M185.12,11.52c0.54-0.22,1.02-0.46,1.42-0.72
			c0.33-0.18,0.27-0.31-0.02-0.39c-0.66-0.2-1.36-0.41-2.23-0.86c-0.22-0.12-0.38-0.03-0.2,0.24
			C184.47,10.38,184.8,10.95,185.12,11.52z M187.59,7.95c0.76,0.31,1.23,0.64,1.63,1.38c0.45,0.87-0.54,1.23-0.95,0.39
			c-0.21-0.48-0.58-1-0.93-1.32C187.04,8.11,187.2,7.81,187.59,7.95z M189.09,7.69c0.57,0.19,1.21,0.54,1.59,1.13
			c0.41,0.71-0.45,1.26-0.9,0.43c-0.21-0.43-0.54-0.83-0.91-1.09C188.55,7.92,188.67,7.59,189.09,7.69z"/>
	</g>
</g>
<rect x="151.58" y="3.19" class="st1" width="49.01" height="23.62"/>
<g>
	<g>
		<g>
			<path class="st0" d="M231.75,15.44h-6.25v6.84c0,0.27-0.18,0.44-0.44,0.44h-0.68c-0.27,0-0.44-0.18-0.44-0.44v-6.84h-6.25
				c-0.26,0-0.44-0.18-0.44-0.44v-0.56c0-0.27,0.18-0.44,0.44-0.44h6.25V7.34c0-0.27,0.18-0.44,0.44-0.44h0.68
				c0.27,0,0.44,0.18,0.44,0.44V14h6.25c0.26,0,0.44,0.18,0.44,0.44V15C232.19,15.27,232.01,15.44,231.75,15.44z"/>
		</g>
	</g>
	<g>
		<g>
			<path class="st0" d="M266.96,8.82c-0.09,0.06-0.23,0.1-0.36,0.13v10.89c0,0.73-0.13,1.2-1.2,1.35c-0.15,0.03-0.22-0.04-0.25-0.19
				c-0.04-0.18-0.12-0.35-0.25-0.45c-0.17-0.15-0.45-0.25-0.92-0.33c-0.13-0.01-0.21-0.08-0.21-0.15s0.09-0.12,0.24-0.1
				c0.39,0.03,1.16,0.09,1.35,0.09c0.27,0,0.33-0.09,0.33-0.32v-3.93h-1.65c-0.12,1.88-0.45,3.81-1.53,5.31
				c-0.09,0.11-0.17,0.15-0.25,0.09c-0.09-0.06-0.09-0.14-0.03-0.27c0.96-2.14,0.96-4.9,0.96-7.5V8.19c0-0.17,0.09-0.25,0.25-0.18
				l0.84,0.36h1.27l0.33-0.41c0.09-0.12,0.21-0.12,0.32-0.03l0.76,0.58C267.09,8.62,267.11,8.74,266.96,8.82z M265.68,12.22h-1.6
				v1.2c0,0.62,0,1.28-0.03,1.95h1.63V12.22z M264.08,11.79h1.6V8.82h-1.6V11.79z M276.33,20.29c0,0.39-0.42,0.58-2.2,0.58h-1.11
				c-0.97,0-1.18-0.25-1.18-0.98v-7c-0.11,0.11-0.25,0.17-0.56,0.2c-0.38,3.11-1.21,6.18-4.27,8.07c-0.12,0.07-0.21,0.07-0.25,0
				c-0.06-0.09-0.03-0.17,0.09-0.26c1.46-1.14,2.31-2.65,2.83-4.32c-0.11,0.12-0.3,0.17-0.51,0.08c-0.11-0.04-0.15-0.12-0.2-0.23
				c-0.17-0.4-0.5-0.88-0.83-1.27c-0.34,0.63-0.71,1.21-1.11,1.71c-0.09,0.1-0.18,0.12-0.25,0.08c-0.08-0.05-0.08-0.14,0-0.26
				c0.82-1.48,1.5-3.57,1.81-5.71c0.01-0.15,0.12-0.22,0.25-0.19l0.9,0.21c0.15,0.03,0.24,0.18,0.12,0.29
				c-0.09,0.06-0.23,0.1-0.39,0.12c-0.09,0.38-0.19,0.75-0.3,1.12h1.07l0.42-0.42c0.09-0.09,0.21-0.1,0.31,0l0.86,0.77v-1.14
				c0-0.16,0.12-0.24,0.27-0.16l0.79,0.36h1.4l0.3-0.36c0.09-0.12,0.21-0.12,0.31-0.05l0.75,0.54c0.14,0.11,0.15,0.24,0,0.3
				c-0.1,0.06-0.22,0.09-0.36,0.12v3.71c0,0.69-0.11,1.12-0.99,1.28c-0.15,0.03-0.22-0.04-0.25-0.2c-0.03-0.18-0.09-0.34-0.2-0.43
				c-0.12-0.12-0.33-0.23-0.64-0.3c-0.14-0.03-0.21-0.09-0.21-0.16c0-0.06,0.09-0.11,0.24-0.09c0.29,0.03,0.77,0.06,0.92,0.06
				c0.21,0,0.27-0.08,0.27-0.27v-3.7h-1.71v7.32c0,0.25,0.06,0.34,0.48,0.34h0.95c0.45,0,0.78,0,0.92-0.03
				c0.12-0.01,0.2-0.04,0.24-0.18c0.09-0.22,0.24-1.11,0.4-1.95c0.02-0.13,0.06-0.21,0.12-0.21c0.06,0,0.09,0.09,0.09,0.23
				l0.04,2.01C276.26,20.01,276.33,20.11,276.33,20.29z M267.81,11.67c-0.27,0.3-0.79,0.39-1,0.09c-0.17-0.3,0-0.63,0.29-0.85
				c0.38-0.32,0.74-1.16,0.75-1.92c0.01-0.15,0.06-0.23,0.13-0.23c0.09,0,0.15,0.06,0.18,0.2c0.06,0.21,0.09,0.41,0.1,0.6h2.73V7.81
				c0-0.15,0.09-0.23,0.24-0.21l0.88,0.1c0.15,0.02,0.27,0.15,0.15,0.25c-0.08,0.04-0.17,0.09-0.3,0.12v1.47h2.64l0.44-0.43
				c0.1-0.11,0.22-0.11,0.33-0.01l0.74,0.72c0.12,0.12,0.11,0.27-0.06,0.3c-0.08,0.01-0.18,0.03-0.32,0.03
				c-0.34,0.4-0.93,0.96-1.39,1.33c-0.11,0.08-0.18,0.09-0.25,0.04c-0.06-0.03-0.08-0.12-0.02-0.25c0.18-0.36,0.38-0.86,0.54-1.28
				h-6.31C268.31,10.78,268.08,11.37,267.81,11.67z M268.33,14.79c1.03,0.4,1.44,0.94,1.48,1.35c0.27-1,0.44-2.08,0.54-3.18h-1.3
				C268.83,13.6,268.59,14.22,268.33,14.79z"/>
		</g>
	</g>
	<rect x="246.08" y="3.19" class="st1" width="49.01" height="23.62"/>
</g>
<rect x="57.46" y="3.19" class="st1" width="86.71" height="23.62"/>
<g>
	<g>
		<path class="st0" d="M69.43,18.88c-0.35,0.43-0.71,0.78-1.14,0.92c-0.85,0.25-2.34-0.55-0.88-1.08c2.25-0.81,2.94-2.5,5.1-3.5
			c-0.9-2.01-1.33-3.19,0.57-3.71c1.23-0.33,0.09-1.74-0.51-2.26c-0.45-0.41-0.12-0.64,0.31-0.38c3.12,2,2.34,3.24,0.88,3.15
			c-1.63-0.11-1.74,0.6-0.58,2.94c3.11-0.95,6.69,1.29,6.69,3.72c0,1.59-1.31,1.56-1.31,0.44c0-3.13-2.49-4.33-5.14-3.67
			c0.38,0.72,0.86,1.59,1.42,2.61c1.28,2.33-1.23,2.88-2.42,1.86C71.7,19.3,70.68,19.02,69.43,18.88z M72.58,19.21
			c0.66,0.24,1.54,0,1.26-0.79c-0.36-1.04-0.76-1.96-1.14-2.76c-1.49,0.58-2.28,1.89-3.01,2.88C70.77,18.69,72,19,72.58,19.21z"/>
		<path class="st0" d="M84.27,15.03c-0.24-0.33-0.34-0.81-0.12-1.26c1.54-3.01,3.32-4.02,3.12-4.99c-0.13-0.71,0.34-0.81,0.66-0.41
			c0.42,0.54,0.66,1.39-0.18,2c-1.02,0.76-2.49,2.31-3.04,3.66c-0.1,0.24-0.1,0.45,0.11,0.69c1.8,2.1,2.71,3.17,3.21,5.5
			c0.2,0.99-0.86,1.18-1.08,0.17C86.39,18,85.56,16.69,84.27,15.03z"/>
		<path class="st0" d="M96.53,20.28c9.75,0.08,6.63-10.03-0.08-3.28c-1.08,1.08-2.16,0.52-2.08-0.75c0.06-1.11,0.32-2.87,0.51-4.19
			c0.2-1.32,1.47-1.41,2.79-1.59c0.21-0.03,0.21-0.21,0.12-0.33c-0.39-0.58-0.85-0.85-1.53-1.12c-0.46-0.19-0.27-0.45,0-0.45
			c1.68,0.06,2.16,0.49,2.62,1.23c0.63,0.96,0.33,1.68-0.85,1.37c-1.92-0.53-2.34,0.03-2.43,0.9c-0.04,0.41-0.27,2.39-0.42,3.36
			c-0.12,0.99,0.55,0.79,1.14,0.39c8.55-6.12,10.65,5.47,0.18,4.82C96.02,20.59,96.07,20.26,96.53,20.28z"/>
		<path class="st0" d="M108.91,10.44c-0.67-0.93,0.03-1.4,0.74-0.5c0.81,1.05-0.46,4.77-0.75,6.3c-0.11,0.54,0.24,0.71,0.42,0.09
			c0.27-1.02,0.76-2.01,1.26-2.82c0.22-0.38,0.48-0.22,0.33,0.13c-0.51,1.25-1.56,3.93-1.2,5.15c0.46,1.51-0.6,1.83-1.12,0.51
			c-0.36-0.92-0.54-2-0.29-3.09C109.03,12.96,109.36,11.08,108.91,10.44z M117.01,18.31c-0.09,2.45-4.79,2.59-4.79,0.3
			c0-1.56,2.04-1.9,3.95-1.47c0.03-1.02,0.04-2.56,0.03-4c-0.98,0.03-2.03-0.3-2.91-1.11c-0.38-0.35-0.17-0.66,0.32-0.38
			c0.88,0.52,1.78,0.71,2.58,0.66c-0.04-1.45-0.15-2.7-0.39-3.01c-0.57-0.78-0.08-1.02,0.51-0.67c0.9,0.55,0.93,0.9,0.81,2.31
			c0.28,0.18,0.57,0.3,1.06,0.41c0.86,0.15,0.83,0.76-0.2,1.32c-0.31,0.18-0.66,0.3-1.02,0.39c-0.04,1.08-0.08,2.47,0,4.32
			c0.83,0.27,1.54,0.69,2.01,1.21c0.84,0.97,0.15,1.9-0.75,0.75C117.91,18.91,117.47,18.58,117.01,18.31z M116.15,17.95v-0.02
			c-1.61-0.57-3.35-0.34-3.35,0.75C112.81,19.92,116.11,19.84,116.15,17.95z M117.61,11.94c0.12-0.08,0.09-0.2-0.04-0.29
			c-0.18-0.12-0.34-0.24-0.48-0.36l-0.08,0.88C117.22,12.12,117.43,12.03,117.61,11.94z"/>
		<path class="st0" d="M129.54,16.54c0.38,0.1,0.52-0.02,0.41-0.33c-0.26-0.72-0.51-1.42-0.75-2.07c-1.74,0.45-3.63,0.54-4.98-0.42
			c-0.48-0.34-0.13-0.64,0.3-0.43c1.43,0.75,3,0.6,4.43,0.15c-0.29-0.73-0.56-1.41-0.83-1.99c-1.12,0.18-2.25,0.1-2.91-0.2
			c-0.46-0.22-0.27-0.62,0.12-0.48c0.85,0.3,1.7,0.18,2.42-0.07c-0.44-0.81-0.9-1.37-1.38-1.56c-1.08-0.43-0.69-0.96,0.31-0.72
			c0.79,0.18,1.12,0.53,1.79,2c0.32-0.13,0.58-0.27,0.81-0.38c0.74-0.33,1.62,0.24,0.72,0.76c-0.23,0.13-0.46,0.24-0.74,0.33
			c1.04,0.3,2.45,0.55,3.08,0.65c0.66,0.07,0.84,0.67,0.22,1.02c-0.69,0.39-1.6,0.79-2.59,1.12c0.3,0.67,0.63,1.44,1,2.31
			c0.55,1.25-0.43,1.92-1.23,1.37c-3.99-2.79-8.21,2.96-0.5,1.95c1.29-0.17,1.78,0.96,0.58,1.08
			C121.68,21.43,123.3,14.91,129.54,16.54z M129.65,13.18c0.56-0.21,1.05-0.45,1.52-0.69c0.19-0.11,0.22-0.27-0.09-0.38
			c-0.6-0.17-1.47-0.42-2.18-0.71L129.65,13.18z M131.51,8.91c0.78,0.31,1.25,0.63,1.65,1.37c0.45,0.87-0.54,1.24-0.94,0.4
			c-0.21-0.5-0.58-1.02-0.95-1.33C130.95,9.06,131.13,8.76,131.51,8.91z M133.01,8.65c0.58,0.18,1.23,0.52,1.6,1.12
			c0.41,0.69-0.46,1.25-0.9,0.42c-0.23-0.42-0.54-0.83-0.92-1.09C132.48,8.86,132.6,8.53,133.01,8.65z"/>
	</g>
</g>
</svg>
