<?xml version="1.0" encoding="utf-8"?>
<!-- Generator: Adobe Illustrator 25.4.1, SVG Export Plug-In . SVG Version: 6.00 Build 0)  -->
<svg version="1.1" id="レイヤー_1" xmlns="http://www.w3.org/2000/svg" xmlns:xlink="http://www.w3.org/1999/xlink" x="0px"
	 y="0px" viewBox="0 0 750 30" style="enable-background:new 0 0 750 30;" xml:space="preserve">
<style type="text/css">
	.st0{fill:#463243;}
	.st1{fill:none;stroke:#463243;stroke-miterlimit:10;}
</style>
<g>
	<path class="st0" d="M500.07,11.93c-0.29,0-0.53-0.11-0.69-0.4c-0.05-0.11-0.05-0.21-0.02-0.32c0.4-1.36,1.68-2,3.15-2
		c1.97,0,3.22,1.12,3.22,2.74c0,1.31-0.86,2.35-2.38,2.83c1.84,0.32,2.75,1.39,2.75,2.88c0,1.91-1.55,3.28-3.81,3.28
		c-1.58,0-2.83-0.66-3.23-2.18c-0.02-0.11-0.02-0.21,0.05-0.3c0.16-0.22,0.38-0.35,0.67-0.35c0.48,0,0.66,0.32,0.86,1.02l0.3,0.99
		c0.4,0.13,0.78,0.18,1.15,0.18c1.78,0,2.71-0.99,2.71-2.59c0-1.62-0.93-2.58-2.82-2.58h-0.58c-0.14,0-0.24-0.1-0.24-0.24v-0.21
		c0-0.14,0.1-0.24,0.24-0.24h0.45c1.6,0,2.62-0.9,2.62-2.46c0-1.33-0.8-2.11-2.21-2.11c-0.32,0-0.66,0.03-1.04,0.13l-0.3,0.99
		C500.77,11.64,500.58,11.93,500.07,11.93z"/>
	<path class="st0" d="M515.08,15.1c0,4.27-1.73,5.84-3.54,5.84c-1.83,0-3.57-1.57-3.57-5.84c0-4.29,1.74-5.89,3.57-5.89
		C513.36,9.2,515.08,10.81,515.08,15.1z M511.55,20.3c1.12,0,2.21-1.15,2.21-5.2c0-4.1-1.09-5.23-2.21-5.23
		c-1.15,0-2.22,1.12-2.22,5.23C509.32,19.16,510.4,20.3,511.55,20.3z"/>
	<path class="st0" d="M523.34,8.13c-0.1,0.05-0.22,0.05-0.42,0.03c-1.01,2.14-2.95,4.69-5.65,6.21c-0.14,0.08-0.22,0.08-0.27,0
		c-0.05-0.06-0.02-0.14,0.11-0.24c2.21-1.7,3.91-4.35,4.72-6.59c0.05-0.14,0.16-0.19,0.3-0.13l1.12,0.43
		C523.42,7.91,523.5,8.07,523.34,8.13z M528.37,13.08l0.83,0.7c0.13,0.11,0.14,0.26-0.02,0.32c-0.11,0.05-0.24,0.08-0.4,0.1
		c-0.21,3.52-0.67,6.29-1.44,7.03c-0.42,0.38-0.98,0.59-1.65,0.62c-0.16,0-0.24-0.08-0.26-0.22c-0.03-0.22-0.13-0.42-0.34-0.54
		c-0.22-0.16-0.93-0.34-1.6-0.45c-0.14-0.02-0.21-0.1-0.21-0.18s0.1-0.11,0.26-0.1c0.83,0.06,2.02,0.18,2.39,0.18
		c0.34,0,0.48-0.05,0.66-0.21c0.56-0.46,0.94-3.06,1.12-6.26h-3.91c-0.27,2.62-1.1,5.57-5.84,7.78c-0.14,0.06-0.24,0.05-0.3-0.03
		c-0.06-0.08-0.02-0.18,0.13-0.27c4.11-2.35,4.72-5.15,4.87-7.47h-3.15c-0.13,0-0.24-0.08-0.27-0.21c-0.05-0.18,0.05-0.27,0.21-0.27
		h8.15l0.45-0.48C528.13,13,528.25,12.98,528.37,13.08z M526.13,7.51c1.04,2.32,3.38,4.39,5.55,5.51c0.13,0.06,0.19,0.13,0.18,0.18
		c-0.02,0.06-0.1,0.1-0.22,0.13c-0.27,0.08-0.51,0.27-0.69,0.58c-0.08,0.14-0.19,0.18-0.32,0.08c-2.03-1.44-3.91-3.7-4.8-6.34
		c-0.05-0.14-0.02-0.24,0.08-0.29C525.98,7.3,526.06,7.35,526.13,7.51z"/>
	<path class="st0" d="M541.86,18.2c-5.3,0.24-5.63,0.78-6.58-0.1c-0.69-0.66-0.4-1.12,0.26-0.83c1.09,0.51,1.68,0.43,6.18,0.1
		c0.3-0.02,0.58-0.06,0.88-0.08c0.26-1.65,0.34-2.75,0.5-4.29c0.03-0.26-0.06-0.32-0.22-0.32c-7.08,0.34-7.14,0.8-7.86-0.05
		c-0.66-0.77-0.26-1.34,0.45-0.86c1.12,0.75,2.79,0.48,7.64-0.03c1.15-0.13,1.25,0.27,1.06,1.23c-0.21,0.91-0.5,2.58-0.82,4.39
		c0.14,0.03,0.29,0.08,0.43,0.14c0.86,0.38,0.53,1.23-0.18,0.96C543.01,18.23,542.48,18.17,541.86,18.2z"/>
	<path class="st0" d="M557.5,15.4c-6.63-0.46-7.96,1.01-9.46-0.08c-0.94-0.7-0.42-1.2,0.3-0.94c1.55,0.53,2.69,0.5,8.96,0.13
		c0.75-0.05,1.73-0.05,2.27,0.18c0.99,0.4,0.91,1.12-0.02,0.96C559.02,15.54,558.41,15.48,557.5,15.4z"/>
	<path class="st0" d="M560.71,20.22c4.87-2.67,6.96-5.38,8.66-8.9c0.13-0.29,0-0.45-0.3-0.38c-2.18,0.54-4.31,1.1-4.91,0.21
		c-0.61-0.91-0.05-1.26,0.37-1.02c1.18,0.71,2.82,0.61,4.75-0.08c1.28-0.45,2.19,0.35,1.49,1.47c-0.99,1.6-1.87,2.88-2.75,3.95
		c1.68,0.42,2.99,1.22,3.86,2.87c0.66,1.23-0.79,1.82-1.41,0.54c-0.69-1.42-1.47-2.38-2.79-3.01c-1.87,2.11-3.81,3.34-6.83,4.74
		C560.44,20.79,560.24,20.47,560.71,20.22z"/>
	<path class="st0" d="M580.2,19.96c-0.29-0.37-0.71-0.66-1.09-0.86c-0.59-0.3-0.48-0.71,0.16-0.51c0.45,0.14,1.49,0.7,1.97,0.16
		c2.16-2.43,2.53-7.14-1.33-5.73c-0.91,2.64-2.67,5.87-3.7,7.63c-0.43,0.75-1.34,0.22-0.82-0.54c2-2.83,3.14-5.06,3.71-6.74
		c-1.09,0.56-1.81,1.36-2.88,1.06c-1.14-0.35-1.02-1.12,0.06-0.99c1.1,0.11,2.39-0.48,2.74-0.67l0.34-0.18
		c0.4-1.47,0.34-2.43,0.06-2.9c-0.45-0.78,0.18-1.14,0.75-0.48c0.46,0.54,0.37,1.67-0.03,3.06c4.16-1.41,4.75,4.05,1.65,7.73
		C581.25,20.65,580.62,20.46,580.2,19.96z M585.37,15.81c2-0.05,2.18-0.98,0.37-3.2c-0.34-0.4-0.13-0.69,0.37-0.34
		c1.18,0.83,1.84,1.68,2.06,3.19c0.1,0.72-0.24,1.1-0.98,1.1c-0.75,0-1.55-0.13-1.94-0.24C584.91,16.23,584.79,15.81,585.37,15.81z"
		/>
	<path class="st0" d="M594,20.91c10.4,0.08,7.08-10.71-0.08-3.51c-1.15,1.15-2.3,0.56-2.22-0.8c0.06-1.18,0.34-3.06,0.54-4.47
		c0.21-1.41,1.57-1.5,2.98-1.7c0.22-0.03,0.22-0.22,0.13-0.35c-0.42-0.62-0.91-0.91-1.63-1.2c-0.5-0.21-0.29-0.48,0-0.48
		c1.79,0.06,2.3,0.53,2.8,1.31c0.67,1.02,0.35,1.79-0.91,1.46c-2.05-0.56-2.5,0.03-2.59,0.96c-0.05,0.43-0.29,2.54-0.45,3.58
		c-0.13,1.06,0.59,0.85,1.22,0.42c9.12-6.53,11.36,5.84,0.19,5.14C593.46,21.24,593.51,20.89,594,20.91z"/>
	<path class="st0" d="M612.34,16.15c0.22-0.26,0.53-0.19,0.29,0.24c-0.82,1.49-0.69,3.28,0.61,3.31c4.15,0.08,3.19-6.18-1.49-4.11
		c-0.72,0.32-1.38,0.72-1.98,1.15c0.02,0.75,0.06,1.58,0.13,2.5c0.11,1.65-0.99,2.14-1.65,1.15c-0.43-0.64-0.91-1.12-1.39-1.44
		c-0.45,0.29-0.85,0.48-1.22,0.48c-1.38,0-1.47-1.33,0.02-1.33c0.22,0,0.56,0.1,0.91,0.22c0.64-0.42,1.52-1.09,2.48-1.76
		c0.02-0.98,0.02-1.94,0-2.83c-1.33,0.45-2.3,0.48-3.11-0.38c-0.35-0.4-0.13-0.66,0.27-0.43c0.99,0.59,1.62,0.58,2.82,0.03
		c-0.05-1.83-0.21-3.22-0.62-3.51c-0.61-0.42-0.32-1.18,0.66-0.62c0.72,0.4,0.83,0.86,0.8,2.03c0.38,0.26,0.82,0.43,1.36,0.5
		c1.22,0.18,1.23,1.02,0.14,1.47c-0.59,0.24-1.12,0.46-1.62,0.66c-0.02,0.74-0.03,1.6-0.02,2.62c0.62-0.42,1.26-0.8,1.89-1.12
		c5.83-2.9,7.49,5.7,1.55,5.49C610.92,20.39,611.42,17.26,612.34,16.15z M605.62,18.78c0.13,0,0.29-0.06,0.51-0.19
		c-0.19-0.05-0.37-0.08-0.53-0.08C605.17,18.5,605.09,18.79,605.62,18.78z M608.47,19.26c0.26,0.16,0.58,0.26,0.58-0.22v-1.76
		c-0.64,0.5-1.22,0.99-1.75,1.38C607.86,18.92,608.34,19.19,608.47,19.26z M610.39,12.26c0.29-0.14,0.27-0.29,0-0.46
		c-0.19-0.13-0.37-0.29-0.54-0.43l-0.06,1.22L610.39,12.26z M617.68,11.96c0.77,0.83-0.19,1.75-0.93,0.74
		c-0.48-0.7-1.55-1.33-2.59-0.48c-0.38,0.32-0.45,0.03-0.26-0.24C614.7,10.87,616.65,10.89,617.68,11.96z"/>
	<path class="st0" d="M620.82,14.89c-0.4,0.27-0.96,0.27-1.12-0.11c-0.14-0.34,0.08-0.66,0.4-0.85c0.59-0.3,1.04-1.12,1.02-2.05
		c0-0.16,0.05-0.26,0.13-0.26s0.14,0.06,0.19,0.19c0.06,0.21,0.11,0.4,0.14,0.58h7.57c0.59-0.9,1.23-2.1,1.65-3.07
		c0.05-0.14,0.16-0.19,0.3-0.14l1.18,0.37c0.16,0.05,0.24,0.22,0.1,0.3c-0.11,0.06-0.26,0.1-0.45,0.08
		c-0.54,0.75-1.46,1.71-2.34,2.46h2.88l0.51-0.51c0.11-0.11,0.22-0.11,0.34-0.02l0.86,0.85c0.13,0.11,0.13,0.27-0.05,0.32
		l-0.34,0.05c-0.43,0.45-1.14,1.09-1.71,1.52c-0.11,0.08-0.18,0.1-0.26,0.05c-0.06-0.03-0.06-0.13,0-0.27
		c0.22-0.43,0.48-1.01,0.66-1.5h-10.85C621.7,13.91,621.28,14.6,620.82,14.89z M631.6,15.56c-0.11,0.03-0.26,0.05-0.48,0.06
		c-0.82,1.31-1.86,2.43-3.15,3.36c1.73,0.88,3.79,1.44,5.99,1.78c0.16,0.02,0.24,0.08,0.22,0.13c-0.02,0.06-0.08,0.08-0.21,0.13
		c-0.34,0.13-0.59,0.37-0.75,0.74c-0.06,0.13-0.16,0.19-0.3,0.16c-2.22-0.48-4.21-1.23-5.81-2.35c-1.89,1.14-4.24,1.92-7.08,2.35
		c-0.16,0.02-0.24,0-0.27-0.1c-0.03-0.08,0.05-0.14,0.21-0.19c2.5-0.58,4.69-1.42,6.43-2.59c-1.18-0.96-2.11-2.14-2.77-3.6h-1.68
		c-0.13,0-0.22-0.05-0.27-0.19c-0.05-0.18,0.05-0.27,0.21-0.27h7.99l0.61-0.53c0.11-0.11,0.22-0.1,0.34,0l0.82,0.78
		C631.76,15.35,631.76,15.5,631.6,15.56z M632.26,8.53c-0.16,0.02-0.37-0.03-0.59-0.14c-2.85,0.48-7.11,0.96-10.87,1.09
		c-0.14,0-0.24-0.05-0.26-0.16c-0.02-0.08,0.06-0.16,0.22-0.16c3.57-0.34,7.96-1.12,10.42-1.81c0.13-0.03,0.22-0.02,0.32,0.08
		l0.8,0.8C632.44,8.36,632.44,8.53,632.26,8.53z M622.37,9.69c2.66,1.1,1.92,2.98,1.01,2.46c-0.11-0.06-0.14-0.14-0.18-0.26
		c-0.14-0.67-0.59-1.44-1.02-1.97c-0.11-0.13-0.14-0.21-0.08-0.26C622.18,9.62,622.24,9.64,622.37,9.69z M627.12,18.5
		c1.14-0.88,2.05-1.9,2.71-3.07H624C624.74,16.7,625.81,17.7,627.12,18.5z M625.95,9.41c2.51,1.34,1.67,3.22,0.77,2.66
		c-0.11-0.08-0.14-0.16-0.16-0.29c-0.06-0.72-0.43-1.57-0.82-2.16c-0.08-0.13-0.11-0.22-0.05-0.26
		C625.74,9.33,625.83,9.35,625.95,9.41z"/>
	<path class="st0" d="M637.4,9.4c-0.7-1.07,0.1-1.7,0.85-0.64c0.88,1.22-0.66,5.89-0.96,7.68c-0.11,0.61,0.26,0.78,0.45,0.06
		c0.35-1.2,0.82-2.27,1.46-3.25c0.27-0.43,0.53-0.29,0.35,0.16c-0.54,1.44-1.65,4.58-1.28,6c0.5,1.78-0.51,2.08-1.2,0.59
		c-0.48-1.09-0.78-2.35-0.53-3.63C637.32,12.53,637.9,10.17,637.4,9.4z M641.69,21c2.66-1.82,3.46-4.08,3.31-7.92
		c-0.98,0.08-1.92,0.03-2.82-0.16c-0.53-0.13-0.45-0.56,0.03-0.53c1.04,0.1,1.9,0.05,2.74-0.11c-0.14-2.91-0.06-3.22-0.5-3.57
		c-0.8-0.67-0.46-1.14,0.4-0.83c0.78,0.3,0.94,1.02,1.02,2.24c0.64,0.51,1.2,0.8,1.67,1.02c0.86,0.4,0.91,1.12,0.03,1.41
		c-0.53,0.16-1.04,0.3-1.55,0.38c0.16,5.17-1.95,7.38-4.13,8.48C641.43,21.66,641.27,21.29,641.69,21z M645.98,12.01
		c0.24-0.08,0.5-0.16,0.75-0.27c0.21-0.1,0.21-0.22,0-0.35c-0.32-0.21-0.58-0.38-0.82-0.59C645.93,11.16,645.95,11.57,645.98,12.01z
		"/>
	<path class="st0" d="M651.26,11.06c-0.43-0.59-0.16-1.04,0.62-0.54c2.53,1.58-0.4,8.07,2.85,7.79c0.42-0.03,0.34-0.93,0.88-1.54
		c0.26-0.29,0.51-0.14,0.35,0.24c-0.21,0.45-0.32,1.31,0,1.6c0.46,0.45,0.74,1.26-1.31,0.91C650.67,18.82,653.28,13.69,651.26,11.06
		z M660.85,12.13c1.3,0.13,3.2,1.09,2.91,3.14c-0.19,1.36-1.79,1.06-1.42-0.03c0.53-1.54-0.5-2.46-1.49-2.67
		C660.31,12.42,660.37,12.09,660.85,12.13z"/>
	<path class="st0" d="M666.2,19.54c1.33-2.93,2.26-5.14,2.79-6.79c-0.9,0.1-1.73,0.02-2.3-0.24c-0.66-0.3-0.35-0.78,0.21-0.53
		c0.5,0.22,1.39,0.22,2.35-0.06c0.34-1.25,0.37-2.08,0.08-2.61c-0.58-1.02-0.16-1.34,0.67-0.7c0.45,0.35,0.58,0.9,0.48,1.68
		c0.61,0.26,1.2,0.42,1.58,0.53c0.45,0.11,0.51,0.51,0.21,0.74c-0.7,0.51-1.54,0.86-2.38,1.06c-0.59,1.78-1.54,4.21-2.59,7.51
		C666.68,22.04,665.83,20.38,666.2,19.54z M670.73,11.27c0.18-0.11,0.18-0.18,0-0.29c-0.08-0.06-0.19-0.13-0.34-0.22
		c-0.05,0.26-0.11,0.51-0.19,0.8C670.38,11.48,670.56,11.38,670.73,11.27z M673.05,15.72c-1.84,3.31-0.48,4.53,3.57,3.94
		c1.22-0.18,1.89,1.14,0.51,1.25c-4.93,0.42-7.08-1.41-4.34-5.27C672.99,15.38,673.16,15.48,673.05,15.72z M676.12,11.83
		c0.8,0.32,0.85,1.06,0.18,1.23c-0.98,0.27-2.11,0.91-2.8,1.73c-0.19,0.22-0.32,0.06-0.19-0.14c0.4-0.7,1.06-1.33,1.95-1.87
		c0.18-0.1,0.1-0.19-0.03-0.22c-0.91-0.19-1.57-0.13-2.61,0.13c-0.38,0.1-0.46-0.18-0.11-0.35
		C673.47,11.78,675.33,11.49,676.12,11.83z"/>
	<path class="st0" d="M681.29,19.54c1.33-2.93,2.26-5.14,2.79-6.79c-0.88,0.1-1.71,0.02-2.29-0.24c-0.67-0.3-0.37-0.78,0.19-0.53
		c0.5,0.22,1.39,0.22,2.35-0.06c0.34-1.25,0.37-2.08,0.08-2.61c-0.58-1.02-0.14-1.34,0.67-0.7c0.45,0.35,0.58,0.9,0.48,1.68
		c0.61,0.26,1.2,0.42,1.58,0.53c0.46,0.11,0.51,0.51,0.21,0.74c-0.7,0.51-1.54,0.86-2.38,1.06c-0.59,1.78-1.54,4.21-2.59,7.51
		C681.77,22.04,680.92,20.38,681.29,19.54z M685.82,11.27c0.18-0.11,0.18-0.18,0-0.29c-0.08-0.06-0.19-0.13-0.34-0.22
		c-0.05,0.26-0.11,0.51-0.19,0.8C685.46,11.48,685.64,11.38,685.82,11.27z M688.14,15.72c-1.84,3.31-0.48,4.53,3.57,3.94
		c1.22-0.18,1.89,1.14,0.51,1.25c-4.91,0.42-7.06-1.41-4.32-5.27C688.07,15.38,688.25,15.48,688.14,15.72z M691.23,11.83
		c0.78,0.32,0.83,1.06,0.16,1.23c-0.98,0.27-2.11,0.91-2.8,1.73c-0.19,0.22-0.32,0.06-0.19-0.14c0.42-0.7,1.06-1.33,1.95-1.87
		c0.18-0.1,0.1-0.19-0.02-0.22c-0.91-0.19-1.58-0.13-2.62,0.13c-0.38,0.1-0.45-0.18-0.1-0.35
		C688.55,11.78,690.41,11.49,691.23,11.83z M690.92,9.17c0.82,0.34,1.31,0.69,1.75,1.46c0.48,0.93-0.58,1.33-1.01,0.43
		c-0.22-0.53-0.62-1.09-1.01-1.42C690.33,9.33,690.51,9.01,690.92,9.17z M692.51,8.9c0.62,0.19,1.31,0.56,1.71,1.2
		c0.43,0.74-0.5,1.34-0.96,0.45c-0.22-0.45-0.58-0.88-0.98-1.17C691.95,9.12,692.07,8.77,692.51,8.9z"/>
	<path class="st0" d="M697.32,9.4c-0.7-1.07,0.1-1.7,0.85-0.64c0.88,1.22-0.66,5.89-0.96,7.68c-0.11,0.61,0.26,0.78,0.45,0.06
		c0.35-1.2,0.82-2.27,1.46-3.25c0.27-0.43,0.53-0.29,0.35,0.16c-0.54,1.44-1.65,4.58-1.28,6c0.5,1.78-0.51,2.08-1.2,0.59
		c-0.48-1.09-0.78-2.35-0.53-3.63C697.24,12.53,697.81,10.17,697.32,9.4z M701.61,21c2.66-1.82,3.46-4.08,3.31-7.92
		c-0.98,0.08-1.92,0.03-2.82-0.16c-0.53-0.13-0.45-0.56,0.03-0.53c1.04,0.1,1.9,0.05,2.74-0.11c-0.14-2.91-0.06-3.22-0.5-3.57
		c-0.8-0.67-0.46-1.14,0.4-0.83c0.78,0.3,0.94,1.02,1.02,2.24c0.64,0.51,1.2,0.8,1.67,1.02c0.86,0.4,0.91,1.12,0.03,1.41
		c-0.53,0.16-1.04,0.3-1.55,0.38c0.16,5.17-1.95,7.38-4.13,8.48C701.35,21.66,701.19,21.29,701.61,21z M705.9,12.01
		c0.24-0.08,0.5-0.16,0.75-0.27c0.21-0.1,0.21-0.22,0-0.35c-0.32-0.21-0.58-0.38-0.82-0.59C705.85,11.16,705.87,11.57,705.9,12.01z"
		/>
	<path class="st0" d="M717.53,19.06c-0.42,2.77-5.31,2.69-5.31,0.35c0-1.6,2.27-1.98,4.4-1.58c0.02-0.99,0.03-1.91,0.05-2.74
		c-1.39,0.05-2.72-0.19-3.84-0.72c-0.54-0.27-0.42-0.74,0.18-0.53c1.1,0.38,2.35,0.48,3.68,0.38c0.02-0.78,0.03-1.49,0.03-2.1
		c-2.48,0.4-3.52,0.1-4.59-0.64c-0.59-0.43-0.38-0.82,0.22-0.53c1.06,0.5,2.35,0.74,4.34,0.3c-0.05-1.12-0.22-1.87-0.61-2.26
		c-0.38-0.4-0.38-1.15,0.82-0.53c0.78,0.42,0.85,0.96,0.77,2.54c0.64-0.19,1.34-0.43,2.13-0.75c1.04-0.43,2.05,0.62,0.98,0.93
		c-1.18,0.32-2.18,0.56-3.02,0.74c0.58,0.67,1.54,1.28,2.56,1.38c0.67,0.05,0.85,0.7,0.02,1.02c-0.9,0.35-1.86,0.58-2.8,0.69
		c-0.02,0.88,0,1.89,0.03,3.03c0.85,0.26,1.62,0.64,2.13,1.1c1.23,1.14,0.3,1.95-0.34,1.26C718.81,19.85,718.19,19.4,717.53,19.06z
		 M716.62,18.68c-1.9-0.64-3.71-0.3-3.71,0.69C712.91,20.84,716.57,20.79,716.62,18.68z M719,13.89c0.26-0.05,0.27-0.24,0.02-0.37
		c-0.53-0.27-1.02-0.62-1.42-1.12c-0.03,0.5-0.05,1.07-0.06,1.73C718.01,14.09,718.51,13.99,719,13.89z"/>
	<path class="st0" d="M725.49,11.29c1.31,0.58,3.51,0,6.43-0.37c-0.06-0.86-0.19-1.63-0.43-2.08c-0.53-1.01-0.06-1.22,0.72-0.75
		c0.3,0.19,0.45,0.4,0.53,0.69c1.97,1.33,3.25,1.98,5.07,2.51c0.85,0.24,0.77,0.98-0.16,0.82c-1.92-0.35-3.57-0.45-4.96-0.4
		c-0.02,0.69-0.02,1.52,0.05,2.53c0.14,0.3,0.22,0.67,0.26,1.09c0.13,1.92,0.03,5.57-3.01,6.34c-0.46,0.13-0.56-0.24-0.13-0.42
		c1.78-0.74,2.21-2.19,2.24-3.71c-0.99,0.94-2.66,0.53-2.87-2.08c-0.16-2.08,1.58-2.85,2.75-2.1c0-0.53,0-1.09-0.03-1.62
		c-3.3,0.19-5.15,1.09-6.34,0.67C724.21,11.93,724.58,10.9,725.49,11.29z M732.01,15.59l-0.03-0.32c-0.18-1.98-2.19-1.95-2.11,0.13
		C729.92,17.72,731.88,17.46,732.01,15.59z M735.09,10.95c0.19,0.02,0.16-0.14,0.03-0.22c-0.4-0.24-1.5-0.82-2.32-1.33
		c-0.02,0.37-0.05,0.9-0.08,1.46C733.64,10.85,734.2,10.87,735.09,10.95z"/>
	<path class="st0" d="M740.43,19.77c0-1.23,1.02-2.24,2.26-2.24c1.23,0,2.24,1.01,2.24,2.24s-1.01,2.26-2.24,2.26
		C741.46,22.03,740.43,21,740.43,19.77z M740.98,19.77c0,0.94,0.75,1.71,1.71,1.71c0.95,0,1.7-0.77,1.7-1.71s-0.75-1.7-1.7-1.7
		C741.73,18.07,740.98,18.82,740.98,19.77z"/>
</g>
<g>
	<g>
		<path class="st0" d="M19.92,20.71c0.8,0,2.48,0,3.46-0.03c0.15,0,0.23,0.04,0.23,0.1c0,0.06-0.06,0.11-0.18,0.17
			c-0.2,0.11-0.32,0.29-0.38,0.5c-0.03,0.14-0.11,0.21-0.24,0.21h-2.99c-3.57,0-5.49-0.64-6.72-3.64c-0.58,1.49-1.5,2.94-3.03,3.95
			c-0.12,0.07-0.21,0.09-0.25,0.03c-0.04-0.06-0.02-0.13,0.09-0.24c1.69-1.57,2.46-4.02,2.75-6.21c0.01-0.14,0.12-0.21,0.25-0.18
			l1.06,0.21c0.15,0.03,0.25,0.18,0.12,0.29c-0.09,0.08-0.22,0.12-0.42,0.13c-0.11,0.54-0.25,1.08-0.43,1.64
			c0.66,1.47,1.57,2.25,2.85,2.67v-6.66h-3.01v0.62c0,0.1-0.42,0.33-0.81,0.33c-0.1,0-0.17-0.09-0.17-0.23V9.13
			c0-0.17,0.12-0.24,0.27-0.17l0.79,0.35h6.79l0.4-0.44c0.09-0.1,0.21-0.12,0.32-0.03l0.84,0.65c0.13,0.1,0.15,0.22,0.01,0.31
			c-0.12,0.06-0.27,0.12-0.43,0.15v4.17c-0.01,0.1-0.51,0.34-0.84,0.34c-0.09,0-0.15-0.09-0.15-0.22v-0.62H17.1v2.97h3.19l0.58-0.72
			c0.09-0.11,0.2-0.13,0.32-0.04c0.24,0.18,0.67,0.54,1.02,0.84c0.11,0.09,0.15,0.21,0.05,0.3c-0.06,0.04-0.17,0.08-0.29,0.08H17.1
			v3.48C17.91,20.67,18.84,20.71,19.92,20.71z M20.11,9.76h-7.03v3.44h7.03V9.76z"/>
		<path class="st0" d="M38.5,18.54c-0.09,0.01-0.19,0-0.34-0.03c-0.54,0.34-1.42,0.76-2.28,1.08c1.11,0.63,2.49,1.04,4.02,1.26
			c0.13,0.01,0.21,0.08,0.21,0.12s-0.06,0.08-0.2,0.13c-0.24,0.11-0.43,0.3-0.55,0.58c-0.06,0.12-0.15,0.18-0.29,0.15
			c-2.73-0.68-4.62-1.89-5.61-4.19h-0.17c-0.57,0.42-1.23,0.79-1.97,1.11v1.71l2.81-0.45c0.13-0.03,0.24,0,0.25,0.08
			c0.01,0.09-0.04,0.13-0.18,0.18c-1.33,0.45-3.03,0.96-5.32,1.47c-0.03,0.11-0.08,0.18-0.13,0.24c-0.11,0.09-0.24,0.02-0.3-0.1
			l-0.39-0.72c-0.08-0.15-0.03-0.27,0.13-0.28c0.56-0.06,1.31-0.15,2.16-0.27v-1.47c-1.17,0.42-2.49,0.74-3.84,0.96
			c-0.13,0.01-0.21-0.01-0.25-0.11c-0.03-0.07,0.03-0.15,0.18-0.19c2.03-0.5,3.92-1.23,5.25-2.15h-4.93c-0.12,0-0.23-0.07-0.25-0.19
			c-0.04-0.17,0.04-0.25,0.19-0.25h5.99v-1.11h-4.86c-0.13,0-0.22-0.08-0.25-0.2c-0.03-0.15,0.04-0.24,0.2-0.24h4.92v-1.05h-3.15
			v0.38c0,0.09-0.42,0.29-0.81,0.29c-0.08,0-0.13-0.09-0.13-0.22v-4.21c0-0.17,0.12-0.25,0.27-0.18l0.75,0.36h7.08l0.38-0.41
			c0.09-0.1,0.21-0.1,0.31-0.01l0.77,0.57c0.12,0.09,0.15,0.24,0,0.31c-0.11,0.06-0.23,0.09-0.36,0.12v3.08
			c-0.01,0.1-0.5,0.33-0.81,0.33c-0.09,0-0.15-0.08-0.15-0.2v-0.2h-3.18v1.05h3.55l0.5-0.54c0.09-0.11,0.2-0.12,0.31-0.04
			c0.21,0.13,0.56,0.4,0.87,0.64c0.11,0.09,0.15,0.21,0.04,0.3c-0.07,0.04-0.17,0.08-0.27,0.08h-5.01v1.11h4.46l0.52-0.58
			c0.09-0.11,0.2-0.12,0.32-0.04c0.21,0.16,0.6,0.45,0.92,0.72c0.09,0.08,0.15,0.19,0.04,0.29c-0.06,0.04-0.17,0.07-0.29,0.07h-2.05
			l0.93,0.58C38.62,18.33,38.65,18.51,38.5,18.54z M26.8,9.66h5.86V8.56c0-0.15,0.09-0.23,0.24-0.21l1.02,0.09
			c0.17,0.01,0.27,0.15,0.15,0.27c-0.09,0.08-0.22,0.13-0.42,0.17v0.78h4.16l0.57-0.72c0.09-0.11,0.2-0.14,0.32-0.04
			c0.24,0.19,0.66,0.52,0.99,0.84c0.1,0.09,0.15,0.21,0.04,0.3c-0.08,0.04-0.18,0.08-0.3,0.08H26.86c-0.13,0-0.21-0.08-0.24-0.2
			L26.6,9.88C26.56,9.73,26.65,9.66,26.8,9.66z M29.53,12.58h3.15v-1.12h-3.15V12.58z M32.68,13h-3.15v1.16h3.15V13z M33.64,12.58
			h3.18v-1.12h-3.18V12.58z M36.82,13h-3.18v1.16h3.18V13z M35.5,19.36c0.72-0.52,1.5-1.21,1.94-1.71H33.8
			C34.24,18.34,34.81,18.9,35.5,19.36z"/>
	</g>
</g>
<rect x="1" y="3.98" class="st1" width="49.01" height="23.62"/>
<g>
	<g>
		<path class="st0" d="M167.06,11.55c0.08-0.09,0-0.17-0.13-0.09c-0.71,0.41-1.58,0.41-2.14,0.09c-0.6-0.34-0.53-1.02,0.1-0.71
			c0.55,0.25,1.41,0.15,2.47-0.46c1.02-0.58,1.41,0.42,0.75,0.97c-4,3.25-4.84,8.96-0.67,8.96c5.5,0,4.21-7.47,3.21-9.85
			c-0.36-0.83,0.65-1.05,0.92-0.33c0.84,2.08,1.83,3.03,3.04,3.99c0.85,0.67,0.2,1.5-0.6,0.87c-0.63-0.49-1.56-1.6-2-2.5
			c-0.08-0.15-0.18-0.12-0.13,0.04c1.12,4.71-0.54,8.78-4.53,8.78C163.37,21.3,162.46,16.3,167.06,11.55z"/>
		<path class="st0" d="M181.38,16.08c1.58-0.45,3.13,0.01,4.23,0.42c0.39,0.17,0.64-0.09,0.48-0.71c-0.09-0.3-0.66-1.37-1.29-2.46
			c-2.5,0.81-5.11,0.67-6-0.13c-0.46-0.44-0.22-0.74,0.29-0.42c1.2,0.76,3.39,0.46,5.28-0.18c-0.54-0.9-1.05-1.69-1.29-1.98
			c-0.6-0.72,0.29-1.17,0.81-0.9c0.95,0.48,2.13,0.86,3.58,0.93c0.48,0.01,1.12,0.48,0.22,1.18c-0.66,0.51-1.39,0.92-2.17,1.23
			c0.68,1.28,1.19,2.45,1.49,3.36c0.5,1.47-0.72,1.62-1.62,1.06c-0.85-0.51-2.31-1.27-3.93-0.88c-2.54,0.6-1,4.26,3.85,3.48
			c0.99-0.18,1.62,0.78,0.51,1C180,22.35,177.89,17.08,181.38,16.08z M185.12,12.31c0.54-0.22,1.02-0.46,1.42-0.72
			c0.33-0.18,0.27-0.31-0.02-0.39c-0.66-0.2-1.36-0.41-2.23-0.86c-0.22-0.12-0.38-0.03-0.2,0.24
			C184.47,11.17,184.8,11.74,185.12,12.31z M187.59,8.74c0.76,0.31,1.23,0.64,1.63,1.38c0.45,0.87-0.54,1.23-0.95,0.39
			c-0.21-0.48-0.58-1-0.93-1.32C187.04,8.91,187.2,8.61,187.59,8.74z M189.09,8.49c0.57,0.19,1.21,0.54,1.59,1.12
			c0.41,0.71-0.45,1.26-0.9,0.43c-0.21-0.43-0.54-0.83-0.91-1.09C188.55,8.71,188.67,8.38,189.09,8.49z"/>
	</g>
</g>
<rect x="151.58" y="3.98" class="st1" width="49.01" height="23.62"/>
<rect x="57.46" y="3.98" class="st1" width="86.71" height="23.62"/>
<g>
	<g>
		<path class="st0" d="M69.43,19.68c-0.35,0.43-0.71,0.78-1.14,0.92c-0.85,0.25-2.34-0.55-0.88-1.08c2.25-0.81,2.94-2.5,5.1-3.5
			c-0.9-2.01-1.33-3.19,0.57-3.71c1.23-0.33,0.09-1.74-0.51-2.26c-0.45-0.41-0.12-0.64,0.31-0.38c3.12,2,2.34,3.24,0.88,3.15
			c-1.63-0.11-1.74,0.6-0.58,2.94c3.11-0.95,6.69,1.29,6.69,3.72c0,1.59-1.31,1.56-1.31,0.44c0-3.13-2.49-4.33-5.14-3.67
			c0.38,0.72,0.86,1.59,1.42,2.61c1.28,2.33-1.23,2.88-2.42,1.86C71.7,20.1,70.68,19.81,69.43,19.68z M72.58,20.01
			c0.66,0.24,1.54,0,1.26-0.79c-0.36-1.04-0.76-1.96-1.14-2.76c-1.49,0.58-2.28,1.89-3.01,2.88C70.77,19.48,72,19.8,72.58,20.01z"/>
		<path class="st0" d="M84.27,15.82c-0.24-0.33-0.34-0.81-0.12-1.26c1.54-3.01,3.32-4.02,3.12-4.99c-0.13-0.71,0.34-0.81,0.66-0.41
			c0.42,0.54,0.66,1.39-0.18,2c-1.02,0.76-2.49,2.31-3.04,3.66c-0.1,0.24-0.1,0.45,0.11,0.69c1.8,2.1,2.71,3.17,3.21,5.5
			c0.2,0.99-0.86,1.18-1.08,0.17C86.39,18.79,85.56,17.49,84.27,15.82z"/>
		<path class="st0" d="M96.53,21.07c9.75,0.08,6.63-10.03-0.08-3.28c-1.08,1.08-2.16,0.52-2.08-0.75c0.06-1.11,0.32-2.87,0.51-4.19
			c0.2-1.32,1.47-1.41,2.79-1.59c0.21-0.03,0.21-0.21,0.12-0.33c-0.39-0.58-0.85-0.85-1.53-1.12c-0.46-0.19-0.27-0.45,0-0.45
			c1.68,0.06,2.16,0.49,2.62,1.23c0.63,0.96,0.33,1.68-0.85,1.37c-1.92-0.53-2.34,0.03-2.43,0.9c-0.04,0.41-0.27,2.39-0.42,3.36
			c-0.12,0.99,0.55,0.79,1.14,0.39c8.55-6.12,10.65,5.47,0.18,4.82C96.02,21.39,96.07,21.06,96.53,21.07z"/>
		<path class="st0" d="M108.91,11.23c-0.67-0.93,0.03-1.4,0.74-0.5c0.81,1.05-0.46,4.77-0.75,6.3c-0.11,0.54,0.24,0.71,0.42,0.09
			c0.27-1.02,0.76-2.01,1.26-2.82c0.22-0.38,0.48-0.22,0.33,0.13c-0.51,1.25-1.56,3.93-1.2,5.15c0.46,1.51-0.6,1.83-1.12,0.51
			c-0.36-0.92-0.54-2-0.29-3.09C109.03,13.75,109.36,11.88,108.91,11.23z M117.01,19.11c-0.09,2.45-4.79,2.59-4.79,0.3
			c0-1.56,2.04-1.9,3.95-1.47c0.03-1.02,0.04-2.56,0.03-4c-0.98,0.03-2.03-0.3-2.91-1.11c-0.38-0.35-0.17-0.66,0.32-0.38
			c0.88,0.52,1.78,0.71,2.58,0.66c-0.04-1.45-0.15-2.7-0.39-3.01c-0.57-0.78-0.08-1.02,0.51-0.67c0.9,0.55,0.93,0.9,0.81,2.31
			c0.28,0.18,0.57,0.3,1.06,0.41c0.86,0.15,0.83,0.76-0.2,1.32c-0.31,0.18-0.66,0.3-1.02,0.39c-0.04,1.08-0.08,2.47,0,4.32
			c0.83,0.27,1.54,0.69,2.01,1.21c0.84,0.97,0.15,1.9-0.75,0.75C117.91,19.71,117.47,19.38,117.01,19.11z M116.15,18.75v-0.02
			c-1.61-0.57-3.35-0.34-3.35,0.75C112.81,20.71,116.11,20.64,116.15,18.75z M117.61,12.73c0.12-0.08,0.09-0.2-0.04-0.29
			c-0.18-0.12-0.34-0.24-0.48-0.36l-0.08,0.88C117.22,12.91,117.43,12.82,117.61,12.73z"/>
		<path class="st0" d="M129.54,17.34c0.38,0.1,0.52-0.02,0.41-0.33c-0.26-0.72-0.51-1.42-0.75-2.07c-1.74,0.45-3.63,0.54-4.98-0.42
			c-0.48-0.34-0.13-0.64,0.3-0.43c1.43,0.75,3,0.6,4.43,0.15c-0.29-0.73-0.56-1.41-0.83-1.99c-1.12,0.18-2.25,0.1-2.91-0.2
			c-0.46-0.22-0.27-0.62,0.12-0.48c0.85,0.3,1.7,0.18,2.42-0.07c-0.44-0.81-0.9-1.37-1.38-1.56c-1.08-0.43-0.69-0.96,0.31-0.72
			c0.79,0.18,1.12,0.53,1.79,2c0.32-0.13,0.58-0.27,0.81-0.38c0.74-0.33,1.62,0.24,0.72,0.76c-0.23,0.13-0.46,0.24-0.74,0.33
			c1.04,0.3,2.45,0.55,3.08,0.65c0.66,0.07,0.84,0.67,0.22,1.02c-0.69,0.39-1.6,0.79-2.59,1.12c0.3,0.67,0.63,1.44,1,2.31
			c0.55,1.25-0.43,1.92-1.23,1.37c-3.99-2.79-8.21,2.96-0.5,1.95c1.29-0.17,1.78,0.96,0.58,1.08
			C121.68,22.23,123.3,15.7,129.54,17.34z M129.65,13.98c0.56-0.21,1.05-0.45,1.52-0.69c0.19-0.11,0.22-0.27-0.09-0.38
			c-0.6-0.17-1.47-0.42-2.18-0.71L129.65,13.98z M131.51,9.7c0.78,0.31,1.25,0.63,1.65,1.37c0.45,0.87-0.54,1.24-0.94,0.4
			c-0.21-0.5-0.58-1.02-0.95-1.33C130.95,9.85,131.13,9.55,131.51,9.7z M133.01,9.45c0.58,0.18,1.23,0.52,1.6,1.12
			c0.41,0.69-0.46,1.25-0.9,0.42c-0.23-0.42-0.54-0.83-0.92-1.09C132.48,9.66,132.6,9.33,133.01,9.45z"/>
	</g>
</g>
</svg>
