<?xml version="1.0" encoding="utf-8"?>
<!-- Generator: Adobe Illustrator 25.4.1, SVG Export Plug-In . SVG Version: 6.00 Build 0)  -->
<svg version="1.1" id="レイヤー_1" xmlns="http://www.w3.org/2000/svg" xmlns:xlink="http://www.w3.org/1999/xlink" x="0px"
	 y="0px" viewBox="0 0 567 40" style="enable-background:new 0 0 567 40;" xml:space="preserve">
<style type="text/css">
	.st0{fill:#463243;}
	.st1{fill:none;stroke:#463243;stroke-miterlimit:10;}
</style>
<g>
	<g>
		<path class="st0" d="M30.23,26.56c1.06,0,3.3,0,4.62-0.04c0.2,0,0.3,0.06,0.3,0.14s-0.08,0.14-0.24,0.22
			c-0.26,0.14-0.42,0.38-0.5,0.66c-0.04,0.18-0.14,0.28-0.32,0.28h-3.98c-4.76,0-7.32-0.86-8.96-4.86c-0.78,1.98-2,3.92-4.04,5.26
			c-0.16,0.1-0.28,0.12-0.34,0.04c-0.06-0.08-0.02-0.18,0.12-0.32c2.26-2.1,3.28-5.36,3.66-8.28c0.02-0.18,0.16-0.28,0.34-0.24
			l1.42,0.28c0.2,0.04,0.34,0.24,0.16,0.38c-0.12,0.1-0.3,0.16-0.56,0.18c-0.14,0.72-0.34,1.44-0.58,2.18c0.88,1.96,2.1,3,3.8,3.56
			v-8.88H21.1v0.82c0,0.14-0.56,0.44-1.08,0.44c-0.14,0-0.22-0.12-0.22-0.3v-6.96c0-0.22,0.16-0.32,0.36-0.22l1.06,0.46h9.06
			l0.54-0.58c0.12-0.14,0.28-0.16,0.42-0.04l1.12,0.86c0.18,0.14,0.2,0.3,0.02,0.42c-0.16,0.08-0.36,0.16-0.58,0.2v5.56
			c-0.02,0.14-0.68,0.46-1.12,0.46c-0.12,0-0.2-0.12-0.2-0.3v-0.82h-4.02v3.96h4.26l0.78-0.96c0.12-0.14,0.26-0.18,0.42-0.06
			c0.32,0.24,0.9,0.72,1.36,1.12c0.14,0.12,0.2,0.28,0.06,0.4c-0.08,0.06-0.22,0.1-0.38,0.1h-6.5v4.64
			C27.55,26.5,28.79,26.56,30.23,26.56z M30.49,11.96H21.1v4.58h9.38V11.96z"/>
		<path class="st0" d="M54.97,23.66c-0.12,0.02-0.26,0-0.46-0.04c-0.72,0.46-1.9,1.02-3.04,1.44c1.48,0.84,3.32,1.38,5.36,1.68
			c0.18,0.02,0.28,0.1,0.28,0.16s-0.08,0.1-0.26,0.18c-0.32,0.14-0.58,0.4-0.74,0.78c-0.08,0.16-0.2,0.24-0.38,0.2
			c-3.64-0.9-6.16-2.52-7.48-5.58h-0.22c-0.76,0.56-1.64,1.06-2.62,1.48v2.28l3.74-0.6c0.18-0.04,0.32,0,0.34,0.1
			c0.02,0.12-0.06,0.18-0.24,0.24c-1.78,0.6-4.04,1.28-7.1,1.96c-0.04,0.14-0.1,0.24-0.18,0.32c-0.14,0.12-0.32,0.02-0.4-0.14
			l-0.52-0.96c-0.1-0.2-0.04-0.36,0.18-0.38c0.74-0.08,1.74-0.2,2.88-0.36v-1.96c-1.56,0.56-3.32,0.98-5.12,1.28
			c-0.18,0.02-0.28-0.02-0.34-0.14c-0.04-0.1,0.04-0.2,0.24-0.26c2.7-0.66,5.22-1.64,7-2.86h-6.58c-0.16,0-0.3-0.1-0.34-0.26
			c-0.06-0.22,0.06-0.34,0.26-0.34h7.98V20.4h-6.48c-0.18,0-0.3-0.1-0.34-0.26c-0.04-0.2,0.06-0.32,0.26-0.32h6.56v-1.4h-4.2v0.5
			c0,0.12-0.56,0.38-1.08,0.38c-0.1,0-0.18-0.12-0.18-0.3v-5.62c0-0.22,0.16-0.34,0.36-0.24l1,0.48h9.44l0.5-0.54
			c0.12-0.14,0.28-0.14,0.42-0.02l1.02,0.76c0.16,0.12,0.2,0.32,0,0.42c-0.14,0.08-0.3,0.12-0.48,0.16v4.1
			c-0.02,0.14-0.66,0.44-1.08,0.44c-0.12,0-0.2-0.1-0.2-0.26v-0.26h-4.24v1.4h4.74l0.66-0.72c0.12-0.14,0.26-0.16,0.42-0.06
			c0.28,0.18,0.74,0.54,1.16,0.86c0.14,0.12,0.2,0.28,0.06,0.4c-0.1,0.06-0.22,0.1-0.36,0.1h-6.68v1.48h5.94l0.7-0.78
			c0.12-0.14,0.26-0.16,0.42-0.06c0.28,0.22,0.8,0.6,1.22,0.96c0.12,0.1,0.2,0.26,0.06,0.38c-0.08,0.06-0.22,0.1-0.38,0.1h-2.74
			l1.24,0.78C55.13,23.38,55.17,23.62,54.97,23.66z M39.36,11.82h7.82v-1.46c0-0.2,0.12-0.3,0.32-0.28l1.36,0.12
			c0.22,0.02,0.36,0.2,0.2,0.36c-0.12,0.1-0.3,0.18-0.56,0.22v1.04h5.54l0.76-0.96c0.12-0.14,0.26-0.18,0.42-0.06
			c0.32,0.26,0.88,0.7,1.32,1.12c0.14,0.12,0.2,0.28,0.06,0.4c-0.1,0.06-0.24,0.1-0.4,0.1H39.44c-0.18,0-0.28-0.1-0.32-0.26
			l-0.02-0.04C39.05,11.92,39.16,11.82,39.36,11.82z M43.01,15.72h4.2v-1.5h-4.2V15.72z M47.21,16.28h-4.2v1.54h4.2V16.28z
			 M48.49,15.72h4.24v-1.5h-4.24V15.72z M52.73,16.28h-4.24v1.54h4.24V16.28z M50.97,24.76c0.96-0.7,2-1.62,2.58-2.28h-4.84
			C49.29,23.4,50.05,24.14,50.97,24.76z"/>
	</g>
</g>
<rect x="5" y="4.25" class="st1" width="65.35" height="31.5"/>
<g>
	<g>
		<path class="st0" d="M220.75,14.34c0.1-0.12,0-0.22-0.18-0.12c-0.94,0.54-2.1,0.54-2.86,0.12c-0.8-0.46-0.7-1.36,0.14-0.94
			c0.74,0.34,1.88,0.2,3.3-0.62c1.36-0.78,1.88,0.56,1,1.3c-5.34,4.34-6.46,11.94-0.9,11.94c7.34,0,5.62-9.96,4.28-13.14
			c-0.48-1.1,0.86-1.4,1.22-0.44c1.12,2.78,2.44,4.04,4.06,5.32c1.14,0.9,0.26,2-0.8,1.16c-0.84-0.66-2.08-2.14-2.66-3.34
			c-0.1-0.2-0.24-0.16-0.18,0.06c1.5,6.28-0.72,11.7-6.04,11.7C215.83,27.34,214.61,20.68,220.75,14.34z"/>
		<path class="st0" d="M239.79,20.38c2.1-0.6,4.18,0.02,5.64,0.56c0.52,0.22,0.86-0.12,0.64-0.94c-0.12-0.4-0.88-1.82-1.72-3.28
			c-3.34,1.08-6.82,0.9-8-0.18c-0.62-0.58-0.3-0.98,0.38-0.56c1.6,1.02,4.52,0.62,7.04-0.24c-0.72-1.2-1.4-2.26-1.72-2.64
			c-0.8-0.96,0.38-1.56,1.08-1.2c1.26,0.64,2.84,1.14,4.78,1.24c0.64,0.02,1.5,0.64,0.3,1.58c-0.88,0.68-1.86,1.22-2.9,1.64
			c0.9,1.7,1.58,3.26,1.98,4.48c0.66,1.96-0.96,2.16-2.16,1.42c-1.14-0.68-3.08-1.7-5.24-1.18c-3.38,0.8-1.34,5.68,5.14,4.64
			c1.32-0.24,2.16,1.04,0.68,1.34C237.95,28.74,235.13,21.72,239.79,20.38z M244.77,15.36c0.72-0.3,1.36-0.62,1.9-0.96
			c0.44-0.24,0.36-0.42-0.02-0.52c-0.88-0.26-1.82-0.54-2.98-1.14c-0.3-0.16-0.5-0.04-0.26,0.32
			C243.91,13.84,244.35,14.6,244.77,15.36z M248.07,10.6c1.02,0.42,1.64,0.86,2.18,1.84c0.6,1.16-0.72,1.64-1.26,0.52
			c-0.28-0.64-0.78-1.34-1.24-1.76C247.33,10.82,247.55,10.42,248.07,10.6z M250.07,10.26c0.76,0.26,1.62,0.72,2.12,1.5
			c0.54,0.94-0.6,1.68-1.2,0.58c-0.28-0.58-0.72-1.1-1.22-1.46C249.35,10.56,249.51,10.11,250.07,10.26z"/>
	</g>
</g>
<rect x="200.1" y="4.25" class="st1" width="65.35" height="31.5"/>
<g>
	<g>
		<path class="st0" d="M303.98,12.72c0.32,0.26,0.94,0.74,1.44,1.18c0.12,0.12,0.2,0.28,0.06,0.4c-0.1,0.06-0.22,0.08-0.38,0.08
			h-7.84c-0.44,0.82-0.98,1.7-1.44,2.38h5l0.54-0.62c0.12-0.14,0.28-0.16,0.42-0.04l1.14,0.88c0.16,0.12,0.2,0.32,0,0.42
			c-0.16,0.08-0.36,0.16-0.58,0.2v10.14c-0.02,0.14-0.66,0.46-1.12,0.46c-0.12,0-0.2-0.12-0.2-0.3v-0.98h-9.1v0.9
			c0,0.16-0.52,0.48-1.1,0.48c-0.12,0-0.2-0.12-0.2-0.3V16.48c0-0.22,0.16-0.34,0.36-0.24l1.08,0.52h3.08
			c0.1-0.68,0.22-1.6,0.3-2.38h-7.7c-0.18,0-0.28-0.1-0.32-0.26c-0.04-0.2,0.06-0.32,0.26-0.32h10.42c0.62-1.06,1.3-2.42,1.74-3.5
			c0.06-0.16,0.2-0.24,0.38-0.18l1.5,0.44c0.22,0.06,0.3,0.26,0.1,0.38c-0.12,0.06-0.3,0.08-0.52,0.08c-0.6,0.86-1.6,1.92-2.58,2.78
			h3.98l0.86-1.04C303.68,12.6,303.82,12.6,303.98,12.72z M291.84,10.19c3.78,1.4,2.92,4.02,1.66,3.38
			c-0.14-0.06-0.18-0.16-0.22-0.3c-0.26-0.94-1-2.02-1.68-2.76c-0.14-0.16-0.18-0.26-0.1-0.32
			C291.58,10.14,291.68,10.14,291.84,10.19z M291.92,19.9h9.1v-2.56h-9.1V19.9z M301.02,23.08V20.5h-9.1v2.58H301.02z M301.02,23.66
			h-9.1v2.66h9.1V23.66z"/>
		<path class="st0" d="M308.43,27.98c-0.12,0.14-0.24,0.18-0.32,0.1s-0.08-0.2,0.04-0.36c2.5-3.4,2.9-7.48,2.9-11.1v-3.34
			c0-0.22,0.16-0.34,0.36-0.24l1.18,0.58h9.98l0.48-0.54c0.12-0.14,0.28-0.16,0.42-0.04l1.04,0.78c0.16,0.12,0.2,0.32,0,0.42
			c-0.12,0.06-0.28,0.12-0.46,0.14v3.12c0,0.14-0.02,0.26-0.14,0.32c-0.22,0.14-0.66,0.32-0.98,0.32c-0.1,0-0.18-0.12-0.18-0.3
			v-0.62h-10.4C312.29,20.44,311.77,24.84,308.43,27.98z M324.01,10.24c0.32,0.24,0.88,0.7,1.34,1.1c0.14,0.12,0.2,0.28,0.08,0.4
			c-0.1,0.06-0.24,0.1-0.4,0.1h-15.8c-0.16,0-0.3-0.1-0.34-0.26c-0.06-0.22,0.06-0.34,0.26-0.34h13.64l0.8-0.96
			C323.71,10.11,323.85,10.11,324.01,10.24z M312.35,16.64h10.4V14.2h-10.4V16.64z M323.51,18.52l1.16,0.86
			c0.16,0.12,0.18,0.32,0,0.42c-0.16,0.08-0.34,0.14-0.56,0.18v6.56c0,0.92-0.2,1.54-1.7,1.74c-0.2,0.04-0.3-0.06-0.34-0.26
			c-0.06-0.24-0.16-0.44-0.36-0.56c-0.24-0.2-0.6-0.32-1.26-0.42c-0.18-0.04-0.28-0.1-0.28-0.2c0-0.1,0.12-0.16,0.3-0.14
			c0.54,0.04,1.6,0.1,1.92,0.1c0.32,0,0.42-0.1,0.42-0.38v-1.7h-8.48v3.16c0,0.14-0.54,0.46-1.08,0.46c-0.14,0-0.22-0.12-0.22-0.3
			V18.9c0-0.22,0.16-0.34,0.36-0.24l1.04,0.5h8.18l0.48-0.6C323.21,18.42,323.37,18.4,323.51,18.52z M314.33,21.62h8.48v-1.9h-8.48
			V21.62z M322.81,22.2h-8.48v1.94h8.48V22.2z"/>
	</g>
</g>
<rect x="273.43" y="4.25" class="st1" width="65.35" height="31.5"/>
<g>
	<g>
		<path class="st0" d="M523.8,16.04c-0.12,0.06-0.3,0.1-0.48,0.14v10.2c0,0.98-0.22,1.66-1.98,1.9c-0.2,0.04-0.32-0.06-0.38-0.24
			c-0.08-0.3-0.22-0.54-0.46-0.7c-0.32-0.2-0.84-0.36-1.74-0.5c-0.18-0.02-0.28-0.1-0.28-0.2c0-0.1,0.12-0.16,0.32-0.14
			c0.68,0.06,2.28,0.18,2.68,0.18c0.44,0,0.54-0.14,0.54-0.48v-3h-10.48c-0.48,1.82-1.54,3.6-3.8,4.98
			c-0.16,0.1-0.28,0.12-0.36,0.02c-0.08-0.08-0.04-0.2,0.12-0.34c2.66-2.32,3.14-5.22,3.14-8.26v-4.1
			c-0.88,0.76-1.84,1.44-2.82,1.96c-0.16,0.08-0.28,0.06-0.34-0.02c-0.08-0.08-0.02-0.18,0.14-0.3c2.28-1.66,4.46-4.4,5.6-6.88
			c0.08-0.18,0.22-0.24,0.4-0.18l1.4,0.44c0.22,0.08,0.32,0.32,0.1,0.36c-0.12,0.02-0.26,0.02-0.46,0c-0.26,0.42-0.56,0.86-0.88,1.3
			h4.14l0.66-0.64c0.14-0.12,0.28-0.14,0.42,0l0.98,0.9c0.16,0.16,0.16,0.36-0.06,0.42c-0.12,0.02-0.28,0.04-0.46,0.04
			c-0.64,0.72-1.68,1.8-2.62,2.52h5l0.46-0.56c0.12-0.14,0.28-0.18,0.42-0.06l1.08,0.82C523.96,15.74,524,15.96,523.8,16.04z
			 M511.22,15l0.96,0.42h4.14c0.56-0.74,1.18-1.86,1.58-2.68h-4.56C512.7,13.52,512,14.28,511.22,15z M511.66,22.62h4.5v-3.08h-4.24
			v0.04C511.92,20.56,511.88,21.6,511.66,22.62z M516.16,18.96V16h-4.24v2.96H516.16z M517.42,18.96h4.6V16h-4.6V18.96z
			 M522.02,19.54h-4.6v3.08h4.6V19.54z"/>
		<path class="st0" d="M528.85,17.48c-0.18,0.08-0.3,0.08-0.36-0.02c-0.06-0.1-0.02-0.2,0.12-0.34c1.44-1.28,1.6-2.78,1.6-4.12
			v-1.84c0-0.22,0.14-0.32,0.34-0.24l1.26,0.44c1.38-0.36,2.88-0.82,3.84-1.22c0.14-0.06,0.28-0.04,0.4,0.08l0.9,0.9
			c0.16,0.16,0.16,0.38-0.06,0.38c-0.18,0-0.38-0.04-0.62-0.16c-1.24,0.22-3.14,0.48-4.84,0.58v1.18h4.08l0.64-0.78
			c0.12-0.16,0.26-0.16,0.42-0.04c0.26,0.22,0.72,0.58,1.08,0.92c0.14,0.12,0.2,0.28,0.06,0.4c-0.08,0.06-0.22,0.1-0.38,0.1h-2.36
			v2.6c0,0.08-0.42,0.36-1.06,0.36c-0.12,0-0.2-0.12-0.2-0.3V13.7h-2.3C531.29,14.94,530.81,16.44,528.85,17.48z M529.05,27.92
			c2.18-0.58,4.64-1.68,6-2.56c0.14-0.1,0.26-0.08,0.4,0.02l1.12,0.82c0.18,0.14,0.18,0.38-0.04,0.38c-0.16,0.02-0.36,0-0.6-0.08
			c-1.66,0.72-4.3,1.46-6.8,1.78c-0.18,0.02-0.3-0.02-0.32-0.12C528.79,28.06,528.85,27.98,529.05,27.92z M545.02,12.2
			c0.28,0.22,0.78,0.62,1.2,1c0.12,0.12,0.18,0.28,0.06,0.4c-0.1,0.06-0.24,0.1-0.4,0.1h-2.84v2.38c0,0.14-0.02,0.26-0.16,0.34
			c-0.1,0.06-0.24,0.12-0.44,0.16l1.2,0.9c0.16,0.12,0.18,0.32,0,0.42c-0.14,0.08-0.3,0.12-0.46,0.16v6.8
			c0,0.14-0.02,0.26-0.14,0.32c-0.22,0.14-0.66,0.32-0.98,0.32c-0.12,0-0.2-0.12-0.2-0.3v-0.54h-8.64v0.66
			c0,0.12-0.54,0.44-1.1,0.44c-0.14,0-0.22-0.12-0.22-0.3v-8.42c0-0.22,0.16-0.32,0.36-0.22l1.06,0.48h8.36l0.64-0.68
			c-0.12,0-0.24,0.02-0.36,0.02s-0.2-0.12-0.2-0.3V13.7h-2.3c-0.18,1.08-0.74,2.28-2.62,3.1c-0.18,0.08-0.3,0.06-0.36-0.04
			c-0.06-0.08-0.02-0.2,0.14-0.32c1.5-1.14,1.66-2.44,1.66-3.68v-1.64c0-0.22,0.14-0.32,0.34-0.24l1.18,0.4
			c1.46-0.34,3.02-0.78,4-1.16c0.16-0.06,0.3-0.02,0.42,0.1l0.9,0.94c0.14,0.16,0.14,0.38-0.08,0.38c-0.16,0-0.36-0.06-0.6-0.18
			c-1.28,0.2-3.18,0.42-4.92,0.48v1.26h4.36l0.72-0.86C544.72,12.08,544.86,12.08,545.02,12.2z M533.21,19.52h8.64v-1.64h-8.64
			V19.52z M533.21,21.8h8.64v-1.68h-8.64V21.8z M541.86,22.4h-8.64v1.68h8.64V22.4z M539.08,25.64c8.92,0.62,6.58,3.48,5.04,2.46
			c-1.04-0.72-2.78-1.52-5.12-2.1c-0.2-0.06-0.28-0.14-0.26-0.24C538.76,25.66,538.88,25.62,539.08,25.64z"/>
	</g>
</g>
<rect x="493.41" y="4.25" class="st1" width="65.35" height="31.5"/>
<g>
	<g>
		<path class="st0" d="M369.29,12.06c-0.04-0.2,0.06-0.34,0.26-0.34h5.84l0.7-0.88c0.12-0.14,0.26-0.18,0.42-0.06
			c0.3,0.24,0.8,0.66,1.22,1.04c0.12,0.12,0.18,0.28,0.06,0.4c-0.1,0.06-0.22,0.1-0.38,0.1h-7.8
			C369.43,12.32,369.33,12.22,369.29,12.06z M377.57,24.44c-1.66,0.68-3.94,1.56-7.02,2.64c-0.06,0.12-0.12,0.24-0.2,0.34
			c-0.14,0.12-0.32,0.04-0.4-0.12l-0.6-1.12c-0.1-0.18-0.02-0.34,0.18-0.38c0.96-0.16,2.46-0.48,4.2-0.86
			c0.4-1.2,0.82-2.76,1.08-3.98c0.04-0.2,0.16-0.28,0.36-0.22l1.28,0.32c0.2,0.06,0.34,0.26,0.14,0.38
			c-0.12,0.08-0.3,0.14-0.52,0.12c-0.38,0.94-1.06,2.18-1.7,3.24l3.1-0.7c0.18-0.04,0.3-0.02,0.32,0.08
			C377.81,24.28,377.75,24.38,377.57,24.44z M375.43,20.06v-0.5h-4.06v0.48c0,0.12-0.48,0.38-0.98,0.38c-0.1,0-0.18-0.12-0.18-0.3
			v-5.56c0-0.22,0.14-0.32,0.36-0.22l0.9,0.38h3.8l0.46-0.5c0.12-0.14,0.28-0.14,0.42-0.02l0.96,0.72c0.16,0.12,0.18,0.32,0,0.42
			c-0.14,0.06-0.3,0.12-0.46,0.16v4.42c-0.02,0.14-0.62,0.44-1.02,0.44h-0.1C375.47,20.36,375.43,20.24,375.43,20.06z M371.19,20.96
			c2.72,2.02,1.58,4.24,0.54,3.46c-0.12-0.1-0.16-0.2-0.16-0.36c-0.02-0.94-0.34-2.04-0.72-2.86c-0.08-0.18-0.08-0.3,0.02-0.34
			C370.95,20.82,371.05,20.86,371.19,20.96z M375.43,15.32h-4.06v3.66h4.06V15.32z M375.59,27.9c1.86-0.72,3.92-1.94,5.08-3.2
			c0.12-0.14,0.28-0.16,0.42-0.06l1.04,0.64c0.2,0.12,0.24,0.38,0.02,0.38c-0.12,0-0.24-0.02-0.38-0.06
			c-1.28,1.14-3.82,2.18-6.06,2.68c-0.18,0.04-0.28,0-0.34-0.1C375.33,28.08,375.39,27.98,375.59,27.9z M386.25,10.32
			c0.32,0.24,0.88,0.7,1.32,1.1c0.12,0.12,0.18,0.28,0.06,0.4c-0.1,0.06-0.22,0.1-0.38,0.1h-4.02c-0.4,0.84-0.86,1.76-1.3,2.42h2.98
			l0.52-0.54c0.12-0.12,0.28-0.14,0.42-0.02l0.98,0.76c0.16,0.12,0.18,0.32,0,0.42c-0.14,0.06-0.28,0.1-0.46,0.14V24
			c0,0.14-0.02,0.26-0.14,0.34c-0.22,0.12-0.62,0.3-0.94,0.3c-0.12,0-0.2-0.12-0.2-0.3V23.8h-5.12v0.58c0,0.14-0.52,0.44-1.06,0.44
			c-0.14,0-0.22-0.12-0.22-0.3V14.1c0-0.22,0.16-0.32,0.36-0.22l1.02,0.46h1.2c0.14-0.66,0.3-1.62,0.4-2.42h-3.48
			c-0.18,0-0.28-0.1-0.32-0.26c-0.06-0.22,0.06-0.34,0.26-0.34h6.94l0.76-0.94C385.95,10.24,386.09,10.19,386.25,10.32z
			 M379.97,17.28h5.12v-2.34h-5.12V17.28z M385.09,20.26v-2.4h-5.12v2.4H385.09z M385.09,20.84h-5.12v2.38h5.12V20.84z
			 M383.51,24.74c4.74,1.18,4.48,3.96,3.12,3.58c-0.16-0.04-0.22-0.14-0.3-0.26c-0.58-1.02-1.9-2.22-2.98-3
			c-0.18-0.12-0.24-0.22-0.18-0.28C383.23,24.7,383.33,24.7,383.51,24.74z"/>
	</g>
</g>
<rect x="346.75" y="4.25" class="st1" width="65.35" height="31.5"/>
<g>
	<g>
		<path class="st0" d="M425.71,24.34c3.12-0.62,6.06-2.84,7.94-6.28c0.12-0.28,0.1-0.48-0.02-0.64c-0.14-0.12-0.26-0.24-0.8-0.46
			c-0.56-0.2-0.58-0.68,0.08-0.68c2.26-0.02,2.96,1.6,2.38,2.5c-1.66,2.66-5.28,5.4-9.5,6C425.29,24.86,425.27,24.44,425.71,24.34z
			 M439.05,16.96c2.26,1.16,3.7,2.38,4.56,4.14c0.96,1.94-1.2,2.48-1.84,0.8c-0.56-1.52-1.58-3.34-2.98-4.4
			C438.33,17.14,438.61,16.74,439.05,16.96z"/>
		<path class="st0" d="M446.52,14.68c1.3,0.08,2.66,0.48,3.82,1.6c1.36,1.24-0.1,2.4-1.16,1.2c-0.74-0.84-1.94-1.8-2.72-2.1
			C445.8,15.12,445.9,14.62,446.52,14.68z M447.42,23.98c0.16-0.68,0.64-0.7,0.8-0.06c0.04,0.26,0.32,0.34,0.56,0.34
			c3.42,0,8.78-4.52,12.22-9.26c0.4-0.56,0.84-0.34,0.54,0.18c-3.18,5.62-9.2,10.7-12.78,10.7
			C447.76,25.88,447.22,24.76,447.42,23.98z"/>
		<path class="st0" d="M467.42,11.56c-0.76-0.66-0.34-1.24,0.46-1.04c1.48,0.36,1.46,1.18,1.38,1.72c-0.08,0.48-0.14,1.04-0.16,1.6
			c-0.04,1.2-0.04,2.36-0.04,3.56c2.28,0.18,3.92,0.68,5.58,2.7c1.24,1.54-0.66,2.74-1.54,1.04c-1.12-2.1-2.26-2.94-4.04-3.12
			c0.04,2.28,0.14,4.74,0.34,7.82c0.16,2.4-1.84,2.24-1.74,0.12C468.24,14.16,468.64,12.6,467.42,11.56z M473.06,14.32
			c1.02,0.42,1.64,0.86,2.18,1.84c0.6,1.16-0.72,1.64-1.26,0.52c-0.28-0.64-0.78-1.34-1.24-1.76
			C472.32,14.54,472.54,14.14,473.06,14.32z M475.04,13.98c0.78,0.26,1.64,0.7,2.14,1.5c0.54,0.94-0.62,1.68-1.2,0.58
			c-0.28-0.58-0.72-1.1-1.22-1.46C474.34,14.28,474.5,13.84,475.04,13.98z"/>
	</g>
</g>
<rect x="420.08" y="4.25" class="st1" width="65.35" height="31.5"/>
<rect x="77.45" y="4.25" class="st1" width="115.61" height="31.5"/>
<g>
	<g>
		<path class="st0" d="M93.41,25.18c-0.46,0.58-0.94,1.04-1.52,1.22c-1.14,0.34-3.12-0.74-1.18-1.44c3-1.08,3.92-3.34,6.8-4.66
			c-1.2-2.68-1.78-4.26,0.76-4.94c1.64-0.44,0.12-2.32-0.68-3.02c-0.6-0.54-0.16-0.86,0.42-0.5c4.16,2.66,3.12,4.32,1.18,4.2
			c-2.18-0.14-2.32,0.8-0.78,3.92c4.14-1.26,8.92,1.72,8.92,4.96c0,2.12-1.74,2.08-1.74,0.58c0-4.18-3.32-5.78-6.86-4.9
			c0.5,0.96,1.14,2.12,1.9,3.48c1.7,3.1-1.64,3.84-3.22,2.48C96.43,25.74,95.07,25.36,93.41,25.18z M97.61,25.62
			c0.88,0.32,2.06,0,1.68-1.06c-0.48-1.38-1.02-2.62-1.52-3.68c-1.98,0.78-3.04,2.52-4.02,3.84C95.19,24.92,96.83,25.34,97.61,25.62
			z"/>
		<path class="st0" d="M113.13,20.04c-0.32-0.44-0.46-1.08-0.16-1.68c2.06-4.02,4.42-5.36,4.16-6.66c-0.18-0.94,0.46-1.08,0.88-0.54
			c0.56,0.72,0.88,1.86-0.24,2.66c-1.36,1.02-3.32,3.08-4.06,4.88c-0.14,0.32-0.14,0.6,0.14,0.92c2.4,2.8,3.62,4.22,4.28,7.34
			c0.26,1.32-1.14,1.58-1.44,0.22C115.95,24,114.85,22.26,113.13,20.04z"/>
		<path class="st0" d="M129.39,27.04c13,0.1,8.84-13.38-0.1-4.38c-1.44,1.44-2.88,0.7-2.78-1c0.08-1.48,0.42-3.82,0.68-5.58
			s1.96-1.88,3.72-2.12c0.28-0.04,0.28-0.28,0.16-0.44c-0.52-0.78-1.14-1.14-2.04-1.5c-0.62-0.26-0.36-0.6,0-0.6
			c2.24,0.08,2.88,0.66,3.5,1.64c0.84,1.28,0.44,2.24-1.14,1.82c-2.56-0.7-3.12,0.04-3.24,1.2c-0.06,0.54-0.36,3.18-0.56,4.48
			c-0.16,1.32,0.74,1.06,1.52,0.52c11.4-8.16,14.2,7.3,0.24,6.42C128.71,27.46,128.77,27.02,129.39,27.04z"/>
		<path class="st0" d="M145.84,13.92c-0.9-1.24,0.04-1.86,0.98-0.66c1.08,1.4-0.62,6.36-1,8.4c-0.14,0.72,0.32,0.94,0.56,0.12
			c0.36-1.36,1.02-2.68,1.68-3.76c0.3-0.5,0.64-0.3,0.44,0.18c-0.68,1.66-2.08,5.24-1.6,6.86c0.62,2.02-0.8,2.44-1.5,0.68
			c-0.48-1.22-0.72-2.66-0.38-4.12C146,17.28,146.44,14.78,145.84,13.92z M156.64,24.42c-0.12,3.26-6.38,3.46-6.38,0.4
			c0-2.08,2.72-2.54,5.26-1.96c0.04-1.36,0.06-3.42,0.04-5.34c-1.3,0.04-2.7-0.4-3.88-1.48c-0.5-0.46-0.22-0.88,0.42-0.5
			c1.18,0.7,2.38,0.94,3.44,0.88c-0.06-1.94-0.2-3.6-0.52-4.02c-0.76-1.04-0.1-1.36,0.68-0.9c1.2,0.74,1.24,1.2,1.08,3.08
			c0.38,0.24,0.76,0.4,1.42,0.54c1.14,0.2,1.1,1.02-0.26,1.76c-0.42,0.24-0.88,0.4-1.36,0.52c-0.06,1.44-0.1,3.3,0,5.76
			c1.1,0.36,2.06,0.92,2.68,1.62c1.12,1.3,0.2,2.54-1,1C157.84,25.22,157.26,24.78,156.64,24.42z M155.5,23.94v-0.02
			c-2.14-0.76-4.46-0.46-4.46,1C151.04,26.56,155.44,26.46,155.5,23.94z M157.44,15.92c0.16-0.1,0.12-0.26-0.06-0.38
			c-0.24-0.16-0.46-0.32-0.64-0.48l-0.1,1.18C156.92,16.16,157.2,16.04,157.44,15.92z"/>
		<path class="st0" d="M173.3,22.06c0.5,0.14,0.7-0.02,0.54-0.44c-0.34-0.96-0.68-1.9-1-2.76c-2.32,0.6-4.84,0.72-6.64-0.56
			c-0.64-0.46-0.18-0.86,0.4-0.58c1.9,1,4,0.8,5.9,0.2c-0.38-0.98-0.74-1.88-1.1-2.66c-1.5,0.24-3,0.14-3.88-0.26
			c-0.62-0.3-0.36-0.82,0.16-0.64c1.14,0.4,2.26,0.24,3.22-0.1c-0.58-1.08-1.2-1.82-1.84-2.08c-1.44-0.58-0.92-1.28,0.42-0.96
			c1.06,0.24,1.5,0.7,2.38,2.66c0.42-0.18,0.78-0.36,1.08-0.5c0.98-0.44,2.16,0.32,0.96,1.02c-0.3,0.18-0.62,0.32-0.98,0.44
			c1.38,0.4,3.26,0.74,4.1,0.86c0.88,0.1,1.12,0.9,0.3,1.36c-0.92,0.52-2.14,1.06-3.46,1.5c0.4,0.9,0.84,1.92,1.34,3.08
			c0.74,1.66-0.58,2.56-1.64,1.82c-5.32-3.72-10.94,3.94-0.66,2.6c1.72-0.22,2.38,1.28,0.78,1.44
			C162.82,28.58,164.98,19.88,173.3,22.06z M173.44,17.58c0.74-0.28,1.4-0.6,2.02-0.92c0.26-0.14,0.3-0.36-0.12-0.5
			c-0.8-0.22-1.96-0.56-2.9-0.94L173.44,17.58z M175.92,11.88c1.04,0.42,1.66,0.84,2.2,1.82c0.6,1.16-0.72,1.66-1.26,0.54
			c-0.28-0.66-0.78-1.36-1.26-1.78C175.18,12.08,175.42,11.68,175.92,11.88z M177.92,11.54c0.78,0.24,1.64,0.7,2.14,1.5
			c0.54,0.92-0.62,1.66-1.2,0.56c-0.3-0.56-0.72-1.1-1.22-1.46C177.22,11.82,177.38,11.38,177.92,11.54z"/>
	</g>
</g>
</svg>
