<?xml version="1.0" encoding="utf-8"?>
<!-- Generator: Adobe Illustrator 25.4.1, SVG Export Plug-In . SVG Version: 6.00 Build 0)  -->
<svg version="1.1" id="レイヤー_1" xmlns="http://www.w3.org/2000/svg" xmlns:xlink="http://www.w3.org/1999/xlink" x="0px"
	 y="0px" viewBox="0 0 750 30" style="enable-background:new 0 0 750 30;" xml:space="preserve">
<style type="text/css">
	.st0{fill:#463243;}
	.st1{fill:none;stroke:#463243;stroke-miterlimit:10;}
</style>
<g>
	<g>
		<path class="st0" d="M19.92,19.92c0.8,0,2.48,0,3.46-0.03c0.15,0,0.23,0.04,0.23,0.1s-0.06,0.1-0.18,0.17
			c-0.2,0.1-0.32,0.29-0.38,0.5c-0.03,0.13-0.11,0.21-0.24,0.21h-2.99c-3.57,0-5.49-0.65-6.72-3.65c-0.58,1.48-1.5,2.94-3.03,3.94
			c-0.12,0.08-0.21,0.09-0.25,0.03c-0.04-0.06-0.02-0.13,0.09-0.24c1.69-1.58,2.46-4.02,2.75-6.21c0.01-0.13,0.12-0.21,0.25-0.18
			l1.06,0.21c0.15,0.03,0.25,0.18,0.12,0.29c-0.09,0.07-0.22,0.12-0.42,0.13c-0.11,0.54-0.25,1.08-0.43,1.63
			c0.66,1.47,1.57,2.25,2.85,2.67v-6.66h-3.01v0.62c0,0.1-0.42,0.33-0.81,0.33c-0.1,0-0.17-0.09-0.17-0.22V8.34
			c0-0.17,0.12-0.24,0.27-0.17l0.79,0.34h6.79l0.4-0.44c0.09-0.1,0.21-0.12,0.32-0.03l0.84,0.65c0.13,0.1,0.15,0.23,0.01,0.31
			c-0.12,0.06-0.27,0.12-0.43,0.15v4.17c-0.01,0.1-0.51,0.34-0.84,0.34c-0.09,0-0.15-0.09-0.15-0.22v-0.62H17.1v2.97h3.19l0.58-0.72
			c0.09-0.1,0.2-0.14,0.32-0.04c0.24,0.18,0.67,0.54,1.02,0.84c0.11,0.09,0.15,0.21,0.05,0.3c-0.06,0.05-0.17,0.08-0.29,0.08H17.1
			v3.48C17.91,19.87,18.84,19.92,19.92,19.92z M20.11,8.97h-7.03v3.43h7.03V8.97z"/>
		<path class="st0" d="M38.5,17.74c-0.09,0.02-0.19,0-0.34-0.03c-0.54,0.34-1.42,0.76-2.28,1.08c1.11,0.63,2.49,1.04,4.02,1.26
			c0.13,0.02,0.21,0.07,0.21,0.12c0,0.04-0.06,0.07-0.2,0.13c-0.24,0.1-0.43,0.3-0.55,0.58c-0.06,0.12-0.15,0.18-0.29,0.15
			c-2.73-0.67-4.62-1.89-5.61-4.18h-0.17c-0.57,0.42-1.23,0.79-1.97,1.11v1.71l2.81-0.45c0.13-0.03,0.24,0,0.25,0.08
			c0.01,0.09-0.04,0.13-0.18,0.18c-1.33,0.45-3.03,0.96-5.32,1.47c-0.03,0.1-0.08,0.18-0.13,0.24c-0.11,0.09-0.24,0.02-0.3-0.1
			l-0.39-0.72c-0.08-0.15-0.03-0.27,0.13-0.29c0.56-0.06,1.31-0.15,2.16-0.27v-1.47c-1.17,0.42-2.49,0.73-3.84,0.96
			c-0.13,0.02-0.21-0.02-0.25-0.1c-0.03-0.08,0.03-0.15,0.18-0.19c2.03-0.5,3.92-1.23,5.25-2.15h-4.93c-0.12,0-0.23-0.08-0.25-0.2
			c-0.04-0.17,0.04-0.25,0.19-0.25h5.99V15.3h-4.86c-0.13,0-0.22-0.08-0.25-0.19c-0.03-0.15,0.04-0.24,0.2-0.24h4.92v-1.05h-3.15
			v0.38c0,0.09-0.42,0.28-0.81,0.28c-0.08,0-0.13-0.09-0.13-0.22v-4.21c0-0.17,0.12-0.26,0.27-0.18l0.75,0.36h7.08l0.38-0.4
			c0.09-0.1,0.21-0.1,0.31-0.02l0.77,0.57c0.12,0.09,0.15,0.24,0,0.31c-0.11,0.06-0.23,0.09-0.36,0.12v3.08
			c-0.01,0.1-0.5,0.33-0.81,0.33c-0.09,0-0.15-0.08-0.15-0.2v-0.19h-3.18v1.05h3.55l0.5-0.54c0.09-0.1,0.2-0.12,0.31-0.04
			c0.21,0.14,0.56,0.41,0.87,0.65c0.11,0.09,0.15,0.21,0.04,0.3c-0.07,0.05-0.17,0.08-0.27,0.08h-5.01v1.11h4.46l0.52-0.58
			c0.09-0.1,0.2-0.12,0.32-0.04c0.21,0.17,0.6,0.45,0.92,0.72c0.09,0.08,0.15,0.2,0.04,0.29c-0.06,0.04-0.17,0.08-0.29,0.08h-2.05
			l0.93,0.58C38.62,17.53,38.65,17.71,38.5,17.74z M26.8,8.86h5.86v-1.1c0-0.15,0.09-0.23,0.24-0.21l1.02,0.09
			c0.17,0.02,0.27,0.15,0.15,0.27c-0.09,0.08-0.22,0.14-0.42,0.17v0.78h4.16l0.57-0.72c0.09-0.1,0.2-0.13,0.32-0.04
			c0.24,0.19,0.66,0.52,0.99,0.84c0.1,0.09,0.15,0.21,0.04,0.3c-0.08,0.04-0.18,0.07-0.3,0.07H26.86c-0.13,0-0.21-0.07-0.24-0.19
			L26.6,9.09C26.56,8.94,26.65,8.86,26.8,8.86z M29.53,11.79h3.15v-1.12h-3.15V11.79z M32.68,12.21h-3.15v1.15h3.15V12.21z
			 M33.64,11.79h3.18v-1.12h-3.18V11.79z M36.82,12.21h-3.18v1.15h3.18V12.21z M35.5,18.57c0.72-0.52,1.5-1.22,1.94-1.71H33.8
			C34.24,17.55,34.81,18.1,35.5,18.57z"/>
	</g>
</g>
<rect x="1" y="3.19" class="st1" width="49.01" height="23.62"/>
<g>
	<g>
		<path class="st0" d="M167.06,10.75c0.08-0.09,0-0.17-0.13-0.09c-0.71,0.4-1.58,0.4-2.14,0.09c-0.6-0.34-0.53-1.02,0.1-0.71
			c0.55,0.26,1.41,0.15,2.47-0.46c1.02-0.58,1.41,0.42,0.75,0.98c-4,3.25-4.84,8.95-0.67,8.95c5.5,0,4.21-7.47,3.21-9.85
			c-0.36-0.83,0.65-1.05,0.92-0.33c0.84,2.08,1.83,3.03,3.04,3.99c0.85,0.67,0.2,1.5-0.6,0.87c-0.63-0.5-1.56-1.6-2-2.5
			c-0.08-0.15-0.18-0.12-0.13,0.04c1.12,4.71-0.54,8.77-4.53,8.77C163.37,20.5,162.46,15.51,167.06,10.75z"/>
		<path class="st0" d="M181.38,15.28c1.58-0.45,3.13,0.02,4.23,0.42c0.39,0.17,0.64-0.09,0.48-0.7c-0.09-0.3-0.66-1.37-1.29-2.46
			c-2.5,0.81-5.11,0.67-6-0.14c-0.46-0.44-0.22-0.73,0.29-0.42c1.2,0.77,3.39,0.46,5.28-0.18c-0.54-0.9-1.05-1.7-1.29-1.98
			c-0.6-0.72,0.29-1.17,0.81-0.9c0.95,0.48,2.13,0.85,3.58,0.93c0.48,0.02,1.12,0.48,0.22,1.19c-0.66,0.51-1.39,0.92-2.17,1.23
			c0.68,1.27,1.19,2.44,1.49,3.36c0.5,1.47-0.72,1.62-1.62,1.06c-0.85-0.51-2.31-1.27-3.93-0.89c-2.54,0.6-1,4.26,3.85,3.48
			c0.99-0.18,1.62,0.78,0.51,1C180,21.55,177.89,16.29,181.38,15.28z M185.12,11.52c0.54-0.23,1.02-0.46,1.42-0.72
			c0.33-0.18,0.27-0.31-0.02-0.39c-0.66-0.2-1.36-0.41-2.23-0.85c-0.22-0.12-0.38-0.03-0.2,0.24
			C184.47,10.38,184.8,10.95,185.12,11.52z M187.59,7.95c0.76,0.31,1.23,0.65,1.63,1.38c0.45,0.87-0.54,1.23-0.95,0.39
			c-0.21-0.48-0.58-1.01-0.93-1.32C187.04,8.11,187.21,7.81,187.59,7.95z M189.09,7.69c0.57,0.19,1.21,0.54,1.59,1.12
			c0.41,0.71-0.45,1.26-0.9,0.44c-0.21-0.44-0.54-0.82-0.91-1.09C188.55,7.92,188.67,7.59,189.09,7.69z"/>
	</g>
</g>
<rect x="151.58" y="3.19" class="st1" width="49.01" height="23.62"/>
<g>
	<g>
		<g>
			<path class="st0" d="M231.75,15.44h-6.25v6.84c0,0.27-0.18,0.44-0.44,0.44h-0.68c-0.27,0-0.44-0.18-0.44-0.44v-6.84h-6.25
				c-0.26,0-0.44-0.18-0.44-0.44v-0.56c0-0.27,0.18-0.44,0.44-0.44h6.25V7.34c0-0.27,0.18-0.44,0.44-0.44h0.68
				c0.27,0,0.44,0.18,0.44,0.44V14h6.25c0.26,0,0.44,0.18,0.44,0.44V15C232.19,15.27,232.01,15.44,231.75,15.44z"/>
		</g>
	</g>
	<g>
		<g>
			<path class="st0" d="M396.37,18.03c0.11,3.7-5.79,3.06-5.79,0.6c0-1.6,2.31-2.18,4.83-1.76c0-6.99,0-7.39-0.92-7.89
				c-0.79-0.4-0.3-0.85,0.63-0.51c1.17,0.45,1.05,0.88,1.04,3.63c0.45,0.13,1.09,0.17,1.96-0.14c1.07-0.38,1.04,0.8,0.18,1.06
				c-0.69,0.23-1.48,0.12-2.14-0.07c0,1.06,0.03,2.4,0.13,4.09c1.14,0.3,2.27,0.78,3.2,1.46c1.23,0.88-0.25,1.41-0.99,0.73
				C397.93,18.73,397.18,18.33,396.37,18.03z M395.41,17.86v-0.12c-2.05-0.51-4.09-0.27-4.09,0.89
				C391.32,19.92,395.41,20.52,395.41,17.86z"/>
			<path class="st0" d="M406.17,20.19c2.52-0.22,5.1-1.95,5.35-5.13c0.48-5.83-6.93-5-4.72,0.72c0.43,1.15-0.39,1.46-0.85,0.78
				c-0.33-0.49-0.6-1.35-0.72-2.05c-0.39-2.5,1.12-4.21-0.03-5.64c-0.42-0.51,0.18-0.85,0.78-0.44c1.38,0.96,0.23,2.94,0.03,3.91
				c-0.04,0.2,0.08,0.24,0.15,0.05c1.38-3.48,6.48-2.69,6.22,2.62c-0.18,3.85-3.65,5.73-6.21,5.56
				C405.6,20.55,405.67,20.23,406.17,20.19z"/>
			<path class="st0" d="M424.06,15.82c0.21-0.24,0.5-0.18,0.27,0.23c-0.76,1.4-0.64,3.07,0.57,3.1c3.88,0.07,2.98-5.79-1.4-3.85
				c-0.67,0.3-1.29,0.67-1.86,1.08c0.01,0.71,0.06,1.48,0.12,2.34c0.1,1.54-0.93,2.01-1.54,1.08c-0.41-0.6-0.86-1.05-1.3-1.35
				c-0.42,0.27-0.8,0.45-1.14,0.45c-1.29,0-1.38-1.25,0.02-1.25c0.21,0,0.52,0.09,0.85,0.21c0.6-0.39,1.42-1.02,2.33-1.65
				c0.01-0.92,0.01-1.81,0-2.65c-1.25,0.42-2.16,0.45-2.91-0.36c-0.33-0.38-0.12-0.61,0.25-0.4c0.93,0.56,1.51,0.54,2.64,0.03
				c-0.04-1.71-0.19-3.01-0.58-3.28c-0.57-0.39-0.3-1.11,0.62-0.58c0.67,0.38,0.78,0.81,0.75,1.9c0.36,0.24,0.76,0.41,1.28,0.47
				c1.14,0.16,1.15,0.96,0.13,1.38c-0.55,0.22-1.05,0.44-1.51,0.61c-0.02,0.69-0.03,1.5-0.02,2.46c0.58-0.39,1.19-0.75,1.77-1.05
				c5.46-2.71,7.02,5.34,1.45,5.14C422.72,19.8,423.19,16.86,424.06,15.82z M417.76,18.28c0.12,0,0.27-0.06,0.48-0.18
				c-0.18-0.04-0.34-0.07-0.5-0.07C417.34,18.03,417.26,18.3,417.76,18.28z M420.43,18.73c0.24,0.15,0.54,0.24,0.54-0.21v-1.65
				c-0.6,0.47-1.14,0.93-1.63,1.29C419.86,18.42,420.31,18.67,420.43,18.73z M422.23,12.18c0.27-0.14,0.25-0.27,0-0.44
				c-0.18-0.12-0.34-0.27-0.51-0.41l-0.06,1.14L422.23,12.18z M429.05,11.89c0.72,0.78-0.18,1.63-0.87,0.69
				c-0.45-0.66-1.46-1.25-2.43-0.45c-0.36,0.3-0.42,0.03-0.24-0.22C426.26,10.87,428.09,10.89,429.05,11.89z"/>
			<path class="st0" d="M439.87,19.93c1.74,0,4.05,0,5.86-0.06c0.15,0,0.23,0.04,0.23,0.1s-0.06,0.1-0.2,0.15
				c-0.25,0.09-0.43,0.3-0.51,0.57c-0.04,0.12-0.12,0.19-0.25,0.19h-5.12c-2.77,0-4.02-0.34-5.1-2.05
				c-0.52,0.66-1.39,1.54-1.92,2.02c0.01,0.06,0.01,0.12,0.01,0.15c-0.03,0.17-0.22,0.12-0.3-0.02l-0.45-0.78
				c-0.08-0.12-0.05-0.23,0.09-0.3c0.51-0.25,1.2-0.66,1.86-1.06v-4.48h-1.71c-0.13,0-0.22-0.07-0.24-0.21
				c-0.03-0.15,0.06-0.22,0.21-0.22h1.53l0.45-0.58c0.09-0.12,0.2-0.14,0.32-0.03l0.88,0.75c0.12,0.1,0.13,0.24-0.02,0.3
				c-0.12,0.06-0.28,0.1-0.51,0.14v4.03C436.06,19.75,437.25,19.93,439.87,19.93z M432.66,8.04c3.22,1.21,2.61,3.42,1.61,2.9
				c-0.11-0.06-0.14-0.14-0.17-0.24c-0.23-0.82-0.93-1.78-1.59-2.41c-0.12-0.12-0.17-0.21-0.11-0.24
				C432.46,7.99,432.54,7.99,432.66,8.04z M444.73,15.42c0.23,0.18,0.62,0.49,0.95,0.78c0.11,0.09,0.15,0.21,0.04,0.3
				c-0.08,0.05-0.17,0.08-0.29,0.08h-9.42c-0.14,0-0.23-0.08-0.25-0.19c-0.03-0.15,0.04-0.24,0.19-0.24h2.52v-1.78h-1.85
				c-0.13,0-0.22-0.08-0.25-0.2c-0.03-0.15,0.04-0.24,0.2-0.24h1.91v-1.15c0-0.15,0.09-0.23,0.24-0.21l0.79,0.08
				c0.17,0.02,0.29,0.15,0.15,0.25c-0.06,0.04-0.13,0.08-0.24,0.1v0.93h2.24v-1.15c0-0.15,0.09-0.23,0.24-0.21l0.8,0.08
				c0.16,0.02,0.27,0.15,0.15,0.25c-0.06,0.04-0.15,0.08-0.25,0.1v0.93h0.78l0.5-0.6c0.09-0.1,0.19-0.13,0.31-0.04
				c0.21,0.17,0.55,0.45,0.84,0.71c0.11,0.09,0.15,0.21,0.04,0.3c-0.07,0.04-0.18,0.08-0.29,0.08h-2.19v1.78h1.29l0.54-0.67
				C444.51,15.36,444.61,15.33,444.73,15.42z M436.12,19.02c1.04-0.54,2.1-1.41,2.67-2.08c0.09-0.1,0.2-0.15,0.32-0.07l0.87,0.46
				c0.15,0.09,0.2,0.27,0.02,0.3c-0.12,0.02-0.25,0.02-0.44-0.01c-0.73,0.58-2.02,1.29-3.33,1.68c-0.14,0.04-0.21,0.02-0.25-0.06
				C435.94,19.15,435.99,19.09,436.12,19.02z M436.15,8.47c-0.04-0.17,0.04-0.25,0.2-0.25h2.56l0.33-0.35
				c0.09-0.1,0.21-0.12,0.31-0.03l0.68,0.51c0.13,0.1,0.15,0.24,0,0.3c-0.08,0.04-0.2,0.09-0.32,0.1v1.6c0,0.1-0.45,0.31-0.75,0.31
				c-0.08,0-0.13-0.09-0.13-0.23V10.2h-1.92v1.2c0,0.15,0.03,0.19,0.41,0.19h0.96c0.43,0,0.79,0,0.93-0.01
				c0.1,0,0.17-0.02,0.22-0.09c0.06-0.1,0.15-0.33,0.24-0.6c0.04-0.14,0.09-0.2,0.15-0.2c0.06,0,0.09,0.09,0.1,0.23l0.03,0.57
				c0.29,0.09,0.38,0.17,0.38,0.33c0,0.36-0.39,0.48-2.08,0.48h-1.12c-0.92,0-1.05-0.19-1.05-0.76V9.6c0-0.17,0.12-0.24,0.27-0.17
				l0.77,0.33h1.72V8.65h-2.62C436.29,8.65,436.2,8.61,436.15,8.47z M441.66,16.14v-1.78h-2.24v1.78H441.66z M440.92,8.47
				c-0.04-0.17,0.04-0.25,0.2-0.25h2.65l0.33-0.36c0.09-0.1,0.21-0.1,0.32-0.01l0.67,0.51c0.12,0.09,0.13,0.24-0.01,0.31
				c-0.08,0.03-0.18,0.08-0.29,0.09v1.6c-0.02,0.1-0.45,0.31-0.76,0.31c-0.08,0-0.14-0.09-0.14-0.23V10.2h-1.93v1.2
				c0,0.15,0.03,0.19,0.41,0.19h1.05c0.45,0,0.85,0,0.99-0.01c0.11,0,0.17-0.02,0.21-0.09c0.07-0.1,0.18-0.38,0.27-0.67
				c0.04-0.13,0.09-0.19,0.15-0.19c0.06,0,0.1,0.09,0.1,0.23l0.03,0.63c0.29,0.1,0.38,0.18,0.38,0.34c0,0.36-0.39,0.48-2.17,0.48
				h-1.2c-0.93,0-1.08-0.19-1.08-0.76V9.6c0-0.17,0.12-0.24,0.27-0.17l0.76,0.33h1.77V8.65h-2.71
				C441.06,8.65,440.97,8.61,440.92,8.47z M441.52,17.02c4.87,0.99,3.48,2.91,2.55,2.28c-0.09-0.06-0.12-0.12-0.18-0.19
				c-0.48-0.57-1.33-1.23-2.49-1.81c-0.14-0.06-0.18-0.14-0.15-0.21C441.28,17.01,441.37,16.99,441.52,17.02z"/>
			<path class="st0" d="M452.82,10.75c0.09-0.09,0.01-0.17-0.12-0.09c-0.71,0.4-1.59,0.4-2.15,0.09c-0.61-0.34-0.52-1.02,0.11-0.71
				c0.55,0.26,1.41,0.15,2.47-0.46c1-0.58,1.41,0.42,0.74,0.98c-4,3.25-4.84,8.95-0.66,8.95c5.49,0,4.21-7.47,3.21-9.85
				c-0.36-0.83,0.63-1.05,0.9-0.33c0.84,2.08,1.85,3.03,3.06,3.99c0.85,0.67,0.19,1.5-0.6,0.87c-0.63-0.5-1.57-1.6-1.99-2.5
				c-0.08-0.15-0.2-0.12-0.15,0.04c1.12,4.71-0.53,8.77-4.51,8.77C449.14,20.5,448.21,15.51,452.82,10.75z M458.47,9.42
				c0.78,0.31,1.25,0.65,1.65,1.38c0.45,0.87-0.56,1.23-0.95,0.39c-0.21-0.48-0.58-1-0.95-1.32C457.92,9.58,458.1,9.28,458.47,9.42z
				 M459.97,9.16c0.58,0.19,1.23,0.54,1.59,1.12c0.42,0.71-0.45,1.26-0.88,0.44c-0.23-0.44-0.55-0.83-0.92-1.1
				C459.45,9.39,459.55,9.06,459.97,9.16z"/>
			<path class="st0" d="M467.61,19.33c0,0.72-0.17,1.29-1.37,1.47c-0.15,0.03-0.22-0.04-0.25-0.2c-0.06-0.19-0.13-0.39-0.28-0.51
				c-0.21-0.17-0.54-0.27-1.11-0.38c-0.13-0.02-0.21-0.08-0.21-0.15c0-0.06,0.09-0.1,0.24-0.09c0.43,0.03,1.39,0.1,1.63,0.1
				c0.29,0,0.38-0.09,0.38-0.32V9.69h-2.08c-0.12,0-0.23-0.06-0.25-0.19c-0.03-0.14,0.04-0.23,0.19-0.23h3.48l0.57-0.73
				c0.09-0.1,0.2-0.14,0.32-0.03c0.22,0.18,0.63,0.53,0.96,0.83c0.1,0.09,0.15,0.21,0.04,0.29c-0.08,0.04-0.18,0.07-0.3,0.07h-1.95
				V19.33z M468.66,20.95c1.26-0.63,2.7-1.59,3.5-2.5c0.09-0.1,0.2-0.14,0.32-0.06l0.82,0.52c0.14,0.09,0.17,0.27,0.02,0.27
				c-0.08,0-0.17-0.02-0.27-0.06c-0.94,0.81-2.71,1.65-4.27,2.1c-0.12,0.04-0.21,0.03-0.25-0.04
				C468.46,21.12,468.51,21.03,468.66,20.95z M477.07,7.84c0.22,0.18,0.64,0.51,0.99,0.82c0.09,0.09,0.13,0.21,0.03,0.3
				c-0.07,0.04-0.17,0.07-0.27,0.07h-3.64c-0.3,0.6-0.66,1.25-0.99,1.69h2.71l0.36-0.4c0.09-0.1,0.21-0.12,0.31-0.03l0.74,0.57
				c0.12,0.09,0.13,0.24,0,0.31c-0.09,0.04-0.2,0.09-0.32,0.1v6.73c-0.01,0.1-0.48,0.33-0.83,0.33c-0.09,0-0.15-0.09-0.15-0.23
				v-0.41h-4.68v0.51c0,0.1-0.39,0.34-0.81,0.34c-0.1,0-0.17-0.09-0.17-0.22v-7.81c0-0.17,0.12-0.24,0.27-0.17l0.78,0.36h1.31
				c0.1-0.46,0.21-1.12,0.27-1.69h-3.21c-0.13,0-0.21-0.07-0.24-0.19c-0.05-0.17,0.04-0.25,0.19-0.25h6.43l0.58-0.72
				C476.85,7.75,476.95,7.75,477.07,7.84z M471.34,12.87h4.68v-1.7h-4.68V12.87z M476.02,15.04V13.3h-4.68v1.74H476.02z
				 M476.02,15.49h-4.68v1.79h4.68V15.49z M474.43,18.42c3.97,0.87,3.85,3.06,2.76,2.76c-0.11-0.03-0.15-0.08-0.21-0.18
				c-0.54-0.78-1.71-1.74-2.67-2.34c-0.13-0.08-0.18-0.15-0.13-0.21C474.22,18.4,474.3,18.39,474.43,18.42z"/>
			<path class="st0" d="M482.2,9.49c-0.66-1,0.09-1.59,0.79-0.6c0.83,1.14-0.62,5.52-0.9,7.2c-0.1,0.57,0.24,0.73,0.42,0.06
				c0.33-1.12,0.76-2.13,1.36-3.04c0.25-0.4,0.5-0.27,0.33,0.15c-0.51,1.35-1.54,4.29-1.2,5.62c0.47,1.67-0.48,1.95-1.12,0.55
				c-0.45-1.02-0.73-2.2-0.49-3.4C482.13,12.43,482.67,10.21,482.2,9.49z M486.22,20.37c2.49-1.71,3.24-3.82,3.11-7.42
				c-0.92,0.08-1.8,0.03-2.64-0.15c-0.49-0.12-0.42-0.52,0.03-0.5c0.98,0.09,1.79,0.04,2.57-0.1c-0.14-2.73-0.06-3.01-0.47-3.34
				c-0.75-0.63-0.43-1.06,0.38-0.78c0.74,0.28,0.89,0.96,0.96,2.1c0.6,0.48,1.12,0.75,1.56,0.96c0.81,0.38,0.85,1.05,0.03,1.32
				c-0.5,0.15-0.98,0.29-1.46,0.36c0.15,4.84-1.83,6.91-3.87,7.95C485.98,20.98,485.83,20.64,486.22,20.37z M490.24,11.94
				c0.22-0.08,0.46-0.15,0.71-0.25c0.19-0.09,0.19-0.21,0-0.33c-0.3-0.19-0.54-0.36-0.77-0.56
				C490.2,11.14,490.21,11.53,490.24,11.94z"/>
			<path class="st0" d="M502.36,18.55c-0.39,2.59-4.98,2.52-4.98,0.33c0-1.5,2.13-1.86,4.12-1.48c0.01-0.93,0.03-1.79,0.04-2.56
				c-1.3,0.04-2.55-0.18-3.6-0.68c-0.51-0.25-0.39-0.69,0.17-0.49c1.03,0.36,2.2,0.45,3.45,0.36c0.02-0.73,0.03-1.4,0.03-1.96
				c-2.33,0.38-3.3,0.09-4.3-0.6c-0.55-0.4-0.36-0.77,0.21-0.5c0.99,0.47,2.21,0.69,4.06,0.29c-0.04-1.05-0.21-1.75-0.57-2.11
				c-0.36-0.38-0.36-1.08,0.76-0.5c0.74,0.39,0.79,0.9,0.72,2.38c0.6-0.18,1.26-0.4,2-0.71c0.97-0.4,1.92,0.58,0.92,0.87
				c-1.11,0.3-2.04,0.52-2.83,0.69c0.54,0.63,1.44,1.2,2.4,1.29c0.63,0.04,0.8,0.66,0.02,0.96c-0.84,0.33-1.74,0.54-2.62,0.65
				c-0.01,0.82,0,1.77,0.03,2.83c0.79,0.24,1.51,0.6,1.99,1.03c1.16,1.06,0.29,1.83-0.31,1.19
				C503.56,19.29,502.97,18.87,502.36,18.55z M501.5,18.19c-1.79-0.6-3.48-0.29-3.48,0.65C498.02,20.22,501.46,20.17,501.5,18.19z
				 M503.74,13.71c0.24-0.04,0.25-0.23,0.02-0.35c-0.5-0.25-0.96-0.58-1.33-1.05c-0.03,0.46-0.04,1-0.06,1.62
				C502.81,13.89,503.27,13.8,503.74,13.71z"/>
			<path class="st0" d="M511.03,11.26c1.23,0.54,3.29,0,6.03-0.35c-0.06-0.81-0.18-1.53-0.4-1.95c-0.5-0.95-0.06-1.14,0.67-0.71
				c0.29,0.18,0.42,0.38,0.5,0.65c1.84,1.24,3.04,1.86,4.75,2.35c0.79,0.22,0.72,0.92-0.15,0.76c-1.8-0.33-3.34-0.42-4.65-0.38
				c-0.02,0.65-0.02,1.43,0.04,2.37c0.13,0.29,0.21,0.63,0.24,1.02c0.12,1.8,0.03,5.22-2.82,5.94c-0.43,0.12-0.53-0.22-0.12-0.39
				c1.67-0.69,2.07-2.06,2.1-3.48c-0.93,0.88-2.49,0.5-2.68-1.95c-0.15-1.95,1.49-2.67,2.58-1.97c0-0.49,0-1.02-0.03-1.51
				c-3.09,0.18-4.83,1.02-5.94,0.63C509.83,11.86,510.18,10.9,511.03,11.26z M517.14,15.3l-0.03-0.3c-0.17-1.86-2.06-1.83-1.98,0.12
				C515.19,17.29,517.02,17.05,517.14,15.3z M520.03,10.95c0.18,0.01,0.15-0.14,0.03-0.21c-0.38-0.22-1.41-0.76-2.17-1.24
				c-0.01,0.34-0.04,0.84-0.08,1.36C518.67,10.86,519.19,10.87,520.03,10.95z"/>
		</g>
	</g>
	<g>
		<g>
			<path class="st0" d="M303.98,16.27c0-2.73,1.83-4.09,3.69-4.09c1.81,0,3.67,1.36,3.67,4.09c0,2.71-1.83,4.03-3.67,4.03
				C305.81,20.31,303.98,18.99,303.98,16.27z M310.08,16.27c0-2.23-0.92-3.5-2.42-3.5c-1.52,0-2.42,1.26-2.42,3.5
				c0,2.25,0.9,3.43,2.42,3.43C309.17,19.71,310.08,18.52,310.08,16.27z"/>
			<path class="st0" d="M318.87,12.18c0.42,0,0.84,0.16,1.06,0.42c0.06,0.07,0.08,0.17,0.08,0.27c-0.04,0.55-0.3,0.87-0.84,0.87
				c-0.38,0-0.66-0.18-0.96-0.44L318,13.12c-0.71,0.46-1.18,1.15-1.56,2.19v1.36c0,0.77,0.01,1.9,0.03,2.75l1.17,0.17
				c0.14,0.01,0.21,0.1,0.21,0.24v0.04c0,0.14-0.09,0.23-0.23,0.23h-3.38c-0.13,0-0.22-0.09-0.22-0.23v-0.04
				c0-0.13,0.08-0.23,0.21-0.24l1.02-0.15c0.03-0.84,0.04-1.99,0.04-2.76v-0.82c0-0.96-0.03-1.58-0.06-2.28l-1.12-0.09
				c-0.13-0.02-0.21-0.09-0.21-0.23v-0.07c0-0.12,0.06-0.21,0.18-0.26l1.82-0.67c0.1-0.04,0.19-0.04,0.27,0.02
				c0.08,0.04,0.11,0.13,0.12,0.24l0.13,1.8C316.97,12.99,317.93,12.18,318.87,12.18z"/>
		</g>
	</g>
	<g>
		<g>
			<path class="st0" d="M262.34,9.04c-0.03-0.15,0.04-0.25,0.2-0.25h4.38l0.52-0.66c0.09-0.1,0.2-0.13,0.32-0.04
				c0.22,0.18,0.6,0.5,0.92,0.78c0.09,0.09,0.13,0.21,0.04,0.3c-0.08,0.04-0.17,0.08-0.29,0.08h-5.85
				C262.45,9.24,262.37,9.16,262.34,9.04z M268.55,18.33c-1.25,0.51-2.96,1.17-5.26,1.98c-0.04,0.09-0.09,0.18-0.15,0.25
				c-0.1,0.09-0.24,0.03-0.3-0.09l-0.45-0.84c-0.08-0.14-0.01-0.26,0.13-0.29c0.72-0.12,1.85-0.36,3.15-0.65
				c0.3-0.9,0.62-2.07,0.81-2.98c0.03-0.15,0.12-0.21,0.27-0.17l0.96,0.24c0.15,0.04,0.25,0.19,0.1,0.28
				c-0.09,0.06-0.22,0.1-0.39,0.09c-0.29,0.7-0.79,1.63-1.28,2.43l2.33-0.52c0.13-0.03,0.23-0.02,0.24,0.06
				C268.73,18.21,268.68,18.28,268.55,18.33z M266.94,15.04v-0.38h-3.04v0.36c0,0.09-0.36,0.29-0.74,0.29
				c-0.08,0-0.13-0.09-0.13-0.23v-4.17c0-0.17,0.1-0.24,0.27-0.17l0.67,0.29h2.85l0.34-0.38c0.09-0.1,0.21-0.1,0.31-0.02l0.72,0.54
				c0.12,0.09,0.13,0.24,0,0.31c-0.11,0.04-0.23,0.09-0.35,0.12v3.31c-0.01,0.1-0.46,0.33-0.76,0.33h-0.08
				C266.97,15.27,266.94,15.18,266.94,15.04z M263.76,15.72c2.04,1.52,1.19,3.18,0.41,2.59c-0.09-0.07-0.12-0.15-0.12-0.27
				c-0.01-0.71-0.25-1.53-0.54-2.15c-0.06-0.14-0.06-0.23,0.02-0.25C263.58,15.61,263.66,15.64,263.76,15.72z M266.94,11.49h-3.04
				v2.75h3.04V11.49z M267.06,20.92c1.4-0.54,2.94-1.46,3.81-2.4c0.09-0.11,0.21-0.12,0.31-0.05l0.78,0.48
				c0.15,0.09,0.18,0.29,0.01,0.29c-0.09,0-0.18-0.02-0.29-0.04c-0.96,0.85-2.86,1.63-4.54,2.01c-0.14,0.03-0.21,0-0.26-0.07
				C266.87,21.06,266.92,20.98,267.06,20.92z M275.06,7.74c0.24,0.18,0.66,0.52,0.99,0.82c0.09,0.09,0.13,0.21,0.04,0.3
				c-0.08,0.04-0.17,0.07-0.29,0.07h-3.01c-0.3,0.63-0.65,1.32-0.98,1.81h2.24l0.39-0.4c0.09-0.09,0.21-0.1,0.32-0.02l0.73,0.57
				c0.12,0.09,0.14,0.24,0,0.32c-0.1,0.04-0.21,0.07-0.34,0.1V18c0,0.1-0.01,0.2-0.1,0.26c-0.17,0.09-0.47,0.22-0.71,0.22
				c-0.09,0-0.15-0.09-0.15-0.22v-0.41h-3.84v0.44c0,0.1-0.39,0.33-0.79,0.33c-0.1,0-0.17-0.09-0.17-0.23v-7.81
				c0-0.17,0.12-0.24,0.27-0.17l0.76,0.34h0.9c0.11-0.49,0.23-1.21,0.3-1.81h-2.61c-0.13,0-0.21-0.07-0.24-0.19
				c-0.04-0.17,0.04-0.25,0.2-0.25h5.21l0.57-0.71C274.83,7.68,274.94,7.65,275.06,7.74z M270.35,12.96h3.84V11.2h-3.84V12.96z
				 M274.19,15.19v-1.8h-3.84v1.8H274.19z M274.19,15.63h-3.84v1.78h3.84V15.63z M273,18.55c3.55,0.88,3.36,2.97,2.34,2.69
				c-0.12-0.03-0.17-0.1-0.23-0.2c-0.43-0.76-1.42-1.67-2.23-2.25c-0.13-0.09-0.18-0.16-0.13-0.21
				C272.79,18.52,272.87,18.52,273,18.55z"/>
		</g>
	</g>
	<rect x="246.08" y="3.19" class="st1" width="49.01" height="23.62"/>
	<g>
		<g>
			<path class="st0" d="M353.62,8.82c-0.09,0.06-0.23,0.11-0.36,0.14v10.89c0,0.73-0.13,1.2-1.2,1.35
				c-0.15,0.03-0.22-0.04-0.25-0.19c-0.04-0.18-0.12-0.34-0.25-0.45c-0.17-0.15-0.45-0.26-0.92-0.33c-0.13-0.02-0.21-0.08-0.21-0.15
				c0-0.08,0.09-0.12,0.24-0.1c0.39,0.03,1.16,0.09,1.35,0.09c0.27,0,0.33-0.09,0.33-0.31v-3.93h-1.65
				c-0.12,1.88-0.45,3.81-1.53,5.31c-0.09,0.1-0.17,0.15-0.25,0.09s-0.09-0.13-0.03-0.27c0.96-2.15,0.96-4.9,0.96-7.5V8.19
				c0-0.17,0.09-0.25,0.25-0.18l0.84,0.36h1.27l0.33-0.4c0.09-0.12,0.21-0.12,0.32-0.03l0.76,0.58
				C353.75,8.62,353.77,8.74,353.62,8.82z M352.34,12.22h-1.6v1.2c0,0.62,0,1.27-0.03,1.95h1.63V12.22z M350.74,11.79h1.6V8.82h-1.6
				V11.79z M362.99,20.29c0,0.39-0.42,0.58-2.2,0.58h-1.11c-0.97,0-1.18-0.25-1.18-0.97v-7c-0.11,0.1-0.25,0.17-0.56,0.19
				c-0.38,3.1-1.21,6.18-4.27,8.07c-0.12,0.08-0.21,0.08-0.25,0c-0.06-0.09-0.03-0.17,0.09-0.25c1.46-1.14,2.31-2.65,2.83-4.32
				c-0.11,0.12-0.3,0.17-0.51,0.07c-0.11-0.04-0.15-0.12-0.2-0.22c-0.17-0.41-0.5-0.89-0.83-1.27c-0.34,0.63-0.71,1.21-1.11,1.71
				c-0.09,0.11-0.18,0.12-0.25,0.08c-0.08-0.04-0.08-0.13,0-0.25c0.82-1.48,1.5-3.57,1.81-5.71c0.01-0.15,0.12-0.23,0.25-0.19
				l0.9,0.21c0.15,0.03,0.24,0.18,0.12,0.28c-0.09,0.06-0.23,0.1-0.39,0.12c-0.09,0.38-0.19,0.75-0.3,1.12h1.07l0.42-0.42
				c0.09-0.09,0.21-0.1,0.31,0l0.86,0.77v-1.14c0-0.17,0.12-0.24,0.27-0.17l0.79,0.36h1.4l0.3-0.36c0.09-0.12,0.21-0.12,0.31-0.04
				l0.75,0.54c0.14,0.1,0.15,0.24,0,0.3c-0.1,0.06-0.22,0.09-0.36,0.12v3.7c0,0.69-0.11,1.12-0.99,1.27
				c-0.15,0.03-0.22-0.04-0.25-0.19c-0.03-0.18-0.09-0.34-0.2-0.44c-0.12-0.12-0.33-0.22-0.64-0.3c-0.14-0.03-0.21-0.09-0.21-0.17
				c0-0.06,0.09-0.1,0.24-0.09c0.29,0.03,0.77,0.06,0.92,0.06c0.21,0,0.27-0.08,0.27-0.27v-3.71h-1.71v7.32
				c0,0.25,0.06,0.34,0.48,0.34h0.95c0.45,0,0.78,0,0.92-0.03c0.12-0.02,0.2-0.04,0.24-0.18c0.09-0.22,0.24-1.11,0.4-1.95
				c0.02-0.14,0.06-0.21,0.12-0.21c0.06,0,0.09,0.09,0.09,0.23l0.04,2.01C362.92,20.01,362.99,20.11,362.99,20.29z M354.47,11.67
				c-0.27,0.3-0.79,0.39-1,0.09c-0.17-0.3,0-0.63,0.29-0.85c0.38-0.31,0.74-1.15,0.75-1.92c0.01-0.15,0.06-0.22,0.13-0.22
				c0.09,0,0.15,0.06,0.18,0.19c0.06,0.21,0.09,0.4,0.1,0.6h2.73V7.81c0-0.15,0.09-0.22,0.24-0.21l0.88,0.1
				c0.15,0.02,0.27,0.15,0.15,0.26c-0.08,0.04-0.17,0.09-0.3,0.12v1.47h2.64l0.44-0.44c0.1-0.1,0.22-0.1,0.33-0.02l0.74,0.72
				c0.12,0.12,0.11,0.27-0.06,0.3c-0.08,0.02-0.18,0.03-0.32,0.03c-0.34,0.41-0.93,0.96-1.39,1.33c-0.11,0.08-0.18,0.09-0.25,0.05
				c-0.06-0.03-0.08-0.12-0.02-0.26c0.18-0.36,0.38-0.85,0.54-1.27h-6.31C354.97,10.78,354.74,11.37,354.47,11.67z M354.98,14.79
				c1.03,0.4,1.44,0.94,1.48,1.35c0.27-1,0.44-2.08,0.54-3.18h-1.3C355.49,13.6,355.25,14.22,354.98,14.79z"/>
		</g>
	</g>
	<rect x="331.58" y="3.19" class="st1" width="49.01" height="23.62"/>
</g>
<rect x="57.46" y="3.19" class="st1" width="86.71" height="23.62"/>
<g>
	<g>
		<path class="st0" d="M69.43,18.88c-0.35,0.44-0.71,0.78-1.14,0.92c-0.85,0.25-2.34-0.56-0.88-1.08c2.25-0.81,2.94-2.5,5.1-3.5
			c-0.9-2.01-1.33-3.19,0.57-3.7c1.23-0.33,0.09-1.74-0.51-2.27c-0.45-0.4-0.12-0.65,0.31-0.38c3.12,2,2.34,3.24,0.88,3.15
			c-1.63-0.1-1.74,0.6-0.58,2.94c3.11-0.94,6.69,1.29,6.69,3.72c0,1.59-1.31,1.56-1.31,0.44c0-3.13-2.49-4.33-5.14-3.67
			c0.38,0.72,0.86,1.59,1.42,2.61c1.28,2.33-1.23,2.88-2.42,1.86C71.7,19.3,70.68,19.02,69.43,18.88z M72.58,19.21
			c0.66,0.24,1.54,0,1.26-0.8c-0.36-1.03-0.76-1.96-1.14-2.76c-1.49,0.58-2.28,1.89-3.01,2.88C70.77,18.69,72,19,72.58,19.21z"/>
		<path class="st0" d="M84.27,15.03c-0.24-0.33-0.34-0.81-0.12-1.26c1.54-3.02,3.32-4.02,3.12-5c-0.13-0.7,0.34-0.81,0.66-0.4
			c0.42,0.54,0.66,1.4-0.18,2c-1.02,0.76-2.49,2.31-3.04,3.66c-0.1,0.24-0.1,0.45,0.11,0.69c1.8,2.1,2.71,3.17,3.21,5.5
			c0.2,0.99-0.86,1.19-1.08,0.17C86.39,18,85.56,16.69,84.27,15.03z"/>
		<path class="st0" d="M96.53,20.28c9.75,0.07,6.63-10.03-0.08-3.29c-1.08,1.08-2.16,0.52-2.08-0.75c0.06-1.11,0.32-2.86,0.51-4.18
			c0.2-1.32,1.47-1.41,2.79-1.59c0.21-0.03,0.21-0.21,0.12-0.33c-0.39-0.58-0.85-0.85-1.53-1.12c-0.46-0.2-0.27-0.45,0-0.45
			c1.68,0.06,2.16,0.5,2.62,1.23c0.63,0.96,0.33,1.68-0.85,1.37c-1.92-0.53-2.34,0.03-2.43,0.9c-0.04,0.4-0.27,2.38-0.42,3.36
			c-0.12,0.99,0.55,0.79,1.14,0.39c8.55-6.12,10.65,5.48,0.18,4.81C96.02,20.59,96.07,20.26,96.53,20.28z"/>
		<path class="st0" d="M108.91,10.44c-0.67-0.93,0.03-1.4,0.74-0.5c0.81,1.05-0.46,4.77-0.75,6.3c-0.11,0.54,0.24,0.71,0.42,0.09
			c0.27-1.02,0.76-2.01,1.26-2.82c0.22-0.37,0.48-0.22,0.33,0.14c-0.51,1.25-1.56,3.93-1.2,5.14c0.46,1.52-0.6,1.83-1.12,0.51
			c-0.36-0.92-0.54-2-0.29-3.09C109.03,12.96,109.36,11.08,108.91,10.44z M117.01,18.31c-0.09,2.45-4.79,2.6-4.79,0.3
			c0-1.56,2.04-1.9,3.95-1.47c0.03-1.02,0.04-2.56,0.03-4c-0.98,0.03-2.03-0.3-2.91-1.11c-0.38-0.34-0.17-0.66,0.32-0.38
			c0.88,0.53,1.78,0.71,2.58,0.66c-0.04-1.46-0.15-2.7-0.39-3.01c-0.57-0.78-0.08-1.02,0.51-0.68c0.9,0.56,0.93,0.9,0.81,2.31
			c0.28,0.18,0.57,0.3,1.06,0.4c0.86,0.15,0.83,0.77-0.2,1.32c-0.31,0.18-0.66,0.3-1.02,0.39c-0.04,1.08-0.08,2.48,0,4.32
			c0.83,0.27,1.54,0.69,2.01,1.21c0.84,0.98,0.15,1.91-0.75,0.75C117.91,18.91,117.47,18.58,117.01,18.31z M116.15,17.95v-0.01
			c-1.61-0.57-3.35-0.35-3.35,0.75C112.81,19.92,116.11,19.84,116.15,17.95z M117.61,11.94c0.12-0.08,0.09-0.19-0.04-0.29
			c-0.18-0.12-0.34-0.24-0.48-0.36l-0.08,0.89C117.22,12.12,117.43,12.03,117.61,11.94z"/>
		<path class="st0" d="M129.54,16.54c0.38,0.1,0.52-0.02,0.41-0.33c-0.26-0.72-0.51-1.42-0.75-2.07c-1.74,0.45-3.63,0.54-4.98-0.42
			c-0.48-0.35-0.13-0.65,0.3-0.44c1.43,0.75,3,0.6,4.43,0.15c-0.29-0.73-0.56-1.41-0.83-2c-1.12,0.18-2.25,0.1-2.91-0.19
			c-0.46-0.23-0.27-0.62,0.12-0.48c0.85,0.3,1.7,0.18,2.42-0.08c-0.44-0.81-0.9-1.36-1.38-1.56c-1.08-0.44-0.69-0.96,0.31-0.72
			c0.79,0.18,1.12,0.52,1.79,2c0.32-0.14,0.58-0.27,0.81-0.38c0.74-0.33,1.62,0.24,0.72,0.76c-0.23,0.14-0.46,0.24-0.74,0.33
			c1.04,0.3,2.45,0.56,3.08,0.65c0.66,0.08,0.84,0.67,0.22,1.02c-0.69,0.39-1.6,0.79-2.59,1.12c0.3,0.67,0.63,1.44,1,2.31
			c0.55,1.24-0.43,1.92-1.23,1.36c-3.99-2.79-8.21,2.96-0.5,1.95c1.29-0.17,1.78,0.96,0.58,1.08
			C121.68,21.43,123.3,14.91,129.54,16.54z M129.65,13.18c0.56-0.21,1.05-0.45,1.52-0.69c0.19-0.1,0.22-0.27-0.09-0.38
			c-0.6-0.17-1.47-0.42-2.18-0.71L129.65,13.18z M131.51,8.91c0.78,0.31,1.25,0.63,1.65,1.36c0.45,0.87-0.54,1.25-0.94,0.41
			c-0.21-0.5-0.58-1.02-0.95-1.33C130.95,9.06,131.13,8.76,131.51,8.91z M133.01,8.65c0.58,0.18,1.23,0.52,1.6,1.12
			c0.41,0.69-0.46,1.25-0.9,0.42c-0.23-0.42-0.54-0.83-0.92-1.1C132.48,8.86,132.6,8.53,133.01,8.65z"/>
	</g>
</g>
</svg>
