<?xml version="1.0" encoding="utf-8"?>
<!-- Generator: Adobe Illustrator 25.4.1, SVG Export Plug-In . SVG Version: 6.00 Build 0)  -->
<svg version="1.1" id="レイヤー_1" xmlns="http://www.w3.org/2000/svg" xmlns:xlink="http://www.w3.org/1999/xlink" x="0px"
	 y="0px" viewBox="0 0 750 30" style="enable-background:new 0 0 750 30;" xml:space="preserve">
<style type="text/css">
	.st0{fill:#463243;}
	.st1{fill:none;stroke:#463243;stroke-miterlimit:10;}
</style>
<g>
	<g>
		<g>
			<path class="st0" d="M230.27,15.44h-6.25v6.84c0,0.27-0.18,0.44-0.44,0.44h-0.68c-0.27,0-0.44-0.18-0.44-0.44v-6.84h-6.25
				c-0.26,0-0.44-0.18-0.44-0.44v-0.56c0-0.27,0.18-0.44,0.44-0.44h6.25V7.34c0-0.27,0.18-0.44,0.44-0.44h0.68
				c0.27,0,0.44,0.18,0.44,0.44V14h6.25c0.27,0,0.44,0.18,0.44,0.44V15C230.71,15.27,230.54,15.44,230.27,15.44z"/>
		</g>
	</g>
	<g>
		<g>
			<path class="st0" d="M496.37,18.03c0.11,3.7-5.79,3.06-5.79,0.6c0-1.6,2.31-2.18,4.83-1.76c0-6.99,0-7.39-0.92-7.89
				c-0.79-0.4-0.3-0.85,0.63-0.51c1.17,0.45,1.05,0.88,1.04,3.63c0.45,0.13,1.09,0.17,1.96-0.14c1.07-0.38,1.04,0.8,0.18,1.06
				c-0.69,0.23-1.48,0.12-2.14-0.07c0,1.06,0.03,2.4,0.13,4.09c1.14,0.3,2.27,0.78,3.2,1.46c1.23,0.88-0.25,1.41-0.99,0.73
				C497.93,18.73,497.18,18.33,496.37,18.03z M495.41,17.86v-0.12c-2.05-0.51-4.09-0.27-4.09,0.89
				C491.32,19.92,495.41,20.52,495.41,17.86z"/>
			<path class="st0" d="M506.16,20.19c2.52-0.22,5.1-1.95,5.35-5.13c0.48-5.83-6.93-5-4.72,0.72c0.43,1.15-0.39,1.46-0.85,0.78
				c-0.33-0.49-0.6-1.35-0.72-2.05c-0.39-2.5,1.12-4.21-0.03-5.64c-0.42-0.51,0.18-0.85,0.78-0.44c1.38,0.96,0.23,2.94,0.03,3.91
				c-0.04,0.2,0.08,0.24,0.15,0.05c1.38-3.48,6.48-2.69,6.22,2.62c-0.18,3.85-3.65,5.73-6.21,5.56
				C505.59,20.55,505.67,20.23,506.16,20.19z"/>
			<path class="st0" d="M525.43,19.26v0.61c0,0.14-0.09,0.23-0.22,0.23h-6.99c-0.13,0-0.22-0.09-0.22-0.23v-0.39
				c0-0.11,0.03-0.21,0.1-0.29l3.41-3.72c1.39-1.49,1.92-2.43,1.92-3.84c0-1.38-0.79-2.48-2.33-2.48c-0.51,0-0.94,0.08-1.42,0.29
				l-0.45,1.06c-0.19,0.54-0.42,0.73-0.73,0.73c-0.21,0-0.39-0.09-0.53-0.27c-0.08-0.09-0.08-0.18-0.04-0.29
				c0.45-1.33,1.91-2.07,3.57-2.07c2.2,0,3.31,1.26,3.31,3.04c0,1.36-0.81,2.49-2.55,4.02l-3.3,3.34h6.25
				C525.35,19.03,525.43,19.12,525.43,19.26z"/>
			<path class="st0" d="M534.58,18.88c8.73-1.56,5.8-11.14-1.42-4.21c-0.9,0.85-1.96,0.84-2.65,0.44c-1.31-0.74-0.9-1.2-0.36-1.05
				c0.96,0.23,1.46,0.21,2.75-0.69c9.04-6.21,11.67,5.11,1.69,5.9C534.14,19.29,534.16,18.96,534.58,18.88z"/>
			<path class="st0" d="M551.52,15.82c0.21-0.24,0.5-0.18,0.27,0.23c-0.76,1.4-0.64,3.07,0.57,3.1c3.88,0.07,2.98-5.79-1.4-3.85
				c-0.67,0.3-1.29,0.67-1.86,1.08c0.01,0.71,0.06,1.48,0.12,2.34c0.1,1.54-0.93,2.01-1.54,1.08c-0.41-0.6-0.86-1.05-1.31-1.35
				c-0.42,0.27-0.79,0.45-1.14,0.45c-1.29,0-1.38-1.25,0.02-1.25c0.21,0,0.52,0.09,0.85,0.21c0.6-0.39,1.42-1.02,2.33-1.65
				c0.01-0.92,0.01-1.81,0-2.65c-1.25,0.42-2.16,0.45-2.91-0.36c-0.33-0.38-0.12-0.61,0.25-0.4c0.93,0.56,1.51,0.54,2.64,0.03
				c-0.04-1.71-0.19-3.01-0.58-3.28c-0.57-0.39-0.3-1.11,0.62-0.58c0.67,0.38,0.78,0.81,0.75,1.9c0.36,0.24,0.76,0.41,1.28,0.47
				c1.14,0.16,1.15,0.96,0.13,1.38c-0.55,0.22-1.05,0.44-1.51,0.61c-0.02,0.69-0.03,1.5-0.02,2.46c0.58-0.39,1.19-0.75,1.77-1.05
				c5.46-2.71,7.02,5.34,1.45,5.14C550.18,19.8,550.65,16.86,551.52,15.82z M545.22,18.28c0.12,0,0.27-0.06,0.48-0.18
				c-0.18-0.04-0.34-0.07-0.5-0.07C544.8,18.03,544.72,18.3,545.22,18.28z M547.89,18.73c0.24,0.15,0.54,0.24,0.54-0.21v-1.65
				c-0.6,0.47-1.14,0.93-1.63,1.29C547.32,18.42,547.77,18.67,547.89,18.73z M549.69,12.18c0.27-0.14,0.25-0.27,0-0.44
				c-0.18-0.12-0.34-0.27-0.51-0.41l-0.06,1.14L549.69,12.18z M556.51,11.89c0.72,0.78-0.18,1.63-0.87,0.69
				c-0.45-0.66-1.46-1.25-2.43-0.45c-0.36,0.3-0.42,0.03-0.24-0.22C553.72,10.87,555.55,10.89,556.51,11.89z"/>
			<path class="st0" d="M567.34,19.93c1.74,0,4.05,0,5.86-0.06c0.15,0,0.23,0.04,0.23,0.1s-0.06,0.1-0.2,0.15
				c-0.25,0.09-0.43,0.3-0.51,0.57c-0.04,0.12-0.12,0.19-0.25,0.19h-5.12c-2.77,0-4.02-0.34-5.1-2.05
				c-0.52,0.66-1.39,1.54-1.92,2.02c0.01,0.06,0.01,0.12,0.01,0.15c-0.03,0.17-0.22,0.12-0.3-0.02l-0.45-0.78
				c-0.08-0.12-0.05-0.23,0.09-0.3c0.51-0.25,1.2-0.66,1.86-1.06v-4.48h-1.71c-0.13,0-0.22-0.07-0.24-0.21
				c-0.03-0.15,0.06-0.22,0.21-0.22h1.53l0.45-0.58c0.09-0.12,0.2-0.14,0.32-0.03l0.88,0.75c0.12,0.1,0.13,0.24-0.02,0.3
				c-0.12,0.06-0.28,0.1-0.51,0.14v4.03C563.53,19.75,564.71,19.93,567.34,19.93z M560.12,8.04c3.22,1.21,2.61,3.42,1.61,2.9
				c-0.11-0.06-0.14-0.14-0.17-0.24c-0.23-0.82-0.93-1.78-1.59-2.41c-0.12-0.12-0.17-0.21-0.11-0.24
				C559.93,7.99,560,7.99,560.12,8.04z M572.2,15.42c0.23,0.18,0.62,0.49,0.95,0.78c0.11,0.09,0.15,0.21,0.04,0.3
				c-0.08,0.05-0.17,0.08-0.29,0.08h-9.42c-0.14,0-0.23-0.08-0.25-0.19c-0.03-0.15,0.04-0.24,0.19-0.24h2.52v-1.78h-1.85
				c-0.13,0-0.22-0.08-0.25-0.2c-0.03-0.15,0.04-0.24,0.2-0.24h1.91v-1.15c0-0.15,0.09-0.23,0.24-0.21l0.79,0.08
				c0.17,0.02,0.29,0.15,0.15,0.25c-0.06,0.04-0.13,0.08-0.24,0.1v0.93h2.24v-1.15c0-0.15,0.09-0.23,0.24-0.21l0.8,0.08
				c0.16,0.02,0.27,0.15,0.15,0.25c-0.06,0.04-0.15,0.08-0.25,0.1v0.93h0.78l0.5-0.6c0.09-0.1,0.19-0.13,0.31-0.04
				c0.21,0.17,0.55,0.45,0.84,0.71c0.11,0.09,0.15,0.21,0.04,0.3c-0.07,0.04-0.18,0.08-0.29,0.08h-2.19v1.78h1.29l0.54-0.67
				C571.97,15.36,572.08,15.33,572.2,15.42z M563.59,19.02c1.04-0.54,2.1-1.41,2.67-2.08c0.09-0.1,0.2-0.15,0.32-0.07l0.87,0.46
				c0.15,0.09,0.2,0.27,0.02,0.3c-0.12,0.02-0.25,0.02-0.44-0.01c-0.73,0.58-2.02,1.29-3.33,1.68c-0.14,0.04-0.21,0.02-0.25-0.06
				C563.41,19.15,563.45,19.09,563.59,19.02z M563.62,8.47c-0.04-0.17,0.04-0.25,0.2-0.25h2.56l0.33-0.35
				c0.09-0.1,0.21-0.12,0.31-0.03l0.68,0.51c0.13,0.1,0.15,0.24,0,0.3c-0.08,0.04-0.2,0.09-0.32,0.1v1.6c0,0.1-0.45,0.31-0.75,0.31
				c-0.08,0-0.13-0.09-0.13-0.23V10.2h-1.92v1.2c0,0.15,0.03,0.19,0.41,0.19h0.96c0.43,0,0.79,0,0.93-0.01
				c0.1,0,0.17-0.02,0.22-0.09c0.06-0.1,0.15-0.33,0.24-0.6c0.04-0.14,0.09-0.2,0.15-0.2c0.06,0,0.09,0.09,0.1,0.23l0.03,0.57
				c0.29,0.09,0.38,0.17,0.38,0.33c0,0.36-0.39,0.48-2.08,0.48h-1.12c-0.92,0-1.05-0.19-1.05-0.76V9.6c0-0.17,0.12-0.24,0.27-0.17
				l0.77,0.33h1.72V8.65h-2.62C563.75,8.65,563.66,8.61,563.62,8.47z M569.12,16.14v-1.78h-2.24v1.78H569.12z M568.39,8.47
				c-0.04-0.17,0.04-0.25,0.2-0.25h2.65l0.33-0.36c0.09-0.1,0.21-0.1,0.32-0.01l0.67,0.51c0.12,0.09,0.13,0.24-0.01,0.31
				c-0.08,0.03-0.18,0.08-0.29,0.09v1.6c-0.02,0.1-0.45,0.31-0.76,0.31c-0.08,0-0.14-0.09-0.14-0.23V10.2h-1.93v1.2
				c0,0.15,0.03,0.19,0.41,0.19h1.05c0.45,0,0.85,0,0.99-0.01c0.11,0,0.17-0.02,0.21-0.09c0.07-0.1,0.18-0.38,0.27-0.67
				c0.04-0.13,0.09-0.19,0.15-0.19c0.06,0,0.1,0.09,0.1,0.23l0.03,0.63c0.29,0.1,0.38,0.18,0.38,0.34c0,0.36-0.39,0.48-2.17,0.48
				h-1.2c-0.93,0-1.08-0.19-1.08-0.76V9.6c0-0.17,0.12-0.24,0.27-0.17l0.76,0.33h1.77V8.65h-2.71
				C568.52,8.65,568.43,8.61,568.39,8.47z M568.99,17.02c4.87,0.99,3.48,2.91,2.55,2.28c-0.09-0.06-0.12-0.12-0.18-0.19
				c-0.48-0.57-1.33-1.23-2.49-1.81c-0.14-0.06-0.18-0.14-0.15-0.21C568.75,17.01,568.84,16.99,568.99,17.02z"/>
			<path class="st0" d="M580.28,10.75c0.09-0.09,0.01-0.17-0.12-0.09c-0.71,0.4-1.59,0.4-2.15,0.09c-0.61-0.34-0.52-1.02,0.11-0.71
				c0.55,0.26,1.41,0.15,2.47-0.46c1-0.58,1.41,0.42,0.74,0.98c-4,3.25-4.84,8.95-0.66,8.95c5.49,0,4.21-7.47,3.21-9.85
				c-0.36-0.83,0.63-1.05,0.9-0.33c0.84,2.08,1.85,3.03,3.06,3.99c0.85,0.67,0.19,1.5-0.6,0.87c-0.63-0.5-1.57-1.6-1.99-2.5
				c-0.08-0.15-0.2-0.12-0.15,0.04c1.12,4.71-0.53,8.77-4.51,8.77C576.61,20.5,575.68,15.51,580.28,10.75z M585.94,9.42
				c0.78,0.31,1.25,0.65,1.65,1.38c0.45,0.87-0.56,1.23-0.95,0.39c-0.21-0.48-0.58-1-0.95-1.32C585.38,9.58,585.56,9.28,585.94,9.42
				z M587.44,9.16c0.58,0.19,1.23,0.54,1.59,1.12c0.42,0.71-0.45,1.26-0.88,0.44c-0.23-0.44-0.55-0.83-0.92-1.1
				C586.91,9.39,587.02,9.06,587.44,9.16z"/>
			<path class="st0" d="M595.07,19.33c0,0.72-0.17,1.29-1.37,1.47c-0.15,0.03-0.22-0.04-0.25-0.2c-0.06-0.19-0.13-0.39-0.28-0.51
				c-0.21-0.17-0.54-0.27-1.11-0.38c-0.13-0.02-0.21-0.08-0.21-0.15c0-0.06,0.09-0.1,0.24-0.09c0.43,0.03,1.39,0.1,1.63,0.1
				c0.29,0,0.38-0.09,0.38-0.32V9.69h-2.08c-0.12,0-0.23-0.06-0.25-0.19c-0.03-0.14,0.04-0.23,0.19-0.23h3.48L596,8.53
				c0.09-0.1,0.2-0.14,0.32-0.03c0.22,0.18,0.63,0.53,0.96,0.83c0.1,0.09,0.15,0.21,0.04,0.29c-0.08,0.04-0.18,0.07-0.3,0.07h-1.95
				V19.33z M596.12,20.95c1.26-0.63,2.7-1.59,3.5-2.5c0.09-0.1,0.2-0.14,0.32-0.06l0.82,0.52c0.14,0.09,0.17,0.27,0.02,0.27
				c-0.08,0-0.17-0.02-0.27-0.06c-0.94,0.81-2.71,1.65-4.27,2.1c-0.12,0.04-0.21,0.03-0.25-0.04
				C595.93,21.12,595.97,21.03,596.12,20.95z M604.53,7.84c0.22,0.18,0.64,0.51,0.99,0.82c0.09,0.09,0.13,0.21,0.03,0.3
				c-0.07,0.04-0.17,0.07-0.27,0.07h-3.64c-0.3,0.6-0.66,1.25-0.99,1.69h2.71l0.36-0.4c0.09-0.1,0.21-0.12,0.31-0.03l0.74,0.57
				c0.12,0.09,0.13,0.24,0,0.31c-0.09,0.04-0.2,0.09-0.32,0.1v6.73c-0.01,0.1-0.48,0.33-0.83,0.33c-0.09,0-0.15-0.09-0.15-0.23
				v-0.41h-4.68v0.51c0,0.1-0.39,0.34-0.81,0.34c-0.1,0-0.17-0.09-0.17-0.22v-7.81c0-0.17,0.12-0.24,0.27-0.17l0.78,0.36h1.31
				c0.1-0.46,0.21-1.12,0.27-1.69h-3.21c-0.13,0-0.21-0.07-0.24-0.19c-0.05-0.17,0.04-0.25,0.19-0.25h6.43l0.58-0.72
				C604.31,7.75,604.41,7.75,604.53,7.84z M598.81,12.87h4.68v-1.7h-4.68V12.87z M603.48,15.04V13.3h-4.68v1.74H603.48z
				 M603.48,15.49h-4.68v1.79h4.68V15.49z M601.89,18.42c3.97,0.87,3.85,3.06,2.76,2.76c-0.11-0.03-0.15-0.08-0.21-0.18
				c-0.54-0.78-1.71-1.74-2.67-2.34c-0.13-0.08-0.18-0.15-0.13-0.21C601.68,18.4,601.76,18.39,601.89,18.42z"/>
			<path class="st0" d="M609.66,9.49c-0.66-1,0.09-1.59,0.79-0.6c0.83,1.14-0.62,5.52-0.9,7.2c-0.1,0.57,0.24,0.73,0.42,0.06
				c0.33-1.12,0.76-2.13,1.36-3.04c0.25-0.4,0.5-0.27,0.33,0.15c-0.51,1.35-1.54,4.29-1.2,5.62c0.47,1.67-0.48,1.95-1.12,0.55
				c-0.45-1.02-0.73-2.2-0.49-3.4C609.59,12.43,610.13,10.21,609.66,9.49z M613.68,20.37c2.49-1.71,3.24-3.82,3.11-7.42
				c-0.92,0.08-1.8,0.03-2.64-0.15c-0.49-0.12-0.42-0.52,0.03-0.5c0.98,0.09,1.79,0.04,2.57-0.1c-0.14-2.73-0.06-3.01-0.47-3.34
				c-0.75-0.63-0.43-1.06,0.38-0.78c0.74,0.28,0.89,0.96,0.96,2.1c0.6,0.48,1.12,0.75,1.56,0.96c0.81,0.38,0.85,1.05,0.03,1.32
				c-0.5,0.15-0.98,0.29-1.46,0.36c0.15,4.84-1.83,6.91-3.87,7.95C613.44,20.98,613.29,20.64,613.68,20.37z M617.7,11.94
				c0.22-0.08,0.46-0.15,0.71-0.25c0.19-0.09,0.19-0.21,0-0.33c-0.3-0.19-0.54-0.36-0.77-0.56
				C617.66,11.14,617.67,11.53,617.7,11.94z"/>
			<path class="st0" d="M629.82,18.55c-0.39,2.59-4.98,2.52-4.98,0.33c0-1.5,2.13-1.86,4.12-1.48c0.01-0.93,0.03-1.79,0.04-2.56
				c-1.3,0.04-2.55-0.18-3.6-0.68c-0.51-0.25-0.39-0.69,0.17-0.49c1.03,0.36,2.2,0.45,3.45,0.36c0.02-0.73,0.03-1.4,0.03-1.96
				c-2.33,0.38-3.3,0.09-4.3-0.6c-0.55-0.4-0.36-0.77,0.21-0.5c0.99,0.47,2.21,0.69,4.06,0.29c-0.04-1.05-0.21-1.75-0.57-2.11
				c-0.36-0.38-0.36-1.08,0.76-0.5c0.74,0.39,0.79,0.9,0.72,2.38c0.6-0.18,1.26-0.4,2-0.71c0.97-0.4,1.92,0.58,0.92,0.87
				c-1.11,0.3-2.04,0.52-2.83,0.69c0.54,0.63,1.44,1.2,2.4,1.29c0.63,0.04,0.8,0.66,0.02,0.96c-0.84,0.33-1.74,0.54-2.62,0.65
				c-0.01,0.82,0,1.77,0.03,2.83c0.79,0.24,1.51,0.6,1.99,1.03c1.16,1.06,0.29,1.83-0.31,1.19
				C631.02,19.29,630.44,18.87,629.82,18.55z M628.97,18.19c-1.79-0.6-3.48-0.29-3.48,0.65C625.49,20.22,628.92,20.17,628.97,18.19z
				 M631.2,13.71c0.24-0.04,0.25-0.23,0.02-0.35c-0.5-0.25-0.96-0.58-1.33-1.05c-0.03,0.46-0.04,1-0.06,1.62
				C630.27,13.89,630.74,13.8,631.2,13.71z"/>
			<path class="st0" d="M638.5,11.26c1.23,0.54,3.29,0,6.03-0.35c-0.06-0.81-0.18-1.53-0.4-1.95c-0.5-0.95-0.06-1.14,0.67-0.71
				c0.29,0.18,0.42,0.38,0.5,0.65c1.84,1.24,3.04,1.86,4.75,2.35c0.79,0.22,0.72,0.92-0.15,0.76c-1.8-0.33-3.34-0.42-4.65-0.38
				c-0.02,0.65-0.02,1.43,0.04,2.37c0.13,0.29,0.21,0.63,0.24,1.02c0.12,1.8,0.03,5.22-2.82,5.94c-0.43,0.12-0.53-0.22-0.12-0.39
				c1.67-0.69,2.07-2.06,2.1-3.48c-0.93,0.88-2.49,0.5-2.68-1.95c-0.15-1.95,1.49-2.67,2.58-1.97c0-0.49,0-1.02-0.03-1.51
				c-3.09,0.18-4.83,1.02-5.94,0.63C637.3,11.86,637.64,10.9,638.5,11.26z M644.6,15.3l-0.03-0.3c-0.17-1.86-2.06-1.83-1.98,0.12
				C642.65,17.29,644.48,17.05,644.6,15.3z M647.5,10.95c0.18,0.01,0.15-0.14,0.03-0.21c-0.38-0.22-1.41-0.76-2.17-1.24
				c-0.01,0.34-0.04,0.84-0.08,1.36C646.13,10.86,646.66,10.87,647.5,10.95z"/>
		</g>
	</g>
	<g>
		<g>
			<path class="st0" d="M297.22,16.27c0-2.73,1.83-4.09,3.69-4.09c1.81,0,3.67,1.36,3.67,4.09c0,2.71-1.83,4.03-3.67,4.03
				C299.05,20.31,297.22,18.99,297.22,16.27z M303.32,16.27c0-2.23-0.92-3.5-2.42-3.5c-1.52,0-2.42,1.26-2.42,3.5
				c0,2.25,0.9,3.43,2.42,3.43C302.41,19.71,303.32,18.52,303.32,16.27z"/>
			<path class="st0" d="M312.11,12.18c0.42,0,0.84,0.16,1.06,0.42c0.06,0.07,0.08,0.17,0.08,0.27c-0.04,0.55-0.3,0.87-0.84,0.87
				c-0.38,0-0.66-0.18-0.96-0.44l-0.21-0.18c-0.71,0.46-1.18,1.15-1.56,2.19v1.36c0,0.77,0.01,1.9,0.03,2.75l1.17,0.17
				c0.13,0.01,0.21,0.1,0.21,0.24v0.04c0,0.14-0.09,0.23-0.23,0.23h-3.38c-0.13,0-0.22-0.09-0.22-0.23v-0.04
				c0-0.13,0.08-0.23,0.21-0.24l1.02-0.15c0.03-0.84,0.04-1.99,0.04-2.76v-0.82c0-0.96-0.03-1.58-0.06-2.28l-1.12-0.09
				c-0.13-0.02-0.21-0.09-0.21-0.23v-0.07c0-0.12,0.06-0.21,0.18-0.26l1.82-0.67c0.1-0.04,0.19-0.04,0.27,0.02
				c0.08,0.04,0.11,0.13,0.12,0.24l0.13,1.8C310.21,12.99,311.17,12.18,312.11,12.18z"/>
		</g>
	</g>
	<g>
		<g>
			<path class="st0" d="M258.41,9.04c-0.03-0.15,0.04-0.25,0.2-0.25h4.38l0.52-0.66c0.09-0.1,0.2-0.13,0.32-0.04
				c0.22,0.18,0.6,0.5,0.92,0.78c0.09,0.09,0.13,0.21,0.04,0.3c-0.08,0.04-0.17,0.08-0.29,0.08h-5.85
				C258.52,9.24,258.44,9.16,258.41,9.04z M264.62,18.33c-1.25,0.51-2.96,1.17-5.26,1.98c-0.04,0.09-0.09,0.18-0.15,0.25
				c-0.1,0.09-0.24,0.03-0.3-0.09l-0.45-0.84c-0.08-0.14-0.01-0.26,0.13-0.29c0.72-0.12,1.85-0.36,3.15-0.65
				c0.3-0.9,0.62-2.07,0.81-2.98c0.03-0.15,0.12-0.21,0.27-0.17l0.96,0.24c0.15,0.04,0.25,0.19,0.1,0.28
				c-0.09,0.06-0.22,0.1-0.39,0.09c-0.29,0.7-0.79,1.63-1.28,2.43l2.33-0.52c0.13-0.03,0.23-0.02,0.24,0.06
				C264.8,18.21,264.76,18.28,264.62,18.33z M263.02,15.04v-0.38h-3.04v0.36c0,0.09-0.36,0.29-0.74,0.29
				c-0.08,0-0.13-0.09-0.13-0.23v-4.17c0-0.17,0.1-0.24,0.27-0.17l0.67,0.29h2.85l0.34-0.38c0.09-0.1,0.21-0.1,0.31-0.02l0.72,0.54
				c0.12,0.09,0.13,0.24,0,0.31c-0.11,0.04-0.23,0.09-0.35,0.12v3.31c-0.01,0.1-0.46,0.33-0.76,0.33h-0.08
				C263.05,15.27,263.02,15.18,263.02,15.04z M259.84,15.72c2.04,1.52,1.19,3.18,0.41,2.59c-0.09-0.07-0.12-0.15-0.12-0.27
				c-0.01-0.71-0.25-1.53-0.54-2.15c-0.06-0.14-0.06-0.23,0.02-0.25C259.66,15.61,259.73,15.64,259.84,15.72z M263.02,11.49h-3.04
				v2.75h3.04V11.49z M263.14,20.92c1.4-0.54,2.94-1.46,3.81-2.4c0.09-0.11,0.21-0.12,0.31-0.05l0.78,0.48
				c0.15,0.09,0.18,0.29,0.01,0.29c-0.09,0-0.18-0.02-0.29-0.04c-0.96,0.85-2.86,1.63-4.54,2.01c-0.14,0.03-0.21,0-0.26-0.07
				C262.94,21.06,262.99,20.98,263.14,20.92z M271.13,7.74c0.24,0.18,0.66,0.52,0.99,0.82c0.09,0.09,0.13,0.21,0.04,0.3
				c-0.08,0.04-0.17,0.07-0.29,0.07h-3.01c-0.3,0.63-0.65,1.32-0.98,1.81h2.24l0.39-0.4c0.09-0.09,0.21-0.1,0.32-0.02l0.73,0.57
				c0.12,0.09,0.14,0.24,0,0.32c-0.1,0.04-0.21,0.07-0.34,0.1V18c0,0.1-0.01,0.2-0.1,0.26c-0.17,0.09-0.47,0.22-0.71,0.22
				c-0.09,0-0.15-0.09-0.15-0.22v-0.41h-3.84v0.44c0,0.1-0.39,0.33-0.79,0.33c-0.1,0-0.17-0.09-0.17-0.23v-7.81
				c0-0.17,0.12-0.24,0.27-0.17l0.76,0.34h0.9c0.11-0.49,0.23-1.21,0.3-1.81h-2.61c-0.13,0-0.21-0.07-0.24-0.19
				c-0.04-0.17,0.04-0.25,0.2-0.25h5.21l0.57-0.71C270.91,7.68,271.01,7.65,271.13,7.74z M266.42,12.96h3.84V11.2h-3.84V12.96z
				 M270.26,15.19v-1.8h-3.84v1.8H270.26z M270.26,15.63h-3.84v1.78h3.84V15.63z M269.08,18.55c3.55,0.88,3.36,2.97,2.34,2.69
				c-0.12-0.03-0.17-0.1-0.23-0.2c-0.43-0.76-1.42-1.67-2.23-2.25c-0.13-0.09-0.18-0.16-0.13-0.21
				C268.87,18.52,268.94,18.52,269.08,18.55z"/>
		</g>
	</g>
	<rect x="242.15" y="3.19" class="st1" width="49.01" height="23.62"/>
	<g>
		<g>
			<path class="st0" d="M341.19,8.82c-0.09,0.06-0.23,0.11-0.36,0.14v10.89c0,0.73-0.13,1.2-1.2,1.35
				c-0.15,0.03-0.22-0.04-0.25-0.19c-0.04-0.18-0.12-0.34-0.25-0.45c-0.17-0.15-0.45-0.26-0.92-0.33c-0.13-0.02-0.21-0.08-0.21-0.15
				c0-0.08,0.09-0.12,0.24-0.1c0.39,0.03,1.16,0.09,1.35,0.09c0.27,0,0.33-0.09,0.33-0.31v-3.93h-1.65
				c-0.12,1.88-0.45,3.81-1.53,5.31c-0.09,0.1-0.17,0.15-0.25,0.09s-0.09-0.13-0.03-0.27c0.96-2.15,0.96-4.9,0.96-7.5V8.19
				c0-0.17,0.09-0.25,0.25-0.18l0.84,0.36h1.27l0.33-0.4c0.09-0.12,0.21-0.12,0.32-0.03l0.76,0.58
				C341.33,8.62,341.34,8.74,341.19,8.82z M339.92,12.22h-1.6v1.2c0,0.62,0,1.27-0.03,1.95h1.63V12.22z M338.31,11.79h1.6V8.82h-1.6
				V11.79z M350.57,20.29c0,0.39-0.42,0.58-2.2,0.58h-1.11c-0.97,0-1.18-0.25-1.18-0.97v-7c-0.11,0.1-0.25,0.17-0.56,0.19
				c-0.38,3.1-1.21,6.18-4.27,8.07c-0.12,0.08-0.21,0.08-0.25,0c-0.06-0.09-0.03-0.17,0.09-0.25c1.46-1.14,2.31-2.65,2.83-4.32
				c-0.11,0.12-0.3,0.17-0.51,0.07c-0.11-0.04-0.15-0.12-0.2-0.22c-0.17-0.41-0.5-0.89-0.83-1.27c-0.34,0.63-0.71,1.21-1.11,1.71
				c-0.09,0.11-0.18,0.12-0.25,0.08c-0.08-0.04-0.08-0.13,0-0.25c0.82-1.48,1.5-3.57,1.81-5.71c0.01-0.15,0.12-0.23,0.25-0.19
				l0.9,0.21c0.15,0.03,0.24,0.18,0.12,0.28c-0.09,0.06-0.23,0.1-0.39,0.12c-0.09,0.38-0.19,0.75-0.3,1.12h1.07l0.42-0.42
				c0.09-0.09,0.21-0.1,0.31,0l0.86,0.77v-1.14c0-0.17,0.12-0.24,0.27-0.17l0.79,0.36h1.4l0.3-0.36c0.09-0.12,0.21-0.12,0.31-0.04
				l0.75,0.54c0.14,0.1,0.15,0.24,0,0.3c-0.1,0.06-0.22,0.09-0.36,0.12v3.7c0,0.69-0.11,1.12-0.99,1.27
				c-0.15,0.03-0.22-0.04-0.25-0.19c-0.03-0.18-0.09-0.34-0.2-0.44c-0.12-0.12-0.33-0.22-0.64-0.3c-0.14-0.03-0.21-0.09-0.21-0.17
				c0-0.06,0.09-0.1,0.24-0.09c0.29,0.03,0.77,0.06,0.92,0.06c0.21,0,0.27-0.08,0.27-0.27v-3.71h-1.71v7.32
				c0,0.25,0.06,0.34,0.48,0.34h0.95c0.45,0,0.78,0,0.92-0.03c0.12-0.02,0.2-0.04,0.24-0.18c0.09-0.22,0.24-1.11,0.4-1.95
				c0.02-0.14,0.06-0.21,0.12-0.21c0.06,0,0.09,0.09,0.09,0.23l0.04,2.01C350.49,20.01,350.57,20.11,350.57,20.29z M342.05,11.67
				c-0.27,0.3-0.79,0.39-1,0.09c-0.17-0.3,0-0.63,0.29-0.85c0.38-0.31,0.74-1.15,0.75-1.92c0.01-0.15,0.06-0.22,0.13-0.22
				c0.09,0,0.15,0.06,0.18,0.19c0.06,0.21,0.09,0.4,0.1,0.6h2.73V7.81c0-0.15,0.09-0.22,0.24-0.21l0.88,0.1
				c0.15,0.02,0.27,0.15,0.15,0.26c-0.08,0.04-0.17,0.09-0.3,0.12v1.47h2.64l0.44-0.44c0.1-0.1,0.22-0.1,0.33-0.02l0.74,0.72
				c0.12,0.12,0.11,0.27-0.06,0.3c-0.08,0.02-0.18,0.03-0.32,0.03c-0.34,0.41-0.93,0.96-1.39,1.33c-0.11,0.08-0.18,0.09-0.25,0.05
				c-0.06-0.03-0.08-0.12-0.02-0.26c0.18-0.36,0.38-0.85,0.54-1.27h-6.31C342.54,10.78,342.32,11.37,342.05,11.67z M342.56,14.79
				c1.03,0.4,1.44,0.94,1.48,1.35c0.27-1,0.44-2.08,0.54-3.18h-1.3C343.07,13.6,342.83,14.22,342.56,14.79z"/>
		</g>
	</g>
	<rect x="319.15" y="3.19" class="st1" width="49.01" height="23.62"/>
	<g>
		<g>
			<path class="st0" d="M377.39,16.27c0-2.73,1.83-4.09,3.69-4.09c1.81,0,3.67,1.36,3.67,4.09c0,2.71-1.83,4.03-3.67,4.03
				C379.22,20.31,377.39,18.99,377.39,16.27z M383.5,16.27c0-2.23-0.92-3.5-2.42-3.5c-1.52,0-2.42,1.26-2.42,3.5
				c0,2.25,0.9,3.43,2.42,3.43C382.58,19.71,383.5,18.52,383.5,16.27z"/>
			<path class="st0" d="M392.28,12.18c0.42,0,0.84,0.16,1.06,0.42c0.06,0.07,0.08,0.17,0.08,0.27c-0.04,0.55-0.3,0.87-0.84,0.87
				c-0.38,0-0.66-0.18-0.96-0.44l-0.21-0.18c-0.71,0.46-1.18,1.15-1.56,2.19v1.36c0,0.77,0.01,1.9,0.03,2.75l1.17,0.17
				c0.13,0.01,0.21,0.1,0.21,0.24v0.04c0,0.14-0.09,0.23-0.23,0.23h-3.38c-0.13,0-0.22-0.09-0.22-0.23v-0.04
				c0-0.13,0.08-0.23,0.21-0.24l1.02-0.15c0.03-0.84,0.04-1.99,0.04-2.76v-0.82c0-0.96-0.03-1.58-0.06-2.28l-1.12-0.09
				c-0.13-0.02-0.21-0.09-0.21-0.23v-0.07c0-0.12,0.06-0.21,0.18-0.26l1.82-0.67c0.1-0.04,0.19-0.04,0.27,0.02
				c0.08,0.04,0.11,0.13,0.12,0.24l0.13,1.8C390.38,12.99,391.34,12.18,392.28,12.18z"/>
		</g>
	</g>
	<g>
		<g>
			<path class="st0" d="M425.14,12.03c-0.09,0.04-0.22,0.08-0.36,0.1v7.65c0,0.73-0.17,1.25-1.49,1.42
				c-0.15,0.03-0.24-0.04-0.29-0.18c-0.06-0.23-0.17-0.41-0.34-0.53c-0.24-0.15-0.63-0.27-1.3-0.38c-0.14-0.01-0.21-0.07-0.21-0.15
				c0-0.07,0.09-0.12,0.24-0.1c0.51,0.04,1.71,0.14,2.01,0.14c0.33,0,0.4-0.1,0.4-0.36V17.4h-7.86c-0.36,1.36-1.16,2.7-2.85,3.73
				c-0.12,0.07-0.21,0.09-0.27,0.01c-0.06-0.06-0.03-0.15,0.09-0.25c2-1.74,2.36-3.91,2.36-6.19v-3.07
				c-0.66,0.57-1.38,1.08-2.12,1.47c-0.12,0.06-0.21,0.05-0.25-0.01c-0.06-0.06-0.01-0.14,0.1-0.23c1.71-1.25,3.35-3.3,4.2-5.16
				c0.06-0.14,0.17-0.18,0.3-0.14l1.05,0.33c0.17,0.06,0.24,0.24,0.08,0.27c-0.09,0.02-0.19,0.02-0.34,0
				c-0.2,0.31-0.42,0.65-0.66,0.98h3.11l0.49-0.48c0.11-0.09,0.21-0.1,0.32,0l0.74,0.67c0.12,0.12,0.12,0.27-0.04,0.31
				c-0.09,0.02-0.21,0.03-0.35,0.03c-0.48,0.54-1.26,1.35-1.96,1.89h3.75l0.34-0.42c0.09-0.1,0.21-0.14,0.32-0.04l0.81,0.61
				C425.26,11.8,425.29,11.97,425.14,12.03z M415.71,11.25l0.72,0.31h3.11c0.42-0.56,0.88-1.4,1.18-2.01h-3.42
				C416.82,10.14,416.29,10.71,415.71,11.25z M416.04,16.96h3.38v-2.31h-3.18v0.03C416.23,15.42,416.2,16.2,416.04,16.96z
				 M419.41,14.22V12h-3.18v2.22H419.41z M420.36,14.22h3.45V12h-3.45V14.22z M423.81,14.65h-3.45v2.31h3.45V14.65z"/>
			<path class="st0" d="M428.97,13.11c-0.14,0.06-0.23,0.06-0.27-0.02c-0.04-0.07-0.01-0.15,0.09-0.25c1.08-0.96,1.2-2.08,1.2-3.09
				V8.37c0-0.17,0.1-0.24,0.25-0.18l0.95,0.33c1.04-0.27,2.16-0.61,2.88-0.92c0.1-0.04,0.21-0.03,0.3,0.06l0.67,0.68
				c0.12,0.12,0.12,0.28-0.04,0.28c-0.13,0-0.29-0.03-0.46-0.12c-0.93,0.17-2.36,0.36-3.63,0.44v0.89h3.06l0.48-0.58
				c0.09-0.12,0.19-0.12,0.31-0.03c0.2,0.17,0.54,0.44,0.81,0.69c0.1,0.09,0.15,0.21,0.04,0.3c-0.06,0.04-0.17,0.07-0.29,0.07h-1.77
				v1.95c0,0.06-0.31,0.27-0.79,0.27c-0.09,0-0.15-0.09-0.15-0.23v-2h-1.72C430.8,11.2,430.44,12.33,428.97,13.11z M429.12,20.94
				c1.63-0.44,3.48-1.26,4.5-1.92c0.1-0.07,0.2-0.06,0.3,0.02l0.84,0.61c0.13,0.1,0.13,0.29-0.03,0.29c-0.12,0.02-0.27,0-0.45-0.06
				c-1.25,0.54-3.23,1.1-5.1,1.33c-0.14,0.02-0.23-0.02-0.24-0.09C428.92,21.04,428.97,20.98,429.12,20.94z M441.09,9.15
				c0.21,0.17,0.58,0.47,0.9,0.75c0.09,0.09,0.14,0.21,0.05,0.3c-0.08,0.04-0.18,0.07-0.3,0.07h-2.13v1.79
				c0,0.1-0.01,0.19-0.12,0.25c-0.07,0.04-0.18,0.09-0.33,0.12l0.9,0.67c0.12,0.09,0.13,0.24,0,0.31c-0.1,0.06-0.22,0.09-0.34,0.12
				v5.1c0,0.1-0.02,0.2-0.11,0.24c-0.17,0.1-0.5,0.24-0.73,0.24c-0.09,0-0.15-0.09-0.15-0.22v-0.41h-6.48v0.5
				c0,0.09-0.41,0.33-0.83,0.33c-0.1,0-0.17-0.09-0.17-0.23v-6.31c0-0.17,0.12-0.24,0.27-0.17l0.79,0.36h6.27l0.48-0.51
				c-0.09,0-0.18,0.02-0.27,0.02s-0.15-0.09-0.15-0.23v-1.98h-1.72c-0.13,0.81-0.55,1.71-1.96,2.33c-0.13,0.06-0.22,0.04-0.27-0.03
				c-0.04-0.06-0.01-0.15,0.11-0.24c1.12-0.85,1.25-1.83,1.25-2.76V8.34c0-0.17,0.1-0.24,0.25-0.18l0.88,0.3
				c1.09-0.25,2.26-0.58,3-0.87c0.12-0.05,0.22-0.02,0.32,0.07l0.67,0.71c0.1,0.12,0.1,0.29-0.06,0.29c-0.12,0-0.27-0.05-0.45-0.14
				c-0.96,0.15-2.38,0.31-3.69,0.36v0.95h3.27l0.54-0.65C440.86,9.06,440.97,9.06,441.09,9.15z M432.24,14.64h6.48v-1.23h-6.48
				V14.64z M432.24,16.35h6.48v-1.26h-6.48V16.35z M438.72,16.8h-6.48v1.26h6.48V16.8z M436.63,19.23c6.69,0.47,4.93,2.61,3.78,1.85
				c-0.78-0.54-2.08-1.14-3.84-1.58c-0.15-0.04-0.21-0.1-0.2-0.18C436.39,19.24,436.48,19.21,436.63,19.23z"/>
			<path class="st0" d="M446.69,20.47c3.57-1.52,4.92-6.99,3.71-8.17c-0.76,0.02-1.37-0.01-1.95-0.12c-0.66,1-1.63,2.1-3.15,3.16
				c-0.29,0.19-0.45,0-0.14-0.27c1.38-1.2,2.42-2.64,3.04-4.51c0.24-0.67,0.3-1.19-0.03-1.41c-0.36-0.22-0.33-0.72,0.33-0.6
				c1.15,0.25,1.11,1.05,0.9,1.65c-0.15,0.4-0.33,0.85-0.57,1.32c0.43,0.15,0.94,0.17,3.16,0.09c0.95-0.04,2.08-0.52,2.83-0.25
				c1.08,0.36,0.93,0.99-0.13,0.99c-1.2,0-1.51-0.22-2.77-0.12l-0.83,0.04c0.78,0.4,0.96,0.81,0.85,1.71
				c-0.24,2.4-1.69,5.58-5.17,6.78C446.39,20.88,446.3,20.62,446.69,20.47z"/>
			<path class="st0" d="M460.98,20.44c3.76-2.18,4.12-7.9,2.5-9.34c-0.15-0.14-0.21-0.27-0.18-0.38c-1.86,0.25-2.94,0.36-3.53-0.23
				c-0.71-0.72-0.12-1.21,0.29-0.88c1.2,0.97,1.84,0.57,8.76-0.33c1.18-0.15,1.39,0.71,0.88,1.3c-1.35,1.65-2.59,2.73-4.41,3.65
				c-0.24,2.86-1.35,4.78-4.15,6.48C460.77,20.94,460.63,20.64,460.98,20.44z M464.46,10.75c0.67,0.35,0.9,0.77,0.9,2.13
				c0,0.31,0,0.63-0.03,0.92c1.33-0.98,2.14-1.83,2.83-3.28c0.1-0.2,0.03-0.36-0.15-0.35c-1.54,0.12-2.82,0.3-3.88,0.45
				C464.23,10.65,464.34,10.69,464.46,10.75z"/>
		</g>
	</g>
	<rect x="402.16" y="3.19" class="st1" width="79.01" height="23.62"/>
</g>
<g>
	<g>
		<path class="st0" d="M20.05,19.92c0.8,0,2.48,0,3.46-0.03c0.15,0,0.23,0.04,0.23,0.1s-0.06,0.1-0.18,0.17
			c-0.2,0.1-0.32,0.29-0.38,0.5c-0.03,0.13-0.11,0.21-0.24,0.21h-2.99c-3.57,0-5.49-0.65-6.72-3.65c-0.58,1.48-1.5,2.94-3.03,3.94
			c-0.12,0.08-0.21,0.09-0.25,0.03c-0.04-0.06-0.02-0.13,0.09-0.24c1.69-1.58,2.46-4.02,2.75-6.21c0.01-0.13,0.12-0.21,0.25-0.18
			l1.06,0.21c0.15,0.03,0.25,0.18,0.12,0.29c-0.09,0.07-0.22,0.12-0.42,0.13c-0.11,0.54-0.25,1.08-0.43,1.63
			c0.66,1.47,1.57,2.25,2.85,2.67v-6.66h-3.01v0.62c0,0.1-0.42,0.33-0.81,0.33c-0.1,0-0.17-0.09-0.17-0.22V8.34
			c0-0.17,0.12-0.24,0.27-0.17l0.79,0.34h6.79l0.4-0.44c0.09-0.1,0.21-0.12,0.32-0.03l0.84,0.65c0.13,0.1,0.15,0.23,0.01,0.31
			c-0.12,0.06-0.27,0.12-0.43,0.15v4.17c-0.01,0.1-0.51,0.34-0.84,0.34c-0.09,0-0.15-0.09-0.15-0.22v-0.62h-3.01v2.97h3.19
			l0.58-0.72c0.09-0.1,0.2-0.14,0.32-0.04c0.24,0.18,0.67,0.54,1.02,0.84c0.11,0.09,0.15,0.21,0.05,0.3
			c-0.06,0.05-0.17,0.08-0.29,0.08h-4.88v3.48C18.04,19.87,18.97,19.92,20.05,19.92z M20.25,8.97h-7.03v3.43h7.03V8.97z"/>
		<path class="st0" d="M38.63,17.74c-0.09,0.02-0.19,0-0.34-0.03c-0.54,0.34-1.42,0.76-2.28,1.08c1.11,0.63,2.49,1.04,4.02,1.26
			c0.13,0.02,0.21,0.07,0.21,0.12c0,0.04-0.06,0.07-0.2,0.13c-0.24,0.1-0.43,0.3-0.55,0.58c-0.06,0.12-0.15,0.18-0.29,0.15
			c-2.73-0.67-4.62-1.89-5.61-4.18h-0.17c-0.57,0.42-1.23,0.79-1.97,1.11v1.71l2.81-0.45c0.13-0.03,0.24,0,0.25,0.08
			c0.01,0.09-0.04,0.13-0.18,0.18c-1.33,0.45-3.03,0.96-5.32,1.47c-0.03,0.1-0.08,0.18-0.13,0.24c-0.11,0.09-0.24,0.02-0.3-0.1
			l-0.39-0.72c-0.08-0.15-0.03-0.27,0.13-0.29c0.56-0.06,1.31-0.15,2.16-0.27v-1.47c-1.17,0.42-2.49,0.73-3.84,0.96
			c-0.13,0.02-0.21-0.02-0.25-0.1c-0.03-0.08,0.03-0.15,0.18-0.19c2.03-0.5,3.92-1.23,5.25-2.15h-4.93c-0.12,0-0.23-0.08-0.25-0.2
			c-0.04-0.17,0.04-0.25,0.19-0.25h5.99V15.3h-4.86c-0.13,0-0.22-0.08-0.25-0.19c-0.03-0.15,0.04-0.24,0.2-0.24h4.92v-1.05h-3.15
			v0.38c0,0.09-0.42,0.28-0.81,0.28c-0.08,0-0.13-0.09-0.13-0.22v-4.21c0-0.17,0.12-0.26,0.27-0.18l0.75,0.36h7.08l0.38-0.4
			c0.09-0.1,0.21-0.1,0.31-0.02l0.77,0.57c0.12,0.09,0.15,0.24,0,0.31c-0.11,0.06-0.23,0.09-0.36,0.12v3.08
			c-0.01,0.1-0.5,0.33-0.81,0.33c-0.09,0-0.15-0.08-0.15-0.2v-0.19h-3.18v1.05h3.55l0.5-0.54c0.09-0.1,0.2-0.12,0.31-0.04
			c0.21,0.14,0.56,0.41,0.87,0.65c0.11,0.09,0.15,0.21,0.04,0.3c-0.07,0.05-0.17,0.08-0.27,0.08h-5.01v1.11h4.46l0.52-0.58
			c0.09-0.1,0.2-0.12,0.32-0.04c0.21,0.17,0.6,0.45,0.92,0.72c0.09,0.08,0.15,0.2,0.04,0.29c-0.06,0.04-0.17,0.08-0.29,0.08h-2.05
			l0.93,0.58C38.75,17.53,38.78,17.71,38.63,17.74z M26.93,8.86h5.86v-1.1c0-0.15,0.09-0.23,0.24-0.21l1.02,0.09
			c0.17,0.02,0.27,0.15,0.15,0.27c-0.09,0.08-0.22,0.14-0.42,0.17v0.78h4.16l0.57-0.72c0.09-0.1,0.2-0.13,0.32-0.04
			c0.24,0.19,0.66,0.52,0.99,0.84c0.1,0.09,0.15,0.21,0.04,0.3c-0.08,0.04-0.18,0.07-0.3,0.07H26.99c-0.13,0-0.21-0.07-0.24-0.19
			l-0.02-0.03C26.69,8.94,26.78,8.86,26.93,8.86z M29.66,11.79h3.15v-1.12h-3.15V11.79z M32.81,12.21h-3.15v1.15h3.15V12.21z
			 M33.77,11.79h3.18v-1.12h-3.18V11.79z M36.95,12.21h-3.18v1.15h3.18V12.21z M35.63,18.57c0.72-0.52,1.5-1.22,1.94-1.71h-3.63
			C34.37,17.55,34.94,18.1,35.63,18.57z"/>
	</g>
</g>
<rect x="1" y="3.19" class="st1" width="49.01" height="23.62"/>
<g>
	<g>
		<path class="st0" d="M171.53,10.75c0.08-0.09,0-0.17-0.13-0.09c-0.71,0.4-1.58,0.4-2.14,0.09c-0.6-0.34-0.53-1.02,0.1-0.71
			c0.55,0.26,1.41,0.15,2.47-0.46c1.02-0.58,1.41,0.42,0.75,0.98c-4,3.25-4.84,8.95-0.67,8.95c5.5,0,4.21-7.47,3.21-9.85
			c-0.36-0.83,0.65-1.05,0.92-0.33c0.84,2.08,1.83,3.03,3.04,3.99c0.85,0.67,0.2,1.5-0.6,0.87c-0.63-0.5-1.56-1.6-2-2.5
			c-0.08-0.15-0.18-0.12-0.13,0.04c1.12,4.71-0.54,8.77-4.53,8.77C167.84,20.5,166.93,15.51,171.53,10.75z"/>
		<path class="st0" d="M185.85,15.28c1.58-0.45,3.13,0.02,4.23,0.42c0.39,0.17,0.64-0.09,0.48-0.7c-0.09-0.3-0.66-1.37-1.29-2.46
			c-2.5,0.81-5.11,0.67-6-0.14c-0.46-0.44-0.22-0.73,0.29-0.42c1.2,0.77,3.39,0.46,5.28-0.18c-0.54-0.9-1.05-1.7-1.29-1.98
			c-0.6-0.72,0.29-1.17,0.81-0.9c0.95,0.48,2.13,0.85,3.58,0.93c0.48,0.02,1.12,0.48,0.22,1.19c-0.66,0.51-1.39,0.92-2.17,1.23
			c0.68,1.27,1.19,2.44,1.49,3.36c0.5,1.47-0.72,1.62-1.62,1.06c-0.85-0.51-2.31-1.27-3.93-0.89c-2.54,0.6-1,4.26,3.85,3.48
			c0.99-0.18,1.62,0.78,0.51,1C184.47,21.55,182.36,16.29,185.85,15.28z M189.59,11.52c0.54-0.23,1.02-0.46,1.42-0.72
			c0.33-0.18,0.27-0.31-0.02-0.39c-0.66-0.2-1.36-0.41-2.23-0.85c-0.22-0.12-0.38-0.03-0.2,0.24
			C188.94,10.38,189.27,10.95,189.59,11.52z M192.06,7.95c0.76,0.31,1.23,0.65,1.63,1.38c0.45,0.87-0.54,1.23-0.94,0.39
			c-0.21-0.48-0.59-1.01-0.93-1.32C191.51,8.11,191.67,7.81,192.06,7.95z M193.56,7.69c0.57,0.19,1.21,0.54,1.59,1.12
			c0.41,0.71-0.45,1.26-0.9,0.44c-0.21-0.44-0.54-0.82-0.91-1.09C193.02,7.92,193.14,7.59,193.56,7.69z"/>
	</g>
</g>
<rect x="155.26" y="3.19" class="st1" width="49.01" height="23.62"/>
<rect x="57.03" y="3.19" class="st1" width="90.36" height="23.62"/>
<g>
	<g>
		<path class="st0" d="M70.44,18.88c-0.35,0.44-0.71,0.78-1.14,0.92c-0.85,0.25-2.34-0.56-0.88-1.08c2.25-0.81,2.94-2.5,5.1-3.5
			c-0.9-2.01-1.33-3.19,0.57-3.7c1.23-0.33,0.09-1.74-0.51-2.27c-0.45-0.4-0.12-0.65,0.31-0.38c3.12,2,2.34,3.24,0.88,3.15
			c-1.63-0.1-1.74,0.6-0.58,2.94c3.11-0.94,6.69,1.29,6.69,3.72c0,1.59-1.31,1.56-1.31,0.44c0-3.13-2.49-4.33-5.14-3.67
			c0.38,0.72,0.86,1.59,1.42,2.61c1.28,2.33-1.23,2.88-2.42,1.86C72.71,19.3,71.69,19.02,70.44,18.88z M73.59,19.21
			c0.66,0.24,1.54,0,1.26-0.8c-0.36-1.03-0.76-1.96-1.14-2.76c-1.49,0.58-2.28,1.89-3.01,2.88C71.78,18.69,73.01,19,73.59,19.21z"/>
		<path class="st0" d="M85.28,15.03c-0.24-0.33-0.34-0.81-0.12-1.26c1.54-3.02,3.32-4.02,3.12-5c-0.13-0.7,0.34-0.81,0.66-0.4
			c0.42,0.54,0.66,1.4-0.18,2c-1.02,0.76-2.49,2.31-3.04,3.66c-0.1,0.24-0.1,0.45,0.11,0.69c1.8,2.1,2.71,3.17,3.21,5.5
			c0.2,0.99-0.86,1.19-1.08,0.17C87.4,18,86.57,16.69,85.28,15.03z"/>
		<path class="st0" d="M97.54,20.28c9.75,0.07,6.63-10.03-0.08-3.29c-1.08,1.08-2.16,0.52-2.08-0.75c0.06-1.11,0.32-2.86,0.51-4.18
			c0.2-1.32,1.47-1.41,2.79-1.59c0.21-0.03,0.21-0.21,0.12-0.33c-0.39-0.58-0.85-0.85-1.53-1.12c-0.46-0.2-0.27-0.45,0-0.45
			c1.68,0.06,2.16,0.5,2.62,1.23c0.63,0.96,0.33,1.68-0.85,1.37c-1.92-0.53-2.34,0.03-2.43,0.9c-0.04,0.4-0.27,2.38-0.42,3.36
			c-0.12,0.99,0.55,0.79,1.14,0.39c8.55-6.12,10.65,5.48,0.18,4.81C97.03,20.59,97.08,20.26,97.54,20.28z"/>
		<path class="st0" d="M109.92,10.44c-0.67-0.93,0.03-1.4,0.74-0.5c0.81,1.05-0.46,4.77-0.75,6.3c-0.11,0.54,0.24,0.71,0.42,0.09
			c0.27-1.02,0.76-2.01,1.26-2.82c0.22-0.37,0.48-0.22,0.33,0.14c-0.51,1.25-1.56,3.93-1.2,5.14c0.46,1.52-0.6,1.83-1.12,0.51
			c-0.36-0.92-0.54-2-0.29-3.09C110.04,12.96,110.37,11.08,109.92,10.44z M118.02,18.31c-0.09,2.45-4.79,2.6-4.79,0.3
			c0-1.56,2.04-1.9,3.95-1.47c0.03-1.02,0.04-2.56,0.03-4c-0.98,0.03-2.03-0.3-2.91-1.11c-0.38-0.34-0.17-0.66,0.32-0.38
			c0.88,0.53,1.78,0.71,2.58,0.66c-0.04-1.46-0.15-2.7-0.39-3.01c-0.57-0.78-0.08-1.02,0.51-0.68c0.9,0.56,0.93,0.9,0.81,2.31
			c0.28,0.18,0.57,0.3,1.06,0.4c0.86,0.15,0.83,0.77-0.2,1.32c-0.31,0.18-0.66,0.3-1.02,0.39c-0.04,1.08-0.08,2.48,0,4.32
			c0.83,0.27,1.54,0.69,2.01,1.21c0.84,0.98,0.15,1.91-0.75,0.75C118.92,18.91,118.48,18.58,118.02,18.31z M117.16,17.95v-0.01
			c-1.61-0.57-3.35-0.35-3.35,0.75C113.81,19.92,117.12,19.84,117.16,17.95z M118.61,11.94c0.12-0.08,0.09-0.19-0.04-0.29
			c-0.18-0.12-0.34-0.24-0.48-0.36l-0.08,0.89C118.23,12.12,118.43,12.03,118.61,11.94z"/>
		<path class="st0" d="M130.55,16.54c0.38,0.1,0.52-0.02,0.41-0.33c-0.26-0.72-0.51-1.42-0.75-2.07c-1.74,0.45-3.63,0.54-4.98-0.42
			c-0.48-0.35-0.13-0.65,0.3-0.44c1.43,0.75,3,0.6,4.43,0.15c-0.29-0.73-0.56-1.41-0.83-2c-1.12,0.18-2.25,0.1-2.91-0.19
			c-0.46-0.23-0.27-0.62,0.12-0.48c0.85,0.3,1.7,0.18,2.42-0.08c-0.44-0.81-0.9-1.36-1.38-1.56c-1.08-0.44-0.69-0.96,0.31-0.72
			c0.79,0.18,1.12,0.52,1.79,2c0.32-0.14,0.58-0.27,0.81-0.38c0.74-0.33,1.62,0.24,0.72,0.76c-0.23,0.14-0.46,0.24-0.74,0.33
			c1.04,0.3,2.45,0.56,3.08,0.65c0.66,0.08,0.84,0.67,0.22,1.02c-0.69,0.39-1.6,0.79-2.59,1.12c0.3,0.67,0.63,1.44,1,2.31
			c0.55,1.24-0.43,1.92-1.23,1.36c-3.99-2.79-8.21,2.96-0.5,1.95c1.29-0.17,1.78,0.96,0.58,1.08
			C122.69,21.43,124.31,14.91,130.55,16.54z M130.66,13.18c0.56-0.21,1.05-0.45,1.52-0.69c0.19-0.1,0.22-0.27-0.09-0.38
			c-0.6-0.17-1.47-0.42-2.18-0.71L130.66,13.18z M132.52,8.91c0.78,0.31,1.25,0.63,1.65,1.36c0.45,0.87-0.54,1.25-0.94,0.41
			c-0.21-0.5-0.58-1.02-0.95-1.33C131.96,9.06,132.14,8.76,132.52,8.91z M134.02,8.65c0.58,0.18,1.23,0.52,1.6,1.12
			c0.41,0.69-0.46,1.25-0.9,0.42c-0.23-0.42-0.54-0.83-0.92-1.1C133.49,8.86,133.61,8.53,134.02,8.65z"/>
	</g>
</g>
</svg>
