<?xml version="1.0" encoding="utf-8"?>
<!-- Generator: Adobe Illustrator 25.4.1, SVG Export Plug-In . SVG Version: 6.00 Build 0)  -->
<svg version="1.1" id="レイヤー_1" xmlns="http://www.w3.org/2000/svg" xmlns:xlink="http://www.w3.org/1999/xlink" x="0px"
	 y="0px" viewBox="0 0 310 72" style="enable-background:new 0 0 310 72;" xml:space="preserve">
<style type="text/css">
	.st0{fill:#463243;}
	.st1{fill:#463243;stroke:#463243;stroke-width:4;stroke-linecap:round;stroke-linejoin:round;stroke-miterlimit:10;}
</style>
<g>
	<g>
		<path class="st0" d="M6.67,27.6c-3.15-2.56-4.81-6.34-4.81-11.12c0-4.77,1.71-8.64,4.86-11.2c2.74-2.25,6.12-3.42,10.03-3.42
			c3.91,0,7.29,1.17,10.03,3.42c3.15,2.57,4.86,6.43,4.86,11.2c0,4.77-1.66,8.55-4.81,11.12c-2.83,2.29-6.17,3.46-10.08,3.46
			C12.84,31.06,9.51,29.89,6.67,27.6z M27.19,16.48c0-8.59-4.05-13.45-10.44-13.45c-6.39,0-10.39,4.86-10.39,13.45
			c0,8.55,4,13.41,10.39,13.41C23.14,29.89,27.19,25.03,27.19,16.48z"/>
		<path class="st0" d="M50.03,12.97c1.26,0,2.02,0.68,2.02,1.67c0,1.08-0.77,1.71-2.11,1.71c-0.72,0-1.49-0.13-2.39-0.13
			c-2.38,0-2.97,0.95-2.97,3.42v6.93c0,2.43,0.23,3.24,2.7,3.33v0.95h-8.64v-0.95c2.48-0.09,2.75-0.9,2.75-3.33v-9.99l-1.58-1.17
			v-0.58l3.92-2.12l0.77,0.4v3.33C46.38,14.14,48.27,12.97,50.03,12.97z"/>
		<path class="st0" d="M66.98,29.89v0.95h-8.77v-0.95c2.48-0.09,2.75-0.9,2.75-3.33v-9.99l-2.25-1.26v-0.72l4.81-1.89l0.76,0.4
			v13.46C64.28,28.99,64.51,29.8,66.98,29.89z M62.62,1.86c1.08,0,1.98,0.9,1.98,1.98c0,1.12-0.85,2.03-1.98,2.03
			c-1.04,0-2.02-0.95-2.02-2.03C60.59,2.8,61.58,1.86,62.62,1.86z"/>
		<path class="st0" d="M74.52,19.36c0-3.6,3.1-6.44,7.38-6.44c1.75,0,3.24,0.5,4.63,1.62c2.43-0.72,4.1-1.12,4.95-1.12
			c0.85,0,1.4,0.4,1.4,0.76c0,0.63-0.58,1.62-1.08,1.62c-0.45,0-1.4-0.5-2.83-0.5c-0.5,0-0.99,0.04-1.58,0.18
			c0.81,1.17,1.26,2.34,1.26,3.64c0,3.87-3.1,6.66-7.38,6.66c-0.4,0-0.9-0.09-1.53-0.18c-1.58,0.9-2.34,1.85-2.34,2.43
			c0,1.08,1.84,1.35,5.44,1.58c2.61,0.18,4.32,0.18,5.08,0.45c2.25,0.72,3.24,1.71,3.24,3.83c0,4.41-3.96,7.38-10.93,7.38
			c-5.04,0-7.87-1.53-7.87-3.64c0-2.07,1.75-3.56,5.35-5.13c-2.12-1.12-3.15-2.52-3.15-3.64c0-1.21,1.35-2.21,3.96-3.55
			C75.83,24.18,74.52,22.24,74.52,19.36z M75.6,36.82c0,1.98,2.07,3.42,5.67,3.42c4.63,0,7.56-2.03,7.56-4.63
			c0-2.47-2.25-2.88-7.65-2.88c-0.68,0-1.44,0-2.21,0C76.73,33.99,75.6,35.38,75.6,36.82z M85.68,20.17c0-3.87-1.8-6.25-4.18-6.25
			s-4.05,1.85-4.05,4.77c0,3.74,1.8,6.12,4.14,6.12C84.02,24.81,85.68,23.05,85.68,20.17z"/>
		<path class="st0" d="M107.7,29.89v0.95h-8.77v-0.95c2.48-0.09,2.75-0.9,2.75-3.33v-9.99l-2.25-1.26v-0.72l4.81-1.89l0.76,0.4
			v13.46C105,28.99,105.23,29.8,107.7,29.89z M103.34,1.86c1.08,0,1.98,0.9,1.98,1.98c0,1.12-0.85,2.03-1.98,2.03
			c-1.04,0-2.02-0.95-2.02-2.03C101.31,2.8,102.3,1.86,103.34,1.86z"/>
		<path class="st0" d="M123.59,29.89v0.95h-8.77v-0.95c2.48-0.09,2.75-0.9,2.75-3.33v-9.99l-1.58-1.17v-0.58l3.92-2.12l0.77,0.4
			v1.76c2.11-1.26,4-1.94,5.98-1.94c4.32,0,6.25,2.07,6.25,6.62v7.02c0,2.43,0.22,3.24,2.7,3.33v0.95h-8.73v-0.95
			c2.48-0.09,2.7-0.9,2.7-3.33v-5.71c0-4.28-0.99-6.3-4.23-6.3c-1.71,0-3.19,0.67-4.46,1.98v10.04
			C120.89,28.99,121.12,29.8,123.59,29.89z"/>
		<path class="st0" d="M147.23,30.97c-2.88,0-4.5-1.35-4.5-3.55c0-3.15,3.33-4.5,10.26-6.03v-3.06c0-3.02-0.36-4.23-2.79-4.23
			c-1.44,0-2.52,0.54-3.1,1.58c-0.67,1.17-0.5,2.92-2.29,2.92c-0.72,0-1.21-0.45-1.21-1.21c0-1.62,3.51-4.46,7.74-4.46
			c1.98,0,3.42,0.63,4.27,1.89c0.58,0.81,0.63,1.89,0.63,3.24c0,0.49,0,1.03,0,1.57v7.61c0,1.44,0.18,2.02,1.12,2.02
			c0.49,0,0.99-0.18,1.44-0.5l0.41,0.58c-1.17,1.17-2.48,1.75-3.6,1.75c-1.3,0-2.02-0.77-2.52-2.52
			C150.97,30.12,149.12,30.97,147.23,30.97z M152.99,22.33c-4.77,1.12-6.79,1.76-6.79,4.32c0,1.58,0.99,2.66,2.61,2.66
			c1.08,0,2.43-0.54,4.18-1.58V22.33z"/>
		<path class="st0" d="M174.94,29.89v0.95h-8.78v-0.95c2.48-0.09,2.75-0.9,2.75-3.33V4.06l-1.75-1.04V2.17l5.08-1.53v25.92
			C172.24,28.99,172.47,29.8,174.94,29.89z"/>
		<path class="st0" d="M197.08,29.71c3.51-0.5,3.87-2.34,4.05-7.02l0.49-14c0-0.32,0-0.63,0-0.9c0-3.29-0.76-4.46-4.05-4.54V2.08
			h7.51l10.12,22.99L225.7,2.08h7.07v1.17c-3.78,0.09-4.32,0.99-4.32,4.27c0,0.14,0,0.27,0,0.45l0.22,16.96
			c0.05,3.28,0.05,4.45,3.69,4.77v1.12h-11.07v-1.12c3.37-0.23,3.82-1.21,3.82-4.23c0-0.18,0-0.36,0-0.54l-0.22-18l-10.75,23.49
			h-0.67L202.89,6.45l-0.41,17.42c0,0.31,0,0.63,0,0.9c0,3.6,0.58,4.82,4.09,4.95v1.12h-9.49V29.71z"/>
		<path class="st0" d="M247.49,31.06c-4.9,0-8.41-3.73-8.41-9.22c0-5.04,3.87-8.91,8.82-8.91c3.78,0,6.43,2.34,6.71,6.08h-12.01
			c-0.13,0.94-0.23,1.8-0.23,2.7c0,4.27,2.79,7.42,6.57,7.42c1.75,0,3.33-0.72,5.17-1.98l0.58,0.67
			C252.67,29.98,250.28,31.06,247.49,31.06z M251.32,17.97c-0.09-2.7-1.39-4-3.92-4c-2.21,0-3.78,1.39-4.5,4H251.32z"/>
		<path class="st0" d="M269.99,29.89v0.95h-8.77v-0.95c2.47-0.09,2.74-0.9,2.74-3.33v-9.99l-1.57-1.17v-0.58l3.91-2.12l0.77,0.4
			v1.76c2.11-1.26,4-1.94,5.98-1.94c4.32,0,6.25,2.07,6.25,6.62v7.02c0,2.43,0.22,3.24,2.7,3.33v0.95h-8.73v-0.95
			c2.47-0.09,2.7-0.9,2.7-3.33v-5.71c0-4.28-0.99-6.3-4.23-6.3c-1.71,0-3.2,0.67-4.46,1.98v10.04
			C267.29,28.99,267.52,29.8,269.99,29.89z"/>
		<path class="st0" d="M299.41,14.19v-0.94l6.08-0.32v12.55c0,2.38,0.13,3.29,1.35,3.29c0.36,0,0.76-0.13,1.3-0.31v1.17l-5.76,1.21
			v-1.76c-2.11,1.26-4.05,1.98-6.03,1.98c-4.32,0-6.21-2.07-6.21-6.62v-6.93c0-2.43-0.27-3.24-2.75-3.33v-0.94l6.08-0.32V23.1
			c0,4.28,0.95,6.3,4.18,6.3c1.71,0,3.24-0.63,4.5-1.93v-9.95C302.16,15.09,301.89,14.28,299.41,14.19z"/>
	</g>
</g>
<line class="st1" x1="52.02" y1="69.36" x2="264.02" y2="69.36"/>
</svg>
