<?xml version="1.0" encoding="utf-8"?>
<!-- Generator: Adobe Illustrator 25.4.1, SVG Export Plug-In . SVG Version: 6.00 Build 0)  -->
<svg version="1.1" id="レイヤー_1" xmlns="http://www.w3.org/2000/svg" xmlns:xlink="http://www.w3.org/1999/xlink" x="0px"
	 y="0px" viewBox="0 0 750 30" style="enable-background:new 0 0 750 30;" xml:space="preserve">
<style type="text/css">
	.st0{fill:#463243;}
	.st1{fill:none;stroke:#463243;stroke-miterlimit:10;}
</style>
<g>
	<g>
		<path class="st0" d="M35.42,11.53c0.23,0.18,0.63,0.51,0.96,0.79c0.11,0.09,0.15,0.21,0.04,0.3c-0.07,0.04-0.17,0.08-0.3,0.08
			h-8.04c-0.12,0.36-0.27,0.72-0.44,1.05l0.25,0.12h5.58l0.39-0.44c0.09-0.1,0.21-0.12,0.32-0.03l0.83,0.63
			c0.13,0.1,0.15,0.22,0,0.3c-0.11,0.08-0.26,0.12-0.41,0.15v5.46c0,0.11-0.01,0.2-0.11,0.24c-0.17,0.1-0.49,0.24-0.72,0.24
			c-0.09,0-0.15-0.09-0.15-0.23V19.5h-5.81v0.65c0,0.1-0.42,0.34-0.84,0.34c-0.09,0-0.15-0.09-0.15-0.22v-5.01
			c-0.92,1.42-2.12,2.67-3.58,3.67C23.14,19,23.05,19,22.99,18.94c-0.06-0.06-0.03-0.15,0.08-0.25c1.77-1.58,3.09-3.76,3.81-5.98
			h-3.22c-0.12,0-0.21-0.04-0.25-0.18c-0.04-0.13,0.03-0.24,0.2-0.24h5.76v-1.35h-4.51c-0.14,0-0.21-0.08-0.24-0.19
			c-0.04-0.17,0.04-0.26,0.19-0.26h4.56V9.19h-5.04c-0.13,0-0.21-0.08-0.24-0.2c-0.04-0.17,0.04-0.25,0.2-0.25h3.25
			c-0.13-0.56-0.58-1.23-1-1.71c-0.11-0.11-0.13-0.18-0.09-0.23s0.13-0.04,0.25-0.01c1.75,0.53,1.93,1.56,1.58,1.95h2.95
			c0.32-0.56,0.65-1.25,0.89-1.83c0.04-0.13,0.15-0.18,0.28-0.13l1.04,0.31c0.15,0.04,0.24,0.2,0.09,0.29
			c-0.09,0.04-0.22,0.09-0.39,0.08c-0.34,0.39-0.86,0.87-1.37,1.29h2.4l0.54-0.66c0.09-0.11,0.19-0.13,0.31-0.04l0.95,0.78
			c0.12,0.09,0.17,0.21,0.04,0.3c-0.06,0.04-0.17,0.08-0.29,0.08h-5.35v1.29h3.34l0.5-0.61c0.09-0.12,0.19-0.12,0.31-0.03
			c0.23,0.15,0.58,0.45,0.89,0.72c0.1,0.09,0.15,0.21,0.04,0.3c-0.06,0.05-0.15,0.08-0.27,0.08h-4.81v1.35h4.18l0.57-0.72
			C35.2,11.46,35.3,11.43,35.42,11.53z M27.83,15.57h5.81v-1.26h-5.81V15.57z M33.64,17.31v-1.29h-5.81v1.29H33.64z M33.64,17.74
			h-5.81v1.31h5.81V17.74z"/>
		<path class="st0" d="M57.79,12.21c-0.08,0.01-0.18,0-0.33-0.04c-0.88,0.72-2.37,1.71-3.72,2.44c1.12,2.12,2.78,3.66,4.96,4.62
			c0.13,0.06,0.2,0.1,0.18,0.17c-0.01,0.04-0.09,0.08-0.21,0.09c-0.31,0.04-0.58,0.22-0.76,0.51c-0.09,0.12-0.2,0.17-0.32,0.09
			c-3.22-1.83-4.98-4.98-5.58-9.75c-0.69,0.99-1.54,1.9-2.55,2.73v5.28c1.15-0.35,2.47-0.74,3.81-1.16
			c0.13-0.03,0.22-0.03,0.25,0.06c0.01,0.09-0.03,0.15-0.15,0.21c-1.51,0.67-3.54,1.56-6.25,2.65c-0.02,0.09-0.06,0.17-0.12,0.24
			c-0.09,0.1-0.23,0.04-0.3-0.08l-0.44-0.79c-0.08-0.15-0.03-0.24,0.13-0.29c0.51-0.13,1.23-0.33,2.08-0.57v-4.84
			c-1,0.7-2.14,1.32-3.36,1.81c-0.13,0.04-0.21,0.03-0.25-0.04s0-0.15,0.13-0.22c2.38-1.31,4.5-3.23,5.79-5.17h-5.55
			c-0.14,0-0.23-0.08-0.25-0.2c-0.03-0.15,0.04-0.24,0.19-0.24h6.04V6.99c0-0.15,0.09-0.23,0.24-0.21l0.99,0.09
			c0.15,0.01,0.27,0.15,0.15,0.25c-0.08,0.08-0.19,0.13-0.36,0.17v2.43h4.24l0.62-0.73c0.09-0.12,0.2-0.12,0.32-0.03
			c0.24,0.18,0.66,0.52,1,0.84c0.1,0.09,0.15,0.21,0.04,0.29c-0.08,0.04-0.17,0.08-0.29,0.08H52.3c0.25,1.57,0.69,2.95,1.29,4.17
			c1.08-0.88,2.29-2.1,2.98-2.97c0.09-0.1,0.2-0.12,0.32-0.04l0.9,0.6C57.94,12.01,57.95,12.19,57.79,12.21z"/>
	</g>
</g>
<g>
	<g>
		<path class="st0" d="M107.52,12.49c-0.03,0.1-0.08,0.18-0.13,0.24c-0.1,0.09-0.22,0.04-0.3-0.09l-0.44-0.73
			c-0.09-0.14-0.04-0.26,0.14-0.27c0.93-0.13,2.56-0.43,4.29-0.75V9.6h-3.78c-0.12,0-0.21-0.04-0.25-0.18s0.03-0.24,0.19-0.24h3.84
			V7.77c0-0.15,0.09-0.22,0.24-0.21l0.99,0.11c0.15,0.01,0.25,0.15,0.15,0.25c-0.08,0.09-0.21,0.15-0.44,0.18v4.74
			c0,0.1-0.41,0.31-0.76,0.31c-0.11,0-0.18-0.09-0.18-0.22V11.2C110.19,11.55,109.02,11.98,107.52,12.49z M116.82,13.24l0.88,0.63
			c0.14,0.1,0.14,0.24,0,0.31c-0.12,0.06-0.27,0.12-0.42,0.15v5.52c0,0.72-0.17,1.18-1.38,1.35c-0.15,0.03-0.22-0.04-0.27-0.18
			c-0.04-0.21-0.14-0.38-0.3-0.46c-0.2-0.15-0.53-0.27-1.1-0.34c-0.13-0.03-0.21-0.08-0.21-0.15s0.09-0.12,0.24-0.1
			c0.43,0.03,1.41,0.1,1.67,0.1c0.29,0,0.36-0.1,0.36-0.32v-1.5h-6.18v2.65c0,0.12-0.38,0.34-0.79,0.34c-0.1,0-0.17-0.09-0.17-0.22
			v-7.51c0-0.17,0.12-0.24,0.27-0.17l0.78,0.34h5.95l0.35-0.42C116.59,13.15,116.71,13.17,116.82,13.24z M110.11,15.72h6.18v-1.58
			h-6.18V15.72z M116.29,16.17h-6.18v1.65h6.18V16.17z M119.7,12.15c0,0.45-0.46,0.62-2.73,0.62h-1.58c-1.16,0-1.37-0.22-1.37-0.95
			V7.77c0-0.15,0.09-0.22,0.24-0.21l0.87,0.11c0.15,0.01,0.25,0.15,0.13,0.25c-0.08,0.06-0.17,0.1-0.3,0.13v1.77
			c1.08-0.45,2.29-1.08,3.01-1.56c0.12-0.08,0.21-0.06,0.32,0.02l0.78,0.64c0.14,0.12,0.14,0.29-0.04,0.3
			c-0.12,0-0.29-0.03-0.46-0.1c-0.92,0.34-2.33,0.81-3.6,1.08v1.42c0,0.22,0.04,0.29,0.58,0.29h1.46c0.63,0,1.14-0.02,1.33-0.03
			c0.15,0,0.24-0.04,0.3-0.13c0.08-0.18,0.22-0.68,0.36-1.25c0.03-0.13,0.07-0.2,0.13-0.2c0.06,0,0.09,0.09,0.09,0.22l0.03,1.23
			C119.61,11.88,119.7,11.98,119.7,12.15z"/>
		<path class="st0" d="M134.8,7.89c0.24,0.18,0.69,0.54,1.06,0.87c0.11,0.09,0.15,0.21,0.04,0.3c-0.07,0.04-0.16,0.08-0.28,0.08
			h-6.04c-0.38,0.74-0.86,1.59-1.25,2.21h5.47l0.39-0.46c0.09-0.12,0.21-0.12,0.31-0.03l0.78,0.62c0.13,0.1,0.13,0.24,0,0.3
			c-0.11,0.06-0.24,0.09-0.42,0.12v8.92c0,0.07-0.38,0.33-0.84,0.33c-0.09,0-0.15-0.09-0.15-0.23v-0.87h-9.57v0.87
			c0,0.09-0.32,0.32-0.81,0.32c-0.09,0-0.15-0.09-0.15-0.23v-9.85c0-0.17,0.09-0.25,0.25-0.18l0.88,0.38h3.38
			c0.12-0.6,0.3-1.5,0.41-2.21h-5.64c-0.13,0-0.21-0.08-0.24-0.2c-0.04-0.17,0.04-0.25,0.19-0.25h11.26l0.63-0.76
			C134.58,7.8,134.68,7.8,134.8,7.89z M126.75,19.6v-7.81h-2.43v7.81H126.75z M127.68,11.79v2.26h2.8v-2.26H127.68z M127.68,14.47
			v2.34h2.8v-2.34H127.68z M130.48,19.6v-2.37h-2.8v2.37H130.48z M131.41,19.6h2.47v-7.81h-2.47V19.6z"/>
	</g>
</g>
<line class="st1" x1="1" y1="15.24" x2="14.96" y2="15.24"/>
<line class="st1" x1="68.03" y1="15.24" x2="82" y2="15.24"/>
<rect x="95.83" y="3.19" class="st1" width="49.01" height="23.62"/>
<g>
	<g>
		<path class="st0" d="M174.27,8.83c-0.12,0.06-0.25,0.1-0.42,0.13v10.89c0,0.72-0.12,1.18-1.09,1.35
			c-0.15,0.03-0.23-0.04-0.25-0.19c-0.04-0.21-0.11-0.38-0.21-0.48c-0.17-0.13-0.41-0.24-0.81-0.31c-0.13-0.02-0.21-0.08-0.21-0.15
			s0.09-0.12,0.24-0.1c0.34,0.03,0.97,0.07,1.16,0.07c0.22,0,0.3-0.07,0.3-0.3V15.7h-1.58c-0.06,1.86-0.31,3.84-1.21,5.38
			c-0.08,0.12-0.17,0.17-0.24,0.12c-0.09-0.06-0.09-0.13-0.06-0.27c0.72-2.17,0.66-4.98,0.66-7.5V8.19c0-0.17,0.12-0.24,0.27-0.17
			l0.79,0.35h1.21l0.33-0.41c0.09-0.1,0.21-0.13,0.32-0.04l0.81,0.62C174.4,8.64,174.42,8.76,174.27,8.83z M172.96,12.16h-1.54v1.26
			c0,0.58,0,1.2-0.02,1.84h1.56V12.16z M171.42,11.73h1.54V8.82h-1.54V11.73z M178.44,12.93c0.2,0.15,0.5,0.42,0.76,0.67
			c0.09,0.09,0.14,0.21,0.03,0.3c-0.06,0.04-0.17,0.08-0.29,0.08h-1.89c-0.34,1.5-0.87,3.33-1.39,4.59c0.67-0.1,1.47-0.22,2.29-0.36
			c-0.23-0.79-0.54-1.62-0.83-2.28c-0.06-0.15-0.03-0.24,0.03-0.25c0.06-0.02,0.15,0.01,0.24,0.1c2.45,2.54,1.82,4.68,0.95,4.08
			c-0.09-0.08-0.12-0.15-0.13-0.27c-0.02-0.33-0.09-0.69-0.18-1.07c-0.73,0.3-1.72,0.67-3.01,1.12c-0.03,0.09-0.08,0.17-0.13,0.22
			c-0.09,0.11-0.21,0.04-0.29-0.07l-0.45-0.77c-0.08-0.15-0.01-0.27,0.15-0.29l0.87-0.1c0.3-1.29,0.63-3.27,0.81-4.67h-1.51
			c-0.13,0-0.23-0.08-0.25-0.2c-0.03-0.15,0.04-0.24,0.19-0.24h1.71v-2.83h-1.39c-0.13,0-0.23-0.08-0.25-0.2
			c-0.03-0.15,0.04-0.24,0.19-0.24h1.46V7.84c0-0.15,0.09-0.22,0.24-0.21l0.87,0.09c0.17,0.02,0.27,0.15,0.15,0.27
			c-0.08,0.06-0.18,0.12-0.35,0.15v2.13h0.53l0.42-0.55c0.09-0.12,0.2-0.12,0.31-0.03c0.18,0.15,0.47,0.41,0.71,0.65
			c0.09,0.09,0.14,0.21,0.03,0.3c-0.06,0.04-0.15,0.08-0.27,0.08h-1.73v2.83h0.65l0.45-0.58C178.21,12.84,178.32,12.82,178.44,12.93
			z M183.49,9.1c-0.12,0.06-0.25,0.12-0.42,0.15v8.71c0,0.72-0.12,1.17-1.06,1.35c-0.15,0.03-0.23-0.04-0.26-0.2
			c-0.04-0.21-0.1-0.39-0.21-0.51c-0.12-0.12-0.34-0.22-0.69-0.29c-0.13-0.03-0.21-0.09-0.21-0.17c0-0.06,0.09-0.09,0.24-0.09
			c0.3,0.03,0.84,0.08,0.99,0.08c0.23,0,0.29-0.09,0.29-0.29V9.07h-1.77v11.8c0,0.14-0.32,0.38-0.75,0.38
			c-0.11,0-0.17-0.09-0.17-0.22V8.44c0-0.17,0.12-0.24,0.27-0.17l0.72,0.34h1.54l0.33-0.41c0.09-0.1,0.21-0.13,0.32-0.04l0.83,0.63
			C183.61,8.91,183.63,9.03,183.49,9.1z"/>
	</g>
</g>
<rect x="152.29" y="3.19" class="st1" width="49.01" height="23.62"/>
<g>
	<g>
		<path class="st0" d="M226.8,9.04c-0.03-0.15,0.04-0.25,0.2-0.25h4.38l0.52-0.66c0.09-0.11,0.2-0.13,0.32-0.04
			c0.22,0.18,0.6,0.5,0.92,0.78c0.09,0.09,0.13,0.21,0.04,0.3c-0.08,0.04-0.17,0.08-0.29,0.08h-5.85
			C226.9,9.24,226.83,9.16,226.8,9.04z M233.01,18.33c-1.25,0.51-2.96,1.17-5.26,1.98c-0.04,0.09-0.09,0.18-0.15,0.25
			c-0.1,0.09-0.24,0.03-0.3-0.09l-0.45-0.84c-0.08-0.14-0.01-0.25,0.13-0.29c0.72-0.12,1.85-0.36,3.15-0.65
			c0.3-0.9,0.62-2.07,0.81-2.98c0.03-0.15,0.12-0.21,0.27-0.17l0.96,0.24c0.15,0.04,0.25,0.19,0.1,0.28
			c-0.09,0.06-0.22,0.11-0.39,0.09c-0.29,0.7-0.79,1.63-1.28,2.43l2.33-0.53c0.13-0.03,0.23-0.01,0.24,0.06
			C233.19,18.21,233.14,18.28,233.01,18.33z M231.4,15.04v-0.38h-3.04v0.36c0,0.09-0.36,0.29-0.74,0.29c-0.08,0-0.13-0.09-0.13-0.22
			v-4.17c0-0.17,0.1-0.24,0.27-0.17l0.67,0.29h2.85l0.34-0.38c0.09-0.11,0.21-0.11,0.31-0.02l0.72,0.54c0.12,0.09,0.13,0.24,0,0.32
			c-0.11,0.04-0.23,0.09-0.35,0.12v3.31c-0.01,0.11-0.46,0.33-0.76,0.33h-0.08C231.43,15.27,231.4,15.18,231.4,15.04z M228.22,15.72
			c2.04,1.51,1.19,3.18,0.41,2.59c-0.09-0.08-0.12-0.15-0.12-0.27c-0.01-0.71-0.25-1.53-0.54-2.15c-0.06-0.13-0.06-0.22,0.02-0.25
			C228.04,15.61,228.12,15.64,228.22,15.72z M231.4,11.49h-3.04v2.75h3.04V11.49z M231.52,20.92c1.4-0.54,2.94-1.46,3.81-2.4
			c0.09-0.1,0.21-0.12,0.31-0.04l0.78,0.48c0.15,0.09,0.18,0.29,0.01,0.29c-0.09,0-0.18-0.01-0.29-0.04
			c-0.96,0.86-2.86,1.63-4.54,2.01c-0.14,0.03-0.21,0-0.26-0.07C231.33,21.06,231.37,20.98,231.52,20.92z M239.52,7.74
			c0.24,0.18,0.66,0.52,0.99,0.82c0.09,0.09,0.13,0.21,0.04,0.3c-0.08,0.04-0.17,0.07-0.29,0.07h-3.01
			c-0.3,0.63-0.65,1.32-0.98,1.82h2.24l0.39-0.41c0.09-0.09,0.21-0.1,0.32-0.01l0.73,0.57c0.12,0.09,0.14,0.24,0,0.32
			c-0.1,0.04-0.21,0.08-0.34,0.11V18c0,0.11-0.01,0.2-0.1,0.26c-0.17,0.09-0.47,0.22-0.71,0.22c-0.09,0-0.15-0.09-0.15-0.22v-0.41
			h-3.84v0.43c0,0.11-0.39,0.33-0.79,0.33c-0.1,0-0.17-0.09-0.17-0.22v-7.81c0-0.17,0.12-0.24,0.27-0.17l0.76,0.34h0.9
			c0.11-0.5,0.23-1.21,0.3-1.82h-2.61c-0.13,0-0.21-0.07-0.24-0.19c-0.04-0.17,0.04-0.25,0.2-0.25h5.21l0.57-0.71
			C239.29,7.68,239.4,7.65,239.52,7.74z M234.81,12.96h3.84V11.2h-3.84V12.96z M238.65,15.19v-1.8h-3.84v1.8H238.65z M238.65,15.63
			h-3.84v1.78h3.84V15.63z M237.46,18.55c3.55,0.88,3.36,2.97,2.34,2.68c-0.12-0.03-0.17-0.1-0.23-0.2
			c-0.43-0.76-1.42-1.66-2.23-2.25c-0.13-0.09-0.18-0.16-0.13-0.21C237.25,18.52,237.33,18.52,237.46,18.55z"/>
	</g>
</g>
<rect x="209.2" y="3.19" class="st1" width="49.01" height="23.62"/>
<g>
	<g>
		<path class="st0" d="M374.31,8.82c-0.09,0.06-0.23,0.1-0.36,0.13v10.89c0,0.73-0.13,1.2-1.2,1.35c-0.15,0.03-0.22-0.04-0.25-0.2
			c-0.04-0.18-0.12-0.34-0.25-0.45c-0.17-0.15-0.45-0.26-0.92-0.33c-0.13-0.02-0.21-0.08-0.21-0.15s0.09-0.12,0.24-0.1
			c0.39,0.03,1.16,0.09,1.35,0.09c0.27,0,0.33-0.09,0.33-0.32v-3.93h-1.65c-0.12,1.87-0.45,3.81-1.53,5.31
			c-0.09,0.11-0.17,0.15-0.25,0.09c-0.09-0.06-0.09-0.13-0.03-0.27c0.96-2.15,0.96-4.91,0.96-7.5V8.19c0-0.17,0.09-0.25,0.25-0.18
			l0.84,0.36h1.27l0.33-0.41c0.09-0.12,0.21-0.12,0.32-0.03l0.76,0.58C374.44,8.62,374.46,8.74,374.31,8.82z M373.03,12.22h-1.6v1.2
			c0,0.62,0,1.27-0.03,1.95h1.63V12.22z M371.43,11.79h1.6V8.82h-1.6V11.79z M383.68,20.29c0,0.39-0.42,0.58-2.2,0.58h-1.11
			c-0.97,0-1.18-0.25-1.18-0.97v-7c-0.11,0.11-0.25,0.17-0.56,0.2c-0.38,3.1-1.21,6.18-4.27,8.07c-0.12,0.08-0.21,0.08-0.25,0
			c-0.06-0.09-0.03-0.17,0.09-0.25c1.46-1.14,2.31-2.65,2.83-4.32c-0.11,0.12-0.3,0.17-0.51,0.07c-0.11-0.04-0.15-0.12-0.2-0.22
			c-0.17-0.41-0.5-0.88-0.83-1.27c-0.34,0.63-0.71,1.21-1.11,1.71c-0.09,0.11-0.18,0.12-0.25,0.08c-0.08-0.04-0.08-0.13,0-0.25
			c0.82-1.48,1.5-3.57,1.81-5.71c0.01-0.15,0.12-0.22,0.25-0.19l0.9,0.21c0.15,0.03,0.24,0.18,0.12,0.28
			c-0.09,0.06-0.23,0.11-0.39,0.12c-0.09,0.38-0.19,0.75-0.3,1.12h1.07l0.42-0.42c0.09-0.09,0.21-0.1,0.31,0l0.86,0.77v-1.14
			c0-0.17,0.12-0.24,0.27-0.17l0.79,0.36h1.4l0.3-0.36c0.09-0.12,0.21-0.12,0.31-0.04l0.75,0.54c0.14,0.11,0.15,0.24,0,0.3
			c-0.1,0.06-0.22,0.09-0.36,0.12v3.71c0,0.69-0.11,1.12-0.99,1.28c-0.15,0.03-0.22-0.05-0.25-0.2c-0.03-0.18-0.09-0.34-0.2-0.44
			c-0.12-0.12-0.33-0.22-0.64-0.3c-0.14-0.03-0.21-0.09-0.21-0.17c0-0.06,0.09-0.1,0.24-0.09c0.29,0.03,0.77,0.06,0.92,0.06
			c0.21,0,0.27-0.08,0.27-0.27v-3.71h-1.71v7.32c0,0.25,0.06,0.34,0.48,0.34h0.95c0.45,0,0.78,0,0.92-0.03
			c0.12-0.01,0.2-0.04,0.24-0.18c0.09-0.22,0.24-1.11,0.4-1.95c0.02-0.13,0.06-0.21,0.12-0.21c0.06,0,0.09,0.09,0.09,0.23l0.04,2.01
			C383.61,20.01,383.68,20.11,383.68,20.29z M375.16,11.67c-0.27,0.3-0.79,0.39-1,0.09c-0.17-0.3,0-0.63,0.29-0.86
			c0.38-0.31,0.74-1.15,0.75-1.92c0.01-0.15,0.06-0.22,0.13-0.22c0.09,0,0.15,0.06,0.18,0.2c0.06,0.21,0.09,0.4,0.1,0.6h2.73V7.81
			c0-0.15,0.09-0.22,0.24-0.21l0.88,0.11c0.15,0.01,0.27,0.15,0.15,0.25c-0.08,0.04-0.17,0.09-0.3,0.12v1.47h2.64l0.44-0.43
			c0.1-0.11,0.22-0.11,0.33-0.02l0.74,0.72c0.12,0.12,0.11,0.27-0.06,0.3c-0.08,0.01-0.18,0.03-0.32,0.03
			c-0.34,0.41-0.93,0.96-1.39,1.33c-0.11,0.08-0.18,0.09-0.25,0.05c-0.06-0.03-0.08-0.12-0.02-0.26c0.18-0.36,0.38-0.85,0.54-1.27
			h-6.31C375.66,10.78,375.43,11.37,375.16,11.67z M375.67,14.79c1.03,0.4,1.44,0.94,1.48,1.35c0.27-1,0.44-2.08,0.54-3.18h-1.3
			C376.18,13.6,375.94,14.22,375.67,14.79z"/>
	</g>
</g>
<rect x="352.09" y="3.19" class="st1" width="49.01" height="23.62"/>
<g>
	<g>
		<path class="st0" d="M277.61,20.65c2.94-0.63,5.16-3.31,5.47-6.64c0.06-0.79,0.06-1.32-0.3-1.71c-2.91,0.25-3.35,0.55-4.04,0.15
			c-0.86-0.49-0.54-1.12,0.08-0.91c1.33,0.48,3.01,0.28,6.43-0.11c0.95-0.1,1.59-0.29,2.17-0.01c0.97,0.45,0.71,1.09-0.01,0.9
			c-0.63-0.18-1.21-0.21-1.96-0.19c-0.79,0.03-1.49,0.07-2.08,0.12c0.27,0.17,0.46,0.32,0.69,0.5c0.55,0.5,0.24,0.89,0.17,1.04
			c-0.09,0.13-0.12,0.33-0.15,0.58c-0.36,3.72-3.49,6.13-6.4,6.58C277.32,20.98,277.28,20.73,277.61,20.65z M280,9.21
			c1.02,0.38,1.86,0.21,3.67-0.24c0.53-0.12,1.09-0.33,1.67-0.04c0.75,0.36,0.54,0.86,0.01,0.83c-0.51-0.03-0.79-0.04-1.44,0
			c-2.99,0.15-3.55,0.64-4.11,0.21C279.12,9.43,279.51,9.01,280,9.21z M285.99,7.83c0.78,0.3,1.25,0.63,1.65,1.36
			c0.45,0.87-0.54,1.23-0.95,0.39c-0.21-0.48-0.58-1-0.94-1.32C285.43,7.98,285.61,7.68,285.99,7.83z M287.49,7.56
			c0.58,0.2,1.23,0.54,1.61,1.13c0.41,0.71-0.46,1.26-0.9,0.44c-0.21-0.44-0.54-0.83-0.92-1.1C286.96,7.78,287.08,7.45,287.49,7.56z
			"/>
		<path class="st0" d="M299.44,17.74c-4.96,0.23-5.28,0.74-6.17-0.09c-0.64-0.62-0.38-1.05,0.24-0.78c1.02,0.48,1.58,0.41,5.79,0.09
			c0.28-0.02,0.54-0.06,0.82-0.08c0.24-1.54,0.32-2.58,0.46-4.02c0.03-0.24-0.06-0.3-0.21-0.3c-6.63,0.32-6.69,0.75-7.36-0.04
			c-0.62-0.72-0.24-1.26,0.42-0.81c1.05,0.71,2.61,0.45,7.15-0.03c1.08-0.12,1.17,0.25,0.99,1.16c-0.19,0.85-0.46,2.42-0.76,4.11
			c0.13,0.03,0.27,0.08,0.41,0.14c0.81,0.36,0.49,1.15-0.17,0.9C300.52,17.77,300.03,17.71,299.44,17.74z"/>
		<path class="st0" d="M308.62,13.14c0.03-0.71,0.1-1.07-0.39-1.51c-0.46-0.45-0.31-0.84,0.21-0.72c1.53,0.36,1.7,1.1,1.46,1.56
			c-0.1,0.17-0.15,0.39-0.15,0.64c-0.17,3.41-1.83,6.24-5.01,7.77c-0.23,0.12-0.39-0.09-0.08-0.27
			C306.9,19.32,308.5,16.15,308.62,13.14z M311.7,17.13c0.11-6,0.2-6.27-0.4-6.69c-0.5-0.36-0.5-0.97,0.3-0.76
			c1.63,0.41,1.35,1.14,1.26,1.5c-0.04,0.2-0.08,0.42-0.09,0.93c-0.09,1.62-0.12,2.38-0.12,4.51c0,0.23,0.13,0.29,0.33,0.2
			c1.67-0.87,2.7-1.72,4.54-3.5c0.34-0.31,0.55-0.03,0.31,0.24c-2.26,2.62-3.63,3.84-4.53,4.41
			C312.39,18.52,311.68,18.31,311.7,17.13z"/>
		<path class="st0" d="M321.42,20.7c2.94-0.64,5.16-3.33,5.47-6.66c0.06-0.79,0.06-1.32-0.29-1.71c-2.92,0.25-3.36,0.57-4.05,0.15
			c-0.85-0.5-0.54-1.12,0.08-0.9c1.33,0.46,3.01,0.27,6.43-0.12c0.95-0.11,1.61-0.29,2.17-0.02c0.98,0.45,0.71,1.1-0.01,0.9
			c-0.63-0.17-1.21-0.21-1.96-0.18c-0.79,0.03-1.49,0.07-2.08,0.12c0.27,0.15,0.46,0.3,0.69,0.48c0.56,0.5,0.24,0.88,0.17,1.04
			c-0.09,0.13-0.12,0.34-0.15,0.58c-0.36,3.72-3.48,6.13-6.41,6.58C321.13,21.01,321.09,20.76,321.42,20.7z M323.83,9.24
			c1,0.38,1.84,0.21,3.66-0.23c0.53-0.13,1.1-0.34,1.67-0.06c0.75,0.38,0.54,0.85,0.02,0.83c-0.51-0.03-0.78-0.05-1.44,0
			c-2.98,0.15-3.55,0.64-4.11,0.21C322.93,9.46,323.32,9.04,323.83,9.24z"/>
	</g>
</g>
<rect x="265.67" y="3.19" class="st1" width="79.01" height="23.62"/>
</svg>
