<?xml version="1.0" encoding="utf-8"?>
<!-- Generator: Adobe Illustrator 25.4.1, SVG Export Plug-In . SVG Version: 6.00 Build 0)  -->
<svg version="1.1" id="レイヤー_1" xmlns="http://www.w3.org/2000/svg" xmlns:xlink="http://www.w3.org/1999/xlink" x="0px"
	 y="0px" viewBox="0 0 300 84" style="enable-background:new 0 0 300 84;" xml:space="preserve">
<style type="text/css">
	.st0{fill:#463243;}
	.st1{fill:#463243;stroke:#463243;stroke-width:2;stroke-linecap:round;stroke-linejoin:round;stroke-miterlimit:10;}
</style>
<g>
	<g>
		<path class="st0" d="M12.08,22.93v0.84H2.83v-0.84c2.97-0.1,3.14-0.91,3.14-3.58V6.63c0-2.67-0.17-3.44-3.14-3.54V2.2h7.7
			c5.64,0,8.61,2.06,8.61,5.57c0,2.56-1.69,4.29-5.06,5.13c0.81,0.74,1.42,1.79,2.16,2.94l3.14,4.79c0.91,1.42,1.62,2.3,3.27,2.3
			v0.84h-4.29c-1.05-1.05-1.82-2.33-2.7-3.71l-1.82-2.9c-0.51-0.81-1.25-2.03-2.29-3.75c-0.74,0.1-1.59,0.13-2.6,0.13v5.81
			C8.94,22.02,9.11,22.83,12.08,22.93z M9.31,12.74c4.69,0,6.82-1.28,6.82-4.69c0-2.94-2.06-5.1-4.96-5.1
			c-1.82,0-2.23,0.4-2.23,1.99v7.8C9.07,12.74,9.18,12.74,9.31,12.74z"/>
		<path class="st0" d="M29.46,22.93c2.97-0.1,3.14-0.91,3.14-3.58V6.63c0-2.67-0.17-3.44-3.14-3.54V2.2h16.44l0.74,4.02l-0.74,0.07
			c-1.32-2.16-2.77-3.14-4.83-3.14h-2.94c-2.46,0-2.57,0.47-2.57,2.19v5.37c0,0.91,0.34,1.21,1.18,1.21h2.8
			c1.92,0,2.73-0.88,3.04-3.04h0.84v7.32h-0.84c-0.2-2.33-1.05-3.27-3.04-3.27h-2.8c-0.84,0-1.18,0.3-1.18,1.21v6.48
			c0,1.72,0.1,2.19,2.57,2.19h4.12c2.94,0,4.19-0.91,5.81-4.22l0.71,0.07l-1.08,5.1H29.46V22.93z"/>
		<path class="st0" d="M63.41,12.4h3.44c1.86,0,2.6-0.74,3.04-2.77h0.81v7.05h-0.81c-0.2-2.33-1.05-3.27-3.04-3.27h-3.44
			c-0.84,0-1.18,0.3-1.18,1.21v4.73c0,2.67,0.17,3.51,3.17,3.58v0.84h-9.28v-0.84c2.97-0.1,3.14-0.91,3.14-3.58V6.63
			c0-2.67-0.17-3.44-3.14-3.54V2.2h16.94l1.18,5.33l-0.81-0.07c-1.79-2.97-3.34-4.32-5.7-4.32h-2.94c-2.46,0-2.57,0.47-2.57,2.19
			v5.84C62.22,12.09,62.56,12.4,63.41,12.4z"/>
		<path class="st0" d="M81.36,22.93c2.97-0.1,3.14-0.91,3.14-3.58V6.63c0-2.67-0.17-3.44-3.14-3.54V2.2h9.25v0.88
			c-2.97,0.1-3.14,0.88-3.14,3.54v13.54c0,0.1,0,0.2,0,0.3c0,1.89,0.07,2.36,2.57,2.36h2.6c3.58,0,5.4-0.91,7.46-4.52l0.74,0.2
			l-1.15,5.27H81.36V22.93z"/>
		<path class="st0" d="M107.64,22.93c2.97-0.1,3.14-0.91,3.14-3.58V6.63c0-2.67-0.17-3.44-3.14-3.54V2.2h16.44l0.74,4.02l-0.74,0.07
			c-1.32-2.16-2.77-3.14-4.83-3.14h-2.94c-2.46,0-2.57,0.47-2.57,2.19v5.37c0,0.91,0.34,1.21,1.18,1.21h2.8
			c1.92,0,2.73-0.88,3.04-3.04h0.84v7.32h-0.84c-0.2-2.33-1.05-3.27-3.04-3.27h-2.8c-0.84,0-1.18,0.3-1.18,1.21v6.48
			c0,1.72,0.1,2.19,2.57,2.19h4.12c2.94,0,4.19-0.91,5.81-4.22l0.71,0.07l-1.08,5.1h-18.23V22.93z"/>
		<path class="st0" d="M134.24,22.93c1.82-0.07,3.58-1.45,5.6-4.15l4.39-5.84l-4.39-6.38c-1.49-2.16-2.36-3.48-4.46-3.48
			c-0.1,0-0.24,0-0.37,0V2.2h8.84v0.88c-1.28,0-1.86,0.24-1.86,1.08c0,0.47,0.3,1.22,0.98,2.23l3.07,4.66l2.9-3.98
			c0.98-1.32,1.52-2.19,1.52-2.87c0-0.91-0.67-1.11-2.33-1.11V2.2h7.93v0.88c-2.09,0.14-3.85,1.25-5.47,3.44l-3.95,5.37l4.62,6.58
			c1.86,2.67,3,4.46,5.33,4.46v0.84h-8.81v-0.84c1.28,0,1.82-0.24,1.82-1.08c0-0.47-0.27-1.28-0.95-2.26l-3.81-5.7l-3.98,5.27
			c-0.71,0.91-1.15,1.59-1.15,2.26c0,0.95,0.88,1.42,2.63,1.52v0.84h-8.13V22.93z"/>
		<path class="st0" d="M165.74,21.34c-2.36-1.92-3.61-4.76-3.61-8.34s1.28-6.48,3.65-8.4c2.06-1.69,4.59-2.56,7.53-2.56
			s5.47,0.88,7.53,2.56c2.36,1.92,3.65,4.83,3.65,8.4s-1.25,6.41-3.61,8.34c-2.13,1.72-4.62,2.6-7.56,2.6S167.86,23.06,165.74,21.34
			z M181.13,13.01c0-6.45-3.04-10.09-7.83-10.09s-7.8,3.65-7.8,10.09c0,6.41,3,10.06,7.8,10.06S181.13,19.42,181.13,13.01z"/>
		<path class="st0" d="M191.42,22.93c2.97-0.1,3.14-0.91,3.14-3.58V6.63c0-2.67-0.17-3.44-3.14-3.54V2.2h9.25v0.88
			c-2.97,0.1-3.14,0.88-3.14,3.54v13.54c0,0.1,0,0.2,0,0.3c0,1.89,0.07,2.36,2.57,2.36h2.6c3.58,0,5.4-0.91,7.46-4.52l0.74,0.2
			l-1.15,5.27h-18.33V22.93z"/>
		<path class="st0" d="M221.43,21.34c-2.36-1.92-3.61-4.76-3.61-8.34s1.28-6.48,3.64-8.4c2.06-1.69,4.59-2.56,7.53-2.56
			s5.47,0.88,7.53,2.56c2.36,1.92,3.65,4.83,3.65,8.4s-1.25,6.41-3.61,8.34c-2.13,1.72-4.62,2.6-7.56,2.6S223.55,23.06,221.43,21.34
			z M236.82,13.01c0-6.45-3.04-10.09-7.83-10.09s-7.8,3.65-7.8,10.09c0,6.41,3,10.06,7.8,10.06S236.82,19.42,236.82,13.01z"/>
		<path class="st0" d="M262.31,15.03v-0.84h8.61v0.84c-2.63,0.2-2.73,1.05-2.73,3.58v3.21c-2.06,1.42-4.62,2.13-7.63,2.13
			c-7.56,0-12.25-4.15-12.25-10.6c0-2.56,0.78-4.83,2.26-6.82c2.09-2.8,5.74-4.49,10.23-4.49c3.31,0,5.97,0.84,8,2.56l-0.03,4.52
			l-0.54-0.1c-1.59-4.12-3.88-6.11-7.43-6.11c-2.57,0-4.62,0.88-6.18,2.56c-1.92,2.13-2.97,4.93-2.97,8.07
			c0,5.81,3.68,9.55,9.01,9.55c3.54,0,4.79-1.05,4.79-3.65v-0.84C265.45,15.94,265.28,15.13,262.31,15.03z"/>
		<path class="st0" d="M291.16,22.93v0.84h-9.25v-0.84c2.97-0.1,3.14-0.91,3.14-3.58v-5.6l-5.6-8.57c-0.88-1.38-1.65-2.09-2.87-2.09
			c-0.03,0-0.07,0-0.1,0V2.2h8.2v0.88c-1.42,0-2.06,0.27-2.06,1.01c0,0.24,0.3,1.01,1.01,2.16l3.95,6.45l4.32-6.28
			c0.74-1.08,1.08-1.82,1.08-2.16c0-0.71-0.67-1.15-1.89-1.18V2.2h6.08v0.88c-0.07,0-0.14,0-0.2,0c-1.49,0-2.4,1.11-3.78,3.14
			l-5.16,7.59v5.54C288.02,22.02,288.19,22.83,291.16,22.93z"/>
	</g>
	<g>
		<path class="st0" d="M70.37,58.95c4.47-1.37,5.68-4.36,5.82-7.36c0.07-1.92,0.18-3.55-0.57-4.05c-0.48-0.33-0.51-0.93,0.48-0.69
			c0.89,0.19,1.47,0.78,1.28,1.29c-0.08,0.25-0.04,0.63-0.04,1.03c0.21,5.91-2,9-6.88,10.06C70.1,59.31,69.98,59.07,70.37,58.95z
			 M72.07,47.65c1.27,0.22,1.33,0.82,1.17,1.32c-0.17,0.44-0.09,1.54,0.01,5.08c0.01,0.99-1.08,0.9-1.05-0.02
			c0.09-4.68,0.42-5.17-0.41-5.83C71.35,47.86,71.51,47.55,72.07,47.65z"/>
		<path class="st0" d="M92.48,58.53c3.67-1.73,6.15-4.08,7.5-8.92c0.06-0.21,0-0.29-0.24-0.25c-4.82,0.42-5.25,1.2-6.25,0.4
			c-0.71-0.55-0.36-1.08,0.15-0.84c0.78,0.39,2.81,0.29,6.39-0.33c1.17-0.21,1.45,0.24,1.15,1.06c-1.68,4.62-3.25,7.2-8.53,9.22
			C92.24,59.02,92.15,58.69,92.48,58.53z"/>
		<path class="st0" d="M117.2,56.26c0.08-5.92,0.18-6.39-0.32-6.81c-0.45-0.39-0.2-0.78,0.38-0.67c1.58,0.28,1.19,1.11,1.12,1.36
			c-0.04,0.23-0.08,0.44-0.09,0.79c-0.09,1.29-0.11,3.04-0.09,4.71c0,0.39,0.27,0.46,0.5,0.36c2.77-1.15,4.65-2.77,7.39-5.76
			c0.34-0.38,0.55-0.08,0.31,0.23c-2.44,3.24-4.35,4.89-6.61,6.4C117.98,58.11,117.17,57.37,117.2,56.26z"/>
		<path class="st0" d="M138.99,58.48c4.98-2.42,6.66-4.69,7.89-8.52c0.04-0.13,0.03-0.27-0.15-0.27c-0.71-0.04-1.89-0.01-2.78,0.02
			c-1.17,2.25-2.45,3.38-4.53,4.3c-0.3,0.14-0.45-0.13-0.09-0.34c1.75-1.02,3.02-2.31,3.99-4.67c0.21-0.52,0.29-1.05-0.04-1.36
			c-0.6-0.57-0.25-0.85,0.27-0.65c1.2,0.45,1.32,0.73,1,1.47l-0.28,0.61c1.03,0,2.11-0.04,3.03-0.09c1.02-0.08,1.19,0.51,0.75,1.42
			c-2.23,4.69-4.2,6.55-8.97,8.38C138.66,58.96,138.58,58.68,138.99,58.48z"/>
		<path class="st0" d="M162.29,58.02c5.73-1.71,7.56-4.51,8.68-7.98c0.21-0.67,0.14-1.1-0.31-1.53c-0.45-0.45-0.3-0.93,0.41-0.78
			c1.15,0.25,1.51,1.05,1.27,1.75c-0.09,0.27-0.15,0.51-0.31,0.95c-1.85,5.17-5.73,7.15-9.66,7.92
			C162.02,58.42,161.97,58.12,162.29,58.02z M164.12,48.33c1.21,0.57,1.7,1.36,1.86,2.34c0.19,1.12-1.21,1.35-1.37,0.24
			c-0.1-0.85-0.2-1.5-0.75-2.15C163.52,48.34,163.83,48.18,164.12,48.33z"/>
		<path class="st0" d="M187.1,49.96c-0.54-0.31-0.33-0.88,0.57-0.72c0.89,0.15,1.14,0.61,1.2,1c1.17-0.12,3.13-0.36,5.21-0.65
			c1.38-0.21,1.74,0.35,1.48,1.41c-0.21,0.87-0.51,2.52-0.84,4.35c0.78,0.12,1.17,1.04,0.12,1c-2.7-0.1-4.21-0.07-5.79,0.03
			l0.03,0.65c0.04,0.91-0.76,0.84-0.81,0.01C187.83,50.55,187.86,50.41,187.1,49.96z M189.02,55.78c1.46-0.17,3.22-0.33,5.05-0.42
			c0.19-1.83,0.43-4.14,0.46-4.53c0.03-0.17,0-0.39-0.27-0.36c-2.4,0.13-3.76,0.25-5.4,0.46C188.85,51.61,188.9,52.87,189.02,55.78z
			"/>
		<path class="st0" d="M213.23,52.89c0.77,0.82-0.31,1.62-0.99,0.67c-0.44-0.57-1.23-1.12-2.19-1.27c-0.38-0.06-0.34-0.36-0.03-0.38
			C211.19,51.82,212.47,52.05,213.23,52.89z M211.19,49.06c1.32-0.07,2.64,0.27,3.39,1.2c0.79,0.94-0.33,1.63-1,0.81
			c-0.68-0.81-1.32-1.44-2.39-1.6C210.83,49.41,210.77,49.09,211.19,49.06z M211.4,57.27c-0.43-0.91,0.08-1.17,0.47-0.81
			c0.27,0.24,0.46,0.33,0.96,0.33c1.56,0,5.19-2.53,8.59-7.09c0.31-0.43,0.67-0.25,0.42,0.12c-2.54,3.84-6.5,8.17-9.34,8.17
			C211.96,57.99,211.58,57.69,211.4,57.27z M219.32,46.71c0.77,0.31,1.25,0.65,1.63,1.37c0.47,0.87-0.54,1.24-0.94,0.4
			c-0.21-0.48-0.58-1-0.93-1.32C218.77,46.87,218.93,46.57,219.32,46.71z M220.82,46.45c0.58,0.2,1.21,0.52,1.59,1.12
			c0.42,0.71-0.45,1.26-0.9,0.44c-0.21-0.44-0.54-0.83-0.92-1.1C220.28,46.66,220.4,46.35,220.82,46.45z"/>
		<path class="st0" d="M243.65,53.32c-6.21-0.43-7.46,0.95-8.86-0.07c-0.89-0.66-0.39-1.12,0.28-0.89c1.46,0.5,2.52,0.47,8.4,0.12
			c0.71-0.04,1.62-0.04,2.13,0.17c0.93,0.38,0.85,1.05-0.02,0.9C245.07,53.46,244.5,53.4,243.65,53.32z"/>
	</g>
	<line class="st1" x1="78.01" y1="81.96" x2="237.01" y2="81.96"/>
</g>
</svg>
