<?xml version="1.0" encoding="utf-8"?>
<!-- Generator: Adobe Illustrator 25.4.1, SVG Export Plug-In . SVG Version: 6.00 Build 0)  -->
<svg version="1.1" id="レイヤー_1" xmlns="http://www.w3.org/2000/svg" xmlns:xlink="http://www.w3.org/1999/xlink" x="0px"
	 y="0px" viewBox="0 0 567 80" style="enable-background:new 0 0 567 80;" xml:space="preserve">
<style type="text/css">
	.st0{fill:#463243;}
	.st1{fill:none;stroke:#463243;stroke-miterlimit:10;}
</style>
<g>
	<g>
		<path class="st0" d="M30.23,23.85c1.06,0,3.3,0,4.62-0.04c0.2,0,0.3,0.06,0.3,0.14s-0.08,0.14-0.24,0.22
			c-0.26,0.14-0.42,0.38-0.5,0.66c-0.04,0.18-0.14,0.28-0.32,0.28h-3.98c-4.76,0-7.32-0.86-8.96-4.86c-0.78,1.98-2,3.92-4.04,5.26
			c-0.16,0.1-0.28,0.12-0.34,0.04c-0.06-0.08-0.02-0.18,0.12-0.32c2.26-2.1,3.28-5.36,3.66-8.28c0.02-0.18,0.16-0.28,0.34-0.24
			l1.42,0.28c0.2,0.04,0.34,0.24,0.16,0.38c-0.12,0.1-0.3,0.16-0.56,0.18c-0.14,0.72-0.34,1.44-0.58,2.18c0.88,1.96,2.1,3,3.8,3.56
			V14.4H21.1v0.82c0,0.14-0.56,0.44-1.08,0.44c-0.14,0-0.22-0.12-0.22-0.3V8.4c0-0.22,0.16-0.32,0.36-0.22l1.06,0.46h9.06l0.54-0.58
			c0.12-0.14,0.28-0.16,0.42-0.04l1.12,0.86c0.18,0.14,0.2,0.3,0.02,0.42c-0.16,0.08-0.36,0.16-0.58,0.2v5.56
			c-0.02,0.14-0.68,0.46-1.12,0.46c-0.12,0-0.2-0.12-0.2-0.3V14.4h-4.02v3.96h4.26l0.78-0.96c0.12-0.14,0.26-0.18,0.42-0.06
			c0.32,0.24,0.9,0.72,1.36,1.12c0.14,0.12,0.2,0.28,0.06,0.4c-0.08,0.06-0.22,0.1-0.38,0.1h-6.5v4.64
			C27.55,23.79,28.79,23.85,30.23,23.85z M30.49,9.24H21.1v4.58h9.38V9.24z"/>
		<path class="st0" d="M54.97,20.95c-0.12,0.02-0.26,0-0.46-0.04c-0.72,0.46-1.9,1.02-3.04,1.44c1.48,0.84,3.32,1.38,5.36,1.68
			c0.18,0.02,0.28,0.1,0.28,0.16c0,0.06-0.08,0.1-0.26,0.18c-0.32,0.14-0.58,0.4-0.74,0.78c-0.08,0.16-0.2,0.24-0.38,0.2
			c-3.64-0.9-6.16-2.52-7.48-5.58h-0.22c-0.76,0.56-1.64,1.06-2.62,1.48v2.28l3.74-0.6c0.18-0.04,0.32,0,0.34,0.1
			c0.02,0.12-0.06,0.18-0.24,0.24c-1.78,0.6-4.04,1.28-7.1,1.96c-0.04,0.14-0.1,0.24-0.18,0.32c-0.14,0.12-0.32,0.02-0.4-0.14
			l-0.52-0.96c-0.1-0.2-0.04-0.36,0.18-0.38c0.74-0.08,1.74-0.2,2.88-0.36v-1.96c-1.56,0.56-3.32,0.98-5.12,1.28
			c-0.18,0.02-0.28-0.02-0.34-0.14c-0.04-0.1,0.04-0.2,0.24-0.26c2.7-0.66,5.22-1.64,7-2.86h-6.58c-0.16,0-0.3-0.1-0.34-0.26
			c-0.06-0.22,0.06-0.34,0.26-0.34h7.98v-1.48h-6.48c-0.18,0-0.3-0.1-0.34-0.26c-0.04-0.2,0.06-0.32,0.26-0.32h6.56v-1.4h-4.2v0.5
			c0,0.12-0.56,0.38-1.08,0.38c-0.1,0-0.18-0.12-0.18-0.3v-5.62c0-0.22,0.16-0.34,0.36-0.24l1,0.48h9.44l0.5-0.54
			c0.12-0.14,0.28-0.14,0.42-0.02l1.02,0.76c0.16,0.12,0.2,0.32,0,0.42c-0.14,0.08-0.3,0.12-0.48,0.16v4.1
			c-0.02,0.14-0.66,0.44-1.08,0.44c-0.12,0-0.2-0.1-0.2-0.26V15.7h-4.24v1.4h4.74l0.66-0.72c0.12-0.14,0.26-0.16,0.42-0.06
			c0.28,0.18,0.74,0.54,1.16,0.86c0.14,0.12,0.2,0.28,0.06,0.4c-0.1,0.06-0.22,0.1-0.36,0.1h-6.68v1.48h5.94l0.7-0.78
			c0.12-0.14,0.26-0.16,0.42-0.06c0.28,0.22,0.8,0.6,1.22,0.96c0.12,0.1,0.2,0.26,0.06,0.38c-0.08,0.06-0.22,0.1-0.38,0.1h-2.74
			l1.24,0.78C55.13,20.67,55.17,20.91,54.97,20.95z M39.36,9.1h7.82V7.64c0-0.2,0.12-0.3,0.32-0.28l1.36,0.12
			c0.22,0.02,0.36,0.2,0.2,0.36c-0.12,0.1-0.3,0.18-0.56,0.22V9.1h5.54l0.76-0.96c0.12-0.14,0.26-0.18,0.42-0.06
			c0.32,0.26,0.88,0.7,1.32,1.12c0.14,0.12,0.2,0.28,0.06,0.4c-0.1,0.06-0.24,0.1-0.4,0.1H39.44c-0.18,0-0.28-0.1-0.32-0.26
			L39.1,9.4C39.05,9.2,39.16,9.1,39.36,9.1z M43.01,13h4.2v-1.5h-4.2V13z M47.21,13.56h-4.2v1.54h4.2V13.56z M48.49,13h4.24v-1.5
			h-4.24V13z M52.73,13.56h-4.24v1.54h4.24V13.56z M50.97,22.05c0.96-0.7,2-1.62,2.58-2.28h-4.84
			C49.29,20.68,50.05,21.43,50.97,22.05z"/>
	</g>
</g>
<rect x="5" y="1.54" class="st1" width="65.35" height="31.5"/>
<g>
	<g>
		<path class="st0" d="M226.42,11.62c0.1-0.12,0-0.22-0.18-0.12c-0.94,0.54-2.1,0.54-2.86,0.12c-0.8-0.46-0.7-1.36,0.14-0.94
			c0.74,0.34,1.88,0.2,3.3-0.62c1.36-0.78,1.88,0.56,1,1.3c-5.34,4.34-6.46,11.94-0.9,11.94c7.34,0,5.62-9.96,4.28-13.14
			c-0.48-1.1,0.86-1.4,1.22-0.44c1.12,2.78,2.44,4.04,4.06,5.32c1.14,0.9,0.26,2-0.8,1.16c-0.84-0.66-2.08-2.14-2.66-3.34
			c-0.1-0.2-0.24-0.16-0.18,0.06c1.5,6.28-0.72,11.7-6.04,11.7C221.5,24.63,220.28,17.97,226.42,11.62z"/>
		<path class="st0" d="M245.46,17.66c2.1-0.6,4.18,0.02,5.64,0.56c0.52,0.22,0.86-0.12,0.64-0.94c-0.12-0.4-0.88-1.82-1.72-3.28
			c-3.34,1.08-6.82,0.9-8-0.18c-0.62-0.58-0.3-0.98,0.38-0.56c1.6,1.02,4.52,0.62,7.04-0.24c-0.72-1.2-1.4-2.26-1.72-2.64
			c-0.8-0.96,0.38-1.56,1.08-1.2c1.26,0.64,2.84,1.14,4.78,1.24c0.64,0.02,1.5,0.64,0.3,1.58c-0.88,0.68-1.86,1.22-2.9,1.64
			c0.9,1.7,1.58,3.26,1.98,4.48c0.66,1.96-0.96,2.16-2.16,1.42c-1.14-0.68-3.08-1.7-5.24-1.18c-3.38,0.8-1.34,5.68,5.14,4.64
			c1.32-0.24,2.16,1.04,0.68,1.34C243.62,26.03,240.8,19.01,245.46,17.66z M250.44,12.64c0.72-0.3,1.36-0.62,1.9-0.96
			c0.44-0.24,0.36-0.42-0.02-0.52c-0.88-0.26-1.82-0.54-2.98-1.14c-0.3-0.16-0.5-0.04-0.26,0.32
			C249.58,11.12,250.02,11.88,250.44,12.64z M253.74,7.88c1.02,0.42,1.64,0.86,2.18,1.84c0.6,1.16-0.72,1.64-1.26,0.52
			c-0.28-0.64-0.78-1.34-1.24-1.76C253,8.1,253.22,7.7,253.74,7.88z M255.74,7.54c0.76,0.26,1.62,0.72,2.12,1.5
			c0.54,0.94-0.6,1.68-1.2,0.58c-0.28-0.58-0.72-1.1-1.22-1.46C255.02,7.84,255.18,7.4,255.74,7.54z"/>
	</g>
</g>
<rect x="205.77" y="1.54" class="st1" width="65.35" height="31.5"/>
<g>
	<g>
		<g>
			<path class="st0" d="M28.04,62h-8.33v9.12c0,0.35-0.24,0.59-0.59,0.59h-0.9c-0.35,0-0.59-0.24-0.59-0.59V62H9.29
				c-0.35,0-0.59-0.24-0.59-0.59v-0.75c0-0.35,0.24-0.59,0.59-0.59h8.33V51.2c0-0.35,0.24-0.59,0.59-0.59h0.9
				c0.35,0,0.59,0.24,0.59,0.59v8.88h8.33c0.35,0,0.59,0.24,0.59,0.59v0.75C28.62,61.77,28.39,62,28.04,62z"/>
		</g>
	</g>
</g>
<rect x="80.29" y="1.54" class="st1" width="115.61" height="31.5"/>
<g>
	<g>
		<path class="st0" d="M96.25,22.47c-0.46,0.58-0.94,1.04-1.52,1.22c-1.14,0.34-3.12-0.74-1.18-1.44c3-1.08,3.92-3.34,6.8-4.66
			c-1.2-2.68-1.78-4.26,0.76-4.94c1.64-0.44,0.12-2.32-0.68-3.02c-0.6-0.54-0.16-0.86,0.42-0.5c4.16,2.66,3.12,4.32,1.18,4.2
			c-2.18-0.14-2.32,0.8-0.78,3.92c4.14-1.26,8.92,1.72,8.92,4.96c0,2.12-1.74,2.08-1.74,0.58c0-4.18-3.32-5.78-6.86-4.9
			c0.5,0.96,1.14,2.12,1.9,3.48c1.7,3.1-1.64,3.84-3.22,2.48C99.27,23.03,97.91,22.65,96.25,22.47z M100.45,22.91
			c0.88,0.32,2.06,0,1.68-1.06c-0.48-1.38-1.02-2.62-1.52-3.68c-1.98,0.78-3.04,2.52-4.02,3.84
			C98.03,22.21,99.67,22.63,100.45,22.91z"/>
		<path class="st0" d="M115.96,17.32c-0.32-0.44-0.46-1.08-0.16-1.68c2.06-4.02,4.42-5.36,4.16-6.66c-0.18-0.94,0.46-1.08,0.88-0.54
			c0.56,0.72,0.88,1.86-0.24,2.66c-1.36,1.02-3.32,3.08-4.06,4.88c-0.14,0.32-0.14,0.6,0.14,0.92c2.4,2.8,3.62,4.22,4.28,7.34
			c0.26,1.32-1.14,1.58-1.44,0.22C118.78,21.29,117.68,19.55,115.96,17.32z"/>
		<path class="st0" d="M132.22,24.33c13,0.1,8.84-13.38-0.1-4.38c-1.44,1.44-2.88,0.7-2.78-1c0.08-1.48,0.42-3.82,0.68-5.58
			c0.26-1.76,1.96-1.88,3.72-2.12c0.28-0.04,0.28-0.28,0.16-0.44c-0.52-0.78-1.14-1.14-2.04-1.5c-0.62-0.26-0.36-0.6,0-0.6
			c2.24,0.08,2.88,0.66,3.5,1.64c0.84,1.28,0.44,2.24-1.14,1.82c-2.56-0.7-3.12,0.04-3.24,1.2c-0.06,0.54-0.36,3.18-0.56,4.48
			c-0.16,1.32,0.74,1.06,1.52,0.52c11.4-8.16,14.2,7.3,0.24,6.42C131.54,24.75,131.6,24.31,132.22,24.33z"/>
		<path class="st0" d="M148.68,11.2c-0.9-1.24,0.04-1.86,0.98-0.66c1.08,1.4-0.62,6.36-1,8.4c-0.14,0.72,0.32,0.94,0.56,0.12
			c0.36-1.36,1.02-2.68,1.68-3.76c0.3-0.5,0.64-0.3,0.44,0.18c-0.68,1.66-2.08,5.24-1.6,6.86c0.62,2.02-0.8,2.44-1.5,0.68
			c-0.48-1.22-0.72-2.66-0.38-4.12C148.84,14.56,149.27,12.06,148.68,11.2z M159.48,21.71c-0.12,3.26-6.38,3.46-6.38,0.4
			c0-2.08,2.72-2.54,5.26-1.96c0.04-1.36,0.06-3.42,0.04-5.34c-1.3,0.04-2.7-0.4-3.88-1.48c-0.5-0.46-0.22-0.88,0.42-0.5
			c1.18,0.7,2.38,0.94,3.44,0.88c-0.06-1.94-0.2-3.6-0.52-4.02c-0.76-1.04-0.1-1.36,0.68-0.9c1.2,0.74,1.24,1.2,1.08,3.08
			c0.38,0.24,0.76,0.4,1.42,0.54c1.14,0.2,1.1,1.02-0.26,1.76c-0.42,0.24-0.88,0.4-1.36,0.52c-0.06,1.44-0.1,3.3,0,5.76
			c1.1,0.36,2.06,0.92,2.68,1.62c1.12,1.3,0.2,2.54-1,1C160.68,22.51,160.1,22.07,159.48,21.71z M158.34,21.22v-0.02
			c-2.14-0.76-4.46-0.46-4.46,1C153.88,23.85,158.28,23.75,158.34,21.22z M160.28,13.2c0.16-0.1,0.12-0.26-0.06-0.38
			c-0.24-0.16-0.46-0.32-0.64-0.48l-0.1,1.18C159.76,13.44,160.04,13.32,160.28,13.2z"/>
		<path class="st0" d="M176.13,19.35c0.5,0.14,0.7-0.02,0.54-0.44c-0.34-0.96-0.68-1.9-1-2.76c-2.32,0.6-4.84,0.72-6.64-0.56
			c-0.64-0.46-0.18-0.86,0.4-0.58c1.9,1,4,0.8,5.9,0.2c-0.38-0.98-0.74-1.88-1.1-2.66c-1.5,0.24-3,0.14-3.88-0.26
			c-0.62-0.3-0.36-0.82,0.16-0.64c1.14,0.4,2.26,0.24,3.22-0.1c-0.58-1.08-1.2-1.82-1.84-2.08c-1.44-0.58-0.92-1.28,0.42-0.96
			c1.06,0.24,1.5,0.7,2.38,2.66c0.42-0.18,0.78-0.36,1.08-0.5c0.98-0.44,2.16,0.32,0.96,1.02c-0.3,0.18-0.62,0.32-0.98,0.44
			c1.38,0.4,3.26,0.74,4.1,0.86c0.88,0.1,1.12,0.9,0.3,1.36c-0.92,0.52-2.14,1.06-3.46,1.5c0.4,0.9,0.84,1.92,1.34,3.08
			c0.74,1.66-0.58,2.56-1.64,1.82c-5.32-3.72-10.94,3.94-0.66,2.6c1.72-0.22,2.38,1.28,0.78,1.44
			C165.65,25.87,167.81,17.16,176.13,19.35z M176.27,14.86c0.74-0.28,1.4-0.6,2.02-0.92c0.26-0.14,0.3-0.36-0.12-0.5
			c-0.8-0.22-1.96-0.56-2.9-0.94L176.27,14.86z M178.75,9.16c1.04,0.42,1.66,0.84,2.2,1.82c0.6,1.16-0.72,1.66-1.26,0.54
			c-0.28-0.66-0.78-1.36-1.26-1.78C178.01,9.36,178.25,8.96,178.75,9.16z M180.75,8.82c0.78,0.24,1.64,0.7,2.14,1.5
			c0.54,0.92-0.62,1.66-1.2,0.56c-0.3-0.56-0.72-1.1-1.22-1.46C180.05,9.1,180.21,8.66,180.75,8.82z"/>
	</g>
</g>
<g>
	<g>
		<path class="st0" d="M379.12,66.75c0.14,4.94-7.72,4.08-7.72,0.8c0-2.14,3.08-2.9,6.44-2.34c0-9.32,0-9.86-1.22-10.52
			c-1.06-0.54-0.4-1.14,0.84-0.68c1.56,0.6,1.4,1.18,1.38,4.84c0.6,0.18,1.46,0.22,2.62-0.18c1.42-0.5,1.38,1.06,0.24,1.42
			c-0.92,0.3-1.98,0.16-2.86-0.1c0,1.42,0.04,3.2,0.18,5.46c1.52,0.4,3.02,1.04,4.26,1.94c1.64,1.18-0.34,1.88-1.32,0.98
			C381.2,67.69,380.2,67.15,379.12,66.75z M377.84,66.53v-0.16c-2.74-0.68-5.46-0.36-5.46,1.18
			C372.38,69.27,377.84,70.07,377.84,66.53z"/>
		<path class="st0" d="M390.1,69.63c3.36-0.3,6.8-2.6,7.14-6.84c0.64-7.78-9.24-6.66-6.3,0.96c0.58,1.54-0.52,1.94-1.14,1.04
			c-0.44-0.66-0.8-1.8-0.96-2.74c-0.52-3.34,1.5-5.62-0.04-7.52c-0.56-0.68,0.24-1.14,1.04-0.58c1.84,1.28,0.3,3.92,0.04,5.22
			c-0.06,0.26,0.1,0.32,0.2,0.06c1.84-4.64,8.64-3.58,8.3,3.5c-0.24,5.14-4.86,7.64-8.28,7.42
			C389.34,70.11,389.44,69.69,390.1,69.63z"/>
		<path class="st0" d="M413.72,68.39v0.82c0,0.18-0.12,0.3-0.3,0.3h-9.32c-0.18,0-0.3-0.12-0.3-0.3v-0.52
			c0-0.14,0.04-0.28,0.14-0.38l4.54-4.96c1.86-1.98,2.56-3.24,2.56-5.12c0-1.84-1.06-3.3-3.1-3.3c-0.68,0-1.26,0.1-1.9,0.38
			l-0.6,1.42c-0.26,0.72-0.56,0.98-0.98,0.98c-0.28,0-0.52-0.12-0.7-0.36c-0.1-0.12-0.1-0.24-0.06-0.38
			c0.6-1.78,2.54-2.76,4.76-2.76c2.94,0,4.42,1.68,4.42,4.06c0,1.82-1.08,3.32-3.4,5.36l-4.4,4.46h8.34
			C413.6,68.09,413.72,68.21,413.72,68.39z"/>
		<path class="st0" d="M423.85,67.89c11.64-2.08,7.74-14.86-1.9-5.62c-1.2,1.14-2.62,1.12-3.54,0.58c-1.74-0.98-1.2-1.6-0.48-1.4
			c1.28,0.3,1.94,0.28,3.66-0.92c12.06-8.28,15.56,6.82,2.26,7.86C423.27,68.43,423.29,67.99,423.85,67.89z"/>
		<path class="st0" d="M444.38,63.81c0.28-0.32,0.66-0.24,0.36,0.3c-1.02,1.86-0.86,4.1,0.76,4.14c5.18,0.1,3.98-7.72-1.86-5.14
			c-0.9,0.4-1.72,0.9-2.48,1.44c0.02,0.94,0.08,1.98,0.16,3.12c0.14,2.06-1.24,2.68-2.06,1.44c-0.54-0.8-1.14-1.4-1.74-1.8
			c-0.56,0.36-1.06,0.6-1.52,0.6c-1.72,0-1.84-1.66,0.02-1.66c0.28,0,0.7,0.12,1.14,0.28c0.8-0.52,1.9-1.36,3.1-2.2
			c0.02-1.22,0.02-2.42,0-3.54c-1.66,0.56-2.88,0.6-3.88-0.48c-0.44-0.5-0.16-0.82,0.34-0.54c1.24,0.74,2.02,0.72,3.52,0.04
			c-0.06-2.28-0.26-4.02-0.78-4.38c-0.76-0.52-0.4-1.48,0.82-0.78c0.9,0.5,1.04,1.08,1,2.54c0.48,0.32,1.02,0.54,1.7,0.62
			c1.52,0.22,1.54,1.28,0.18,1.84c-0.74,0.3-1.4,0.58-2.02,0.82c-0.02,0.92-0.04,2-0.02,3.28c0.78-0.52,1.58-1,2.36-1.4
			c7.28-3.62,9.36,7.12,1.94,6.86C442.6,69.11,443.22,65.19,444.38,63.81z M435.98,67.09c0.16,0,0.36-0.08,0.64-0.24
			c-0.24-0.06-0.46-0.1-0.66-0.1C435.42,66.75,435.32,67.11,435.98,67.09z M439.54,67.69c0.32,0.2,0.72,0.32,0.72-0.28v-2.2
			c-0.8,0.62-1.52,1.24-2.18,1.72C438.78,67.27,439.38,67.61,439.54,67.69z M441.94,58.95c0.36-0.18,0.34-0.36,0-0.58
			c-0.24-0.16-0.46-0.36-0.68-0.54l-0.08,1.52L441.94,58.95z M451.04,58.57c0.96,1.04-0.24,2.18-1.16,0.92
			c-0.6-0.88-1.94-1.66-3.24-0.6c-0.48,0.4-0.56,0.04-0.32-0.3C447.32,57.21,449.76,57.23,451.04,58.57z"/>
		<path class="st0" d="M463.43,69.29c2.32,0,5.4,0,7.82-0.08c0.2,0,0.3,0.06,0.3,0.14s-0.08,0.14-0.26,0.2
			c-0.34,0.12-0.58,0.4-0.68,0.76c-0.06,0.16-0.16,0.26-0.34,0.26h-6.82c-3.7,0-5.36-0.46-6.8-2.74c-0.7,0.88-1.86,2.06-2.56,2.7
			c0.02,0.08,0.02,0.16,0.02,0.2c-0.04,0.22-0.3,0.16-0.4-0.02l-0.6-1.04c-0.1-0.16-0.06-0.3,0.12-0.4c0.68-0.34,1.6-0.88,2.48-1.42
			v-5.98h-2.28c-0.18,0-0.3-0.1-0.32-0.28c-0.04-0.2,0.08-0.3,0.28-0.3h2.04l0.6-0.78c0.12-0.16,0.26-0.18,0.42-0.04l1.18,1
			c0.16,0.14,0.18,0.32-0.02,0.4c-0.16,0.08-0.38,0.14-0.68,0.18v5.38C458.35,69.05,459.93,69.29,463.43,69.29z M453.81,53.43
			c4.3,1.62,3.48,4.56,2.14,3.86c-0.14-0.08-0.18-0.18-0.22-0.32c-0.3-1.1-1.24-2.38-2.12-3.22c-0.16-0.16-0.22-0.28-0.14-0.32
			C453.55,53.37,453.65,53.37,453.81,53.43z M469.91,63.27c0.3,0.24,0.82,0.66,1.26,1.04c0.14,0.12,0.2,0.28,0.06,0.4
			c-0.1,0.06-0.22,0.1-0.38,0.1h-12.56c-0.18,0-0.3-0.1-0.34-0.26c-0.04-0.2,0.06-0.32,0.26-0.32h3.36v-2.38h-2.46
			c-0.18,0-0.3-0.1-0.34-0.26c-0.04-0.2,0.06-0.32,0.26-0.32h2.54v-1.54c0-0.2,0.12-0.3,0.32-0.28l1.06,0.1
			c0.22,0.02,0.38,0.2,0.2,0.34c-0.08,0.06-0.18,0.1-0.32,0.14v1.24h2.98v-1.54c0-0.2,0.12-0.3,0.32-0.28l1.06,0.1
			c0.22,0.02,0.36,0.2,0.2,0.34c-0.08,0.06-0.2,0.1-0.34,0.14v1.24h1.04l0.66-0.8c0.12-0.14,0.26-0.18,0.42-0.06
			c0.28,0.22,0.74,0.6,1.12,0.94c0.14,0.12,0.2,0.28,0.06,0.4c-0.1,0.06-0.24,0.1-0.38,0.1h-2.92v2.38h1.72l0.72-0.9
			C469.61,63.19,469.75,63.15,469.91,63.27z M458.43,68.07c1.38-0.72,2.8-1.88,3.56-2.78c0.12-0.14,0.26-0.2,0.42-0.1l1.16,0.62
			c0.2,0.12,0.26,0.36,0.02,0.4c-0.16,0.02-0.34,0.02-0.58-0.02c-0.98,0.78-2.7,1.72-4.44,2.24c-0.18,0.06-0.28,0.02-0.34-0.08
			C458.19,68.25,458.25,68.17,458.43,68.07z M458.47,54.01c-0.06-0.22,0.06-0.34,0.26-0.34h3.42l0.44-0.46
			c0.12-0.14,0.28-0.16,0.42-0.04l0.9,0.68c0.18,0.14,0.2,0.32,0,0.4c-0.1,0.06-0.26,0.12-0.42,0.14v2.14c0,0.14-0.6,0.42-1,0.42
			c-0.1,0-0.18-0.12-0.18-0.3v-0.34h-2.56v1.6c0,0.2,0.04,0.26,0.54,0.26h1.28c0.58,0,1.06,0,1.24-0.02c0.14,0,0.22-0.02,0.3-0.12
			c0.08-0.14,0.2-0.44,0.32-0.8c0.06-0.18,0.12-0.26,0.2-0.26s0.12,0.12,0.14,0.3l0.04,0.76c0.38,0.12,0.5,0.22,0.5,0.44
			c0,0.48-0.52,0.64-2.78,0.64h-1.5c-1.22,0-1.4-0.26-1.4-1.02v-2.58c0-0.22,0.16-0.32,0.36-0.22l1.02,0.44h2.3v-1.48h-3.5
			C458.65,54.25,458.53,54.19,458.47,54.01z M465.81,64.23v-2.38h-2.98v2.38H465.81z M464.83,54.01c-0.06-0.22,0.06-0.34,0.26-0.34
			h3.54l0.44-0.48c0.12-0.14,0.28-0.14,0.42-0.02l0.9,0.68c0.16,0.12,0.18,0.32-0.02,0.42c-0.1,0.04-0.24,0.1-0.38,0.12v2.14
			c-0.02,0.14-0.6,0.42-1.02,0.42c-0.1,0-0.18-0.12-0.18-0.3v-0.34h-2.58v1.6c0,0.2,0.04,0.26,0.54,0.26h1.4c0.6,0,1.14,0,1.32-0.02
			c0.14,0,0.22-0.02,0.28-0.12c0.1-0.14,0.24-0.5,0.36-0.9c0.06-0.18,0.12-0.26,0.2-0.26s0.14,0.12,0.14,0.3l0.04,0.84
			c0.38,0.14,0.5,0.24,0.5,0.46c0,0.48-0.52,0.64-2.9,0.64h-1.6c-1.24,0-1.44-0.26-1.44-1.02v-2.58c0-0.22,0.16-0.32,0.36-0.22
			l1.02,0.44h2.36v-1.48h-3.62C465.01,54.25,464.89,54.19,464.83,54.01z M465.63,65.41c6.5,1.32,4.64,3.88,3.4,3.04
			c-0.12-0.08-0.16-0.16-0.24-0.26c-0.64-0.76-1.78-1.64-3.32-2.42c-0.18-0.08-0.24-0.18-0.2-0.28S465.43,65.37,465.63,65.41z"/>
		<path class="st0" d="M478.65,57.05c0.12-0.12,0.02-0.22-0.16-0.12c-0.94,0.54-2.12,0.54-2.86,0.12c-0.82-0.46-0.7-1.36,0.14-0.94
			c0.74,0.34,1.88,0.2,3.3-0.62c1.34-0.78,1.88,0.56,0.98,1.3c-5.34,4.34-6.46,11.94-0.88,11.94c7.32,0,5.62-9.96,4.28-13.14
			c-0.48-1.1,0.84-1.4,1.2-0.44c1.12,2.78,2.46,4.04,4.08,5.32c1.14,0.9,0.26,2-0.8,1.16c-0.84-0.66-2.1-2.14-2.66-3.34
			c-0.1-0.2-0.26-0.16-0.2,0.06c1.5,6.28-0.7,11.7-6.02,11.7C473.75,70.05,472.51,63.39,478.65,57.05z M486.19,55.27
			c1.04,0.42,1.66,0.86,2.2,1.84c0.6,1.16-0.74,1.64-1.26,0.52c-0.28-0.64-0.78-1.34-1.26-1.76
			C485.45,55.49,485.69,55.09,486.19,55.27z M488.19,54.93c0.78,0.26,1.64,0.72,2.12,1.5c0.56,0.94-0.6,1.68-1.18,0.58
			c-0.3-0.58-0.74-1.1-1.22-1.46C487.49,55.23,487.63,54.79,488.19,54.93z"/>
		<path class="st0" d="M496.33,68.49c0,0.96-0.22,1.72-1.82,1.96c-0.2,0.04-0.3-0.06-0.34-0.26c-0.08-0.26-0.18-0.52-0.38-0.68
			c-0.28-0.22-0.72-0.36-1.48-0.5c-0.18-0.02-0.28-0.1-0.28-0.2c0-0.08,0.12-0.14,0.32-0.12c0.58,0.04,1.86,0.14,2.18,0.14
			c0.38,0,0.5-0.12,0.5-0.42V55.63h-2.78c-0.16,0-0.3-0.08-0.34-0.26s0.06-0.3,0.26-0.3h4.64l0.76-0.98
			c0.12-0.14,0.26-0.18,0.42-0.04c0.3,0.24,0.84,0.7,1.28,1.1c0.14,0.12,0.2,0.28,0.06,0.38c-0.1,0.06-0.24,0.1-0.4,0.1h-2.6V68.49z
			 M497.73,70.65c1.68-0.84,3.6-2.12,4.66-3.34c0.12-0.14,0.26-0.18,0.42-0.08l1.1,0.7c0.18,0.12,0.22,0.36,0.02,0.36
			c-0.1,0-0.22-0.02-0.36-0.08c-1.26,1.08-3.62,2.2-5.7,2.8c-0.16,0.06-0.28,0.04-0.34-0.06C497.47,70.87,497.53,70.75,497.73,70.65
			z M508.95,53.17c0.3,0.24,0.86,0.68,1.32,1.1c0.12,0.12,0.18,0.28,0.04,0.4c-0.1,0.06-0.22,0.1-0.36,0.1h-4.86
			c-0.4,0.8-0.88,1.66-1.32,2.26h3.62l0.48-0.54c0.12-0.14,0.28-0.16,0.42-0.04l0.98,0.76c0.16,0.12,0.18,0.32,0,0.42
			c-0.12,0.06-0.26,0.12-0.42,0.14v8.98c-0.02,0.14-0.64,0.44-1.1,0.44c-0.12,0-0.2-0.12-0.2-0.3v-0.54h-6.24v0.68
			c0,0.14-0.52,0.46-1.08,0.46c-0.14,0-0.22-0.12-0.22-0.3V56.77c0-0.22,0.16-0.32,0.36-0.22l1.04,0.48h1.74
			c0.14-0.62,0.28-1.5,0.36-2.26h-4.28c-0.18,0-0.28-0.1-0.32-0.26c-0.06-0.22,0.06-0.34,0.26-0.34h8.58l0.78-0.96
			C508.65,53.05,508.79,53.05,508.95,53.17z M501.31,59.87h6.24v-2.26h-6.24V59.87z M507.55,62.77v-2.32h-6.24v2.32H507.55z
			 M507.55,63.37h-6.24v2.38h6.24V63.37z M505.43,67.27c5.3,1.16,5.14,4.08,3.68,3.68c-0.14-0.04-0.2-0.1-0.28-0.24
			c-0.72-1.04-2.28-2.32-3.56-3.12c-0.18-0.1-0.24-0.2-0.18-0.28C505.15,67.25,505.25,67.23,505.43,67.27z"/>
		<path class="st0" d="M513.74,55.37c-0.88-1.34,0.12-2.12,1.06-0.8c1.1,1.52-0.82,7.36-1.2,9.6c-0.14,0.76,0.32,0.98,0.56,0.08
			c0.44-1.5,1.02-2.84,1.82-4.06c0.34-0.54,0.66-0.36,0.44,0.2c-0.68,1.8-2.06,5.72-1.6,7.5c0.62,2.22-0.64,2.6-1.5,0.74
			c-0.6-1.36-0.98-2.94-0.66-4.54C513.64,59.29,514.36,56.33,513.74,55.37z M519.1,69.87c3.32-2.28,4.32-5.1,4.14-9.9
			c-1.22,0.1-2.4,0.04-3.52-0.2c-0.66-0.16-0.56-0.7,0.04-0.66c1.3,0.12,2.38,0.06,3.42-0.14c-0.18-3.64-0.08-4.02-0.62-4.46
			c-1-0.84-0.58-1.42,0.5-1.04c0.98,0.38,1.18,1.28,1.28,2.8c0.8,0.64,1.5,1,2.08,1.28c1.08,0.5,1.14,1.4,0.04,1.76
			c-0.66,0.2-1.3,0.38-1.94,0.48c0.2,6.46-2.44,9.22-5.16,10.6C518.78,70.69,518.58,70.23,519.1,69.87z M524.46,58.63
			c0.3-0.1,0.62-0.2,0.94-0.34c0.26-0.12,0.26-0.28,0-0.44c-0.4-0.26-0.72-0.48-1.02-0.74C524.4,57.57,524.42,58.09,524.46,58.63z"
			/>
		<path class="st0" d="M538.56,67.45c-0.52,3.46-6.64,3.36-6.64,0.44c0-2,2.84-2.48,5.5-1.98c0.02-1.24,0.04-2.38,0.06-3.42
			c-1.74,0.06-3.4-0.24-4.8-0.9c-0.68-0.34-0.52-0.92,0.22-0.66c1.38,0.48,2.94,0.6,4.6,0.48c0.02-0.98,0.04-1.86,0.04-2.62
			c-3.1,0.5-4.4,0.12-5.74-0.8c-0.74-0.54-0.48-1.02,0.28-0.66c1.32,0.62,2.94,0.92,5.42,0.38c-0.06-1.4-0.28-2.34-0.76-2.82
			c-0.48-0.5-0.48-1.44,1.02-0.66c0.98,0.52,1.06,1.2,0.96,3.18c0.8-0.24,1.68-0.54,2.66-0.94c1.3-0.54,2.56,0.78,1.22,1.16
			c-1.48,0.4-2.72,0.7-3.78,0.92c0.72,0.84,1.92,1.6,3.2,1.72c0.84,0.06,1.06,0.88,0.02,1.28c-1.12,0.44-2.32,0.72-3.5,0.86
			c-0.02,1.1,0,2.36,0.04,3.78c1.06,0.32,2.02,0.8,2.66,1.38c1.54,1.42,0.38,2.44-0.42,1.58C540.16,68.43,539.38,67.87,538.56,67.45
			z M537.42,66.97c-2.38-0.8-4.64-0.38-4.64,0.86C532.78,69.67,537.36,69.61,537.42,66.97z M540.4,60.99
			c0.32-0.06,0.34-0.3,0.02-0.46c-0.66-0.34-1.28-0.78-1.78-1.4c-0.04,0.62-0.06,1.34-0.08,2.16
			C539.16,61.23,539.78,61.11,540.4,60.99z"/>
		<path class="st0" d="M548.08,57.73c1.64,0.72,4.38,0,8.04-0.46c-0.08-1.08-0.24-2.04-0.54-2.6c-0.66-1.26-0.08-1.52,0.9-0.94
			c0.38,0.24,0.56,0.5,0.66,0.86c2.46,1.66,4.06,2.48,6.34,3.14c1.06,0.3,0.96,1.22-0.2,1.02c-2.4-0.44-4.46-0.56-6.2-0.5
			c-0.02,0.86-0.02,1.9,0.06,3.16c0.18,0.38,0.28,0.84,0.32,1.36c0.16,2.4,0.04,6.96-3.76,7.92c-0.58,0.16-0.7-0.3-0.16-0.52
			c2.22-0.92,2.76-2.74,2.8-4.64c-1.24,1.18-3.32,0.66-3.58-2.6c-0.2-2.6,1.98-3.56,3.44-2.62c0-0.66,0-1.36-0.04-2.02
			c-4.12,0.24-6.44,1.36-7.92,0.84C546.48,58.53,546.94,57.25,548.08,57.73z M556.22,63.11l-0.04-0.4
			c-0.22-2.48-2.74-2.44-2.64,0.16C553.62,65.77,556.06,65.45,556.22,63.11z M560.08,57.31c0.24,0.02,0.2-0.18,0.04-0.28
			c-0.5-0.3-1.88-1.02-2.9-1.66c-0.02,0.46-0.06,1.12-0.1,1.82C558.26,57.19,558.96,57.21,560.08,57.31z"/>
	</g>
</g>
<g>
	<g>
		<path class="st0" d="M113.58,64.41c0-3.64,2.44-5.46,4.92-5.46c2.42,0,4.9,1.82,4.9,5.46c0,3.62-2.44,5.38-4.9,5.38
			C116.02,69.79,113.58,68.03,113.58,64.41z M121.72,64.41c0-2.98-1.22-4.66-3.22-4.66c-2.02,0-3.22,1.68-3.22,4.66
			c0,3,1.2,4.58,3.22,4.58C120.5,68.99,121.72,67.41,121.72,64.41z"/>
		<path class="st0" d="M133.41,58.95c0.56,0,1.12,0.22,1.42,0.56c0.08,0.1,0.1,0.22,0.1,0.36c-0.06,0.74-0.4,1.16-1.12,1.16
			c-0.5,0-0.88-0.24-1.28-0.58l-0.28-0.24c-0.94,0.62-1.58,1.54-2.08,2.92v1.82c0,1.02,0.02,2.54,0.04,3.66l1.56,0.22
			c0.18,0.02,0.28,0.14,0.28,0.32v0.06c0,0.18-0.12,0.3-0.3,0.3h-4.5c-0.18,0-0.3-0.12-0.3-0.3v-0.06c0-0.18,0.1-0.3,0.28-0.32
			l1.36-0.2c0.04-1.12,0.06-2.66,0.06-3.68v-1.1c0-1.28-0.04-2.1-0.08-3.04l-1.5-0.12c-0.18-0.02-0.28-0.12-0.28-0.3v-0.1
			c0-0.16,0.08-0.28,0.24-0.34l2.42-0.9c0.14-0.06,0.26-0.06,0.36,0.02c0.1,0.06,0.14,0.18,0.16,0.32l0.18,2.4
			C130.87,60.03,132.15,58.95,133.41,58.95z"/>
	</g>
</g>
<g>
	<g>
		<path class="st0" d="M61.84,54.77c-0.04-0.2,0.06-0.34,0.26-0.34h5.84l0.7-0.88c0.12-0.14,0.26-0.18,0.42-0.06
			c0.3,0.24,0.8,0.66,1.22,1.04c0.12,0.12,0.18,0.28,0.06,0.4c-0.1,0.06-0.22,0.1-0.38,0.1h-7.8
			C61.98,55.03,61.88,54.93,61.84,54.77z M70.12,67.15c-1.66,0.68-3.94,1.56-7.02,2.64c-0.06,0.12-0.12,0.24-0.2,0.34
			c-0.14,0.12-0.32,0.04-0.4-0.12l-0.6-1.12c-0.1-0.18-0.02-0.34,0.18-0.38c0.96-0.16,2.46-0.48,4.2-0.86
			c0.4-1.2,0.82-2.76,1.08-3.98c0.04-0.2,0.16-0.28,0.36-0.22L69,63.77c0.2,0.06,0.34,0.26,0.14,0.38c-0.12,0.08-0.3,0.14-0.52,0.12
			c-0.38,0.94-1.06,2.18-1.7,3.24l3.1-0.7c0.18-0.04,0.3-0.02,0.32,0.08C70.36,66.99,70.3,67.09,70.12,67.15z M67.98,62.77v-0.5
			h-4.06v0.48c0,0.12-0.48,0.38-0.98,0.38c-0.1,0-0.18-0.12-0.18-0.3v-5.56c0-0.22,0.14-0.32,0.36-0.22l0.9,0.38h3.8l0.46-0.5
			c0.12-0.14,0.28-0.14,0.42-0.02l0.96,0.72c0.16,0.12,0.18,0.32,0,0.42c-0.14,0.06-0.3,0.12-0.46,0.16v4.42
			c-0.02,0.14-0.62,0.44-1.02,0.44h-0.1C68.02,63.07,67.98,62.95,67.98,62.77z M63.74,63.67c2.72,2.02,1.58,4.24,0.54,3.46
			c-0.12-0.1-0.16-0.2-0.16-0.36c-0.02-0.94-0.34-2.04-0.72-2.86c-0.08-0.18-0.08-0.3,0.02-0.34C63.5,63.53,63.6,63.57,63.74,63.67z
			 M67.98,58.03h-4.06v3.66h4.06V58.03z M68.14,70.61c1.86-0.72,3.92-1.94,5.08-3.2c0.12-0.14,0.28-0.16,0.42-0.06l1.04,0.64
			c0.2,0.12,0.24,0.38,0.02,0.38c-0.12,0-0.24-0.02-0.38-0.06c-1.28,1.14-3.82,2.18-6.06,2.68c-0.18,0.04-0.28,0-0.34-0.1
			C67.88,70.79,67.94,70.69,68.14,70.61z M78.8,53.03c0.32,0.24,0.88,0.7,1.32,1.1c0.12,0.12,0.18,0.28,0.06,0.4
			c-0.1,0.06-0.22,0.1-0.38,0.1h-4.02c-0.4,0.84-0.86,1.76-1.3,2.42h2.98l0.52-0.54c0.12-0.12,0.28-0.14,0.42-0.02l0.98,0.76
			c0.16,0.12,0.18,0.32,0,0.42c-0.14,0.06-0.28,0.1-0.46,0.14v8.9c0,0.14-0.02,0.26-0.14,0.34c-0.22,0.12-0.62,0.3-0.94,0.3
			c-0.12,0-0.2-0.12-0.2-0.3v-0.54h-5.12v0.58c0,0.14-0.52,0.44-1.06,0.44c-0.14,0-0.22-0.12-0.22-0.3V56.81
			c0-0.22,0.16-0.32,0.36-0.22l1.02,0.46h1.2c0.14-0.66,0.3-1.62,0.4-2.42h-3.48c-0.18,0-0.28-0.1-0.32-0.26
			c-0.06-0.22,0.06-0.34,0.26-0.34h6.94l0.76-0.94C78.5,52.95,78.64,52.91,78.8,53.03z M72.52,59.99h5.12v-2.34h-5.12V59.99z
			 M77.64,62.97v-2.4h-5.12v2.4H77.64z M77.64,63.55h-5.12v2.38h5.12V63.55z M76.06,67.45c4.74,1.18,4.48,3.96,3.12,3.58
			c-0.16-0.04-0.22-0.14-0.3-0.26c-0.58-1.02-1.9-2.22-2.98-3c-0.18-0.12-0.24-0.22-0.18-0.28C75.78,67.41,75.88,67.41,76.06,67.45z
			"/>
	</g>
</g>
<rect x="40.15" y="46.96" class="st1" width="65.35" height="31.5"/>
<g>
	<g>
		<path class="st0" d="M172.21,54.47c-0.12,0.08-0.3,0.14-0.48,0.18v14.52c0,0.98-0.18,1.6-1.6,1.8c-0.2,0.04-0.3-0.06-0.34-0.26
			c-0.06-0.24-0.16-0.46-0.34-0.6c-0.22-0.2-0.6-0.34-1.22-0.44c-0.18-0.02-0.28-0.1-0.28-0.2s0.12-0.16,0.32-0.14
			c0.52,0.04,1.54,0.12,1.8,0.12c0.36,0,0.44-0.12,0.44-0.42v-5.24h-2.2c-0.16,2.5-0.6,5.08-2.04,7.08
			c-0.12,0.14-0.22,0.2-0.34,0.12s-0.12-0.18-0.04-0.36c1.28-2.86,1.28-6.54,1.28-10v-7c0-0.22,0.12-0.34,0.34-0.24l1.12,0.48h1.7
			l0.44-0.54c0.12-0.16,0.28-0.16,0.42-0.04l1.02,0.78C172.39,54.21,172.41,54.37,172.21,54.47z M170.51,59.01h-2.14v1.6
			c0,0.82,0,1.7-0.04,2.6h2.18V59.01z M168.37,58.43h2.14v-3.96h-2.14V58.43z M184.72,69.77c0,0.52-0.56,0.78-2.94,0.78h-1.48
			c-1.3,0-1.58-0.34-1.58-1.3v-9.34c-0.14,0.14-0.34,0.22-0.74,0.26c-0.5,4.14-1.62,8.24-5.7,10.76c-0.16,0.1-0.28,0.1-0.34,0
			c-0.08-0.12-0.04-0.22,0.12-0.34c1.94-1.52,3.08-3.54,3.78-5.76c-0.14,0.16-0.4,0.22-0.68,0.1c-0.14-0.06-0.2-0.16-0.26-0.3
			c-0.22-0.54-0.66-1.18-1.1-1.7c-0.46,0.84-0.94,1.62-1.48,2.28c-0.12,0.14-0.24,0.16-0.34,0.1c-0.1-0.06-0.1-0.18,0-0.34
			c1.1-1.98,2-4.76,2.42-7.62c0.02-0.2,0.16-0.3,0.34-0.26l1.2,0.28c0.2,0.04,0.32,0.24,0.16,0.38c-0.12,0.08-0.3,0.14-0.52,0.16
			c-0.12,0.5-0.26,1-0.4,1.5h1.42l0.56-0.56c0.12-0.12,0.28-0.14,0.42,0l1.14,1.02v-1.52c0-0.22,0.16-0.32,0.36-0.22l1.06,0.48H182
			l0.4-0.48c0.12-0.16,0.28-0.16,0.42-0.06l1,0.72c0.18,0.14,0.2,0.32,0,0.4c-0.14,0.08-0.3,0.12-0.48,0.16v4.94
			c0,0.92-0.14,1.5-1.32,1.7c-0.2,0.04-0.3-0.06-0.34-0.26c-0.04-0.24-0.12-0.46-0.26-0.58c-0.16-0.16-0.44-0.3-0.86-0.4
			c-0.18-0.04-0.28-0.12-0.28-0.22c0-0.08,0.12-0.14,0.32-0.12c0.38,0.04,1.02,0.08,1.22,0.08c0.28,0,0.36-0.1,0.36-0.36v-4.94
			h-2.28v9.76c0,0.34,0.08,0.46,0.64,0.46h1.26c0.6,0,1.04,0,1.22-0.04c0.16-0.02,0.26-0.06,0.32-0.24c0.12-0.3,0.32-1.48,0.54-2.6
			c0.02-0.18,0.08-0.28,0.16-0.28s0.12,0.12,0.12,0.3l0.06,2.68C184.62,69.39,184.72,69.53,184.72,69.77z M173.35,58.27
			c-0.36,0.4-1.06,0.52-1.34,0.12c-0.22-0.4,0-0.84,0.38-1.14c0.5-0.42,0.98-1.54,1-2.56c0.02-0.2,0.08-0.3,0.18-0.3
			c0.12,0,0.2,0.08,0.24,0.26c0.08,0.28,0.12,0.54,0.14,0.8h3.64v-2.32c0-0.2,0.12-0.3,0.32-0.28l1.18,0.14
			c0.2,0.02,0.36,0.2,0.2,0.34c-0.1,0.06-0.22,0.12-0.4,0.16v1.96h3.52l0.58-0.58c0.14-0.14,0.3-0.14,0.44-0.02l0.98,0.96
			c0.16,0.16,0.14,0.36-0.08,0.4c-0.1,0.02-0.24,0.04-0.42,0.04c-0.46,0.54-1.24,1.28-1.86,1.78c-0.14,0.1-0.24,0.12-0.34,0.06
			c-0.08-0.04-0.1-0.16-0.02-0.34c0.24-0.48,0.5-1.14,0.72-1.7h-8.42C174.02,57.09,173.71,57.87,173.35,58.27z M174.03,62.43
			c1.38,0.54,1.92,1.26,1.98,1.8c0.36-1.34,0.58-2.78,0.72-4.24h-1.74C174.72,60.85,174.39,61.67,174.03,62.43z"/>
	</g>
</g>
<rect x="142.83" y="46.96" class="st1" width="65.35" height="31.5"/>
<g>
	<g>
		<path class="st0" d="M220.48,64.41c0-3.64,2.44-5.46,4.92-5.46c2.42,0,4.9,1.82,4.9,5.46c0,3.62-2.44,5.38-4.9,5.38
			C222.92,69.79,220.48,68.03,220.48,64.41z M228.62,64.41c0-2.98-1.22-4.66-3.22-4.66c-2.02,0-3.22,1.68-3.22,4.66
			c0,3,1.2,4.58,3.22,4.58C227.4,68.99,228.62,67.41,228.62,64.41z"/>
		<path class="st0" d="M240.3,58.95c0.56,0,1.12,0.22,1.42,0.56c0.08,0.1,0.1,0.22,0.1,0.36c-0.06,0.74-0.4,1.16-1.12,1.16
			c-0.5,0-0.88-0.24-1.28-0.58l-0.28-0.24c-0.94,0.62-1.58,1.54-2.08,2.92v1.82c0,1.02,0.02,2.54,0.04,3.66l1.56,0.22
			c0.18,0.02,0.28,0.14,0.28,0.32v0.06c0,0.18-0.12,0.3-0.3,0.3h-4.5c-0.18,0-0.3-0.12-0.3-0.3v-0.06c0-0.18,0.1-0.3,0.28-0.32
			l1.36-0.2c0.04-1.12,0.06-2.66,0.06-3.68v-1.1c0-1.28-0.04-2.1-0.08-3.04l-1.5-0.12c-0.18-0.02-0.28-0.12-0.28-0.3v-0.1
			c0-0.16,0.08-0.28,0.24-0.34l2.42-0.9c0.14-0.06,0.26-0.06,0.36,0.02c0.1,0.06,0.14,0.18,0.16,0.32l0.18,2.4
			C237.76,60.03,239.04,58.95,240.3,58.95z"/>
	</g>
</g>
<g>
	<g>
		<path class="st0" d="M284.15,58.75c-0.12,0.06-0.3,0.1-0.48,0.14v10.2c0,0.98-0.22,1.66-1.98,1.9c-0.2,0.04-0.32-0.06-0.38-0.24
			c-0.08-0.3-0.22-0.54-0.46-0.7c-0.32-0.2-0.84-0.36-1.74-0.5c-0.18-0.02-0.28-0.1-0.28-0.2s0.12-0.16,0.32-0.14
			c0.68,0.06,2.28,0.18,2.68,0.18c0.44,0,0.54-0.14,0.54-0.48v-3h-10.48c-0.48,1.82-1.54,3.6-3.8,4.98
			c-0.16,0.1-0.28,0.12-0.36,0.02c-0.08-0.08-0.04-0.2,0.12-0.34c2.66-2.32,3.14-5.22,3.14-8.26v-4.1
			c-0.88,0.76-1.84,1.44-2.82,1.96c-0.16,0.08-0.28,0.06-0.34-0.02c-0.08-0.08-0.02-0.18,0.14-0.3c2.28-1.66,4.46-4.4,5.6-6.88
			c0.08-0.18,0.22-0.24,0.4-0.18l1.4,0.44c0.22,0.08,0.32,0.32,0.1,0.36c-0.12,0.02-0.26,0.02-0.46,0c-0.26,0.42-0.56,0.86-0.88,1.3
			h4.14l0.66-0.64c0.14-0.12,0.28-0.14,0.42,0l0.98,0.9c0.16,0.16,0.16,0.36-0.06,0.42c-0.12,0.02-0.28,0.04-0.46,0.04
			c-0.64,0.72-1.68,1.8-2.62,2.52h5l0.46-0.56c0.12-0.14,0.28-0.18,0.42-0.06l1.08,0.82C284.31,58.45,284.35,58.67,284.15,58.75z
			 M271.57,57.71l0.96,0.42h4.14c0.56-0.74,1.18-1.86,1.58-2.68h-4.56C273.05,56.23,272.35,56.99,271.57,57.71z M272.01,65.33h4.5
			v-3.08h-4.24v0.04C272.27,63.27,272.23,64.31,272.01,65.33z M276.51,61.67v-2.96h-4.24v2.96H276.51z M277.77,61.67h4.6v-2.96h-4.6
			V61.67z M282.37,62.25h-4.6v3.08h4.6V62.25z"/>
		<path class="st0" d="M289.2,60.19c-0.18,0.08-0.3,0.08-0.36-0.02c-0.06-0.1-0.02-0.2,0.12-0.34c1.44-1.28,1.6-2.78,1.6-4.12v-1.84
			c0-0.22,0.14-0.32,0.34-0.24l1.26,0.44c1.38-0.36,2.88-0.82,3.84-1.22c0.14-0.06,0.28-0.04,0.4,0.08l0.9,0.9
			c0.16,0.16,0.16,0.38-0.06,0.38c-0.18,0-0.38-0.04-0.62-0.16c-1.24,0.22-3.14,0.48-4.84,0.58v1.18h4.08l0.64-0.78
			c0.12-0.16,0.26-0.16,0.42-0.04c0.26,0.22,0.72,0.58,1.08,0.92c0.14,0.12,0.2,0.28,0.06,0.4c-0.08,0.06-0.22,0.1-0.38,0.1h-2.36
			v2.6c0,0.08-0.42,0.36-1.06,0.36c-0.12,0-0.2-0.12-0.2-0.3v-2.66h-2.3C291.64,57.65,291.16,59.15,289.2,60.19z M289.4,70.63
			c2.18-0.58,4.64-1.68,6-2.56c0.14-0.1,0.26-0.08,0.4,0.02l1.12,0.82c0.18,0.14,0.18,0.38-0.04,0.38c-0.16,0.02-0.36,0-0.6-0.08
			c-1.66,0.72-4.3,1.46-6.8,1.78c-0.18,0.02-0.3-0.02-0.32-0.12C289.14,70.77,289.2,70.69,289.4,70.63z M305.37,54.91
			c0.28,0.22,0.78,0.62,1.2,1c0.12,0.12,0.18,0.28,0.06,0.4c-0.1,0.06-0.24,0.1-0.4,0.1h-2.84v2.38c0,0.14-0.02,0.26-0.16,0.34
			c-0.1,0.06-0.24,0.12-0.44,0.16l1.2,0.9c0.16,0.12,0.18,0.32,0,0.42c-0.14,0.08-0.3,0.12-0.46,0.16v6.8
			c0,0.14-0.02,0.26-0.14,0.32c-0.22,0.14-0.66,0.32-0.98,0.32c-0.12,0-0.2-0.12-0.2-0.3v-0.54h-8.64v0.66
			c0,0.12-0.54,0.44-1.1,0.44c-0.14,0-0.22-0.12-0.22-0.3v-8.42c0-0.22,0.16-0.32,0.36-0.22l1.06,0.48h8.36l0.64-0.68
			c-0.12,0-0.24,0.02-0.36,0.02s-0.2-0.12-0.2-0.3v-2.64h-2.3c-0.18,1.08-0.74,2.28-2.62,3.1c-0.18,0.08-0.3,0.06-0.36-0.04
			c-0.06-0.08-0.02-0.2,0.14-0.32c1.5-1.14,1.66-2.44,1.66-3.68v-1.64c0-0.22,0.14-0.32,0.34-0.24l1.18,0.4
			c1.46-0.34,3.02-0.78,4-1.16c0.16-0.06,0.3-0.02,0.42,0.1l0.9,0.94c0.14,0.16,0.14,0.38-0.08,0.38c-0.16,0-0.36-0.06-0.6-0.18
			c-1.28,0.2-3.18,0.42-4.92,0.48v1.26h4.36l0.72-0.86C305.07,54.79,305.21,54.79,305.37,54.91z M293.56,62.23h8.64v-1.64h-8.64
			V62.23z M293.56,64.51h8.64v-1.68h-8.64V64.51z M302.21,65.11h-8.64v1.68h8.64V65.11z M299.43,68.35
			c8.92,0.62,6.58,3.48,5.04,2.46c-1.04-0.72-2.78-1.52-5.12-2.1c-0.2-0.06-0.28-0.14-0.26-0.24
			C299.1,68.37,299.23,68.33,299.43,68.35z"/>
		<path class="st0" d="M312.77,70.01c4.76-2.02,6.56-9.32,4.94-10.9c-1.02,0.02-1.82-0.02-2.6-0.16c-0.88,1.34-2.18,2.8-4.2,4.22
			c-0.38,0.26-0.6,0-0.18-0.36c1.84-1.6,3.22-3.52,4.06-6.02c0.32-0.9,0.4-1.58-0.04-1.88c-0.48-0.3-0.44-0.96,0.44-0.8
			c1.54,0.34,1.48,1.4,1.2,2.2c-0.2,0.54-0.44,1.14-0.76,1.76c0.58,0.2,1.26,0.22,4.22,0.12c1.26-0.06,2.78-0.7,3.78-0.34
			c1.44,0.48,1.24,1.32-0.18,1.32c-1.6,0-2.02-0.3-3.7-0.16l-1.1,0.06c1.04,0.54,1.28,1.08,1.14,2.28c-0.32,3.2-2.26,7.44-6.9,9.04
			C312.37,70.55,312.25,70.21,312.77,70.01z"/>
		<path class="st0" d="M331.77,69.97c5.02-2.9,5.5-10.54,3.34-12.46c-0.2-0.18-0.28-0.36-0.24-0.5c-2.48,0.34-3.92,0.48-4.7-0.3
			c-0.94-0.96-0.16-1.62,0.38-1.18c1.6,1.3,2.46,0.76,11.68-0.44c1.58-0.2,1.86,0.94,1.18,1.74c-1.8,2.2-3.46,3.64-5.88,4.86
			c-0.32,3.82-1.8,6.38-5.54,8.64C331.49,70.63,331.31,70.23,331.77,69.97z M336.41,57.05c0.9,0.46,1.2,1.02,1.2,2.84
			c0,0.42,0,0.84-0.04,1.22c1.78-1.3,2.86-2.44,3.78-4.38c0.14-0.26,0.04-0.48-0.2-0.46c-2.06,0.16-3.76,0.4-5.18,0.6
			C336.11,56.91,336.25,56.97,336.41,57.05z"/>
	</g>
</g>
<rect x="253.5" y="46.96" class="st1" width="105.35" height="31.5"/>
</svg>
