<?xml version="1.0" encoding="utf-8"?>
<!-- Generator: Adobe Illustrator 25.4.1, SVG Export Plug-In . SVG Version: 6.00 Build 0)  -->
<svg version="1.1" id="レイヤー_1" xmlns="http://www.w3.org/2000/svg" xmlns:xlink="http://www.w3.org/1999/xlink" x="0px"
	 y="0px" viewBox="0 0 750 30" style="enable-background:new 0 0 750 30;" xml:space="preserve">
<style type="text/css">
	.st0{fill:#463243;}
	.st1{fill:none;stroke:#463243;stroke-miterlimit:10;}
</style>
<g>
	<path class="st0" d="M505.44,8.93c-3.23,0.8-4.85,2.64-5.14,5.35c0.75-0.78,1.68-1.2,2.66-1.2c1.87,0,3.15,1.31,3.15,3.41
		c0,2.34-1.47,3.7-3.49,3.7c-2.27,0-3.67-1.81-3.67-4.83c0-3.36,2.29-6.27,6.4-6.87c0.14-0.02,0.24,0.03,0.27,0.18
		C505.66,8.78,505.58,8.89,505.44,8.93z M502.65,19.54c1.28,0,2.16-0.99,2.16-2.9c0-1.87-0.86-2.72-2.16-2.72
		c-0.82,0-1.67,0.24-2.4,0.96v0.27C500.25,18.02,501.15,19.54,502.65,19.54z"/>
	<path class="st0" d="M515.08,14.34c0,4.27-1.73,5.84-3.54,5.84c-1.83,0-3.57-1.57-3.57-5.84c0-4.29,1.74-5.89,3.57-5.89
		C513.36,8.45,515.08,10.05,515.08,14.34z M511.55,19.54c1.12,0,2.21-1.15,2.21-5.2c0-4.1-1.09-5.23-2.21-5.23
		c-1.15,0-2.22,1.12-2.22,5.23C509.32,18.4,510.4,19.54,511.55,19.54z"/>
	<path class="st0" d="M523.34,7.37c-0.1,0.05-0.22,0.05-0.42,0.03c-1.01,2.14-2.95,4.69-5.65,6.21c-0.14,0.08-0.22,0.08-0.27,0
		c-0.05-0.06-0.02-0.14,0.11-0.24c2.21-1.7,3.91-4.35,4.72-6.59c0.05-0.14,0.16-0.19,0.3-0.13l1.12,0.43
		C523.42,7.15,523.5,7.31,523.34,7.37z M528.37,12.32l0.83,0.7c0.13,0.11,0.14,0.26-0.02,0.32c-0.11,0.05-0.24,0.08-0.4,0.1
		c-0.21,3.52-0.67,6.29-1.44,7.03c-0.42,0.38-0.98,0.59-1.65,0.62c-0.16,0-0.24-0.08-0.26-0.22c-0.03-0.22-0.13-0.42-0.34-0.54
		c-0.22-0.16-0.93-0.34-1.6-0.45c-0.14-0.02-0.21-0.1-0.21-0.18s0.1-0.11,0.26-0.1c0.83,0.06,2.02,0.18,2.39,0.18
		c0.34,0,0.48-0.05,0.66-0.21c0.56-0.46,0.94-3.06,1.12-6.26h-3.91c-0.27,2.62-1.1,5.57-5.84,7.78c-0.14,0.06-0.24,0.05-0.3-0.03
		c-0.06-0.08-0.02-0.18,0.13-0.27c4.11-2.35,4.72-5.15,4.87-7.47h-3.15c-0.13,0-0.24-0.08-0.27-0.21c-0.05-0.18,0.05-0.27,0.21-0.27
		h8.15l0.45-0.48C528.13,12.24,528.25,12.22,528.37,12.32z M526.13,6.75c1.04,2.32,3.38,4.39,5.55,5.51
		c0.13,0.06,0.19,0.13,0.18,0.18c-0.02,0.06-0.1,0.1-0.22,0.13c-0.27,0.08-0.51,0.27-0.69,0.58c-0.08,0.14-0.19,0.18-0.32,0.08
		c-2.03-1.44-3.91-3.7-4.8-6.34c-0.05-0.14-0.02-0.24,0.08-0.29C525.98,6.54,526.06,6.59,526.13,6.75z"/>
	<path class="st0" d="M541.86,17.44c-5.3,0.24-5.63,0.78-6.58-0.1c-0.69-0.66-0.4-1.12,0.26-0.83c1.09,0.51,1.68,0.43,6.18,0.1
		c0.3-0.02,0.58-0.06,0.88-0.08c0.26-1.65,0.34-2.75,0.5-4.29c0.03-0.26-0.06-0.32-0.22-0.32c-7.08,0.34-7.14,0.8-7.86-0.05
		c-0.66-0.77-0.26-1.34,0.45-0.86c1.12,0.75,2.79,0.48,7.64-0.03c1.15-0.13,1.25,0.27,1.06,1.23c-0.21,0.91-0.5,2.58-0.82,4.39
		c0.14,0.03,0.29,0.08,0.43,0.14c0.86,0.38,0.53,1.23-0.18,0.96C543.01,17.47,542.48,17.41,541.86,17.44z"/>
	<path class="st0" d="M557.5,14.64c-6.63-0.46-7.96,1.01-9.46-0.08c-0.94-0.7-0.42-1.2,0.3-0.94c1.55,0.53,2.69,0.5,8.96,0.13
		c0.75-0.05,1.73-0.05,2.27,0.18c0.99,0.4,0.91,1.12-0.02,0.96C559.02,14.79,558.41,14.72,557.5,14.64z"/>
	<path class="st0" d="M560.71,19.46c4.87-2.67,6.96-5.38,8.66-8.9c0.13-0.29,0-0.45-0.3-0.38c-2.18,0.54-4.31,1.1-4.91,0.21
		c-0.61-0.91-0.05-1.26,0.37-1.02c1.18,0.71,2.82,0.61,4.75-0.08c1.28-0.45,2.19,0.35,1.49,1.47c-0.99,1.6-1.87,2.88-2.75,3.95
		c1.68,0.42,2.99,1.22,3.86,2.87c0.66,1.23-0.79,1.82-1.41,0.54c-0.69-1.42-1.47-2.38-2.79-3.01c-1.87,2.11-3.81,3.34-6.83,4.74
		C560.44,20.04,560.24,19.72,560.71,19.46z"/>
	<path class="st0" d="M580.2,19.2c-0.29-0.37-0.71-0.66-1.09-0.86c-0.59-0.3-0.48-0.71,0.16-0.51c0.45,0.14,1.49,0.7,1.97,0.16
		c2.16-2.43,2.53-7.14-1.33-5.73c-0.91,2.64-2.67,5.87-3.7,7.63c-0.43,0.75-1.34,0.22-0.82-0.54c2-2.83,3.14-5.06,3.71-6.74
		c-1.09,0.56-1.81,1.36-2.88,1.06c-1.14-0.35-1.02-1.12,0.06-0.99c1.1,0.11,2.39-0.48,2.74-0.67l0.34-0.18
		c0.4-1.47,0.34-2.43,0.06-2.9c-0.45-0.78,0.18-1.14,0.75-0.48c0.46,0.54,0.37,1.67-0.03,3.06c4.16-1.41,4.75,4.05,1.65,7.73
		C581.25,19.89,580.62,19.7,580.2,19.2z M585.37,15.06c2-0.05,2.18-0.98,0.37-3.2c-0.34-0.4-0.13-0.69,0.37-0.34
		c1.18,0.83,1.84,1.68,2.06,3.19c0.1,0.72-0.24,1.1-0.98,1.1c-0.75,0-1.55-0.13-1.94-0.24C584.91,15.47,584.79,15.06,585.37,15.06z"
		/>
	<path class="st0" d="M594,20.15c10.4,0.08,7.08-10.71-0.08-3.51c-1.15,1.15-2.3,0.56-2.22-0.8c0.06-1.18,0.34-3.06,0.54-4.47
		c0.21-1.41,1.57-1.5,2.98-1.7c0.22-0.03,0.22-0.22,0.13-0.35c-0.42-0.62-0.91-0.91-1.63-1.2c-0.5-0.21-0.29-0.48,0-0.48
		c1.79,0.06,2.3,0.53,2.8,1.31c0.67,1.02,0.35,1.79-0.91,1.46c-2.05-0.56-2.5,0.03-2.59,0.96c-0.05,0.43-0.29,2.54-0.45,3.58
		c-0.13,1.06,0.59,0.85,1.22,0.42c9.12-6.53,11.36,5.84,0.19,5.14C593.46,20.48,593.51,20.13,594,20.15z"/>
	<path class="st0" d="M612.34,15.39c0.22-0.26,0.53-0.19,0.29,0.24c-0.82,1.49-0.69,3.28,0.61,3.31c4.15,0.08,3.19-6.18-1.49-4.11
		c-0.72,0.32-1.38,0.72-1.98,1.15c0.02,0.75,0.06,1.58,0.13,2.5c0.11,1.65-0.99,2.14-1.65,1.15c-0.43-0.64-0.91-1.12-1.39-1.44
		c-0.45,0.29-0.85,0.48-1.22,0.48c-1.38,0-1.47-1.33,0.02-1.33c0.22,0,0.56,0.1,0.91,0.22c0.64-0.42,1.52-1.09,2.48-1.76
		c0.02-0.98,0.02-1.94,0-2.83c-1.33,0.45-2.3,0.48-3.11-0.38c-0.35-0.4-0.13-0.66,0.27-0.43c0.99,0.59,1.62,0.58,2.82,0.03
		c-0.05-1.83-0.21-3.22-0.62-3.51c-0.61-0.42-0.32-1.18,0.66-0.62c0.72,0.4,0.83,0.86,0.8,2.03c0.38,0.26,0.82,0.43,1.36,0.5
		c1.22,0.18,1.23,1.02,0.14,1.47c-0.59,0.24-1.12,0.46-1.62,0.66c-0.02,0.74-0.03,1.6-0.02,2.62c0.62-0.42,1.26-0.8,1.89-1.12
		c5.83-2.9,7.49,5.7,1.55,5.49C610.92,19.64,611.42,16.5,612.34,15.39z M605.62,18.02c0.13,0,0.29-0.06,0.51-0.19
		c-0.19-0.05-0.37-0.08-0.53-0.08C605.17,17.75,605.09,18.03,605.62,18.02z M608.47,18.5c0.26,0.16,0.58,0.26,0.58-0.22v-1.76
		c-0.64,0.5-1.22,0.99-1.75,1.38C607.86,18.16,608.34,18.43,608.47,18.5z M610.39,11.5c0.29-0.14,0.27-0.29,0-0.46
		c-0.19-0.13-0.37-0.29-0.54-0.43l-0.06,1.22L610.39,11.5z M617.68,11.2c0.77,0.83-0.19,1.75-0.93,0.74
		c-0.48-0.7-1.55-1.33-2.59-0.48c-0.38,0.32-0.45,0.03-0.26-0.24C614.7,10.11,616.65,10.13,617.68,11.2z"/>
	<path class="st0" d="M620.82,14.13c-0.4,0.27-0.96,0.27-1.12-0.11c-0.14-0.34,0.08-0.66,0.4-0.85c0.59-0.3,1.04-1.12,1.02-2.05
		c0-0.16,0.05-0.26,0.13-0.26s0.14,0.06,0.19,0.19c0.06,0.21,0.11,0.4,0.14,0.58h7.57c0.59-0.9,1.23-2.1,1.65-3.07
		c0.05-0.14,0.16-0.19,0.3-0.14l1.18,0.37c0.16,0.05,0.24,0.22,0.1,0.3c-0.11,0.06-0.26,0.1-0.45,0.08
		c-0.54,0.75-1.46,1.71-2.34,2.46h2.88l0.51-0.51c0.11-0.11,0.22-0.11,0.34-0.02l0.86,0.85c0.13,0.11,0.13,0.27-0.05,0.32
		l-0.34,0.05c-0.43,0.45-1.14,1.09-1.71,1.52c-0.11,0.08-0.18,0.1-0.26,0.05c-0.06-0.03-0.06-0.13,0-0.27
		c0.22-0.43,0.48-1.01,0.66-1.5h-10.85C621.7,13.15,621.28,13.84,620.82,14.13z M631.6,14.8c-0.11,0.03-0.26,0.05-0.48,0.06
		c-0.82,1.31-1.86,2.43-3.15,3.36c1.73,0.88,3.79,1.44,5.99,1.78c0.16,0.02,0.24,0.08,0.22,0.13c-0.02,0.06-0.08,0.08-0.21,0.13
		c-0.34,0.13-0.59,0.37-0.75,0.74c-0.06,0.13-0.16,0.19-0.3,0.16c-2.22-0.48-4.21-1.23-5.81-2.35c-1.89,1.14-4.24,1.92-7.08,2.35
		c-0.16,0.02-0.24,0-0.27-0.1c-0.03-0.08,0.05-0.14,0.21-0.19c2.5-0.58,4.69-1.42,6.43-2.59c-1.18-0.96-2.11-2.14-2.77-3.6h-1.68
		c-0.13,0-0.22-0.05-0.27-0.19c-0.05-0.18,0.05-0.27,0.21-0.27h7.99l0.61-0.53c0.11-0.11,0.22-0.1,0.34,0l0.82,0.78
		C631.76,14.59,631.76,14.74,631.6,14.8z M632.26,7.77c-0.16,0.02-0.37-0.03-0.59-0.14c-2.85,0.48-7.11,0.96-10.87,1.09
		c-0.14,0-0.24-0.05-0.26-0.16c-0.02-0.08,0.06-0.16,0.22-0.16c3.57-0.34,7.96-1.12,10.42-1.81c0.13-0.03,0.22-0.02,0.32,0.08
		l0.8,0.8C632.44,7.6,632.44,7.77,632.26,7.77z M622.37,8.93c2.66,1.1,1.92,2.98,1.01,2.46c-0.11-0.06-0.14-0.14-0.18-0.26
		c-0.14-0.67-0.59-1.44-1.02-1.97c-0.11-0.13-0.14-0.21-0.08-0.26C622.18,8.86,622.24,8.88,622.37,8.93z M627.12,17.75
		c1.14-0.88,2.05-1.9,2.71-3.07H624C624.74,15.94,625.81,16.95,627.12,17.75z M625.95,8.65c2.51,1.34,1.67,3.22,0.77,2.66
		c-0.11-0.08-0.14-0.16-0.16-0.29c-0.06-0.72-0.43-1.57-0.82-2.16c-0.08-0.13-0.11-0.22-0.05-0.26
		C625.74,8.57,625.83,8.59,625.95,8.65z"/>
	<path class="st0" d="M637.4,8.64c-0.7-1.07,0.1-1.7,0.85-0.64c0.88,1.22-0.66,5.89-0.96,7.68c-0.11,0.61,0.26,0.78,0.45,0.06
		c0.35-1.2,0.82-2.27,1.46-3.25c0.27-0.43,0.53-0.29,0.35,0.16c-0.54,1.44-1.65,4.58-1.28,6c0.5,1.78-0.51,2.08-1.2,0.59
		c-0.48-1.09-0.78-2.35-0.53-3.63C637.32,11.78,637.9,9.41,637.4,8.64z M641.69,20.24c2.66-1.82,3.46-4.08,3.31-7.92
		c-0.98,0.08-1.92,0.03-2.82-0.16c-0.53-0.13-0.45-0.56,0.03-0.53c1.04,0.1,1.9,0.05,2.74-0.11c-0.14-2.91-0.06-3.22-0.5-3.57
		c-0.8-0.67-0.46-1.14,0.4-0.83c0.78,0.3,0.94,1.02,1.02,2.24c0.64,0.51,1.2,0.8,1.67,1.02c0.86,0.4,0.91,1.12,0.03,1.41
		c-0.53,0.16-1.04,0.3-1.55,0.38c0.16,5.17-1.95,7.38-4.13,8.48C641.43,20.9,641.27,20.53,641.69,20.24z M645.98,11.25
		c0.24-0.08,0.5-0.16,0.75-0.27c0.21-0.1,0.21-0.22,0-0.35c-0.32-0.21-0.58-0.38-0.82-0.59C645.93,10.4,645.95,10.82,645.98,11.25z"
		/>
	<path class="st0" d="M651.26,10.3c-0.43-0.59-0.16-1.04,0.62-0.54c2.53,1.58-0.4,8.07,2.85,7.79c0.42-0.03,0.34-0.93,0.88-1.54
		c0.26-0.29,0.51-0.14,0.35,0.24c-0.21,0.45-0.32,1.31,0,1.6c0.46,0.45,0.74,1.26-1.31,0.91C650.67,18.07,653.28,12.93,651.26,10.3z
		 M660.85,11.38c1.3,0.13,3.2,1.09,2.91,3.14c-0.19,1.36-1.79,1.06-1.42-0.03c0.53-1.54-0.5-2.46-1.49-2.67
		C660.31,11.66,660.37,11.33,660.85,11.38z"/>
	<path class="st0" d="M666.2,18.79c1.33-2.93,2.26-5.14,2.79-6.79c-0.9,0.1-1.73,0.02-2.3-0.24c-0.66-0.3-0.35-0.78,0.21-0.53
		c0.5,0.22,1.39,0.22,2.35-0.06c0.34-1.25,0.37-2.08,0.08-2.61c-0.58-1.02-0.16-1.34,0.67-0.7c0.45,0.35,0.58,0.9,0.48,1.68
		c0.61,0.26,1.2,0.42,1.58,0.53c0.45,0.11,0.51,0.51,0.21,0.74c-0.7,0.51-1.54,0.86-2.38,1.06c-0.59,1.78-1.54,4.21-2.59,7.51
		C666.68,21.28,665.83,19.62,666.2,18.79z M670.73,10.51c0.18-0.11,0.18-0.18,0-0.29c-0.08-0.06-0.19-0.13-0.34-0.22
		c-0.05,0.26-0.11,0.51-0.19,0.8C670.38,10.72,670.56,10.62,670.73,10.51z M673.05,14.96c-1.84,3.31-0.48,4.53,3.57,3.94
		c1.22-0.18,1.89,1.14,0.51,1.25c-4.93,0.42-7.08-1.41-4.34-5.27C672.99,14.63,673.16,14.72,673.05,14.96z M676.12,11.07
		c0.8,0.32,0.85,1.06,0.18,1.23c-0.98,0.27-2.11,0.91-2.8,1.73c-0.19,0.22-0.32,0.06-0.19-0.14c0.4-0.7,1.06-1.33,1.95-1.87
		c0.18-0.1,0.1-0.19-0.03-0.22c-0.91-0.19-1.57-0.13-2.61,0.13c-0.38,0.1-0.46-0.18-0.11-0.35
		C673.47,11.02,675.33,10.74,676.12,11.07z"/>
	<path class="st0" d="M681.29,18.79c1.33-2.93,2.26-5.14,2.79-6.79c-0.88,0.1-1.71,0.02-2.29-0.24c-0.67-0.3-0.37-0.78,0.19-0.53
		c0.5,0.22,1.39,0.22,2.35-0.06c0.34-1.25,0.37-2.08,0.08-2.61c-0.58-1.02-0.14-1.34,0.67-0.7c0.45,0.35,0.58,0.9,0.48,1.68
		c0.61,0.26,1.2,0.42,1.58,0.53c0.46,0.11,0.51,0.51,0.21,0.74c-0.7,0.51-1.54,0.86-2.38,1.06c-0.59,1.78-1.54,4.21-2.59,7.51
		C681.77,21.28,680.92,19.62,681.29,18.79z M685.82,10.51c0.18-0.11,0.18-0.18,0-0.29c-0.08-0.06-0.19-0.13-0.34-0.22
		c-0.05,0.26-0.11,0.51-0.19,0.8C685.46,10.72,685.64,10.62,685.82,10.51z M688.14,14.96c-1.84,3.31-0.48,4.53,3.57,3.94
		c1.22-0.18,1.89,1.14,0.51,1.25c-4.91,0.42-7.06-1.41-4.32-5.27C688.07,14.63,688.25,14.72,688.14,14.96z M691.23,11.07
		c0.78,0.32,0.83,1.06,0.16,1.23c-0.98,0.27-2.11,0.91-2.8,1.73c-0.19,0.22-0.32,0.06-0.19-0.14c0.42-0.7,1.06-1.33,1.95-1.87
		c0.18-0.1,0.1-0.19-0.02-0.22c-0.91-0.19-1.58-0.13-2.62,0.13c-0.38,0.1-0.45-0.18-0.1-0.35
		C688.55,11.02,690.41,10.74,691.23,11.07z M690.92,8.41c0.82,0.34,1.31,0.69,1.75,1.46c0.48,0.93-0.58,1.33-1.01,0.43
		c-0.22-0.53-0.62-1.09-1.01-1.42C690.33,8.57,690.51,8.25,690.92,8.41z M692.51,8.14c0.62,0.19,1.31,0.56,1.71,1.2
		c0.43,0.74-0.5,1.34-0.96,0.45c-0.22-0.45-0.58-0.88-0.98-1.17C691.95,8.37,692.07,8.02,692.51,8.14z"/>
	<path class="st0" d="M697.32,8.64c-0.7-1.07,0.1-1.7,0.85-0.64c0.88,1.22-0.66,5.89-0.96,7.68c-0.11,0.61,0.26,0.78,0.45,0.06
		c0.35-1.2,0.82-2.27,1.46-3.25c0.27-0.43,0.53-0.29,0.35,0.16c-0.54,1.44-1.65,4.58-1.28,6c0.5,1.78-0.51,2.08-1.2,0.59
		c-0.48-1.09-0.78-2.35-0.53-3.63C697.24,11.78,697.81,9.41,697.32,8.64z M701.61,20.24c2.66-1.82,3.46-4.08,3.31-7.92
		c-0.98,0.08-1.92,0.03-2.82-0.16c-0.53-0.13-0.45-0.56,0.03-0.53c1.04,0.1,1.9,0.05,2.74-0.11c-0.14-2.91-0.06-3.22-0.5-3.57
		c-0.8-0.67-0.46-1.14,0.4-0.83c0.78,0.3,0.94,1.02,1.02,2.24c0.64,0.51,1.2,0.8,1.67,1.02c0.86,0.4,0.91,1.12,0.03,1.41
		c-0.53,0.16-1.04,0.3-1.55,0.38c0.16,5.17-1.95,7.38-4.13,8.48C701.35,20.9,701.19,20.53,701.61,20.24z M705.9,11.25
		c0.24-0.08,0.5-0.16,0.75-0.27c0.21-0.1,0.21-0.22,0-0.35c-0.32-0.21-0.58-0.38-0.82-0.59C705.85,10.4,705.87,10.82,705.9,11.25z"
		/>
	<path class="st0" d="M717.53,18.31c-0.42,2.77-5.31,2.69-5.31,0.35c0-1.6,2.27-1.98,4.4-1.58c0.02-0.99,0.03-1.91,0.05-2.74
		c-1.39,0.05-2.72-0.19-3.84-0.72c-0.54-0.27-0.42-0.74,0.18-0.53c1.1,0.38,2.35,0.48,3.68,0.38c0.02-0.78,0.03-1.49,0.03-2.1
		c-2.48,0.4-3.52,0.1-4.59-0.64c-0.59-0.43-0.38-0.82,0.22-0.53c1.06,0.5,2.35,0.74,4.34,0.3c-0.05-1.12-0.22-1.87-0.61-2.26
		c-0.38-0.4-0.38-1.15,0.82-0.53c0.78,0.42,0.85,0.96,0.77,2.54c0.64-0.19,1.34-0.43,2.13-0.75c1.04-0.43,2.05,0.62,0.98,0.93
		c-1.18,0.32-2.18,0.56-3.02,0.74c0.58,0.67,1.54,1.28,2.56,1.38c0.67,0.05,0.85,0.7,0.02,1.02c-0.9,0.35-1.86,0.58-2.8,0.69
		c-0.02,0.88,0,1.89,0.03,3.03c0.85,0.26,1.62,0.64,2.13,1.1c1.23,1.14,0.3,1.95-0.34,1.26C718.81,19.09,718.19,18.64,717.53,18.31z
		 M716.62,17.92c-1.9-0.64-3.71-0.3-3.71,0.69C712.91,20.08,716.57,20.04,716.62,17.92z M719,13.14c0.26-0.05,0.27-0.24,0.02-0.37
		c-0.53-0.27-1.02-0.62-1.42-1.12c-0.03,0.5-0.05,1.07-0.06,1.73C718.01,13.33,718.51,13.23,719,13.14z"/>
	<path class="st0" d="M725.49,10.53c1.31,0.58,3.51,0,6.43-0.37c-0.06-0.86-0.19-1.63-0.43-2.08c-0.53-1.01-0.06-1.22,0.72-0.75
		c0.3,0.19,0.45,0.4,0.53,0.69c1.97,1.33,3.25,1.98,5.07,2.51c0.85,0.24,0.77,0.98-0.16,0.82c-1.92-0.35-3.57-0.45-4.96-0.4
		c-0.02,0.69-0.02,1.52,0.05,2.53c0.14,0.3,0.22,0.67,0.26,1.09c0.13,1.92,0.03,5.57-3.01,6.34c-0.46,0.13-0.56-0.24-0.13-0.42
		c1.78-0.74,2.21-2.19,2.24-3.71c-0.99,0.94-2.66,0.53-2.87-2.08c-0.16-2.08,1.58-2.85,2.75-2.1c0-0.53,0-1.09-0.03-1.62
		c-3.3,0.19-5.15,1.09-6.34,0.67C724.21,11.17,724.58,10.14,725.49,10.53z M732.01,14.83l-0.03-0.32c-0.18-1.98-2.19-1.95-2.11,0.13
		C729.92,16.96,731.88,16.71,732.01,14.83z M735.09,10.19c0.19,0.02,0.16-0.14,0.03-0.22c-0.4-0.24-1.5-0.82-2.32-1.33
		c-0.02,0.37-0.05,0.9-0.08,1.46C733.64,10.1,734.2,10.11,735.09,10.19z"/>
	<path class="st0" d="M740.43,19.01c0-1.23,1.02-2.24,2.26-2.24c1.23,0,2.24,1.01,2.24,2.24s-1.01,2.26-2.24,2.26
		C741.46,21.27,740.43,20.24,740.43,19.01z M740.98,19.01c0,0.94,0.75,1.71,1.71,1.71c0.95,0,1.7-0.77,1.7-1.71s-0.75-1.7-1.7-1.7
		C741.73,17.31,740.98,18.07,740.98,19.01z"/>
</g>
<g>
	<g>
		<path class="st0" d="M22.21,7.93c0.26,0.19,0.74,0.58,1.12,0.93c0.11,0.09,0.15,0.21,0.04,0.3c-0.06,0.04-0.15,0.08-0.28,0.08
			h-6.25v2.44c4.86,1.11,4.93,3.54,3.76,3.25c-0.11-0.03-0.17-0.07-0.22-0.17c-0.72-0.94-2.28-2.07-3.54-2.76v8.91
			c0,0.1-0.36,0.36-0.86,0.36c-0.09,0-0.15-0.09-0.15-0.22V9.24h-5.8c-0.14,0-0.21-0.08-0.24-0.2c-0.04-0.17,0.04-0.25,0.2-0.25
			h11.23l0.67-0.83C21.99,7.84,22.09,7.84,22.21,7.93z"/>
		<path class="st0" d="M29.42,21c-0.15,0.03-0.24-0.05-0.27-0.18c-0.04-0.21-0.11-0.39-0.25-0.5c-0.17-0.15-0.45-0.25-0.93-0.34
			c-0.13-0.01-0.21-0.08-0.21-0.15c0-0.08,0.09-0.11,0.24-0.11c0.39,0.04,1.19,0.11,1.38,0.11c0.25,0,0.33-0.09,0.33-0.32v-3.78
			h-2.07c-0.15,1.86-0.53,3.81-1.58,5.37c-0.08,0.12-0.17,0.17-0.24,0.12c-0.09-0.06-0.09-0.13-0.04-0.27c0.99-2.43,1-5.41,1-8.13
			V8.17c0-0.17,0.09-0.25,0.25-0.18l0.87,0.38h1.68l0.33-0.41c0.09-0.1,0.21-0.13,0.32-0.04l0.79,0.62c0.13,0.1,0.15,0.22,0.01,0.3
			c-0.1,0.06-0.24,0.11-0.38,0.13v10.65C30.67,20.38,30.53,20.85,29.42,21z M29.71,12.19h-2v0.63c0,0.76,0,1.62-0.06,2.49h2.05
			V12.19z M27.71,11.77h2V8.82h-2V11.77z M38.9,13.8c-0.1,0.03-0.24,0.03-0.43,0.04c-0.6,1.61-1.44,3.06-2.64,4.29
			c1.09,0.93,2.42,1.63,3.92,2.1c0.13,0.04,0.21,0.11,0.19,0.15c-0.01,0.06-0.08,0.08-0.19,0.1c-0.3,0.09-0.53,0.27-0.69,0.56
			c-0.08,0.12-0.17,0.17-0.3,0.1c-1.42-0.58-2.61-1.38-3.57-2.42c-1.2,1.05-2.71,1.88-4.62,2.48c-0.14,0.04-0.21,0.03-0.25-0.04
			c-0.05-0.08,0.01-0.15,0.15-0.21c1.71-0.7,3.12-1.63,4.25-2.77c-0.93-1.2-1.61-2.67-2.01-4.47h-1.26c-0.12,0-0.23-0.08-0.26-0.2
			c-0.04-0.17,0.04-0.25,0.2-0.25h3.2v-2.58h-3.25c-0.14,0-0.21-0.07-0.24-0.19c-0.04-0.17,0.04-0.25,0.2-0.25h3.3V7.8
			c0-0.15,0.09-0.22,0.24-0.21l0.95,0.09c0.15,0.02,0.27,0.15,0.15,0.27c-0.08,0.06-0.2,0.12-0.36,0.15v2.13h2.22l0.57-0.69
			c0.09-0.11,0.19-0.13,0.31-0.04c0.23,0.18,0.63,0.51,0.96,0.81c0.11,0.09,0.15,0.21,0.04,0.3c-0.07,0.04-0.17,0.07-0.28,0.07
			h-3.83v2.58h1.83l0.5-0.45c0.1-0.1,0.22-0.1,0.33,0l0.72,0.68C39.04,13.6,39.05,13.75,38.9,13.8z M35.24,17.59
			c0.97-1.14,1.69-2.45,2.16-3.88h-4.4C33.47,15.25,34.24,16.54,35.24,17.59z"/>
	</g>
</g>
<rect x="1" y="3.19" class="st1" width="49.01" height="23.62"/>
<g>
	<g>
		<path class="st0" d="M162.56,12.49c-0.03,0.1-0.08,0.18-0.13,0.24c-0.1,0.09-0.22,0.04-0.3-0.09l-0.44-0.73
			c-0.09-0.13-0.04-0.25,0.14-0.27c0.93-0.13,2.56-0.43,4.29-0.75V9.6h-3.78c-0.12,0-0.21-0.04-0.25-0.18s0.03-0.24,0.19-0.24h3.84
			V7.77c0-0.15,0.09-0.23,0.24-0.21l0.99,0.1c0.15,0.01,0.25,0.15,0.15,0.25c-0.08,0.09-0.21,0.15-0.44,0.18v4.74
			c0,0.11-0.41,0.32-0.76,0.32c-0.11,0-0.18-0.09-0.18-0.23V11.2C165.23,11.55,164.06,11.98,162.56,12.49z M171.86,13.24l0.88,0.63
			c0.14,0.1,0.14,0.24,0,0.31c-0.12,0.06-0.27,0.12-0.42,0.15v5.52c0,0.72-0.17,1.19-1.38,1.35c-0.15,0.03-0.22-0.04-0.27-0.18
			c-0.04-0.21-0.14-0.38-0.3-0.46c-0.2-0.15-0.53-0.27-1.1-0.34c-0.13-0.03-0.21-0.08-0.21-0.15s0.09-0.12,0.24-0.1
			c0.43,0.03,1.41,0.1,1.67,0.1c0.29,0,0.36-0.1,0.36-0.31v-1.5h-6.18v2.65c0,0.12-0.38,0.35-0.79,0.35c-0.1,0-0.17-0.09-0.17-0.23
			v-7.51c0-0.17,0.12-0.24,0.27-0.17l0.78,0.35h5.95l0.35-0.42C171.63,13.15,171.75,13.17,171.86,13.24z M165.15,15.72h6.18v-1.58
			h-6.18V15.72z M171.33,16.17h-6.18v1.65h6.18V16.17z M174.74,12.15c0,0.45-0.46,0.61-2.73,0.61h-1.58c-1.16,0-1.37-0.22-1.37-0.94
			V7.77c0-0.15,0.09-0.23,0.24-0.21l0.87,0.1c0.15,0.01,0.25,0.15,0.13,0.25c-0.08,0.06-0.17,0.11-0.3,0.13v1.77
			c1.08-0.45,2.29-1.08,3.01-1.56c0.12-0.07,0.21-0.06,0.32,0.02l0.78,0.64c0.14,0.12,0.14,0.29-0.04,0.3
			c-0.12,0-0.29-0.03-0.46-0.1c-0.92,0.34-2.33,0.81-3.6,1.08v1.42c0,0.22,0.04,0.29,0.58,0.29h1.46c0.63,0,1.14-0.02,1.33-0.03
			c0.15,0,0.24-0.04,0.3-0.13c0.08-0.18,0.22-0.67,0.36-1.25c0.03-0.13,0.07-0.2,0.13-0.2c0.06,0,0.09,0.09,0.09,0.23l0.03,1.23
			C174.65,11.88,174.74,11.98,174.74,12.15z"/>
		<path class="st0" d="M190.5,11.16c-0.12,0.06-0.27,0.12-0.44,0.15v5c0,0.11-0.01,0.2-0.1,0.24c-0.17,0.1-0.51,0.22-0.75,0.22
			c-0.11,0-0.17-0.09-0.17-0.22v-1.02h-4.37v5.34c0,0.15-0.43,0.41-0.81,0.41c-0.12,0-0.2-0.09-0.2-0.22v-5.52h-4.36v1.08
			c0,0.11-0.41,0.33-0.83,0.33c-0.09,0-0.15-0.09-0.15-0.22v-6.24c0-0.17,0.12-0.25,0.27-0.18l0.81,0.39h4.26V7.75
			c0-0.15,0.09-0.22,0.24-0.21l1.05,0.12c0.15,0.01,0.25,0.13,0.15,0.25c-0.08,0.09-0.21,0.17-0.44,0.2v2.56h4.21l0.42-0.46
			c0.09-0.1,0.21-0.12,0.31-0.03l0.87,0.68C190.62,10.96,190.63,11.08,190.5,11.16z M183.67,11.11h-4.36v3.96h4.36V11.11z
			 M189.04,11.11h-4.37v3.96h4.37V11.11z"/>
	</g>
</g>
<rect x="151.58" y="3.19" class="st1" width="49.01" height="23.62"/>
<rect x="57.46" y="3.19" class="st1" width="86.71" height="23.62"/>
<g>
	<g>
		<path class="st0" d="M73.33,20.95c2.94-0.63,5.16-3.31,5.47-6.64c0.06-0.79,0.06-1.32-0.3-1.71c-2.91,0.25-3.35,0.55-4.04,0.15
			c-0.86-0.5-0.54-1.12,0.08-0.92c1.33,0.48,3.01,0.29,6.43-0.11c0.95-0.1,1.59-0.29,2.17-0.01c0.97,0.45,0.71,1.09-0.01,0.9
			c-0.63-0.18-1.21-0.21-1.96-0.19c-0.79,0.03-1.49,0.08-2.08,0.12c0.27,0.17,0.46,0.31,0.69,0.5c0.55,0.49,0.24,0.88,0.17,1.03
			c-0.09,0.14-0.12,0.33-0.15,0.58c-0.36,3.72-3.49,6.13-6.4,6.58C73.05,21.28,73,21.02,73.33,20.95z M75.73,9.5
			c1.02,0.38,1.86,0.21,3.67-0.24c0.53-0.12,1.09-0.33,1.67-0.04c0.75,0.36,0.54,0.86,0.01,0.83c-0.51-0.03-0.79-0.04-1.44,0
			c-2.99,0.15-3.55,0.64-4.11,0.21C74.85,9.73,75.24,9.31,75.73,9.5z M81.72,8.12c0.78,0.3,1.25,0.63,1.65,1.37
			c0.45,0.87-0.54,1.23-0.95,0.39c-0.21-0.48-0.58-1-0.94-1.32C81.16,8.27,81.34,7.97,81.72,8.12z M83.22,7.85
			c0.58,0.19,1.23,0.54,1.61,1.12c0.41,0.7-0.46,1.26-0.9,0.43c-0.21-0.43-0.54-0.83-0.92-1.09C82.69,8.08,82.81,7.75,83.22,7.85z"
			/>
		<path class="st0" d="M95.17,18.04c-4.96,0.22-5.28,0.73-6.17-0.09c-0.64-0.61-0.38-1.05,0.24-0.78c1.02,0.48,1.58,0.4,5.79,0.09
			c0.28-0.01,0.54-0.06,0.82-0.08c0.24-1.54,0.32-2.58,0.46-4.02c0.03-0.24-0.06-0.3-0.21-0.3c-6.63,0.31-6.69,0.75-7.36-0.04
			c-0.62-0.72-0.24-1.26,0.42-0.81c1.05,0.71,2.61,0.45,7.15-0.03c1.08-0.12,1.17,0.26,0.99,1.16c-0.19,0.86-0.46,2.42-0.76,4.11
			c0.13,0.03,0.27,0.07,0.41,0.13c0.81,0.36,0.49,1.15-0.17,0.9C96.25,18.07,95.75,18.01,95.17,18.04z"/>
		<path class="st0" d="M104.35,13.43c0.03-0.71,0.1-1.06-0.39-1.51c-0.46-0.45-0.31-0.84,0.21-0.72c1.53,0.36,1.7,1.09,1.46,1.56
			c-0.1,0.17-0.15,0.39-0.15,0.65c-0.17,3.4-1.83,6.24-5.01,7.77c-0.23,0.12-0.39-0.09-0.08-0.27
			C102.62,19.61,104.23,16.45,104.35,13.43z M107.42,17.42c0.11-6,0.2-6.27-0.4-6.69c-0.5-0.36-0.5-0.98,0.3-0.77
			c1.63,0.41,1.35,1.14,1.26,1.5c-0.04,0.2-0.08,0.42-0.09,0.93c-0.09,1.62-0.12,2.39-0.12,4.52c0,0.22,0.13,0.28,0.33,0.19
			c1.67-0.87,2.7-1.72,4.54-3.49c0.34-0.32,0.55-0.03,0.31,0.24c-2.26,2.62-3.63,3.84-4.53,4.41
			C108.12,18.82,107.41,18.61,107.42,17.42z"/>
		<path class="st0" d="M117.14,20.99c2.94-0.64,5.16-3.33,5.47-6.66c0.06-0.79,0.06-1.32-0.29-1.71c-2.92,0.25-3.36,0.57-4.05,0.15
			c-0.85-0.49-0.54-1.12,0.08-0.9c1.33,0.46,3.01,0.27,6.43-0.12c0.95-0.11,1.61-0.29,2.17-0.01c0.98,0.45,0.71,1.09-0.01,0.9
			c-0.63-0.17-1.21-0.21-1.96-0.18c-0.79,0.03-1.49,0.08-2.08,0.12c0.27,0.15,0.46,0.3,0.69,0.48c0.56,0.5,0.24,0.88,0.17,1.04
			c-0.09,0.13-0.12,0.34-0.15,0.58c-0.36,3.72-3.48,6.13-6.41,6.58C116.86,21.31,116.81,21.05,117.14,20.99z M119.56,9.53
			c1,0.38,1.84,0.21,3.66-0.23c0.53-0.13,1.1-0.34,1.67-0.06c0.75,0.38,0.54,0.85,0.02,0.83c-0.51-0.03-0.78-0.04-1.44,0
			c-2.98,0.15-3.55,0.64-4.11,0.21C118.66,9.76,119.05,9.34,119.56,9.53z"/>
	</g>
</g>
</svg>
