<?xml version="1.0" encoding="utf-8"?>
<!-- Generator: Adobe Illustrator 25.4.1, SVG Export Plug-In . SVG Version: 6.00 Build 0)  -->
<svg version="1.1" id="レイヤー_1" xmlns="http://www.w3.org/2000/svg" xmlns:xlink="http://www.w3.org/1999/xlink" x="0px"
	 y="0px" viewBox="0 0 567 40" style="enable-background:new 0 0 567 40;" xml:space="preserve">
<style type="text/css">
	.st0{fill:#463243;}
	.st1{fill:none;stroke:#463243;stroke-miterlimit:10;}
</style>
<g>
	<g>
		<path class="st0" d="M29.75,26.56c1.06,0,3.3,0,4.62-0.04c0.2,0,0.3,0.06,0.3,0.14s-0.08,0.14-0.24,0.22
			c-0.26,0.14-0.42,0.38-0.5,0.66c-0.04,0.18-0.14,0.28-0.32,0.28h-3.98c-4.76,0-7.32-0.86-8.96-4.86c-0.78,1.98-2,3.92-4.04,5.26
			c-0.16,0.1-0.28,0.12-0.34,0.04c-0.06-0.08-0.02-0.18,0.12-0.32c2.26-2.1,3.28-5.36,3.66-8.28c0.02-0.18,0.16-0.28,0.34-0.24
			l1.42,0.28c0.2,0.04,0.34,0.24,0.16,0.38c-0.12,0.1-0.3,0.16-0.56,0.18c-0.14,0.72-0.34,1.44-0.58,2.18c0.88,1.96,2.1,3,3.8,3.56
			v-8.88h-4.02v0.82c0,0.14-0.56,0.44-1.08,0.44c-0.14,0-0.22-0.12-0.22-0.3v-6.96c0-0.22,0.16-0.32,0.36-0.22l1.06,0.46h9.06
			l0.54-0.58c0.12-0.14,0.28-0.16,0.42-0.04l1.12,0.86c0.18,0.14,0.2,0.3,0.02,0.42c-0.16,0.08-0.36,0.16-0.58,0.2v5.56
			c-0.02,0.14-0.68,0.46-1.12,0.46c-0.12,0-0.2-0.12-0.2-0.3v-0.82h-4.02v3.96h4.26l0.78-0.96c0.12-0.14,0.26-0.18,0.42-0.06
			c0.32,0.24,0.9,0.72,1.36,1.12c0.14,0.12,0.2,0.28,0.06,0.4c-0.08,0.06-0.22,0.1-0.38,0.1h-6.5v4.64
			C27.07,26.5,28.31,26.56,29.75,26.56z M30.01,11.95h-9.38v4.58h9.38V11.95z"/>
		<path class="st0" d="M54.49,23.66c-0.12,0.02-0.26,0-0.46-0.04c-0.72,0.46-1.9,1.02-3.04,1.44c1.48,0.84,3.32,1.38,5.36,1.68
			c0.18,0.02,0.28,0.1,0.28,0.16c0,0.06-0.08,0.1-0.26,0.18c-0.32,0.14-0.58,0.4-0.74,0.78c-0.08,0.16-0.2,0.24-0.38,0.2
			c-3.64-0.9-6.16-2.52-7.48-5.58h-0.22c-0.76,0.56-1.64,1.06-2.62,1.48v2.28l3.74-0.6c0.18-0.04,0.32,0,0.34,0.1
			c0.02,0.12-0.06,0.18-0.24,0.24c-1.78,0.6-4.04,1.28-7.1,1.96c-0.04,0.14-0.1,0.24-0.18,0.32c-0.14,0.12-0.32,0.02-0.4-0.14
			l-0.52-0.96c-0.1-0.2-0.04-0.36,0.18-0.38c0.74-0.08,1.74-0.2,2.88-0.36v-1.96c-1.56,0.56-3.32,0.98-5.12,1.28
			c-0.18,0.02-0.28-0.02-0.34-0.14c-0.04-0.1,0.04-0.2,0.24-0.26c2.7-0.66,5.22-1.64,7-2.86h-6.58c-0.16,0-0.3-0.1-0.34-0.26
			c-0.06-0.22,0.06-0.34,0.26-0.34h7.98V20.4h-6.48c-0.18,0-0.3-0.1-0.34-0.26c-0.04-0.2,0.06-0.32,0.26-0.32h6.56v-1.4h-4.2v0.5
			c0,0.12-0.56,0.38-1.08,0.38c-0.1,0-0.18-0.12-0.18-0.3v-5.62c0-0.22,0.16-0.34,0.36-0.24l1,0.48h9.44l0.5-0.54
			c0.12-0.14,0.28-0.14,0.42-0.02l1.02,0.76c0.16,0.12,0.2,0.32,0,0.42c-0.14,0.08-0.3,0.12-0.48,0.16v4.1
			c-0.02,0.14-0.66,0.44-1.08,0.44c-0.12,0-0.2-0.1-0.2-0.26v-0.26h-4.24v1.4h4.74l0.66-0.72c0.12-0.14,0.26-0.16,0.42-0.06
			c0.28,0.18,0.74,0.54,1.16,0.86c0.14,0.12,0.2,0.28,0.06,0.4c-0.1,0.06-0.22,0.1-0.36,0.1h-6.68v1.48h5.94l0.7-0.78
			c0.12-0.14,0.26-0.16,0.42-0.06c0.28,0.22,0.8,0.6,1.22,0.96c0.12,0.1,0.2,0.26,0.06,0.38c-0.08,0.06-0.22,0.1-0.38,0.1h-2.74
			l1.24,0.78C54.65,23.38,54.69,23.62,54.49,23.66z M38.89,11.82h7.82v-1.46c0-0.2,0.12-0.3,0.32-0.28l1.36,0.12
			c0.22,0.02,0.36,0.2,0.2,0.36c-0.12,0.1-0.3,0.18-0.56,0.22v1.04h5.54l0.76-0.96c0.12-0.14,0.26-0.18,0.42-0.06
			c0.32,0.26,0.88,0.7,1.32,1.12c0.14,0.12,0.2,0.28,0.06,0.4c-0.1,0.06-0.24,0.1-0.4,0.1H38.97c-0.18,0-0.28-0.1-0.32-0.26
			l-0.02-0.04C38.57,11.91,38.69,11.82,38.89,11.82z M42.53,15.72h4.2v-1.5h-4.2V15.72z M46.73,16.28h-4.2v1.54h4.2V16.28z
			 M48.01,15.72h4.24v-1.5h-4.24V15.72z M52.25,16.28h-4.24v1.54h4.24V16.28z M50.49,24.76c0.96-0.7,2-1.62,2.58-2.28h-4.84
			C48.81,23.4,49.57,24.14,50.49,24.76z"/>
	</g>
</g>
<rect x="5" y="4.25" class="st1" width="65.35" height="31.5"/>
<g>
	<g>
		<path class="st0" d="M227.2,14.34c0.1-0.12,0-0.22-0.18-0.12c-0.94,0.54-2.1,0.54-2.86,0.12c-0.8-0.46-0.7-1.36,0.14-0.94
			c0.74,0.34,1.88,0.2,3.3-0.62c1.36-0.78,1.88,0.56,1,1.3c-5.34,4.34-6.46,11.94-0.9,11.94c7.34,0,5.62-9.96,4.28-13.14
			c-0.48-1.1,0.86-1.4,1.22-0.44c1.12,2.78,2.44,4.04,4.06,5.32c1.14,0.9,0.26,2-0.8,1.16c-0.84-0.66-2.08-2.14-2.66-3.34
			c-0.1-0.2-0.24-0.16-0.18,0.06c1.5,6.28-0.72,11.7-6.04,11.7C222.27,27.34,221.05,20.68,227.2,14.34z"/>
		<path class="st0" d="M246.24,20.38c2.1-0.6,4.18,0.02,5.64,0.56c0.52,0.22,0.86-0.12,0.64-0.94c-0.12-0.4-0.88-1.82-1.72-3.28
			c-3.34,1.08-6.82,0.9-8-0.18c-0.62-0.58-0.3-0.98,0.38-0.56c1.6,1.02,4.52,0.62,7.04-0.24c-0.72-1.2-1.4-2.26-1.72-2.64
			c-0.8-0.96,0.38-1.56,1.08-1.2c1.26,0.64,2.84,1.14,4.78,1.24c0.64,0.02,1.5,0.64,0.3,1.58c-0.88,0.68-1.86,1.22-2.9,1.64
			c0.9,1.7,1.58,3.26,1.98,4.48c0.66,1.96-0.96,2.16-2.16,1.42c-1.14-0.68-3.08-1.7-5.24-1.18c-3.38,0.8-1.34,5.68,5.14,4.64
			c1.32-0.24,2.16,1.04,0.68,1.34C244.4,28.74,241.58,21.72,246.24,20.38z M251.22,15.36c0.72-0.3,1.36-0.62,1.9-0.96
			c0.44-0.24,0.36-0.42-0.02-0.52c-0.88-0.26-1.82-0.54-2.98-1.14c-0.3-0.16-0.5-0.04-0.26,0.32
			C250.36,13.84,250.8,14.6,251.22,15.36z M254.52,10.59c1.02,0.42,1.64,0.86,2.18,1.84c0.6,1.16-0.72,1.64-1.26,0.52
			c-0.28-0.64-0.78-1.34-1.24-1.76C253.78,10.82,254,10.41,254.52,10.59z M256.52,10.25c0.76,0.26,1.62,0.72,2.12,1.5
			c0.54,0.94-0.6,1.68-1.2,0.58c-0.28-0.58-0.72-1.1-1.22-1.46C255.8,10.55,255.96,10.12,256.52,10.25z"/>
	</g>
</g>
<rect x="207.45" y="4.25" class="st1" width="65.35" height="31.5"/>
<rect x="80.29" y="4.25" class="st1" width="116.48" height="31.5"/>
<g>
	<g>
		<path class="st0" d="M95.23,25.18c-0.46,0.58-0.94,1.04-1.52,1.22c-1.14,0.34-3.12-0.74-1.18-1.44c3-1.08,3.92-3.34,6.8-4.66
			c-1.2-2.68-1.78-4.26,0.76-4.94c1.64-0.44,0.12-2.32-0.68-3.02c-0.6-0.54-0.16-0.86,0.42-0.5c4.16,2.66,3.12,4.32,1.18,4.2
			c-2.18-0.14-2.32,0.8-0.78,3.92c4.14-1.26,8.92,1.72,8.92,4.96c0,2.12-1.74,2.08-1.74,0.58c0-4.18-3.32-5.78-6.86-4.9
			c0.5,0.96,1.14,2.12,1.9,3.48c1.7,3.1-1.64,3.84-3.22,2.48C98.25,25.74,96.89,25.36,95.23,25.18z M99.43,25.62
			c0.88,0.32,2.06,0,1.68-1.06c-0.48-1.38-1.02-2.62-1.52-3.68c-1.98,0.78-3.04,2.52-4.02,3.84C97.01,24.92,98.65,25.34,99.43,25.62
			z"/>
		<path class="st0" d="M114.95,20.04c-0.32-0.44-0.46-1.08-0.16-1.68c2.06-4.02,4.42-5.36,4.16-6.66c-0.18-0.94,0.46-1.08,0.88-0.54
			c0.56,0.72,0.88,1.86-0.24,2.66c-1.36,1.02-3.32,3.08-4.06,4.88c-0.14,0.32-0.14,0.6,0.14,0.92c2.4,2.8,3.62,4.22,4.28,7.34
			c0.26,1.32-1.14,1.58-1.44,0.22C117.77,24,116.67,22.26,114.95,20.04z"/>
		<path class="st0" d="M131.21,27.04c13,0.1,8.84-13.38-0.1-4.38c-1.44,1.44-2.88,0.7-2.78-1c0.08-1.48,0.42-3.82,0.68-5.58
			c0.26-1.76,1.96-1.88,3.72-2.12c0.28-0.04,0.28-0.28,0.16-0.44c-0.52-0.78-1.14-1.14-2.04-1.5c-0.62-0.26-0.36-0.6,0-0.6
			c2.24,0.08,2.88,0.66,3.5,1.64c0.84,1.28,0.44,2.24-1.14,1.82c-2.56-0.7-3.12,0.04-3.24,1.2c-0.06,0.54-0.36,3.18-0.56,4.48
			c-0.16,1.32,0.74,1.06,1.52,0.52c11.4-8.16,14.2,7.3,0.24,6.42C130.53,27.46,130.59,27.02,131.21,27.04z"/>
		<path class="st0" d="M147.66,13.92c-0.9-1.24,0.04-1.86,0.98-0.66c1.08,1.4-0.62,6.36-1,8.4c-0.14,0.72,0.32,0.94,0.56,0.12
			c0.36-1.36,1.02-2.68,1.68-3.76c0.3-0.5,0.64-0.3,0.44,0.18c-0.68,1.66-2.08,5.24-1.6,6.86c0.62,2.02-0.8,2.44-1.5,0.68
			c-0.48-1.22-0.72-2.66-0.38-4.12C147.82,17.28,148.26,14.78,147.66,13.92z M158.46,24.42c-0.12,3.26-6.38,3.46-6.38,0.4
			c0-2.08,2.72-2.54,5.26-1.96c0.04-1.36,0.06-3.42,0.04-5.34c-1.3,0.04-2.7-0.4-3.88-1.48c-0.5-0.46-0.22-0.88,0.42-0.5
			c1.18,0.7,2.38,0.94,3.44,0.88c-0.06-1.94-0.2-3.6-0.52-4.02c-0.76-1.04-0.1-1.36,0.68-0.9c1.2,0.74,1.24,1.2,1.08,3.08
			c0.38,0.24,0.76,0.4,1.42,0.54c1.14,0.2,1.1,1.02-0.26,1.76c-0.42,0.24-0.88,0.4-1.36,0.52c-0.06,1.44-0.1,3.3,0,5.76
			c1.1,0.36,2.06,0.92,2.68,1.62c1.12,1.3,0.2,2.54-1,1C159.66,25.22,159.08,24.78,158.46,24.42z M157.32,23.94v-0.02
			c-2.14-0.76-4.46-0.46-4.46,1C152.86,26.56,157.26,26.46,157.32,23.94z M159.26,15.92c0.16-0.1,0.12-0.26-0.06-0.38
			c-0.24-0.16-0.46-0.32-0.64-0.48l-0.1,1.18C158.74,16.16,159.02,16.04,159.26,15.92z"/>
		<path class="st0" d="M175.12,22.06c0.5,0.14,0.7-0.02,0.54-0.44c-0.34-0.96-0.68-1.9-1-2.76c-2.32,0.6-4.84,0.72-6.64-0.56
			c-0.64-0.46-0.18-0.86,0.4-0.58c1.9,1,4,0.8,5.9,0.2c-0.38-0.98-0.74-1.88-1.1-2.66c-1.5,0.24-3,0.14-3.88-0.26
			c-0.62-0.3-0.36-0.82,0.16-0.64c1.14,0.4,2.26,0.24,3.22-0.1c-0.58-1.08-1.2-1.82-1.84-2.08c-1.44-0.58-0.92-1.28,0.42-0.96
			c1.06,0.24,1.5,0.7,2.38,2.66c0.42-0.18,0.78-0.36,1.08-0.5c0.98-0.44,2.16,0.32,0.96,1.02c-0.3,0.18-0.62,0.32-0.98,0.44
			c1.38,0.4,3.26,0.74,4.1,0.86c0.88,0.1,1.12,0.9,0.3,1.36c-0.92,0.52-2.14,1.06-3.46,1.5c0.4,0.9,0.84,1.92,1.34,3.08
			c0.74,1.66-0.58,2.56-1.64,1.82c-5.32-3.72-10.94,3.94-0.66,2.6c1.72-0.22,2.38,1.28,0.78,1.44
			C164.64,28.58,166.8,19.88,175.12,22.06z M175.26,17.58c0.74-0.28,1.4-0.6,2.02-0.92c0.26-0.14,0.3-0.36-0.12-0.5
			c-0.8-0.22-1.96-0.56-2.9-0.94L175.26,17.58z M177.74,11.87c1.04,0.42,1.66,0.84,2.2,1.82c0.6,1.16-0.72,1.66-1.26,0.54
			c-0.28-0.66-0.78-1.36-1.26-1.78C177,12.08,177.24,11.68,177.74,11.87z M179.74,11.54c0.78,0.24,1.64,0.7,2.14,1.5
			c0.54,0.92-0.62,1.66-1.2,0.56c-0.3-0.56-0.72-1.1-1.22-1.46C179.04,11.82,179.2,11.37,179.74,11.54z"/>
	</g>
</g>
</svg>
