<?xml version="1.0" encoding="utf-8"?>
<!-- Generator: Adobe Illustrator 25.4.1, SVG Export Plug-In . SVG Version: 6.00 Build 0)  -->
<svg version="1.1" id="レイヤー_1" xmlns="http://www.w3.org/2000/svg" xmlns:xlink="http://www.w3.org/1999/xlink" x="0px"
	 y="0px" viewBox="0 0 567 40" style="enable-background:new 0 0 567 40;" xml:space="preserve">
<style type="text/css">
	.st0{fill:#463243;}
	.st1{fill:none;stroke:#463243;stroke-miterlimit:10;}
</style>
<g>
	<g>
		<path class="st0" d="M38.14,27c-0.2,0.04-0.32-0.06-0.36-0.24c-0.06-0.28-0.16-0.54-0.34-0.7c-0.22-0.2-0.6-0.36-1.22-0.48
			c-0.18-0.02-0.28-0.1-0.28-0.2c0-0.1,0.12-0.14,0.32-0.14c0.52,0.06,1.54,0.14,1.82,0.14c0.32,0,0.42-0.12,0.42-0.42v-5.04h-2.78
			c-0.2,2.46-0.7,5.06-2,7.16c-0.1,0.16-0.22,0.22-0.32,0.16c-0.12-0.08-0.12-0.18-0.06-0.36c1.26-3.4,1.28-7.56,1.28-11.26V9.83
			c0-0.22,0.16-0.32,0.36-0.22l1.12,0.48h2.24l0.44-0.54c0.12-0.14,0.28-0.18,0.42-0.06l1.04,0.8c0.16,0.12,0.2,0.32,0,0.42
			c-0.14,0.08-0.3,0.14-0.48,0.18v14.22C39.76,26.14,39.6,26.78,38.14,27z M38.5,15.2h-2.66v0.42c0,1.14,0,2.42-0.08,3.74h2.74V15.2
			z M35.84,14.64h2.66v-3.94h-2.66V14.64z M51.92,26c0,0.54-0.5,0.82-2.66,0.82h-1.34c-1.24,0-1.46-0.32-1.46-1.2v-6.78h-1.38
			c-0.3,4.08-1.4,6.6-4.94,8.34c-0.18,0.1-0.3,0.1-0.34,0s0-0.22,0.16-0.32c2.92-2,3.66-4.42,3.82-8.02H42.7v0.76
			c0,0.12-0.52,0.38-1.02,0.38c-0.12,0-0.2-0.12-0.2-0.3v-6.52c0-0.22,0.16-0.32,0.36-0.22l0.96,0.44h3.68
			c0.54-1.2,1.14-2.8,1.54-4.08c0.06-0.2,0.18-0.26,0.36-0.2l1.4,0.46c0.2,0.06,0.3,0.28,0.1,0.38c-0.12,0.08-0.28,0.1-0.5,0.08
			c-0.56,1-1.48,2.3-2.4,3.36h2.08l0.48-0.52c0.12-0.14,0.28-0.14,0.42-0.02l0.98,0.74c0.18,0.12,0.2,0.32,0,0.42
			c-0.14,0.06-0.28,0.12-0.44,0.14v5.22c-0.02,0.14-0.64,0.46-1.06,0.46c-0.12,0-0.2-0.12-0.2-0.3v-0.68h-1.56v6.44
			c0,0.26,0.06,0.34,0.52,0.34h1.08c0.5,0,0.84-0.02,1.02-0.02c0.16-0.02,0.22-0.06,0.3-0.28c0.1-0.34,0.3-1.6,0.52-2.8
			c0.02-0.18,0.1-0.28,0.18-0.28s0.14,0.12,0.14,0.3l0.04,2.88C51.88,25.6,51.92,25.76,51.92,26z M42.6,9.25
			c3.4,1.94,2.5,4.36,1.36,3.7c-0.14-0.08-0.18-0.18-0.22-0.32c-0.2-1.04-0.82-2.26-1.42-3.12c-0.12-0.16-0.14-0.26-0.06-0.32
			C42.36,9.13,42.44,9.17,42.6,9.25z M49.24,18.24v-4.26H42.7v4.26H49.24z"/>
		<path class="st0" d="M79.72,16.28c-0.1,0.02-0.24,0-0.44-0.06c-1.18,0.96-3.16,2.28-4.96,3.26c1.5,2.82,3.7,4.88,6.62,6.16
			c0.18,0.08,0.26,0.14,0.24,0.22c-0.02,0.06-0.12,0.1-0.28,0.12c-0.42,0.06-0.78,0.3-1.02,0.68c-0.12,0.16-0.26,0.22-0.42,0.12
			c-4.3-2.44-6.64-6.64-7.44-13c-0.92,1.32-2.06,2.54-3.4,3.64v7.04c1.54-0.46,3.3-0.98,5.08-1.54c0.18-0.04,0.3-0.04,0.34,0.08
			c0.02,0.12-0.04,0.2-0.2,0.28c-2.02,0.9-4.72,2.08-8.34,3.54c-0.02,0.12-0.08,0.22-0.16,0.32c-0.12,0.14-0.3,0.06-0.4-0.1
			l-0.58-1.06c-0.1-0.2-0.04-0.32,0.18-0.38c0.68-0.18,1.64-0.44,2.78-0.76v-6.46c-1.34,0.94-2.86,1.76-4.48,2.42
			c-0.18,0.06-0.28,0.04-0.34-0.06c-0.06-0.1,0-0.2,0.18-0.3c3.18-1.74,6-4.3,7.72-6.9H63c-0.18,0-0.3-0.1-0.34-0.26
			c-0.04-0.2,0.06-0.32,0.26-0.32h8.06V9.31c0-0.2,0.12-0.3,0.32-0.28l1.32,0.12c0.2,0.02,0.36,0.2,0.2,0.34
			c-0.1,0.1-0.26,0.18-0.48,0.22v3.24H78l0.82-0.98c0.12-0.16,0.26-0.16,0.42-0.04c0.32,0.24,0.88,0.7,1.34,1.12
			c0.14,0.12,0.2,0.28,0.06,0.38c-0.1,0.06-0.22,0.1-0.38,0.1H72.4c0.34,2.1,0.92,3.94,1.72,5.56c1.44-1.18,3.06-2.8,3.98-3.96
			c0.12-0.14,0.26-0.16,0.42-0.06l1.2,0.8C79.92,16.02,79.94,16.26,79.72,16.28z"/>
	</g>
</g>
<g>
	<g>
		<path class="st0" d="M423.09,10.75c-0.12,0.06-0.32,0.1-0.56,0.12c1.76,2.54,4.98,4.74,8.42,6.26c0.16,0.06,0.24,0.16,0.22,0.24
			c-0.02,0.08-0.1,0.14-0.26,0.2c-0.38,0.14-0.7,0.42-0.88,0.74c-0.1,0.18-0.22,0.22-0.4,0.14c-3.12-1.76-6.06-4.44-7.46-7.34
			c-1.88,2.92-5.7,6.26-9.34,8.1c-0.18,0.08-0.28,0.06-0.34-0.02c-0.06-0.1,0-0.2,0.16-0.3c3.22-2,7-5.9,8.2-8.76
			c0.06-0.18,0.2-0.22,0.38-0.18l1.74,0.44C423.17,10.46,423.31,10.65,423.09,10.75z M428.97,25.96c0.32,0.24,0.92,0.72,1.42,1.16
			c0.14,0.12,0.2,0.28,0.04,0.38c-0.1,0.08-0.24,0.1-0.4,0.1h-16.6c-0.16,0-0.28-0.06-0.34-0.24c-0.06-0.18,0.04-0.32,0.26-0.32h7.6
			v-4.3h-4.98c-0.16,0-0.3-0.08-0.34-0.26c-0.04-0.18,0.06-0.3,0.26-0.3h5.06v-3.8h-4.68c-0.18,0-0.28-0.1-0.32-0.26
			c-0.04-0.2,0.06-0.32,0.26-0.32h9l0.74-0.86c0.12-0.16,0.26-0.16,0.42-0.04c0.3,0.22,0.8,0.62,1.24,0.98
			c0.14,0.12,0.2,0.28,0.06,0.4c-0.1,0.06-0.22,0.1-0.38,0.1h-5v3.8h3.52l0.8-0.92c0.12-0.16,0.26-0.16,0.42-0.04
			c0.3,0.22,0.84,0.66,1.3,1.04c0.14,0.12,0.22,0.3,0.06,0.4c-0.1,0.06-0.24,0.08-0.38,0.08h-5.72v4.3h5.42l0.84-1.04
			C428.67,25.86,428.81,25.84,428.97,25.96z"/>
		<path class="st0" d="M452.09,17.84c-0.14,0-0.3-0.02-0.54-0.12c-0.82,1.14-1.84,2.24-3.02,3.32v5.42c0,1-0.22,1.66-1.96,1.86
			c-0.2,0.04-0.32-0.06-0.36-0.24c-0.1-0.26-0.22-0.48-0.44-0.62c-0.3-0.18-0.82-0.36-1.68-0.48c-0.18-0.04-0.28-0.1-0.28-0.2
			c0-0.08,0.12-0.14,0.32-0.12c0.66,0.06,2.16,0.16,2.54,0.16c0.44,0,0.54-0.14,0.54-0.48v-4.18c-3.16,2.5-7.28,4.64-12.06,5.92
			c-0.18,0.06-0.3,0.02-0.34-0.08s0.02-0.22,0.22-0.28c4.36-1.48,8.3-3.76,11.36-6.38c-2.7,0.62-6.08,1.32-10.38,2.14
			c-0.04,0.12-0.12,0.22-0.2,0.3c-0.16,0.14-0.32,0.06-0.4-0.14l-0.42-0.96c-0.08-0.2,0-0.36,0.22-0.38
			c0.76-0.06,1.8-0.18,3.04-0.34v-9.7c0-0.22,0.16-0.32,0.36-0.22l1.06,0.5h2.3c0.22-0.62,0.46-1.54,0.64-2.28
			c0.04-0.18,0.18-0.26,0.36-0.22l1.46,0.3c0.22,0.04,0.34,0.24,0.16,0.38c-0.14,0.08-0.32,0.14-0.54,0.14
			c-0.32,0.48-0.82,1.16-1.22,1.68h4.18l0.5-0.62c0.12-0.14,0.28-0.18,0.42-0.06l1.18,0.9c0.18,0.14,0.18,0.3,0,0.42
			c-0.16,0.08-0.36,0.16-0.58,0.2v5.9c0.78-0.84,1.46-1.7,2.06-2.58c0.1-0.16,0.24-0.2,0.4-0.08l1.12,0.82
			C452.29,17.56,452.31,17.82,452.09,17.84z M439.57,15.38h7.64v-2.26h-7.64V15.38z M447.21,18.26v-2.3h-7.64v2.3H447.21z
			 M447.07,20.74l0.14-0.14v-1.74h-7.64v2.92L447.07,20.74z"/>
	</g>
</g>
<line class="st1" x1="4" y1="20.32" x2="22.62" y2="20.32"/>
<line class="st1" x1="93.38" y1="20.32" x2="111.99" y2="20.32"/>
<line class="st1" x1="359.9" y1="20.32" x2="378.51" y2="20.32"/>
<rect x="398.6" y="4.25" class="st1" width="65.35" height="31.5"/>
<g>
	<g>
		<path class="st0" d="M129.69,22.06c-1.4,1.1-3,2.1-5,3.12c-0.4,0.2-0.56-0.16-0.12-0.44c4.6-3.12,6.16-4.78,8.98-8.84
			c-5.48,0.26-5.7,0.74-6.88-0.28c-0.96-0.82-0.22-1.2,0.26-0.96c1.42,0.76,2.8,0.52,7.96,0.26c-0.08-3.04-0.26-3.38-0.74-3.72
			c-0.7-0.48-0.36-1.12,0.82-0.68c1.64,0.64,1.4,1.24,1.32,2.14c-0.06,0.74-0.1,1.46-0.14,2.2l2.2-0.1c1.18-0.06,1.7-0.18,2.18-0.04
			c1.02,0.34,1.18,1.54,0.12,1.24c-0.54-0.16-1.22-0.2-2.14-0.2c-0.86,0-1.66,0.02-2.38,0.04c-0.1,2.76-0.04,5.6,0.22,9.3
			c0.12,1.88-1.2,2.34-2.04,0.98C132.91,23.86,131.85,23.16,129.69,22.06z M134.51,24.12c0.32,0.22,0.48,0.14,0.48-0.26
			c-0.02-3.14-0.04-5.48-0.08-7.22c-1.58,2.02-3.04,3.62-4.74,5.04C131.77,22.28,133.37,23.24,134.51,24.12z"/>
		<path class="st0" d="M151.75,16.46c0.04-0.94,0.14-1.42-0.52-2.02c-0.62-0.6-0.42-1.12,0.28-0.96c2.04,0.48,2.26,1.46,1.94,2.08
			c-0.14,0.22-0.2,0.52-0.2,0.86c-0.22,4.54-2.44,8.32-6.68,10.36c-0.3,0.16-0.52-0.12-0.1-0.36
			C149.45,24.7,151.59,20.48,151.75,16.46z M155.85,21.78c0.14-8,0.26-8.36-0.54-8.92c-0.66-0.48-0.66-1.3,0.4-1.02
			c2.18,0.54,1.8,1.52,1.68,2c-0.06,0.26-0.1,0.56-0.12,1.24c-0.12,2.16-0.16,3.18-0.16,6.02c0,0.3,0.18,0.38,0.44,0.26
			c2.22-1.16,3.6-2.3,6.06-4.66c0.46-0.42,0.74-0.04,0.42,0.32c-3.02,3.5-4.84,5.12-6.04,5.88
			C156.77,23.64,155.83,23.36,155.85,21.78z"/>
		<path class="st0" d="M171.89,26.44c5.18-0.94,9.98-3.88,10.26-11.32c0.02-0.3-0.1-0.46-0.42-0.44c-1.72,0.14-4.7,0.24-6.72,0.28
			c0.06,0.9,0.16,1.64,0.3,2.64c0.26,1.58-1.34,1.62-1.34,0.02c0-2.22-0.22-3.34-0.72-3.76c-0.52-0.42-0.24-0.82,0.52-0.62
			c0.66,0.18,0.96,0.42,1.1,0.8c0.8,0,1.78-0.02,2.8-0.06c0.1-1.84,0.02-2.32-0.54-2.84c-0.62-0.5-0.3-0.96,0.44-0.76
			c1.1,0.28,1.42,0.76,1.3,1.44c-0.14,0.6-0.2,1.14-0.22,2.1c1.38-0.06,2.8-0.18,3.9-0.3c1.04-0.12,1.32,0.42,1.2,1.46
			c-0.46,4.48-2.06,10.74-11.84,11.84C171.13,27,171.11,26.58,171.89,26.44z M182.86,10.55c1.04,0.42,1.66,0.86,2.2,1.82
			c0.6,1.16-0.72,1.66-1.26,0.54c-0.28-0.64-0.78-1.36-1.26-1.78C182.12,10.75,182.36,10.37,182.86,10.55z M184.86,10.21
			c0.78,0.24,1.64,0.7,2.14,1.5c0.54,0.94-0.62,1.68-1.2,0.56c-0.3-0.56-0.72-1.1-1.22-1.46C184.16,10.49,184.32,10.05,184.86,10.21
			z"/>
		<path class="st0" d="M193.1,21.56c3.74-2.22,5.46-3.64,7.74-6.22c0.34-0.38,0.48-0.54,0.28-1.04c-0.2-0.6,0.46-0.76,1.14-0.26
			c0.86,0.56,0.4,1.26-0.08,1.76c-0.82,0.76-1.52,1.42-2.2,1.98c0.88,0.22,0.96,0.84,0.9,1.52c-0.26,2.54-0.1,4.46-0.02,6.02
			c0.06,1.38-1.28,1.42-1.2,0.02c0.08-1.28,0.2-4.34,0.18-5.68c-0.02-0.96-0.26-1.22-0.5-1.32c-1.96,1.6-3.54,2.5-6.06,3.68
			C192.86,22.16,192.64,21.82,193.1,21.56z"/>
		<path class="st0" d="M213.18,21.72c1.4,0.54,1.64,0.58,6.96,0.22c0.06-2.06-0.02-3.92-0.1-4.9c-0.04-0.68-0.28-1.04-0.54-1.28
			c-2.92,0.36-3.48,0.34-4.12-0.16c-1.1-0.84-0.52-1.26,0.02-1.02c1.36,0.66,1.84,0.4,7.9-0.24c1.32-0.14,1.62-0.24,2.24-0.1
			c0.82,0.14,1.2,1.54,0.16,1.26c-0.84-0.26-1.54-0.32-2.34-0.22l-2.5,0.32c0.68,0.34,0.66,0.68,0.5,1.34
			c-0.12,0.4-0.22,1.86-0.36,4.94l3.52-0.26c1.58-0.1,2.42-0.5,3.42-0.02c0.94,0.46,1.1,1.2,0.04,1.08
			c-1.14-0.18-2.16-0.18-3.36-0.14c-10.72,0.34-10.04,1.5-11.8,0.14C211.96,21.98,212.56,21.48,213.18,21.72z"/>
		<path class="st0" d="M254.07,25.76c0.18,0.04,0.28,0.1,0.28,0.16s-0.08,0.1-0.24,0.18c-0.36,0.14-0.62,0.44-0.78,0.84
			c-0.06,0.18-0.18,0.26-0.36,0.22c-3.88-0.78-6.26-2.26-7.54-5.38h-0.34c-0.68,2.46-2.5,4.22-8.84,5.46
			c-0.2,0.04-0.3,0.02-0.36-0.12c-0.06-0.14,0.02-0.24,0.24-0.28c5.02-1.34,6.82-2.88,7.48-5.06h-7.24c-0.18,0-0.28-0.1-0.32-0.26
			c-0.04-0.2,0.06-0.32,0.26-0.32h7.46c0.14-0.64,0.2-1.3,0.24-2.04c0.02-0.2,0.14-0.3,0.32-0.28l1.44,0.14
			c0.2,0.02,0.36,0.2,0.22,0.36c-0.12,0.12-0.3,0.2-0.54,0.22c-0.06,0.56-0.12,1.1-0.22,1.6h6.24l0.8-0.96
			c0.12-0.14,0.26-0.18,0.42-0.06c0.3,0.24,0.86,0.7,1.32,1.12c0.14,0.12,0.2,0.28,0.04,0.4c-0.08,0.06-0.2,0.08-0.36,0.08h-7.8
			C247.34,24.26,250.18,25.32,254.07,25.76z M244.3,15.62h-5.56c-0.18,0-0.28-0.1-0.32-0.26c-0.06-0.22,0.06-0.34,0.26-0.34h5.62
			v-2.24h-6.56c-0.16,0-0.3-0.1-0.34-0.26c-0.06-0.22,0.06-0.34,0.26-0.34h4.88c-0.1,0-0.2-0.02-0.32-0.08
			c-0.14-0.08-0.18-0.18-0.22-0.32c-0.22-0.8-0.8-1.7-1.38-2.34c-0.14-0.16-0.16-0.28-0.1-0.32c0.06-0.04,0.16-0.04,0.32,0.02
			c3,0.98,2.68,3,1.76,3.04h3.92c0.52-0.88,1.08-2.04,1.46-2.98c0.06-0.18,0.2-0.24,0.38-0.18l1.36,0.48
			c0.2,0.08,0.32,0.28,0.1,0.38c-0.12,0.06-0.28,0.08-0.5,0.06c-0.54,0.68-1.38,1.52-2.2,2.24h3.4l0.76-0.92
			c0.12-0.14,0.26-0.18,0.42-0.06c0.3,0.24,0.86,0.68,1.3,1.08c0.14,0.12,0.2,0.28,0.08,0.4c-0.1,0.06-0.24,0.1-0.42,0.1h-7.02v2.24
			h4l0.72-0.88c0.12-0.16,0.28-0.16,0.44-0.04c0.28,0.24,0.78,0.66,1.22,1.02c0.14,0.12,0.2,0.28,0.06,0.4
			c-0.1,0.06-0.22,0.1-0.38,0.1h-6.06V18h5.54l0.76-0.94c0.12-0.14,0.26-0.18,0.42-0.06c0.3,0.24,0.84,0.7,1.3,1.08
			c0.14,0.12,0.2,0.28,0.06,0.4c-0.1,0.06-0.24,0.1-0.4,0.1h-16.5c-0.16,0-0.28-0.06-0.34-0.24c-0.06-0.22,0.06-0.34,0.26-0.34h7.56
			V15.62z"/>
		<path class="st0" d="M271.43,15.86c-0.14,0.04-0.3,0.08-0.52,0.1c1.7,2.14,4.96,3.96,8.3,5.04c0.18,0.06,0.26,0.12,0.24,0.22
			c-0.02,0.12-0.1,0.16-0.26,0.24c-0.36,0.14-0.66,0.4-0.84,0.7c-0.08,0.18-0.2,0.24-0.38,0.18c-0.74-0.3-1.46-0.68-2.16-1.08
			l0.06,0.04c-0.1,0.12-0.38,0.26-0.72,0.32v5.12c-0.02,0.14-0.68,0.44-1.08,0.44c-0.12,0-0.2-0.12-0.2-0.3v-0.92h-7.46v0.9
			c0,0.14-0.54,0.44-1.08,0.44c-0.12,0-0.2-0.12-0.2-0.3v-6.08c-1.22,0.72-2.52,1.38-3.82,1.88c-0.18,0.06-0.3,0.06-0.34-0.06
			c-0.04-0.1,0.02-0.2,0.2-0.28c3.32-1.56,6.9-4.68,8.08-7.18c0.06-0.16,0.18-0.22,0.36-0.18l1.7,0.38
			C271.53,15.54,271.65,15.76,271.43,15.86z M262.79,14.78c-0.44,0.4-1.2,0.48-1.46,0.06c-0.22-0.4,0.02-0.84,0.42-1.12
			c0.74-0.5,1.46-1.74,1.54-3.06c0-0.2,0.08-0.3,0.18-0.3c0.1,0,0.18,0.08,0.22,0.26c0.06,0.28,0.1,0.54,0.12,0.78h5.68V9.27
			c0-0.2,0.12-0.3,0.32-0.28l1.38,0.12c0.22,0.02,0.36,0.2,0.2,0.36c-0.1,0.12-0.28,0.2-0.56,0.24v1.68h6.24l0.64-0.66
			c0.12-0.14,0.28-0.14,0.42,0l1.04,1.02c0.16,0.14,0.16,0.34-0.06,0.4c-0.12,0.02-0.26,0.04-0.44,0.04
			c-0.52,0.6-1.42,1.38-2.18,1.9c-0.14,0.1-0.26,0.12-0.34,0.06c-0.08-0.04-0.08-0.16,0.02-0.34c0.3-0.54,0.64-1.26,0.9-1.84h-13.22
			C263.85,13.35,263.33,14.3,262.79,14.78z M263.17,17.22c1.52-1.1,2.98-2.74,3.78-4.04c0.1-0.16,0.24-0.2,0.4-0.12l1.18,0.54
			c0.2,0.1,0.28,0.34,0.06,0.38c-0.1,0.04-0.24,0.04-0.44,0c-0.98,1.22-2.82,2.68-4.78,3.56c-0.16,0.08-0.28,0.08-0.34-0.02
			C262.97,17.44,263.01,17.34,263.17,17.22z M270.53,16.2c-1.06,1.46-2.78,3.02-4.8,4.34l0.78,0.34h7.18l0.58-0.64
			C272.67,19.08,271.35,17.68,270.53,16.2z M273.87,21.48h-7.46v3.88h7.46V21.48z M272.01,13.29c5.38,1.16,5.32,4.22,3.9,3.86
			c-0.14-0.04-0.22-0.12-0.3-0.24c-0.72-1.18-2.36-2.5-3.74-3.3c-0.18-0.12-0.26-0.22-0.2-0.28
			C271.73,13.27,271.85,13.26,272.01,13.29z"/>
		<path class="st0" d="M290.65,22.06c-1.4,1.1-3,2.1-5,3.12c-0.4,0.2-0.56-0.16-0.12-0.44c4.6-3.12,6.16-4.78,8.98-8.84
			c-5.48,0.26-5.7,0.74-6.88-0.28c-0.96-0.82-0.22-1.2,0.26-0.96c1.42,0.76,2.8,0.52,7.96,0.26c-0.08-3.04-0.26-3.38-0.74-3.72
			c-0.7-0.48-0.36-1.12,0.82-0.68c1.64,0.64,1.4,1.24,1.32,2.14c-0.06,0.74-0.1,1.46-0.14,2.2l2.2-0.1c1.18-0.06,1.7-0.18,2.18-0.04
			c1.02,0.34,1.18,1.54,0.12,1.24c-0.54-0.16-1.22-0.2-2.14-0.2c-0.86,0-1.66,0.02-2.38,0.04c-0.1,2.76-0.04,5.6,0.22,9.3
			c0.12,1.88-1.2,2.34-2.04,0.98C293.87,23.86,292.81,23.16,290.65,22.06z M295.47,24.12c0.32,0.22,0.48,0.14,0.48-0.26
			c-0.02-3.14-0.04-5.48-0.08-7.22c-1.58,2.02-3.04,3.62-4.74,5.04C292.73,22.28,294.33,23.24,295.47,24.12z"/>
		<path class="st0" d="M308.44,20.64c4.98-2.98,7.28-4.88,10.34-8.3c0.44-0.48,0.66-0.78,0.4-1.48c-0.26-0.7,0.52-0.86,1.36-0.26
			c1.04,0.72,0.52,1.58-0.12,2.2c-1.16,1.1-2.16,2.02-3.1,2.8c1.32,0.2,1.4,1,1.32,1.96c-0.36,3.4-0.12,5.94-0.02,8.02
			c0.08,1.7-1.5,1.74-1.4,0.02c0.12-1.68,0.26-5.78,0.24-7.58c-0.02-1.38-0.4-1.76-0.78-1.88c-2.64,2.16-4.74,3.36-8.12,4.92
			C308.12,21.26,307.94,20.94,308.44,20.64z"/>
		<path class="st0" d="M334.57,16.46c0.04-0.94,0.14-1.42-0.52-2.02c-0.62-0.6-0.42-1.12,0.28-0.96c2.04,0.48,2.26,1.46,1.94,2.08
			c-0.14,0.22-0.2,0.52-0.2,0.86c-0.22,4.54-2.44,8.32-6.68,10.36c-0.3,0.16-0.52-0.12-0.1-0.36
			C332.27,24.7,334.41,20.48,334.57,16.46z M338.67,21.78c0.14-8,0.26-8.36-0.54-8.92c-0.66-0.48-0.66-1.3,0.4-1.02
			c2.18,0.54,1.8,1.52,1.68,2c-0.06,0.26-0.1,0.56-0.12,1.24c-0.12,2.16-0.16,3.18-0.16,6.02c0,0.3,0.18,0.38,0.44,0.26
			c2.22-1.16,3.6-2.3,6.06-4.66c0.46-0.42,0.74-0.04,0.42,0.32c-3.02,3.5-4.84,5.12-6.04,5.88
			C339.59,23.64,338.65,23.36,338.67,21.78z"/>
	</g>
</g>
</svg>
