<?xml version="1.0" encoding="utf-8"?>
<!-- Generator: Adobe Illustrator 25.4.1, SVG Export Plug-In . SVG Version: 6.00 Build 0)  -->
<svg version="1.1" id="レイヤー_1" xmlns="http://www.w3.org/2000/svg" xmlns:xlink="http://www.w3.org/1999/xlink" x="0px"
	 y="0px" viewBox="0 0 567 40" style="enable-background:new 0 0 567 40;" xml:space="preserve">
<style type="text/css">
	.st0{fill:#463243;}
	.st1{fill:none;stroke:#463243;stroke-miterlimit:10;}
</style>
<g>
	<g>
		<path class="st0" d="M49.9,15.38c0.3,0.24,0.84,0.68,1.28,1.06c0.14,0.12,0.2,0.28,0.06,0.4c-0.1,0.06-0.22,0.1-0.4,0.1H40.12
			c-0.16,0.48-0.36,0.96-0.58,1.4l0.34,0.16h7.44l0.52-0.58c0.12-0.14,0.28-0.16,0.42-0.04l1.1,0.84c0.18,0.14,0.2,0.3,0,0.4
			c-0.14,0.1-0.34,0.16-0.54,0.2v7.28c0,0.14-0.02,0.26-0.14,0.32c-0.22,0.14-0.66,0.32-0.96,0.32c-0.12,0-0.2-0.12-0.2-0.3V26
			h-7.74v0.86c0,0.14-0.56,0.46-1.12,0.46c-0.12,0-0.2-0.12-0.2-0.3v-6.68c-1.22,1.9-2.82,3.56-4.78,4.9
			c-0.16,0.1-0.28,0.1-0.36,0.02s-0.04-0.2,0.1-0.34c2.36-2.1,4.12-5.02,5.08-7.98h-4.3c-0.16,0-0.28-0.06-0.34-0.24
			c-0.06-0.18,0.04-0.32,0.26-0.32h7.68v-1.8h-6.02c-0.18,0-0.28-0.1-0.32-0.26c-0.06-0.22,0.06-0.34,0.26-0.34h6.08v-1.72h-6.72
			c-0.18,0-0.28-0.1-0.32-0.26c-0.06-0.22,0.06-0.34,0.26-0.34h4.34c-0.18-0.74-0.78-1.64-1.34-2.28c-0.14-0.14-0.18-0.24-0.12-0.3
			c0.06-0.06,0.18-0.06,0.34-0.02c2.34,0.7,2.58,2.08,2.1,2.6h3.94c0.42-0.74,0.86-1.66,1.18-2.44c0.06-0.18,0.2-0.24,0.38-0.18
			l1.38,0.42c0.2,0.06,0.32,0.26,0.12,0.38c-0.12,0.06-0.3,0.12-0.52,0.1c-0.46,0.52-1.14,1.16-1.82,1.72h3.2l0.72-0.88
			c0.12-0.14,0.26-0.18,0.42-0.06l1.26,1.04c0.16,0.12,0.22,0.28,0.06,0.4c-0.08,0.06-0.22,0.1-0.38,0.1h-7.14v1.72h4.46l0.66-0.82
			c0.12-0.16,0.26-0.16,0.42-0.04c0.3,0.2,0.78,0.6,1.18,0.96c0.14,0.12,0.2,0.28,0.06,0.4c-0.08,0.06-0.2,0.1-0.36,0.1h-6.42v1.8
			h5.58l0.76-0.96C49.6,15.28,49.74,15.24,49.9,15.38z M39.78,20.76h7.74v-1.68h-7.74V20.76z M47.52,23.08v-1.72h-7.74v1.72H47.52z
			 M47.52,23.66h-7.74v1.74h7.74V23.66z"/>
		<path class="st0" d="M79.72,16.28c-0.1,0.02-0.24,0-0.44-0.06c-1.18,0.96-3.16,2.28-4.96,3.26c1.5,2.82,3.7,4.88,6.62,6.16
			c0.18,0.08,0.26,0.14,0.24,0.22c-0.02,0.06-0.12,0.1-0.28,0.12c-0.42,0.06-0.78,0.3-1.02,0.68c-0.12,0.16-0.26,0.22-0.42,0.12
			c-4.3-2.44-6.64-6.64-7.44-13c-0.92,1.32-2.06,2.54-3.4,3.64v7.04c1.54-0.46,3.3-0.98,5.08-1.54c0.18-0.04,0.3-0.04,0.34,0.08
			c0.02,0.12-0.04,0.2-0.2,0.28c-2.02,0.9-4.72,2.08-8.34,3.54c-0.02,0.12-0.08,0.22-0.16,0.32c-0.12,0.14-0.3,0.06-0.4-0.1
			l-0.58-1.06c-0.1-0.2-0.04-0.32,0.18-0.38c0.68-0.18,1.64-0.44,2.78-0.76v-6.46c-1.34,0.94-2.86,1.76-4.48,2.42
			c-0.18,0.06-0.28,0.04-0.34-0.06c-0.06-0.1,0-0.2,0.18-0.3c3.18-1.74,6-4.3,7.72-6.9H63c-0.18,0-0.3-0.1-0.34-0.26
			c-0.04-0.2,0.06-0.32,0.26-0.32h8.06V9.31c0-0.2,0.12-0.3,0.32-0.28l1.32,0.12c0.2,0.02,0.36,0.2,0.2,0.34
			c-0.1,0.1-0.26,0.18-0.48,0.22v3.24H78l0.82-0.98c0.12-0.16,0.26-0.16,0.42-0.04c0.32,0.24,0.88,0.7,1.34,1.12
			c0.14,0.12,0.2,0.28,0.06,0.38c-0.1,0.06-0.22,0.1-0.38,0.1H72.4c0.34,2.1,0.92,3.94,1.72,5.56c1.44-1.18,3.06-2.8,3.98-3.96
			c0.12-0.14,0.26-0.16,0.42-0.06l1.2,0.8C79.92,16.02,79.94,16.26,79.72,16.28z"/>
	</g>
</g>
<g>
	<g>
		<path class="st0" d="M146.02,16.66c-0.04,0.14-0.1,0.24-0.18,0.32c-0.14,0.12-0.3,0.06-0.4-0.12l-0.58-0.98
			c-0.12-0.18-0.06-0.34,0.18-0.36c1.24-0.18,3.42-0.58,5.72-1V12.8h-5.04c-0.16,0-0.28-0.06-0.34-0.24
			c-0.06-0.18,0.04-0.32,0.26-0.32h5.12v-1.88c0-0.2,0.12-0.3,0.32-0.28l1.32,0.14c0.2,0.02,0.34,0.2,0.2,0.34
			c-0.1,0.12-0.28,0.2-0.58,0.24v6.32c0,0.14-0.54,0.42-1.02,0.42c-0.14,0-0.24-0.12-0.24-0.3v-2.3
			C149.58,15.4,148.02,15.98,146.02,16.66z M158.43,17.66l1.18,0.84c0.18,0.14,0.18,0.32,0,0.42c-0.16,0.08-0.36,0.16-0.56,0.2v7.36
			c0,0.96-0.22,1.58-1.84,1.8c-0.2,0.04-0.3-0.06-0.36-0.24c-0.06-0.28-0.18-0.5-0.4-0.62c-0.26-0.2-0.7-0.36-1.46-0.46
			c-0.18-0.04-0.28-0.1-0.28-0.2s0.12-0.16,0.32-0.14c0.58,0.04,1.88,0.14,2.22,0.14c0.38,0,0.48-0.14,0.48-0.42v-2h-8.24v3.54
			c0,0.16-0.5,0.46-1.06,0.46c-0.14,0-0.22-0.12-0.22-0.3V18.02c0-0.22,0.16-0.32,0.36-0.22l1.04,0.46h7.94l0.46-0.56
			C158.13,17.54,158.29,17.56,158.43,17.66z M149.48,20.96h8.24v-2.1h-8.24V20.96z M157.73,21.56h-8.24v2.2h8.24V21.56z
			 M162.27,16.2c0,0.6-0.62,0.82-3.64,0.82h-2.1c-1.54,0-1.82-0.3-1.82-1.26v-5.4c0-0.2,0.12-0.3,0.32-0.28l1.16,0.14
			c0.2,0.02,0.34,0.2,0.18,0.34c-0.1,0.08-0.22,0.14-0.4,0.18v2.36c1.44-0.6,3.06-1.44,4.02-2.08c0.16-0.1,0.28-0.08,0.42,0.02
			l1.04,0.86c0.18,0.16,0.18,0.38-0.06,0.4c-0.16,0-0.38-0.04-0.62-0.14c-1.22,0.46-3.1,1.08-4.8,1.44v1.9
			c0,0.3,0.06,0.38,0.78,0.38h1.94c0.84,0,1.52-0.02,1.78-0.04c0.2,0,0.32-0.06,0.4-0.18c0.1-0.24,0.3-0.9,0.48-1.66
			c0.04-0.18,0.1-0.26,0.18-0.26s0.12,0.12,0.12,0.3l0.04,1.64C162.15,15.84,162.27,15.98,162.27,16.2z"/>
		<path class="st0" d="M182.37,10.51c0.32,0.24,0.92,0.72,1.42,1.16c0.14,0.12,0.2,0.28,0.06,0.4c-0.1,0.06-0.22,0.1-0.38,0.1h-8.06
			c-0.5,0.98-1.14,2.12-1.66,2.94h7.3l0.52-0.62c0.12-0.16,0.28-0.16,0.42-0.04l1.04,0.82c0.18,0.14,0.18,0.32,0,0.4
			c-0.14,0.08-0.32,0.12-0.56,0.16v11.9c0,0.1-0.5,0.44-1.12,0.44c-0.12,0-0.2-0.12-0.2-0.3v-1.16h-12.76v1.16
			c0,0.12-0.42,0.42-1.08,0.42c-0.12,0-0.2-0.12-0.2-0.3V14.86c0-0.22,0.12-0.34,0.34-0.24l1.18,0.5h4.5c0.16-0.8,0.4-2,0.54-2.94
			h-7.52c-0.18,0-0.28-0.1-0.32-0.26c-0.06-0.22,0.06-0.34,0.26-0.34h15.02l0.84-1.02C182.07,10.39,182.21,10.39,182.37,10.51z
			 M171.63,26.14V15.72h-3.24v10.42H171.63z M172.87,15.72v3.02h3.74v-3.02H172.87z M172.87,19.3v3.12h3.74V19.3H172.87z
			 M176.61,26.14v-3.16h-3.74v3.16H176.61z M177.85,26.14h3.3V15.72h-3.3V26.14z"/>
	</g>
</g>
<line class="st1" x1="4" y1="20.32" x2="22.62" y2="20.32"/>
<line class="st1" x1="93.38" y1="20.32" x2="111.99" y2="20.32"/>
<rect x="130.44" y="4.25" class="st1" width="65.35" height="31.5"/>
<g>
	<g>
		<path class="st0" d="M235.03,11.77c-0.16,0.08-0.34,0.14-0.56,0.18v14.52c0,0.96-0.16,1.58-1.46,1.8c-0.2,0.04-0.3-0.06-0.34-0.26
			c-0.06-0.28-0.14-0.5-0.28-0.64c-0.22-0.18-0.54-0.32-1.08-0.42c-0.18-0.02-0.28-0.1-0.28-0.2s0.12-0.16,0.32-0.14
			c0.46,0.04,1.3,0.1,1.54,0.1c0.3,0,0.4-0.1,0.4-0.4v-5.38h-2.1c-0.08,2.48-0.42,5.12-1.62,7.18c-0.1,0.16-0.22,0.22-0.32,0.16
			c-0.12-0.08-0.12-0.18-0.08-0.36c0.96-2.9,0.88-6.64,0.88-10v-7c0-0.22,0.16-0.32,0.36-0.22l1.06,0.46h1.62l0.44-0.54
			c0.12-0.14,0.28-0.18,0.42-0.06l1.08,0.82C235.21,11.52,235.23,11.68,235.03,11.77z M233.29,16.22h-2.06v1.68
			c0,0.78,0,1.6-0.02,2.46h2.08V16.22z M231.23,15.64h2.06v-3.88h-2.06V15.64z M240.59,17.24c0.26,0.2,0.66,0.56,1.02,0.9
			c0.12,0.12,0.18,0.28,0.04,0.4c-0.08,0.06-0.22,0.1-0.38,0.1h-2.52c-0.46,2-1.16,4.44-1.86,6.12c0.9-0.14,1.96-0.3,3.06-0.48
			c-0.3-1.06-0.72-2.16-1.1-3.04c-0.08-0.2-0.04-0.32,0.04-0.34s0.2,0.02,0.32,0.14c3.26,3.38,2.42,6.24,1.26,5.44
			c-0.12-0.1-0.16-0.2-0.18-0.36c-0.02-0.44-0.12-0.92-0.24-1.42c-0.98,0.4-2.3,0.9-4.02,1.5c-0.04,0.12-0.1,0.22-0.18,0.3
			c-0.12,0.14-0.28,0.06-0.38-0.1l-0.6-1.02c-0.1-0.2-0.02-0.36,0.2-0.38l1.16-0.14c0.4-1.72,0.84-4.36,1.08-6.22h-2.02
			c-0.18,0-0.3-0.1-0.34-0.26c-0.04-0.2,0.06-0.32,0.26-0.32h2.28v-3.78h-1.86c-0.18,0-0.3-0.1-0.34-0.26
			c-0.04-0.2,0.06-0.32,0.26-0.32h1.94v-3.24c0-0.2,0.12-0.3,0.32-0.28l1.16,0.12c0.22,0.02,0.36,0.2,0.2,0.36
			c-0.1,0.08-0.24,0.16-0.46,0.2v2.84h0.7l0.56-0.74c0.12-0.16,0.26-0.16,0.42-0.04c0.24,0.2,0.62,0.54,0.94,0.86
			c0.12,0.12,0.18,0.28,0.04,0.4c-0.08,0.06-0.2,0.1-0.36,0.1h-2.3v3.78h0.86l0.6-0.78C240.29,17.12,240.43,17.1,240.59,17.24z
			 M247.33,12.14c-0.16,0.08-0.34,0.16-0.56,0.2v11.62c0,0.96-0.16,1.56-1.42,1.8c-0.2,0.04-0.3-0.06-0.34-0.26
			c-0.06-0.28-0.14-0.52-0.28-0.68c-0.16-0.16-0.46-0.3-0.92-0.38c-0.18-0.04-0.28-0.12-0.28-0.22c0-0.08,0.12-0.12,0.32-0.12
			c0.4,0.04,1.12,0.1,1.32,0.1c0.3,0,0.38-0.12,0.38-0.38V12.1h-2.36v15.74c0,0.18-0.42,0.5-1,0.5c-0.14,0-0.22-0.12-0.22-0.3V11.25
			c0-0.22,0.16-0.32,0.36-0.22l0.96,0.46h2.06l0.44-0.54c0.12-0.14,0.28-0.18,0.42-0.06l1.1,0.84
			C247.49,11.87,247.51,12.04,247.33,12.14z"/>
	</g>
</g>
<rect x="205.72" y="4.25" class="st1" width="65.35" height="31.5"/>
<g>
	<g>
		<path class="st0" d="M305.06,12.06c-0.04-0.2,0.06-0.34,0.26-0.34h5.84l0.7-0.88c0.12-0.14,0.26-0.18,0.42-0.06
			c0.3,0.24,0.8,0.66,1.22,1.04c0.12,0.12,0.18,0.28,0.06,0.4c-0.1,0.06-0.22,0.1-0.38,0.1h-7.8
			C305.2,12.32,305.1,12.22,305.06,12.06z M313.35,24.44c-1.66,0.68-3.94,1.56-7.02,2.64c-0.06,0.12-0.12,0.24-0.2,0.34
			c-0.14,0.12-0.32,0.04-0.4-0.12l-0.6-1.12c-0.1-0.18-0.02-0.34,0.18-0.38c0.96-0.16,2.46-0.48,4.2-0.86
			c0.4-1.2,0.82-2.76,1.08-3.98c0.04-0.2,0.16-0.28,0.36-0.22l1.28,0.32c0.2,0.06,0.34,0.26,0.14,0.38
			c-0.12,0.08-0.3,0.14-0.52,0.12c-0.38,0.94-1.06,2.18-1.7,3.24l3.1-0.7c0.18-0.04,0.3-0.02,0.32,0.08
			C313.59,24.28,313.53,24.38,313.35,24.44z M311.21,20.06v-0.5h-4.06v0.48c0,0.12-0.48,0.38-0.98,0.38c-0.1,0-0.18-0.12-0.18-0.3
			v-5.56c0-0.22,0.14-0.32,0.36-0.22l0.9,0.38h3.8l0.46-0.5c0.12-0.14,0.28-0.14,0.42-0.02l0.96,0.72c0.16,0.12,0.18,0.32,0,0.42
			c-0.14,0.06-0.3,0.12-0.46,0.16v4.42c-0.02,0.14-0.62,0.44-1.02,0.44h-0.1C311.25,20.36,311.21,20.24,311.21,20.06z M306.96,20.96
			c2.72,2.02,1.58,4.24,0.54,3.46c-0.12-0.1-0.16-0.2-0.16-0.36c-0.02-0.94-0.34-2.04-0.72-2.86c-0.08-0.18-0.08-0.3,0.02-0.34
			C306.72,20.82,306.82,20.86,306.96,20.96z M311.21,15.32h-4.06v3.66h4.06V15.32z M311.37,27.9c1.86-0.72,3.92-1.94,5.08-3.2
			c0.12-0.14,0.28-0.16,0.42-0.06l1.04,0.64c0.2,0.12,0.24,0.38,0.02,0.38c-0.12,0-0.24-0.02-0.38-0.06
			c-1.28,1.14-3.82,2.18-6.06,2.68c-0.18,0.04-0.28,0-0.34-0.1C311.11,28.08,311.17,27.98,311.37,27.9z M322.03,10.31
			c0.32,0.24,0.88,0.7,1.32,1.1c0.12,0.12,0.18,0.28,0.06,0.4c-0.1,0.06-0.22,0.1-0.38,0.1h-4.02c-0.4,0.84-0.86,1.76-1.3,2.42h2.98
			l0.52-0.54c0.12-0.12,0.28-0.14,0.42-0.02l0.98,0.76c0.16,0.12,0.18,0.32,0,0.42c-0.14,0.06-0.28,0.1-0.46,0.14V24
			c0,0.14-0.02,0.26-0.14,0.34c-0.22,0.12-0.62,0.3-0.94,0.3c-0.12,0-0.2-0.12-0.2-0.3V23.8h-5.12v0.58c0,0.14-0.52,0.44-1.06,0.44
			c-0.14,0-0.22-0.12-0.22-0.3V14.1c0-0.22,0.16-0.32,0.36-0.22l1.02,0.46h1.2c0.14-0.66,0.3-1.62,0.4-2.42h-3.48
			c-0.18,0-0.28-0.1-0.32-0.26c-0.06-0.22,0.06-0.34,0.26-0.34h6.94l0.76-0.94C321.73,10.23,321.87,10.19,322.03,10.31z
			 M315.75,17.28h5.12v-2.34h-5.12V17.28z M320.87,20.26v-2.4h-5.12v2.4H320.87z M320.87,20.84h-5.12v2.38h5.12V20.84z
			 M319.29,24.74c4.74,1.18,4.48,3.96,3.12,3.58c-0.16-0.04-0.22-0.14-0.3-0.26c-0.58-1.02-1.9-2.22-2.98-3
			c-0.18-0.12-0.24-0.22-0.18-0.28C319.01,24.7,319.11,24.7,319.29,24.74z"/>
	</g>
</g>
<rect x="281.6" y="4.25" class="st1" width="65.35" height="31.5"/>
<g>
	<g>
		<path class="st0" d="M501.75,11.76c-0.12,0.08-0.3,0.14-0.48,0.18v14.52c0,0.98-0.18,1.6-1.6,1.8c-0.2,0.04-0.3-0.06-0.34-0.26
			c-0.06-0.24-0.16-0.46-0.34-0.6c-0.22-0.2-0.6-0.34-1.22-0.44c-0.18-0.02-0.28-0.1-0.28-0.2s0.12-0.16,0.32-0.14
			c0.52,0.04,1.54,0.12,1.8,0.12c0.36,0,0.44-0.12,0.44-0.42v-5.24h-2.2c-0.16,2.5-0.6,5.08-2.04,7.08
			c-0.12,0.14-0.22,0.2-0.34,0.12s-0.12-0.18-0.04-0.36c1.28-2.86,1.28-6.54,1.28-10v-7c0-0.22,0.12-0.34,0.34-0.24l1.12,0.48h1.7
			l0.44-0.54c0.12-0.16,0.28-0.16,0.42-0.04l1.02,0.78C501.93,11.5,501.95,11.66,501.75,11.76z M500.05,16.3h-2.14v1.6
			c0,0.82,0,1.7-0.04,2.6h2.18V16.3z M497.91,15.72h2.14v-3.96h-2.14V15.72z M514.25,27.06c0,0.52-0.56,0.78-2.94,0.78h-1.48
			c-1.3,0-1.58-0.34-1.58-1.3V17.2c-0.14,0.14-0.34,0.22-0.74,0.26c-0.5,4.14-1.62,8.24-5.7,10.76c-0.16,0.1-0.28,0.1-0.34,0
			c-0.08-0.12-0.04-0.22,0.12-0.34c1.94-1.52,3.08-3.54,3.78-5.76c-0.14,0.16-0.4,0.22-0.68,0.1c-0.14-0.06-0.2-0.16-0.26-0.3
			c-0.22-0.54-0.66-1.18-1.1-1.7c-0.46,0.84-0.94,1.62-1.48,2.28c-0.12,0.14-0.24,0.16-0.34,0.1c-0.1-0.06-0.1-0.18,0-0.34
			c1.1-1.98,2-4.76,2.42-7.62c0.02-0.2,0.16-0.3,0.34-0.26l1.2,0.28c0.2,0.04,0.32,0.24,0.16,0.38c-0.12,0.08-0.3,0.14-0.52,0.16
			c-0.12,0.5-0.26,1-0.4,1.5h1.42l0.56-0.56c0.12-0.12,0.28-0.14,0.42,0l1.14,1.02v-1.52c0-0.22,0.16-0.32,0.36-0.22l1.06,0.48h1.86
			l0.4-0.48c0.12-0.16,0.28-0.16,0.42-0.06l1,0.72c0.18,0.14,0.2,0.32,0,0.4c-0.14,0.08-0.3,0.12-0.48,0.16v4.94
			c0,0.92-0.14,1.5-1.32,1.7c-0.2,0.04-0.3-0.06-0.34-0.26c-0.04-0.24-0.12-0.46-0.26-0.58c-0.16-0.16-0.44-0.3-0.86-0.4
			c-0.18-0.04-0.28-0.12-0.28-0.22c0-0.08,0.12-0.14,0.32-0.12c0.38,0.04,1.02,0.08,1.22,0.08c0.28,0,0.36-0.1,0.36-0.36v-4.94
			h-2.28v9.76c0,0.34,0.08,0.46,0.64,0.46h1.26c0.6,0,1.04,0,1.22-0.04c0.16-0.02,0.26-0.06,0.32-0.24c0.12-0.3,0.32-1.48,0.54-2.6
			c0.02-0.18,0.08-0.28,0.16-0.28s0.12,0.12,0.12,0.3l0.06,2.68C514.15,26.68,514.25,26.82,514.25,27.06z M502.89,15.56
			c-0.36,0.4-1.06,0.52-1.34,0.12c-0.22-0.4,0-0.84,0.38-1.14c0.5-0.42,0.98-1.54,1-2.56c0.02-0.2,0.08-0.3,0.18-0.3
			c0.12,0,0.2,0.08,0.24,0.26c0.08,0.28,0.12,0.54,0.14,0.8h3.64v-2.32c0-0.2,0.12-0.3,0.32-0.28l1.18,0.14
			c0.2,0.02,0.36,0.2,0.2,0.34c-0.1,0.06-0.22,0.12-0.4,0.16v1.96h3.52l0.58-0.58c0.14-0.14,0.3-0.14,0.44-0.02l0.98,0.96
			c0.16,0.16,0.14,0.36-0.08,0.4c-0.1,0.02-0.24,0.04-0.42,0.04c-0.46,0.54-1.24,1.28-1.86,1.78c-0.14,0.1-0.24,0.12-0.34,0.06
			c-0.08-0.04-0.1-0.16-0.02-0.34c0.24-0.48,0.5-1.14,0.72-1.7h-8.42C503.55,14.38,503.25,15.16,502.89,15.56z M503.57,19.72
			c1.38,0.54,1.92,1.26,1.98,1.8c0.36-1.34,0.58-2.78,0.72-4.24h-1.74C504.25,18.14,503.93,18.96,503.57,19.72z"/>
	</g>
</g>
<rect x="472.12" y="4.25" class="st1" width="65.35" height="31.5"/>
<g>
	<g>
		<path class="st0" d="M372.81,27.54c3.92-0.84,6.88-4.42,7.3-8.86c0.08-1.06,0.08-1.76-0.4-2.28c-3.88,0.34-4.46,0.74-5.38,0.2
			c-1.14-0.66-0.72-1.5,0.1-1.22c1.78,0.64,4.02,0.38,8.58-0.14c1.26-0.14,2.12-0.38,2.9-0.02c1.3,0.6,0.94,1.46-0.02,1.2
			c-0.84-0.24-1.62-0.28-2.62-0.26c-1.06,0.04-1.98,0.1-2.78,0.16c0.36,0.22,0.62,0.42,0.92,0.66c0.74,0.66,0.32,1.18,0.22,1.38
			c-0.12,0.18-0.16,0.44-0.2,0.78c-0.48,4.96-4.66,8.18-8.54,8.78C372.43,27.98,372.37,27.64,372.81,27.54z M376.01,12.28
			c1.36,0.5,2.48,0.28,4.9-0.32c0.7-0.16,1.46-0.44,2.22-0.06c1,0.48,0.72,1.14,0.02,1.1c-0.68-0.04-1.06-0.06-1.92,0
			c-3.98,0.2-4.74,0.86-5.48,0.28C374.83,12.58,375.35,12.02,376.01,12.28z M383.99,10.43c1.04,0.4,1.66,0.84,2.2,1.82
			c0.6,1.16-0.72,1.64-1.26,0.52c-0.28-0.64-0.78-1.34-1.26-1.76C383.25,10.63,383.49,10.23,383.99,10.43z M385.99,10.07
			c0.78,0.26,1.64,0.72,2.14,1.5c0.54,0.94-0.62,1.68-1.2,0.58c-0.28-0.58-0.72-1.1-1.22-1.46
			C385.29,10.37,385.45,9.93,385.99,10.07z"/>
		<path class="st0" d="M401.87,23.66c-6.62,0.3-7.04,0.98-8.22-0.12c-0.86-0.82-0.5-1.4,0.32-1.04c1.36,0.64,2.1,0.54,7.72,0.12
			c0.38-0.02,0.72-0.08,1.1-0.1c0.32-2.06,0.42-3.44,0.62-5.36c0.04-0.32-0.08-0.4-0.28-0.4c-8.84,0.42-8.92,1-9.82-0.06
			c-0.82-0.96-0.32-1.68,0.56-1.08c1.4,0.94,3.48,0.6,9.54-0.04c1.44-0.16,1.56,0.34,1.32,1.54c-0.26,1.14-0.62,3.22-1.02,5.48
			c0.18,0.04,0.36,0.1,0.54,0.18c1.08,0.48,0.66,1.54-0.22,1.2C403.31,23.7,402.65,23.62,401.87,23.66z"/>
		<path class="st0" d="M414.05,17.52c0.04-0.94,0.14-1.42-0.52-2.02c-0.62-0.6-0.42-1.12,0.28-0.96c2.04,0.48,2.26,1.46,1.94,2.08
			c-0.14,0.22-0.2,0.52-0.2,0.86c-0.22,4.54-2.44,8.32-6.68,10.36c-0.3,0.16-0.52-0.12-0.1-0.36
			C411.75,25.76,413.89,21.54,414.05,17.52z M418.15,22.84c0.14-8,0.26-8.36-0.54-8.92c-0.66-0.48-0.66-1.3,0.4-1.02
			c2.18,0.54,1.8,1.52,1.68,2c-0.06,0.26-0.1,0.56-0.12,1.24c-0.12,2.16-0.16,3.18-0.16,6.02c0,0.3,0.18,0.38,0.44,0.26
			c2.22-1.16,3.6-2.3,6.06-4.66c0.46-0.42,0.74-0.04,0.42,0.32c-3.02,3.5-4.84,5.12-6.04,5.88
			C419.07,24.7,418.13,24.42,418.15,22.84z"/>
		<path class="st0" d="M431.05,27.6c3.92-0.86,6.88-4.44,7.3-8.88c0.08-1.06,0.08-1.76-0.38-2.28c-3.9,0.34-4.48,0.76-5.4,0.2
			c-1.14-0.66-0.72-1.5,0.1-1.2c1.78,0.62,4.02,0.36,8.58-0.16c1.26-0.14,2.14-0.38,2.9-0.02c1.3,0.6,0.94,1.46-0.02,1.2
			c-0.84-0.22-1.62-0.28-2.62-0.24c-1.06,0.04-1.98,0.1-2.78,0.16c0.36,0.2,0.62,0.4,0.92,0.64c0.74,0.66,0.32,1.18,0.22,1.38
			c-0.12,0.18-0.16,0.46-0.2,0.78c-0.48,4.96-4.64,8.18-8.54,8.78C430.67,28.02,430.61,27.68,431.05,27.6z M434.27,12.32
			c1.34,0.5,2.46,0.28,4.88-0.3c0.7-0.18,1.46-0.46,2.22-0.08c1,0.5,0.72,1.14,0.02,1.1c-0.68-0.04-1.04-0.06-1.92,0
			c-3.98,0.2-4.74,0.86-5.48,0.28C433.07,12.62,433.59,12.06,434.27,12.32z"/>
	</g>
</g>
<rect x="356.89" y="4.25" class="st1" width="105.35" height="31.5"/>
</svg>
