<?xml version="1.0" encoding="utf-8"?>
<!-- Generator: Adobe Illustrator 26.0.3, SVG Export Plug-In . SVG Version: 6.00 Build 0)  -->
<svg version="1.1" id="レイヤー_1" xmlns="http://www.w3.org/2000/svg" xmlns:xlink="http://www.w3.org/1999/xlink" x="0px"
	 y="0px" viewBox="0 0 567 40" style="enable-background:new 0 0 567 40;" xml:space="preserve">
<style type="text/css">
	.st0{fill:#463243;}
	.st1{fill:none;stroke:#463243;stroke-miterlimit:10;}
</style>
<g>
	<g>
		<path class="st0" d="M282.2,25.1c0-3.6,2.4-5.5,4.9-5.5c2.4,0,4.9,1.8,4.9,5.5c0,3.6-2.4,5.4-4.9,5.4
			C284.7,30.5,282.2,28.8,282.2,25.1z M290.4,25.1c0-3-1.2-4.7-3.2-4.7c-2,0-3.2,1.7-3.2,4.7c0,3,1.2,4.6,3.2,4.6
			C289.2,29.7,290.4,28.1,290.4,25.1z"/>
		<path class="st0" d="M302.1,19.7c0.6,0,1.1,0.2,1.4,0.6c0.1,0.1,0.1,0.2,0.1,0.4c-0.1,0.7-0.4,1.2-1.1,1.2c-0.5,0-0.9-0.2-1.3-0.6
			l-0.3-0.2c-0.9,0.6-1.6,1.5-2.1,2.9v1.8c0,1,0,2.5,0,3.7l1.6,0.2c0.2,0,0.3,0.1,0.3,0.3v0.1c0,0.2-0.1,0.3-0.3,0.3h-4.5
			c-0.2,0-0.3-0.1-0.3-0.3v-0.1c0-0.2,0.1-0.3,0.3-0.3l1.4-0.2c0-1.1,0.1-2.7,0.1-3.7v-1.1c0-1.3,0-2.1-0.1-3l-1.5-0.1
			c-0.2,0-0.3-0.1-0.3-0.3V21c0-0.2,0.1-0.3,0.2-0.3l2.4-0.9c0.1-0.1,0.3-0.1,0.4,0c0.1,0.1,0.1,0.2,0.2,0.3l0.2,2.4
			C299.6,20.8,300.8,19.7,302.1,19.7z"/>
	</g>
</g>
<g>
	<g>
		<path class="st0" d="M30.2,26.6c1.1,0,3.3,0,4.6,0c0.2,0,0.3,0.1,0.3,0.1c0,0.1-0.1,0.1-0.2,0.2c-0.3,0.1-0.4,0.4-0.5,0.7
			c0,0.2-0.1,0.3-0.3,0.3h-4c-4.8,0-7.3-0.9-9-4.9c-0.8,2-2,3.9-4,5.3c-0.2,0.1-0.3,0.1-0.3,0c-0.1-0.1,0-0.2,0.1-0.3
			c2.3-2.1,3.3-5.4,3.7-8.3c0-0.2,0.2-0.3,0.3-0.2l1.4,0.3c0.2,0,0.3,0.2,0.2,0.4c-0.1,0.1-0.3,0.2-0.6,0.2
			c-0.1,0.7-0.3,1.4-0.6,2.2c0.9,2,2.1,3,3.8,3.6v-8.9h-4v0.8c0,0.1-0.6,0.4-1.1,0.4c-0.1,0-0.2-0.1-0.2-0.3v-7
			c0-0.2,0.2-0.3,0.4-0.2l1.1,0.5h9.1l0.5-0.6c0.1-0.1,0.3-0.2,0.4,0l1.1,0.9c0.2,0.1,0.2,0.3,0,0.4c-0.2,0.1-0.4,0.2-0.6,0.2v5.6
			c0,0.1-0.7,0.5-1.1,0.5c-0.1,0-0.2-0.1-0.2-0.3v-0.8h-4v4h4.3l0.8-1c0.1-0.1,0.3-0.2,0.4-0.1c0.3,0.2,0.9,0.7,1.4,1.1
			c0.1,0.1,0.2,0.3,0.1,0.4c-0.1,0.1-0.2,0.1-0.4,0.1h-6.5v4.6C27.5,26.5,28.8,26.6,30.2,26.6z M30.5,12h-9.4v4.6h9.4V12z"/>
		<path class="st0" d="M55,23.7c-0.1,0-0.3,0-0.5,0c-0.7,0.5-1.9,1-3,1.4c1.5,0.8,3.3,1.4,5.4,1.7c0.2,0,0.3,0.1,0.3,0.2
			c0,0.1-0.1,0.1-0.3,0.2c-0.3,0.1-0.6,0.4-0.7,0.8c-0.1,0.2-0.2,0.2-0.4,0.2c-3.6-0.9-6.2-2.5-7.5-5.6h-0.2
			c-0.8,0.6-1.6,1.1-2.6,1.5v2.3l3.7-0.6c0.2,0,0.3,0,0.3,0.1c0,0.1-0.1,0.2-0.2,0.2c-1.8,0.6-4,1.3-7.1,2c0,0.1-0.1,0.2-0.2,0.3
			c-0.1,0.1-0.3,0-0.4-0.1l-0.5-1c-0.1-0.2,0-0.4,0.2-0.4c0.7-0.1,1.7-0.2,2.9-0.4v-2c-1.6,0.6-3.3,1-5.1,1.3c-0.2,0-0.3,0-0.3-0.1
			c0-0.1,0-0.2,0.2-0.3c2.7-0.7,5.2-1.6,7-2.9h-6.6c-0.2,0-0.3-0.1-0.3-0.3c-0.1-0.2,0.1-0.3,0.3-0.3h8v-1.5h-6.5
			c-0.2,0-0.3-0.1-0.3-0.3c0-0.2,0.1-0.3,0.3-0.3h6.6v-1.4H43v0.5c0,0.1-0.6,0.4-1.1,0.4c-0.1,0-0.2-0.1-0.2-0.3v-5.6
			c0-0.2,0.2-0.3,0.4-0.2l1,0.5h9.4l0.5-0.5c0.1-0.1,0.3-0.1,0.4,0l1,0.8c0.2,0.1,0.2,0.3,0,0.4c-0.1,0.1-0.3,0.1-0.5,0.2v4.1
			c0,0.1-0.7,0.4-1.1,0.4c-0.1,0-0.2-0.1-0.2-0.3v-0.3h-4.2v1.4h4.7l0.7-0.7c0.1-0.1,0.3-0.2,0.4-0.1c0.3,0.2,0.7,0.5,1.2,0.9
			c0.1,0.1,0.2,0.3,0.1,0.4c-0.1,0.1-0.2,0.1-0.4,0.1h-6.7v1.5h5.9l0.7-0.8c0.1-0.1,0.3-0.2,0.4-0.1c0.3,0.2,0.8,0.6,1.2,1
			c0.1,0.1,0.2,0.3,0.1,0.4c-0.1,0.1-0.2,0.1-0.4,0.1h-2.7l1.2,0.8C55.2,23.4,55.2,23.6,55,23.7z M39.4,11.8h7.8v-1.5
			c0-0.2,0.1-0.3,0.3-0.3l1.4,0.1c0.2,0,0.4,0.2,0.2,0.4c-0.1,0.1-0.3,0.2-0.6,0.2v1h5.5l0.8-1c0.1-0.1,0.3-0.2,0.4-0.1
			c0.3,0.3,0.9,0.7,1.3,1.1c0.1,0.1,0.2,0.3,0.1,0.4c-0.1,0.1-0.2,0.1-0.4,0.1H39.5c-0.2,0-0.3-0.1-0.3-0.3l0,0
			C39.1,11.9,39.2,11.8,39.4,11.8z M43,15.7h4.2v-1.5H43V15.7z M47.2,16.3H43v1.5h4.2V16.3z M48.5,15.7h4.2v-1.5h-4.2V15.7z
			 M52.8,16.3h-4.2v1.5h4.2V16.3z M51,24.8c1-0.7,2-1.6,2.6-2.3h-4.8C49.3,23.4,50.1,24.1,51,24.8z"/>
	</g>
</g>
<rect x="5" y="4.2" class="st1" width="65.4" height="31.5"/>
<g>
	<g>
		<path class="st0" d="M225.5,14.3c0.1-0.1,0-0.2-0.2-0.1c-0.9,0.5-2.1,0.5-2.9,0.1c-0.8-0.5-0.7-1.4,0.1-0.9
			c0.7,0.3,1.9,0.2,3.3-0.6c1.4-0.8,1.9,0.6,1,1.3c-5.3,4.3-6.5,11.9-0.9,11.9c7.3,0,5.6-10,4.3-13.1c-0.5-1.1,0.9-1.4,1.2-0.4
			c1.1,2.8,2.4,4,4.1,5.3c1.1,0.9,0.3,2-0.8,1.2c-0.8-0.7-2.1-2.1-2.7-3.3c-0.1-0.2-0.2-0.2-0.2,0.1c1.5,6.3-0.7,11.7-6,11.7
			C220.6,27.3,219.3,20.7,225.5,14.3z"/>
		<path class="st0" d="M244.6,20.4c2.1-0.6,4.2,0,5.6,0.6c0.5,0.2,0.9-0.1,0.6-0.9c-0.1-0.4-0.9-1.8-1.7-3.3c-3.3,1.1-6.8,0.9-8-0.2
			c-0.6-0.6-0.3-1,0.4-0.6c1.6,1,4.5,0.6,7-0.2c-0.7-1.2-1.4-2.3-1.7-2.6c-0.8-1,0.4-1.6,1.1-1.2c1.3,0.6,2.8,1.1,4.8,1.2
			c0.6,0,1.5,0.6,0.3,1.6c-0.9,0.7-1.9,1.2-2.9,1.6c0.9,1.7,1.6,3.3,2,4.5c0.7,2-1,2.2-2.2,1.4c-1.1-0.7-3.1-1.7-5.2-1.2
			c-3.4,0.8-1.3,5.7,5.1,4.6c1.3-0.2,2.2,1,0.7,1.3C242.7,28.7,239.9,21.7,244.6,20.4z M249.6,15.4c0.7-0.3,1.4-0.6,1.9-1
			c0.4-0.2,0.4-0.4,0-0.5c-0.9-0.3-1.8-0.5-3-1.1c-0.3-0.2-0.5,0-0.3,0.3C248.7,13.8,249.1,14.6,249.6,15.4z M252.9,10.6
			c1,0.4,1.6,0.9,2.2,1.8c0.6,1.2-0.7,1.6-1.3,0.5c-0.3-0.6-0.8-1.3-1.2-1.8C252.1,10.8,252.3,10.4,252.9,10.6z M254.9,10.3
			c0.8,0.3,1.6,0.7,2.1,1.5c0.5,0.9-0.6,1.7-1.2,0.6c-0.3-0.6-0.7-1.1-1.2-1.5C254.1,10.6,254.3,10.1,254.9,10.3z"/>
	</g>
</g>
<rect x="205.8" y="4.2" class="st1" width="65.4" height="31.5"/>
<g>
	<g>
		<path class="st0" d="M350,25.6c0.3,0.3,1,0.8,1.5,1.2c0.1,0.1,0.2,0.3,0,0.4c-0.1,0.1-0.2,0.1-0.4,0.1h-17.4
			c-0.2,0-0.3-0.1-0.3-0.3c-0.1-0.2,0.1-0.3,0.3-0.3h7.5V10.6c0-0.2,0.1-0.3,0.3-0.3l1.4,0.1c0.2,0,0.4,0.2,0.2,0.4
			c-0.1,0.1-0.3,0.2-0.6,0.2v6.5h4.6l0.9-1.1c0.1-0.1,0.3-0.2,0.4,0c0.3,0.3,0.9,0.8,1.4,1.2c0.1,0.1,0.2,0.3,0.1,0.4
			c-0.1,0.1-0.2,0.1-0.4,0.1h-7v8.6h6.2l0.9-1C349.7,25.5,349.9,25.5,350,25.6z"/>
		<path class="st0" d="M370.7,20.2c0.3,0.3,1,0.8,1.5,1.2c0.1,0.1,0.2,0.3,0.1,0.4c-0.1,0.1-0.2,0.1-0.4,0.1h-8.1v5.9
			c0,0.2-0.6,0.6-1.1,0.6c-0.2,0-0.3-0.1-0.3-0.3V22h-8c-0.2,0-0.3-0.1-0.3-0.3c0-0.2,0.1-0.3,0.3-0.3h8.1v-4h-6.7
			c-0.2,0-0.3-0.1-0.3-0.2c-0.1-0.2,0.1-0.3,0.3-0.3h6.8v-6.4c0-0.2,0.1-0.3,0.3-0.3l1.4,0.2c0.2,0,0.4,0.2,0.2,0.4
			c-0.1,0.1-0.3,0.2-0.6,0.2v5.9h4.6l0.8-1c0.1-0.1,0.3-0.2,0.4-0.1c0.3,0.2,0.9,0.7,1.4,1.2c0.1,0.1,0.2,0.3,0,0.4
			c-0.1,0.1-0.2,0.1-0.4,0.1h-6.9v4h5.6l0.9-1.1C370.4,20.1,370.5,20.1,370.7,20.2z M356.7,11c4.4,2.4,3.5,5.6,2.1,4.8
			c-0.1-0.1-0.2-0.2-0.2-0.3c-0.3-1.4-1.3-3-2.2-4.2c-0.1-0.2-0.2-0.3-0.1-0.3C356.5,10.9,356.6,10.9,356.7,11z M370.1,11.8
			c-0.1,0.1-0.3,0.1-0.6,0.1c-1,1.5-2.3,3-3.4,4.1c-0.1,0.1-0.2,0.1-0.3,0.1c-0.1,0-0.1-0.2,0-0.3c0.8-1.2,1.7-3,2.4-4.7
			c0.1-0.2,0.2-0.2,0.4-0.2l1.4,0.6C370.3,11.5,370.3,11.7,370.1,11.8z"/>
		<path class="st0" d="M393.6,17.8c-0.1,0-0.3,0-0.5-0.1c-0.8,1.1-1.8,2.2-3,3.3v5.4c0,1-0.2,1.7-2,1.9c-0.2,0-0.3-0.1-0.4-0.2
			c-0.1-0.3-0.2-0.5-0.4-0.6c-0.3-0.2-0.8-0.4-1.7-0.5c-0.2,0-0.3-0.1-0.3-0.2c0-0.1,0.1-0.1,0.3-0.1c0.7,0.1,2.2,0.2,2.5,0.2
			c0.4,0,0.5-0.1,0.5-0.5v-4.2c-3.2,2.5-7.3,4.6-12.1,5.9c-0.2,0.1-0.3,0-0.3-0.1c0-0.1,0-0.2,0.2-0.3c4.4-1.5,8.3-3.8,11.4-6.4
			c-2.7,0.6-6.1,1.3-10.4,2.1c0,0.1-0.1,0.2-0.2,0.3c-0.2,0.1-0.3,0.1-0.4-0.1l-0.4-1c-0.1-0.2,0-0.4,0.2-0.4c0.8-0.1,1.8-0.2,3-0.3
			v-9.7c0-0.2,0.2-0.3,0.4-0.2l1.1,0.5h2.3c0.2-0.6,0.5-1.5,0.6-2.3c0-0.2,0.2-0.3,0.4-0.2l1.5,0.3c0.2,0,0.3,0.2,0.2,0.4
			c-0.1,0.1-0.3,0.1-0.5,0.1c-0.3,0.5-0.8,1.2-1.2,1.7h4.2l0.5-0.6c0.1-0.1,0.3-0.2,0.4-0.1l1.2,0.9c0.2,0.1,0.2,0.3,0,0.4
			c-0.2,0.1-0.4,0.2-0.6,0.2v5.9c0.8-0.8,1.5-1.7,2.1-2.6c0.1-0.2,0.2-0.2,0.4-0.1l1.1,0.8C393.8,17.6,393.8,17.8,393.6,17.8z
			 M381.1,15.4h7.6v-2.3h-7.6V15.4z M388.7,18.3V16h-7.6v2.3H388.7z M388.6,20.7l0.1-0.1v-1.7h-7.6v2.9L388.6,20.7z"/>
	</g>
</g>
<rect x="320.3" y="4.2" class="st1" width="87.5" height="31.5"/>
<rect x="80.3" y="4.2" class="st1" width="115.6" height="31.5"/>
<g>
	<g>
		<path class="st0" d="M98.4,25.2c-0.5,0.6-0.9,1-1.5,1.2c-1.1,0.3-3.1-0.7-1.2-1.4c3-1.1,3.9-3.3,6.8-4.7c-1.2-2.7-1.8-4.3,0.8-4.9
			c1.6-0.4,0.1-2.3-0.7-3c-0.6-0.5-0.2-0.9,0.4-0.5c4.2,2.7,3.1,4.3,1.2,4.2c-2.2-0.1-2.3,0.8-0.8,3.9c4.1-1.3,8.9,1.7,8.9,5
			c0,2.1-1.7,2.1-1.7,0.6c0-4.2-3.3-5.8-6.9-4.9c0.5,1,1.1,2.1,1.9,3.5c1.7,3.1-1.6,3.8-3.2,2.5C101.5,25.7,100.1,25.4,98.4,25.2z
			 M102.6,25.6c0.9,0.3,2.1,0,1.7-1.1c-0.5-1.4-1-2.6-1.5-3.7c-2,0.8-3,2.5-4,3.8C100.2,24.9,101.9,25.3,102.6,25.6z"/>
		<path class="st0" d="M118.2,20c-0.3-0.4-0.5-1.1-0.2-1.7c2.1-4,4.4-5.4,4.2-6.7c-0.2-0.9,0.5-1.1,0.9-0.5c0.6,0.7,0.9,1.9-0.2,2.7
			c-1.4,1-3.3,3.1-4.1,4.9c-0.1,0.3-0.1,0.6,0.1,0.9c2.4,2.8,3.6,4.2,4.3,7.3c0.3,1.3-1.1,1.6-1.4,0.2C121.1,24,120,22.3,118.2,20z"
			/>
		<path class="st0" d="M134.6,27c13,0.1,8.8-13.4-0.1-4.4c-1.4,1.4-2.9,0.7-2.8-1c0.1-1.5,0.4-3.8,0.7-5.6c0.3-1.8,2-1.9,3.7-2.1
			c0.3,0,0.3-0.3,0.2-0.4c-0.5-0.8-1.1-1.1-2-1.5c-0.6-0.3-0.4-0.6,0-0.6c2.2,0.1,2.9,0.7,3.5,1.6c0.8,1.3,0.4,2.2-1.1,1.8
			c-2.6-0.7-3.1,0-3.2,1.2c-0.1,0.5-0.4,3.2-0.6,4.5c-0.2,1.3,0.7,1.1,1.5,0.5c11.4-8.2,14.2,7.3,0.2,6.4
			C133.9,27.5,134,27,134.6,27z"/>
		<path class="st0" d="M151.1,13.9c-0.9-1.2,0-1.9,1-0.7c1.1,1.4-0.6,6.4-1,8.4c-0.1,0.7,0.3,0.9,0.6,0.1c0.4-1.4,1-2.7,1.7-3.8
			c0.3-0.5,0.6-0.3,0.4,0.2c-0.7,1.7-2.1,5.2-1.6,6.9c0.6,2-0.8,2.4-1.5,0.7c-0.5-1.2-0.7-2.7-0.4-4.1
			C151.2,17.3,151.7,14.8,151.1,13.9z M161.9,24.4c-0.1,3.3-6.4,3.5-6.4,0.4c0-2.1,2.7-2.5,5.3-2c0-1.4,0.1-3.4,0-5.3
			c-1.3,0-2.7-0.4-3.9-1.5c-0.5-0.5-0.2-0.9,0.4-0.5c1.2,0.7,2.4,0.9,3.4,0.9c-0.1-1.9-0.2-3.6-0.5-4c-0.8-1-0.1-1.4,0.7-0.9
			c1.2,0.7,1.2,1.2,1.1,3.1c0.4,0.2,0.8,0.4,1.4,0.5c1.1,0.2,1.1,1-0.3,1.8c-0.4,0.2-0.9,0.4-1.4,0.5c-0.1,1.4-0.1,3.3,0,5.8
			c1.1,0.4,2.1,0.9,2.7,1.6c1.1,1.3,0.2,2.5-1,1C163.1,25.2,162.5,24.8,161.9,24.4z M160.7,23.9L160.7,23.9c-2.1-0.8-4.5-0.5-4.5,1
			C156.3,26.6,160.7,26.5,160.7,23.9z M162.7,15.9c0.2-0.1,0.1-0.3-0.1-0.4c-0.2-0.2-0.5-0.3-0.6-0.5l-0.1,1.2
			C162.2,16.2,162.4,16,162.7,15.9z"/>
		<path class="st0" d="M178.6,22.1c0.5,0.1,0.7,0,0.5-0.4c-0.3-1-0.7-1.9-1-2.8c-2.3,0.6-4.8,0.7-6.6-0.6c-0.6-0.5-0.2-0.9,0.4-0.6
			c1.9,1,4,0.8,5.9,0.2c-0.4-1-0.7-1.9-1.1-2.7c-1.5,0.2-3,0.1-3.9-0.3c-0.6-0.3-0.4-0.8,0.2-0.6c1.1,0.4,2.3,0.2,3.2-0.1
			c-0.6-1.1-1.2-1.8-1.8-2.1c-1.4-0.6-0.9-1.3,0.4-1c1.1,0.2,1.5,0.7,2.4,2.7c0.4-0.2,0.8-0.4,1.1-0.5c1-0.4,2.2,0.3,1,1
			c-0.3,0.2-0.6,0.3-1,0.4c1.4,0.4,3.3,0.7,4.1,0.9c0.9,0.1,1.1,0.9,0.3,1.4c-0.9,0.5-2.1,1.1-3.5,1.5c0.4,0.9,0.8,1.9,1.3,3.1
			c0.7,1.7-0.6,2.6-1.6,1.8c-5.3-3.7-10.9,3.9-0.7,2.6c1.7-0.2,2.4,1.3,0.8,1.4C168.1,28.6,170.3,19.9,178.6,22.1z M178.7,17.6
			c0.7-0.3,1.4-0.6,2-0.9c0.3-0.1,0.3-0.4-0.1-0.5c-0.8-0.2-2-0.6-2.9-0.9L178.7,17.6z M181.2,11.9c1,0.4,1.7,0.8,2.2,1.8
			c0.6,1.2-0.7,1.7-1.3,0.5c-0.3-0.7-0.8-1.4-1.3-1.8C180.5,12.1,180.7,11.7,181.2,11.9z M183.2,11.5c0.8,0.2,1.6,0.7,2.1,1.5
			c0.5,0.9-0.6,1.7-1.2,0.6c-0.3-0.6-0.7-1.1-1.2-1.5C182.5,11.8,182.7,11.4,183.2,11.5z"/>
	</g>
</g>
</svg>
