<?xml version="1.0" encoding="utf-8"?>
<!-- Generator: Adobe Illustrator 25.4.1, SVG Export Plug-In . SVG Version: 6.00 Build 0)  -->
<svg version="1.1" id="レイヤー_1" xmlns="http://www.w3.org/2000/svg" xmlns:xlink="http://www.w3.org/1999/xlink" x="0px"
	 y="0px" viewBox="0 0 567 80" style="enable-background:new 0 0 567 80;" xml:space="preserve">
<style type="text/css">
	.st0{fill:#463243;}
	.st1{fill:none;stroke:#463243;stroke-miterlimit:10;}
</style>
<g>
	<g>
		<path class="st0" d="M30.23,24.5c1.06,0,3.3,0,4.62-0.04c0.2,0,0.3,0.06,0.3,0.14s-0.08,0.14-0.24,0.22
			c-0.26,0.14-0.42,0.38-0.5,0.66c-0.04,0.18-0.14,0.28-0.32,0.28h-3.98c-4.76,0-7.32-0.86-8.96-4.86c-0.78,1.98-2,3.92-4.04,5.26
			c-0.16,0.1-0.28,0.12-0.34,0.04c-0.06-0.08-0.02-0.18,0.12-0.32c2.26-2.1,3.28-5.36,3.66-8.28c0.02-0.18,0.16-0.28,0.34-0.24
			l1.42,0.28c0.2,0.04,0.34,0.24,0.16,0.38c-0.12,0.1-0.3,0.16-0.56,0.18c-0.14,0.72-0.34,1.44-0.58,2.18c0.88,1.96,2.1,3,3.8,3.56
			v-8.88H21.1v0.82c0,0.14-0.56,0.44-1.08,0.44c-0.14,0-0.22-0.12-0.22-0.3V9.05c0-0.22,0.16-0.32,0.36-0.22l1.06,0.46h9.06
			l0.54-0.58c0.12-0.14,0.28-0.16,0.42-0.04l1.12,0.86c0.18,0.14,0.2,0.3,0.02,0.42c-0.16,0.08-0.36,0.16-0.58,0.2v5.56
			c-0.02,0.14-0.68,0.46-1.12,0.46c-0.12,0-0.2-0.12-0.2-0.3v-0.82h-4.02v3.96h4.26l0.78-0.96c0.12-0.14,0.26-0.18,0.42-0.06
			c0.32,0.24,0.9,0.72,1.36,1.12c0.14,0.12,0.2,0.28,0.06,0.4c-0.08,0.06-0.22,0.1-0.38,0.1h-6.5v4.64
			C27.55,24.44,28.79,24.5,30.23,24.5z M30.49,9.89H21.1v4.58h9.38V9.89z"/>
		<path class="st0" d="M54.97,21.6c-0.12,0.02-0.26,0-0.46-0.04c-0.72,0.46-1.9,1.02-3.04,1.44c1.48,0.84,3.32,1.38,5.36,1.68
			c0.18,0.02,0.28,0.1,0.28,0.16s-0.08,0.1-0.26,0.18c-0.32,0.14-0.58,0.4-0.74,0.78c-0.08,0.16-0.2,0.24-0.38,0.2
			c-3.64-0.9-6.16-2.52-7.48-5.58h-0.22c-0.76,0.56-1.64,1.06-2.62,1.48v2.28l3.74-0.6c0.18-0.04,0.32,0,0.34,0.1
			c0.02,0.12-0.06,0.18-0.24,0.24c-1.78,0.6-4.04,1.28-7.1,1.96c-0.04,0.14-0.1,0.24-0.18,0.32c-0.14,0.12-0.32,0.02-0.4-0.14
			l-0.52-0.96c-0.1-0.2-0.04-0.36,0.18-0.38c0.74-0.08,1.74-0.2,2.88-0.36V22.4c-1.56,0.56-3.32,0.98-5.12,1.28
			c-0.18,0.02-0.28-0.02-0.34-0.14c-0.04-0.1,0.04-0.2,0.24-0.26c2.7-0.66,5.22-1.64,7-2.86h-6.58c-0.16,0-0.3-0.1-0.34-0.26
			c-0.06-0.22,0.06-0.34,0.26-0.34h7.98v-1.48h-6.48c-0.18,0-0.3-0.1-0.34-0.26c-0.04-0.2,0.06-0.32,0.26-0.32h6.56v-1.4h-4.2v0.5
			c0,0.12-0.56,0.38-1.08,0.38c-0.1,0-0.18-0.12-0.18-0.3v-5.62c0-0.22,0.16-0.34,0.36-0.24l1,0.48h9.44l0.5-0.54
			c0.12-0.14,0.28-0.14,0.42-0.02l1.02,0.76c0.16,0.12,0.2,0.32,0,0.42c-0.14,0.08-0.3,0.12-0.48,0.16v4.1
			c-0.02,0.14-0.66,0.44-1.08,0.44c-0.12,0-0.2-0.1-0.2-0.26v-0.26h-4.24v1.4h4.74l0.66-0.72c0.12-0.14,0.26-0.16,0.42-0.06
			c0.28,0.18,0.74,0.54,1.16,0.86c0.14,0.12,0.2,0.28,0.06,0.4c-0.1,0.06-0.22,0.1-0.36,0.1h-6.68v1.48h5.94l0.7-0.78
			c0.12-0.14,0.26-0.16,0.42-0.06c0.28,0.22,0.8,0.6,1.22,0.96c0.12,0.1,0.2,0.26,0.06,0.38c-0.08,0.06-0.22,0.1-0.38,0.1h-2.74
			l1.24,0.78C55.13,21.32,55.17,21.56,54.97,21.6z M39.36,9.75h7.82V8.29c0-0.2,0.12-0.3,0.32-0.28l1.36,0.12
			c0.22,0.02,0.36,0.2,0.2,0.36c-0.12,0.1-0.3,0.18-0.56,0.22v1.04h5.54l0.76-0.96c0.12-0.14,0.26-0.18,0.42-0.06
			c0.32,0.26,0.88,0.7,1.32,1.12c0.14,0.12,0.2,0.28,0.06,0.4c-0.1,0.06-0.24,0.1-0.4,0.1H39.44c-0.18,0-0.28-0.1-0.32-0.26
			l-0.02-0.04C39.05,9.85,39.16,9.75,39.36,9.75z M43.01,13.66h4.2v-1.5h-4.2V13.66z M47.21,14.22h-4.2v1.54h4.2V14.22z
			 M48.49,13.66h4.24v-1.5h-4.24V13.66z M52.73,14.22h-4.24v1.54h4.24V14.22z M50.97,22.7c0.96-0.7,2-1.62,2.58-2.28h-4.84
			C49.29,21.34,50.05,22.08,50.97,22.7z"/>
	</g>
</g>
<rect x="5" y="2.19" class="st1" width="65.35" height="31.5"/>
<g>
	<g>
		<path class="st0" d="M226.42,12.28c0.1-0.12,0-0.22-0.18-0.12c-0.94,0.54-2.1,0.54-2.86,0.12c-0.8-0.46-0.7-1.36,0.14-0.94
			c0.74,0.34,1.88,0.2,3.3-0.62c1.36-0.78,1.88,0.56,1,1.3c-5.34,4.34-6.46,11.94-0.9,11.94c7.34,0,5.62-9.96,4.28-13.14
			c-0.48-1.1,0.86-1.4,1.22-0.44c1.12,2.78,2.44,4.04,4.06,5.32c1.14,0.9,0.26,2-0.8,1.16c-0.84-0.66-2.08-2.14-2.66-3.34
			c-0.1-0.2-0.24-0.16-0.18,0.06c1.5,6.28-0.72,11.7-6.04,11.7C221.5,25.28,220.28,18.62,226.42,12.28z"/>
		<path class="st0" d="M245.46,18.32c2.1-0.6,4.18,0.02,5.64,0.56c0.52,0.22,0.86-0.12,0.64-0.94c-0.12-0.4-0.88-1.82-1.72-3.28
			c-3.34,1.08-6.82,0.9-8-0.18c-0.62-0.58-0.3-0.98,0.38-0.56c1.6,1.02,4.52,0.62,7.04-0.24c-0.72-1.2-1.4-2.26-1.72-2.64
			c-0.8-0.96,0.38-1.56,1.08-1.2c1.26,0.64,2.84,1.14,4.78,1.24c0.64,0.02,1.5,0.64,0.3,1.58c-0.88,0.68-1.86,1.22-2.9,1.64
			c0.9,1.7,1.58,3.26,1.98,4.48c0.66,1.96-0.96,2.16-2.16,1.42c-1.14-0.68-3.08-1.7-5.24-1.18c-3.38,0.8-1.34,5.68,5.14,4.64
			c1.32-0.24,2.16,1.04,0.68,1.34C243.62,26.68,240.8,19.66,245.46,18.32z M250.44,13.3c0.72-0.3,1.36-0.62,1.9-0.96
			c0.44-0.24,0.36-0.42-0.02-0.52c-0.88-0.26-1.82-0.54-2.98-1.14c-0.3-0.16-0.5-0.04-0.26,0.32
			C249.58,11.78,250.02,12.54,250.44,13.3z M253.74,8.53c1.02,0.42,1.64,0.86,2.18,1.84c0.6,1.16-0.72,1.64-1.26,0.52
			c-0.28-0.64-0.78-1.34-1.24-1.76C253,8.75,253.22,8.35,253.74,8.53z M255.74,8.19c0.76,0.26,1.62,0.72,2.12,1.5
			c0.54,0.94-0.6,1.68-1.2,0.58c-0.28-0.58-0.72-1.1-1.22-1.46C255.02,8.49,255.18,8.05,255.74,8.19z"/>
	</g>
</g>
<rect x="205.77" y="2.19" class="st1" width="65.35" height="31.5"/>
<g>
	<g>
		<g>
			<path class="st0" d="M49.85,62.66h-8.33v9.12c0,0.35-0.24,0.59-0.59,0.59h-0.9c-0.35,0-0.59-0.24-0.59-0.59v-9.12h-8.33
				c-0.35,0-0.59-0.24-0.59-0.59v-0.75c0-0.35,0.24-0.59,0.59-0.59h8.33v-8.88c0-0.35,0.24-0.59,0.59-0.59h0.9
				c0.35,0,0.59,0.24,0.59,0.59v8.88h8.33c0.35,0,0.59,0.24,0.59,0.59v0.75C50.44,62.42,50.21,62.66,49.85,62.66z"/>
		</g>
	</g>
	<g>
		<g>
			<path class="st0" d="M282.79,66.1c0.14,4.94-7.72,4.08-7.72,0.8c0-2.14,3.08-2.9,6.44-2.34c0-9.32,0-9.86-1.22-10.52
				c-1.06-0.54-0.4-1.14,0.84-0.68c1.56,0.6,1.4,1.18,1.38,4.84c0.6,0.18,1.46,0.22,2.62-0.18c1.42-0.5,1.38,1.06,0.24,1.42
				c-0.92,0.3-1.98,0.16-2.86-0.1c0,1.42,0.04,3.2,0.18,5.46c1.52,0.4,3.02,1.04,4.26,1.94c1.64,1.18-0.34,1.88-1.32,0.98
				C284.87,67.04,283.87,66.5,282.79,66.1z M281.51,65.88v-0.16c-2.74-0.68-5.46-0.36-5.46,1.18
				C276.05,68.62,281.51,69.42,281.51,65.88z"/>
			<path class="st0" d="M295.77,68.98c3.36-0.3,6.8-2.6,7.14-6.84c0.64-7.78-9.24-6.66-6.3,0.96c0.58,1.54-0.52,1.94-1.14,1.04
				c-0.44-0.66-0.8-1.8-0.96-2.74c-0.52-3.34,1.5-5.62-0.04-7.52c-0.56-0.68,0.24-1.14,1.04-0.58c1.84,1.28,0.3,3.92,0.04,5.22
				c-0.06,0.26,0.1,0.32,0.2,0.06c1.84-4.64,8.64-3.58,8.3,3.5c-0.24,5.14-4.86,7.64-8.28,7.42
				C295.02,69.46,295.11,69.04,295.77,68.98z"/>
			<path class="st0" d="M319.57,63.16c0.28-0.32,0.66-0.24,0.36,0.3c-1.02,1.86-0.86,4.1,0.76,4.14c5.18,0.1,3.98-7.72-1.86-5.14
				c-0.9,0.4-1.72,0.9-2.48,1.44c0.02,0.94,0.08,1.98,0.16,3.12c0.14,2.06-1.24,2.68-2.06,1.44c-0.54-0.8-1.14-1.4-1.74-1.8
				c-0.56,0.36-1.06,0.6-1.52,0.6c-1.72,0-1.84-1.66,0.02-1.66c0.28,0,0.7,0.12,1.14,0.28c0.8-0.52,1.9-1.36,3.1-2.2
				c0.02-1.22,0.02-2.42,0-3.54c-1.66,0.56-2.88,0.6-3.88-0.48c-0.44-0.5-0.16-0.82,0.34-0.54c1.24,0.74,2.02,0.72,3.52,0.04
				c-0.06-2.28-0.26-4.02-0.78-4.38c-0.76-0.52-0.4-1.48,0.82-0.78c0.9,0.5,1.04,1.08,1,2.54c0.48,0.32,1.02,0.54,1.7,0.62
				c1.52,0.22,1.54,1.28,0.18,1.84c-0.74,0.3-1.4,0.58-2.02,0.82c-0.02,0.92-0.04,2-0.02,3.28c0.78-0.52,1.58-1,2.36-1.4
				c7.28-3.62,9.36,7.12,1.94,6.86C317.79,68.46,318.41,64.54,319.57,63.16z M311.17,66.44c0.16,0,0.36-0.08,0.64-0.24
				c-0.24-0.06-0.46-0.1-0.66-0.1C310.61,66.1,310.51,66.46,311.17,66.44z M314.73,67.04c0.32,0.2,0.72,0.32,0.72-0.28v-2.2
				c-0.8,0.62-1.52,1.24-2.18,1.72C313.97,66.62,314.57,66.96,314.73,67.04z M317.13,58.3c0.36-0.18,0.34-0.36,0-0.58
				c-0.24-0.16-0.46-0.36-0.68-0.54l-0.08,1.52L317.13,58.3z M326.23,57.92c0.96,1.04-0.24,2.18-1.16,0.92
				c-0.6-0.88-1.94-1.66-3.24-0.6c-0.48,0.4-0.56,0.04-0.32-0.3C322.51,56.56,324.95,56.58,326.23,57.92z"/>
			<path class="st0" d="M340.62,68.64c2.32,0,5.4,0,7.82-0.08c0.2,0,0.3,0.06,0.3,0.14s-0.08,0.14-0.26,0.2
				c-0.34,0.12-0.58,0.4-0.68,0.76c-0.06,0.16-0.16,0.26-0.34,0.26h-6.82c-3.7,0-5.36-0.46-6.8-2.74c-0.7,0.88-1.86,2.06-2.56,2.7
				c0.02,0.08,0.02,0.16,0.02,0.2c-0.04,0.22-0.3,0.16-0.4-0.02l-0.6-1.04c-0.1-0.16-0.06-0.3,0.12-0.4
				c0.68-0.34,1.6-0.88,2.48-1.42v-5.98h-2.28c-0.18,0-0.3-0.1-0.32-0.28c-0.04-0.2,0.08-0.3,0.28-0.3h2.04l0.6-0.78
				c0.12-0.16,0.26-0.18,0.42-0.04l1.18,1c0.16,0.14,0.18,0.32-0.02,0.4c-0.16,0.08-0.38,0.14-0.68,0.18v5.38
				C335.54,68.4,337.12,68.64,340.62,68.64z M331,52.77c4.3,1.62,3.48,4.56,2.14,3.86c-0.14-0.08-0.18-0.18-0.22-0.32
				c-0.3-1.1-1.24-2.38-2.12-3.22c-0.16-0.16-0.22-0.28-0.14-0.32C330.74,52.72,330.84,52.72,331,52.77z M347.1,62.62
				c0.3,0.24,0.82,0.66,1.26,1.04c0.14,0.12,0.2,0.28,0.06,0.4c-0.1,0.06-0.22,0.1-0.38,0.1h-12.56c-0.18,0-0.3-0.1-0.34-0.26
				c-0.04-0.2,0.06-0.32,0.26-0.32h3.36V61.2h-2.46c-0.18,0-0.3-0.1-0.34-0.26c-0.04-0.2,0.06-0.32,0.26-0.32h2.54v-1.54
				c0-0.2,0.12-0.3,0.32-0.28l1.06,0.1c0.22,0.02,0.38,0.2,0.2,0.34c-0.08,0.06-0.18,0.1-0.32,0.14v1.24H343v-1.54
				c0-0.2,0.12-0.3,0.32-0.28l1.06,0.1c0.22,0.02,0.36,0.2,0.2,0.34c-0.08,0.06-0.2,0.1-0.34,0.14v1.24h1.04l0.66-0.8
				c0.12-0.14,0.26-0.18,0.42-0.06c0.28,0.22,0.74,0.6,1.12,0.94c0.14,0.12,0.2,0.28,0.06,0.4c-0.1,0.06-0.24,0.1-0.38,0.1h-2.92
				v2.38h1.72l0.72-0.9C346.8,62.54,346.94,62.5,347.1,62.62z M335.62,67.42c1.38-0.72,2.8-1.88,3.56-2.78
				c0.12-0.14,0.26-0.2,0.42-0.1l1.16,0.62c0.2,0.12,0.26,0.36,0.02,0.4c-0.16,0.02-0.34,0.02-0.58-0.02
				c-0.98,0.78-2.7,1.72-4.44,2.24c-0.18,0.06-0.28,0.02-0.34-0.08C335.38,67.6,335.44,67.52,335.62,67.42z M335.66,53.35
				c-0.06-0.22,0.06-0.34,0.26-0.34h3.42l0.44-0.46c0.12-0.14,0.28-0.16,0.42-0.04l0.9,0.68c0.18,0.14,0.2,0.32,0,0.4
				c-0.1,0.06-0.26,0.12-0.42,0.14v2.14c0,0.14-0.6,0.42-1,0.42c-0.1,0-0.18-0.12-0.18-0.3v-0.34h-2.56v1.6
				c0,0.2,0.04,0.26,0.54,0.26h1.28c0.58,0,1.06,0,1.24-0.02c0.14,0,0.22-0.02,0.3-0.12c0.08-0.14,0.2-0.44,0.32-0.8
				c0.06-0.18,0.12-0.26,0.2-0.26s0.12,0.12,0.14,0.3l0.04,0.76c0.38,0.12,0.5,0.22,0.5,0.44c0,0.48-0.52,0.64-2.78,0.64h-1.5
				c-1.22,0-1.4-0.26-1.4-1.02v-2.58c0-0.22,0.16-0.32,0.36-0.22l1.02,0.44h2.3V53.6H336C335.84,53.6,335.72,53.54,335.66,53.35z
				 M343,63.58V61.2h-2.98v2.38H343z M342.02,53.35c-0.06-0.22,0.06-0.34,0.26-0.34h3.54l0.44-0.48c0.12-0.14,0.28-0.14,0.42-0.02
				l0.9,0.68c0.16,0.12,0.18,0.32-0.02,0.42c-0.1,0.04-0.24,0.1-0.38,0.12v2.14c-0.02,0.14-0.6,0.42-1.02,0.42
				c-0.1,0-0.18-0.12-0.18-0.3v-0.34h-2.58v1.6c0,0.2,0.04,0.26,0.54,0.26h1.4c0.6,0,1.14,0,1.32-0.02c0.14,0,0.22-0.02,0.28-0.12
				c0.1-0.14,0.24-0.5,0.36-0.9c0.06-0.18,0.12-0.26,0.2-0.26s0.14,0.12,0.14,0.3l0.04,0.84c0.38,0.14,0.5,0.24,0.5,0.46
				c0,0.48-0.52,0.64-2.9,0.64h-1.6c-1.24,0-1.44-0.26-1.44-1.02v-2.58c0-0.22,0.16-0.32,0.36-0.22l1.02,0.44h2.36V53.6h-3.62
				C342.2,53.6,342.08,53.54,342.02,53.35z M342.82,64.76c6.5,1.32,4.64,3.88,3.4,3.04c-0.12-0.08-0.16-0.16-0.24-0.26
				c-0.64-0.76-1.78-1.64-3.32-2.42c-0.18-0.08-0.24-0.18-0.2-0.28C342.5,64.74,342.62,64.72,342.82,64.76z"/>
			<path class="st0" d="M357.83,56.4c0.12-0.12,0.02-0.22-0.16-0.12c-0.94,0.54-2.12,0.54-2.86,0.12c-0.82-0.46-0.7-1.36,0.14-0.94
				c0.74,0.34,1.88,0.2,3.3-0.62c1.34-0.78,1.88,0.56,0.98,1.3c-5.34,4.34-6.46,11.94-0.88,11.94c7.32,0,5.62-9.96,4.28-13.14
				c-0.48-1.1,0.84-1.4,1.2-0.44c1.12,2.78,2.46,4.04,4.08,5.32c1.14,0.9,0.26,2-0.8,1.16c-0.84-0.66-2.1-2.14-2.66-3.34
				c-0.1-0.2-0.26-0.16-0.2,0.06c1.5,6.28-0.7,11.7-6.02,11.7C352.93,69.4,351.69,62.74,357.83,56.4z M365.38,54.62
				c1.04,0.42,1.66,0.86,2.2,1.84c0.6,1.16-0.74,1.64-1.26,0.52c-0.28-0.64-0.78-1.34-1.26-1.76
				C364.64,54.84,364.88,54.44,365.38,54.62z M367.38,54.28c0.78,0.26,1.64,0.72,2.12,1.5c0.56,0.94-0.6,1.68-1.18,0.58
				c-0.3-0.58-0.74-1.1-1.22-1.46C366.68,54.58,366.82,54.14,367.38,54.28z"/>
			<path class="st0" d="M377.51,67.84c0,0.96-0.22,1.72-1.82,1.96c-0.2,0.04-0.3-0.06-0.34-0.26c-0.08-0.26-0.18-0.52-0.38-0.68
				c-0.28-0.22-0.72-0.36-1.48-0.5c-0.18-0.02-0.28-0.1-0.28-0.2c0-0.08,0.12-0.14,0.32-0.12c0.58,0.04,1.86,0.14,2.18,0.14
				c0.38,0,0.5-0.12,0.5-0.42V54.98h-2.78c-0.16,0-0.3-0.08-0.34-0.26c-0.04-0.18,0.06-0.3,0.26-0.3h4.64l0.76-0.98
				c0.12-0.14,0.26-0.18,0.42-0.04c0.3,0.24,0.84,0.7,1.28,1.1c0.14,0.12,0.2,0.28,0.06,0.38c-0.1,0.06-0.24,0.1-0.4,0.1h-2.6V67.84
				z M378.91,70c1.68-0.84,3.6-2.12,4.66-3.34c0.12-0.14,0.26-0.18,0.42-0.08l1.1,0.7c0.18,0.12,0.22,0.36,0.02,0.36
				c-0.1,0-0.22-0.02-0.36-0.08c-1.26,1.08-3.62,2.2-5.7,2.8c-0.16,0.06-0.28,0.04-0.34-0.06C378.65,70.22,378.71,70.1,378.91,70z
				 M390.14,52.52c0.3,0.24,0.86,0.68,1.32,1.1c0.12,0.12,0.18,0.28,0.04,0.4c-0.1,0.06-0.22,0.1-0.36,0.1h-4.86
				c-0.4,0.8-0.88,1.66-1.32,2.26h3.62l0.48-0.54c0.12-0.14,0.28-0.16,0.42-0.04l0.98,0.76c0.16,0.12,0.18,0.32,0,0.42
				c-0.12,0.06-0.26,0.12-0.42,0.14v8.98c-0.02,0.14-0.64,0.44-1.1,0.44c-0.12,0-0.2-0.12-0.2-0.3V65.7h-6.24v0.68
				c0,0.14-0.52,0.46-1.08,0.46c-0.14,0-0.22-0.12-0.22-0.3V56.12c0-0.22,0.16-0.32,0.36-0.22l1.04,0.48h1.74
				c0.14-0.62,0.28-1.5,0.36-2.26h-4.28c-0.18,0-0.28-0.1-0.32-0.26c-0.06-0.22,0.06-0.34,0.26-0.34h8.58l0.78-0.96
				C389.84,52.39,389.98,52.39,390.14,52.52z M382.49,59.22h6.24v-2.26h-6.24V59.22z M388.74,62.12V59.8h-6.24v2.32H388.74z
				 M388.74,62.72h-6.24v2.38h6.24V62.72z M386.61,66.62c5.3,1.16,5.14,4.08,3.68,3.68c-0.14-0.04-0.2-0.1-0.28-0.24
				c-0.72-1.04-2.28-2.32-3.56-3.12c-0.18-0.1-0.24-0.2-0.18-0.28C386.34,66.6,386.44,66.58,386.61,66.62z"/>
			<path class="st0" d="M396.93,54.72c-0.88-1.34,0.12-2.12,1.06-0.8c1.1,1.52-0.82,7.36-1.2,9.6c-0.14,0.76,0.32,0.98,0.56,0.08
				c0.44-1.5,1.02-2.84,1.82-4.06c0.34-0.54,0.66-0.36,0.44,0.2c-0.68,1.8-2.06,5.72-1.6,7.5c0.62,2.22-0.64,2.6-1.5,0.74
				c-0.6-1.36-0.98-2.94-0.66-4.54C396.83,58.64,397.55,55.68,396.93,54.72z M402.29,69.22c3.32-2.28,4.32-5.1,4.14-9.9
				c-1.22,0.1-2.4,0.04-3.52-0.2c-0.66-0.16-0.56-0.7,0.04-0.66c1.3,0.12,2.38,0.06,3.42-0.14c-0.18-3.64-0.08-4.02-0.62-4.46
				c-1-0.84-0.58-1.42,0.5-1.04c0.98,0.38,1.18,1.28,1.28,2.8c0.8,0.64,1.5,1,2.08,1.28c1.08,0.5,1.14,1.4,0.04,1.76
				c-0.66,0.2-1.3,0.38-1.94,0.48c0.2,6.46-2.44,9.22-5.16,10.6C401.97,70.04,401.77,69.58,402.29,69.22z M407.65,57.98
				c0.3-0.1,0.62-0.2,0.94-0.34c0.26-0.12,0.26-0.28,0-0.44c-0.4-0.26-0.72-0.48-1.02-0.74C407.59,56.92,407.61,57.44,407.65,57.98z
				"/>
			<path class="st0" d="M423.75,66.8c-0.52,3.46-6.64,3.36-6.64,0.44c0-2,2.84-2.48,5.5-1.98c0.02-1.24,0.04-2.38,0.06-3.42
				c-1.74,0.06-3.4-0.24-4.8-0.9c-0.68-0.34-0.52-0.92,0.22-0.66c1.38,0.48,2.94,0.6,4.6,0.48c0.02-0.98,0.04-1.86,0.04-2.62
				c-3.1,0.5-4.4,0.12-5.74-0.8c-0.74-0.54-0.48-1.02,0.28-0.66c1.32,0.62,2.94,0.92,5.42,0.38c-0.06-1.4-0.28-2.34-0.76-2.82
				c-0.48-0.5-0.48-1.44,1.02-0.66c0.98,0.52,1.06,1.2,0.96,3.18c0.8-0.24,1.68-0.54,2.66-0.94c1.3-0.54,2.56,0.78,1.22,1.16
				c-1.48,0.4-2.72,0.7-3.78,0.92c0.72,0.84,1.92,1.6,3.2,1.72c0.84,0.06,1.06,0.88,0.02,1.28c-1.12,0.44-2.32,0.72-3.5,0.86
				c-0.02,1.1,0,2.36,0.04,3.78c1.06,0.32,2.02,0.8,2.66,1.38c1.54,1.42,0.38,2.44-0.42,1.58C425.35,67.78,424.57,67.22,423.75,66.8
				z M422.61,66.32c-2.38-0.8-4.64-0.38-4.64,0.86C417.97,69.02,422.55,68.96,422.61,66.32z M425.59,60.34
				c0.32-0.06,0.34-0.3,0.02-0.46c-0.66-0.34-1.28-0.78-1.78-1.4c-0.04,0.62-0.06,1.34-0.08,2.16
				C424.35,60.58,424.97,60.46,425.59,60.34z"/>
			<path class="st0" d="M435.26,57.08c1.64,0.72,4.38,0,8.04-0.46c-0.08-1.08-0.24-2.04-0.54-2.6c-0.66-1.26-0.08-1.52,0.9-0.94
				c0.38,0.24,0.56,0.5,0.66,0.86c2.46,1.66,4.06,2.48,6.34,3.14c1.06,0.3,0.96,1.22-0.2,1.02c-2.4-0.44-4.46-0.56-6.2-0.5
				c-0.02,0.86-0.02,1.9,0.06,3.16c0.18,0.38,0.28,0.84,0.32,1.36c0.16,2.4,0.04,6.96-3.76,7.92c-0.58,0.16-0.7-0.3-0.16-0.52
				c2.22-0.92,2.76-2.74,2.8-4.64c-1.24,1.18-3.32,0.66-3.58-2.6c-0.2-2.6,1.98-3.56,3.44-2.62c0-0.66,0-1.36-0.04-2.02
				c-4.12,0.24-6.44,1.36-7.92,0.84C433.66,57.88,434.12,56.6,435.26,57.08z M443.4,62.46l-0.04-0.4c-0.22-2.48-2.74-2.44-2.64,0.16
				C440.8,65.12,443.24,64.8,443.4,62.46z M447.26,56.66c0.24,0.02,0.2-0.18,0.04-0.28c-0.5-0.3-1.88-1.02-2.9-1.66
				c-0.02,0.46-0.06,1.12-0.1,1.82C445.44,56.54,446.14,56.56,447.26,56.66z"/>
		</g>
	</g>
	<g>
		<g>
			<path class="st0" d="M159.6,63.76c0-3.64,2.44-5.46,4.92-5.46c2.42,0,4.9,1.82,4.9,5.46c0,3.62-2.44,5.38-4.9,5.38
				C162.04,69.14,159.6,67.38,159.6,63.76z M167.74,63.76c0-2.98-1.22-4.66-3.22-4.66c-2.02,0-3.22,1.68-3.22,4.66
				c0,3,1.2,4.58,3.22,4.58C166.52,68.34,167.74,66.76,167.74,63.76z"/>
			<path class="st0" d="M179.42,58.3c0.56,0,1.12,0.22,1.42,0.56c0.08,0.1,0.1,0.22,0.1,0.36c-0.06,0.74-0.4,1.16-1.12,1.16
				c-0.5,0-0.88-0.24-1.28-0.58l-0.28-0.24c-0.94,0.62-1.58,1.54-2.08,2.92v1.82c0,1.02,0.02,2.54,0.04,3.66l1.56,0.22
				c0.18,0.02,0.28,0.14,0.28,0.32v0.06c0,0.18-0.12,0.3-0.3,0.3h-4.5c-0.18,0-0.3-0.12-0.3-0.3V68.5c0-0.18,0.1-0.3,0.28-0.32
				l1.36-0.2c0.04-1.12,0.06-2.66,0.06-3.68v-1.1c0-1.28-0.04-2.1-0.08-3.04l-1.5-0.12c-0.18-0.02-0.28-0.12-0.28-0.3v-0.1
				c0-0.16,0.08-0.28,0.24-0.34l2.42-0.9c0.14-0.06,0.26-0.06,0.36,0.02c0.1,0.06,0.14,0.18,0.16,0.32l0.18,2.4
				C176.88,59.38,178.16,58.3,179.42,58.3z"/>
		</g>
	</g>
	<g>
		<g>
			<path class="st0" d="M104.08,54.12c-0.04-0.2,0.06-0.34,0.26-0.34h5.84l0.7-0.88c0.12-0.14,0.26-0.18,0.42-0.06
				c0.3,0.24,0.8,0.66,1.22,1.04c0.12,0.12,0.18,0.28,0.06,0.4c-0.1,0.06-0.22,0.1-0.38,0.1h-7.8
				C104.22,54.38,104.12,54.28,104.08,54.12z M112.36,66.5c-1.66,0.68-3.94,1.56-7.02,2.64c-0.06,0.12-0.12,0.24-0.2,0.34
				c-0.14,0.12-0.32,0.04-0.4-0.12l-0.6-1.12c-0.1-0.18-0.02-0.34,0.18-0.38c0.96-0.16,2.46-0.48,4.2-0.86
				c0.4-1.2,0.82-2.76,1.08-3.98c0.04-0.2,0.16-0.28,0.36-0.22l1.28,0.32c0.2,0.06,0.34,0.26,0.14,0.38
				c-0.12,0.08-0.3,0.14-0.52,0.12c-0.38,0.94-1.06,2.18-1.7,3.24l3.1-0.7c0.18-0.04,0.3-0.02,0.32,0.08
				C112.6,66.34,112.54,66.44,112.36,66.5z M110.22,62.12v-0.5h-4.06v0.48c0,0.12-0.48,0.38-0.98,0.38c-0.1,0-0.18-0.12-0.18-0.3
				v-5.56c0-0.22,0.14-0.32,0.36-0.22l0.9,0.38h3.8l0.46-0.5c0.12-0.14,0.28-0.14,0.42-0.02l0.96,0.72c0.16,0.12,0.18,0.32,0,0.42
				c-0.14,0.06-0.3,0.12-0.46,0.16v4.42c-0.02,0.14-0.62,0.44-1.02,0.44h-0.1C110.26,62.42,110.22,62.3,110.22,62.12z M105.98,63.02
				c2.72,2.02,1.58,4.24,0.54,3.46c-0.12-0.1-0.16-0.2-0.16-0.36c-0.02-0.94-0.34-2.04-0.72-2.86c-0.08-0.18-0.08-0.3,0.02-0.34
				C105.74,62.88,105.84,62.92,105.98,63.02z M110.22,57.38h-4.06v3.66h4.06V57.38z M110.38,69.96c1.86-0.72,3.92-1.94,5.08-3.2
				c0.12-0.14,0.28-0.16,0.42-0.06l1.04,0.64c0.2,0.12,0.24,0.38,0.02,0.38c-0.12,0-0.24-0.02-0.38-0.06
				c-1.28,1.14-3.82,2.18-6.06,2.68c-0.18,0.04-0.28,0-0.34-0.1C110.12,70.14,110.18,70.04,110.38,69.96z M121.04,52.38
				c0.32,0.24,0.88,0.7,1.32,1.1c0.12,0.12,0.18,0.28,0.06,0.4c-0.1,0.06-0.22,0.1-0.38,0.1h-4.02c-0.4,0.84-0.86,1.76-1.3,2.42
				h2.98l0.52-0.54c0.12-0.12,0.28-0.14,0.42-0.02l0.98,0.76c0.16,0.12,0.18,0.32,0,0.42c-0.14,0.06-0.28,0.1-0.46,0.14v8.9
				c0,0.14-0.02,0.26-0.14,0.34c-0.22,0.12-0.62,0.3-0.94,0.3c-0.12,0-0.2-0.12-0.2-0.3v-0.54h-5.12v0.58
				c0,0.14-0.52,0.44-1.06,0.44c-0.14,0-0.22-0.12-0.22-0.3V56.16c0-0.22,0.16-0.32,0.36-0.22l1.02,0.46h1.2
				c0.14-0.66,0.3-1.62,0.4-2.42h-3.48c-0.18,0-0.28-0.1-0.32-0.26c-0.06-0.22,0.06-0.34,0.26-0.34h6.94l0.76-0.94
				C120.74,52.3,120.88,52.26,121.04,52.38z M114.76,59.34h5.12V57h-5.12V59.34z M119.88,62.32v-2.4h-5.12v2.4H119.88z M119.88,62.9
				h-5.12v2.38h5.12V62.9z M118.3,66.8c4.74,1.18,4.48,3.96,3.12,3.58c-0.16-0.04-0.22-0.14-0.3-0.26c-0.58-1.02-1.9-2.22-2.98-3
				c-0.18-0.12-0.24-0.22-0.18-0.28C118.02,66.76,118.12,66.76,118.3,66.8z"/>
		</g>
	</g>
	<rect x="82.39" y="46.31" class="st1" width="65.35" height="31.5"/>
	<g>
		<g>
			<path class="st0" d="M225.78,53.82c-0.12,0.08-0.3,0.14-0.48,0.18v14.52c0,0.98-0.18,1.6-1.6,1.8c-0.2,0.04-0.3-0.06-0.34-0.26
				c-0.06-0.24-0.16-0.46-0.34-0.6c-0.22-0.2-0.6-0.34-1.22-0.44c-0.18-0.02-0.28-0.1-0.28-0.2c0-0.1,0.12-0.16,0.32-0.14
				c0.52,0.04,1.54,0.12,1.8,0.12c0.36,0,0.44-0.12,0.44-0.42v-5.24h-2.2c-0.16,2.5-0.6,5.08-2.04,7.08
				c-0.12,0.14-0.22,0.2-0.34,0.12s-0.12-0.18-0.04-0.36c1.28-2.86,1.28-6.54,1.28-10v-7c0-0.22,0.12-0.34,0.34-0.24l1.12,0.48h1.7
				l0.44-0.54c0.12-0.16,0.28-0.16,0.42-0.04l1.02,0.78C225.96,53.56,225.98,53.72,225.78,53.82z M224.08,58.36h-2.14v1.6
				c0,0.82,0,1.7-0.04,2.6h2.18V58.36z M221.94,57.78h2.14v-3.96h-2.14V57.78z M238.28,69.12c0,0.52-0.56,0.78-2.94,0.78h-1.48
				c-1.3,0-1.58-0.34-1.58-1.3v-9.34c-0.14,0.14-0.34,0.22-0.74,0.26c-0.5,4.14-1.62,8.24-5.7,10.76c-0.16,0.1-0.28,0.1-0.34,0
				c-0.08-0.12-0.04-0.22,0.12-0.34c1.94-1.52,3.08-3.54,3.78-5.76c-0.14,0.16-0.4,0.22-0.68,0.1c-0.14-0.06-0.2-0.16-0.26-0.3
				c-0.22-0.54-0.66-1.18-1.1-1.7c-0.46,0.84-0.94,1.62-1.48,2.28c-0.12,0.14-0.24,0.16-0.34,0.1c-0.1-0.06-0.1-0.18,0-0.34
				c1.1-1.98,2-4.76,2.42-7.62c0.02-0.2,0.16-0.3,0.34-0.26l1.2,0.28c0.2,0.04,0.32,0.24,0.16,0.38c-0.12,0.08-0.3,0.14-0.52,0.16
				c-0.12,0.5-0.26,1-0.4,1.5h1.42l0.56-0.56c0.12-0.12,0.28-0.14,0.42,0l1.14,1.02V57.7c0-0.22,0.16-0.32,0.36-0.22l1.06,0.48h1.86
				l0.4-0.48c0.12-0.16,0.28-0.16,0.42-0.06l1,0.72c0.18,0.14,0.2,0.32,0,0.4c-0.14,0.08-0.3,0.12-0.48,0.16v4.94
				c0,0.92-0.14,1.5-1.32,1.7c-0.2,0.04-0.3-0.06-0.34-0.26c-0.04-0.24-0.12-0.46-0.26-0.58c-0.16-0.16-0.44-0.3-0.86-0.4
				c-0.18-0.04-0.28-0.12-0.28-0.22c0-0.08,0.12-0.14,0.32-0.12c0.38,0.04,1.02,0.08,1.22,0.08c0.28,0,0.36-0.1,0.36-0.36v-4.94
				h-2.28v9.76c0,0.34,0.08,0.46,0.64,0.46h1.26c0.6,0,1.04,0,1.22-0.04c0.16-0.02,0.26-0.06,0.32-0.24c0.12-0.3,0.32-1.48,0.54-2.6
				c0.02-0.18,0.08-0.28,0.16-0.28s0.12,0.12,0.12,0.3l0.06,2.68C238.18,68.74,238.28,68.88,238.28,69.12z M226.92,57.62
				c-0.36,0.4-1.06,0.52-1.34,0.12c-0.22-0.4,0-0.84,0.38-1.14c0.5-0.42,0.98-1.54,1-2.56c0.02-0.2,0.08-0.3,0.18-0.3
				c0.12,0,0.2,0.08,0.24,0.26c0.08,0.28,0.12,0.54,0.14,0.8h3.64v-2.32c0-0.2,0.12-0.3,0.32-0.28l1.18,0.14
				c0.2,0.02,0.36,0.2,0.2,0.34c-0.1,0.06-0.22,0.12-0.4,0.16v1.96h3.52l0.58-0.58c0.14-0.14,0.3-0.14,0.44-0.02l0.98,0.96
				c0.16,0.16,0.14,0.36-0.08,0.4c-0.1,0.02-0.24,0.04-0.42,0.04c-0.46,0.54-1.24,1.28-1.86,1.78c-0.14,0.1-0.24,0.12-0.34,0.06
				c-0.08-0.04-0.1-0.16-0.02-0.34c0.24-0.48,0.5-1.14,0.72-1.7h-8.42C227.58,56.44,227.28,57.22,226.92,57.62z M227.6,61.78
				c1.38,0.54,1.92,1.26,1.98,1.8c0.36-1.34,0.58-2.78,0.72-4.24h-1.74C228.28,60.2,227.96,61.02,227.6,61.78z"/>
		</g>
	</g>
	<rect x="196.39" y="46.31" class="st1" width="65.35" height="31.5"/>
</g>
<rect x="80.29" y="2.19" class="st1" width="115.61" height="31.5"/>
<g>
	<g>
		<path class="st0" d="M96.25,23.12c-0.46,0.58-0.94,1.04-1.52,1.22c-1.14,0.34-3.12-0.74-1.18-1.44c3-1.08,3.92-3.34,6.8-4.66
			c-1.2-2.68-1.78-4.26,0.76-4.94c1.64-0.44,0.12-2.32-0.68-3.02c-0.6-0.54-0.16-0.86,0.42-0.5c4.16,2.66,3.12,4.32,1.18,4.2
			c-2.18-0.14-2.32,0.8-0.78,3.92c4.14-1.26,8.92,1.72,8.92,4.96c0,2.12-1.74,2.08-1.74,0.58c0-4.18-3.32-5.78-6.86-4.9
			c0.5,0.96,1.14,2.12,1.9,3.48c1.7,3.1-1.64,3.84-3.22,2.48C99.27,23.68,97.91,23.3,96.25,23.12z M100.45,23.56
			c0.88,0.32,2.06,0,1.68-1.06c-0.48-1.38-1.02-2.62-1.52-3.68c-1.98,0.78-3.04,2.52-4.02,3.84
			C98.03,22.86,99.67,23.28,100.45,23.56z"/>
		<path class="st0" d="M115.96,17.98c-0.32-0.44-0.46-1.08-0.16-1.68c2.06-4.02,4.42-5.36,4.16-6.66c-0.18-0.94,0.46-1.08,0.88-0.54
			c0.56,0.72,0.88,1.86-0.24,2.66c-1.36,1.02-3.32,3.08-4.06,4.88c-0.14,0.32-0.14,0.6,0.14,0.92c2.4,2.8,3.62,4.22,4.28,7.34
			c0.26,1.32-1.14,1.58-1.44,0.22C118.78,21.94,117.68,20.2,115.96,17.98z"/>
		<path class="st0" d="M132.22,24.98c13,0.1,8.84-13.38-0.1-4.38c-1.44,1.44-2.88,0.7-2.78-1c0.08-1.48,0.42-3.82,0.68-5.58
			s1.96-1.88,3.72-2.12c0.28-0.04,0.28-0.28,0.16-0.44c-0.52-0.78-1.14-1.14-2.04-1.5c-0.62-0.26-0.36-0.6,0-0.6
			c2.24,0.08,2.88,0.66,3.5,1.64c0.84,1.28,0.44,2.24-1.14,1.82c-2.56-0.7-3.12,0.04-3.24,1.2c-0.06,0.54-0.36,3.18-0.56,4.48
			c-0.16,1.32,0.74,1.06,1.52,0.52c11.4-8.16,14.2,7.3,0.24,6.42C131.54,25.4,131.6,24.96,132.22,24.98z"/>
		<path class="st0" d="M148.68,11.86c-0.9-1.24,0.04-1.86,0.98-0.66c1.08,1.4-0.62,6.36-1,8.4c-0.14,0.72,0.32,0.94,0.56,0.12
			c0.36-1.36,1.02-2.68,1.68-3.76c0.3-0.5,0.64-0.3,0.44,0.18c-0.68,1.66-2.08,5.24-1.6,6.86c0.62,2.02-0.8,2.44-1.5,0.68
			c-0.48-1.22-0.72-2.66-0.38-4.12C148.84,15.22,149.27,12.72,148.68,11.86z M159.48,22.36c-0.12,3.26-6.38,3.46-6.38,0.4
			c0-2.08,2.72-2.54,5.26-1.96c0.04-1.36,0.06-3.42,0.04-5.34c-1.3,0.04-2.7-0.4-3.88-1.48c-0.5-0.46-0.22-0.88,0.42-0.5
			c1.18,0.7,2.38,0.94,3.44,0.88c-0.06-1.94-0.2-3.6-0.52-4.02c-0.76-1.04-0.1-1.36,0.68-0.9c1.2,0.74,1.24,1.2,1.08,3.08
			c0.38,0.24,0.76,0.4,1.42,0.54c1.14,0.2,1.1,1.02-0.26,1.76c-0.42,0.24-0.88,0.4-1.36,0.52c-0.06,1.44-0.1,3.3,0,5.76
			c1.1,0.36,2.06,0.92,2.68,1.62c1.12,1.3,0.2,2.54-1,1C160.68,23.16,160.1,22.72,159.48,22.36z M158.34,21.88v-0.02
			c-2.14-0.76-4.46-0.46-4.46,1C153.88,24.5,158.28,24.4,158.34,21.88z M160.28,13.86c0.16-0.1,0.12-0.26-0.06-0.38
			c-0.24-0.16-0.46-0.32-0.64-0.48l-0.1,1.18C159.76,14.1,160.04,13.98,160.28,13.86z"/>
		<path class="st0" d="M176.13,20c0.5,0.14,0.7-0.02,0.54-0.44c-0.34-0.96-0.68-1.9-1-2.76c-2.32,0.6-4.84,0.72-6.64-0.56
			c-0.64-0.46-0.18-0.86,0.4-0.58c1.9,1,4,0.8,5.9,0.2c-0.38-0.98-0.74-1.88-1.1-2.66c-1.5,0.24-3,0.14-3.88-0.26
			c-0.62-0.3-0.36-0.82,0.16-0.64c1.14,0.4,2.26,0.24,3.22-0.1c-0.58-1.08-1.2-1.82-1.84-2.08c-1.44-0.58-0.92-1.28,0.42-0.96
			c1.06,0.24,1.5,0.7,2.38,2.66c0.42-0.18,0.78-0.36,1.08-0.5c0.98-0.44,2.16,0.32,0.96,1.02c-0.3,0.18-0.62,0.32-0.98,0.44
			c1.38,0.4,3.26,0.74,4.1,0.86c0.88,0.1,1.12,0.9,0.3,1.36c-0.92,0.52-2.14,1.06-3.46,1.5c0.4,0.9,0.84,1.92,1.34,3.08
			c0.74,1.66-0.58,2.56-1.64,1.82c-5.32-3.72-10.94,3.94-0.66,2.6c1.72-0.22,2.38,1.28,0.78,1.44
			C165.65,26.52,167.81,17.82,176.13,20z M176.27,15.52c0.74-0.28,1.4-0.6,2.02-0.92c0.26-0.14,0.3-0.36-0.12-0.5
			c-0.8-0.22-1.96-0.56-2.9-0.94L176.27,15.52z M178.75,9.81c1.04,0.42,1.66,0.84,2.2,1.82c0.6,1.16-0.72,1.66-1.26,0.54
			c-0.28-0.66-0.78-1.36-1.26-1.78C178.01,10.02,178.25,9.62,178.75,9.81z M180.75,9.48c0.78,0.24,1.64,0.7,2.14,1.5
			c0.54,0.92-0.62,1.66-1.2,0.56c-0.3-0.56-0.72-1.1-1.22-1.46C180.05,9.75,180.21,9.31,180.75,9.48z"/>
	</g>
</g>
</svg>
