<?xml version="1.0" encoding="utf-8"?>
<!-- Generator: Adobe Illustrator 25.4.1, SVG Export Plug-In . SVG Version: 6.00 Build 0)  -->
<svg version="1.1" id="レイヤー_1" xmlns="http://www.w3.org/2000/svg" xmlns:xlink="http://www.w3.org/1999/xlink" x="0px"
	 y="0px" viewBox="0 0 567 80" style="enable-background:new 0 0 567 80;" xml:space="preserve">
<style type="text/css">
	.st0{fill:#463243;}
	.st1{fill:none;stroke:#463243;stroke-miterlimit:10;}
</style>
<g>
	<g>
		<path class="st0" d="M42.42,26.49c-0.2,0.04-0.32-0.06-0.36-0.24c-0.06-0.28-0.16-0.54-0.34-0.7c-0.22-0.2-0.6-0.36-1.22-0.48
			c-0.18-0.02-0.28-0.1-0.28-0.2c0-0.1,0.12-0.14,0.32-0.14c0.52,0.06,1.54,0.14,1.82,0.14c0.32,0,0.42-0.12,0.42-0.42v-5.04H40
			c-0.2,2.46-0.7,5.06-2,7.16c-0.1,0.16-0.22,0.22-0.32,0.16c-0.12-0.08-0.12-0.18-0.06-0.36c1.26-3.4,1.28-7.56,1.28-11.26V9.33
			c0-0.22,0.16-0.32,0.36-0.22l1.12,0.48h2.24l0.44-0.54c0.12-0.14,0.28-0.18,0.42-0.06l1.04,0.8c0.16,0.12,0.2,0.32,0,0.42
			c-0.14,0.08-0.3,0.14-0.48,0.18v14.22C44.04,25.63,43.88,26.27,42.42,26.49z M42.78,14.69h-2.66v0.42c0,1.14,0,2.42-0.08,3.74
			h2.74V14.69z M40.12,14.13h2.66v-3.94h-2.66V14.13z M56.21,25.49c0,0.54-0.5,0.82-2.66,0.82H52.2c-1.24,0-1.46-0.32-1.46-1.2
			v-6.78h-1.38c-0.3,4.08-1.4,6.6-4.94,8.34c-0.18,0.1-0.3,0.1-0.34,0s0-0.22,0.16-0.32c2.92-2,3.66-4.42,3.82-8.02h-1.08v0.76
			c0,0.12-0.52,0.38-1.02,0.38c-0.12,0-0.2-0.12-0.2-0.3v-6.52c0-0.22,0.16-0.32,0.36-0.22l0.96,0.44h3.68
			c0.54-1.2,1.14-2.8,1.54-4.08c0.06-0.2,0.18-0.26,0.36-0.2l1.4,0.46c0.2,0.06,0.3,0.28,0.1,0.38c-0.12,0.08-0.28,0.1-0.5,0.08
			c-0.56,1-1.48,2.3-2.4,3.36h2.08l0.48-0.52c0.12-0.14,0.28-0.14,0.42-0.02l0.98,0.74c0.18,0.12,0.2,0.32,0,0.42
			c-0.14,0.06-0.28,0.12-0.44,0.14v5.22c-0.02,0.14-0.64,0.46-1.06,0.46c-0.12,0-0.2-0.12-0.2-0.3v-0.68h-1.56v6.44
			c0,0.26,0.06,0.34,0.52,0.34h1.08c0.5,0,0.84-0.02,1.02-0.02c0.16-0.02,0.22-0.06,0.3-0.28c0.1-0.34,0.3-1.6,0.52-2.8
			c0.02-0.18,0.1-0.28,0.18-0.28s0.14,0.12,0.14,0.3l0.04,2.88C56.17,25.09,56.21,25.25,56.21,25.49z M46.88,8.75
			c3.4,1.94,2.5,4.36,1.36,3.7c-0.14-0.08-0.18-0.18-0.22-0.32c-0.2-1.04-0.82-2.26-1.42-3.12c-0.12-0.16-0.14-0.26-0.06-0.32
			C46.64,8.63,46.72,8.67,46.88,8.75z M53.52,17.73v-4.26h-6.54v4.26H53.52z"/>
		<path class="st0" d="M84,15.77c-0.1,0.02-0.24,0-0.44-0.06c-1.18,0.96-3.16,2.28-4.96,3.26c1.5,2.82,3.7,4.88,6.62,6.16
			c0.18,0.08,0.26,0.14,0.24,0.22c-0.02,0.06-0.12,0.1-0.28,0.12c-0.42,0.06-0.78,0.3-1.02,0.68c-0.12,0.16-0.26,0.22-0.42,0.12
			c-4.3-2.44-6.64-6.64-7.44-13c-0.92,1.32-2.06,2.54-3.4,3.64v7.04c1.54-0.46,3.3-0.98,5.08-1.54c0.18-0.04,0.3-0.04,0.34,0.08
			c0.02,0.12-0.04,0.2-0.2,0.28c-2.02,0.9-4.72,2.08-8.34,3.54c-0.02,0.12-0.08,0.22-0.16,0.32c-0.12,0.14-0.3,0.06-0.4-0.1
			l-0.58-1.06c-0.1-0.2-0.04-0.32,0.18-0.38c0.68-0.18,1.64-0.44,2.78-0.76v-6.46c-1.34,0.94-2.86,1.76-4.48,2.42
			c-0.18,0.06-0.28,0.04-0.34-0.06c-0.06-0.1,0-0.2,0.18-0.3c3.18-1.74,6-4.3,7.72-6.9h-7.4c-0.18,0-0.3-0.1-0.34-0.26
			c-0.04-0.2,0.06-0.32,0.26-0.32h8.06V8.81c0-0.2,0.12-0.3,0.32-0.28l1.32,0.12c0.2,0.02,0.36,0.2,0.2,0.34
			c-0.1,0.1-0.26,0.18-0.48,0.22v3.24h5.66l0.82-0.98c0.12-0.16,0.26-0.16,0.42-0.04c0.32,0.24,0.88,0.7,1.34,1.12
			c0.14,0.12,0.2,0.28,0.06,0.38c-0.1,0.06-0.22,0.1-0.38,0.1h-7.86c0.34,2.1,0.92,3.94,1.72,5.56c1.44-1.18,3.06-2.8,3.98-3.96
			c0.12-0.14,0.26-0.16,0.42-0.06l1.2,0.8C84.2,15.51,84.22,15.75,84,15.77z"/>
	</g>
</g>
<g>
	<g>
		<path class="st0" d="M418.47,16.15c-0.04,0.14-0.1,0.24-0.18,0.32c-0.14,0.12-0.3,0.06-0.4-0.12l-0.58-0.98
			c-0.12-0.18-0.06-0.34,0.18-0.36c1.24-0.18,3.42-0.58,5.72-1v-1.72h-5.04c-0.16,0-0.28-0.06-0.34-0.24
			c-0.06-0.18,0.04-0.32,0.26-0.32h5.12V9.85c0-0.2,0.12-0.3,0.32-0.28l1.32,0.14c0.2,0.02,0.34,0.2,0.2,0.34
			c-0.1,0.12-0.28,0.2-0.58,0.24v6.32c0,0.14-0.54,0.42-1.02,0.42c-0.14,0-0.24-0.12-0.24-0.3v-2.3
			C422.03,14.89,420.47,15.47,418.47,16.15z M430.87,17.15l1.18,0.84c0.18,0.14,0.18,0.32,0,0.42c-0.16,0.08-0.36,0.16-0.56,0.2
			v7.36c0,0.96-0.22,1.58-1.84,1.8c-0.2,0.04-0.3-0.06-0.36-0.24c-0.06-0.28-0.18-0.5-0.4-0.62c-0.26-0.2-0.7-0.36-1.46-0.46
			c-0.18-0.04-0.28-0.1-0.28-0.2s0.12-0.16,0.32-0.14c0.58,0.04,1.88,0.14,2.22,0.14c0.38,0,0.48-0.14,0.48-0.42v-2h-8.24v3.54
			c0,0.16-0.5,0.46-1.06,0.46c-0.14,0-0.22-0.12-0.22-0.3V17.51c0-0.22,0.16-0.32,0.36-0.22l1.04,0.46h7.94l0.46-0.56
			C430.57,17.03,430.73,17.05,430.87,17.15z M421.93,20.45h8.24v-2.1h-8.24V20.45z M430.17,21.05h-8.24v2.2h8.24V21.05z
			 M434.72,15.69c0,0.6-0.62,0.82-3.64,0.82h-2.1c-1.54,0-1.82-0.3-1.82-1.26v-5.4c0-0.2,0.12-0.3,0.32-0.28l1.16,0.14
			c0.2,0.02,0.34,0.2,0.18,0.34c-0.1,0.08-0.22,0.14-0.4,0.18v2.36c1.44-0.6,3.06-1.44,4.02-2.08c0.16-0.1,0.28-0.08,0.42,0.02
			l1.04,0.86c0.18,0.16,0.18,0.38-0.06,0.4c-0.16,0-0.38-0.04-0.62-0.14c-1.22,0.46-3.1,1.08-4.8,1.44v1.9
			c0,0.3,0.06,0.38,0.78,0.38h1.94c0.84,0,1.52-0.02,1.78-0.04c0.2,0,0.32-0.06,0.4-0.18c0.1-0.24,0.3-0.9,0.48-1.66
			c0.04-0.18,0.1-0.26,0.18-0.26s0.12,0.12,0.12,0.3l0.04,1.64C434.6,15.33,434.72,15.47,434.72,15.69z"/>
		<path class="st0" d="M454.82,10.01c0.32,0.24,0.92,0.72,1.42,1.16c0.14,0.12,0.2,0.28,0.06,0.4c-0.1,0.06-0.22,0.1-0.38,0.1h-8.06
			c-0.5,0.98-1.14,2.12-1.66,2.94h7.3l0.52-0.62c0.12-0.16,0.28-0.16,0.42-0.04l1.04,0.82c0.18,0.14,0.18,0.32,0,0.4
			c-0.14,0.08-0.32,0.12-0.56,0.16v11.9c0,0.1-0.5,0.44-1.12,0.44c-0.12,0-0.2-0.12-0.2-0.3v-1.16h-12.76v1.16
			c0,0.12-0.42,0.42-1.08,0.42c-0.12,0-0.2-0.12-0.2-0.3V14.35c0-0.22,0.12-0.34,0.34-0.24l1.18,0.5h4.5c0.16-0.8,0.4-2,0.54-2.94
			h-7.52c-0.18,0-0.28-0.1-0.32-0.26c-0.06-0.22,0.06-0.34,0.26-0.34h15.02l0.84-1.02C454.52,9.89,454.66,9.89,454.82,10.01z
			 M444.08,25.63V15.21h-3.24v10.42H444.08z M445.32,15.21v3.02h3.74v-3.02H445.32z M445.32,18.79v3.12h3.74v-3.12H445.32z
			 M449.06,25.63v-3.16h-3.74v3.16H449.06z M450.3,25.63h3.3V15.21h-3.3V25.63z"/>
	</g>
</g>
<line class="st1" x1="8.28" y1="19.81" x2="26.9" y2="19.81"/>
<line class="st1" x1="97.66" y1="19.81" x2="116.28" y2="19.81"/>
<line class="st1" x1="364.18" y1="19.81" x2="382.8" y2="19.81"/>
<rect x="402.88" y="3.74" class="st1" width="65.35" height="31.5"/>
<g>
	<g>
		<path class="st0" d="M507.47,11.27c-0.16,0.08-0.34,0.14-0.56,0.18v14.52c0,0.96-0.16,1.58-1.46,1.8c-0.2,0.04-0.3-0.06-0.34-0.26
			c-0.06-0.28-0.14-0.5-0.28-0.64c-0.22-0.18-0.54-0.32-1.08-0.42c-0.18-0.02-0.28-0.1-0.28-0.2s0.12-0.16,0.32-0.14
			c0.46,0.04,1.3,0.1,1.54,0.1c0.3,0,0.4-0.1,0.4-0.4v-5.38h-2.1c-0.08,2.48-0.42,5.12-1.62,7.18c-0.1,0.16-0.22,0.22-0.32,0.16
			c-0.12-0.08-0.12-0.18-0.08-0.36c0.96-2.9,0.88-6.64,0.88-10v-7c0-0.22,0.16-0.32,0.36-0.22l1.06,0.46h1.62l0.44-0.54
			c0.12-0.14,0.28-0.18,0.42-0.06l1.08,0.82C507.65,11.01,507.67,11.17,507.47,11.27z M505.73,15.71h-2.06v1.68
			c0,0.78,0,1.6-0.02,2.46h2.08V15.71z M503.67,15.13h2.06v-3.88h-2.06V15.13z M513.04,16.73c0.26,0.2,0.66,0.56,1.02,0.9
			c0.12,0.12,0.18,0.28,0.04,0.4c-0.08,0.06-0.22,0.1-0.38,0.1h-2.52c-0.46,2-1.16,4.44-1.86,6.12c0.9-0.14,1.96-0.3,3.06-0.48
			c-0.3-1.06-0.72-2.16-1.1-3.04c-0.08-0.2-0.04-0.32,0.04-0.34s0.2,0.02,0.32,0.14c3.26,3.38,2.42,6.24,1.26,5.44
			c-0.12-0.1-0.16-0.2-0.18-0.36c-0.02-0.44-0.12-0.92-0.24-1.42c-0.98,0.4-2.3,0.9-4.02,1.5c-0.04,0.12-0.1,0.22-0.18,0.3
			c-0.12,0.14-0.28,0.06-0.38-0.1l-0.6-1.02c-0.1-0.2-0.02-0.36,0.2-0.38l1.16-0.14c0.4-1.72,0.84-4.36,1.08-6.22h-2.02
			c-0.18,0-0.3-0.1-0.34-0.26c-0.04-0.2,0.06-0.32,0.26-0.32h2.28v-3.78h-1.86c-0.18,0-0.3-0.1-0.34-0.26
			c-0.04-0.2,0.06-0.32,0.26-0.32h1.94V9.95c0-0.2,0.12-0.3,0.32-0.28l1.16,0.12c0.22,0.02,0.36,0.2,0.2,0.36
			c-0.1,0.08-0.24,0.16-0.46,0.2v2.84h0.7l0.56-0.74c0.12-0.16,0.26-0.16,0.42-0.04c0.24,0.2,0.62,0.54,0.94,0.86
			c0.12,0.12,0.18,0.28,0.04,0.4c-0.08,0.06-0.2,0.1-0.36,0.1h-2.3v3.78h0.86l0.6-0.78C512.74,16.61,512.88,16.59,513.04,16.73z
			 M519.78,11.63c-0.16,0.08-0.34,0.16-0.56,0.2v11.62c0,0.96-0.16,1.56-1.42,1.8c-0.2,0.04-0.3-0.06-0.34-0.26
			c-0.06-0.28-0.14-0.52-0.28-0.68c-0.16-0.16-0.46-0.3-0.92-0.38c-0.18-0.04-0.28-0.12-0.28-0.22c0-0.08,0.12-0.12,0.32-0.12
			c0.4,0.04,1.12,0.1,1.32,0.1c0.3,0,0.38-0.12,0.38-0.38V11.59h-2.36v15.74c0,0.18-0.42,0.5-1,0.5c-0.14,0-0.22-0.12-0.22-0.3
			V10.75c0-0.22,0.16-0.32,0.36-0.22l0.96,0.46h2.06l0.44-0.54c0.12-0.14,0.28-0.18,0.42-0.06l1.1,0.84
			C519.94,11.37,519.96,11.53,519.78,11.63z"/>
	</g>
</g>
<rect x="478.17" y="3.74" class="st1" width="65.35" height="31.5"/>
<g>
	<g>
		<path class="st0" d="M28.46,52.56c-0.04-0.2,0.06-0.34,0.26-0.34h5.84l0.7-0.88c0.12-0.14,0.26-0.18,0.42-0.06
			c0.3,0.24,0.8,0.66,1.22,1.04c0.12,0.12,0.18,0.28,0.06,0.4c-0.1,0.06-0.22,0.1-0.38,0.1h-7.8C28.6,52.82,28.5,52.72,28.46,52.56z
			 M36.75,64.95c-1.66,0.68-3.94,1.56-7.02,2.64c-0.06,0.12-0.12,0.24-0.2,0.34c-0.14,0.12-0.32,0.04-0.4-0.12l-0.6-1.12
			c-0.1-0.18-0.02-0.34,0.18-0.38c0.96-0.16,2.46-0.48,4.2-0.86c0.4-1.2,0.82-2.76,1.08-3.98c0.04-0.2,0.16-0.28,0.36-0.22
			l1.28,0.32c0.2,0.06,0.34,0.26,0.14,0.38c-0.12,0.08-0.3,0.14-0.52,0.12c-0.38,0.94-1.06,2.18-1.7,3.24l3.1-0.7
			c0.18-0.04,0.3-0.02,0.32,0.08C36.99,64.79,36.93,64.89,36.75,64.95z M34.6,60.56v-0.5h-4.06v0.48c0,0.12-0.48,0.38-0.98,0.38
			c-0.1,0-0.18-0.12-0.18-0.3v-5.56c0-0.22,0.14-0.32,0.36-0.22l0.9,0.38h3.8l0.46-0.5c0.12-0.14,0.28-0.14,0.42-0.02l0.96,0.72
			c0.16,0.12,0.18,0.32,0,0.42c-0.14,0.06-0.3,0.12-0.46,0.16v4.42c-0.02,0.14-0.62,0.44-1.02,0.44h-0.1
			C34.64,60.86,34.6,60.74,34.6,60.56z M30.36,61.46c2.72,2.02,1.58,4.24,0.54,3.46c-0.12-0.1-0.16-0.2-0.16-0.36
			c-0.02-0.94-0.34-2.04-0.72-2.86c-0.08-0.18-0.08-0.3,0.02-0.34C30.12,61.32,30.22,61.36,30.36,61.46z M34.6,55.82h-4.06v3.66
			h4.06V55.82z M34.76,68.41c1.86-0.72,3.92-1.94,5.08-3.2c0.12-0.14,0.28-0.16,0.42-0.06l1.04,0.64c0.2,0.12,0.24,0.38,0.02,0.38
			c-0.12,0-0.24-0.02-0.38-0.06c-1.28,1.14-3.82,2.18-6.06,2.68c-0.18,0.04-0.28,0-0.34-0.1C34.5,68.59,34.57,68.49,34.76,68.41z
			 M45.43,50.82c0.32,0.24,0.88,0.7,1.32,1.1c0.12,0.12,0.18,0.28,0.06,0.4c-0.1,0.06-0.22,0.1-0.38,0.1h-4.02
			c-0.4,0.84-0.86,1.76-1.3,2.42h2.98l0.52-0.54c0.12-0.12,0.28-0.14,0.42-0.02l0.98,0.76c0.16,0.12,0.18,0.32,0,0.42
			c-0.14,0.06-0.28,0.1-0.46,0.14v8.9c0,0.14-0.02,0.26-0.14,0.34c-0.22,0.12-0.62,0.3-0.94,0.3c-0.12,0-0.2-0.12-0.2-0.3v-0.54
			h-5.12v0.58c0,0.14-0.52,0.44-1.06,0.44c-0.14,0-0.22-0.12-0.22-0.3V54.6c0-0.22,0.16-0.32,0.36-0.22l1.02,0.46h1.2
			c0.14-0.66,0.3-1.62,0.4-2.42h-3.48c-0.18,0-0.28-0.1-0.32-0.26c-0.06-0.22,0.06-0.34,0.26-0.34h6.94l0.76-0.94
			C45.13,50.74,45.27,50.7,45.43,50.82z M39.15,57.78h5.12v-2.34h-5.12V57.78z M44.27,60.76v-2.4h-5.12v2.4H44.27z M44.27,61.34
			h-5.12v2.38h5.12V61.34z M42.69,65.24c4.74,1.18,4.48,3.96,3.12,3.58c-0.16-0.04-0.22-0.14-0.3-0.26c-0.58-1.02-1.9-2.22-2.98-3
			c-0.18-0.12-0.24-0.22-0.18-0.28C42.41,65.2,42.51,65.2,42.69,65.24z"/>
	</g>
</g>
<rect x="5" y="44.76" class="st1" width="65.35" height="31.5"/>
<g>
	<g>
		<path class="st0" d="M225.15,52.26c-0.12,0.08-0.3,0.14-0.48,0.18v14.52c0,0.98-0.18,1.6-1.6,1.8c-0.2,0.04-0.3-0.06-0.34-0.26
			c-0.06-0.24-0.16-0.46-0.34-0.6c-0.22-0.2-0.6-0.34-1.22-0.44c-0.18-0.02-0.28-0.1-0.28-0.2s0.12-0.16,0.32-0.14
			c0.52,0.04,1.54,0.12,1.8,0.12c0.36,0,0.44-0.12,0.44-0.42v-5.24h-2.2c-0.16,2.5-0.6,5.08-2.04,7.08
			c-0.12,0.14-0.22,0.2-0.34,0.12s-0.12-0.18-0.04-0.36c1.28-2.86,1.28-6.54,1.28-10v-7c0-0.22,0.12-0.34,0.34-0.24l1.12,0.48h1.7
			l0.44-0.54c0.12-0.16,0.28-0.16,0.42-0.04l1.02,0.78C225.33,52,225.35,52.16,225.15,52.26z M223.45,56.8h-2.14v1.6
			c0,0.82,0,1.7-0.04,2.6h2.18V56.8z M221.31,56.22h2.14v-3.96h-2.14V56.22z M237.65,67.57c0,0.52-0.56,0.78-2.94,0.78h-1.48
			c-1.3,0-1.58-0.34-1.58-1.3V57.7c-0.14,0.14-0.34,0.22-0.74,0.26c-0.5,4.14-1.62,8.24-5.7,10.76c-0.16,0.1-0.28,0.1-0.34,0
			c-0.08-0.12-0.04-0.22,0.12-0.34c1.94-1.52,3.08-3.54,3.78-5.76c-0.14,0.16-0.4,0.22-0.68,0.1c-0.14-0.06-0.2-0.16-0.26-0.3
			c-0.22-0.54-0.66-1.18-1.1-1.7c-0.46,0.84-0.94,1.62-1.48,2.28c-0.12,0.14-0.24,0.16-0.34,0.1c-0.1-0.06-0.1-0.18,0-0.34
			c1.1-1.98,2-4.76,2.42-7.62c0.02-0.2,0.16-0.3,0.34-0.26l1.2,0.28c0.2,0.04,0.32,0.24,0.16,0.38c-0.12,0.08-0.3,0.14-0.52,0.16
			c-0.12,0.5-0.26,1-0.4,1.5h1.42l0.56-0.56c0.12-0.12,0.28-0.14,0.42,0l1.14,1.02v-1.52c0-0.22,0.16-0.32,0.36-0.22l1.06,0.48h1.86
			l0.4-0.48c0.12-0.16,0.28-0.16,0.42-0.06l1,0.72c0.18,0.14,0.2,0.32,0,0.4c-0.14,0.08-0.3,0.12-0.48,0.16v4.94
			c0,0.92-0.14,1.5-1.32,1.7c-0.2,0.04-0.3-0.06-0.34-0.26c-0.04-0.24-0.12-0.46-0.26-0.58c-0.16-0.16-0.44-0.3-0.86-0.4
			c-0.18-0.04-0.28-0.12-0.28-0.22c0-0.08,0.12-0.14,0.32-0.12c0.38,0.04,1.02,0.08,1.22,0.08c0.28,0,0.36-0.1,0.36-0.36v-4.94
			h-2.28v9.76c0,0.34,0.08,0.46,0.64,0.46h1.26c0.6,0,1.04,0,1.22-0.04c0.16-0.02,0.26-0.06,0.32-0.24c0.12-0.3,0.32-1.48,0.54-2.6
			c0.02-0.18,0.08-0.28,0.16-0.28s0.12,0.12,0.12,0.3l0.06,2.68C237.55,67.19,237.65,67.33,237.65,67.57z M226.29,56.06
			c-0.36,0.4-1.06,0.52-1.34,0.12c-0.22-0.4,0-0.84,0.38-1.14c0.5-0.42,0.98-1.54,1-2.56c0.02-0.2,0.08-0.3,0.18-0.3
			c0.12,0,0.2,0.08,0.24,0.26c0.08,0.28,0.12,0.54,0.14,0.8h3.64v-2.32c0-0.2,0.12-0.3,0.32-0.28l1.18,0.14
			c0.2,0.02,0.36,0.2,0.2,0.34c-0.1,0.06-0.22,0.12-0.4,0.16v1.96h3.52l0.58-0.58c0.14-0.14,0.3-0.14,0.44-0.02l0.98,0.96
			c0.16,0.16,0.14,0.36-0.08,0.4c-0.1,0.02-0.24,0.04-0.42,0.04c-0.46,0.54-1.24,1.28-1.86,1.78c-0.14,0.1-0.24,0.12-0.34,0.06
			c-0.08-0.04-0.1-0.16-0.02-0.34c0.24-0.48,0.5-1.14,0.72-1.7h-8.42C226.95,54.88,226.65,55.66,226.29,56.06z M226.97,60.22
			c1.38,0.54,1.92,1.26,1.98,1.8c0.36-1.34,0.58-2.78,0.72-4.24h-1.74C227.65,58.64,227.33,59.46,226.97,60.22z"/>
	</g>
</g>
<rect x="195.52" y="44.76" class="st1" width="65.35" height="31.5"/>
<g>
	<g>
		<path class="st0" d="M96.21,68.05c3.92-0.84,6.88-4.42,7.3-8.86c0.08-1.06,0.08-1.76-0.4-2.28c-3.88,0.34-4.46,0.74-5.38,0.2
			c-1.14-0.66-0.72-1.5,0.1-1.22c1.78,0.64,4.02,0.38,8.58-0.14c1.26-0.14,2.12-0.38,2.9-0.02c1.3,0.6,0.94,1.46-0.02,1.2
			c-0.84-0.24-1.62-0.28-2.62-0.26c-1.06,0.04-1.98,0.1-2.78,0.16c0.36,0.22,0.62,0.42,0.92,0.66c0.74,0.66,0.32,1.18,0.22,1.38
			c-0.12,0.18-0.16,0.44-0.2,0.78c-0.48,4.96-4.66,8.18-8.54,8.78C95.83,68.49,95.77,68.15,96.21,68.05z M99.41,52.78
			c1.36,0.5,2.48,0.28,4.9-0.32c0.7-0.16,1.46-0.44,2.22-0.06c1,0.48,0.72,1.14,0.02,1.1c-0.68-0.04-1.06-0.06-1.92,0
			c-3.98,0.2-4.74,0.86-5.48,0.28C98.23,53.08,98.75,52.52,99.41,52.78z M107.39,50.94c1.04,0.4,1.66,0.84,2.2,1.82
			c0.6,1.16-0.72,1.64-1.26,0.52c-0.28-0.64-0.78-1.34-1.26-1.76C106.65,51.14,106.89,50.74,107.39,50.94z M109.39,50.58
			c0.78,0.26,1.64,0.72,2.14,1.5c0.54,0.94-0.62,1.68-1.2,0.58c-0.28-0.58-0.72-1.1-1.22-1.46
			C108.69,50.88,108.85,50.44,109.39,50.58z"/>
		<path class="st0" d="M125.27,64.16c-6.62,0.3-7.04,0.98-8.22-0.12c-0.86-0.82-0.5-1.4,0.32-1.04c1.36,0.64,2.1,0.54,7.72,0.12
			c0.38-0.02,0.72-0.08,1.1-0.1c0.32-2.06,0.42-3.44,0.62-5.36c0.04-0.32-0.08-0.4-0.28-0.4c-8.84,0.42-8.92,1-9.82-0.06
			c-0.82-0.96-0.32-1.68,0.56-1.08c1.4,0.94,3.48,0.6,9.54-0.04c1.44-0.16,1.56,0.34,1.32,1.54c-0.26,1.14-0.62,3.22-1.02,5.48
			c0.18,0.04,0.36,0.1,0.54,0.18c1.08,0.48,0.66,1.54-0.22,1.2C126.71,64.2,126.05,64.12,125.27,64.16z"/>
		<path class="st0" d="M137.45,58.02c0.04-0.94,0.14-1.42-0.52-2.02c-0.62-0.6-0.42-1.12,0.28-0.96c2.04,0.48,2.26,1.46,1.94,2.08
			c-0.14,0.22-0.2,0.52-0.2,0.86c-0.22,4.54-2.44,8.32-6.68,10.36c-0.3,0.16-0.52-0.12-0.1-0.36
			C135.15,66.27,137.29,62.04,137.45,58.02z M141.55,63.34c0.14-8,0.26-8.36-0.54-8.92c-0.66-0.48-0.66-1.3,0.4-1.02
			c2.18,0.54,1.8,1.52,1.68,2c-0.06,0.26-0.1,0.56-0.12,1.24c-0.12,2.16-0.16,3.18-0.16,6.02c0,0.3,0.18,0.38,0.44,0.26
			c2.22-1.16,3.6-2.3,6.06-4.66c0.46-0.42,0.74-0.04,0.42,0.32c-3.02,3.5-4.84,5.12-6.04,5.88
			C142.47,65.2,141.53,64.93,141.55,63.34z"/>
		<path class="st0" d="M154.45,68.11c3.92-0.86,6.88-4.44,7.3-8.88c0.08-1.06,0.08-1.76-0.38-2.28c-3.9,0.34-4.48,0.76-5.4,0.2
			c-1.14-0.66-0.72-1.5,0.1-1.2c1.78,0.62,4.02,0.36,8.58-0.16c1.26-0.14,2.14-0.38,2.9-0.02c1.3,0.6,0.94,1.46-0.02,1.2
			c-0.84-0.22-1.62-0.28-2.62-0.24c-1.06,0.04-1.98,0.1-2.78,0.16c0.36,0.2,0.62,0.4,0.92,0.64c0.74,0.66,0.32,1.18,0.22,1.38
			c-0.12,0.18-0.16,0.46-0.2,0.78c-0.48,4.96-4.64,8.18-8.54,8.78C154.07,68.53,154.01,68.19,154.45,68.11z M157.67,52.82
			c1.34,0.5,2.46,0.28,4.88-0.3c0.7-0.18,1.46-0.46,2.22-0.08c1,0.5,0.72,1.14,0.02,1.1c-0.68-0.04-1.04-0.06-1.92,0
			c-3.98,0.2-4.74,0.86-5.48,0.28C156.47,53.12,156.99,52.56,157.67,52.82z"/>
	</g>
</g>
<rect x="80.29" y="44.76" class="st1" width="105.35" height="31.5"/>
<g>
	<g>
		<path class="st0" d="M133.98,21.55c-1.4,1.1-3,2.1-5,3.12c-0.4,0.2-0.56-0.16-0.12-0.44c4.6-3.12,6.16-4.78,8.98-8.84
			c-5.48,0.26-5.7,0.74-6.88-0.28c-0.96-0.82-0.22-1.2,0.26-0.96c1.42,0.76,2.8,0.52,7.96,0.26c-0.08-3.04-0.26-3.38-0.74-3.72
			c-0.7-0.48-0.36-1.12,0.82-0.68c1.64,0.64,1.4,1.24,1.32,2.14c-0.06,0.74-0.1,1.46-0.14,2.2l2.2-0.1c1.18-0.06,1.7-0.18,2.18-0.04
			c1.02,0.34,1.18,1.54,0.12,1.24c-0.54-0.16-1.22-0.2-2.14-0.2c-0.86,0-1.66,0.02-2.38,0.04c-0.1,2.76-0.04,5.6,0.22,9.3
			c0.12,1.88-1.2,2.34-2.04,0.98C137.2,23.35,136.14,22.65,133.98,21.55z M138.8,23.61c0.32,0.22,0.48,0.14,0.48-0.26
			c-0.02-3.14-0.04-5.48-0.08-7.22c-1.58,2.02-3.04,3.62-4.74,5.04C136.06,21.77,137.66,22.73,138.8,23.61z"/>
		<path class="st0" d="M156.03,15.95c0.04-0.94,0.14-1.42-0.52-2.02c-0.62-0.6-0.42-1.12,0.28-0.96c2.04,0.48,2.26,1.46,1.94,2.08
			c-0.14,0.22-0.2,0.52-0.2,0.86c-0.22,4.54-2.44,8.32-6.68,10.36c-0.3,0.16-0.52-0.12-0.1-0.36
			C153.73,24.19,155.87,19.97,156.03,15.95z M160.13,21.27c0.14-8,0.26-8.36-0.54-8.92c-0.66-0.48-0.66-1.3,0.4-1.02
			c2.18,0.54,1.8,1.52,1.68,2c-0.06,0.26-0.1,0.56-0.12,1.24c-0.12,2.16-0.16,3.18-0.16,6.02c0,0.3,0.18,0.38,0.44,0.26
			c2.22-1.16,3.6-2.3,6.06-4.66c0.46-0.42,0.74-0.04,0.42,0.32c-3.02,3.5-4.84,5.12-6.04,5.88
			C161.05,23.13,160.11,22.85,160.13,21.27z"/>
		<path class="st0" d="M176.18,25.93c5.18-0.94,9.98-3.88,10.26-11.32c0.02-0.3-0.1-0.46-0.42-0.44c-1.72,0.14-4.7,0.24-6.72,0.28
			c0.06,0.9,0.16,1.64,0.3,2.64c0.26,1.58-1.34,1.62-1.34,0.02c0-2.22-0.22-3.34-0.72-3.76c-0.52-0.42-0.24-0.82,0.52-0.62
			c0.66,0.18,0.96,0.42,1.1,0.8c0.8,0,1.78-0.02,2.8-0.06c0.1-1.84,0.02-2.32-0.54-2.84c-0.62-0.5-0.3-0.96,0.44-0.76
			c1.1,0.28,1.42,0.76,1.3,1.44c-0.14,0.6-0.2,1.14-0.22,2.1c1.38-0.06,2.8-0.18,3.9-0.3c1.04-0.12,1.32,0.42,1.2,1.46
			c-0.46,4.48-2.06,10.74-11.84,11.84C175.42,26.49,175.4,26.07,176.18,25.93z M187.14,10.05c1.04,0.42,1.66,0.86,2.2,1.82
			c0.6,1.16-0.72,1.66-1.26,0.54c-0.28-0.64-0.78-1.36-1.26-1.78C186.4,10.25,186.64,9.87,187.14,10.05z M189.14,9.71
			c0.78,0.24,1.64,0.7,2.14,1.5c0.54,0.94-0.62,1.68-1.2,0.56c-0.3-0.56-0.72-1.1-1.22-1.46C188.44,9.99,188.6,9.55,189.14,9.71z"/>
		<path class="st0" d="M197.39,21.05c3.74-2.22,5.46-3.64,7.74-6.22c0.34-0.38,0.48-0.54,0.28-1.04c-0.2-0.6,0.46-0.76,1.14-0.26
			c0.86,0.56,0.4,1.26-0.08,1.76c-0.82,0.76-1.52,1.42-2.2,1.98c0.88,0.22,0.96,0.84,0.9,1.52c-0.26,2.54-0.1,4.46-0.02,6.02
			c0.06,1.38-1.28,1.42-1.2,0.02c0.08-1.28,0.2-4.34,0.18-5.68c-0.02-0.96-0.26-1.22-0.5-1.32c-1.96,1.6-3.54,2.5-6.06,3.68
			C197.15,21.65,196.93,21.31,197.39,21.05z"/>
		<path class="st0" d="M217.46,21.21c1.4,0.54,1.64,0.58,6.96,0.22c0.06-2.06-0.02-3.92-0.1-4.9c-0.04-0.68-0.28-1.04-0.54-1.28
			c-2.92,0.36-3.48,0.34-4.12-0.16c-1.1-0.84-0.52-1.26,0.02-1.02c1.36,0.66,1.84,0.4,7.9-0.24c1.32-0.14,1.62-0.24,2.24-0.1
			c0.82,0.14,1.2,1.54,0.16,1.26c-0.84-0.26-1.54-0.32-2.34-0.22l-2.5,0.32c0.68,0.34,0.66,0.68,0.5,1.34
			c-0.12,0.4-0.22,1.86-0.36,4.94l3.52-0.26c1.58-0.1,2.42-0.5,3.42-0.02c0.94,0.46,1.1,1.2,0.04,1.08
			c-1.14-0.18-2.16-0.18-3.36-0.14c-10.72,0.34-10.04,1.5-11.8,0.14C216.24,21.47,216.84,20.97,217.46,21.21z"/>
		<path class="st0" d="M258.35,25.25c0.18,0.04,0.28,0.1,0.28,0.16s-0.08,0.1-0.24,0.18c-0.36,0.14-0.62,0.44-0.78,0.84
			c-0.06,0.18-0.18,0.26-0.36,0.22c-3.88-0.78-6.26-2.26-7.54-5.38h-0.34c-0.68,2.46-2.5,4.22-8.84,5.46
			c-0.2,0.04-0.3,0.02-0.36-0.12c-0.06-0.14,0.02-0.24,0.24-0.28c5.02-1.34,6.82-2.88,7.48-5.06h-7.24c-0.18,0-0.28-0.1-0.32-0.26
			c-0.04-0.2,0.06-0.32,0.26-0.32h7.46c0.14-0.64,0.2-1.3,0.24-2.04c0.02-0.2,0.14-0.3,0.32-0.28l1.44,0.14
			c0.2,0.02,0.36,0.2,0.22,0.36c-0.12,0.12-0.3,0.2-0.54,0.22c-0.06,0.56-0.12,1.1-0.22,1.6h6.24l0.8-0.96
			c0.12-0.14,0.26-0.18,0.42-0.06c0.3,0.24,0.86,0.7,1.32,1.12c0.14,0.12,0.2,0.28,0.04,0.4c-0.08,0.06-0.2,0.08-0.36,0.08h-7.8
			C251.63,23.75,254.47,24.81,258.35,25.25z M248.59,15.11h-5.56c-0.18,0-0.28-0.1-0.32-0.26c-0.06-0.22,0.06-0.34,0.26-0.34h5.62
			v-2.24h-6.56c-0.16,0-0.3-0.1-0.34-0.26c-0.06-0.22,0.06-0.34,0.26-0.34h4.88c-0.1,0-0.2-0.02-0.32-0.08
			c-0.14-0.08-0.18-0.18-0.22-0.32c-0.22-0.8-0.8-1.7-1.38-2.34c-0.14-0.16-0.16-0.28-0.1-0.32c0.06-0.04,0.16-0.04,0.32,0.02
			c3,0.98,2.68,3,1.76,3.04h3.92c0.52-0.88,1.08-2.04,1.46-2.98c0.06-0.18,0.2-0.24,0.38-0.18l1.36,0.48
			c0.2,0.08,0.32,0.28,0.1,0.38c-0.12,0.06-0.28,0.08-0.5,0.06c-0.54,0.68-1.38,1.52-2.2,2.24h3.4l0.76-0.92
			c0.12-0.14,0.26-0.18,0.42-0.06c0.3,0.24,0.86,0.68,1.3,1.08c0.14,0.12,0.2,0.28,0.08,0.4c-0.1,0.06-0.24,0.1-0.42,0.1h-7.02v2.24
			h4l0.72-0.88c0.12-0.16,0.28-0.16,0.44-0.04c0.28,0.24,0.78,0.66,1.22,1.02c0.14,0.12,0.2,0.28,0.06,0.4
			c-0.1,0.06-0.22,0.1-0.38,0.1h-6.06v2.38h5.54l0.76-0.94c0.12-0.14,0.26-0.18,0.42-0.06c0.3,0.24,0.84,0.7,1.3,1.08
			c0.14,0.12,0.2,0.28,0.06,0.4c-0.1,0.06-0.24,0.1-0.4,0.1h-16.5c-0.16,0-0.28-0.06-0.34-0.24c-0.06-0.22,0.06-0.34,0.26-0.34h7.56
			V15.11z"/>
		<path class="st0" d="M275.72,15.35c-0.14,0.04-0.3,0.08-0.52,0.1c1.7,2.14,4.96,3.96,8.3,5.04c0.18,0.06,0.26,0.12,0.24,0.22
			c-0.02,0.12-0.1,0.16-0.26,0.24c-0.36,0.14-0.66,0.4-0.84,0.7c-0.08,0.18-0.2,0.24-0.38,0.18c-0.74-0.3-1.46-0.68-2.16-1.08
			l0.06,0.04c-0.1,0.12-0.38,0.26-0.72,0.32v5.12c-0.02,0.14-0.68,0.44-1.08,0.44c-0.12,0-0.2-0.12-0.2-0.3v-0.92h-7.46v0.9
			c0,0.14-0.54,0.44-1.08,0.44c-0.12,0-0.2-0.12-0.2-0.3v-6.08c-1.22,0.72-2.52,1.38-3.82,1.88c-0.18,0.06-0.3,0.06-0.34-0.06
			c-0.04-0.1,0.02-0.2,0.2-0.28c3.32-1.56,6.9-4.68,8.08-7.18c0.06-0.16,0.18-0.22,0.36-0.18l1.7,0.38
			C275.82,15.03,275.94,15.25,275.72,15.35z M267.07,14.27c-0.44,0.4-1.2,0.48-1.46,0.06c-0.22-0.4,0.02-0.84,0.42-1.12
			c0.74-0.5,1.46-1.74,1.54-3.06c0-0.2,0.08-0.3,0.18-0.3c0.1,0,0.18,0.08,0.22,0.26c0.06,0.28,0.1,0.54,0.12,0.78h5.68V8.77
			c0-0.2,0.12-0.3,0.32-0.28l1.38,0.12c0.22,0.02,0.36,0.2,0.2,0.36c-0.1,0.12-0.28,0.2-0.56,0.24v1.68h6.24l0.64-0.66
			c0.12-0.14,0.28-0.14,0.42,0l1.04,1.02c0.16,0.14,0.16,0.34-0.06,0.4c-0.12,0.02-0.26,0.04-0.44,0.04
			c-0.52,0.6-1.42,1.38-2.18,1.9c-0.14,0.1-0.26,0.12-0.34,0.06c-0.08-0.04-0.08-0.16,0.02-0.34c0.3-0.54,0.64-1.26,0.9-1.84h-13.22
			C268.14,12.85,267.62,13.79,267.07,14.27z M267.46,16.71c1.52-1.1,2.98-2.74,3.78-4.04c0.1-0.16,0.24-0.2,0.4-0.12l1.18,0.54
			c0.2,0.1,0.28,0.34,0.06,0.38c-0.1,0.04-0.24,0.04-0.44,0c-0.98,1.22-2.82,2.68-4.78,3.56c-0.16,0.08-0.28,0.08-0.34-0.02
			C267.26,16.93,267.3,16.83,267.46,16.71z M274.82,15.69c-1.06,1.46-2.78,3.02-4.8,4.34l0.78,0.34h7.18l0.58-0.64
			C276.96,18.57,275.64,17.17,274.82,15.69z M278.16,20.97h-7.46v3.88h7.46V20.97z M276.3,12.79c5.38,1.16,5.32,4.22,3.9,3.86
			c-0.14-0.04-0.22-0.12-0.3-0.24c-0.72-1.18-2.36-2.5-3.74-3.3c-0.18-0.12-0.26-0.22-0.2-0.28
			C276.02,12.77,276.14,12.75,276.3,12.79z"/>
		<path class="st0" d="M294.94,21.55c-1.4,1.1-3,2.1-5,3.12c-0.4,0.2-0.56-0.16-0.12-0.44c4.6-3.12,6.16-4.78,8.98-8.84
			c-5.48,0.26-5.7,0.74-6.88-0.28c-0.96-0.82-0.22-1.2,0.26-0.96c1.42,0.76,2.8,0.52,7.96,0.26c-0.08-3.04-0.26-3.38-0.74-3.72
			c-0.7-0.48-0.36-1.12,0.82-0.68c1.64,0.64,1.4,1.24,1.32,2.14c-0.06,0.74-0.1,1.46-0.14,2.2l2.2-0.1c1.18-0.06,1.7-0.18,2.18-0.04
			c1.02,0.34,1.18,1.54,0.12,1.24c-0.54-0.16-1.22-0.2-2.14-0.2c-0.86,0-1.66,0.02-2.38,0.04c-0.1,2.76-0.04,5.6,0.22,9.3
			c0.12,1.88-1.2,2.34-2.04,0.98C298.16,23.35,297.1,22.65,294.94,21.55z M299.76,23.61c0.32,0.22,0.48,0.14,0.48-0.26
			c-0.02-3.14-0.04-5.48-0.08-7.22c-1.58,2.02-3.04,3.62-4.74,5.04C297.02,21.77,298.62,22.73,299.76,23.61z"/>
		<path class="st0" d="M312.72,20.13c4.98-2.98,7.28-4.88,10.34-8.3c0.44-0.48,0.66-0.78,0.4-1.48c-0.26-0.7,0.52-0.86,1.36-0.26
			c1.04,0.72,0.52,1.58-0.12,2.2c-1.16,1.1-2.16,2.02-3.1,2.8c1.32,0.2,1.4,1,1.32,1.96c-0.36,3.4-0.12,5.94-0.02,8.02
			c0.08,1.7-1.5,1.74-1.4,0.02c0.12-1.68,0.26-5.78,0.24-7.58c-0.02-1.38-0.4-1.76-0.78-1.88c-2.64,2.16-4.74,3.36-8.12,4.92
			C312.4,20.75,312.22,20.43,312.72,20.13z"/>
		<path class="st0" d="M338.86,15.95c0.04-0.94,0.14-1.42-0.52-2.02c-0.62-0.6-0.42-1.12,0.28-0.96c2.04,0.48,2.26,1.46,1.94,2.08
			c-0.14,0.22-0.2,0.52-0.2,0.86c-0.22,4.54-2.44,8.32-6.68,10.36c-0.3,0.16-0.52-0.12-0.1-0.36
			C336.56,24.19,338.7,19.97,338.86,15.95z M342.96,21.27c0.14-8,0.26-8.36-0.54-8.92c-0.66-0.48-0.66-1.3,0.4-1.02
			c2.18,0.54,1.8,1.52,1.68,2c-0.06,0.26-0.1,0.56-0.12,1.24c-0.12,2.16-0.16,3.18-0.16,6.02c0,0.3,0.18,0.38,0.44,0.26
			c2.22-1.16,3.6-2.3,6.06-4.66c0.46-0.42,0.74-0.04,0.42,0.32c-3.02,3.5-4.84,5.12-6.04,5.88
			C343.88,23.13,342.94,22.85,342.96,21.27z"/>
	</g>
</g>
</svg>
