<?xml version="1.0" encoding="utf-8"?>
<!-- Generator: Adobe Illustrator 25.4.1, SVG Export Plug-In . SVG Version: 6.00 Build 0)  -->
<svg version="1.1" id="レイヤー_1" xmlns="http://www.w3.org/2000/svg" xmlns:xlink="http://www.w3.org/1999/xlink" x="0px"
	 y="0px" viewBox="0 0 567 40" style="enable-background:new 0 0 567 40;" xml:space="preserve">
<style type="text/css">
	.st0{fill:#463243;}
	.st1{fill:none;stroke:#463243;stroke-miterlimit:10;}
</style>
<g>
	<g>
		<path class="st0" d="M33.29,10.58c0.34,0.26,0.98,0.78,1.5,1.24c0.14,0.12,0.2,0.28,0.06,0.4c-0.08,0.06-0.2,0.1-0.38,0.1h-8.34
			v3.26c6.48,1.48,6.58,4.72,5.02,4.34c-0.14-0.04-0.22-0.1-0.3-0.22c-0.96-1.26-3.04-2.76-4.72-3.68V27.9
			c0,0.14-0.48,0.48-1.14,0.48c-0.12,0-0.2-0.12-0.2-0.3V12.32h-7.74c-0.18,0-0.28-0.1-0.32-0.26c-0.06-0.22,0.06-0.34,0.26-0.34
			h14.98l0.9-1.1C32.99,10.46,33.13,10.46,33.29,10.58z"/>
		<path class="st0" d="M42.86,28c-0.2,0.04-0.32-0.06-0.36-0.24c-0.06-0.28-0.14-0.52-0.34-0.66c-0.22-0.2-0.6-0.34-1.24-0.46
			c-0.18-0.02-0.28-0.1-0.28-0.2c0-0.1,0.12-0.14,0.32-0.14c0.52,0.06,1.58,0.14,1.84,0.14c0.34,0,0.44-0.12,0.44-0.42v-5.04h-2.76
			c-0.2,2.48-0.7,5.08-2.1,7.16c-0.1,0.16-0.22,0.22-0.32,0.16c-0.12-0.08-0.12-0.18-0.06-0.36c1.32-3.24,1.34-7.22,1.34-10.84v-6.2
			c0-0.22,0.12-0.34,0.34-0.24l1.16,0.5h2.24l0.44-0.54c0.12-0.14,0.28-0.18,0.42-0.06L45,11.38c0.18,0.14,0.2,0.3,0.02,0.4
			c-0.14,0.08-0.32,0.14-0.5,0.18v14.2C44.52,27.18,44.34,27.8,42.86,28z M43.24,16.26h-2.66v0.84c0,1.02,0,2.16-0.08,3.32h2.74
			V16.26z M40.57,15.7h2.66v-3.94h-2.66V15.7z M55.5,18.4c-0.14,0.04-0.32,0.04-0.58,0.06c-0.8,2.14-1.92,4.08-3.52,5.72
			c1.46,1.24,3.22,2.18,5.22,2.8c0.18,0.06,0.28,0.14,0.26,0.2c-0.02,0.08-0.1,0.1-0.26,0.14c-0.4,0.12-0.7,0.36-0.92,0.74
			c-0.1,0.16-0.22,0.22-0.4,0.14c-1.9-0.78-3.48-1.84-4.76-3.22c-1.6,1.4-3.62,2.5-6.16,3.3c-0.18,0.06-0.28,0.04-0.34-0.06
			c-0.06-0.1,0.02-0.2,0.2-0.28c2.28-0.94,4.16-2.18,5.66-3.7c-1.24-1.6-2.14-3.56-2.68-5.96h-1.68c-0.16,0-0.3-0.1-0.34-0.26
			c-0.06-0.22,0.06-0.34,0.26-0.34h4.26v-3.44h-4.34c-0.18,0-0.28-0.1-0.32-0.26c-0.06-0.22,0.06-0.34,0.26-0.34h4.4V10.4
			c0-0.2,0.12-0.3,0.32-0.28l1.26,0.12c0.2,0.02,0.36,0.2,0.2,0.36c-0.1,0.08-0.26,0.16-0.48,0.2v2.84h2.96l0.76-0.92
			c0.12-0.14,0.26-0.18,0.42-0.06c0.3,0.24,0.84,0.68,1.28,1.08c0.14,0.12,0.2,0.28,0.06,0.4c-0.1,0.06-0.22,0.1-0.38,0.1h-5.1v3.44
			h2.44l0.66-0.6c0.14-0.14,0.3-0.14,0.44,0l0.96,0.9C55.68,18.14,55.7,18.34,55.5,18.4z M50.62,23.46c1.3-1.52,2.26-3.26,2.88-5.18
			h-5.86C48.26,20.34,49.28,22.06,50.62,23.46z"/>
	</g>
</g>
<rect x="5" y="4.25" class="st1" width="65.35" height="31.5"/>
<g>
	<g>
		<path class="st0" d="M215.69,16.66c-0.04,0.14-0.1,0.24-0.18,0.32c-0.14,0.12-0.3,0.06-0.4-0.12l-0.58-0.98
			c-0.12-0.18-0.06-0.34,0.18-0.36c1.24-0.18,3.42-0.58,5.72-1V12.8h-5.04c-0.16,0-0.28-0.06-0.34-0.24
			c-0.06-0.18,0.04-0.32,0.26-0.32h5.12v-1.88c0-0.2,0.12-0.3,0.32-0.28l1.32,0.14c0.2,0.02,0.34,0.2,0.2,0.34
			c-0.1,0.12-0.28,0.2-0.58,0.24v6.32c0,0.14-0.54,0.42-1.02,0.42c-0.14,0-0.24-0.12-0.24-0.3v-2.3
			C219.25,15.4,217.69,15.98,215.69,16.66z M228.09,17.66l1.18,0.84c0.18,0.14,0.18,0.32,0,0.42c-0.16,0.08-0.36,0.16-0.56,0.2v7.36
			c0,0.96-0.22,1.58-1.84,1.8c-0.2,0.04-0.3-0.06-0.36-0.24c-0.06-0.28-0.18-0.5-0.4-0.62c-0.26-0.2-0.7-0.36-1.46-0.46
			c-0.18-0.04-0.28-0.1-0.28-0.2s0.12-0.16,0.32-0.14c0.58,0.04,1.88,0.14,2.22,0.14c0.38,0,0.48-0.14,0.48-0.42v-2h-8.24v3.54
			c0,0.16-0.5,0.46-1.06,0.46c-0.14,0-0.22-0.12-0.22-0.3V18.02c0-0.22,0.16-0.32,0.36-0.22l1.04,0.46h7.94l0.46-0.56
			C227.79,17.54,227.95,17.56,228.09,17.66z M219.15,20.96h8.24v-2.1h-8.24V20.96z M227.39,21.56h-8.24v2.2h8.24V21.56z
			 M231.93,16.2c0,0.6-0.62,0.82-3.64,0.82h-2.1c-1.54,0-1.82-0.3-1.82-1.26v-5.4c0-0.2,0.12-0.3,0.32-0.28l1.16,0.14
			c0.2,0.02,0.34,0.2,0.18,0.34c-0.1,0.08-0.22,0.14-0.4,0.18v2.36c1.44-0.6,3.06-1.44,4.02-2.08c0.16-0.1,0.28-0.08,0.42,0.02
			l1.04,0.86c0.18,0.16,0.18,0.38-0.06,0.4c-0.16,0-0.38-0.04-0.62-0.14c-1.22,0.46-3.1,1.08-4.8,1.44v1.9
			c0,0.3,0.06,0.38,0.78,0.38h1.94c0.84,0,1.52-0.02,1.78-0.04c0.2,0,0.32-0.06,0.4-0.18c0.1-0.24,0.3-0.9,0.48-1.66
			c0.04-0.18,0.1-0.26,0.18-0.26s0.12,0.12,0.12,0.3l0.04,1.64C231.81,15.84,231.93,15.98,231.93,16.2z"/>
		<path class="st0" d="M252.9,14.88c-0.16,0.08-0.36,0.16-0.58,0.2v6.66c0,0.14-0.02,0.26-0.14,0.32c-0.22,0.14-0.68,0.3-1,0.3
			c-0.14,0-0.22-0.12-0.22-0.3V20.7h-5.82v7.12c0,0.2-0.58,0.54-1.08,0.54c-0.16,0-0.26-0.12-0.26-0.3V20.7h-5.82v1.44
			c0,0.14-0.54,0.44-1.1,0.44c-0.12,0-0.2-0.12-0.2-0.3v-8.32c0-0.22,0.16-0.34,0.36-0.24l1.08,0.52h5.68v-3.9
			c0-0.2,0.12-0.3,0.32-0.28l1.4,0.16c0.2,0.02,0.34,0.18,0.2,0.34c-0.1,0.12-0.28,0.22-0.58,0.26v3.42h5.62l0.56-0.62
			c0.12-0.14,0.28-0.16,0.42-0.04l1.16,0.9C253.07,14.62,253.08,14.78,252.9,14.88z M243.8,14.82h-5.82v5.28h5.82V14.82z
			 M250.96,14.82h-5.82v5.28h5.82V14.82z"/>
	</g>
</g>
<rect x="200.1" y="4.25" class="st1" width="65.35" height="31.5"/>
<rect x="77.45" y="4.25" class="st1" width="115.61" height="31.5"/>
<g>
	<g>
		<path class="st0" d="M98.3,27.54c3.92-0.84,6.88-4.42,7.3-8.86c0.08-1.06,0.08-1.76-0.4-2.28c-3.88,0.34-4.46,0.74-5.38,0.2
			c-1.14-0.66-0.72-1.5,0.1-1.22c1.78,0.64,4.02,0.38,8.58-0.14c1.26-0.14,2.12-0.38,2.9-0.02c1.3,0.6,0.94,1.46-0.02,1.2
			c-0.84-0.24-1.62-0.28-2.62-0.26c-1.06,0.04-1.98,0.1-2.78,0.16c0.36,0.22,0.62,0.42,0.92,0.66c0.74,0.66,0.32,1.18,0.22,1.38
			c-0.12,0.18-0.16,0.44-0.2,0.78c-0.48,4.96-4.66,8.18-8.54,8.78C97.92,27.98,97.86,27.64,98.3,27.54z M101.5,12.28
			c1.36,0.5,2.48,0.28,4.9-0.32c0.7-0.16,1.46-0.44,2.22-0.06c1,0.48,0.72,1.14,0.02,1.1c-0.68-0.04-1.06-0.06-1.92,0
			c-3.98,0.2-4.74,0.86-5.48,0.28C100.32,12.58,100.84,12.02,101.5,12.28z M109.48,10.44c1.04,0.4,1.66,0.84,2.2,1.82
			c0.6,1.16-0.72,1.64-1.26,0.52c-0.28-0.64-0.78-1.34-1.26-1.76C108.74,10.63,108.98,10.24,109.48,10.44z M111.48,10.08
			c0.78,0.26,1.64,0.72,2.14,1.5c0.54,0.94-0.62,1.68-1.2,0.58c-0.28-0.58-0.72-1.1-1.22-1.46
			C110.78,10.38,110.94,9.94,111.48,10.08z"/>
		<path class="st0" d="M127.37,23.66c-6.62,0.3-7.04,0.98-8.22-0.12c-0.86-0.82-0.5-1.4,0.32-1.04c1.36,0.64,2.1,0.54,7.72,0.12
			c0.38-0.02,0.72-0.08,1.1-0.1c0.32-2.06,0.42-3.44,0.62-5.36c0.04-0.32-0.08-0.4-0.28-0.4c-8.84,0.42-8.92,1-9.82-0.06
			c-0.82-0.96-0.32-1.68,0.56-1.08c1.4,0.94,3.48,0.6,9.54-0.04c1.44-0.16,1.56,0.34,1.32,1.54c-0.26,1.14-0.62,3.22-1.02,5.48
			c0.18,0.04,0.36,0.1,0.54,0.18c1.08,0.48,0.66,1.54-0.22,1.2C128.81,23.7,128.15,23.62,127.37,23.66z"/>
		<path class="st0" d="M139.55,17.52c0.04-0.94,0.14-1.42-0.52-2.02c-0.62-0.6-0.42-1.12,0.28-0.96c2.04,0.48,2.26,1.46,1.94,2.08
			c-0.14,0.22-0.2,0.52-0.2,0.86c-0.22,4.54-2.44,8.32-6.68,10.36c-0.3,0.16-0.52-0.12-0.1-0.36
			C137.25,25.76,139.39,21.54,139.55,17.52z M143.65,22.84c0.14-8,0.26-8.36-0.54-8.92c-0.66-0.48-0.66-1.3,0.4-1.02
			c2.18,0.54,1.8,1.52,1.68,2c-0.06,0.26-0.1,0.56-0.12,1.24c-0.12,2.16-0.16,3.18-0.16,6.02c0,0.3,0.18,0.38,0.44,0.26
			c2.22-1.16,3.6-2.3,6.06-4.66c0.46-0.42,0.74-0.04,0.42,0.32c-3.02,3.5-4.84,5.12-6.04,5.88
			C144.57,24.7,143.63,24.42,143.65,22.84z"/>
		<path class="st0" d="M156.54,27.6c3.92-0.86,6.88-4.44,7.3-8.88c0.08-1.06,0.08-1.76-0.38-2.28c-3.9,0.34-4.48,0.76-5.4,0.2
			c-1.14-0.66-0.72-1.5,0.1-1.2c1.78,0.62,4.02,0.36,8.58-0.16c1.26-0.14,2.14-0.38,2.9-0.02c1.3,0.6,0.94,1.46-0.02,1.2
			c-0.84-0.22-1.62-0.28-2.62-0.24c-1.06,0.04-1.98,0.1-2.78,0.16c0.36,0.2,0.62,0.4,0.92,0.64c0.74,0.66,0.32,1.18,0.22,1.38
			c-0.12,0.18-0.16,0.46-0.2,0.78c-0.48,4.96-4.64,8.18-8.54,8.78C156.16,28.02,156.1,27.68,156.54,27.6z M159.76,12.32
			c1.34,0.5,2.46,0.28,4.88-0.3c0.7-0.18,1.46-0.46,2.22-0.08c1,0.5,0.72,1.14,0.02,1.1c-0.68-0.04-1.04-0.06-1.92,0
			c-3.98,0.2-4.74,0.86-5.48,0.28C158.56,12.62,159.08,12.06,159.76,12.32z"/>
	</g>
</g>
</svg>
