<?xml version="1.0" encoding="utf-8"?>
<!-- Generator: Adobe Illustrator 25.4.1, SVG Export Plug-In . SVG Version: 6.00 Build 0)  -->
<svg version="1.1" id="レイヤー_1" xmlns="http://www.w3.org/2000/svg" xmlns:xlink="http://www.w3.org/1999/xlink" x="0px"
	 y="0px" viewBox="0 0 370 84" style="enable-background:new 0 0 370 84;" xml:space="preserve">
<style type="text/css">
	.st0{fill:#463243;}
	.st1{fill:#463243;stroke:#463243;stroke-width:2;stroke-linecap:round;stroke-linejoin:round;stroke-miterlimit:10;}
</style>
<g>
	<g>
		<path class="st0" d="M22.47,7.98c0,4.12-3.21,6.51-9.08,6.51c-0.3,0-0.61-0.03-0.95-0.03v-0.84c0.27,0.03,0.57,0.03,0.81,0.03
			c3.92,0,6.18-2.06,6.18-5.54c0-3.31-2.03-5.16-5.94-5.16c-1.86,0-2.23,0.61-2.23,2.33v14.07c0,2.67,0.17,3.48,3.14,3.58v0.84H5.16
			v-0.84c2.97-0.1,3.14-0.91,3.14-3.58V6.63c0-2.67-0.17-3.44-3.14-3.54V2.2h8.27C19.5,2.2,22.47,3.96,22.47,7.98z"/>
		<path class="st0" d="M29.13,22.93c2.97-0.1,3.14-0.91,3.14-3.58V6.63c0-2.67-0.17-3.44-3.14-3.54V2.2h16.44l0.74,4.02l-0.74,0.07
			c-1.32-2.16-2.77-3.14-4.83-3.14h-2.94c-2.46,0-2.57,0.47-2.57,2.19v5.37c0,0.91,0.34,1.22,1.18,1.22h2.8
			c1.92,0,2.73-0.88,3.04-3.04h0.84v7.32h-0.84c-0.2-2.33-1.05-3.27-3.04-3.27h-2.8c-0.84,0-1.18,0.3-1.18,1.22v6.48
			c0,1.72,0.1,2.19,2.57,2.19h4.12c2.94,0,4.19-0.91,5.81-4.22l0.71,0.07l-1.08,5.1H29.13V22.93z"/>
		<path class="st0" d="M65.04,22.93v0.84h-9.25v-0.84c2.97-0.1,3.14-0.91,3.14-3.58V6.63c0-2.67-0.17-3.44-3.14-3.54V2.2h7.7
			c5.64,0,8.61,2.06,8.61,5.57c0,2.57-1.69,4.29-5.06,5.13c0.81,0.74,1.42,1.79,2.16,2.94l3.14,4.79c0.91,1.42,1.62,2.29,3.27,2.29
			v0.84h-4.29c-1.05-1.05-1.82-2.33-2.7-3.71l-1.82-2.9c-0.51-0.81-1.25-2.03-2.29-3.75c-0.74,0.1-1.59,0.14-2.6,0.14v5.8
			C61.9,22.02,62.07,22.83,65.04,22.93z M62.27,12.73c4.69,0,6.82-1.28,6.82-4.69c0-2.94-2.06-5.1-4.96-5.1
			c-1.82,0-2.23,0.41-2.23,1.99v7.8C62.03,12.73,62.13,12.73,62.27,12.73z"/>
		<path class="st0" d="M83.18,17.43c1.32,3.75,3.51,5.64,6.41,5.64c2.8,0,4.52-1.65,4.52-4.08c0-1.15-0.41-2.13-1.15-2.9
			c-1.25-1.28-2.83-1.79-4.42-2.53c-3.58-1.69-5.33-3.04-5.33-5.84c0-3.44,2.7-5.67,7.39-5.67c1.65,0,3.21,0.27,4.66,0.78l0.03,4.72
			l-0.57,0.07c-1.01-3.24-2.36-4.66-4.79-4.66c-2.56,0-4.25,1.49-4.25,3.48c0,2.09,1.69,3.38,4.93,4.86
			c1.55,0.71,3.17,1.25,4.52,2.53c1.05,0.98,1.59,2.29,1.59,3.85c0,3.71-3.04,6.31-7.93,6.31c-1.89,0-3.75-0.3-5.57-0.94l-0.74-5.54
			L83.18,17.43z"/>
		<path class="st0" d="M108.25,21.34c-2.36-1.92-3.61-4.76-3.61-8.34c0-3.58,1.28-6.48,3.65-8.41c2.06-1.69,4.59-2.56,7.53-2.56
			s5.47,0.88,7.53,2.56c2.36,1.92,3.65,4.83,3.65,8.41c0,3.58-1.25,6.41-3.61,8.34c-2.13,1.72-4.62,2.6-7.56,2.6
			S110.38,23.06,108.25,21.34z M123.64,13.01c0-6.45-3.04-10.09-7.83-10.09s-7.8,3.65-7.8,10.09c0,6.41,3,10.06,7.8,10.06
			S123.64,19.42,123.64,13.01z"/>
		<path class="st0" d="M154.39,18.91V6.63c0-2.67-0.13-3.44-3.11-3.54V2.2h7.33v0.88c-3,0.07-3.17,0.88-3.17,3.54v17.15h-0.74
			L138.02,5.61v13.74c0,2.67,0.17,3.48,3.14,3.58v0.84h-6.89v-0.84c2.63-0.2,2.73-1.05,2.73-3.58V6.63c0-2.77-0.17-3.51-3.41-3.54
			V2.2h5.4L154.39,18.91z"/>
		<path class="st0" d="M163.76,22.93c2.06-0.2,3.04-1.52,4.05-4.08l4.62-11.64c0.27-0.71,0.47-1.42,0.57-2.16l2.03-2.97l0.64,0.24
			l6.75,17.45c0.81,2.06,1.69,3.04,3.48,3.17v0.84h-8.4v-0.84c1.55-0.2,2.23-0.61,2.23-1.55c0-0.41-0.07-0.88-0.27-1.38l-1.79-4.59
			h-7.43l-1.45,3.85c-0.34,0.91-0.51,1.59-0.51,1.92c0,0.88,0.74,1.45,2.19,1.75v0.84h-6.72V22.93z M177.36,14.39l-3.34-8.71
			l-3.41,8.71H177.36z"/>
		<path class="st0" d="M192.89,22.93c2.97-0.1,3.14-0.91,3.14-3.58V6.63c0-2.67-0.17-3.44-3.14-3.54V2.2h9.25v0.88
			c-2.97,0.1-3.14,0.88-3.14,3.54v13.54c0,0.1,0,0.2,0,0.3c0,1.89,0.07,2.36,2.57,2.36h2.6c3.58,0,5.4-0.91,7.46-4.52l0.74,0.2
			l-1.15,5.27h-18.33V22.93z"/>
		<path class="st0" d="M235.99,21.34c-2.36-1.92-3.61-4.76-3.61-8.34c0-3.58,1.28-6.48,3.65-8.41c2.06-1.69,4.59-2.56,7.53-2.56
			s5.47,0.88,7.53,2.56c2.36,1.92,3.65,4.83,3.65,8.41c0,3.58-1.25,6.41-3.61,8.34c-2.13,1.72-4.62,2.6-7.56,2.6
			S238.12,23.06,235.99,21.34z M251.38,13.01c0-6.45-3.04-10.09-7.83-10.09s-7.8,3.65-7.8,10.09c0,6.41,3,10.06,7.8,10.06
			S251.38,19.42,251.38,13.01z"/>
		<path class="st0" d="M270.93,22.93v0.84h-9.25v-0.84c2.97-0.1,3.14-0.91,3.14-3.58V6.63c0-2.67-0.17-3.44-3.14-3.54V2.2h7.7
			c5.64,0,8.61,2.06,8.61,5.57c0,2.57-1.69,4.29-5.06,5.13c0.81,0.74,1.42,1.79,2.16,2.94l3.14,4.79c0.91,1.42,1.62,2.29,3.27,2.29
			v0.84h-4.29c-1.05-1.05-1.82-2.33-2.7-3.71l-1.82-2.9c-0.51-0.81-1.25-2.03-2.29-3.75c-0.74,0.1-1.59,0.14-2.6,0.14v5.8
			C267.79,22.02,267.96,22.83,270.93,22.93z M268.16,12.73c4.69,0,6.82-1.28,6.82-4.69c0-2.94-2.06-5.1-4.96-5.1
			c-1.82,0-2.23,0.41-2.23,1.99v7.8C267.92,12.73,268.03,12.73,268.16,12.73z"/>
		<path class="st0" d="M288.31,22.93c2.97-0.1,3.14-0.91,3.14-3.58V6.63c0-2.67-0.17-3.44-3.14-3.54V2.2h9.35
			c8.47,0,13.87,4.69,13.87,11.37c0,3.34-1.55,6.11-4.56,8.13c-2.43,1.62-5,2.06-8.24,2.06h-10.43V22.93z M294.42,19.35
			c0,1.59,0,2.53,0.74,3.04c0.64,0.44,1.92,0.61,3.81,0.61c5.97,0,9.28-3.48,9.28-9.45c0-6.48-3.85-10.46-10.43-10.46
			c-3.21,0-3.41,0.81-3.41,3.54V19.35z"/>
		<path class="st0" d="M318.37,22.93c2.97-0.1,3.14-0.91,3.14-3.58V6.63c0-2.67-0.17-3.44-3.14-3.54V2.2h16.44l0.74,4.02l-0.74,0.07
			c-1.32-2.16-2.77-3.14-4.83-3.14h-2.94c-2.46,0-2.57,0.47-2.57,2.19v5.37c0,0.91,0.34,1.22,1.18,1.22h2.8
			c1.92,0,2.73-0.88,3.04-3.04h0.84v7.32h-0.84c-0.2-2.33-1.05-3.27-3.04-3.27h-2.8c-0.84,0-1.18,0.3-1.18,1.22v6.48
			c0,1.72,0.1,2.19,2.57,2.19h4.12c2.94,0,4.19-0.91,5.81-4.22l0.71,0.07l-1.08,5.1h-18.23V22.93z"/>
		<path class="st0" d="M354.28,22.93v0.84h-9.25v-0.84c2.97-0.1,3.14-0.91,3.14-3.58V6.63c0-2.67-0.17-3.44-3.14-3.54V2.2h7.7
			c5.64,0,8.61,2.06,8.61,5.57c0,2.57-1.69,4.29-5.06,5.13c0.81,0.74,1.42,1.79,2.16,2.94l3.14,4.79c0.91,1.42,1.62,2.29,3.27,2.29
			v0.84h-4.29c-1.05-1.05-1.82-2.33-2.7-3.71l-1.82-2.9c-0.51-0.81-1.25-2.03-2.29-3.75c-0.74,0.1-1.59,0.14-2.6,0.14v5.8
			C351.14,22.02,351.31,22.83,354.28,22.93z M351.51,12.73c4.69,0,6.82-1.28,6.82-4.69c0-2.94-2.06-5.1-4.96-5.1
			c-1.82,0-2.23,0.41-2.23,1.99v7.8C351.28,12.73,351.38,12.73,351.51,12.73z"/>
	</g>
	<g>
		<path class="st0" d="M81.09,56.38c2.34-0.46,4.54-2.13,5.96-4.71c0.09-0.21,0.07-0.36-0.02-0.48c-0.1-0.09-0.19-0.18-0.6-0.35
			c-0.42-0.15-0.44-0.51,0.06-0.51c1.7-0.01,2.22,1.2,1.79,1.88c-1.25,2-3.96,4.05-7.12,4.5C80.77,56.77,80.76,56.46,81.09,56.38z
			 M91.09,50.85c1.69,0.87,2.77,1.79,3.42,3.11c0.72,1.46-0.9,1.86-1.38,0.6c-0.42-1.14-1.19-2.5-2.24-3.3
			C90.55,50.98,90.76,50.68,91.09,50.85z M92.88,47.5c1.74,0,2.33,2.57,0.32,3.04c-0.63,0.15-0.83-0.5-0.21-0.79
			c0.71-0.34,0.5-1.38-0.29-1.38c-0.79,0-1.04,0.93-0.58,1.46c0.33,0.38,0.06,0.67-0.34,0.36C90.78,49.45,91.21,47.5,92.88,47.5z"/>
		<path class="st0" d="M116.62,53.32c-6.21-0.44-7.46,0.94-8.86-0.08c-0.89-0.66-0.39-1.12,0.28-0.88c1.46,0.5,2.52,0.46,8.4,0.12
			c0.71-0.05,1.62-0.05,2.13,0.17c0.93,0.38,0.85,1.05-0.02,0.9C118.05,53.46,117.48,53.4,116.62,53.32z"/>
		<path class="st0" d="M131.47,58.02c5.73-1.71,7.56-4.51,8.68-7.98c0.21-0.67,0.14-1.09-0.31-1.53c-0.45-0.45-0.3-0.93,0.41-0.78
			c1.15,0.25,1.51,1.05,1.27,1.75c-0.09,0.27-0.15,0.51-0.31,0.94c-1.85,5.17-5.73,7.16-9.66,7.92
			C131.2,58.42,131.16,58.12,131.47,58.02z M133.3,48.33c1.21,0.57,1.7,1.37,1.86,2.34c0.19,1.12-1.21,1.35-1.37,0.24
			c-0.1-0.86-0.2-1.5-0.75-2.15C132.7,48.34,133.02,48.18,133.3,48.33z"/>
		<path class="st0" d="M158.3,58.83c2.04-2.42,2.54-4.19,2.62-7.62c-4.06,0.43-4.42,0.9-5.2,0.2c-0.53-0.51-0.39-1.14,0.27-0.86
			c1.29,0.53,2.4,0.36,4.95,0.03c0.01-0.54,0.01-1.12,0.01-1.75c0-0.55-0.12-1.3-0.55-1.8c-0.53-0.58-0.41-1,0.43-0.78
			c1.16,0.3,1.23,1.05,1.16,1.58c-0.04,0.25-0.06,0.52-0.03,1.11c0.03,0.53,0.03,1.04,0.03,1.53c0.58-0.08,1.25-0.15,1.98-0.22
			c0.9-0.11,1.35-0.41,2.25-0.09c1.04,0.35,0.95,1.07,0.17,0.95c-0.83-0.12-1.41-0.18-2.19-0.13c-0.83,0.04-1.56,0.1-2.22,0.17
			c-0.11,3.39-1.01,5.86-3.47,7.96C158.24,59.31,158.07,59.11,158.3,58.83z"/>
		<path class="st0" d="M181.95,51.34c0.03-0.71,0.1-1.06-0.39-1.51c-0.46-0.45-0.31-0.84,0.21-0.72c1.53,0.36,1.7,1.09,1.46,1.56
			c-0.1,0.17-0.15,0.39-0.15,0.65c-0.17,3.4-1.83,6.24-5.01,7.77c-0.23,0.12-0.39-0.09-0.08-0.27
			C180.22,57.52,181.83,54.36,181.95,51.34z M185.02,55.33c0.11-6,0.2-6.27-0.4-6.69c-0.5-0.36-0.5-0.98,0.3-0.77
			c1.63,0.41,1.35,1.14,1.26,1.5c-0.04,0.2-0.08,0.42-0.09,0.93c-0.09,1.62-0.12,2.39-0.12,4.52c0,0.22,0.13,0.28,0.33,0.19
			c1.67-0.87,2.7-1.72,4.54-3.49c0.34-0.32,0.55-0.03,0.31,0.24c-2.26,2.62-3.63,3.84-4.53,4.41
			C185.71,56.73,185.01,56.52,185.02,55.33z"/>
		<path class="st0" d="M207.08,55.54c-1.05,0.83-2.25,1.58-3.75,2.34c-0.3,0.15-0.42-0.12-0.09-0.33c3.45-2.34,4.62-3.58,6.73-6.63
			c-4.11,0.2-4.28,0.55-5.16-0.21c-0.72-0.62-0.17-0.9,0.2-0.72c1.06,0.57,2.1,0.39,5.97,0.2c-0.06-2.28-0.2-2.54-0.55-2.79
			c-0.53-0.36-0.27-0.84,0.61-0.51c1.23,0.48,1.05,0.93,0.99,1.6c-0.04,0.55-0.08,1.09-0.1,1.65l1.65-0.07
			c0.88-0.04,1.28-0.14,1.63-0.03c0.77,0.25,0.89,1.16,0.09,0.93c-0.4-0.12-0.91-0.15-1.6-0.15c-0.64,0-1.25,0.01-1.79,0.03
			c-0.08,2.07-0.03,4.2,0.17,6.97c0.09,1.41-0.9,1.76-1.53,0.74C209.49,56.89,208.7,56.37,207.08,55.54z M210.69,57.09
			c0.24,0.17,0.36,0.1,0.36-0.2c-0.02-2.35-0.03-4.11-0.06-5.42c-1.18,1.52-2.28,2.72-3.55,3.78
			C208.64,55.71,209.84,56.43,210.69,57.09z"/>
		<path class="st0" d="M237.75,53.32c-6.21-0.44-7.46,0.94-8.86-0.08c-0.89-0.66-0.39-1.12,0.28-0.88c1.46,0.5,2.52,0.46,8.4,0.12
			c0.71-0.05,1.62-0.05,2.13,0.17c0.93,0.38,0.85,1.05-0.02,0.9C239.17,53.46,238.6,53.4,237.75,53.32z"/>
		<path class="st0" d="M254.22,58.51c3.22-1.56,5.16-3.15,6.43-5.13c-0.38-0.5-0.83-0.93-1.46-1.29c-0.39-0.22-0.25-0.5,0.12-0.34
			c0.6,0.24,1.2,0.55,1.74,0.93c0.51-0.94,0.9-2,1.23-3.17c0.04-0.13,0-0.3-0.18-0.27c-1.12,0.1-2.15,0.17-3,0.21
			c-1.02,2.12-2.17,3.12-4.29,4.25c-0.3,0.17-0.42-0.08-0.09-0.32c1.83-1.3,2.91-2.62,3.78-4.63c0.24-0.51,0.29-1.04-0.04-1.35
			c-0.58-0.57-0.24-0.86,0.29-0.66c1.18,0.45,1.08,1.09,0.76,1.83l-0.12,0.27c0.99,0,1.87-0.09,3.3-0.3c1-0.17,1.12,0.46,0.7,1.39
			c-0.55,1.25-1.11,2.33-1.69,3.25c0.34,0.33,0.64,0.68,0.87,1.04c0.73,1.23-0.69,1.7-1.23,0.42c-0.08-0.19-0.17-0.38-0.25-0.55
			c-1.6,2.19-3.6,3.57-6.76,4.74C253.91,58.98,253.88,58.68,254.22,58.51z M262.89,46.26c0.77,0.32,1.25,0.63,1.63,1.37
			c0.47,0.87-0.54,1.23-0.93,0.39c-0.22-0.48-0.58-1-0.94-1.32C262.33,46.41,262.5,46.11,262.89,46.26z M264.39,46
			c0.58,0.18,1.21,0.53,1.59,1.12c0.42,0.69-0.45,1.25-0.9,0.42c-0.21-0.42-0.54-0.82-0.92-1.09
			C263.87,46.21,263.97,45.88,264.39,46z"/>
		<path class="st0" d="M286.4,53.32c-6.21-0.44-7.46,0.94-8.86-0.08c-0.89-0.66-0.39-1.12,0.28-0.88c1.46,0.5,2.52,0.46,8.4,0.12
			c0.71-0.05,1.62-0.05,2.13,0.17c0.93,0.38,0.85,1.05-0.02,0.9C287.82,53.46,287.25,53.4,286.4,53.32z"/>
	</g>
	<line class="st1" x1="106.31" y1="81.96" x2="265.31" y2="81.96"/>
</g>
</svg>
