<?xml version="1.0" encoding="utf-8"?>
<!-- Generator: Adobe Illustrator 25.4.1, SVG Export Plug-In . SVG Version: 6.00 Build 0)  -->
<svg version="1.1" id="レイヤー_1" xmlns="http://www.w3.org/2000/svg" xmlns:xlink="http://www.w3.org/1999/xlink" x="0px"
	 y="0px" viewBox="0 0 125 300" style="enable-background:new 0 0 125 300;" xml:space="preserve">
<style type="text/css">
	.st0{fill:#463143;}
	.st1{fill:#9BB12A;}
</style>
<g>
	<g>
		<path class="st0" d="M19.02,260.66c-9.78,0-17.72,8.71-17.72,19.45c0,10.74,7.93,19.45,17.72,19.45s17.72-8.71,17.72-19.45
			C36.74,269.37,28.8,260.66,19.02,260.66z M18.86,296.69c-10.28-0.72-13.34-11-12.81-18.73c0.8-11.43,8.1-14.65,13.53-14.27
			c9.97,0.69,13.13,10.25,12.53,18.86C31.4,292.85,25.12,297.13,18.86,296.69z"/>
		<path class="st0" d="M51.5,291.97c0,3.52,0.1,4.01,1.86,4.26l1.17,0.15c0.34,0.24,0.24,1.08-0.1,1.22
			c-1.61-0.1-3.03-0.15-4.74-0.15c-1.76,0-3.23,0.05-4.7,0.15c-0.34-0.15-0.44-0.98-0.1-1.22l1.13-0.15
			c1.81-0.24,1.86-0.73,1.86-4.26v-22.11c0-2.89-0.05-3.18-1.52-4.06l-0.49-0.29c-0.24-0.15-0.24-0.83,0-0.98
			c1.22-0.39,3.52-1.13,5.28-2.05c0.2,0,0.39,0.1,0.49,0.29c-0.05,1.47-0.15,3.91-0.15,6.07V291.97z"/>
		<path class="st0" d="M64.39,283.02c-0.73-1.81-1.17-3.38-2.93-3.62l-0.98-0.15c-0.29-0.39-0.24-1.08,0.15-1.22
			c1.22,0.1,2.93,0.15,4.6,0.15c1.32,0,2.3-0.05,3.96-0.15c0.34,0.2,0.39,0.98,0.05,1.22l-0.59,0.1c-1.52,0.24-1.57,0.49-1.08,1.96
			c1.13,3.38,2.54,6.8,3.67,9.34c0.44,0.98,0.64,1.42,0.78,1.57c0.2-0.15,0.54-0.83,0.93-1.86c0.64-1.66,2.3-5.92,2.79-7.19
			c0.68-1.71,0.88-2.74,0.88-3.03c0-0.44-0.29-0.64-0.88-0.73l-1.13-0.15c-0.29-0.34-0.24-1.03,0.1-1.22
			c1.52,0.1,2.74,0.15,3.67,0.15c1.22,0,2.05-0.05,3.42-0.15c0.34,0.2,0.39,0.93,0.1,1.22l-0.73,0.1c-1.71,0.24-2.15,1.52-3.57,4.26
			c-0.68,1.32-3.72,8.41-4.5,10.42c-0.49,1.22-0.98,2.35-1.61,4.01c-0.1,0.15-0.29,0.2-0.49,0.2c-0.24,0-0.49-0.05-0.64-0.2
			c-0.39-1.37-1.13-3.28-1.86-5.09L64.39,283.02z"/>
		<path class="st0" d="M91.6,283.41c0-1.91,0-2.15-1.32-3.03l-0.44-0.29c-0.2-0.2-0.2-0.73,0.05-0.88c1.13-0.39,3.91-1.66,5.04-2.4
			c0.24,0,0.44,0.1,0.49,0.29c-0.1,1.71-0.2,4.06-0.2,6.07v8.8c0,3.52,0.1,4.01,1.86,4.26l1.03,0.15c0.34,0.24,0.24,1.08-0.1,1.22
			c-1.47-0.1-2.89-0.15-4.6-0.15c-1.76,0-3.23,0.05-4.6,0.15c-0.34-0.15-0.44-0.98-0.1-1.22l1.03-0.15
			c1.81-0.24,1.86-0.73,1.86-4.26V283.41z M95.61,267.57c0,1.71-1.22,2.49-2.54,2.49c-1.52,0-2.49-1.08-2.49-2.4
			c0-1.61,1.22-2.59,2.64-2.59C94.68,265.07,95.61,266.2,95.61,267.57z"/>
		<path class="st0" d="M111.52,284.93c-1.27,0-1.32,0.1-1.32,1.32c0,4.94,2.89,9.15,8.12,9.15c1.61,0,2.98-0.49,4.5-2.4
			c0.49-0.15,0.83,0.15,0.88,0.59c-1.61,3.33-5.14,4.55-7.68,4.55c-3.18,0-5.67-1.37-7.09-3.23c-1.47-1.91-2.05-4.21-2.05-6.36
			c0-6.02,3.96-11.05,9.83-11.05c4.21,0,6.95,2.89,6.95,5.82c0,0.68-0.1,1.08-0.2,1.27c-0.15,0.29-0.83,0.34-2.89,0.34H111.52z
			 M114.55,283.46c3.62,0,4.7-0.2,5.09-0.49c0.15-0.1,0.29-0.29,0.29-0.93c0-1.37-0.93-3.08-3.77-3.08c-2.89,0-5.38,2.64-5.43,4.26
			c0,0.1,0,0.24,0.34,0.24H114.55z"/>
		<path class="st1" d="M71.14,147.68c13.31-3.42,23.23-16.49,23.23-32.14c0-14.56-8.59-26.9-20.51-31.3h0.06c0,0-0.12-0.03-0.31-0.1
			c-0.18-0.06-0.35-0.14-0.53-0.2c-2.06-0.81-7.22-3.44-7.25-9.44c0.03-5.9,5.02-8.54,7.14-9.39c0.28-0.09,0.55-0.2,0.82-0.3
			c0.07-0.02,0.12-0.04,0.12-0.04H73.9c11.9-4.41,20.48-16.74,20.48-31.29c0-18.25-13.48-33.04-30.11-33.04
			c-16.63,0-30.1,14.79-30.1,33.04c0,14.55,8.58,26.87,20.48,31.29h-0.03c0,0,0.05,0.01,0.12,0.04c0.27,0.1,0.54,0.21,0.82,0.3
			c2.12,0.86,7.11,3.5,7.14,9.39c-0.03,5.99-5.19,8.63-7.25,9.44c-0.18,0.06-0.35,0.13-0.53,0.2c-0.19,0.06-0.31,0.1-0.31,0.1h0.06
			c-11.92,4.4-20.51,16.74-20.51,31.3c0,15.46,9.69,28.4,22.75,32.01c2.39,1.24,5.87,3.89,5.89,8.81c-0.04,7.48-8.08,9.73-8.08,9.73
			h0.44c-12.17,4.24-21,16.73-21,31.49c0,18.25,13.48,33.04,30.1,33.04c16.63,0,30.11-14.79,30.11-33.04
			c0-14.76-8.83-27.26-21-31.49h0.22c0,0-8.05-2.25-8.08-9.73C65.53,151.61,68.77,148.98,71.14,147.68z"/>
	</g>
</g>
</svg>
