<?xml version="1.0" encoding="utf-8"?>
<!-- Generator: Adobe Illustrator 25.4.1, SVG Export Plug-In . SVG Version: 6.00 Build 0)  -->
<svg version="1.1" id="レイヤー_1" xmlns="http://www.w3.org/2000/svg" xmlns:xlink="http://www.w3.org/1999/xlink" x="0px"
	 y="0px" viewBox="0 0 400 50" style="enable-background:new 0 0 400 50;" xml:space="preserve">
<style type="text/css">
	.st0{fill:#463143;}
</style>
<g>
	<path class="st0" d="M106.35,24.34h4.59c2.48,0,3.46-0.99,4.05-3.69h1.08v9.41h-1.08c-0.27-3.11-1.39-4.37-4.05-4.37h-4.59
		c-1.12,0-1.57,0.41-1.57,1.62v6.3c0,3.55,0.22,4.68,4.23,4.77v1.12H96.63v-1.12c3.96-0.13,4.18-1.21,4.18-4.77V16.65
		c0-3.55-0.23-4.59-4.18-4.72v-1.17h22.59l1.57,7.11l-1.08-0.09c-2.39-3.96-4.46-5.76-7.61-5.76h-3.91c-3.29,0-3.42,0.63-3.42,2.92
		v7.79C104.77,23.94,105.22,24.34,106.35,24.34z"/>
	<path class="st0" d="M133.56,21.64c1.26,0,2.03,0.67,2.03,1.67c0,1.08-0.76,1.71-2.12,1.71c-0.72,0-1.48-0.13-2.38-0.13
		c-2.38,0-2.97,0.94-2.97,3.42v6.93c0,2.43,0.22,3.24,2.7,3.33v0.95h-8.64v-0.95c2.47-0.09,2.74-0.9,2.74-3.33v-9.99l-1.57-1.17
		v-0.58l3.91-2.11l0.77,0.4v3.33C129.92,22.81,131.81,21.64,133.56,21.64z"/>
	<path class="st0" d="M146.69,39.73c-4.9,0-8.41-3.73-8.41-9.22c0-5.04,3.87-8.91,8.82-8.91c3.78,0,6.43,2.34,6.71,6.07h-12.01
		c-0.13,0.95-0.23,1.8-0.23,2.7c0,4.28,2.79,7.42,6.57,7.42c1.75,0,3.33-0.72,5.17-1.98l0.58,0.67
		C151.87,38.65,149.48,39.73,146.69,39.73z M150.52,26.64c-0.09-2.7-1.39-4-3.92-4c-2.21,0-3.78,1.39-4.5,4H150.52z"/>
	<path class="st0" d="M159.06,34.15l0.72,0.04c0.63,2.97,2.11,4.5,4.32,4.5c1.94,0,3.24-1.22,3.24-3.06c0-1.93-1.3-2.79-3.51-4
		c-3.02-1.67-4.82-2.74-4.82-5.22c0-2.79,2.34-4.86,6.3-4.86c1.12,0,2.29,0.18,3.55,0.58v3.73l-0.58,0.09
		c-1.12-2.29-2.11-3.42-3.6-3.42c-1.75,0-2.83,1.08-2.83,2.65c0,1.89,1.49,2.61,4,3.96c2.66,1.39,4.19,2.47,4.19,5.04
		c0,3.1-2.7,5.53-6.08,5.53c-2.56,0-4.46-0.72-5.49-1.98L159.06,34.15z"/>
	<path class="st0" d="M182.66,38.56v0.95h-8.78v-0.95c2.48-0.09,2.75-0.9,2.75-3.33v-22.5l-1.75-1.04v-0.86l5.08-1.53v14.13
		c1.98-1.21,3.87-1.84,5.94-1.84c4.14,0,6.08,2.16,6.08,6.61v7.02c0,2.43,0.22,3.24,2.7,3.33v0.95h-8.73v-0.95
		c2.48-0.09,2.7-0.9,2.7-3.33v-5.71c0-4.28-0.99-6.3-4.23-6.3c-1.71,0-3.2,0.67-4.46,1.98v10.04
		C179.96,37.66,180.18,38.47,182.66,38.56z"/>
	<path class="st0" d="M219.6,25.33v8.28c0,3.55,0.22,4.63,4.18,4.77v1.12h-12.33v-1.12c3.96-0.13,4.19-1.21,4.19-4.77V16.65
		c0-3.55-0.23-4.59-4.19-4.72v-1.17h12.33v1.17c-3.96,0.13-4.18,1.17-4.18,4.72v7.2h17.91v-7.2c0-3.55-0.23-4.59-4.19-4.72v-1.17
		h12.33v1.17c-3.96,0.13-4.18,1.17-4.18,4.72v16.96c0,3.55,0.22,4.63,4.18,4.77v1.12h-12.33v-1.12c3.96-0.13,4.19-1.21,4.19-4.77
		v-8.28H219.6z"/>
	<path class="st0" d="M257.58,39.73c-4.9,0-8.41-3.73-8.41-9.22c0-5.04,3.87-8.91,8.82-8.91c3.78,0,6.43,2.34,6.71,6.07h-12.01
		c-0.13,0.95-0.23,1.8-0.23,2.7c0,4.28,2.79,7.42,6.57,7.42c1.75,0,3.33-0.72,5.17-1.98l0.58,0.67
		C262.75,38.65,260.37,39.73,257.58,39.73z M261.4,26.64c-0.09-2.7-1.39-4-3.92-4c-2.21,0-3.78,1.39-4.5,4H261.4z"/>
	<path class="st0" d="M279.98,21.64c1.26,0,2.03,0.67,2.03,1.67c0,1.08-0.76,1.71-2.12,1.71c-0.72,0-1.48-0.13-2.38-0.13
		c-2.38,0-2.97,0.94-2.97,3.42v6.93c0,2.43,0.22,3.24,2.7,3.33v0.95h-8.64v-0.95c2.47-0.09,2.74-0.9,2.74-3.33v-9.99l-1.57-1.17
		v-0.58l3.91-2.11l0.77,0.4v3.33C276.34,22.81,278.23,21.64,279.98,21.64z"/>
	<path class="st0" d="M286.27,39.28V12.73l-1.75-1.04v-0.86l5.08-1.53V23.8c1.94-1.53,3.78-2.25,5.81-2.25
		c4.59,0,7.96,3.38,7.96,8.68s-4,9.58-9.04,9.58c-2.16,0-3.87-0.72-5.08-0.72c-0.76,0-1.44,0.18-2.16,0.58L286.27,39.28z
		 M289.6,35.95c1.08,1.8,2.93,2.83,5.04,2.83c3.33,0,5.49-2.75,5.49-7.56c0-5.22-2.48-8.24-5.94-8.24c-1.66,0-3.06,0.72-4.59,2.21
		V35.95z"/>
</g>
</svg>
