<?xml version="1.0" encoding="utf-8"?>
<!-- Generator: Adobe Illustrator 25.4.1, SVG Export Plug-In . SVG Version: 6.00 Build 0)  -->
<svg version="1.1" id="レイヤー_1" xmlns="http://www.w3.org/2000/svg" xmlns:xlink="http://www.w3.org/1999/xlink" x="0px"
	 y="0px" viewBox="0 0 600 200" style="enable-background:new 0 0 600 200;" xml:space="preserve">
<style type="text/css">
	.st0{fill:#463143;}
</style>
<g>
	<path class="st0" d="M29.8,148.4c-0.2,0.2-0.4,0.2-0.8,0.2c-1.2,0-2.4-1.1-2.4-2c0-0.7,0.4-0.8,1.6-1.2c0.3-0.1,0.8-0.2,1.1-0.3
		c2.8-1.5,11.8-11.1,14.2-14.5c-1.8,0.5-4.1,1.4-5.3,2.4c-0.5,0.4-1,0.9-1.6,0.9c-0.1,0-4.3-0.5-4.3-3.1c0-0.4,0.2-0.6,0.4-0.6
		c0.2,0,0.4,0,0.6,0.2c0.2,0.1,1.9,0.7,2.7,0.7c0.5,0,1.1-0.1,1.6-0.3c1.8-0.6,3.6-1.1,5.5-1.5c0.1,0,0.6-0.2,0.8-0.3
		c0.2-0.2,0.5-0.4,0.8-0.4c0.8,0,2.7,1.1,2.7,2c0,0.3-0.2,0.6-0.6,0.8c-0.3,0.2-0.7,0.3-1,0.6c-0.7,0.6-1.8,1.5-2.8,2.6
		c-3.4,3.4-6.6,6.6-10.2,9.6c3.7-1.4,10-3.4,16.2-4.1c0.3,0,0.6-0.1,0.8-0.2s0.6-0.1,0.9-0.1c0,0,0.1,0,0.2,0c0.5,0,3.4,0.8,3.4,2
		c0,0.6-0.6,1.1-1.4,1.1c-0.1,0-0.2,0-0.4,0c-1-0.2-2-0.2-3.1-0.2c-7.4,0-12.7,5.3-12.7,9.2c0,4.8,7.6,5.7,7.7,5.7
		c0.6,0,1.2-0.2,1.7-0.2c0.9,0,2.8,0.4,2.8,1.6s-0.8,1.6-2.6,1.6c-5,0-11.3-3-11.3-8.3c0-3.3,2.3-6.4,5.7-8.8
		C35.5,144.9,30.7,147.7,29.8,148.4z"/>
	<path class="st0" d="M84.8,136.4c0,4-5.4,19.5-10.6,19.5c-2.6,0-5.4-4.5-5.4-8.5c0-5.4,6.3-15.4,16.7-15.4
		c7.4,0,13.9,4.9,13.9,12.6c0,6.5-5.1,13.4-16.7,14.8c0,0-0.1,0-0.1,0c-0.4,0-0.8-0.4-0.8-0.8c0-0.3,0.2-0.6,0.7-0.7
		c8.2-1.6,14-7,14-14c0-5.4-3.8-10.2-10.7-10.4c-0.5,0-1,0-1.6,0.1C84.7,134.4,84.8,135.4,84.8,136.4z M71.2,146.8
		c0,2.9,1.9,6.2,3.2,6.2c2.3,0,8.4-12.2,8.4-18.3c0-0.3,0-0.5,0-0.7c0-0.1,0-0.1,0-0.2C75,135.7,71.2,142.8,71.2,146.8z"/>
	<path class="st0" d="M109.7,159.6c0-0.6,0.4-1.3,1-1.6c1.8-0.9,4.1-2.3,5.1-5.9c0-0.2,0.2-0.2,0.4-0.2c0.4,0,1,0.2,0.9,0.5
		c-0.5,5.6-4.9,8.5-6.2,8.5C109.9,160.9,109.7,160.1,109.7,159.6z M138,149.1v-0.8l0-0.8h-20.1c0,0.4,0,0.8,0,0.9v1v0
		c0,0.1,0,0.9-1.5,0.9c-0.6,0-1.1-0.2-1.1-0.8c0,0,0-0.1,0-0.1c0,0,0.2-2.4,0.2-5.6v-4.1c0-2.8,0-3.4-0.3-5.6c1,0.3,2.1,0.8,2.9,1.2
		h8.1v-3.5h-4.2c-1.7,0-8.7,0.1-10.6,0.3c-0.4-0.5-0.9-1.4-0.9-2.1c0,0,0,0,0-0.1c2.2,0.2,9.7,0.4,12.5,0.4h3.1c0-1.4-0.1-3-0.3-4.4
		c0.1,0,0.2,0,0.3,0c0.2,0,3.8,0,3.8,1c0,0.8-1.3,1.1-1.4,1.1v2.3h11.2c0.8-1.3,1.8-2.3,2-2.3c0.1,0,0.2,0,0.3,0.1
		c0.3,0.2,3.2,2,3.2,2.8c0,0.4-0.3,0.8-1,0.8h-15.8v3.5h9.2c0.2-0.3,0.9-1,1.3-1c0.6,0,2.6,1.6,2.6,2.1c0,0.4-0.4,0.7-1.3,0.9v6.4
		c0,0.9,0,2,0.1,3.3c0,0.2,0,1.4,0.1,1.6c0.1,0.6-0.4,1.1-1.4,1.1C138.6,149.8,138,149.6,138,149.1L138,149.1z M126.3,136.8h-8.4
		v3.7h8.4V136.8z M126.3,141.9h-8.4v4.1h8.4V141.9z M120.6,153.4c0-1.6-0.1-2.2-0.2-3.1c3,0.3,3.8,0.4,3.8,1.1c0,0.1,0,0.1,0,0.2
		c-0.1,0.4-0.6,0.8-1.2,1l-0.1,4.2c0,0.1,0,0.2,0,0.2c0,2,0.2,2.4,4.9,2.4c2.3,0,4.6-0.2,5.6-0.3c2-0.3,2.2-0.5,3-5.5
		c0-0.2,0.3-0.3,0.6-0.3c0.4,0,0.8,0.2,0.8,0.5c0,0,0,0,0,0c-0.1,1.2-0.3,2.9-0.4,3.7c0,0,0,0.1,0,0.1c0,0.4,0.2,0.5,0.6,0.6
		c0.5,0.2,1.1,0.5,1.1,1.2c0,0.6-0.5,1.2-1.5,1.5c-1.1,0.3-5.9,0.8-10,0.8c-1.2,0-2.4,0-3.6-0.1c-0.9-0.1-3.4-0.7-3.4-4.3
		c0,0,0,0,0-0.1L120.6,153.4z M130.7,155.6c-1.1-2.2-2.7-3.9-4.4-5.2c-0.1-0.1-0.1-0.2-0.1-0.3c0-0.3,0.4-0.7,0.8-0.7
		c0.4,0,6.1,3.3,6.1,5.6c0,0.7-0.4,1.6-1.2,1.6C131.4,156.6,131,156.2,130.7,155.6z M138.1,136.8h-9.4v3.7h9.4V136.8z M138.1,141.9
		h-9.4v4.1h9.4c0-0.6,0-1.2,0-1.4L138.1,141.9L138.1,141.9z M143.8,158.8c-1.4-2.7-3.6-4.9-5.7-6.6c-0.1-0.1-0.2-0.2-0.2-0.3
		c0-0.3,0.4-0.7,0.7-0.7c0.6,0,7,3.9,7.5,6.3c0,0.3,0.1,0.6,0.1,0.8c0,0.9-0.4,1.8-1,1.8C144.7,160.1,144.2,159.7,143.8,158.8z"/>
	<path class="st0" d="M171.4,143.6c0.8-0.4,1.7-0.7,2.4-1c1.6-0.6,2.6-1,3-1.2c0.4-0.1,0.8-0.2,1.2-0.2c1.2,0,2.6,0.6,2.6,1.4
		c0,1.2-1.2,1.5-2,1.6c-2.2,0.2-15.6,2.8-15.6,8.9c0,3.7,5.4,4.6,9.1,4.6c2.1,0,4.1-0.3,5.2-0.7c0.6-0.2,1.5-0.6,2-0.7
		c0.3,0,0.6,0,0.8,0c1.5,0,2.4,0.6,2.4,1.6c0,2.2-7.6,2.6-9.9,2.6c-5.4,0-11.6-2.4-11.6-7c0-3.7,4.1-6.7,8.2-8.8
		c-1.3-1.1-1.7-3.3-1.7-4.6c0-0.6,0.1-1.2,0.1-1.9c0.1-1,0.3-4.3,0.3-5.6c0-1-0.3-2-2-2.6c-0.2-0.1-0.6-0.3-0.6-0.6v0
		c0-0.1,0.2-0.6,1.6-0.6c1.6,0,4.2,1.7,4.2,3.1c0,0.2,0,0.3-0.1,0.5c-0.1,0.3-0.4,0.6-0.5,0.9c-0.4,1.6-0.7,6-0.7,6.9
		c0,1.2,0.2,2.8,1,3.6L171.4,143.6z"/>
	<path class="st0" d="M208.6,133.4v2c1.6,0.7,4.9,2.7,5.2,3.9c0.1,0.3,0.1,0.6,0.1,0.8c0,1.4-0.6,1.7-1.1,1.7
		c-0.4,0-0.9-0.2-1.2-0.8c-0.6-1.4-1.8-2.8-3.1-4v3.3c0,1.1,0,3.1,0.2,6.7c0,0.4,0,1.1,0,1.6c0,0.9-1.1,1-1.7,1
		c-0.6,0-0.9-0.2-0.9-0.8c0,0,0-0.1,0-0.1c0,0,0.1-1.1,0.1-2.1c0.2-3.2,0.1-5.2,0.2-6.3l0.1-3.7c-3.4,6-8.2,9-8.3,9
		c-0.2,0-0.8-0.3-0.8-0.7c0-0.1,0-0.2,0.2-0.4c3-2.6,6.4-6.6,8.4-11.1h-2.2c-1.5,0-3.2,0-4.6,0.2c-0.4-0.4-0.7-1.3-0.8-2
		c1.6,0.2,4.2,0.4,6.4,0.4h1.5c0-3-0.1-4.1-0.4-6c3.2,0.2,4,0.4,4,1.2c0,0.5-0.5,0.9-1.4,1.2v3.7h2.3c1.5-1.9,1.7-1.9,1.8-1.9
		c0.4,0,3.1,1.8,3.1,2.7c0,0.4-0.4,0.7-0.9,0.7L208.6,133.4L208.6,133.4z M197.9,159.4c0-0.6,0.3-1.3,0.9-1.6
		c1.8-0.9,4.2-2.8,5.1-6.4c0-0.2,0.2-0.3,0.5-0.3c0.4,0,0.8,0.2,0.8,0.6c0,4.3-4.1,9.2-6.1,9.2C198.2,160.7,197.9,160.1,197.9,159.4
		z M207.9,153.2c0-1.5-0.1-2.2-0.3-3.1c1.2,0.1,2,0.1,2.5,0.2c0.6,0.1,1.2,0.4,1.2,0.8c0,0.5-0.4,0.8-1.1,1l-0.1,4.9
		c0,2.4,0.6,2.6,4.9,2.6c3.4,0,4.7-0.2,5-0.2c1.3-0.1,2.4-0.4,3-5.6c0-0.2,0.4-0.3,0.7-0.3c0.4,0,0.7,0.1,0.7,0.4
		c0,0.5-0.1,1.5-0.4,3.4c0,0.3-0.1,0.6-0.1,0.8c0,0.3,0,0.5,0.1,0.5c0.4,0.5,1.1,0.3,1.4,1.2c0,0.1,0,0.1,0,0.2
		c0,1.6-4.7,1.9-9.9,1.9c-1.7,0-3.4-0.1-4.2-0.1c-1,0-3.5-0.7-3.5-4.3c0,0,0,0,0-0.1L207.9,153.2z M217.7,154.3
		c-1.4-2.2-2.5-3.3-4.8-4.6c-0.1-0.1-0.2-0.2-0.2-0.3c0-0.3,0.4-0.7,0.7-0.7c0.6,0,6,2.5,6.4,4.2c0.1,0.3,0.1,0.7,0.1,1
		c0,1-0.4,1.5-0.9,1.5C218.6,155.4,218.1,155,217.7,154.3z M219.3,146.3v0.6c0,0.3,0,0.6,0,0.8c0,0.4,0,1.3-1.5,1.3
		c-0.5,0-1-0.2-1-0.9c0,0,0-0.1,0-0.2c0,0,0.1-0.6,0.1-1.3c0-1.4,0.1-3.6,0.1-4.6v-9.9c0-1.5-0.1-3.3-0.4-4.9c1,0.3,2,0.9,2.9,1.6
		h8.8c0.4-0.5,1.1-1.3,1.4-1.3c0.1,0,0.2,0,0.3,0.1c0.5,0.3,1.3,0.9,1.8,1.4c0.2,0.2,0.4,0.4,0.4,0.7c0,0.4-0.3,0.8-1.4,1.2v11
		c0,0.5,0.1,4.2,0.1,4.7c0,0.4,0,1.2,0,1.3c0,0.2,0,1.2-1.3,1.2c-0.8,0-1.1-0.4-1.1-1c0-0.2,0-1.1,0-1.6L219.3,146.3L219.3,146.3z
		 M228.7,130.2h-9.4l0,3.7h9.5V130.2z M228.7,135.4h-9.5v3.9h9.5V135.4z M228.7,140.7h-9.5v4.2h9.4c0-1,0-2.2,0-2.6V140.7z
		 M230.9,158.9c-1.3-2.8-3.7-5.5-5.8-7.3c-0.1-0.1-0.1-0.2-0.1-0.2c0-0.3,0.4-0.7,0.7-0.7c0.6,0,7.2,4.5,7.6,7
		c0,0.3,0.1,0.5,0.1,0.8c0,1.4-0.6,1.8-1,1.8C231.8,160.3,231.3,159.8,230.9,158.9z"/>
	<path class="st0" d="M247.4,139.3c-0.1-1.6-0.4-3-1.7-4.3c-0.3-0.3-0.4-0.5-0.4-0.7c0-0.4,0.9-0.5,1.1-0.5c0.9,0,3.8,1.7,3.8,3.9
		c0,0.5-0.1,1.1-0.2,1.6c-0.2,1.3-0.2,2.6-0.2,3.8c0,9.4,4.1,9.7,4.5,9.7c0.3,0,0.4-0.2,0.6-0.4c4.4-8.1,4.6-8.5,5.1-8.5
		c0.4,0,0.6,0.2,0.6,0.6c0,0.2,0,0.3-0.1,0.4c-1.1,1.9-2.9,5.6-3.6,7.8c-0.1,0.2-0.1,0.4-0.1,0.5c0,0.1,0,0.2,0,0.4
		c0.2,0.6,0.5,1.2,0.5,1.9c0,1.1-1.2,1.4-1.7,1.4c-1.1,0-4.3-1.2-6.1-5C247.9,148.7,247.8,147.7,247.4,139.3z M274.1,148.7
		c-0.2-2.4-1.8-7.4-6.8-12.1c-0.2-0.2-0.2-0.3-0.2-0.5c0-0.4,0.4-0.6,0.8-0.6c1.3,0,9.1,6.6,9.1,12.3c0,1.6-1,2.8-1.7,2.8
		C274.6,150.6,274.2,149.9,274.1,148.7z"/>
	<path class="st0" d="M320.4,141.4c0,1.1-1.1,1.1-1.9,1.2c-1.5,0.2-7.6,2.7-11.2,4.6c0,0.2,0,0.4,0,0.7c0,6.2-0.8,6.4-1.6,6.4
		c-0.7,0-1.2-1.1-1.2-2c0-0.4,0.1-0.8,0.4-1.8c0-0.7,0.1-1.4,0.1-2.1c-3.2,1.9-5.8,4.1-5.8,6.3c0,2.9,4.5,3.7,7.4,3.7
		c2.4,0,3.2-0.3,4.9-1c0.2-0.1,0.4-0.2,0.6-0.2c0.2,0,0.5,0,0.7,0c2.4,0,2.4,1.1,2.4,1.3c0,0.6-0.2,1.2-1.5,1.6
		c-0.8,0.2-3.4,0.9-6.9,0.9c-3.6,0-9.5-1.6-9.5-5.6c0-3.1,3.6-6.2,7.7-8.8v-0.9c-0.1-1.9-0.8-3.5-2.6-3.5c-3,0-6.3,4.2-7.3,6.2
		c-0.2,0.4-0.9,0.8-1.5,0.8c-1.1,0-1.1-1.7-1.1-1.8c0-0.2,0-0.7,0.9-1.6c1.9-1.5,5.1-5.7,7.4-9.4c-1.8,0.3-3.4,0.5-4.2,0.5
		c-2.6,0-4.9-1.2-4.9-3.3c0-0.6,0.2-0.9,0.5-0.9c0.2,0,0.5,0.2,0.8,0.5c1.1,1.2,2.7,1.8,4.1,1.8c0.7,0,2.7-0.2,4.7-0.6
		c0.7-1.7,1-3.2,1-3.6c0-1-1.2-1.2-2.5-1.4c-0.2-0.1-0.4-0.2-0.4-0.5c0-0.8,1.6-0.8,1.8-0.8c1.8,0,3.7,1.2,3.7,2.2
		c0,0.2,0,0.4-0.2,0.7c0,0.1-0.4,0.9-0.5,1.2c-0.2,0.6-0.5,1.2-0.8,1.8c1.3-0.3,2.4-0.6,2.8-0.8c0.9-0.6,1.2-0.9,3-0.9
		c1.4,0,1.6,0.6,1.6,1c0,0.9-0.1,1.2-8.5,2.8c-1.3,2.4-2.8,4.6-4.4,6.7c1.2-1,2.6-1.9,4.6-1.9c2.4,0,3.8,2.2,4.2,3.8
		c0,0.2,0,0.5,0.1,0.8c3-1.7,6-3.1,8.6-4.4c0.4-0.2,0.7-0.3,0.9-0.4c0.2-0.1,0.3-0.2,0.2-0.2c-0.3-1-3.1-0.4-3.1-1.4
		c0-0.1,0-0.1,0-0.2c0.1-0.4,0.5-0.5,0.9-0.5C316,138.3,320.4,138.5,320.4,141.4L320.4,141.4L320.4,141.4z"/>
	<path class="st0" d="M342.4,161.1c-1.8-3.2-4.4-5.6-7.3-7.2c-0.2-0.1-0.3-0.2-0.3-0.4c0-0.4,0.4-0.8,0.9-0.8c1.6,0,8.4,3.6,9.6,5.6
		c0.4,0.7,0.6,1.5,0.6,2.2c0,1.5-0.6,2.4-1.5,2.4C343.8,162.8,343.1,162.3,342.4,161.1z"/>
	<path class="st0" d="M396.4,161.3c-0.6,0-13.7-6.8-15.5-27.4c-0.8,14.3-7,23.2-17.4,28.4c0,0-0.1,0-0.2,0c-0.6,0-0.8-0.6-0.8-1
		c0-0.2,0-0.3,0.1-0.3c10.6-6.5,15.9-15.7,15.9-30.1c0-1.3-0.1-2.8-0.4-3.9c3.7,0,5.3,0.4,5.3,1.2c0,0.1-0.1,0.8-1.5,1.2
		c0.3,13.9,7.4,26.1,17.4,29.4c0.2,0.1,0.3,0.2,0.3,0.4c0,0.4-0.3,0.8-0.4,0.9c-0.8,0.1-1.6,0.3-2.3,1
		C396.8,161.1,396.6,161.3,396.4,161.3z"/>
	<path class="st0" d="M419.3,153.9c-0.2-0.2-0.3-0.4-0.3-0.6c0-0.3,0.2-0.6,0.6-0.6c0.1,0,0.3,0,0.5,0.2c3.3,2.1,3.8,2.2,4.6,2.2
		c3.7,0,5.8-6.2,5.8-12.4c0-3.8-1.2-4.2-2.6-4.2c-0.9,0-1.8,0.1-3,0.6c-1.7,4.1-8.7,18.4-9,19c-0.4,0.8-1.4,1.3-2,1.3
		c-1.3,0-1.4-2-1.4-2c0-0.3,0.2-0.8,0.4-1c2.7-2.9,6.9-10.2,9.5-16.7c-1.2,0.4-3.2,1.2-3.7,1.4c-1,0.6-1.4,0.6-1.8,0.6
		c-1.1,0-4.2-1.2-4.2-3.3c0-0.4,0.2-0.6,0.4-0.6s0.5,0.1,0.7,0.3c0.4,0.3,1.2,0.6,1.6,0.7c0.5,0.2,1,0.3,1.5,0.3
		c0.6,0,4.4-1,6.2-1.5c0.1-0.3,1.6-4.4,1.6-5.8c0-1-0.7-1.5-1.7-1.6c-0.3,0-0.5-0.3-0.5-0.5s0.1-0.8,1.6-0.8c1.6,0,3.8,1.4,3.8,2.4
		c0,0.2-0.1,0.4-0.2,0.7c-0.2,0.4-0.5,0.6-0.6,1.1c-0.5,1.3-1,2.6-1.4,3.9c0.9-0.2,1.8-0.2,2.5-0.2c2.4,0,4.7,1.5,4.7,6.7
		c0,6.8-3.2,14.8-8.8,14.8c-0.6,0-1.1-0.1-1.3-0.8C422.2,156.1,422.2,156.1,419.3,153.9z M443.4,149.6c-0.7-0.8-1.3-1.3-2.2-1.3
		c-1.5,0-2.5,0.1-3.8,0.2c0,0-0.1,0-0.1,0c-0.6,0-0.8-0.3-0.8-0.7c0-0.3,0.2-0.6,0.7-0.6c5.6-0.8,5.6-1,5.6-1.5c0-2.5-3.7-6.8-7-7.2
		c-0.4-0.1-0.6-0.3-0.6-0.6c0-0.4,0.3-0.7,0.8-0.7c3.9,0,9.9,5.2,9.9,10.6c0,2.3-1.4,2.3-1.6,2.3C444,150.1,443.6,149.9,443.4,149.6
		z M442.2,137.2c-1.7-1.9-3.9-2.8-5.7-3.4c-0.3-0.1-0.4-0.3-0.4-0.5c0-0.3,0.3-0.6,0.8-0.6c0.4,0,7.1,0.6,7.1,4
		c0,0.6-0.3,1.2-0.7,1.2C443,137.8,442.6,137.6,442.2,137.2z M444.9,134.1c-1.8-1.8-4-2.6-5.8-3.2c-0.4-0.1-0.6-0.3-0.6-0.5
		c0-0.3,0.4-0.6,0.9-0.6c0.1,0,0.2,0,0.3,0c2.2,0,7,0.9,7,3.8c0,0.6-0.3,1.1-0.8,1.1C445.7,134.6,445.3,134.5,444.9,134.1z"/>
	<path class="st0" d="M457.3,140.6c0-0.4,0.2-0.5,0.4-0.5c0.3,0,0.6,0.2,1,0.4c0.8,0.6,2,0.9,3,0.9c0.6,0,1.2-0.1,1.7-0.4
		c5.2-2.9,9.6-5.4,15.9-5.4c2.2,0,10.6,1.2,10.6,8.8c0,9-12.5,12.4-21.6,12.4c-0.2,0-0.4,0-0.6,0c-0.6,0-1.1-0.2-1.3-0.5
		c0-0.1,0-0.2,0-0.2c0-0.3,0.3-0.6,0.8-0.6c10.7-0.7,19.9-5.2,19.9-11.4c0-4.2-3.5-6.8-8.3-6.8c-5,0-8.8,2.5-13,5.7
		c-0.9,0.7-1.6,1.5-2.8,1.6C460.6,144.5,457.3,142.7,457.3,140.6z"/>
	<path class="st0" d="M515.6,135.2c-2,3.9-4.8,9-7.2,15.2c-0.4,1-1.6,1.4-2.2,1.4c-0.8,0-1.1-0.7-1.1-1.5c0,0,0-0.1,0-0.1
		c0-0.4,0-0.9,0.3-1.2c1.2-1.1,4.8-6.7,7.8-13c-0.4,0.1-4.2,1.2-5.3,1.2c-0.9,0-4.2-1.2-4.2-3.1c0-0.4,0.2-0.5,0.5-0.5
		c0.2,0,0.4,0,0.6,0.2c1.3,0.6,2.4,1,4,1c1.6,0,4.9-0.9,5.1-1c0.2-0.7,0.4-1.3,0.6-1.9c0.1-0.4,0.2-0.7,0.2-1c0-0.2,0-0.4-0.1-0.6
		c-0.6-1.3-2.6-0.2-2.6-1.2c0-0.5,0.8-0.8,0.8-0.8c0.4-0.1,0.9-0.2,1.4-0.2c0.8,0,3.6,0.5,3.6,2c0,0.2-0.1,0.5-0.2,0.7
		c-0.1,0.2-0.2,0.4-0.4,0.6c0,0.1-0.2,0.4-0.4,1l-0.2,0.6c0.3-0.1,0.4-0.3,0.8-0.5c0.4-0.3,0.9-0.4,1.5-0.4c1.2,0,1.9,0.3,1.9,1
		c0,0.5-0.4,1-0.9,1.1c-1.7,0.4-3,0.8-3.7,1L515.6,135.2z M523.8,152.6c2.2,0.8,5.9,2.8,6.8,4.3c0.2,0.4,0.3,0.8,0.3,1.3
		c0,0.2,0,1.6-1,1.6c-0.4,0-0.7-0.3-0.9-0.6c-1.1-1.7-3.3-3.3-5.4-4.4c-0.8,3.3-4.6,5.3-6.8,5.3c-2,0-6.5-1.4-6.5-4.4
		c0-3.2,5-4,7.7-4c1.4,0,2.3,0.2,3.4,0.4v-0.1c-0.1-2-0.2-4.1-0.2-5.4c0-4,2.3-6,5.1-8.2c0.2-0.1,0.3-0.3,0.3-0.4
		c0-0.4-0.7-0.7-2.4-0.7c-0.5,0-1.1,0-1.5,0.1c-0.1,0-0.2,0-0.3,0c-0.5,0-0.7-0.2-0.7-0.5c0-0.5,0.6-1,3.7-1c5.1,0,7.2,2.2,7.2,3.2
		c0,0.5-0.4,0.9-1.2,0.9c-0.4,0-0.9-0.1-1.2-0.2c-0.3-0.1-0.6-0.1-1-0.1c-3.8,0-6.1,3.4-6.1,5.7c0,0.3,0,0.6,0,1
		c0.2,2.2,0.4,4.1,0.6,6.3L523.8,152.6z M517.7,153.3c-3.1,0-5.7,0.8-5.7,2.3c0,1.7,4.3,2.2,4.8,2.2c2.2,0,4.1-1.8,4.6-3.9
		C520.2,153.6,518.8,153.3,517.7,153.3z"/>
	<path class="st0" d="M562.5,161.5c-0.4,0-0.8-0.4-1.2-1.5c-1-3-2.6-5.9-10.2-13.4c-0.8-0.8-1.4-1.7-1.4-2.8
		c0.1-1.6,0.6-3.1,6.2-7.8c1.7-1.4,4-3.6,4-4.8c0-0.8-0.7-1.5-1.3-2c-0.2-0.2-0.5-0.5-0.5-0.8s0.3-0.4,0.7-0.4
		c1.6,0,4.4,2.3,4.4,4.2c0,0.3-0.1,0.6-0.2,0.8c-0.4,0.6-3.1,2.8-5.9,4.8c-1.9,1.4-5.6,4.1-5.6,5.8c0,0,0,0.1,0,0.2
		c0.1,0.6,0.4,1.2,1.1,1.8c8,7.2,11.4,11,11.4,13.4c0,0.4,0,0.8-0.2,1.2C563.8,160.3,563.2,161.5,562.5,161.5z M567.8,142.6
		c-1.3-2.3-3.3-3.7-4.9-4.8c-0.2-0.2-0.3-0.3-0.3-0.4c0-0.4,0.4-0.6,0.9-0.6c0.2,0,6.3,1.8,6.3,5.2c0,0.8-0.3,1.4-0.9,1.4
		C568.5,143.5,568.2,143.3,567.8,142.6z M571.6,140c-1.4-2.2-3.5-3.6-5.2-4.5c-0.3-0.2-0.4-0.4-0.4-0.5c0-0.3,0.4-0.6,0.9-0.6
		c1.2,0,6.6,1.8,6.6,5c0,1-0.6,1.4-0.8,1.4C572.3,140.8,571.9,140.6,571.6,140z"/>
</g>
<g>
	<path class="st0" d="M190.2,59.9v0.7h-6.8v-0.7c1.9-0.1,2.1-0.7,2.1-2.6v-7.8l-1.2-0.9v-0.5l3.1-1.7l0.6,0.3v1.4
		c1.6-1,3.1-1.5,4.7-1.5c3.4,0,4.9,1.6,4.9,5.1v5.5c0,1.9,0.2,2.5,2.1,2.6v0.7h-6.8v-0.7c1.9-0.1,2.1-0.7,2.1-2.6v-4.4
		c0-3.3-0.8-4.9-3.3-4.9c-1.3,0-2.5,0.5-3.5,1.5v7.8C188.1,59.2,188.2,59.8,190.2,59.9z"/>
	<path class="st0" d="M212.1,60.7c-2.2,0-3.5-1-3.5-2.8c0-2.5,2.6-3.5,8-4.7v-2.4c0-2.3-0.3-3.3-2.2-3.3c-1.1,0-2,0.4-2.4,1.2
		c-0.5,0.9-0.4,2.3-1.8,2.3c-0.6,0-0.9-0.3-0.9-1c0-1.3,2.7-3.5,6-3.5c1.5,0,2.7,0.5,3.3,1.5c0.5,0.6,0.5,1.5,0.5,2.5
		c0,0.4,0,0.8,0,1.2v5.9c0,1.1,0.1,1.6,0.9,1.6c0.4,0,0.8-0.1,1.1-0.4l0.3,0.5c-0.9,0.9-1.9,1.4-2.8,1.4c-1,0-1.6-0.6-2-2
		C215.1,60.1,213.6,60.7,212.1,60.7z M216.6,54c-3.7,0.9-5.3,1.4-5.3,3.4c0,1.2,0.8,2.1,2,2.1c0.8,0,1.9-0.4,3.3-1.2V54z"/>
	<path class="st0" d="M229.5,48.1v-0.6l3.5-3.6h0.5v3.1h4.4v1.1h-4.4v7.8c0,2.6,0.4,3.6,2.7,3.6c0.5,0,1.1-0.1,1.9-0.4l0.2,0.6
		c-0.7,0.6-2,1-3.6,1c-3.1,0-3.8-1.6-3.8-5.3v-7.4H229.5z"/>
	<path class="st0" d="M255.9,47.7v-0.7l4.7-0.2v9.8c0,1.9,0.1,2.5,1,2.5c0.3,0,0.6-0.1,1-0.2v0.9l-4.5,1v-1.4
		c-1.6,1-3.1,1.5-4.7,1.5c-3.4,0-4.8-1.6-4.8-5.1v-5.4c0-1.9-0.2-2.5-2.1-2.6v-0.7l4.7-0.2v7.9c0,3.3,0.7,4.9,3.3,4.9
		c1.3,0,2.5-0.5,3.5-1.5v-7.7C258,48.4,257.8,47.8,255.9,47.7z"/>
	<path class="st0" d="M280.8,46.7c1,0,1.6,0.5,1.6,1.3c0,0.8-0.6,1.3-1.6,1.3c-0.6,0-1.2-0.1-1.9-0.1c-1.9,0-2.3,0.7-2.3,2.7v5.4
		c0,1.9,0.2,2.5,2.1,2.6v0.7H272v-0.7c1.9-0.1,2.1-0.7,2.1-2.6v-7.8l-1.2-0.9v-0.5l3-1.7l0.6,0.3v2.6
		C278,47.6,279.5,46.7,280.8,46.7z"/>
	<path class="st0" d="M296.7,60.8c-3.8,0-6.5-2.9-6.5-7.2c0-3.9,3-6.9,6.9-6.9c2.9,0,5,1.8,5.2,4.7h-9.4c-0.1,0.7-0.2,1.4-0.2,2.1
		c0,3.3,2.2,5.8,5.1,5.8c1.4,0,2.6-0.6,4-1.5l0.5,0.5C300.8,60,298.9,60.8,296.7,60.8z M299.7,50.6c-0.1-2.1-1.1-3.1-3-3.1
		c-1.7,0-2.9,1.1-3.5,3.1H299.7z"/>
	<path class="st0" d="M333.4,59.9v0.7h-6.8v-0.7c1.9-0.1,2.1-0.7,2.1-2.6v-7.8l-1.2-0.9v-0.5l3-1.7l0.6,0.3v1.4
		c1.6-1,3.2-1.5,4.7-1.5c1.9,0,3.2,0.7,3.9,1.9c1.8-1.3,3.5-1.9,5.2-1.9c3.1,0,4.7,1.7,4.7,5.1v5.5c0,1.9,0.2,2.5,2.1,2.6v0.7H345
		v-0.7c1.9-0.1,2.1-0.7,2.1-2.6v-4.4c0-3.3-0.8-4.9-3.2-4.9c-1.2,0-2.4,0.5-3.4,1.5v7.8c0,1.9,0.2,2.5,2.1,2.6v0.7h-6.8v-0.7
		c1.9-0.1,2.1-0.7,2.1-2.6v-4.4c0-3.3-0.8-4.9-3.2-4.9c-1.2,0-2.4,0.5-3.4,1.5v7.8C331.3,59.2,331.5,59.8,333.4,59.9z"/>
	<path class="st0" d="M367.8,59.9v0.7H361v-0.7c1.9-0.1,2.1-0.7,2.1-2.6v-7.8l-1.8-1V48l3.8-1.5l0.6,0.3v10.5
		C365.7,59.2,365.9,59.8,367.8,59.9z M364.4,38.1c0.8,0,1.5,0.7,1.5,1.5c0,0.9-0.7,1.6-1.5,1.6c-0.8,0-1.6-0.7-1.6-1.6
		C362.9,38.8,363.6,38.1,364.4,38.1z"/>
	<path class="st0" d="M383.8,59.9v0.7H377v-0.7c1.9-0.1,2.1-0.7,2.1-2.6v-7.8l-1.2-0.9v-0.5l3-1.7l0.6,0.3v1.4
		c1.6-1,3.1-1.5,4.7-1.5c3.4,0,4.9,1.6,4.9,5.1v5.5c0,1.9,0.2,2.5,2.1,2.6v0.7h-6.8v-0.7c1.9-0.1,2.1-0.7,2.1-2.6v-4.4
		c0-3.3-0.8-4.9-3.3-4.9c-1.3,0-2.5,0.5-3.5,1.5v7.8C381.7,59.2,381.9,59.8,383.8,59.9z"/>
	<path class="st0" d="M410.5,39v-0.7l4.4-1.2v20.3c0,1.1,0,1.7,0.8,1.7c0.1,0,0.4,0,0.9-0.1v0.7l-4.3,0.8v-1.6
		c-1.5,1.2-3,1.8-4.5,1.8c-3.6,0-6.2-2.6-6.2-6.8c0-4.2,3.1-7.5,7.1-7.5c1.3,0,2.5,0.3,3.6,1.1v-7.9L410.5,39z M412.4,49.6
		c-0.9-1.5-2.2-2.2-3.8-2.2c-2.7,0-4.4,2.1-4.4,5.9c0,4.1,1.9,6.4,4.6,6.4c1.3,0,2.4-0.6,3.6-1.7L412.4,49.6L412.4,49.6z"/>
</g>
</svg>
