<?xml version="1.0" encoding="utf-8"?>
<!-- Generator: Adobe Illustrator 25.4.1, SVG Export Plug-In . SVG Version: 6.00 Build 0)  -->
<svg version="1.1" id="レイヤー_1" xmlns="http://www.w3.org/2000/svg" xmlns:xlink="http://www.w3.org/1999/xlink" x="0px"
	 y="0px" viewBox="0 0 600 200" style="enable-background:new 0 0 600 200;" xml:space="preserve">
<style type="text/css">
	.st0{fill:#FFFFFF;}
</style>
<g>
	<path class="st0" d="M36.5,159.9c-1.8,0-10,0.1-12,0.4c-0.4-0.4-1-1.6-1-2.3c0,0,0,0,0-0.1c2.2,0.3,11,0.5,14.1,0.5h3v-16.2h-3.4
		c-1.4,0-8.2,0.1-10.1,0.4c-0.4-0.4-1-1.7-1-2.4c2.2,0.3,9.8,0.5,12.3,0.5h2.2v-7.3c0-1,0-4-0.3-6c3.4,0.1,4.3,0.4,4.3,1.2
		c0,0.5-0.5,0.9-1.4,1.2v10.9h9.4c0.2-0.4,1-1.4,1.7-2.2c0.1-0.1,0.2-0.2,0.3-0.2c0.1,0,0.2,0.1,0.4,0.1c0.7,0.4,3.2,2.1,3.2,2.8
		c0,0.4-0.3,0.9-1,0.9h-14v16.2h11.7c0-0.1,1.7-2.4,2.1-2.4c0.1,0,0.2,0,0.3,0.1c0.7,0.4,3.3,2.1,3.3,2.9c0,0.4-0.3,0.9-1,0.9
		L36.5,159.9L36.5,159.9z"/>
	<path class="st0" d="M80.4,144.6c0.2,0,0.5,0.2,0.5,0.6c0,0.2,0,0.4-0.1,0.6c-0.8,2-2.2,5-3,7.9c-0.2,0.7-0.3,1.4-0.3,2
		c0,0.2,0,0.4,0,0.6c0,0.4,0.2,0.9,0.2,1.4c0,0.8-0.4,1.2-1,1.2c-1,0-2.9-2.1-2.9-8.8c0-2.3,0.5-5.6,1.1-8c1.3-5.6,1.4-6.8,1.4-7.8
		c0-1.3-0.3-2.5-1.4-3.8c-0.1-0.1-0.1-0.2-0.1-0.3c0-0.3,0.3-0.4,0.6-0.4c1.2,0,3.8,2.8,3.8,4.8c0,0.8-0.6,2-0.9,2.7
		c-1.8,5.3-2.6,8.8-2.6,12.8c0,1.3,0.1,2.4,0.3,3.2C79.4,145.4,79.8,144.6,80.4,144.6z M94.1,147.6c0-2.4,0-5.4,0-8.4
		c-1.2,0.2-2.4,0.4-3.6,0.6c-1,0.1-1.9,0.3-2.8,0.3c-4,0-5-3.1-5-3.7c0-0.3,0.1-0.6,0.4-0.6c0.2,0,0.5,0.1,0.8,0.4
		c1.8,1.4,3.8,1.8,5.4,1.8c0.4,0,1.2,0,4.8-0.6c0-1.5-0.1-3-0.1-4.4s-0.8-2-2.2-2c-0.4,0-0.6-0.3-0.6-0.6c0-0.6,1-0.9,1.9-0.9
		c0.1,0,3.8,0.3,3.8,1.9c0,0.3-0.1,0.6-0.2,1c-0.1,0.3-0.2,0.6-0.2,0.9c0,1.2-0.1,2.4-0.1,3.8c2.1-0.5,2.1-0.5,3.2-1.1
		c0.5-0.2,0.9-0.3,1.4-0.3c0.8,0,2.2,0.5,2.2,1.6c0,0.7-0.3,1.2-2.1,1.2c-1,0-3.6,0.3-4.6,0.5c0,1.2,0,2.4,0,3.6
		c0,1.7,0,3.3,0.1,4.8c0,1.4,0.1,2.8,0.1,3.9c3.7,1.3,6.5,3.4,7,4.2c0.3,0.4,0.4,0.9,0.4,1.4c0,0.6-0.3,1.3-1,1.3
		c-0.4,0-0.7-0.2-1-0.6c-1.1-1.5-2.9-3-5.4-4.2c-0.4,4.2-4.5,5.4-6.8,5.4c-2.7,0-6-2.1-6-4.6s3.5-3.8,7.2-3.8c0.7,0,2.1,0,3.3,0.3
		C94,150.6,94,147.6,94.1,147.6z M85.2,154c0,1.5,2.6,2.5,4.3,2.5c2.5,0,4.4-1.4,4.6-4c-1.9-0.5-3.2-0.6-4-0.6
		C86.4,151.9,85.2,153,85.2,154C85.2,154,85.2,154,85.2,154z"/>
	<path class="st0" d="M148.2,161.3c-0.6,0-13.7-6.8-15.5-27.4c-0.8,14.3-7,23.2-17.4,28.4c0,0-0.1,0-0.2,0c-0.6,0-0.8-0.6-0.8-1
		c0-0.2,0-0.3,0.1-0.3c10.6-6.5,15.9-15.7,15.9-30.1c0-1.3-0.1-2.8-0.4-3.9c3.7,0,5.3,0.4,5.3,1.2c0,0.1-0.1,0.8-1.5,1.2
		c0.3,13.9,7.4,26.1,17.4,29.4c0.2,0.1,0.3,0.2,0.3,0.4c0,0.4-0.3,0.8-0.4,0.9c-0.8,0.1-1.6,0.3-2.3,1
		C148.5,161.1,148.4,161.3,148.2,161.3z"/>
	<path class="st0" d="M190.3,141.4c0,1.1-1.1,1.1-1.9,1.2c-1.5,0.2-7.6,2.7-11.2,4.6c0,0.2,0,0.4,0,0.7c0,6.2-0.8,6.4-1.6,6.4
		c-0.7,0-1.2-1.1-1.2-2c0-0.4,0.1-0.8,0.4-1.8c0-0.7,0.1-1.4,0.1-2.1c-3.2,1.9-5.8,4.1-5.8,6.3c0,2.9,4.5,3.7,7.4,3.7
		c2.4,0,3.2-0.3,4.9-1c0.2-0.1,0.4-0.2,0.6-0.2c0.2,0,0.5,0,0.7,0c2.4,0,2.4,1.1,2.4,1.3c0,0.6-0.2,1.2-1.5,1.6
		c-0.8,0.2-3.4,0.9-6.9,0.9c-3.6,0-9.5-1.6-9.5-5.6c0-3.1,3.6-6.2,7.7-8.8v-0.9c-0.1-1.9-0.8-3.5-2.6-3.5c-3,0-6.3,4.2-7.3,6.2
		c-0.2,0.4-0.9,0.8-1.5,0.8c-1.1,0-1.1-1.7-1.1-1.8c0-0.2,0-0.7,0.9-1.6c1.9-1.5,5.1-5.7,7.4-9.4c-1.8,0.3-3.4,0.5-4.2,0.5
		c-2.6,0-4.9-1.2-4.9-3.3c0-0.6,0.2-0.9,0.5-0.9c0.2,0,0.5,0.2,0.8,0.5c1.1,1.2,2.7,1.8,4.1,1.8c0.7,0,2.7-0.2,4.7-0.6
		c0.7-1.7,1-3.2,1-3.6c0-1-1.2-1.2-2.5-1.4c-0.2-0.1-0.4-0.2-0.4-0.5c0-0.8,1.6-0.8,1.8-0.8c1.8,0,3.7,1.2,3.7,2.2
		c0,0.2,0,0.4-0.2,0.7c0,0.1-0.4,0.9-0.5,1.2c-0.2,0.6-0.5,1.2-0.8,1.8c1.3-0.3,2.4-0.6,2.8-0.8c0.9-0.6,1.2-0.9,3-0.9
		c1.4,0,1.6,0.6,1.6,1c0,0.9-0.1,1.2-8.5,2.8c-1.3,2.4-2.8,4.6-4.4,6.7c1.2-1,2.6-1.9,4.6-1.9c2.4,0,3.8,2.2,4.2,3.8
		c0,0.2,0,0.5,0.1,0.8c3-1.7,6-3.1,8.6-4.4c0.4-0.2,0.7-0.3,0.9-0.4c0.2-0.1,0.3-0.2,0.2-0.2c-0.3-1-3.1-0.4-3.1-1.4
		c0-0.1,0-0.1,0-0.2c0.1-0.4,0.5-0.5,0.9-0.5C185.9,138.3,190.3,138.5,190.3,141.4L190.3,141.4L190.3,141.4z"/>
	<path class="st0" d="M205.9,140c-1.3-1.8-2.4-2.8-4.3-3.9c-0.2-0.1-0.3-0.3-0.3-0.4c0-0.2,0.1-0.3,0.2-0.4c0.1-0.2,0.4-0.4,0.6-0.4
		c0.3,0,4.6,1.4,5.6,3c0.4,0.5,0.5,1.1,0.5,1.6c0,0.8-0.4,1.4-1,1.4C206.8,141,206.3,140.7,205.9,140z M208,149.1
		c-0.6,1.7-0.7,2.6-0.7,3.6c0,1.7,0.4,3.4,0.6,5c0,0.3,0.1,0.8,0.1,1.2c0,0.3,0,2.8-1.8,2.8c-0.8,0-1.3-0.9-1.3-1.9
		c0-0.2,0-0.3,0-0.4c0.2-1,0.4-3.3,0.4-5.2c0-2.1-0.3-4-3.5-4.2c-0.4,0-0.5-0.4-0.5-0.7c0-0.4,0.2-0.8,0.6-0.8c0,0,0,0,0.1,0
		c0.8,0.1,1.8,0.2,2.6,0.2c0.6,0,1-0.3,1.2-0.7c1-1.8,3.6-7.9,6.2-15.3c0.1-0.2,0.3-0.3,0.5-0.3c0.4,0,0.9,0.4,0.9,0.8
		c0,0.2-0.5,1.8-4.7,13.3C208.7,147.2,208.3,148.1,208,149.1z M208.9,132.1c-1.2-2-2.3-3.1-4.2-4.2c-0.2-0.1-0.2-0.2-0.2-0.4
		c0-0.4,0.4-0.7,0.8-0.7c0.5,0,5,2.1,5.7,3.6c0.2,0.4,0.3,0.9,0.3,1.3c0,0.9-0.4,1.6-1,1.6C209.9,133.2,209.4,132.9,208.9,132.1z
		 M231.7,158.9h-13.3v0.9c0,0.2,0,0.9,0,1.1c0,0.5-0.3,1.2-1.6,1.2c-0.6,0-1-0.2-1-1c0,0,0-0.1,0-0.2s0.1-0.7,0.1-1.4
		c0.1-1.4,0.2-2.6,0.2-3.6v-5.1c0-1.6-0.2-3.2-0.4-5c0.9,0.2,2,0.8,3,1.4h5v-7.8H221c-2,0-5.5,0-7.7,0.3c-0.5-0.2-0.8-1.5-0.8-2
		c1.9,0.2,5.8,0.3,9.6,0.3h1.6v-7c-2.7,0.5-9.1,1.5-9.6,1.5c-0.4,0-0.6-0.4-0.6-0.8c0-0.3,0.2-0.5,0.3-0.6
		c6.8-0.8,16.9-3.4,18.3-5.1c1,0.6,2.6,1.6,2.6,2.5c0,0.6-0.8,0.6-1,0.6c-0.4,0-0.9-0.1-1.2-0.2c-1.9,0.6-4.2,1.2-6.5,1.7v7.4h7.5
		c1.2-1.8,1.6-2.2,1.9-2.2c0.1,0,0.2,0,0.3,0.1c0,0,3.2,1.9,3.2,2.8c0,0.4-0.2,0.7-0.8,0.7h-12v7.8h5.4c0.4-0.5,1-1.1,1.2-1.1
		c0.1,0,0.2,0,0.2,0c0.9,0.4,2.3,1.7,2.3,2.2c0,0.3-0.2,0.7-1.2,0.9v7.5c0,0.5,0.1,2.5,0.1,2.9c0,0.4,0.1,1.2,0.1,1.3
		c0,0.3-0.3,1.1-1.7,1.1c-0.8,0-1-0.4-1-0.9c0-0.2,0-1.7,0-2.1L231.7,158.9L231.7,158.9z M231.7,157.4v-8.7h-13.3v8.8L231.7,157.4
		L231.7,157.4L231.7,157.4z"/>
	<path class="st0" d="M258.6,153.9c-0.2-0.2-0.3-0.4-0.3-0.6c0-0.3,0.2-0.6,0.6-0.6c0.1,0,0.3,0,0.5,0.2c3.3,2.1,3.8,2.2,4.6,2.2
		c3.7,0,5.8-6.2,5.8-12.4c0-3.8-1.2-4.2-2.6-4.2c-0.9,0-1.8,0.1-3,0.6c-1.7,4.1-8.7,18.4-9,19c-0.4,0.8-1.4,1.3-2,1.3
		c-1.3,0-1.4-2-1.4-2c0-0.3,0.2-0.8,0.4-1c2.7-2.9,6.9-10.2,9.5-16.7c-1.2,0.4-3.2,1.2-3.7,1.4c-1,0.6-1.4,0.6-1.8,0.6
		c-1.1,0-4.2-1.2-4.2-3.3c0-0.4,0.2-0.6,0.4-0.6s0.5,0.1,0.7,0.3c0.4,0.3,1.2,0.6,1.6,0.7c0.5,0.2,1,0.3,1.5,0.3
		c0.6,0,4.4-1,6.2-1.5c0.1-0.3,1.6-4.4,1.6-5.8c0-1-0.7-1.5-1.7-1.6c-0.3,0-0.5-0.3-0.5-0.5s0.1-0.8,1.6-0.8c1.6,0,3.8,1.4,3.8,2.4
		c0,0.2-0.1,0.4-0.2,0.7c-0.2,0.4-0.5,0.6-0.6,1.1c-0.5,1.3-1,2.6-1.4,3.9c0.9-0.2,1.8-0.2,2.5-0.2c2.4,0,4.7,1.5,4.7,6.7
		c0,6.8-3.2,14.8-8.8,14.8c-0.6,0-1.1-0.1-1.3-0.8C261.5,156.1,261.4,156.1,258.6,153.9z M282.6,149.6c-0.7-0.8-1.3-1.3-2.2-1.3
		c-1.5,0-2.5,0.1-3.8,0.2c0,0-0.1,0-0.1,0c-0.6,0-0.8-0.3-0.8-0.7c0-0.3,0.2-0.6,0.7-0.6c5.6-0.8,5.6-1,5.6-1.5c0-2.5-3.7-6.8-7-7.2
		c-0.4-0.1-0.6-0.3-0.6-0.6c0-0.4,0.3-0.7,0.8-0.7c3.9,0,9.9,5.2,9.9,10.6c0,2.3-1.4,2.3-1.6,2.3
		C283.3,150.1,282.9,149.9,282.6,149.6z"/>
	<path class="st0" d="M309.9,159.8c-6.3,0-8.2-4.3-8.2-10.5c0-1.4,0.1-3,0.2-4.7c0.2-3.2,0.5-6.7,0.7-9.7c0-0.2,0-0.3,0-0.5
		c0-1.6-0.8-2.8-2.5-3.4c-0.4-0.1-0.5-0.4-0.5-0.6c0-0.4,0.4-0.8,1.1-0.8c2.4,0,5.2,2.7,5.2,4.3c0,0.3,0,0.6-0.1,0.9
		c-0.2,0.8-0.5,1.7-0.6,2.7c-0.7,3.7-1.2,9.1-1.2,12.5c0,6.5,2.4,7,5.8,7c7,0,13.4-6,14.4-7c0.2-0.2,0.5-0.3,0.8-0.3
		c0.4,0,0.6,0.2,0.6,0.6C325.4,151.3,318.1,159.8,309.9,159.8z"/>
	<path class="st0" d="M347.5,161.1c-1.8-3.2-4.4-5.6-7.3-7.2c-0.2-0.1-0.3-0.2-0.3-0.4c0-0.4,0.4-0.8,0.9-0.8c1.6,0,8.4,3.6,9.6,5.6
		c0.4,0.7,0.6,1.5,0.6,2.2c0,1.5-0.6,2.4-1.5,2.4C348.9,162.8,348.1,162.3,347.5,161.1z"/>
	<path class="st0" d="M387.6,143.3c3.6,5.8,10,11.1,16.9,12.9c0.3,0.1,0.4,0.3,0.4,0.6c0,0.4-0.2,0.8-0.5,0.8c-0.4,0-1.3,0.2-2.2,1
		c-0.2,0.2-0.3,0.2-0.5,0.2c-0.7,0-9.1-4.6-14.6-13.7v4.6c0,1.1,0,6.9,0.1,10.3c0,0.4,0,0.6,0,1.1c0,0.8-0.6,1.2-1.8,1.2
		c-0.6,0-1-0.3-1-0.9c0,0,0,0,0-0.1c0,0,0-0.7,0.1-1.6c0.2-3.1,0.2-7.6,0.2-8.8l0.3-5.1c-1.2,2-2.7,4-4.4,5.8
		c-5.8,5.7-12.3,8.5-12.5,8.5c-0.4,0-0.7-0.4-0.7-0.8c0-0.2,0.1-0.4,0.3-0.5c5.7-3.2,12.2-8.3,16.4-15.4h-3.8
		c-1.6,0-8.6,0.1-10.5,0.3c-0.4-0.4-0.8-1.5-0.8-2.2c0,0,0-0.1,0-0.1c2.1,0.2,9.5,0.5,12.3,0.5h3.5v-6.3h-3.6c-1.6,0-7,0.1-8.8,0.3
		c-0.4-0.4-0.8-1.5-0.8-2.2c0,0,0-0.1,0-0.1c2.1,0.2,7.8,0.5,10.6,0.5h2.6v-0.5c0-3.6-0.1-5.2-0.4-7.2c1.6,0.1,3.1,0.2,3.2,0.2
		c0.4,0.1,1,0.3,1,0.9s-0.6,0.9-1.4,1.1v5.5h9c1.5-2,1.7-2.2,2-2.2c0.4,0,3.4,2,3.4,2.8c0,0.4-0.4,0.9-1,0.9h-13.4v6.3h11.4
		c0.2-0.4,0.9-1.4,1.7-2.1c0.1-0.1,0.2-0.2,0.4-0.2c0.5,0,3.4,2.1,3.4,2.8c0,0.4-0.4,0.9-1,0.9L387.6,143.3L387.6,143.3z"/>
	<path class="st0" d="M435.6,144.9c4,5.5,11.1,10.4,17.2,11.8c0.2,0,0.3,0.2,0.3,0.4c0,0.3-0.2,0.7-0.4,0.8c-0.4,0-1.4,0.3-2,1.2
		c-0.1,0.2-0.3,0.2-0.4,0.2c-0.2,0-8.7-3.4-15.2-12.8v2.7c0,1.1,0,7.6,0.1,11c0,0.4,0,0.6,0,1.1c0,0.8-0.8,1.1-1.3,1.1
		c-0.7,0-1.4,0-1.4-1c0,0,0,0,0-0.1c0,0,0-0.6,0.1-1.5c0.2-3.1,0.2-5.7,0.2-6.8l0.2-5.6c-6.1,9.2-16.5,13.2-16.8,13.2
		c-0.4,0-0.8-0.4-0.8-0.8c0-0.2,0.1-0.4,0.3-0.4c5.4-2.7,12.1-7.6,16.4-14.5h-4.5c-1.6,0-7.7,0.1-9.6,0.3c-0.4-0.4-0.8-1.4-0.8-2
		c0,0,0-0.1,0-0.1c2.1,0.2,8.6,0.4,11.3,0.4h4.3v-9.2h-4.1c-1.6,0-6.9,0.1-8.8,0.3c-0.4-0.4-0.8-1.4-0.8-2.2
		c2.1,0.2,7.7,0.4,10.6,0.4h3.1c0-3.1-0.1-4.6-0.4-6.6c0.9,0.1,1.4,0.1,1.9,0.1c1.5,0.1,2.2,0.2,2.2,1c0,0.6-0.6,0.9-1.4,1.1v4.4
		h9.6c1.5-1.8,1.7-2.1,2-2.1c0.2,0,3.4,1.9,3.4,2.7c0,0.4-0.3,0.8-1,0.8H435v9.2h2.7c1.2-2,2.6-4.4,3.7-7c0.2-0.5,0.3-1,0.4-2
		c3.1,0.9,3.4,1.5,3.4,1.8c0,0.8-1.2,0.8-1.4,0.8c-0.9,1.6-2.9,4.5-4.3,6.2h7c0.3-0.4,1-1.5,1.7-2c0.1-0.1,0.2-0.1,0.3-0.1
		c0.1,0,0.2,0,0.3,0.1c1,0.5,3,2.1,3,2.6c0,0.4-0.3,0.8-1,0.8L435.6,144.9L435.6,144.9z M426.8,141.9c-0.4-2.4-1.8-4.1-3.4-6
		c-0.1-0.1-0.1-0.2-0.1-0.3c0-0.3,0.3-0.6,0.6-0.6c0.6,0,5.1,3.8,5.1,6.2c0,1.8-1,2-1.3,2C427.2,143.1,426.9,142.7,426.8,141.9z"/>
	<path class="st0" d="M493.9,141.4c0,1.1-1.1,1.1-1.9,1.2c-1.5,0.2-7.6,2.7-11.2,4.6c0,0.2,0,0.4,0,0.7c0,6.2-0.8,6.4-1.6,6.4
		c-0.7,0-1.2-1.1-1.2-2c0-0.4,0.1-0.8,0.4-1.8c0-0.7,0.1-1.4,0.1-2.1c-3.2,1.9-5.8,4.1-5.8,6.3c0,2.9,4.5,3.7,7.4,3.7
		c2.4,0,3.2-0.3,4.9-1c0.2-0.1,0.4-0.2,0.6-0.2c0.2,0,0.5,0,0.7,0c2.4,0,2.4,1.1,2.4,1.3c0,0.6-0.2,1.2-1.5,1.6
		c-0.8,0.2-3.4,0.9-6.9,0.9c-3.6,0-9.5-1.6-9.5-5.6c0-3.1,3.6-6.2,7.7-8.8v-0.9c-0.1-1.9-0.8-3.5-2.6-3.5c-3,0-6.3,4.2-7.3,6.2
		c-0.2,0.4-0.9,0.8-1.5,0.8c-1.1,0-1.1-1.7-1.1-1.8c0-0.2,0-0.7,0.9-1.6c1.9-1.5,5.1-5.7,7.4-9.4c-1.8,0.3-3.4,0.5-4.2,0.5
		c-2.6,0-4.9-1.2-4.9-3.3c0-0.6,0.2-0.9,0.5-0.9c0.2,0,0.5,0.2,0.8,0.5c1.1,1.2,2.7,1.8,4.1,1.8c0.7,0,2.7-0.2,4.7-0.6
		c0.7-1.7,1-3.2,1-3.6c0-1-1.2-1.2-2.5-1.4c-0.2-0.1-0.4-0.2-0.4-0.5c0-0.8,1.6-0.8,1.8-0.8c1.8,0,3.7,1.2,3.7,2.2
		c0,0.2,0,0.4-0.2,0.7c0,0.1-0.4,0.9-0.5,1.2c-0.2,0.6-0.5,1.2-0.8,1.8c1.3-0.3,2.4-0.6,2.8-0.8c0.9-0.6,1.2-0.9,3-0.9
		c1.4,0,1.6,0.6,1.6,1c0,0.9-0.1,1.2-8.5,2.8c-1.3,2.4-2.8,4.6-4.4,6.7c1.2-1,2.6-1.9,4.6-1.9c2.4,0,3.8,2.2,4.2,3.8
		c0,0.2,0,0.5,0.1,0.8c3-1.7,6-3.1,8.6-4.4c0.4-0.2,0.7-0.3,0.9-0.4c0.2-0.1,0.3-0.2,0.2-0.2c-0.3-1-3.1-0.4-3.1-1.4
		c0-0.1,0-0.1,0-0.2c0.1-0.4,0.5-0.5,0.9-0.5C489.5,138.3,493.9,138.5,493.9,141.4L493.9,141.4L493.9,141.4z"/>
	<path class="st0" d="M512.7,132.9c-0.8,4.5-3.6,6.1-4.6,6.1c-0.8,0-1.1-0.6-1.1-1.2c0-0.6,0.4-1.4,0.9-1.7c2.4-1.3,3.5-4,3.6-6.6
		c0-0.3,0.3-0.4,0.7-0.4c0.4,0,0.8,0.2,0.8,0.5c0,0.6,0,1.2,0,1.8h11V130c0-1.8,0-2.5-0.3-4.2c2.5,0.1,4.2,0.3,4.2,1.1
		c0,0.5-0.7,0.9-1.5,1.1v3.5h12.8c0.9-1,1.2-1.1,1.3-1.1c0.2,0,3,1.6,3,2.8c0,0.3-0.2,0.8-1.3,0.8c-0.3,0-0.6,0-1-0.1
		c-1.6,1.8-3.6,3.6-4,3.6c-0.2,0-0.9-0.4-0.9-0.7c0,0,0-0.1,0.1-0.2c0.7-0.9,1.7-2.5,2.4-3.7H512.7z M530.9,142.3h-7.4
		c-1.7,0-13.5,0.1-15.5,0.3c-0.5-0.7-0.8-1.6-0.8-2.3c2.2,0.2,14.4,0.4,17.3,0.4h6.4c0-0.4-0.1-0.9-0.1-1.4c0-1.3-0.1-2.9-0.4-4.3
		c4,0.1,4.2,0.8,4.2,1.2c0,0.3-0.2,0.8-1.3,1.2v3.4h4.7c0.6-0.9,1.7-2.3,2-2.3c0.4,0,3.5,2.1,3.5,2.9c0,0.4-0.3,1-1,1h-9.2v11.1
		c0,0.6,0.1,4,0.1,4.6c0,0,0,0.1,0,0.1c0,2-3,4.3-4.6,4.3c-0.4,0-0.8-0.2-1-0.5c-0.3-0.6-0.9-1.2-5.2-1.8c-0.3,0-0.4-0.4-0.4-0.7
		c0-0.4,0.2-0.9,0.6-0.9h0c0.3,0,4,0.6,5.8,0.6c1.5,0,2.3-0.9,2.3-2.2L530.9,142.3z M520.7,153.1c-1.4-3-3.8-5.4-6.8-7.6
		c-0.1-0.1-0.2-0.2-0.2-0.3c0-0.3,0.4-0.7,0.8-0.7c0.6,0,8,4.4,8.7,7.4c0,0.2,0.1,0.5,0.1,0.7c0,1.9-1,1.9-1.2,1.9
		C521.6,154.4,521.1,153.9,520.7,153.1z"/>
	<path class="st0" d="M563,137.9c0.8-1.8,2.5-7.2,6.3-7.5c0.1,0,0.2,0,0.4,0c5.3,0,6.7,7.4,6.7,12.8c0,10.6-7,15.8-13.3,18.5
		c-0.1,0-0.3,0.1-0.4,0.1c-0.4,0-0.8-0.3-0.8-0.7c0-0.2,0.1-0.4,0.4-0.6c6.8-3.3,11.3-9.2,11.3-17.7c0-7.6-1.7-10.8-4.3-10.8
		c-3.4,0-6.5,6.8-6.5,12c0,0.4,0,0.8,0.1,1.1c0,0.3,0.1,0.6,0.2,0.9c0,0.2,0.2,1.2,0.2,1.3c0,0.2,0.1,0.5,0.1,0.8
		c0,1-0.5,1.5-1.4,1.5c-1.2,0-2-2.5-2-4.1c0-0.5,0.2-1,0.3-1.5c0-1,0.1-2.2,0.3-3.4c0.5-3.4,1.4-6.1,1.7-7.4
		c0.2-0.8,0.3-1.4,0.3-1.9c0-0.8-0.3-1.5-1.2-2.4c-0.2-0.2-0.3-0.4-0.3-0.5c0-0.3,0.4-0.5,0.8-0.5c0.8,0,3,1.7,3,3.4
		c0,0.6-0.1,1.4-1.3,4.8L563,137.9z"/>
</g>
<g>
	<path class="st0" d="M190.2,59.9v0.7h-6.8v-0.7c1.9-0.1,2.1-0.7,2.1-2.6v-7.8l-1.2-0.9v-0.5l3.1-1.7l0.6,0.3v1.4
		c1.6-1,3.1-1.5,4.7-1.5c3.4,0,4.9,1.6,4.9,5.2v5.5c0,1.9,0.2,2.5,2.1,2.6v0.7h-6.8v-0.7c1.9-0.1,2.1-0.7,2.1-2.6v-4.4
		c0-3.3-0.8-4.9-3.3-4.9c-1.3,0-2.5,0.5-3.5,1.5v7.8C188.1,59.2,188.2,59.9,190.2,59.9z"/>
	<path class="st0" d="M212.1,60.8c-2.2,0-3.5-1-3.5-2.8c0-2.5,2.6-3.5,8-4.7v-2.4c0-2.3-0.3-3.3-2.2-3.3c-1.1,0-2,0.4-2.4,1.2
		c-0.5,0.9-0.4,2.3-1.8,2.3c-0.6,0-0.9-0.3-0.9-0.9c0-1.3,2.7-3.5,6-3.5c1.5,0,2.7,0.5,3.3,1.5c0.5,0.6,0.5,1.5,0.5,2.5
		c0,0.4,0,0.8,0,1.2v5.9c0,1.1,0.1,1.6,0.9,1.6c0.4,0,0.8-0.1,1.1-0.4l0.3,0.5c-0.9,0.9-1.9,1.4-2.8,1.4c-1,0-1.6-0.6-2-2
		C215.1,60.1,213.6,60.8,212.1,60.8z M216.6,54c-3.7,0.9-5.3,1.4-5.3,3.4c0,1.2,0.8,2.1,2,2.1c0.8,0,1.9-0.4,3.3-1.2V54z"/>
	<path class="st0" d="M229.5,48.1v-0.6l3.5-3.6h0.5V47h4.4v1.1h-4.4v7.8c0,2.6,0.4,3.6,2.7,3.6c0.5,0,1.1-0.1,1.9-0.4l0.2,0.6
		c-0.7,0.6-2,1-3.6,1c-3.1,0-3.8-1.6-3.8-5.3v-7.5H229.5z"/>
	<path class="st0" d="M255.9,47.7V47l4.7-0.2v9.8c0,1.8,0.1,2.5,1,2.5c0.3,0,0.6-0.1,1-0.2v0.9l-4.5,1v-1.4c-1.6,1-3.1,1.5-4.7,1.5
		c-3.4,0-4.8-1.6-4.8-5.2v-5.4c0-1.9-0.2-2.5-2.1-2.6V47l4.7-0.2v7.9c0,3.3,0.7,4.9,3.3,4.9c1.3,0,2.5-0.5,3.5-1.5v-7.7
		C258,48.4,257.8,47.8,255.9,47.7z"/>
	<path class="st0" d="M280.8,46.8c1,0,1.6,0.5,1.6,1.3c0,0.8-0.6,1.3-1.6,1.3c-0.6,0-1.2-0.1-1.9-0.1c-1.9,0-2.3,0.7-2.3,2.7v5.4
		c0,1.9,0.2,2.5,2.1,2.6v0.7H272v-0.7c1.9-0.1,2.1-0.7,2.1-2.6v-7.8l-1.2-0.9v-0.5l3-1.7l0.6,0.3v2.6
		C278,47.7,279.5,46.8,280.8,46.8z"/>
	<path class="st0" d="M296.7,60.8c-3.8,0-6.5-2.9-6.5-7.2c0-3.9,3-6.9,6.9-6.9c2.9,0,5,1.8,5.2,4.7h-9.4c-0.1,0.7-0.2,1.4-0.2,2.1
		c0,3.3,2.2,5.8,5.1,5.8c1.4,0,2.6-0.6,4-1.5l0.5,0.5C300.8,60,298.9,60.8,296.7,60.8z M299.7,50.7c-0.1-2.1-1.1-3.1-3-3.1
		c-1.7,0-2.9,1.1-3.5,3.1H299.7z"/>
	<path class="st0" d="M333.4,59.9v0.7h-6.8v-0.7c1.9-0.1,2.1-0.7,2.1-2.6v-7.8l-1.2-0.9v-0.5l3-1.7l0.6,0.3v1.4
		c1.6-1,3.2-1.5,4.7-1.5c1.9,0,3.2,0.7,3.9,1.9c1.8-1.3,3.5-1.9,5.2-1.9c3.1,0,4.7,1.7,4.7,5.2v5.5c0,1.9,0.2,2.5,2.1,2.6v0.7H345
		v-0.7c1.9-0.1,2.1-0.7,2.1-2.6v-4.4c0-3.3-0.8-4.9-3.2-4.9c-1.2,0-2.4,0.5-3.4,1.5v7.8c0,1.9,0.2,2.5,2.1,2.6v0.7h-6.8v-0.7
		c1.9-0.1,2.1-0.7,2.1-2.6v-4.5c0-3.3-0.8-4.9-3.2-4.9c-1.2,0-2.4,0.5-3.4,1.5v7.8C331.3,59.2,331.5,59.9,333.4,59.9z"/>
	<path class="st0" d="M367.8,59.9v0.7H361v-0.7c1.9-0.1,2.1-0.7,2.1-2.6v-7.8l-1.8-1V48l3.8-1.5l0.6,0.3v10.5
		C365.7,59.2,365.9,59.9,367.8,59.9z M364.4,38.1c0.8,0,1.5,0.7,1.5,1.5c0,0.9-0.7,1.6-1.5,1.6c-0.8,0-1.6-0.7-1.6-1.6
		C362.9,38.9,363.6,38.1,364.4,38.1z"/>
	<path class="st0" d="M383.8,59.9v0.7H377v-0.7c1.9-0.1,2.1-0.7,2.1-2.6v-7.8l-1.2-0.9v-0.5l3-1.7l0.6,0.3v1.4
		c1.6-1,3.1-1.5,4.7-1.5c3.4,0,4.9,1.6,4.9,5.2v5.5c0,1.9,0.2,2.5,2.1,2.6v0.7h-6.8v-0.7c1.9-0.1,2.1-0.7,2.1-2.6v-4.4
		c0-3.3-0.8-4.9-3.3-4.9c-1.3,0-2.5,0.5-3.5,1.5v7.8C381.7,59.2,381.9,59.9,383.8,59.9z"/>
	<path class="st0" d="M410.5,39v-0.7l4.4-1.2v20.3c0,1.1,0,1.7,0.8,1.7c0.1,0,0.4,0,0.9-0.1v0.7l-4.3,0.8v-1.6
		c-1.5,1.2-3,1.8-4.5,1.8c-3.6,0-6.2-2.6-6.2-6.8c0-4.2,3.1-7.5,7.1-7.5c1.3,0,2.5,0.3,3.6,1.1v-7.9L410.5,39z M412.4,49.6
		c-0.9-1.5-2.2-2.2-3.8-2.2c-2.7,0-4.4,2.1-4.4,5.9c0,4.1,1.9,6.4,4.6,6.4c1.3,0,2.4-0.6,3.6-1.7L412.4,49.6L412.4,49.6z"/>
</g>
</svg>
