<?xml version="1.0" encoding="utf-8"?>
<!-- Generator: Adobe Illustrator 25.4.1, SVG Export Plug-In . SVG Version: 6.00 Build 0)  -->
<svg version="1.1" id="レイヤー_1" xmlns="http://www.w3.org/2000/svg" xmlns:xlink="http://www.w3.org/1999/xlink" x="0px"
	 y="0px" viewBox="0 0 400 50" style="enable-background:new 0 0 400 50;" xml:space="preserve">
<style type="text/css">
	.st0{fill:#463143;}
</style>
<g>
	<path class="st0" d="M123.46,31.05c1.75,5,4.68,7.51,8.55,7.51c3.73,0,6.03-2.2,6.03-5.44c0-1.53-0.54-2.83-1.53-3.87
		c-1.67-1.71-3.78-2.38-5.89-3.38c-4.77-2.25-7.11-4.05-7.11-7.78c0-4.59,3.6-7.56,9.85-7.56c2.21,0,4.28,0.36,6.21,1.03l0.04,6.3
		l-0.76,0.09c-1.35-4.32-3.15-6.21-6.39-6.21c-3.42,0-5.67,1.98-5.67,4.63c0,2.79,2.25,4.5,6.57,6.48c2.07,0.95,4.23,1.67,6.03,3.38
		c1.39,1.3,2.11,3.06,2.11,5.13c0,4.95-4.05,8.41-10.57,8.41c-2.52,0-5-0.4-7.42-1.26l-0.99-7.38L123.46,31.05z"/>
	<path class="st0" d="M154.38,38.56v0.95h-8.77v-0.95c2.47-0.09,2.74-0.9,2.74-3.33v-22.5l-1.75-1.04v-0.86l5.08-1.53v20.74
		c4.72-2.7,7.02-5.17,7.02-6.08c0-0.72-0.63-1.08-1.93-1.12v-0.95h7.6v0.95c-1.98,0.45-3.42,1.35-4.95,2.66l-3.87,3.33l6.52,6.79
		c1.21,1.26,2.43,2.38,4.37,2.92v0.95h-9.36v-0.95c1.44,0,2.12-0.18,2.12-0.76c0-0.67-0.72-1.75-2.12-3.15l-3.96-4
		c-0.5,0.27-0.95,0.54-1.44,0.72v3.87C151.68,37.66,151.9,38.47,154.38,38.56z"/>
	<path class="st0" d="M178.59,38.56v0.95h-8.77v-0.95c2.47-0.09,2.74-0.9,2.74-3.33v-9.99l-2.25-1.26v-0.72l4.81-1.89l0.76,0.4
		v13.46C175.89,37.66,176.12,38.47,178.59,38.56z M174.23,10.53c1.08,0,1.98,0.9,1.98,1.98c0,1.12-0.86,2.03-1.98,2.03
		c-1.03,0-2.02-0.95-2.02-2.03C172.2,11.47,173.19,10.53,174.23,10.53z"/>
	<path class="st0" d="M191.78,38.56v0.95h-8.77v-0.95c2.47-0.09,2.74-0.9,2.74-3.33v-9.99l-1.57-1.17v-0.58l3.91-2.11l0.77,0.4v1.75
		c2.11-1.26,4-1.93,5.98-1.93c4.32,0,6.25,2.07,6.25,6.61v7.02c0,2.43,0.22,3.24,2.7,3.33v0.95h-8.73v-0.95
		c2.47-0.09,2.7-0.9,2.7-3.33v-5.71c0-4.28-0.99-6.3-4.23-6.3c-1.71,0-3.2,0.67-4.46,1.98v10.04
		C189.08,37.66,189.31,38.47,191.78,38.56z"/>
	<path class="st0" d="M225.94,36.27c-3.15-2.56-4.82-6.34-4.82-11.11s1.71-8.64,4.86-11.2c2.75-2.25,6.12-3.42,10.03-3.42
		c3.92,0,7.29,1.17,10.04,3.42c3.15,2.56,4.86,6.43,4.86,11.2s-1.67,8.55-4.81,11.11c-2.83,2.29-6.17,3.46-10.08,3.46
		C232.1,39.73,228.77,38.56,225.94,36.27z M246.46,25.15c0-8.59-4.05-13.45-10.44-13.45s-10.39,4.86-10.39,13.45
		c0,8.55,4,13.41,10.39,13.41S246.46,33.7,246.46,25.15z"/>
	<path class="st0" d="M264.34,38.56v0.95h-8.77v-0.95c2.47-0.09,2.74-0.9,2.74-3.33v-9.99l-2.25-1.26v-0.72l4.81-1.89l0.76,0.4
		v13.46C261.64,37.66,261.86,38.47,264.34,38.56z M259.97,10.53c1.08,0,1.98,0.9,1.98,1.98c0,1.12-0.86,2.03-1.98,2.03
		c-1.03,0-2.02-0.95-2.02-2.03C257.95,11.47,258.94,10.53,259.97,10.53z"/>
	<path class="st0" d="M277.48,38.56v0.95h-8.77v-0.95c2.47-0.09,2.74-0.9,2.74-3.33v-22.5l-1.75-1.04v-0.86l5.08-1.53v25.92
		C274.78,37.66,275.01,38.47,277.48,38.56z"/>
</g>
</svg>
