<?xml version="1.0" encoding="utf-8"?>
<!-- Generator: Adobe Illustrator 25.4.1, SVG Export Plug-In . SVG Version: 6.00 Build 0)  -->
<svg version="1.1" id="レイヤー_1" xmlns="http://www.w3.org/2000/svg" xmlns:xlink="http://www.w3.org/1999/xlink" x="0px"
	 y="0px" viewBox="0 0 400 50" style="enable-background:new 0 0 400 50;" xml:space="preserve">
<style type="text/css">
	.st0{fill:#463143;}
</style>
<g>
	<path class="st0" d="M48,40.63c-4.2-3.42-6.42-8.46-6.42-14.82c0-6.36,2.28-11.52,6.48-14.94c3.66-3,8.16-4.56,13.38-4.56
		s9.72,1.56,13.38,4.56c4.2,3.42,6.48,8.58,6.48,14.94c0,6.36-2.22,11.4-6.42,14.82c-3.78,3.06-8.22,4.62-13.44,4.62
		S51.78,43.69,48,40.63z M75.36,25.81c0-11.46-5.4-17.94-13.92-17.94s-13.86,6.48-13.86,17.94c0,11.4,5.34,17.88,13.86,17.88
		S75.36,37.21,75.36,25.81z"/>
	<path class="st0" d="M101.82,43.69v1.26h-11.7v-1.26c3.3-0.12,3.66-1.2,3.66-4.44v-30l-2.34-1.38V6.73l6.78-2.04v34.56
		C98.22,42.49,98.52,43.57,101.82,43.69z"/>
	<path class="st0" d="M132.24,22.75c-1.74,0.12-2.52,2.04-3.84,5.46l-6.6,17.04h-1.86c-1.74-4.62-3.12-8.16-4.08-10.56l-2.1-5.04
		c-1.86-4.5-2.82-6.9-5.04-6.9c-0.12,0-0.24,0-0.36,0v-1.26h10.44v1.26c-1.86,0.18-2.64,0.6-2.64,1.8c0,0.78,0.42,1.74,0.9,2.94
		l4.98,12.42c3.72-8.76,5.28-13.98,5.28-15.24c0-1.44-0.66-1.86-2.64-1.92v-1.26h7.56V22.75z"/>
	<path class="st0" d="M152.41,43.69v1.26h-11.7v-1.26c3.3-0.12,3.66-1.2,3.66-4.44V25.93l-3-1.68v-0.96l6.42-2.52l1.02,0.54v17.94
		C148.81,42.49,149.11,43.57,152.41,43.69z M146.59,6.31c1.44,0,2.64,1.2,2.64,2.64c0,1.5-1.14,2.7-2.64,2.7
		c-1.38,0-2.7-1.26-2.7-2.7C143.89,7.57,145.21,6.31,146.59,6.31z"/>
	<path class="st0" d="M171.8,45.25c-6.54,0-11.22-4.98-11.22-12.3c0-6.72,5.16-11.88,11.76-11.88c5.04,0,8.58,3.12,8.94,8.1h-16.02
		c-0.18,1.26-0.3,2.4-0.3,3.6c0,5.7,3.72,9.9,8.76,9.9c2.34,0,4.44-0.96,6.9-2.64l0.78,0.9C178.7,43.81,175.52,45.25,171.8,45.25z
		 M176.9,27.79c-0.12-3.6-1.86-5.34-5.22-5.34c-2.94,0-5.04,1.86-6,5.34H176.9z"/>
	<path class="st0" d="M213.62,33.67c2.34,6.66,6.24,10.02,11.4,10.02c4.98,0,8.04-2.94,8.04-7.26c0-2.04-0.72-3.78-2.04-5.16
		c-2.22-2.28-5.04-3.18-7.86-4.5c-6.36-3-9.48-5.4-9.48-10.38c0-6.12,4.8-10.08,13.14-10.08c2.94,0,5.7,0.48,8.28,1.38l0.06,8.4
		l-1.02,0.12c-1.8-5.76-4.2-8.28-8.52-8.28c-4.56,0-7.56,2.64-7.56,6.18c0,3.72,3,6,8.76,8.64c2.76,1.26,5.64,2.22,8.04,4.5
		c1.86,1.74,2.82,4.08,2.82,6.84c0,6.6-5.4,11.22-14.1,11.22c-3.36,0-6.66-0.54-9.9-1.68l-1.32-9.84L213.62,33.67z"/>
	<path class="st0" d="M253.42,45.13c-3.84,0-6-1.8-6-4.74c0-4.2,4.44-6,13.68-8.04v-4.08c0-4.02-0.48-5.64-3.72-5.64
		c-1.92,0-3.36,0.72-4.14,2.1c-0.9,1.56-0.66,3.9-3.06,3.9c-0.96,0-1.62-0.6-1.62-1.62c0-2.16,4.68-5.94,10.32-5.94
		c2.64,0,4.56,0.84,5.7,2.52c0.78,1.08,0.84,2.52,0.84,4.32c0,0.66,0,1.38,0,2.1v10.14c0,1.92,0.24,2.7,1.5,2.7
		c0.66,0,1.32-0.24,1.92-0.66l0.54,0.78c-1.56,1.56-3.3,2.34-4.8,2.34c-1.74,0-2.7-1.02-3.36-3.36
		C258.4,43.99,255.94,45.13,253.42,45.13z M261.1,33.61c-6.36,1.5-9.06,2.34-9.06,5.76c0,2.1,1.32,3.54,3.48,3.54
		c1.44,0,3.24-0.72,5.58-2.1V33.61z"/>
	<path class="st0" d="M290.15,43.69v1.26h-11.7v-1.26c3.3-0.12,3.66-1.2,3.66-4.44v-30l-2.34-1.38V6.73l6.78-2.04v34.56
		C286.55,42.49,286.85,43.57,290.15,43.69z"/>
	<path class="st0" d="M309.93,45.25c-6.84,0-11.64-4.86-11.64-12.12c0-6.84,5.34-12.06,12.54-12.06c6.78,0,11.64,4.86,11.64,11.82
		C322.47,40.09,317.07,45.25,309.93,45.25z M317.55,33.19c0-6.96-2.64-10.74-7.2-10.74c-4.14,0-7.2,3.96-7.2,10.74
		c0,6.9,2.58,10.68,7.14,10.68C314.43,43.87,317.55,39.91,317.55,33.19z"/>
	<path class="st0" d="M342.4,43.69v1.26h-11.7v-1.26c3.3-0.12,3.66-1.2,3.66-4.44V25.93l-2.1-1.56v-0.78l5.22-2.82l1.02,0.54v2.34
		c2.82-1.68,5.34-2.58,7.98-2.58c5.76,0,8.34,2.76,8.34,8.82v9.36c0,3.24,0.3,4.32,3.6,4.44v1.26h-11.64v-1.26
		c3.3-0.12,3.6-1.2,3.6-4.44v-7.62c0-5.7-1.32-8.4-5.64-8.4c-2.28,0-4.26,0.9-5.94,2.64v13.38C338.8,42.49,339.1,43.57,342.4,43.69z
		"/>
</g>
</svg>
