<?xml version="1.0" encoding="utf-8"?>
<!-- Generator: Adobe Illustrator 25.4.1, SVG Export Plug-In . SVG Version: 6.00 Build 0)  -->
<svg version="1.1" id="レイヤー_1" xmlns="http://www.w3.org/2000/svg" xmlns:xlink="http://www.w3.org/1999/xlink" x="0px"
	 y="0px" viewBox="0 0 400 50" style="enable-background:new 0 0 400 50;" xml:space="preserve">
<style type="text/css">
	.st0{fill:#463143;}
</style>
<g>
	<path class="st0" d="M154.15,29.83c1.75,5,4.68,7.51,8.55,7.51c3.73,0,6.03-2.2,6.03-5.44c0-1.53-0.54-2.83-1.53-3.87
		c-1.67-1.71-3.78-2.38-5.89-3.38c-4.77-2.25-7.11-4.05-7.11-7.78c0-4.59,3.6-7.56,9.85-7.56c2.21,0,4.28,0.36,6.21,1.03l0.04,6.3
		l-0.76,0.09c-1.35-4.32-3.15-6.21-6.39-6.21c-3.42,0-5.67,1.98-5.67,4.63c0,2.79,2.25,4.5,6.57,6.48c2.07,0.95,4.23,1.67,6.03,3.38
		c1.39,1.3,2.11,3.06,2.11,5.13c0,4.95-4.05,8.41-10.57,8.41c-2.52,0-5-0.4-7.42-1.26l-0.99-7.38L154.15,29.83z"/>
	<path class="st0" d="M188.78,38.52c-5.13,0-8.73-3.64-8.73-9.09c0-5.13,4-9.04,9.4-9.04c5.08,0,8.73,3.64,8.73,8.86
		C198.18,34.65,194.13,38.52,188.78,38.52z M194.49,29.47c0-5.22-1.98-8.05-5.4-8.05c-3.1,0-5.4,2.97-5.4,8.05
		c0,5.17,1.93,8.01,5.35,8.01C192.15,37.48,194.49,34.51,194.49,29.47z"/>
	<path class="st0" d="M209.67,38.43c-2.88,0-4.5-1.35-4.5-3.55c0-3.15,3.33-4.5,10.26-6.03v-3.06c0-3.01-0.36-4.23-2.79-4.23
		c-1.44,0-2.52,0.54-3.1,1.58c-0.67,1.17-0.5,2.92-2.29,2.92c-0.72,0-1.21-0.45-1.21-1.21c0-1.62,3.51-4.46,7.74-4.46
		c1.98,0,3.42,0.63,4.27,1.89c0.58,0.81,0.63,1.89,0.63,3.24c0,0.5,0,1.04,0,1.58v7.6c0,1.44,0.18,2.02,1.12,2.02
		c0.49,0,0.99-0.18,1.44-0.5l0.41,0.58c-1.17,1.17-2.48,1.75-3.6,1.75c-1.3,0-2.02-0.76-2.52-2.52
		C213.4,37.57,211.56,38.43,209.67,38.43z M215.43,29.79c-4.77,1.12-6.79,1.75-6.79,4.32c0,1.57,0.99,2.65,2.61,2.65
		c1.08,0,2.43-0.54,4.18-1.57V29.79z"/>
	<path class="st0" d="M236.04,47.79c0.09,0,0.13,0,0.22,0v0.9h-9.27v-0.9c2.47-0.09,2.7-0.94,2.7-3.37V24.03l-1.53-1.17v-0.58
		l4.05-2.11l0.81,0.4v2.03c1.94-1.53,3.83-2.25,5.85-2.25c4.59,0,7.92,3.38,7.92,8.68c0,5.35-4,9.58-9.09,9.58
		c-1.44,0-2.97-0.36-4.68-1.08v6.88C233.02,46.93,233.34,47.79,236.04,47.79z M233.02,34.74c1.08,1.8,2.92,2.83,5.04,2.83
		c3.33,0,5.49-2.75,5.49-7.56c0-5.22-2.48-8.24-5.94-8.24c-1.67,0-3.06,0.72-4.59,2.21V34.74z"/>
</g>
</svg>
