<?xml version="1.0" encoding="utf-8"?>
<!-- Generator: Adobe Illustrator 25.4.1, SVG Export Plug-In . SVG Version: 6.00 Build 0)  -->
<svg version="1.1" id="レイヤー_1" xmlns="http://www.w3.org/2000/svg" xmlns:xlink="http://www.w3.org/1999/xlink" x="0px"
	 y="0px" viewBox="0 0 400 50" style="enable-background:new 0 0 400 50;" xml:space="preserve">
<style type="text/css">
	.st0{fill:#463143;}
</style>
<g>
	<g>
		<path class="st0" d="M62.57,40.66c-4.2-3.42-6.42-8.46-6.42-14.82c0-6.36,2.28-11.52,6.48-14.94c3.66-3,8.16-4.56,13.38-4.56
			s9.72,1.56,13.38,4.56c4.2,3.42,6.48,8.58,6.48,14.94c0,6.36-2.22,11.4-6.42,14.82c-3.78,3.06-8.22,4.62-13.44,4.62
			S66.35,43.72,62.57,40.66z M89.93,25.84c0-11.46-5.4-17.94-13.92-17.94s-13.86,6.48-13.86,17.94c0,11.4,5.34,17.88,13.86,17.88
			S89.93,37.24,89.93,25.84z"/>
		<path class="st0" d="M116.39,43.72v1.26h-11.7v-1.26c3.3-0.12,3.66-1.2,3.66-4.44v-30l-2.34-1.38V6.76l6.78-2.04v34.56
			C112.79,42.52,113.09,43.6,116.39,43.72z"/>
		<path class="st0" d="M146.81,22.78c-1.74,0.12-2.52,2.04-3.84,5.46l-6.6,17.04h-1.86c-1.74-4.62-3.12-8.16-4.08-10.56l-2.1-5.04
			c-1.86-4.5-2.82-6.9-5.04-6.9c-0.12,0-0.24,0-0.36,0v-1.26h10.44v1.26c-1.86,0.18-2.64,0.6-2.64,1.8c0,0.78,0.42,1.74,0.9,2.94
			l4.98,12.42c3.72-8.76,5.28-13.98,5.28-15.24c0-1.44-0.66-1.86-2.64-1.92v-1.26h7.56V22.78z"/>
		<path class="st0" d="M166.98,43.72v1.26h-11.7v-1.26c3.3-0.12,3.66-1.2,3.66-4.44V25.96l-3-1.68v-0.96l6.42-2.52l1.02,0.54v17.94
			C163.38,42.52,163.68,43.6,166.98,43.72z M161.16,6.34c1.44,0,2.64,1.2,2.64,2.64c0,1.5-1.14,2.7-2.64,2.7
			c-1.38,0-2.7-1.26-2.7-2.7C158.46,7.6,159.78,6.34,161.16,6.34z"/>
		<path class="st0" d="M186.37,45.28c-6.54,0-11.22-4.98-11.22-12.3c0-6.72,5.16-11.88,11.76-11.88c5.04,0,8.58,3.12,8.94,8.1
			h-16.02c-0.18,1.26-0.3,2.4-0.3,3.6c0,5.7,3.72,9.9,8.76,9.9c2.34,0,4.44-0.96,6.9-2.64l0.78,0.9
			C193.27,43.84,190.09,45.28,186.37,45.28z M191.47,27.82c-0.12-3.6-1.86-5.34-5.22-5.34c-2.94,0-5.04,1.86-6,5.34H191.47z"/>
		<path class="st0" d="M225.55,43.48c5.28-0.18,5.58-1.62,5.58-6.36V14.5c0-4.74-0.3-6.12-5.58-6.3V6.64h16.44V8.2
			c-5.28,0.18-5.58,1.56-5.58,6.3v22.62c0,4.74,0.3,6.18,5.58,6.36v1.5h-16.44V43.48z"/>
		<path class="st0" d="M249.61,23.44v-1.02l6-6.24h0.9v5.34h7.5v1.92h-7.5v13.44c0,4.44,0.66,6.24,4.56,6.24
			c0.84,0,1.92-0.18,3.18-0.66l0.42,1.08c-1.26,1.08-3.42,1.74-6.18,1.74c-5.34,0-6.42-2.76-6.42-9.06V23.44H249.61z"/>
		<path class="st0" d="M282.6,45.28c-6.54,0-11.22-4.98-11.22-12.3c0-6.72,5.16-11.88,11.76-11.88c5.04,0,8.58,3.12,8.94,8.1h-16.02
			c-0.18,1.26-0.3,2.4-0.3,3.6c0,5.7,3.72,9.9,8.76,9.9c2.34,0,4.44-0.96,6.9-2.64l0.78,0.9C289.5,43.84,286.32,45.28,282.6,45.28z
			 M287.7,27.82c-0.12-3.6-1.86-5.34-5.22-5.34c-2.94,0-5.04,1.86-6,5.34H287.7z"/>
		<path class="st0" d="M312.35,43.72v1.26h-11.7v-1.26c3.3-0.12,3.66-1.2,3.66-4.44V25.96l-2.1-1.56v-0.78l5.22-2.82l1.02,0.54v2.34
			c2.82-1.74,5.46-2.58,8.1-2.58c3.18,0,5.46,1.14,6.72,3.3c3.12-2.22,6-3.3,9-3.3c5.4,0,7.98,2.88,7.98,8.82v9.36
			c0,3.24,0.3,4.32,3.6,4.44v1.26h-11.64v-1.26c3.3-0.12,3.6-1.2,3.6-4.44v-7.62c0-5.7-1.38-8.34-5.52-8.34
			c-2.1,0-4.08,0.9-5.76,2.58v13.38c0,3.24,0.3,4.32,3.6,4.44v1.26h-11.7v-1.26c3.3-0.12,3.66-1.2,3.66-4.44v-7.62
			c0-5.7-1.38-8.34-5.52-8.34c-2.1,0-4.14,0.9-5.82,2.58v13.38C308.75,42.52,309.05,43.6,312.35,43.72z"/>
	</g>
</g>
</svg>
